%TF.GenerationSoftware,KiCad,Pcbnew,7.0.1*%
%TF.CreationDate,2023-05-30T14:24:39-07:00*%
%TF.ProjectId,tn_vdp_v1_fat,746e5f76-6470-45f7-9631-5f6661742e6b,rev?*%
%TF.SameCoordinates,Original*%
%TF.FileFunction,Copper,L2,Bot*%
%TF.FilePolarity,Positive*%
%FSLAX46Y46*%
G04 Gerber Fmt 4.6, Leading zero omitted, Abs format (unit mm)*
G04 Created by KiCad (PCBNEW 7.0.1) date 2023-05-30 14:24:39*
%MOMM*%
%LPD*%
G01*
G04 APERTURE LIST*
%TA.AperFunction,ComponentPad*%
%ADD10R,2.400000X1.600000*%
%TD*%
%TA.AperFunction,ComponentPad*%
%ADD11O,2.400000X1.600000*%
%TD*%
%TA.AperFunction,ComponentPad*%
%ADD12R,1.700000X1.700000*%
%TD*%
%TA.AperFunction,ComponentPad*%
%ADD13O,1.700000X1.700000*%
%TD*%
%TA.AperFunction,ComponentPad*%
%ADD14R,1.600000X1.600000*%
%TD*%
%TA.AperFunction,ComponentPad*%
%ADD15O,1.600000X1.600000*%
%TD*%
%TA.AperFunction,ComponentPad*%
%ADD16R,2.200000X2.200000*%
%TD*%
%TA.AperFunction,ComponentPad*%
%ADD17O,2.200000X2.200000*%
%TD*%
%TA.AperFunction,ViaPad*%
%ADD18C,0.800000*%
%TD*%
%TA.AperFunction,Conductor*%
%ADD19C,0.500000*%
%TD*%
%TA.AperFunction,Conductor*%
%ADD20C,0.250000*%
%TD*%
G04 APERTURE END LIST*
D10*
%TO.P,U3,1,DIR*%
%TO.N,VDD*%
X138811000Y-85852000D03*
D11*
%TO.P,U3,2,A0*%
%TO.N,~{RESET}*%
X138811000Y-88392000D03*
%TO.P,U3,3,A1*%
%TO.N,~{INT_3V3}*%
X138811000Y-90932000D03*
%TO.P,U3,4,A2*%
%TO.N,~{CSW}*%
X138811000Y-93472000D03*
%TO.P,U3,5,A3*%
%TO.N,~{CSR}*%
X138811000Y-96012000D03*
%TO.P,U3,6,A4*%
%TO.N,MODE*%
X138811000Y-98552000D03*
%TO.P,U3,7,A5*%
%TO.N,CPUCLK_3V3*%
X138811000Y-101092000D03*
%TO.P,U3,8,A6*%
%TO.N,GROMCLK_3V3*%
X138811000Y-103632000D03*
%TO.P,U3,9,A7*%
%TO.N,unconnected-(U3-A7-Pad9)*%
X138811000Y-106172000D03*
%TO.P,U3,10,GND*%
%TO.N,GND*%
X138811000Y-108712000D03*
%TO.P,U3,11,B7*%
%TO.N,unconnected-(U3-B7-Pad11)*%
X146431000Y-108712000D03*
%TO.P,U3,12,B6*%
%TO.N,GROMCLK*%
X146431000Y-106172000D03*
%TO.P,U3,13,B5*%
%TO.N,CPUCLK*%
X146431000Y-103632000D03*
%TO.P,U3,14,B4*%
%TO.N,MODE_3V3*%
X146431000Y-101092000D03*
%TO.P,U3,15,B3*%
%TO.N,~{CSR_3V3}*%
X146431000Y-98552000D03*
%TO.P,U3,16,B2*%
%TO.N,~{CSW_3V3}*%
X146431000Y-96012000D03*
%TO.P,U3,17,B1*%
%TO.N,~{INT}*%
X146431000Y-93472000D03*
%TO.P,U3,18,B0*%
%TO.N,~{RESET_3V3}*%
X146431000Y-90932000D03*
%TO.P,U3,19,~{0E}*%
%TO.N,GND*%
X146431000Y-88392000D03*
%TO.P,U3,20,VCC*%
%TO.N,VCC_3V3*%
X146431000Y-85852000D03*
%TD*%
D12*
%TO.P,J3,1,Pin_1*%
%TO.N,MODE_3V3*%
X150622000Y-50165000D03*
D13*
%TO.P,J3,2,Pin_2*%
%TO.N,~{CSW_3V3}*%
X150622000Y-52705000D03*
%TO.P,J3,3,Pin_3*%
%TO.N,~{CSR_3V3}*%
X150622000Y-55245000D03*
%TO.P,J3,4,Pin_4*%
%TO.N,~{INT_3V3}*%
X150622000Y-57785000D03*
%TO.P,J3,5,Pin_5*%
%TO.N,CPUCLK_3V3*%
X150622000Y-60325000D03*
%TO.P,J3,6,Pin_6*%
%TO.N,GROMCLK_3V3*%
X150622000Y-62865000D03*
%TO.P,J3,7,Pin_7*%
%TO.N,~{RESET_3V3}*%
X150622000Y-65405000D03*
%TO.P,J3,8,Pin_8*%
%TO.N,CD0_3V3*%
X150622000Y-67945000D03*
%TO.P,J3,9,Pin_9*%
%TO.N,CD1_3V3*%
X150622000Y-70485000D03*
%TO.P,J3,10,Pin_10*%
%TO.N,CD2_3V3*%
X150622000Y-73025000D03*
%TO.P,J3,11,Pin_11*%
%TO.N,CD3_3V3*%
X150622000Y-75565000D03*
%TO.P,J3,12,Pin_12*%
%TO.N,CD4_3V3*%
X150622000Y-78105000D03*
%TO.P,J3,13,Pin_13*%
%TO.N,CD5_3V3*%
X150622000Y-80645000D03*
%TO.P,J3,14,Pin_14*%
%TO.N,CD6_3V3*%
X150622000Y-83185000D03*
%TO.P,J3,15,Pin_15*%
%TO.N,CD7_3V3*%
X150622000Y-85725000D03*
%TO.P,J3,16,Pin_16*%
%TO.N,VS_3V3*%
X150622000Y-88265000D03*
%TO.P,J3,17,Pin_17*%
%TO.N,R3_3V3*%
X150622000Y-90805000D03*
%TO.P,J3,18,Pin_18*%
%TO.N,R2_3V3*%
X150622000Y-93345000D03*
%TO.P,J3,19,Pin_19*%
%TO.N,G3_3V3*%
X150622000Y-95885000D03*
%TO.P,J3,20,Pin_20*%
%TO.N,G2_3V3*%
X150622000Y-98425000D03*
%TO.P,J3,21,Pin_21*%
%TO.N,G1_3V3*%
X150622000Y-100965000D03*
%TO.P,J3,22,Pin_22*%
%TO.N,G0_3V3*%
X150622000Y-103505000D03*
%TO.P,J3,23,Pin_23*%
%TO.N,unconnected-(J3-Pin_23-Pad23)*%
X150622000Y-106045000D03*
%TO.P,J3,24,Pin_24*%
%TO.N,unconnected-(J3-Pin_24-Pad24)*%
X150622000Y-108585000D03*
%TD*%
D14*
%TO.P,J5,1,Pin_1*%
%TO.N,USR1_1V8*%
X138811000Y-51562000D03*
D15*
%TO.P,J5,2,Pin_2*%
%TO.N,USR2_1V8*%
X138811000Y-54102000D03*
%TO.P,J5,3,Pin_3*%
%TO.N,USR3_1V8*%
X138811000Y-56642000D03*
%TO.P,J5,4,Pin_4*%
%TO.N,USR4_1V8*%
X138811000Y-59182000D03*
%TO.P,J5,5,Pin_5*%
%TO.N,GND*%
X146431000Y-59182000D03*
%TO.P,J5,6,Pin_6*%
X146431000Y-56642000D03*
%TO.P,J5,7,Pin_7*%
X146431000Y-54102000D03*
%TO.P,J5,8,Pin_8*%
X146431000Y-51562000D03*
%TD*%
D12*
%TO.P,J6,1,Pin_1*%
%TO.N,R0_3V3*%
X141478000Y-81788000D03*
D13*
%TO.P,J6,2,Pin_2*%
%TO.N,R1_3V3*%
X138938000Y-81788000D03*
%TO.P,J6,3,Pin_3*%
%TO.N,R2_3V3*%
X141478000Y-79248000D03*
%TO.P,J6,4,Pin_4*%
%TO.N,R3_3V3*%
X138938000Y-79248000D03*
%TO.P,J6,5,Pin_5*%
%TO.N,G0_3V3*%
X141478000Y-76708000D03*
%TO.P,J6,6,Pin_6*%
%TO.N,G1_3V3*%
X138938000Y-76708000D03*
%TO.P,J6,7,Pin_7*%
%TO.N,G2_3V3*%
X141478000Y-74168000D03*
%TO.P,J6,8,Pin_8*%
%TO.N,G3_3V3*%
X138938000Y-74168000D03*
%TO.P,J6,9,Pin_9*%
%TO.N,B0_3V3*%
X141478000Y-71628000D03*
%TO.P,J6,10,Pin_10*%
%TO.N,B1_3V3*%
X138938000Y-71628000D03*
%TO.P,J6,11,Pin_11*%
%TO.N,B2_3V3*%
X141478000Y-69088000D03*
%TO.P,J6,12,Pin_12*%
%TO.N,B3_3V3*%
X138938000Y-69088000D03*
%TO.P,J6,13,Pin_13*%
%TO.N,HS_3V3*%
X141478000Y-66548000D03*
%TO.P,J6,14,Pin_14*%
%TO.N,VS_3V3*%
X138938000Y-66548000D03*
%TO.P,J6,15,Pin_15*%
%TO.N,GND*%
X141478000Y-64008000D03*
%TO.P,J6,16,Pin_16*%
X138938000Y-64008000D03*
%TD*%
D12*
%TO.P,J4,1,Pin_1*%
%TO.N,HS_3V3*%
X173438900Y-50165000D03*
D13*
%TO.P,J4,2,Pin_2*%
%TO.N,USR1_1V8*%
X173438900Y-52705000D03*
%TO.P,J4,3,Pin_3*%
%TO.N,USR2_1V8*%
X173438900Y-55245000D03*
%TO.P,J4,4,Pin_4*%
%TO.N,USR3_1V8*%
X173438900Y-57785000D03*
%TO.P,J4,5,Pin_5*%
%TO.N,USR4_1V8*%
X173438900Y-60325000D03*
%TO.P,J4,6,Pin_6*%
%TO.N,unconnected-(J4-Pin_6-Pad6)*%
X173438900Y-62865000D03*
%TO.P,J4,7,Pin_7*%
%TO.N,unconnected-(J4-Pin_7-Pad7)*%
X173438900Y-65405000D03*
%TO.P,J4,8,Pin_8*%
%TO.N,unconnected-(J4-Pin_8-Pad8)*%
X173438900Y-67945000D03*
%TO.P,J4,9,Pin_9*%
%TO.N,unconnected-(J4-Pin_9-Pad9)*%
X173438900Y-70485000D03*
%TO.P,J4,10,Pin_10*%
%TO.N,R1_3V3*%
X173438900Y-73025000D03*
%TO.P,J4,11,Pin_11*%
%TO.N,R0_3V3*%
X173438900Y-75565000D03*
%TO.P,J4,12,Pin_12*%
%TO.N,unconnected-(J4-Pin_12-Pad12)*%
X173438900Y-78105000D03*
%TO.P,J4,13,Pin_13*%
%TO.N,unconnected-(J4-Pin_13-Pad13)*%
X173438900Y-80645000D03*
%TO.P,J4,14,Pin_14*%
%TO.N,unconnected-(J4-Pin_14-Pad14)*%
X173438900Y-83185000D03*
%TO.P,J4,15,Pin_15*%
%TO.N,unconnected-(J4-Pin_15-Pad15)*%
X173438900Y-85725000D03*
%TO.P,J4,16,Pin_16*%
%TO.N,unconnected-(J4-Pin_16-Pad16)*%
X173438900Y-88265000D03*
%TO.P,J4,17,Pin_17*%
%TO.N,unconnected-(J4-Pin_17-Pad17)*%
X173438900Y-90805000D03*
%TO.P,J4,18,Pin_18*%
%TO.N,VDD*%
X173438900Y-93345000D03*
%TO.P,J4,19,Pin_19*%
%TO.N,B3_3V3*%
X173438900Y-95885000D03*
%TO.P,J4,20,Pin_20*%
%TO.N,B2_3V3*%
X173438900Y-98425000D03*
%TO.P,J4,21,Pin_21*%
%TO.N,B1_3V3*%
X173438900Y-100965000D03*
%TO.P,J4,22,Pin_22*%
%TO.N,B0_3V3*%
X173438900Y-103505000D03*
%TO.P,J4,23,Pin_23*%
%TO.N,GND*%
X173438900Y-106045000D03*
%TO.P,J4,24,Pin_24*%
%TO.N,VCC_3V3*%
X173438900Y-108585000D03*
%TD*%
D10*
%TO.P,U2,1,DIR*%
%TO.N,VDD*%
X158386700Y-50170000D03*
D11*
%TO.P,U2,2,A0*%
%TO.N,CD0*%
X158386700Y-52710000D03*
%TO.P,U2,3,A1*%
%TO.N,CD1*%
X158386700Y-55250000D03*
%TO.P,U2,4,A2*%
%TO.N,CD2*%
X158386700Y-57790000D03*
%TO.P,U2,5,A3*%
%TO.N,CD3*%
X158386700Y-60330000D03*
%TO.P,U2,6,A4*%
%TO.N,CD4*%
X158386700Y-62870000D03*
%TO.P,U2,7,A5*%
%TO.N,CD5*%
X158386700Y-65410000D03*
%TO.P,U2,8,A6*%
%TO.N,CD6*%
X158386700Y-67950000D03*
%TO.P,U2,9,A7*%
%TO.N,CD7*%
X158386700Y-70490000D03*
%TO.P,U2,10,GND*%
%TO.N,GND*%
X158386700Y-73030000D03*
%TO.P,U2,11,B7*%
%TO.N,CD7_3V3*%
X166006700Y-73030000D03*
%TO.P,U2,12,B6*%
%TO.N,CD6_3V3*%
X166006700Y-70490000D03*
%TO.P,U2,13,B5*%
%TO.N,CD5_3V3*%
X166006700Y-67950000D03*
%TO.P,U2,14,B4*%
%TO.N,CD4_3V3*%
X166006700Y-65410000D03*
%TO.P,U2,15,B3*%
%TO.N,CD3_3V3*%
X166006700Y-62870000D03*
%TO.P,U2,16,B2*%
%TO.N,CD2_3V3*%
X166006700Y-60330000D03*
%TO.P,U2,17,B1*%
%TO.N,CD1_3V3*%
X166006700Y-57790000D03*
%TO.P,U2,18,B0*%
%TO.N,CD0_3V3*%
X166006700Y-55250000D03*
%TO.P,U2,19,~{0E}*%
%TO.N,~{CSW}*%
X166006700Y-52710000D03*
%TO.P,U2,20,VCC*%
%TO.N,VCC_3V3*%
X166006700Y-50170000D03*
%TD*%
D16*
%TO.P,D1,1,K*%
%TO.N,VDD*%
X166624000Y-104648000D03*
D17*
%TO.P,D1,2,A*%
%TO.N,VCC*%
X156464000Y-104648000D03*
%TD*%
D10*
%TO.P,U1,1,DIR*%
%TO.N,GND*%
X158300500Y-77698600D03*
D11*
%TO.P,U1,2,A0*%
%TO.N,CD0*%
X158300500Y-80238600D03*
%TO.P,U1,3,A1*%
%TO.N,CD1*%
X158300500Y-82778600D03*
%TO.P,U1,4,A2*%
%TO.N,CD2*%
X158300500Y-85318600D03*
%TO.P,U1,5,A3*%
%TO.N,CD3*%
X158300500Y-87858600D03*
%TO.P,U1,6,A4*%
%TO.N,CD4*%
X158300500Y-90398600D03*
%TO.P,U1,7,A5*%
%TO.N,CD5*%
X158300500Y-92938600D03*
%TO.P,U1,8,A6*%
%TO.N,CD6*%
X158300500Y-95478600D03*
%TO.P,U1,9,A7*%
%TO.N,CD7*%
X158300500Y-98018600D03*
%TO.P,U1,10,GND*%
%TO.N,GND*%
X158300500Y-100558600D03*
%TO.P,U1,11,B7*%
%TO.N,CD7_3V3*%
X165920500Y-100558600D03*
%TO.P,U1,12,B6*%
%TO.N,CD6_3V3*%
X165920500Y-98018600D03*
%TO.P,U1,13,B5*%
%TO.N,CD5_3V3*%
X165920500Y-95478600D03*
%TO.P,U1,14,B4*%
%TO.N,CD4_3V3*%
X165920500Y-92938600D03*
%TO.P,U1,15,B3*%
%TO.N,CD3_3V3*%
X165920500Y-90398600D03*
%TO.P,U1,16,B2*%
%TO.N,CD2_3V3*%
X165920500Y-87858600D03*
%TO.P,U1,17,B1*%
%TO.N,CD1_3V3*%
X165920500Y-85318600D03*
%TO.P,U1,18,B0*%
%TO.N,CD0_3V3*%
X165920500Y-82778600D03*
%TO.P,U1,19,~{0E}*%
%TO.N,~{CSR}*%
X165920500Y-80238600D03*
%TO.P,U1,20,VCC*%
%TO.N,VCC_3V3*%
X165920500Y-77698600D03*
%TD*%
D12*
%TO.P,J2,1,Pin_1*%
%TO.N,unconnected-(J2-Pin_1-Pad1)*%
X154566700Y-98420000D03*
D13*
%TO.P,J2,2,Pin_2*%
%TO.N,unconnected-(J2-Pin_2-Pad2)*%
X154566700Y-95880000D03*
%TO.P,J2,3,Pin_3*%
%TO.N,CPUCLK*%
X154566700Y-93340000D03*
%TO.P,J2,4,Pin_4*%
%TO.N,GROMCLK*%
X154566700Y-90800000D03*
%TO.P,J2,5,Pin_5*%
%TO.N,COMVID*%
X154566700Y-88260000D03*
%TO.P,J2,6,Pin_6*%
%TO.N,EXTVDP*%
X154566700Y-85720000D03*
%TO.P,J2,7,Pin_7*%
%TO.N,~{RESET}*%
X154566700Y-83180000D03*
%TO.P,J2,8,Pin_8*%
%TO.N,VCC*%
X154566700Y-80640000D03*
%TO.P,J2,9,Pin_9*%
%TO.N,unconnected-(J2-Pin_9-Pad9)*%
X154566700Y-78100000D03*
%TO.P,J2,10,Pin_10*%
%TO.N,unconnected-(J2-Pin_10-Pad10)*%
X154566700Y-75560000D03*
%TO.P,J2,11,Pin_11*%
%TO.N,unconnected-(J2-Pin_11-Pad11)*%
X154566700Y-73020000D03*
%TO.P,J2,12,Pin_12*%
%TO.N,unconnected-(J2-Pin_12-Pad12)*%
X154566700Y-70480000D03*
%TO.P,J2,13,Pin_13*%
%TO.N,unconnected-(J2-Pin_13-Pad13)*%
X154566700Y-67940000D03*
%TO.P,J2,14,Pin_14*%
%TO.N,unconnected-(J2-Pin_14-Pad14)*%
X154566700Y-65400000D03*
%TO.P,J2,15,Pin_15*%
%TO.N,unconnected-(J2-Pin_15-Pad15)*%
X154566700Y-62860000D03*
%TO.P,J2,16,Pin_16*%
%TO.N,unconnected-(J2-Pin_16-Pad16)*%
X154566700Y-60320000D03*
%TO.P,J2,17,Pin_17*%
%TO.N,CD0*%
X154566700Y-57780000D03*
%TO.P,J2,18,Pin_18*%
%TO.N,CD1*%
X154566700Y-55240000D03*
%TO.P,J2,19,Pin_19*%
%TO.N,CD2*%
X154566700Y-52700000D03*
%TO.P,J2,20,Pin_20*%
%TO.N,CD3*%
X154566700Y-50160000D03*
%TD*%
D12*
%TO.P,J1,1,Pin_1*%
%TO.N,unconnected-(J1-Pin_1-Pad1)*%
X169806700Y-98420000D03*
D13*
%TO.P,J1,2,Pin_2*%
%TO.N,unconnected-(J1-Pin_2-Pad2)*%
X169806700Y-95880000D03*
%TO.P,J1,3,Pin_3*%
%TO.N,unconnected-(J1-Pin_3-Pad3)*%
X169806700Y-93340000D03*
%TO.P,J1,4,Pin_4*%
%TO.N,unconnected-(J1-Pin_4-Pad4)*%
X169806700Y-90800000D03*
%TO.P,J1,5,Pin_5*%
%TO.N,unconnected-(J1-Pin_5-Pad5)*%
X169806700Y-88260000D03*
%TO.P,J1,6,Pin_6*%
%TO.N,unconnected-(J1-Pin_6-Pad6)*%
X169806700Y-85720000D03*
%TO.P,J1,7,Pin_7*%
%TO.N,unconnected-(J1-Pin_7-Pad7)*%
X169806700Y-83180000D03*
%TO.P,J1,8,Pin_8*%
%TO.N,unconnected-(J1-Pin_8-Pad8)*%
X169806700Y-80640000D03*
%TO.P,J1,9,Pin_9*%
%TO.N,unconnected-(J1-Pin_9-Pad9)*%
X169806700Y-78100000D03*
%TO.P,J1,10,Pin_10*%
%TO.N,unconnected-(J1-Pin_10-Pad10)*%
X169806700Y-75560000D03*
%TO.P,J1,11,Pin_11*%
%TO.N,unconnected-(J1-Pin_11-Pad11)*%
X169806700Y-73020000D03*
%TO.P,J1,12,Pin_12*%
%TO.N,GND*%
X169806700Y-70480000D03*
%TO.P,J1,13,Pin_13*%
%TO.N,MODE*%
X169806700Y-67940000D03*
%TO.P,J1,14,Pin_14*%
%TO.N,~{CSW}*%
X169806700Y-65400000D03*
%TO.P,J1,15,Pin_15*%
%TO.N,~{CSR}*%
X169806700Y-62860000D03*
%TO.P,J1,16,Pin_16*%
%TO.N,~{INT}*%
X169806700Y-60320000D03*
%TO.P,J1,17,Pin_17*%
%TO.N,CD7*%
X169806700Y-57780000D03*
%TO.P,J1,18,Pin_18*%
%TO.N,CD6*%
X169806700Y-55240000D03*
%TO.P,J1,19,Pin_19*%
%TO.N,CD5*%
X169806700Y-52700000D03*
%TO.P,J1,20,Pin_20*%
%TO.N,CD4*%
X169806700Y-50160000D03*
%TD*%
D18*
%TO.N,B1_3V3*%
X137651400Y-64812200D03*
X142617000Y-58812800D03*
%TO.N,B2_3V3*%
X161511300Y-56694500D03*
%TO.N,B3_3V3*%
X148364000Y-101715200D03*
X141519900Y-85234700D03*
X141519900Y-95635100D03*
%TO.N,~{CSW_3V3}*%
X145561100Y-63302200D03*
%TO.N,CD0_3V3*%
X160707700Y-62951800D03*
%TO.N,CD1_3V3*%
X160798100Y-66342900D03*
%TO.N,CD2_3V3*%
X162533900Y-67442100D03*
%TO.N,CD3_3V3*%
X163613100Y-84470400D03*
%TO.N,CD4_3V3*%
X161612100Y-70548700D03*
X159779600Y-61828800D03*
%TO.N,CD5_3V3*%
X172189900Y-89980900D03*
%TO.N,CD6_3V3*%
X163628800Y-93715700D03*
X168631500Y-100950800D03*
%TO.N,CD7_3V3*%
X168595800Y-94776300D03*
%TO.N,R0_3V3*%
X143860800Y-63302200D03*
X165001400Y-75139600D03*
X144792600Y-83207200D03*
X144812400Y-58642400D03*
%TO.N,R1_3V3*%
X143635100Y-72727200D03*
%TO.N,G1_3V3*%
X142596800Y-91645600D03*
%TO.N,G2_3V3*%
X143673600Y-89626500D03*
%TO.N,MODE*%
X168833700Y-102722600D03*
X141062800Y-100266000D03*
X149089100Y-104800900D03*
X155025700Y-103398600D03*
%TO.N,~{CSR}*%
X145160400Y-107586800D03*
X173702300Y-111050300D03*
%TO.N,~{INT}*%
X176527900Y-102305500D03*
%TO.N,CD7*%
X160929200Y-71312900D03*
%TO.N,CD6*%
X161443000Y-95889900D03*
X169655900Y-103467400D03*
X169064400Y-105282000D03*
%TO.N,CD1*%
X155921600Y-81716400D03*
%TO.N,~{RESET}*%
X145770600Y-84215800D03*
X147181800Y-80423000D03*
%TD*%
D19*
%TO.N,VCC_3V3*%
X170037700Y-110686100D02*
X172138800Y-108585000D01*
X141657300Y-92816200D02*
X139731500Y-94742000D01*
X139731500Y-94742000D02*
X137896300Y-94742000D01*
X137151500Y-95486800D02*
X137151500Y-109241900D01*
X146431000Y-85852000D02*
X146245900Y-85852000D01*
X137151500Y-109241900D02*
X138595700Y-110686100D01*
X146245900Y-85852000D02*
X141657300Y-90440600D01*
X173438900Y-108585000D02*
X172138800Y-108585000D01*
X137896300Y-94742000D02*
X137151500Y-95486800D01*
X138595700Y-110686100D02*
X170037700Y-110686100D01*
X141657300Y-90440600D02*
X141657300Y-92816200D01*
%TO.N,GND*%
X138938000Y-64008000D02*
X141478000Y-64008000D01*
X163439200Y-71740200D02*
X162149400Y-73030000D01*
X154156300Y-106935600D02*
X151117400Y-109974500D01*
X138811000Y-108712000D02*
X140461100Y-108712000D01*
X158300500Y-100558600D02*
X159950600Y-100558600D01*
X144213000Y-64152300D02*
X142922400Y-64152300D01*
X158300500Y-100558600D02*
X156650400Y-100558600D01*
X169266400Y-101872500D02*
X168481600Y-101872500D01*
X151117400Y-109974500D02*
X141723600Y-109974500D01*
X142922400Y-64152300D02*
X142778100Y-64008000D01*
X146431000Y-60432100D02*
X144711000Y-62152100D01*
X146431000Y-59182000D02*
X146431000Y-60432100D01*
X168080500Y-102273600D02*
X161665600Y-102273600D01*
X162149400Y-73030000D02*
X160036800Y-73030000D01*
X158386700Y-73030000D02*
X160036800Y-73030000D01*
X159950600Y-77698600D02*
X160036800Y-77612400D01*
X160036800Y-77612400D02*
X160036800Y-73030000D01*
X168481600Y-101872500D02*
X168080500Y-102273600D01*
X172138800Y-104744900D02*
X169266400Y-101872500D01*
X141478000Y-64008000D02*
X142778100Y-64008000D01*
X154156300Y-103052700D02*
X154156300Y-106935600D01*
X167246400Y-71740200D02*
X163439200Y-71740200D01*
X141723600Y-109974500D02*
X140461100Y-108712000D01*
X144711000Y-62152100D02*
X144711000Y-63654300D01*
X168506600Y-70480000D02*
X167246400Y-71740200D01*
X158300500Y-77698600D02*
X159950600Y-77698600D01*
X161665600Y-102273600D02*
X159950600Y-100558600D01*
X169806700Y-70480000D02*
X168506600Y-70480000D01*
X172138800Y-106045000D02*
X172138800Y-104744900D01*
X173438900Y-106045000D02*
X172138800Y-106045000D01*
X144711000Y-63654300D02*
X144213000Y-64152300D01*
X156650400Y-100558600D02*
X154156300Y-103052700D01*
D20*
%TO.N,USR1_1V8*%
X174614100Y-49117600D02*
X174614100Y-51185700D01*
X173438900Y-52705000D02*
X173438900Y-51529900D01*
X174614100Y-51185700D02*
X174269900Y-51529900D01*
X174269900Y-51529900D02*
X173438900Y-51529900D01*
X142985000Y-48513100D02*
X174009600Y-48513100D01*
X138811000Y-51562000D02*
X139936100Y-51562000D01*
X139936100Y-51562000D02*
X142985000Y-48513100D01*
X174009600Y-48513100D02*
X174614100Y-49117600D01*
%TO.N,USR2_1V8*%
X138811000Y-54102000D02*
X138811000Y-52976900D01*
X175078000Y-52796000D02*
X173804100Y-54069900D01*
X138107800Y-52976900D02*
X137685800Y-52554900D01*
X137685800Y-52554900D02*
X137685800Y-50563400D01*
X173804100Y-54069900D02*
X173438900Y-54069900D01*
X138811000Y-52976900D02*
X138107800Y-52976900D01*
X174141600Y-48008400D02*
X175078000Y-48944800D01*
X175078000Y-48944800D02*
X175078000Y-52796000D01*
X173438900Y-55245000D02*
X173438900Y-54069900D01*
X137685800Y-50563400D02*
X140240800Y-48008400D01*
X140240800Y-48008400D02*
X174141600Y-48008400D01*
%TO.N,USR3_1V8*%
X173438900Y-57785000D02*
X173438900Y-56609900D01*
X173804100Y-56609900D02*
X173438900Y-56609900D01*
X138529700Y-55516900D02*
X137235700Y-54222900D01*
X174328100Y-47558300D02*
X175534200Y-48764400D01*
X138811000Y-55516900D02*
X138529700Y-55516900D01*
X138811000Y-56642000D02*
X138811000Y-55516900D01*
X175534200Y-54879800D02*
X173804100Y-56609900D01*
X137235700Y-54222900D02*
X137235700Y-50376900D01*
X175534200Y-48764400D02*
X175534200Y-54879800D01*
X137235700Y-50376900D02*
X140054300Y-47558300D01*
X140054300Y-47558300D02*
X174328100Y-47558300D01*
%TO.N,R2_3V3*%
X148443000Y-90356200D02*
X150256700Y-92169900D01*
X141478000Y-79248000D02*
X142538600Y-79248000D01*
X150622000Y-93345000D02*
X150622000Y-92169900D01*
X150256700Y-92169900D02*
X150622000Y-92169900D01*
X142538600Y-79248000D02*
X148443000Y-85152400D01*
X148443000Y-85152400D02*
X148443000Y-90356200D01*
%TO.N,R3_3V3*%
X138938000Y-79248000D02*
X140113100Y-79248000D01*
X140113100Y-78880800D02*
X140936500Y-78057400D01*
X148893300Y-84963600D02*
X148893300Y-89076300D01*
X148893300Y-89076300D02*
X150622000Y-90805000D01*
X140936500Y-78057400D02*
X141987100Y-78057400D01*
X140113100Y-79248000D02*
X140113100Y-78880800D01*
X141987100Y-78057400D02*
X148893300Y-84963600D01*
%TO.N,B0_3V3*%
X174666700Y-90291800D02*
X174666700Y-91290400D01*
X142653100Y-71628000D02*
X142653100Y-72770600D01*
X173073600Y-102329900D02*
X173438900Y-102329900D01*
X174666700Y-91290400D02*
X173882100Y-92075000D01*
X172971700Y-92075000D02*
X172263700Y-92783000D01*
X162760000Y-86758600D02*
X165032100Y-89030700D01*
X159077900Y-81508600D02*
X162760000Y-85190700D01*
X153936600Y-79370000D02*
X155020600Y-79370000D01*
X151475500Y-76908900D02*
X153936600Y-79370000D01*
X162760000Y-85190700D02*
X162760000Y-86758600D01*
X165032100Y-89030700D02*
X166751700Y-89030700D01*
X172263700Y-101520000D02*
X173073600Y-102329900D01*
X170503600Y-87028700D02*
X172924800Y-89449900D01*
X173438900Y-103505000D02*
X173438900Y-102329900D01*
X141478000Y-71628000D02*
X142653100Y-71628000D01*
X142653100Y-72770600D02*
X146791400Y-76908900D01*
X173824800Y-89449900D02*
X174666700Y-90291800D01*
X172263700Y-92783000D02*
X172263700Y-101520000D01*
X172924800Y-89449900D02*
X173824800Y-89449900D01*
X166751700Y-89030700D02*
X168753700Y-87028700D01*
X155020600Y-79370000D02*
X157159200Y-81508600D01*
X146791400Y-76908900D02*
X151475500Y-76908900D01*
X173882100Y-92075000D02*
X172971700Y-92075000D01*
X157159200Y-81508600D02*
X159077900Y-81508600D01*
X168753700Y-87028700D02*
X170503600Y-87028700D01*
%TO.N,B1_3V3*%
X137651400Y-64812200D02*
X137651400Y-63596900D01*
X142435500Y-58812800D02*
X142617000Y-58812800D01*
X137651400Y-63596900D02*
X142435500Y-58812800D01*
%TO.N,B2_3V3*%
X155016400Y-61590000D02*
X157401600Y-59204800D01*
X149047400Y-64135000D02*
X151040800Y-64135000D01*
X157401600Y-59204800D02*
X159001000Y-59204800D01*
X159001000Y-59204800D02*
X161511300Y-56694500D01*
X153585800Y-61590000D02*
X155016400Y-61590000D01*
X144094400Y-69088000D02*
X149047400Y-64135000D01*
X151040800Y-64135000D02*
X153585800Y-61590000D01*
X141478000Y-69088000D02*
X144094400Y-69088000D01*
%TO.N,B3_3V3*%
X147008200Y-99677200D02*
X148364000Y-101033000D01*
X139842800Y-83557600D02*
X139045600Y-83557600D01*
X137287500Y-71546400D02*
X138570800Y-70263100D01*
X141519900Y-85234700D02*
X139842800Y-83557600D01*
X138938000Y-69088000D02*
X138938000Y-70263100D01*
X139045600Y-83557600D02*
X137287500Y-81799500D01*
X141519900Y-95635100D02*
X145562000Y-99677200D01*
X145562000Y-99677200D02*
X147008200Y-99677200D01*
X137287500Y-81799500D02*
X137287500Y-71546400D01*
X138570800Y-70263100D02*
X138938000Y-70263100D01*
X148364000Y-101033000D02*
X148364000Y-101715200D01*
%TO.N,~{CSW_3V3}*%
X147625600Y-56509200D02*
X147625600Y-61237700D01*
X150622000Y-53880100D02*
X150254700Y-53880100D01*
X147625600Y-61237700D02*
X145561100Y-63302200D01*
X150622000Y-52705000D02*
X150622000Y-53880100D01*
X150254700Y-53880100D02*
X147625600Y-56509200D01*
%TO.N,CD0_3V3*%
X159519500Y-64140000D02*
X160707700Y-62951800D01*
X161464400Y-59672800D02*
X165887200Y-55250000D01*
X153072100Y-66670000D02*
X155013000Y-66670000D01*
X157543000Y-64140000D02*
X159519500Y-64140000D01*
X165887200Y-55250000D02*
X166006700Y-55250000D01*
X161464400Y-62195100D02*
X161464400Y-59672800D01*
X160707700Y-62951800D02*
X161464400Y-62195100D01*
X150622000Y-67945000D02*
X151797100Y-67945000D01*
X155013000Y-66670000D02*
X157543000Y-64140000D01*
X151797100Y-67945000D02*
X153072100Y-66670000D01*
%TO.N,CD1_3V3*%
X157398200Y-66824800D02*
X160090200Y-66824800D01*
X151797100Y-70485000D02*
X153072100Y-69210000D01*
X165884400Y-57790000D02*
X166006700Y-57790000D01*
X155013000Y-69210000D02*
X157398200Y-66824800D01*
X160685100Y-66229900D02*
X162364700Y-64550300D01*
X162364700Y-61309700D02*
X165884400Y-57790000D01*
X160090200Y-66824800D02*
X160685100Y-66229900D01*
X150622000Y-70485000D02*
X151797100Y-70485000D01*
X162364700Y-64550300D02*
X162364700Y-61309700D01*
X160685100Y-66229900D02*
X160798100Y-66342900D01*
X153072100Y-69210000D02*
X155013000Y-69210000D01*
%TO.N,CD2_3V3*%
X165886000Y-60330000D02*
X166006700Y-60330000D01*
X153068800Y-71753300D02*
X155083500Y-71753300D01*
X163352700Y-62863300D02*
X165886000Y-60330000D01*
X160092800Y-69075200D02*
X162129900Y-67038100D01*
X162129900Y-67038100D02*
X163352700Y-65815300D01*
X151797100Y-73025000D02*
X153068800Y-71753300D01*
X157761600Y-69075200D02*
X160092800Y-69075200D01*
X155083500Y-71753300D02*
X157761600Y-69075200D01*
X162129900Y-67038100D02*
X162533900Y-67442100D01*
X150622000Y-73025000D02*
X151797100Y-73025000D01*
X163352700Y-65815300D02*
X163352700Y-62863300D01*
%TO.N,CD3_3V3*%
X156984400Y-78842200D02*
X163099100Y-78842200D01*
X167751200Y-76765800D02*
X173950400Y-76765800D01*
X151797100Y-75565000D02*
X152972200Y-76740100D01*
X174644500Y-76071700D02*
X174644500Y-70004500D01*
X173950400Y-76765800D02*
X174644500Y-76071700D01*
X169394300Y-66670000D02*
X167531800Y-64807500D01*
X173855000Y-69215000D02*
X172808900Y-69215000D01*
X163099100Y-78522400D02*
X165080000Y-76541500D01*
X163613100Y-79356200D02*
X163613100Y-84470400D01*
X166006700Y-62870000D02*
X167531800Y-62870000D01*
X167526900Y-76541500D02*
X167751200Y-76765800D01*
X152972200Y-76740100D02*
X154882300Y-76740100D01*
X150622000Y-75565000D02*
X151797100Y-75565000D01*
X163099100Y-78842200D02*
X163099100Y-78522400D01*
X165080000Y-76541500D02*
X167526900Y-76541500D01*
X167531800Y-64807500D02*
X167531800Y-62870000D01*
X163099100Y-78842200D02*
X163613100Y-79356200D01*
X154882300Y-76740100D02*
X156984400Y-78842200D01*
X174644500Y-70004500D02*
X173855000Y-69215000D01*
X172808900Y-69215000D02*
X170263900Y-66670000D01*
X170263900Y-66670000D02*
X169394300Y-66670000D01*
%TO.N,CD4_3V3*%
X161612100Y-70548700D02*
X164481600Y-67679200D01*
X150950400Y-66769800D02*
X153495400Y-64224800D01*
X140302800Y-72153700D02*
X140302800Y-71102300D01*
X141126800Y-70278300D02*
X143619700Y-70278300D01*
X142013200Y-72803200D02*
X140952300Y-72803200D01*
X164481600Y-67679200D02*
X164481600Y-65410000D01*
X140952300Y-72803200D02*
X140302800Y-72153700D01*
X140302800Y-71102300D02*
X141126800Y-70278300D01*
X147128200Y-66769800D02*
X150950400Y-66769800D01*
X154950700Y-64224800D02*
X157472900Y-61702600D01*
X153495400Y-64224800D02*
X154950700Y-64224800D01*
X166006700Y-65410000D02*
X164481600Y-65410000D01*
X159653400Y-61702600D02*
X159779600Y-61828800D01*
X147315000Y-78105000D02*
X142013200Y-72803200D01*
X143619700Y-70278300D02*
X147128200Y-66769800D01*
X150622000Y-78105000D02*
X147315000Y-78105000D01*
X157472900Y-61702600D02*
X159653400Y-61702600D01*
%TO.N,CD5_3V3*%
X172189900Y-90090500D02*
X170210400Y-92070000D01*
X169329100Y-92070000D02*
X165920500Y-95478600D01*
X170210400Y-92070000D02*
X169329100Y-92070000D01*
X150622000Y-81820100D02*
X150999600Y-81820100D01*
X154978200Y-84450000D02*
X157116800Y-86588600D01*
X165920500Y-95478600D02*
X164395400Y-95478600D01*
X150622000Y-80645000D02*
X150622000Y-81820100D01*
X159028600Y-86588600D02*
X164395400Y-91955400D01*
X172189900Y-89980900D02*
X172189900Y-90090500D01*
X150999600Y-81820100D02*
X153629500Y-84450000D01*
X153629500Y-84450000D02*
X154978200Y-84450000D01*
X157116800Y-86588600D02*
X159028600Y-86588600D01*
X164395400Y-91955400D02*
X164395400Y-95478600D01*
%TO.N,CD6_3V3*%
X168589900Y-100950800D02*
X167849700Y-101691000D01*
X158896900Y-88983800D02*
X163628800Y-93715700D01*
X167849700Y-101691000D02*
X165044300Y-101691000D01*
X156972000Y-88983800D02*
X158896900Y-88983800D01*
X154909200Y-86921000D02*
X156972000Y-88983800D01*
X168631500Y-100950800D02*
X168589900Y-100950800D01*
X150622000Y-84360100D02*
X151469500Y-84360100D01*
X150622000Y-83185000D02*
X150622000Y-84360100D01*
X164395400Y-101042100D02*
X164395400Y-98018600D01*
X165044300Y-101691000D02*
X164395400Y-101042100D01*
X151469500Y-84360100D02*
X154030400Y-86921000D01*
X154030400Y-86921000D02*
X154909200Y-86921000D01*
X165920500Y-98018600D02*
X164395400Y-98018600D01*
%TO.N,CD7_3V3*%
X164720900Y-96645800D02*
X159743700Y-91668600D01*
X154107100Y-89530000D02*
X151477200Y-86900100D01*
X151477200Y-86900100D02*
X150622000Y-86900100D01*
X150622000Y-85725000D02*
X150622000Y-86900100D01*
X157116800Y-91668600D02*
X154978200Y-89530000D01*
X167445600Y-95926500D02*
X168595800Y-94776300D01*
X165920500Y-100558600D02*
X167445600Y-100558600D01*
X167445600Y-100558600D02*
X167445600Y-96645800D01*
X159743700Y-91668600D02*
X157116800Y-91668600D01*
X167445600Y-96645800D02*
X164720900Y-96645800D01*
X154978200Y-89530000D02*
X154107100Y-89530000D01*
X167445600Y-96645800D02*
X167445600Y-95926500D01*
%TO.N,HS_3V3*%
X162357400Y-51490700D02*
X164873700Y-48974400D01*
X154099900Y-51490700D02*
X162357400Y-51490700D01*
X150093900Y-56609800D02*
X150945000Y-56609800D01*
X142653100Y-66548000D02*
X143340800Y-66548000D01*
X171073200Y-48974400D02*
X172263800Y-50165000D01*
X150945000Y-56609800D02*
X152910000Y-54644800D01*
X143340800Y-66548000D02*
X148075700Y-61813100D01*
X141478000Y-66548000D02*
X142653100Y-66548000D01*
X164873700Y-48974400D02*
X171073200Y-48974400D01*
X148075700Y-58628000D02*
X150093900Y-56609800D01*
X148075700Y-61813100D02*
X148075700Y-58628000D01*
X173438900Y-50165000D02*
X172263800Y-50165000D01*
X152910000Y-52680600D02*
X154099900Y-51490700D01*
X152910000Y-54644800D02*
X152910000Y-52680600D01*
%TO.N,R0_3V3*%
X165774600Y-74366400D02*
X165001400Y-75139600D01*
X143860800Y-59594000D02*
X143860800Y-63302200D01*
X143373400Y-81788000D02*
X144792600Y-83207200D01*
X171065200Y-74366400D02*
X165774600Y-74366400D01*
X172263800Y-75565000D02*
X171065200Y-74366400D01*
X173438900Y-75565000D02*
X172263800Y-75565000D01*
X141478000Y-81788000D02*
X143373400Y-81788000D01*
X144812400Y-58642400D02*
X143860800Y-59594000D01*
%TO.N,R1_3V3*%
X160302300Y-71904800D02*
X160477800Y-72080300D01*
X170332000Y-69289800D02*
X172892100Y-71849900D01*
X157393800Y-71904800D02*
X160302300Y-71904800D01*
X143635100Y-72727200D02*
X145126000Y-74218100D01*
X155080500Y-74218100D02*
X157393800Y-71904800D01*
X164453900Y-69289800D02*
X170332000Y-69289800D01*
X161663400Y-72080300D02*
X164453900Y-69289800D01*
X173438900Y-73025000D02*
X173438900Y-71849900D01*
X160477800Y-72080300D02*
X161663400Y-72080300D01*
X172892100Y-71849900D02*
X173438900Y-71849900D01*
X145126000Y-74218100D02*
X155080500Y-74218100D01*
%TO.N,G0_3V3*%
X151109500Y-89535000D02*
X151822300Y-90247800D01*
X150225400Y-89535000D02*
X151109500Y-89535000D01*
X150987200Y-102329900D02*
X150622000Y-102329900D01*
X151822300Y-90247800D02*
X151822300Y-101494800D01*
X149343500Y-84573500D02*
X149343500Y-88653100D01*
X150622000Y-103505000D02*
X150622000Y-102329900D01*
X141478000Y-76708000D02*
X149343500Y-84573500D01*
X151822300Y-101494800D02*
X150987200Y-102329900D01*
X149343500Y-88653100D02*
X150225400Y-89535000D01*
%TO.N,G1_3V3*%
X150622000Y-100965000D02*
X150622000Y-99789900D01*
X150622000Y-99789900D02*
X150256700Y-99789900D01*
X149257200Y-96846900D02*
X147007500Y-94597200D01*
X145548400Y-94597200D02*
X142596800Y-91645600D01*
X149257200Y-98790400D02*
X149257200Y-96846900D01*
X147007500Y-94597200D02*
X145548400Y-94597200D01*
X150256700Y-99789900D02*
X149257200Y-98790400D01*
%TO.N,G2_3V3*%
X150325100Y-97249900D02*
X150622000Y-97249900D01*
X143673600Y-90192400D02*
X145538400Y-92057200D01*
X145538400Y-92057200D02*
X147016500Y-92057200D01*
X149446900Y-94487600D02*
X149446900Y-96371700D01*
X150622000Y-98425000D02*
X150622000Y-97249900D01*
X149446900Y-96371700D02*
X150325100Y-97249900D01*
X143673600Y-89626500D02*
X143673600Y-90192400D01*
X147016500Y-92057200D02*
X149446900Y-94487600D01*
%TO.N,G3_3V3*%
X138518200Y-80497800D02*
X137748300Y-79727900D01*
X150622000Y-95885000D02*
X150622000Y-94709900D01*
X147992800Y-85359300D02*
X143131300Y-80497800D01*
X147992800Y-92396800D02*
X147992800Y-85359300D01*
X150622000Y-94709900D02*
X150305900Y-94709900D01*
X138938000Y-74168000D02*
X138938000Y-75343100D01*
X137748300Y-79727900D02*
X137748300Y-76165600D01*
X143131300Y-80497800D02*
X138518200Y-80497800D01*
X138570800Y-75343100D02*
X138938000Y-75343100D01*
X137748300Y-76165600D02*
X138570800Y-75343100D01*
X150305900Y-94709900D02*
X147992800Y-92396800D01*
%TO.N,MODE*%
X155201500Y-103222800D02*
X155025700Y-103398600D01*
X149089100Y-104800900D02*
X145597700Y-104800900D01*
X145597700Y-104800900D02*
X141062800Y-100266000D01*
X168333500Y-103222800D02*
X155201500Y-103222800D01*
X168833700Y-102722600D02*
X168333500Y-103222800D01*
%TO.N,~{CSW}*%
X138811000Y-93472000D02*
X137285900Y-93472000D01*
X139194800Y-84367300D02*
X136837300Y-82009800D01*
X138519000Y-67818000D02*
X142707300Y-67818000D01*
X136837300Y-69499700D02*
X138519000Y-67818000D01*
X163792800Y-52710000D02*
X166006700Y-52710000D01*
X157619200Y-56520000D02*
X159982800Y-56520000D01*
X140341000Y-86781700D02*
X140341000Y-84921900D01*
X139786400Y-84367300D02*
X139194800Y-84367300D01*
X159982800Y-56520000D02*
X163792800Y-52710000D01*
X138062400Y-87148800D02*
X139973900Y-87148800D01*
X136837300Y-82009800D02*
X136837300Y-69499700D01*
X154140000Y-59050000D02*
X155089200Y-59050000D01*
X137285900Y-87925300D02*
X138062400Y-87148800D01*
X142707300Y-67818000D02*
X148930300Y-61595000D01*
X151595000Y-61595000D02*
X154140000Y-59050000D01*
X140341000Y-84921900D02*
X139786400Y-84367300D01*
X148930300Y-61595000D02*
X151595000Y-61595000D01*
X155089200Y-59050000D02*
X157619200Y-56520000D01*
X139973900Y-87148800D02*
X140341000Y-86781700D01*
X137285900Y-93472000D02*
X137285900Y-87925300D01*
%TO.N,~{CSR}*%
X169806700Y-62860000D02*
X170981800Y-62860000D01*
X168314200Y-79370000D02*
X167445600Y-80238600D01*
X175140700Y-109611900D02*
X173702300Y-111050300D01*
X140336100Y-102762500D02*
X145160400Y-107586800D01*
X173914700Y-79370000D02*
X168314200Y-79370000D01*
X173838000Y-64135000D02*
X175131500Y-65428500D01*
X173914700Y-79370000D02*
X175140700Y-80596000D01*
X138811000Y-96012000D02*
X140336100Y-96012000D01*
X175131500Y-78153200D02*
X173914700Y-79370000D01*
X172256800Y-64135000D02*
X173838000Y-64135000D01*
X175131500Y-65428500D02*
X175131500Y-78153200D01*
X165920500Y-80238600D02*
X167445600Y-80238600D01*
X140336100Y-96012000D02*
X140336100Y-102762500D01*
X170981800Y-62860000D02*
X172256800Y-64135000D01*
X175140700Y-80596000D02*
X175140700Y-109611900D01*
%TO.N,~{INT}*%
X169806700Y-60320000D02*
X170981800Y-60320000D01*
X176527900Y-64221800D02*
X176527900Y-102305500D01*
X173901100Y-61595000D02*
X176527900Y-64221800D01*
X172256800Y-61595000D02*
X173901100Y-61595000D01*
X170981800Y-60320000D02*
X172256800Y-61595000D01*
%TO.N,CD7*%
X160554900Y-70938600D02*
X160929200Y-71312900D01*
X160554900Y-70490000D02*
X163804600Y-67240300D01*
X160554900Y-70490000D02*
X160554900Y-70938600D01*
X169806700Y-57780000D02*
X169806700Y-58955100D01*
X169376200Y-58955100D02*
X169806700Y-58955100D01*
X163804600Y-67240300D02*
X163804600Y-63048100D01*
X163804600Y-63048100D02*
X165397500Y-61455200D01*
X165397500Y-61455200D02*
X166876100Y-61455200D01*
X158386700Y-70490000D02*
X160554900Y-70490000D01*
X166876100Y-61455200D02*
X169376200Y-58955100D01*
%TO.N,CD6*%
X160236900Y-95889900D02*
X159825600Y-95478600D01*
X158386700Y-67950000D02*
X159911800Y-67950000D01*
X169655900Y-104690500D02*
X169655900Y-103467400D01*
X169471600Y-56415100D02*
X169806700Y-56415100D01*
X162814800Y-65351700D02*
X162814800Y-61498300D01*
X169806700Y-55240000D02*
X169806700Y-56415100D01*
X165397900Y-58915200D02*
X166971500Y-58915200D01*
X162814800Y-61498300D02*
X165397900Y-58915200D01*
X169064400Y-105282000D02*
X169655900Y-104690500D01*
X166971500Y-58915200D02*
X169471600Y-56415100D01*
X160216500Y-67950000D02*
X162814800Y-65351700D01*
X161443000Y-95889900D02*
X160236900Y-95889900D01*
X159911800Y-67950000D02*
X160216500Y-67950000D01*
X158300500Y-95478600D02*
X159825600Y-95478600D01*
%TO.N,CD5*%
X169376200Y-53875100D02*
X166876100Y-56375200D01*
X169806700Y-53875100D02*
X169376200Y-53875100D01*
X161914500Y-63407300D02*
X159911800Y-65410000D01*
X166876100Y-56375200D02*
X165398700Y-56375200D01*
X161914500Y-59859400D02*
X161914500Y-63407300D01*
X158386700Y-65410000D02*
X159911800Y-65410000D01*
X165398700Y-56375200D02*
X161914500Y-59859400D01*
X169806700Y-52700000D02*
X169806700Y-53875100D01*
%TO.N,CD4*%
X160918800Y-58338200D02*
X160918800Y-61715200D01*
X160918800Y-61715200D02*
X159911800Y-62722200D01*
X169471600Y-51335100D02*
X166826700Y-53980000D01*
X166826700Y-53980000D02*
X165277000Y-53980000D01*
X159911800Y-62722200D02*
X159911800Y-62870000D01*
X169806700Y-51335100D02*
X169471600Y-51335100D01*
X158386700Y-62870000D02*
X159911800Y-62870000D01*
X165277000Y-53980000D02*
X160918800Y-58338200D01*
X169806700Y-50160000D02*
X169806700Y-51335100D01*
%TO.N,CD1*%
X156775400Y-82570200D02*
X155921600Y-81716400D01*
X156851600Y-55240000D02*
X156861600Y-55250000D01*
X158300500Y-82778600D02*
X156775400Y-82778600D01*
X154566700Y-55240000D02*
X156851600Y-55240000D01*
X156775400Y-82778600D02*
X156775400Y-82570200D01*
X158386700Y-55250000D02*
X156861600Y-55250000D01*
%TO.N,CD0*%
X154167600Y-53970000D02*
X155601600Y-53970000D01*
X153360200Y-55765600D02*
X153360200Y-54777400D01*
X155601600Y-53970000D02*
X156861600Y-52710000D01*
X154566700Y-57780000D02*
X154566700Y-56604900D01*
X154566700Y-56604900D02*
X154199500Y-56604900D01*
X154199500Y-56604900D02*
X153360200Y-55765600D01*
X153360200Y-54777400D02*
X154167600Y-53970000D01*
X158386700Y-52710000D02*
X156861600Y-52710000D01*
%TO.N,~{RESET}*%
X140336100Y-88392000D02*
X141594400Y-88392000D01*
X141594400Y-88392000D02*
X145770600Y-84215800D01*
X153658900Y-82004900D02*
X151102000Y-79448000D01*
X154566700Y-83180000D02*
X154566700Y-82004900D01*
X154566700Y-82004900D02*
X153658900Y-82004900D01*
X148156800Y-79448000D02*
X147181800Y-80423000D01*
X138811000Y-88392000D02*
X140336100Y-88392000D01*
X151102000Y-79448000D02*
X148156800Y-79448000D01*
%TO.N,GROMCLK*%
X155761300Y-100535200D02*
X153581100Y-102715400D01*
X146431000Y-106172000D02*
X147956100Y-106172000D01*
X153581100Y-104756900D02*
X151094500Y-107243500D01*
X149027600Y-107243500D02*
X147956100Y-106172000D01*
X154933900Y-91975100D02*
X155761300Y-92802500D01*
X151094500Y-107243500D02*
X149027600Y-107243500D01*
X155761300Y-92802500D02*
X155761300Y-100535200D01*
X153581100Y-102715400D02*
X153581100Y-104756900D01*
X154566700Y-91975100D02*
X154933900Y-91975100D01*
X154566700Y-90800000D02*
X154566700Y-91975100D01*
%TO.N,CPUCLK*%
X152941500Y-95773000D02*
X152941500Y-102847500D01*
X151093600Y-104695400D02*
X150066500Y-104695400D01*
X154566700Y-94515100D02*
X154199400Y-94515100D01*
X154566700Y-93340000D02*
X154566700Y-94515100D01*
X152941500Y-102847500D02*
X151093600Y-104695400D01*
X150066500Y-104695400D02*
X149003100Y-103632000D01*
X154199400Y-94515100D02*
X152941500Y-95773000D01*
X149003100Y-103632000D02*
X146431000Y-103632000D01*
%TO.N,VDD*%
X146959400Y-55227200D02*
X145131700Y-55227200D01*
X136560800Y-86577100D02*
X136560800Y-109468800D01*
X147664400Y-53958400D02*
X147664400Y-54522200D01*
X174651800Y-95367800D02*
X173804100Y-94520100D01*
X136560800Y-109468800D02*
X138403500Y-111311500D01*
X155654900Y-48963300D02*
X154097700Y-48963300D01*
X168049100Y-105292100D02*
X170018100Y-107261100D01*
X172415600Y-111311500D02*
X174690500Y-109036600D01*
X173804100Y-94520100D02*
X173438900Y-94520100D01*
X137285900Y-85852000D02*
X136560800Y-86577100D01*
X158386700Y-50170000D02*
X156861600Y-50170000D01*
X173893600Y-107261100D02*
X174651800Y-106502900D01*
X138811000Y-85852000D02*
X137285900Y-85852000D01*
X174690500Y-109036600D02*
X174690500Y-108058000D01*
X170018100Y-107261100D02*
X173893600Y-107261100D01*
X174690500Y-108058000D02*
X173893600Y-107261100D01*
X138403500Y-111311500D02*
X172415600Y-111311500D01*
X136378300Y-84944400D02*
X137285900Y-85852000D01*
X145131700Y-55227200D02*
X136378300Y-63980600D01*
X151720800Y-51340200D02*
X150282600Y-51340200D01*
X174651800Y-106502900D02*
X174651800Y-95367800D01*
X173438900Y-93345000D02*
X173438900Y-94520100D01*
X136378300Y-63980600D02*
X136378300Y-84944400D01*
X147664400Y-54522200D02*
X146959400Y-55227200D01*
X168049100Y-104648000D02*
X168049100Y-105292100D01*
X166624000Y-104648000D02*
X168049100Y-104648000D01*
X150282600Y-51340200D02*
X147664400Y-53958400D01*
X154097700Y-48963300D02*
X151720800Y-51340200D01*
X156861600Y-50170000D02*
X155654900Y-48963300D01*
%TD*%
M02*
