%TF.GenerationSoftware,KiCad,Pcbnew,7.0.1*%
%TF.CreationDate,2023-05-30T14:24:38-07:00*%
%TF.ProjectId,tn_vdp_v1_fat,746e5f76-6470-45f7-9631-5f6661742e6b,rev?*%
%TF.SameCoordinates,Original*%
%TF.FileFunction,Drillmap*%
%TF.FilePolarity,Positive*%
%FSLAX45Y45*%
G04 Gerber Fmt 4.5, Leading zero omitted, Abs format (unit mm)*
G04 Created by KiCad (PCBNEW 7.0.1) date 2023-05-30 14:24:38*
%MOMM*%
%LPD*%
G01*
G04 APERTURE LIST*
%ADD10C,0.100000*%
%ADD11C,0.200000*%
G04 APERTURE END LIST*
D10*
X17780000Y-4699000D02*
X17780000Y-11176000D01*
X13462000Y-4699000D02*
X17780000Y-4699000D01*
X13462000Y-11176000D02*
X13462000Y-4699000D01*
X17780000Y-11176000D02*
X13462000Y-11176000D01*
D11*
X13704619Y-11493524D02*
X13704619Y-11293524D01*
X13704619Y-11293524D02*
X13752238Y-11293524D01*
X13752238Y-11293524D02*
X13780809Y-11303048D01*
X13780809Y-11303048D02*
X13799857Y-11322095D01*
X13799857Y-11322095D02*
X13809381Y-11341143D01*
X13809381Y-11341143D02*
X13818905Y-11379238D01*
X13818905Y-11379238D02*
X13818905Y-11407809D01*
X13818905Y-11407809D02*
X13809381Y-11445905D01*
X13809381Y-11445905D02*
X13799857Y-11464952D01*
X13799857Y-11464952D02*
X13780809Y-11484000D01*
X13780809Y-11484000D02*
X13752238Y-11493524D01*
X13752238Y-11493524D02*
X13704619Y-11493524D01*
X13904619Y-11493524D02*
X13904619Y-11360190D01*
X13904619Y-11398286D02*
X13914143Y-11379238D01*
X13914143Y-11379238D02*
X13923667Y-11369714D01*
X13923667Y-11369714D02*
X13942714Y-11360190D01*
X13942714Y-11360190D02*
X13961762Y-11360190D01*
X14028428Y-11493524D02*
X14028428Y-11360190D01*
X14028428Y-11293524D02*
X14018905Y-11303048D01*
X14018905Y-11303048D02*
X14028428Y-11312571D01*
X14028428Y-11312571D02*
X14037952Y-11303048D01*
X14037952Y-11303048D02*
X14028428Y-11293524D01*
X14028428Y-11293524D02*
X14028428Y-11312571D01*
X14152238Y-11493524D02*
X14133190Y-11484000D01*
X14133190Y-11484000D02*
X14123667Y-11464952D01*
X14123667Y-11464952D02*
X14123667Y-11293524D01*
X14257000Y-11493524D02*
X14237952Y-11484000D01*
X14237952Y-11484000D02*
X14228428Y-11464952D01*
X14228428Y-11464952D02*
X14228428Y-11293524D01*
X14485571Y-11493524D02*
X14485571Y-11293524D01*
X14485571Y-11293524D02*
X14552238Y-11436381D01*
X14552238Y-11436381D02*
X14618905Y-11293524D01*
X14618905Y-11293524D02*
X14618905Y-11493524D01*
X14799857Y-11493524D02*
X14799857Y-11388762D01*
X14799857Y-11388762D02*
X14790333Y-11369714D01*
X14790333Y-11369714D02*
X14771286Y-11360190D01*
X14771286Y-11360190D02*
X14733190Y-11360190D01*
X14733190Y-11360190D02*
X14714143Y-11369714D01*
X14799857Y-11484000D02*
X14780809Y-11493524D01*
X14780809Y-11493524D02*
X14733190Y-11493524D01*
X14733190Y-11493524D02*
X14714143Y-11484000D01*
X14714143Y-11484000D02*
X14704619Y-11464952D01*
X14704619Y-11464952D02*
X14704619Y-11445905D01*
X14704619Y-11445905D02*
X14714143Y-11426857D01*
X14714143Y-11426857D02*
X14733190Y-11417333D01*
X14733190Y-11417333D02*
X14780809Y-11417333D01*
X14780809Y-11417333D02*
X14799857Y-11407809D01*
X14895095Y-11360190D02*
X14895095Y-11560190D01*
X14895095Y-11369714D02*
X14914143Y-11360190D01*
X14914143Y-11360190D02*
X14952238Y-11360190D01*
X14952238Y-11360190D02*
X14971286Y-11369714D01*
X14971286Y-11369714D02*
X14980809Y-11379238D01*
X14980809Y-11379238D02*
X14990333Y-11398286D01*
X14990333Y-11398286D02*
X14990333Y-11455428D01*
X14990333Y-11455428D02*
X14980809Y-11474476D01*
X14980809Y-11474476D02*
X14971286Y-11484000D01*
X14971286Y-11484000D02*
X14952238Y-11493524D01*
X14952238Y-11493524D02*
X14914143Y-11493524D01*
X14914143Y-11493524D02*
X14895095Y-11484000D01*
X15076048Y-11474476D02*
X15085571Y-11484000D01*
X15085571Y-11484000D02*
X15076048Y-11493524D01*
X15076048Y-11493524D02*
X15066524Y-11484000D01*
X15066524Y-11484000D02*
X15076048Y-11474476D01*
X15076048Y-11474476D02*
X15076048Y-11493524D01*
X15076048Y-11369714D02*
X15085571Y-11379238D01*
X15085571Y-11379238D02*
X15076048Y-11388762D01*
X15076048Y-11388762D02*
X15066524Y-11379238D01*
X15066524Y-11379238D02*
X15076048Y-11369714D01*
X15076048Y-11369714D02*
X15076048Y-11388762D01*
M02*
