%TF.GenerationSoftware,KiCad,Pcbnew,7.0.1*%
%TF.CreationDate,2023-05-30T14:24:39-07:00*%
%TF.ProjectId,tn_vdp_v1_fat,746e5f76-6470-45f7-9631-5f6661742e6b,rev?*%
%TF.SameCoordinates,Original*%
%TF.FileFunction,Copper,L1,Top*%
%TF.FilePolarity,Positive*%
%FSLAX46Y46*%
G04 Gerber Fmt 4.6, Leading zero omitted, Abs format (unit mm)*
G04 Created by KiCad (PCBNEW 7.0.1) date 2023-05-30 14:24:39*
%MOMM*%
%LPD*%
G01*
G04 APERTURE LIST*
%TA.AperFunction,ComponentPad*%
%ADD10R,2.400000X1.600000*%
%TD*%
%TA.AperFunction,ComponentPad*%
%ADD11O,2.400000X1.600000*%
%TD*%
%TA.AperFunction,ComponentPad*%
%ADD12R,1.700000X1.700000*%
%TD*%
%TA.AperFunction,ComponentPad*%
%ADD13O,1.700000X1.700000*%
%TD*%
%TA.AperFunction,ComponentPad*%
%ADD14R,1.600000X1.600000*%
%TD*%
%TA.AperFunction,ComponentPad*%
%ADD15O,1.600000X1.600000*%
%TD*%
%TA.AperFunction,ComponentPad*%
%ADD16R,2.200000X2.200000*%
%TD*%
%TA.AperFunction,ComponentPad*%
%ADD17O,2.200000X2.200000*%
%TD*%
%TA.AperFunction,ViaPad*%
%ADD18C,0.800000*%
%TD*%
%TA.AperFunction,Conductor*%
%ADD19C,0.500000*%
%TD*%
%TA.AperFunction,Conductor*%
%ADD20C,0.250000*%
%TD*%
G04 APERTURE END LIST*
D10*
%TO.P,U3,1,DIR*%
%TO.N,VDD*%
X138811000Y-85852000D03*
D11*
%TO.P,U3,2,A0*%
%TO.N,~{RESET}*%
X138811000Y-88392000D03*
%TO.P,U3,3,A1*%
%TO.N,~{INT_3V3}*%
X138811000Y-90932000D03*
%TO.P,U3,4,A2*%
%TO.N,~{CSW}*%
X138811000Y-93472000D03*
%TO.P,U3,5,A3*%
%TO.N,~{CSR}*%
X138811000Y-96012000D03*
%TO.P,U3,6,A4*%
%TO.N,MODE*%
X138811000Y-98552000D03*
%TO.P,U3,7,A5*%
%TO.N,CPUCLK_3V3*%
X138811000Y-101092000D03*
%TO.P,U3,8,A6*%
%TO.N,GROMCLK_3V3*%
X138811000Y-103632000D03*
%TO.P,U3,9,A7*%
%TO.N,unconnected-(U3-A7-Pad9)*%
X138811000Y-106172000D03*
%TO.P,U3,10,GND*%
%TO.N,GND*%
X138811000Y-108712000D03*
%TO.P,U3,11,B7*%
%TO.N,unconnected-(U3-B7-Pad11)*%
X146431000Y-108712000D03*
%TO.P,U3,12,B6*%
%TO.N,GROMCLK*%
X146431000Y-106172000D03*
%TO.P,U3,13,B5*%
%TO.N,CPUCLK*%
X146431000Y-103632000D03*
%TO.P,U3,14,B4*%
%TO.N,MODE_3V3*%
X146431000Y-101092000D03*
%TO.P,U3,15,B3*%
%TO.N,~{CSR_3V3}*%
X146431000Y-98552000D03*
%TO.P,U3,16,B2*%
%TO.N,~{CSW_3V3}*%
X146431000Y-96012000D03*
%TO.P,U3,17,B1*%
%TO.N,~{INT}*%
X146431000Y-93472000D03*
%TO.P,U3,18,B0*%
%TO.N,~{RESET_3V3}*%
X146431000Y-90932000D03*
%TO.P,U3,19,~{0E}*%
%TO.N,GND*%
X146431000Y-88392000D03*
%TO.P,U3,20,VCC*%
%TO.N,VCC_3V3*%
X146431000Y-85852000D03*
%TD*%
D12*
%TO.P,J3,1,Pin_1*%
%TO.N,MODE_3V3*%
X150622000Y-50165000D03*
D13*
%TO.P,J3,2,Pin_2*%
%TO.N,~{CSW_3V3}*%
X150622000Y-52705000D03*
%TO.P,J3,3,Pin_3*%
%TO.N,~{CSR_3V3}*%
X150622000Y-55245000D03*
%TO.P,J3,4,Pin_4*%
%TO.N,~{INT_3V3}*%
X150622000Y-57785000D03*
%TO.P,J3,5,Pin_5*%
%TO.N,CPUCLK_3V3*%
X150622000Y-60325000D03*
%TO.P,J3,6,Pin_6*%
%TO.N,GROMCLK_3V3*%
X150622000Y-62865000D03*
%TO.P,J3,7,Pin_7*%
%TO.N,~{RESET_3V3}*%
X150622000Y-65405000D03*
%TO.P,J3,8,Pin_8*%
%TO.N,CD0_3V3*%
X150622000Y-67945000D03*
%TO.P,J3,9,Pin_9*%
%TO.N,CD1_3V3*%
X150622000Y-70485000D03*
%TO.P,J3,10,Pin_10*%
%TO.N,CD2_3V3*%
X150622000Y-73025000D03*
%TO.P,J3,11,Pin_11*%
%TO.N,CD3_3V3*%
X150622000Y-75565000D03*
%TO.P,J3,12,Pin_12*%
%TO.N,CD4_3V3*%
X150622000Y-78105000D03*
%TO.P,J3,13,Pin_13*%
%TO.N,CD5_3V3*%
X150622000Y-80645000D03*
%TO.P,J3,14,Pin_14*%
%TO.N,CD6_3V3*%
X150622000Y-83185000D03*
%TO.P,J3,15,Pin_15*%
%TO.N,CD7_3V3*%
X150622000Y-85725000D03*
%TO.P,J3,16,Pin_16*%
%TO.N,VS_3V3*%
X150622000Y-88265000D03*
%TO.P,J3,17,Pin_17*%
%TO.N,R3_3V3*%
X150622000Y-90805000D03*
%TO.P,J3,18,Pin_18*%
%TO.N,R2_3V3*%
X150622000Y-93345000D03*
%TO.P,J3,19,Pin_19*%
%TO.N,G3_3V3*%
X150622000Y-95885000D03*
%TO.P,J3,20,Pin_20*%
%TO.N,G2_3V3*%
X150622000Y-98425000D03*
%TO.P,J3,21,Pin_21*%
%TO.N,G1_3V3*%
X150622000Y-100965000D03*
%TO.P,J3,22,Pin_22*%
%TO.N,G0_3V3*%
X150622000Y-103505000D03*
%TO.P,J3,23,Pin_23*%
%TO.N,unconnected-(J3-Pin_23-Pad23)*%
X150622000Y-106045000D03*
%TO.P,J3,24,Pin_24*%
%TO.N,unconnected-(J3-Pin_24-Pad24)*%
X150622000Y-108585000D03*
%TD*%
D14*
%TO.P,J5,1,Pin_1*%
%TO.N,USR1_1V8*%
X138811000Y-51562000D03*
D15*
%TO.P,J5,2,Pin_2*%
%TO.N,USR2_1V8*%
X138811000Y-54102000D03*
%TO.P,J5,3,Pin_3*%
%TO.N,USR3_1V8*%
X138811000Y-56642000D03*
%TO.P,J5,4,Pin_4*%
%TO.N,USR4_1V8*%
X138811000Y-59182000D03*
%TO.P,J5,5,Pin_5*%
%TO.N,GND*%
X146431000Y-59182000D03*
%TO.P,J5,6,Pin_6*%
X146431000Y-56642000D03*
%TO.P,J5,7,Pin_7*%
X146431000Y-54102000D03*
%TO.P,J5,8,Pin_8*%
X146431000Y-51562000D03*
%TD*%
D12*
%TO.P,J6,1,Pin_1*%
%TO.N,R0_3V3*%
X141478000Y-81788000D03*
D13*
%TO.P,J6,2,Pin_2*%
%TO.N,R1_3V3*%
X138938000Y-81788000D03*
%TO.P,J6,3,Pin_3*%
%TO.N,R2_3V3*%
X141478000Y-79248000D03*
%TO.P,J6,4,Pin_4*%
%TO.N,R3_3V3*%
X138938000Y-79248000D03*
%TO.P,J6,5,Pin_5*%
%TO.N,G0_3V3*%
X141478000Y-76708000D03*
%TO.P,J6,6,Pin_6*%
%TO.N,G1_3V3*%
X138938000Y-76708000D03*
%TO.P,J6,7,Pin_7*%
%TO.N,G2_3V3*%
X141478000Y-74168000D03*
%TO.P,J6,8,Pin_8*%
%TO.N,G3_3V3*%
X138938000Y-74168000D03*
%TO.P,J6,9,Pin_9*%
%TO.N,B0_3V3*%
X141478000Y-71628000D03*
%TO.P,J6,10,Pin_10*%
%TO.N,B1_3V3*%
X138938000Y-71628000D03*
%TO.P,J6,11,Pin_11*%
%TO.N,B2_3V3*%
X141478000Y-69088000D03*
%TO.P,J6,12,Pin_12*%
%TO.N,B3_3V3*%
X138938000Y-69088000D03*
%TO.P,J6,13,Pin_13*%
%TO.N,HS_3V3*%
X141478000Y-66548000D03*
%TO.P,J6,14,Pin_14*%
%TO.N,VS_3V3*%
X138938000Y-66548000D03*
%TO.P,J6,15,Pin_15*%
%TO.N,GND*%
X141478000Y-64008000D03*
%TO.P,J6,16,Pin_16*%
X138938000Y-64008000D03*
%TD*%
D12*
%TO.P,J4,1,Pin_1*%
%TO.N,HS_3V3*%
X173438900Y-50165000D03*
D13*
%TO.P,J4,2,Pin_2*%
%TO.N,USR1_1V8*%
X173438900Y-52705000D03*
%TO.P,J4,3,Pin_3*%
%TO.N,USR2_1V8*%
X173438900Y-55245000D03*
%TO.P,J4,4,Pin_4*%
%TO.N,USR3_1V8*%
X173438900Y-57785000D03*
%TO.P,J4,5,Pin_5*%
%TO.N,USR4_1V8*%
X173438900Y-60325000D03*
%TO.P,J4,6,Pin_6*%
%TO.N,unconnected-(J4-Pin_6-Pad6)*%
X173438900Y-62865000D03*
%TO.P,J4,7,Pin_7*%
%TO.N,unconnected-(J4-Pin_7-Pad7)*%
X173438900Y-65405000D03*
%TO.P,J4,8,Pin_8*%
%TO.N,unconnected-(J4-Pin_8-Pad8)*%
X173438900Y-67945000D03*
%TO.P,J4,9,Pin_9*%
%TO.N,unconnected-(J4-Pin_9-Pad9)*%
X173438900Y-70485000D03*
%TO.P,J4,10,Pin_10*%
%TO.N,R1_3V3*%
X173438900Y-73025000D03*
%TO.P,J4,11,Pin_11*%
%TO.N,R0_3V3*%
X173438900Y-75565000D03*
%TO.P,J4,12,Pin_12*%
%TO.N,unconnected-(J4-Pin_12-Pad12)*%
X173438900Y-78105000D03*
%TO.P,J4,13,Pin_13*%
%TO.N,unconnected-(J4-Pin_13-Pad13)*%
X173438900Y-80645000D03*
%TO.P,J4,14,Pin_14*%
%TO.N,unconnected-(J4-Pin_14-Pad14)*%
X173438900Y-83185000D03*
%TO.P,J4,15,Pin_15*%
%TO.N,unconnected-(J4-Pin_15-Pad15)*%
X173438900Y-85725000D03*
%TO.P,J4,16,Pin_16*%
%TO.N,unconnected-(J4-Pin_16-Pad16)*%
X173438900Y-88265000D03*
%TO.P,J4,17,Pin_17*%
%TO.N,unconnected-(J4-Pin_17-Pad17)*%
X173438900Y-90805000D03*
%TO.P,J4,18,Pin_18*%
%TO.N,VDD*%
X173438900Y-93345000D03*
%TO.P,J4,19,Pin_19*%
%TO.N,B3_3V3*%
X173438900Y-95885000D03*
%TO.P,J4,20,Pin_20*%
%TO.N,B2_3V3*%
X173438900Y-98425000D03*
%TO.P,J4,21,Pin_21*%
%TO.N,B1_3V3*%
X173438900Y-100965000D03*
%TO.P,J4,22,Pin_22*%
%TO.N,B0_3V3*%
X173438900Y-103505000D03*
%TO.P,J4,23,Pin_23*%
%TO.N,GND*%
X173438900Y-106045000D03*
%TO.P,J4,24,Pin_24*%
%TO.N,VCC_3V3*%
X173438900Y-108585000D03*
%TD*%
D10*
%TO.P,U2,1,DIR*%
%TO.N,VDD*%
X158386700Y-50170000D03*
D11*
%TO.P,U2,2,A0*%
%TO.N,CD0*%
X158386700Y-52710000D03*
%TO.P,U2,3,A1*%
%TO.N,CD1*%
X158386700Y-55250000D03*
%TO.P,U2,4,A2*%
%TO.N,CD2*%
X158386700Y-57790000D03*
%TO.P,U2,5,A3*%
%TO.N,CD3*%
X158386700Y-60330000D03*
%TO.P,U2,6,A4*%
%TO.N,CD4*%
X158386700Y-62870000D03*
%TO.P,U2,7,A5*%
%TO.N,CD5*%
X158386700Y-65410000D03*
%TO.P,U2,8,A6*%
%TO.N,CD6*%
X158386700Y-67950000D03*
%TO.P,U2,9,A7*%
%TO.N,CD7*%
X158386700Y-70490000D03*
%TO.P,U2,10,GND*%
%TO.N,GND*%
X158386700Y-73030000D03*
%TO.P,U2,11,B7*%
%TO.N,CD7_3V3*%
X166006700Y-73030000D03*
%TO.P,U2,12,B6*%
%TO.N,CD6_3V3*%
X166006700Y-70490000D03*
%TO.P,U2,13,B5*%
%TO.N,CD5_3V3*%
X166006700Y-67950000D03*
%TO.P,U2,14,B4*%
%TO.N,CD4_3V3*%
X166006700Y-65410000D03*
%TO.P,U2,15,B3*%
%TO.N,CD3_3V3*%
X166006700Y-62870000D03*
%TO.P,U2,16,B2*%
%TO.N,CD2_3V3*%
X166006700Y-60330000D03*
%TO.P,U2,17,B1*%
%TO.N,CD1_3V3*%
X166006700Y-57790000D03*
%TO.P,U2,18,B0*%
%TO.N,CD0_3V3*%
X166006700Y-55250000D03*
%TO.P,U2,19,~{0E}*%
%TO.N,~{CSW}*%
X166006700Y-52710000D03*
%TO.P,U2,20,VCC*%
%TO.N,VCC_3V3*%
X166006700Y-50170000D03*
%TD*%
D16*
%TO.P,D1,1,K*%
%TO.N,VDD*%
X166624000Y-104648000D03*
D17*
%TO.P,D1,2,A*%
%TO.N,VCC*%
X156464000Y-104648000D03*
%TD*%
D10*
%TO.P,U1,1,DIR*%
%TO.N,GND*%
X158300500Y-77698600D03*
D11*
%TO.P,U1,2,A0*%
%TO.N,CD0*%
X158300500Y-80238600D03*
%TO.P,U1,3,A1*%
%TO.N,CD1*%
X158300500Y-82778600D03*
%TO.P,U1,4,A2*%
%TO.N,CD2*%
X158300500Y-85318600D03*
%TO.P,U1,5,A3*%
%TO.N,CD3*%
X158300500Y-87858600D03*
%TO.P,U1,6,A4*%
%TO.N,CD4*%
X158300500Y-90398600D03*
%TO.P,U1,7,A5*%
%TO.N,CD5*%
X158300500Y-92938600D03*
%TO.P,U1,8,A6*%
%TO.N,CD6*%
X158300500Y-95478600D03*
%TO.P,U1,9,A7*%
%TO.N,CD7*%
X158300500Y-98018600D03*
%TO.P,U1,10,GND*%
%TO.N,GND*%
X158300500Y-100558600D03*
%TO.P,U1,11,B7*%
%TO.N,CD7_3V3*%
X165920500Y-100558600D03*
%TO.P,U1,12,B6*%
%TO.N,CD6_3V3*%
X165920500Y-98018600D03*
%TO.P,U1,13,B5*%
%TO.N,CD5_3V3*%
X165920500Y-95478600D03*
%TO.P,U1,14,B4*%
%TO.N,CD4_3V3*%
X165920500Y-92938600D03*
%TO.P,U1,15,B3*%
%TO.N,CD3_3V3*%
X165920500Y-90398600D03*
%TO.P,U1,16,B2*%
%TO.N,CD2_3V3*%
X165920500Y-87858600D03*
%TO.P,U1,17,B1*%
%TO.N,CD1_3V3*%
X165920500Y-85318600D03*
%TO.P,U1,18,B0*%
%TO.N,CD0_3V3*%
X165920500Y-82778600D03*
%TO.P,U1,19,~{0E}*%
%TO.N,~{CSR}*%
X165920500Y-80238600D03*
%TO.P,U1,20,VCC*%
%TO.N,VCC_3V3*%
X165920500Y-77698600D03*
%TD*%
D12*
%TO.P,J2,1,Pin_1*%
%TO.N,unconnected-(J2-Pin_1-Pad1)*%
X154566700Y-98420000D03*
D13*
%TO.P,J2,2,Pin_2*%
%TO.N,unconnected-(J2-Pin_2-Pad2)*%
X154566700Y-95880000D03*
%TO.P,J2,3,Pin_3*%
%TO.N,CPUCLK*%
X154566700Y-93340000D03*
%TO.P,J2,4,Pin_4*%
%TO.N,GROMCLK*%
X154566700Y-90800000D03*
%TO.P,J2,5,Pin_5*%
%TO.N,COMVID*%
X154566700Y-88260000D03*
%TO.P,J2,6,Pin_6*%
%TO.N,EXTVDP*%
X154566700Y-85720000D03*
%TO.P,J2,7,Pin_7*%
%TO.N,~{RESET}*%
X154566700Y-83180000D03*
%TO.P,J2,8,Pin_8*%
%TO.N,VCC*%
X154566700Y-80640000D03*
%TO.P,J2,9,Pin_9*%
%TO.N,unconnected-(J2-Pin_9-Pad9)*%
X154566700Y-78100000D03*
%TO.P,J2,10,Pin_10*%
%TO.N,unconnected-(J2-Pin_10-Pad10)*%
X154566700Y-75560000D03*
%TO.P,J2,11,Pin_11*%
%TO.N,unconnected-(J2-Pin_11-Pad11)*%
X154566700Y-73020000D03*
%TO.P,J2,12,Pin_12*%
%TO.N,unconnected-(J2-Pin_12-Pad12)*%
X154566700Y-70480000D03*
%TO.P,J2,13,Pin_13*%
%TO.N,unconnected-(J2-Pin_13-Pad13)*%
X154566700Y-67940000D03*
%TO.P,J2,14,Pin_14*%
%TO.N,unconnected-(J2-Pin_14-Pad14)*%
X154566700Y-65400000D03*
%TO.P,J2,15,Pin_15*%
%TO.N,unconnected-(J2-Pin_15-Pad15)*%
X154566700Y-62860000D03*
%TO.P,J2,16,Pin_16*%
%TO.N,unconnected-(J2-Pin_16-Pad16)*%
X154566700Y-60320000D03*
%TO.P,J2,17,Pin_17*%
%TO.N,CD0*%
X154566700Y-57780000D03*
%TO.P,J2,18,Pin_18*%
%TO.N,CD1*%
X154566700Y-55240000D03*
%TO.P,J2,19,Pin_19*%
%TO.N,CD2*%
X154566700Y-52700000D03*
%TO.P,J2,20,Pin_20*%
%TO.N,CD3*%
X154566700Y-50160000D03*
%TD*%
D12*
%TO.P,J1,1,Pin_1*%
%TO.N,unconnected-(J1-Pin_1-Pad1)*%
X169806700Y-98420000D03*
D13*
%TO.P,J1,2,Pin_2*%
%TO.N,unconnected-(J1-Pin_2-Pad2)*%
X169806700Y-95880000D03*
%TO.P,J1,3,Pin_3*%
%TO.N,unconnected-(J1-Pin_3-Pad3)*%
X169806700Y-93340000D03*
%TO.P,J1,4,Pin_4*%
%TO.N,unconnected-(J1-Pin_4-Pad4)*%
X169806700Y-90800000D03*
%TO.P,J1,5,Pin_5*%
%TO.N,unconnected-(J1-Pin_5-Pad5)*%
X169806700Y-88260000D03*
%TO.P,J1,6,Pin_6*%
%TO.N,unconnected-(J1-Pin_6-Pad6)*%
X169806700Y-85720000D03*
%TO.P,J1,7,Pin_7*%
%TO.N,unconnected-(J1-Pin_7-Pad7)*%
X169806700Y-83180000D03*
%TO.P,J1,8,Pin_8*%
%TO.N,unconnected-(J1-Pin_8-Pad8)*%
X169806700Y-80640000D03*
%TO.P,J1,9,Pin_9*%
%TO.N,unconnected-(J1-Pin_9-Pad9)*%
X169806700Y-78100000D03*
%TO.P,J1,10,Pin_10*%
%TO.N,unconnected-(J1-Pin_10-Pad10)*%
X169806700Y-75560000D03*
%TO.P,J1,11,Pin_11*%
%TO.N,unconnected-(J1-Pin_11-Pad11)*%
X169806700Y-73020000D03*
%TO.P,J1,12,Pin_12*%
%TO.N,GND*%
X169806700Y-70480000D03*
%TO.P,J1,13,Pin_13*%
%TO.N,MODE*%
X169806700Y-67940000D03*
%TO.P,J1,14,Pin_14*%
%TO.N,~{CSW}*%
X169806700Y-65400000D03*
%TO.P,J1,15,Pin_15*%
%TO.N,~{CSR}*%
X169806700Y-62860000D03*
%TO.P,J1,16,Pin_16*%
%TO.N,~{INT}*%
X169806700Y-60320000D03*
%TO.P,J1,17,Pin_17*%
%TO.N,CD7*%
X169806700Y-57780000D03*
%TO.P,J1,18,Pin_18*%
%TO.N,CD6*%
X169806700Y-55240000D03*
%TO.P,J1,19,Pin_19*%
%TO.N,CD5*%
X169806700Y-52700000D03*
%TO.P,J1,20,Pin_20*%
%TO.N,CD4*%
X169806700Y-50160000D03*
%TD*%
D18*
%TO.N,B1_3V3*%
X137651400Y-64812200D03*
X142617000Y-58812800D03*
%TO.N,B2_3V3*%
X161511300Y-56694500D03*
%TO.N,B3_3V3*%
X148364000Y-101715200D03*
X141519900Y-85234700D03*
X141519900Y-95635100D03*
%TO.N,~{CSW_3V3}*%
X145561100Y-63302200D03*
%TO.N,CD0_3V3*%
X160707700Y-62951800D03*
%TO.N,CD1_3V3*%
X160798100Y-66342900D03*
%TO.N,CD2_3V3*%
X162533900Y-67442100D03*
%TO.N,CD3_3V3*%
X163613100Y-84470400D03*
%TO.N,CD4_3V3*%
X161612100Y-70548700D03*
X159779600Y-61828800D03*
%TO.N,CD5_3V3*%
X172189900Y-89980900D03*
%TO.N,CD6_3V3*%
X163628800Y-93715700D03*
X168631500Y-100950800D03*
%TO.N,CD7_3V3*%
X168595800Y-94776300D03*
%TO.N,R0_3V3*%
X143860800Y-63302200D03*
X165001400Y-75139600D03*
X144792600Y-83207200D03*
X144812400Y-58642400D03*
%TO.N,R1_3V3*%
X143635100Y-72727200D03*
%TO.N,G1_3V3*%
X142596800Y-91645600D03*
%TO.N,G2_3V3*%
X143673600Y-89626500D03*
%TO.N,MODE*%
X168833700Y-102722600D03*
X141062800Y-100266000D03*
X149089100Y-104800900D03*
X155025700Y-103398600D03*
%TO.N,~{CSR}*%
X145160400Y-107586800D03*
X173702300Y-111050300D03*
%TO.N,~{INT}*%
X176527900Y-102305500D03*
%TO.N,CD7*%
X160929200Y-71312900D03*
%TO.N,CD6*%
X161443000Y-95889900D03*
X169655900Y-103467400D03*
X169064400Y-105282000D03*
%TO.N,CD1*%
X155921600Y-81716400D03*
%TO.N,~{RESET}*%
X145770600Y-84215800D03*
X147181800Y-80423000D03*
%TD*%
D19*
%TO.N,VCC_3V3*%
X169346800Y-104345500D02*
X172138800Y-107137500D01*
X173438900Y-108585000D02*
X172138800Y-108585000D01*
X165920500Y-77698600D02*
X166354100Y-77698600D01*
X167570600Y-77698600D02*
X168020700Y-78148700D01*
X169254400Y-104345500D02*
X169346800Y-104345500D01*
X172138800Y-107137500D02*
X172138800Y-108585000D01*
X167683100Y-102774200D02*
X169254400Y-104345500D01*
X166354100Y-77698600D02*
X167570600Y-77698600D01*
X166354100Y-77698600D02*
X166354100Y-75290000D01*
X166006700Y-50170000D02*
X164356600Y-50170000D01*
X168020700Y-86022900D02*
X167683100Y-86360500D01*
X168020700Y-78148700D02*
X168020700Y-86022900D01*
X165064300Y-74289500D02*
X164356600Y-73581800D01*
X165353600Y-74289500D02*
X165064300Y-74289500D01*
X166354100Y-75290000D02*
X165353600Y-74289500D01*
X164356600Y-73581800D02*
X164356600Y-50170000D01*
X167683100Y-86360500D02*
X167683100Y-102774200D01*
%TO.N,GND*%
X144780900Y-89725500D02*
X144780900Y-88392000D01*
X156771800Y-81364200D02*
X156650400Y-81242800D01*
X158300500Y-77698600D02*
X156650400Y-77698600D01*
X143722500Y-105450600D02*
X143722500Y-90783900D01*
X144486100Y-82311500D02*
X143930500Y-82867100D01*
X146431000Y-56642000D02*
X146431000Y-59182000D01*
X156650400Y-81242800D02*
X156650400Y-77698600D01*
X138811000Y-108712000D02*
X140461100Y-108712000D01*
X158300500Y-100558600D02*
X156650400Y-100558600D01*
X156650400Y-100558600D02*
X156650400Y-82190000D01*
X143930500Y-87541600D02*
X144780900Y-88392000D01*
X141478000Y-64008000D02*
X142778100Y-64008000D01*
X146431000Y-88392000D02*
X144780900Y-88392000D01*
X156771800Y-82068600D02*
X156771800Y-81364200D01*
X143930500Y-82867100D02*
X143930500Y-87541600D01*
X146431000Y-51562000D02*
X146431000Y-54102000D01*
X142778100Y-64008000D02*
X144486100Y-65716000D01*
X140461100Y-108712000D02*
X143722500Y-105450600D01*
X156650400Y-82190000D02*
X156771800Y-82068600D01*
X143722500Y-90783900D02*
X144780900Y-89725500D01*
X144486100Y-65716000D02*
X144486100Y-82311500D01*
X146431000Y-54102000D02*
X146431000Y-56642000D01*
D20*
%TO.N,VS_3V3*%
X141234800Y-62577000D02*
X146609400Y-62577000D01*
X146609400Y-62577000D02*
X148167400Y-64135000D01*
X140113100Y-63698700D02*
X141234800Y-62577000D01*
X138938000Y-65372900D02*
X139305300Y-65372900D01*
X151802500Y-64913100D02*
X151802500Y-86274600D01*
X150987200Y-87089900D02*
X150622000Y-87089900D01*
X138938000Y-66548000D02*
X138938000Y-65372900D01*
X151802500Y-86274600D02*
X150987200Y-87089900D01*
X139305300Y-65372900D02*
X140113100Y-64565100D01*
X148167400Y-64135000D02*
X151024400Y-64135000D01*
X140113100Y-64565100D02*
X140113100Y-63698700D01*
X150622000Y-88265000D02*
X150622000Y-87089900D01*
X151024400Y-64135000D02*
X151802500Y-64913100D01*
%TO.N,USR4_1V8*%
X172233500Y-58309800D02*
X173073600Y-59149900D01*
X138811000Y-59182000D02*
X139936100Y-59182000D01*
X168567300Y-50077900D02*
X168567300Y-50585000D01*
X170208300Y-51430000D02*
X172233500Y-53455200D01*
X143541400Y-52191100D02*
X147241300Y-48491200D01*
X173438900Y-60325000D02*
X173438900Y-59149900D01*
X172233500Y-53455200D02*
X172233500Y-58309800D01*
X140295900Y-59541800D02*
X142913500Y-59541800D01*
X139936100Y-59182000D02*
X140295900Y-59541800D01*
X143541400Y-58913900D02*
X143541400Y-52191100D01*
X166980600Y-48491200D02*
X168567300Y-50077900D01*
X173073600Y-59149900D02*
X173438900Y-59149900D01*
X168567300Y-50585000D02*
X169412300Y-51430000D01*
X169412300Y-51430000D02*
X170208300Y-51430000D01*
X142913500Y-59541800D02*
X143541400Y-58913900D01*
X147241300Y-48491200D02*
X166980600Y-48491200D01*
D19*
%TO.N,VCC*%
X153266500Y-81940200D02*
X154566700Y-80640000D01*
X156464000Y-104648000D02*
X156464000Y-103097900D01*
X156464000Y-103097900D02*
X153266500Y-99900400D01*
X153266500Y-99900400D02*
X153266500Y-81940200D01*
D20*
%TO.N,B1_3V3*%
X138938000Y-70452900D02*
X138570800Y-70452900D01*
X173438900Y-100965000D02*
X173438900Y-99789900D01*
X138570800Y-70452900D02*
X137651400Y-69533500D01*
X142617000Y-52396700D02*
X146982200Y-48031500D01*
X146982200Y-48031500D02*
X173470800Y-48031500D01*
X175630900Y-50191600D02*
X175630900Y-97963100D01*
X137651400Y-69533500D02*
X137651400Y-64812200D01*
X173804100Y-99789900D02*
X173438900Y-99789900D01*
X142617000Y-58812800D02*
X142617000Y-52396700D01*
X173470800Y-48031500D02*
X175630900Y-50191600D01*
X138938000Y-71628000D02*
X138938000Y-70452900D01*
X175630900Y-97963100D02*
X173804100Y-99789900D01*
%TO.N,B2_3V3*%
X168022300Y-50169600D02*
X168022300Y-52638600D01*
X173804100Y-97249900D02*
X173438900Y-97249900D01*
X171783200Y-62904500D02*
X173013700Y-64135000D01*
X173438900Y-98425000D02*
X173438900Y-97249900D01*
X173013700Y-64135000D02*
X173838300Y-64135000D01*
X171783200Y-55490200D02*
X171783200Y-62904500D01*
X175139100Y-65435800D02*
X175139100Y-95914900D01*
X173838300Y-64135000D02*
X175139100Y-65435800D01*
X170263000Y-53970000D02*
X171783200Y-55490200D01*
X166867500Y-49014800D02*
X168022300Y-50169600D01*
X161511300Y-52143300D02*
X164639800Y-49014800D01*
X161511300Y-56694500D02*
X161511300Y-52143300D01*
X168022300Y-52638600D02*
X169353700Y-53970000D01*
X164639800Y-49014800D02*
X166867500Y-49014800D01*
X169353700Y-53970000D02*
X170263000Y-53970000D01*
X175139100Y-95914900D02*
X173804100Y-97249900D01*
%TO.N,B3_3V3*%
X174614100Y-105551300D02*
X173837800Y-104775000D01*
X148364000Y-105458200D02*
X150220800Y-107315000D01*
X173837800Y-104775000D02*
X172952300Y-104775000D01*
X173976300Y-109762200D02*
X174614100Y-109124400D01*
X174614100Y-109124400D02*
X174614100Y-105551300D01*
X148364000Y-101715200D02*
X148364000Y-105458200D01*
X141519900Y-85234700D02*
X141519900Y-95635100D01*
X169840400Y-109762200D02*
X173976300Y-109762200D01*
X173438900Y-96613200D02*
X173438900Y-95885000D01*
X167393200Y-107315000D02*
X169840400Y-109762200D01*
X172263700Y-97788400D02*
X173438900Y-96613200D01*
X172952300Y-104775000D02*
X172263700Y-104086400D01*
X172263700Y-104086400D02*
X172263700Y-97788400D01*
X150220800Y-107315000D02*
X167393200Y-107315000D01*
%TO.N,MODE_3V3*%
X151019100Y-89535000D02*
X150118500Y-89535000D01*
X149085900Y-99962200D02*
X147956100Y-101092000D01*
X146431000Y-101092000D02*
X147956100Y-101092000D01*
X149085900Y-90567600D02*
X149085900Y-99962200D01*
X150622000Y-50165000D02*
X150622000Y-51340100D01*
X150118500Y-89535000D02*
X149085900Y-90567600D01*
X152252700Y-88301400D02*
X151019100Y-89535000D01*
X150622000Y-51340100D02*
X150989200Y-51340100D01*
X152252700Y-52603600D02*
X152252700Y-88301400D01*
X150989200Y-51340100D02*
X152252700Y-52603600D01*
%TO.N,~{CSW_3V3}*%
X145681400Y-89662000D02*
X144905900Y-90437500D01*
X145561100Y-63302200D02*
X147957000Y-65698100D01*
X147957000Y-88864800D02*
X147159800Y-89662000D01*
X144905900Y-90437500D02*
X144905900Y-96012000D01*
X146431000Y-96012000D02*
X144905900Y-96012000D01*
X147957000Y-65698100D02*
X147957000Y-88864800D01*
X147159800Y-89662000D02*
X145681400Y-89662000D01*
%TO.N,~{CSR_3V3}*%
X150622000Y-56420100D02*
X150254700Y-56420100D01*
X139016000Y-60307200D02*
X135534500Y-63788700D01*
X140196400Y-109847700D02*
X144297700Y-105746400D01*
X135534500Y-63788700D02*
X135534500Y-107463300D01*
X150254700Y-56420100D02*
X149446900Y-57227900D01*
X135534500Y-107463300D02*
X137918900Y-109847700D01*
X146902900Y-60307200D02*
X139016000Y-60307200D01*
X149446900Y-57763200D02*
X146902900Y-60307200D01*
X144297700Y-99160200D02*
X144905900Y-98552000D01*
X149446900Y-57227900D02*
X149446900Y-57763200D01*
X144297700Y-105746400D02*
X144297700Y-99160200D01*
X146431000Y-98552000D02*
X144905900Y-98552000D01*
X150622000Y-55245000D02*
X150622000Y-56420100D01*
X137918900Y-109847700D02*
X140196400Y-109847700D01*
%TO.N,~{INT_3V3}*%
X150622000Y-58960100D02*
X150989200Y-58960100D01*
X136434700Y-90080800D02*
X137285900Y-90932000D01*
X150935600Y-61676800D02*
X138919600Y-61676800D01*
X138919600Y-61676800D02*
X136434700Y-64161700D01*
X136434700Y-64161700D02*
X136434700Y-90080800D01*
X151802500Y-59773400D02*
X151802500Y-60809900D01*
X151802500Y-60809900D02*
X150935600Y-61676800D01*
X150989200Y-58960100D02*
X151802500Y-59773400D01*
X138811000Y-90932000D02*
X137285900Y-90932000D01*
X150622000Y-57785000D02*
X150622000Y-58960100D01*
%TO.N,CPUCLK_3V3*%
X148704300Y-61067600D02*
X138892200Y-61067600D01*
X135984600Y-63975200D02*
X135984600Y-99790700D01*
X138892200Y-61067600D02*
X135984600Y-63975200D01*
X150622000Y-60325000D02*
X149446900Y-60325000D01*
X149446900Y-60325000D02*
X148704300Y-61067600D01*
X135984600Y-99790700D02*
X137285900Y-101092000D01*
X138811000Y-101092000D02*
X137285900Y-101092000D01*
%TO.N,GROMCLK_3V3*%
X136884800Y-88480500D02*
X136884800Y-64348200D01*
X138811000Y-103632000D02*
X140336100Y-103632000D01*
X140717400Y-95927100D02*
X140717400Y-90793600D01*
X136884800Y-64348200D02*
X139106100Y-62126900D01*
X140717400Y-90793600D02*
X139585800Y-89662000D01*
X150622000Y-62865000D02*
X149446900Y-62865000D01*
X148708800Y-62126900D02*
X149446900Y-62865000D01*
X138066300Y-89662000D02*
X136884800Y-88480500D01*
X140336100Y-103632000D02*
X141789700Y-102178400D01*
X139106100Y-62126900D02*
X148708800Y-62126900D01*
X141789700Y-96999400D02*
X140717400Y-95927100D01*
X141789700Y-102178400D02*
X141789700Y-96999400D01*
X139585800Y-89662000D02*
X138066300Y-89662000D01*
%TO.N,~{RESET_3V3}*%
X150622000Y-66580100D02*
X150254800Y-66580100D01*
X146431000Y-90932000D02*
X147956100Y-90932000D01*
X150254800Y-66580100D02*
X148435500Y-68399400D01*
X148435500Y-90452600D02*
X147956100Y-90932000D01*
X148435500Y-68399400D02*
X148435500Y-90452600D01*
X150622000Y-65405000D02*
X150622000Y-66580100D01*
%TO.N,CD0_3V3*%
X165920500Y-82778600D02*
X164395400Y-82778600D01*
X163261300Y-74425100D02*
X163261300Y-65505400D01*
X164395400Y-75559200D02*
X163261300Y-74425100D01*
X164395400Y-82778600D02*
X164395400Y-75559200D01*
X163261300Y-65505400D02*
X160707700Y-62951800D01*
%TO.N,CD1_3V3*%
X160798100Y-66789100D02*
X160798100Y-66342900D01*
X162340400Y-68331400D02*
X160798100Y-66789100D01*
X164395400Y-84227300D02*
X163426400Y-83258300D01*
X163426400Y-75863400D02*
X162340400Y-74777400D01*
X165920500Y-85318600D02*
X164395400Y-85318600D01*
X164395400Y-85318600D02*
X164395400Y-84227300D01*
X162340400Y-74777400D02*
X162340400Y-68331400D01*
X163426400Y-83258300D02*
X163426400Y-75863400D01*
%TO.N,CD2_3V3*%
X165095500Y-84193500D02*
X163876500Y-82974500D01*
X163876500Y-75676900D02*
X162811200Y-74611600D01*
X167445600Y-85784600D02*
X167445600Y-84852600D01*
X162811200Y-67719400D02*
X162533900Y-67442100D01*
X163876500Y-82974500D02*
X163876500Y-75676900D01*
X167445600Y-84852600D02*
X166786500Y-84193500D01*
X164395400Y-87858600D02*
X164395400Y-87386100D01*
X166786500Y-84193500D02*
X165095500Y-84193500D01*
X162811200Y-74611600D02*
X162811200Y-67719400D01*
X166786500Y-86443700D02*
X167445600Y-85784600D01*
X164395400Y-87386100D02*
X165337800Y-86443700D01*
X165337800Y-86443700D02*
X166786500Y-86443700D01*
X165920500Y-87858600D02*
X164395400Y-87858600D01*
%TO.N,CD3_3V3*%
X165920500Y-90398600D02*
X164395400Y-90398600D01*
X163613100Y-89616300D02*
X164395400Y-90398600D01*
X163613100Y-84470400D02*
X163613100Y-89616300D01*
%TO.N,CD4_3V3*%
X161612100Y-70548700D02*
X161795700Y-70732300D01*
X165920500Y-92938600D02*
X164395400Y-92938600D01*
X159924500Y-61973700D02*
X159779600Y-61828800D01*
X162888000Y-91431200D02*
X164395400Y-92938600D01*
X161795700Y-70732300D02*
X161795700Y-74869300D01*
X161612100Y-70548700D02*
X161612100Y-68297100D01*
X161612100Y-68297100D02*
X159924500Y-66609500D01*
X162888000Y-75961600D02*
X162888000Y-91431200D01*
X159924500Y-66609500D02*
X159924500Y-61973700D01*
X161795700Y-74869300D02*
X162888000Y-75961600D01*
%TO.N,CD5_3V3*%
X170317400Y-66764900D02*
X172189900Y-68637400D01*
X168716900Y-66764900D02*
X170317400Y-66764900D01*
X167531800Y-67950000D02*
X168716900Y-66764900D01*
X166006700Y-67950000D02*
X167531800Y-67950000D01*
X172189900Y-68637400D02*
X172189900Y-89980900D01*
%TO.N,CD6_3V3*%
X168775700Y-97244800D02*
X168631500Y-97389000D01*
X166006700Y-70490000D02*
X167531800Y-70490000D01*
X170355700Y-74384800D02*
X170981800Y-75010900D01*
X170130800Y-97244800D02*
X168775700Y-97244800D01*
X168631500Y-71589700D02*
X168631500Y-73516300D01*
X168631500Y-73516300D02*
X169500000Y-74384800D01*
X168631500Y-97389000D02*
X168631500Y-100950800D01*
X167531800Y-70490000D02*
X168631500Y-71589700D01*
X170981800Y-96393800D02*
X170130800Y-97244800D01*
X164395400Y-94482300D02*
X163628800Y-93715700D01*
X169500000Y-74384800D02*
X170355700Y-74384800D01*
X164395400Y-98018600D02*
X164395400Y-94482300D01*
X170981800Y-75010900D02*
X170981800Y-96393800D01*
X165920500Y-98018600D02*
X164395400Y-98018600D01*
%TO.N,CD7_3V3*%
X167531800Y-73053200D02*
X167531800Y-73030000D01*
X168595800Y-94776300D02*
X168595800Y-74117200D01*
X166006700Y-73030000D02*
X167531800Y-73030000D01*
X168595800Y-74117200D02*
X167531800Y-73053200D01*
%TO.N,R0_3V3*%
X163711500Y-61610900D02*
X163711500Y-73849700D01*
X159632500Y-48952800D02*
X160362000Y-49682300D01*
X145115200Y-64556600D02*
X145115200Y-82884600D01*
X144812400Y-51560000D02*
X147419600Y-48952800D01*
X147419600Y-48952800D02*
X159632500Y-48952800D01*
X143860800Y-63302200D02*
X145115200Y-64556600D01*
X144812400Y-58642400D02*
X144812400Y-51560000D01*
X160362000Y-58261400D02*
X163711500Y-61610900D01*
X160362000Y-49682300D02*
X160362000Y-58261400D01*
X145115200Y-82884600D02*
X144792600Y-83207200D01*
X163711500Y-73849700D02*
X165001400Y-75139600D01*
%TO.N,R1_3V3*%
X138938000Y-81788000D02*
X138938000Y-80612900D01*
X140916200Y-72992800D02*
X143369500Y-72992800D01*
X138570800Y-80612900D02*
X137736100Y-79778200D01*
X139463700Y-75343200D02*
X140221300Y-74585600D01*
X143369500Y-72992800D02*
X143635100Y-72727200D01*
X138636000Y-75343200D02*
X139463700Y-75343200D01*
X138938000Y-80612900D02*
X138570800Y-80612900D01*
X140221300Y-73687700D02*
X140916200Y-72992800D01*
X140221300Y-74585600D02*
X140221300Y-73687700D01*
X137736100Y-76243100D02*
X138636000Y-75343200D01*
X137736100Y-79778200D02*
X137736100Y-76243100D01*
%TO.N,G1_3V3*%
X138938000Y-76708000D02*
X138938000Y-77883100D01*
X140113100Y-82699700D02*
X142596800Y-85183400D01*
X139305300Y-77883100D02*
X140113100Y-78690900D01*
X140113100Y-78690900D02*
X140113100Y-82699700D01*
X142596800Y-85183400D02*
X142596800Y-91645600D01*
X138938000Y-77883100D02*
X139305300Y-77883100D01*
%TO.N,G2_3V3*%
X141845200Y-75343100D02*
X143047000Y-76544900D01*
X143047000Y-88999900D02*
X143673600Y-89626500D01*
X141478000Y-75343100D02*
X141845200Y-75343100D01*
X141478000Y-74168000D02*
X141478000Y-75343100D01*
X143047000Y-76544900D02*
X143047000Y-88999900D01*
%TO.N,MODE*%
X153623400Y-104800900D02*
X149089100Y-104800900D01*
X171458600Y-70399800D02*
X171458600Y-96605600D01*
X171317400Y-100238900D02*
X168833700Y-102722600D01*
X169806700Y-67940000D02*
X169806700Y-69115100D01*
X169806700Y-69115100D02*
X170173900Y-69115100D01*
X155025700Y-103398600D02*
X153623400Y-104800900D01*
X140336100Y-98552000D02*
X141062800Y-99278700D01*
X171317400Y-96746800D02*
X171317400Y-100238900D01*
X138811000Y-98552000D02*
X140336100Y-98552000D01*
X171458600Y-96605600D02*
X171317400Y-96746800D01*
X170173900Y-69115100D02*
X171458600Y-70399800D01*
X141062800Y-99278700D02*
X141062800Y-100266000D01*
%TO.N,~{CSW}*%
X169806700Y-65400000D02*
X169806700Y-64224900D01*
X169806700Y-64224900D02*
X169439500Y-64224900D01*
X167531800Y-62317200D02*
X167531800Y-52710000D01*
X169439500Y-64224900D02*
X167531800Y-62317200D01*
X166006700Y-52710000D02*
X167531800Y-52710000D01*
%TO.N,~{CSR}*%
X145160400Y-107586800D02*
X147297200Y-107586800D01*
X150760700Y-111050300D02*
X173702300Y-111050300D01*
X147297200Y-107586800D02*
X150760700Y-111050300D01*
%TO.N,~{INT}*%
X174217200Y-110212300D02*
X150573500Y-110212300D01*
X147956100Y-99040200D02*
X147956100Y-93472000D01*
X147174300Y-99822000D02*
X147956100Y-99040200D01*
X147152300Y-104902000D02*
X145704300Y-104902000D01*
X146431000Y-93472000D02*
X147956100Y-93472000D01*
X145704300Y-104902000D02*
X144892700Y-104090400D01*
X148037000Y-105786700D02*
X147152300Y-104902000D01*
X176527900Y-107901600D02*
X174217200Y-110212300D01*
X176527900Y-102305500D02*
X176527900Y-107901600D01*
X144892700Y-104090400D02*
X144892700Y-100610600D01*
X145681300Y-99822000D02*
X147174300Y-99822000D01*
X148037000Y-107675800D02*
X148037000Y-105786700D01*
X150573500Y-110212300D02*
X148037000Y-107675800D01*
X144892700Y-100610600D02*
X145681300Y-99822000D01*
%TO.N,CD7*%
X162076100Y-93984000D02*
X162076100Y-75786400D01*
X158300500Y-98018600D02*
X159825600Y-98018600D01*
X160929200Y-74639500D02*
X160929200Y-71312900D01*
X159825600Y-98018600D02*
X159825600Y-96234500D01*
X159825600Y-96234500D02*
X162076100Y-93984000D01*
X162076100Y-75786400D02*
X160929200Y-74639500D01*
%TO.N,CD6*%
X170981800Y-57222900D02*
X170981800Y-64681200D01*
X173851900Y-92075000D02*
X172958500Y-92075000D01*
X171813500Y-101309800D02*
X169655900Y-103467400D01*
X174002000Y-66754900D02*
X174673300Y-67426200D01*
X169806700Y-56415100D02*
X170174000Y-56415100D01*
X168273200Y-106073200D02*
X165332000Y-106073200D01*
X174673300Y-91253600D02*
X173851900Y-92075000D01*
X174673300Y-67426200D02*
X174673300Y-91253600D01*
X171813500Y-96887400D02*
X171813500Y-101309800D01*
X161443000Y-102184200D02*
X161443000Y-95889900D01*
X170981800Y-64681200D02*
X173055500Y-66754900D01*
X171950000Y-96750900D02*
X171813500Y-96887400D01*
X170174000Y-56415100D02*
X170981800Y-57222900D01*
X172958500Y-92075000D02*
X171950000Y-93083500D01*
X169064400Y-105282000D02*
X168273200Y-106073200D01*
X165332000Y-106073200D02*
X161443000Y-102184200D01*
X173055500Y-66754900D02*
X174002000Y-66754900D01*
X169806700Y-55240000D02*
X169806700Y-56415100D01*
X171950000Y-93083500D02*
X171950000Y-96750900D01*
%TO.N,CD5*%
X160460700Y-72063200D02*
X160204100Y-71806600D01*
X158300500Y-92938600D02*
X159825600Y-92938600D01*
X159825600Y-92938600D02*
X161626000Y-91138200D01*
X160204100Y-67750500D02*
X158386700Y-65933100D01*
X160460700Y-74807600D02*
X160460700Y-72063200D01*
X161626000Y-75972900D02*
X160460700Y-74807600D01*
X160204100Y-71806600D02*
X160204100Y-67750500D01*
X161626000Y-91138200D02*
X161626000Y-75972900D01*
X158386700Y-65933100D02*
X158386700Y-65410000D01*
%TO.N,CD4*%
X157653100Y-71760000D02*
X156861600Y-70968500D01*
X159982400Y-74965900D02*
X159982400Y-72633500D01*
X159982400Y-72633500D02*
X159108900Y-71760000D01*
X159108900Y-71760000D02*
X157653100Y-71760000D01*
X161175900Y-89048300D02*
X161175900Y-76159400D01*
X158386700Y-62870000D02*
X156861600Y-62870000D01*
X156861600Y-70968500D02*
X156861600Y-62870000D01*
X159825600Y-90398600D02*
X161175900Y-89048300D01*
X158300500Y-90398600D02*
X159825600Y-90398600D01*
X161175900Y-76159400D02*
X159982400Y-74965900D01*
%TO.N,CD3*%
X159825600Y-87858600D02*
X160725800Y-86958400D01*
X160725800Y-86958400D02*
X160725800Y-76356200D01*
X156406000Y-60785600D02*
X156861600Y-60330000D01*
X159110300Y-53980000D02*
X159911800Y-54781500D01*
X159911800Y-54781500D02*
X159911800Y-60330000D01*
X157661100Y-53980000D02*
X159110300Y-53980000D01*
X158300500Y-87858600D02*
X159825600Y-87858600D01*
X158878300Y-74508700D02*
X157817200Y-74508700D01*
X157817200Y-74508700D02*
X156406000Y-73097500D01*
X158386700Y-60330000D02*
X159911800Y-60330000D01*
X155016200Y-51335100D02*
X157661100Y-53980000D01*
X156406000Y-73097500D02*
X156406000Y-60785600D01*
X154566700Y-51335100D02*
X155016200Y-51335100D01*
X154566700Y-50160000D02*
X154566700Y-51335100D01*
X158386700Y-60330000D02*
X156861600Y-60330000D01*
X160725800Y-76356200D02*
X158878300Y-74508700D01*
%TO.N,CD2*%
X155942200Y-73336000D02*
X155942200Y-58709400D01*
X154566700Y-52700000D02*
X154566700Y-53875100D01*
X160275700Y-76542700D02*
X158896800Y-75163800D01*
X158386700Y-57790000D02*
X156861600Y-57790000D01*
X157770000Y-75163800D02*
X155942200Y-73336000D01*
X160275700Y-84868500D02*
X160275700Y-76542700D01*
X154566700Y-53875100D02*
X154934000Y-53875100D01*
X155942200Y-58709400D02*
X156861600Y-57790000D01*
X154934000Y-53875100D02*
X156861600Y-55802700D01*
X156861600Y-55802700D02*
X156861600Y-57790000D01*
X158300500Y-85318600D02*
X159825600Y-85318600D01*
X158896800Y-75163800D02*
X157770000Y-75163800D01*
X159825600Y-85318600D02*
X160275700Y-84868500D01*
%TO.N,CD1*%
X154566700Y-55240000D02*
X154566700Y-56415100D01*
X154566700Y-56415100D02*
X154199500Y-56415100D01*
X154199500Y-56415100D02*
X152925500Y-57689100D01*
X154140700Y-76830000D02*
X154998100Y-76830000D01*
X155921600Y-77753500D02*
X155921600Y-81716400D01*
X154998100Y-76830000D02*
X155921600Y-77753500D01*
X152925500Y-75614800D02*
X154140700Y-76830000D01*
X152925500Y-57689100D02*
X152925500Y-75614800D01*
%TO.N,CD0*%
X154566700Y-58955100D02*
X154248200Y-58955100D01*
X158300500Y-80238600D02*
X159825600Y-80238600D01*
X154160500Y-74290000D02*
X156259500Y-74290000D01*
X156259500Y-74290000D02*
X157742300Y-75772800D01*
X154248200Y-58955100D02*
X153375600Y-59827700D01*
X153375600Y-73505100D02*
X154160500Y-74290000D01*
X157742300Y-75772800D02*
X158869200Y-75772800D01*
X153375600Y-59827700D02*
X153375600Y-73505100D01*
X158869200Y-75772800D02*
X159825600Y-76729200D01*
X159825600Y-76729200D02*
X159825600Y-80238600D01*
X154566700Y-57780000D02*
X154566700Y-58955100D01*
%TO.N,~{RESET}*%
X147181800Y-82804600D02*
X145770600Y-84215800D01*
X147181800Y-80423000D02*
X147181800Y-82804600D01*
%TD*%
M02*
