%TF.GenerationSoftware,KiCad,Pcbnew,7.0.1*%
%TF.CreationDate,2023-05-22T13:15:01-07:00*%
%TF.ProjectId,tn9k_f18a,746e396b-5f66-4313-9861-2e6b69636164,rev?*%
%TF.SameCoordinates,Original*%
%TF.FileFunction,Copper,L1,Top*%
%TF.FilePolarity,Positive*%
%FSLAX46Y46*%
G04 Gerber Fmt 4.6, Leading zero omitted, Abs format (unit mm)*
G04 Created by KiCad (PCBNEW 7.0.1) date 2023-05-22 13:15:01*
%MOMM*%
%LPD*%
G01*
G04 APERTURE LIST*
%TA.AperFunction,ComponentPad*%
%ADD10R,2.400000X1.600000*%
%TD*%
%TA.AperFunction,ComponentPad*%
%ADD11O,2.400000X1.600000*%
%TD*%
%TA.AperFunction,ComponentPad*%
%ADD12R,2.200000X2.200000*%
%TD*%
%TA.AperFunction,ComponentPad*%
%ADD13O,2.200000X2.200000*%
%TD*%
%TA.AperFunction,ComponentPad*%
%ADD14R,1.600000X2.400000*%
%TD*%
%TA.AperFunction,ComponentPad*%
%ADD15O,1.600000X2.400000*%
%TD*%
%TA.AperFunction,ComponentPad*%
%ADD16R,1.700000X1.700000*%
%TD*%
%TA.AperFunction,ComponentPad*%
%ADD17O,1.700000X1.700000*%
%TD*%
%TA.AperFunction,ComponentPad*%
%ADD18R,1.600000X1.600000*%
%TD*%
%TA.AperFunction,ComponentPad*%
%ADD19O,1.600000X1.600000*%
%TD*%
%TA.AperFunction,ViaPad*%
%ADD20C,0.800000*%
%TD*%
%TA.AperFunction,Conductor*%
%ADD21C,0.250000*%
%TD*%
G04 APERTURE END LIST*
D10*
%TO.P,U3,1,DIR*%
%TO.N,VDD*%
X157388400Y-53395800D03*
D11*
%TO.P,U3,2,A0*%
%TO.N,~{RESET}*%
X157388400Y-55935800D03*
%TO.P,U3,3,A1*%
%TO.N,~{INT_3V3}*%
X157388400Y-58475800D03*
%TO.P,U3,4,A2*%
%TO.N,~{CSW}*%
X157388400Y-61015800D03*
%TO.P,U3,5,A3*%
%TO.N,~{CSR}*%
X157388400Y-63555800D03*
%TO.P,U3,6,A4*%
%TO.N,MODE*%
X157388400Y-66095800D03*
%TO.P,U3,7,A5*%
%TO.N,CPUCLK_3V3*%
X157388400Y-68635800D03*
%TO.P,U3,8,A6*%
%TO.N,GROMCLK_3V3*%
X157388400Y-71175800D03*
%TO.P,U3,9,A7*%
%TO.N,unconnected-(U3-A7-Pad9)*%
X157388400Y-73715800D03*
%TO.P,U3,10,GND*%
%TO.N,GND*%
X157388400Y-76255800D03*
%TO.P,U3,11,B7*%
%TO.N,unconnected-(U3-B7-Pad11)*%
X165008400Y-76255800D03*
%TO.P,U3,12,B6*%
%TO.N,GROMCLK*%
X165008400Y-73715800D03*
%TO.P,U3,13,B5*%
%TO.N,CPUCLK*%
X165008400Y-71175800D03*
%TO.P,U3,14,B4*%
%TO.N,MODE_3V3*%
X165008400Y-68635800D03*
%TO.P,U3,15,B3*%
%TO.N,~{CSR_3V3}*%
X165008400Y-66095800D03*
%TO.P,U3,16,B2*%
%TO.N,~{CSW_3V3}*%
X165008400Y-63555800D03*
%TO.P,U3,17,B1*%
%TO.N,~{INT}*%
X165008400Y-61015800D03*
%TO.P,U3,18,B0*%
%TO.N,~{RESET_3V3}*%
X165008400Y-58475800D03*
%TO.P,U3,19,~{0E}*%
%TO.N,GND*%
X165008400Y-55935800D03*
%TO.P,U3,20,VCC*%
%TO.N,VCC_3V3*%
X165008400Y-53395800D03*
%TD*%
D12*
%TO.P,D1,1,K*%
%TO.N,VDD*%
X166166800Y-107848400D03*
D13*
%TO.P,D1,2,A*%
%TO.N,VCC*%
X156006800Y-107848400D03*
%TD*%
D10*
%TO.P,U2,1,DIR*%
%TO.N,VDD*%
X157429200Y-80822800D03*
D11*
%TO.P,U2,2,A0*%
%TO.N,CD0*%
X157429200Y-83362800D03*
%TO.P,U2,3,A1*%
%TO.N,CD1*%
X157429200Y-85902800D03*
%TO.P,U2,4,A2*%
%TO.N,CD2*%
X157429200Y-88442800D03*
%TO.P,U2,5,A3*%
%TO.N,CD3*%
X157429200Y-90982800D03*
%TO.P,U2,6,A4*%
%TO.N,CD4*%
X157429200Y-93522800D03*
%TO.P,U2,7,A5*%
%TO.N,CD5*%
X157429200Y-96062800D03*
%TO.P,U2,8,A6*%
%TO.N,CD6*%
X157429200Y-98602800D03*
%TO.P,U2,9,A7*%
%TO.N,CD7*%
X157429200Y-101142800D03*
%TO.P,U2,10,GND*%
%TO.N,GND*%
X157429200Y-103682800D03*
%TO.P,U2,11,B7*%
%TO.N,CD7_3V3*%
X165049200Y-103682800D03*
%TO.P,U2,12,B6*%
%TO.N,CD6_3V3*%
X165049200Y-101142800D03*
%TO.P,U2,13,B5*%
%TO.N,CD5_3V3*%
X165049200Y-98602800D03*
%TO.P,U2,14,B4*%
%TO.N,CD4_3V3*%
X165049200Y-96062800D03*
%TO.P,U2,15,B3*%
%TO.N,CD3_3V3*%
X165049200Y-93522800D03*
%TO.P,U2,16,B2*%
%TO.N,CD2_3V3*%
X165049200Y-90982800D03*
%TO.P,U2,17,B1*%
%TO.N,CD1_3V3*%
X165049200Y-88442800D03*
%TO.P,U2,18,B0*%
%TO.N,CD0_3V3*%
X165049200Y-85902800D03*
%TO.P,U2,19,~{0E}*%
%TO.N,~{CSW}*%
X165049200Y-83362800D03*
%TO.P,U2,20,VCC*%
%TO.N,VCC_3V3*%
X165049200Y-80822800D03*
%TD*%
D14*
%TO.P,U1,1,DIR*%
%TO.N,GND*%
X149763400Y-120589200D03*
D15*
%TO.P,U1,2,A0*%
%TO.N,CD0*%
X152303400Y-120589200D03*
%TO.P,U1,3,A1*%
%TO.N,CD1*%
X154843400Y-120589200D03*
%TO.P,U1,4,A2*%
%TO.N,CD2*%
X157383400Y-120589200D03*
%TO.P,U1,5,A3*%
%TO.N,CD3*%
X159923400Y-120589200D03*
%TO.P,U1,6,A4*%
%TO.N,CD4*%
X162463400Y-120589200D03*
%TO.P,U1,7,A5*%
%TO.N,CD5*%
X165003400Y-120589200D03*
%TO.P,U1,8,A6*%
%TO.N,CD6*%
X167543400Y-120589200D03*
%TO.P,U1,9,A7*%
%TO.N,CD7*%
X170083400Y-120589200D03*
%TO.P,U1,10,GND*%
%TO.N,GND*%
X172623400Y-120589200D03*
%TO.P,U1,11,B7*%
%TO.N,CD7_3V3*%
X172623400Y-112969200D03*
%TO.P,U1,12,B6*%
%TO.N,CD6_3V3*%
X170083400Y-112969200D03*
%TO.P,U1,13,B5*%
%TO.N,CD5_3V3*%
X167543400Y-112969200D03*
%TO.P,U1,14,B4*%
%TO.N,CD4_3V3*%
X165003400Y-112969200D03*
%TO.P,U1,15,B3*%
%TO.N,CD3_3V3*%
X162463400Y-112969200D03*
%TO.P,U1,16,B2*%
%TO.N,CD2_3V3*%
X159923400Y-112969200D03*
%TO.P,U1,17,B1*%
%TO.N,CD1_3V3*%
X157383400Y-112969200D03*
%TO.P,U1,18,B0*%
%TO.N,CD0_3V3*%
X154843400Y-112969200D03*
%TO.P,U1,19,~{0E}*%
%TO.N,~{CSR}*%
X152303400Y-112969200D03*
%TO.P,U1,20,VCC*%
%TO.N,VCC_3V3*%
X149763400Y-112969200D03*
%TD*%
D16*
%TO.P,J3,1,Pin_1*%
%TO.N,MODE_3V3*%
X149877300Y-50200400D03*
D17*
%TO.P,J3,2,Pin_2*%
%TO.N,~{CSW_3V3}*%
X149877300Y-52740400D03*
%TO.P,J3,3,Pin_3*%
%TO.N,~{CSR_3V3}*%
X149877300Y-55280400D03*
%TO.P,J3,4,Pin_4*%
%TO.N,~{INT_3V3}*%
X149877300Y-57820400D03*
%TO.P,J3,5,Pin_5*%
%TO.N,CPUCLK_3V3*%
X149877300Y-60360400D03*
%TO.P,J3,6,Pin_6*%
%TO.N,GROMCLK_3V3*%
X149877300Y-62900400D03*
%TO.P,J3,7,Pin_7*%
%TO.N,~{RESET_3V3}*%
X149877300Y-65440400D03*
%TO.P,J3,8,Pin_8*%
%TO.N,CD0_3V3*%
X149877300Y-67980400D03*
%TO.P,J3,9,Pin_9*%
%TO.N,CD1_3V3*%
X149877300Y-70520400D03*
%TO.P,J3,10,Pin_10*%
%TO.N,CD2_3V3*%
X149877300Y-73060400D03*
%TO.P,J3,11,Pin_11*%
%TO.N,CD3_3V3*%
X149877300Y-75600400D03*
%TO.P,J3,12,Pin_12*%
%TO.N,CD4_3V3*%
X149877300Y-78140400D03*
%TO.P,J3,13,Pin_13*%
%TO.N,CD5_3V3*%
X149877300Y-80680400D03*
%TO.P,J3,14,Pin_14*%
%TO.N,CD6_3V3*%
X149877300Y-83220400D03*
%TO.P,J3,15,Pin_15*%
%TO.N,CD7_3V3*%
X149877300Y-85760400D03*
%TO.P,J3,16,Pin_16*%
%TO.N,VS_3V3*%
X149877300Y-88300400D03*
%TO.P,J3,17,Pin_17*%
%TO.N,R3_3V3*%
X149877300Y-90840400D03*
%TO.P,J3,18,Pin_18*%
%TO.N,R2_3V3*%
X149877300Y-93380400D03*
%TO.P,J3,19,Pin_19*%
%TO.N,G3_3V3*%
X149877300Y-95920400D03*
%TO.P,J3,20,Pin_20*%
%TO.N,G2_3V3*%
X149877300Y-98460400D03*
%TO.P,J3,21,Pin_21*%
%TO.N,G1_3V3*%
X149877300Y-101000400D03*
%TO.P,J3,22,Pin_22*%
%TO.N,G0_3V3*%
X149877300Y-103540400D03*
%TO.P,J3,23,Pin_23*%
%TO.N,unconnected-(J3-Pin_23-Pad23)*%
X149877300Y-106080400D03*
%TO.P,J3,24,Pin_24*%
%TO.N,unconnected-(J3-Pin_24-Pad24)*%
X149877300Y-108620400D03*
%TD*%
D18*
%TO.P,J5,1,Pin_1*%
%TO.N,USR1_1V8*%
X165049200Y-42418000D03*
D19*
%TO.P,J5,2,Pin_2*%
%TO.N,USR2_1V8*%
X162509200Y-42418000D03*
%TO.P,J5,3,Pin_3*%
%TO.N,USR3_1V8*%
X159969200Y-42418000D03*
%TO.P,J5,4,Pin_4*%
%TO.N,USR4_1V8*%
X157429200Y-42418000D03*
%TO.P,J5,5,Pin_5*%
%TO.N,GND*%
X157429200Y-50038000D03*
%TO.P,J5,6,Pin_6*%
X159969200Y-50038000D03*
%TO.P,J5,7,Pin_7*%
X162509200Y-50038000D03*
%TO.P,J5,8,Pin_8*%
X165049200Y-50038000D03*
%TD*%
D16*
%TO.P,J6,1,Pin_1*%
%TO.N,R0_3V3*%
X152400000Y-127000000D03*
D17*
%TO.P,J6,2,Pin_2*%
%TO.N,R1_3V3*%
X152400000Y-124460000D03*
%TO.P,J6,3,Pin_3*%
%TO.N,R2_3V3*%
X154940000Y-127000000D03*
%TO.P,J6,4,Pin_4*%
%TO.N,R3_3V3*%
X154940000Y-124460000D03*
%TO.P,J6,5,Pin_5*%
%TO.N,G0_3V3*%
X157480000Y-127000000D03*
%TO.P,J6,6,Pin_6*%
%TO.N,G1_3V3*%
X157480000Y-124460000D03*
%TO.P,J6,7,Pin_7*%
%TO.N,G2_3V3*%
X160020000Y-127000000D03*
%TO.P,J6,8,Pin_8*%
%TO.N,G3_3V3*%
X160020000Y-124460000D03*
%TO.P,J6,9,Pin_9*%
%TO.N,B0_3V3*%
X162560000Y-127000000D03*
%TO.P,J6,10,Pin_10*%
%TO.N,B1_3V3*%
X162560000Y-124460000D03*
%TO.P,J6,11,Pin_11*%
%TO.N,B2_3V3*%
X165100000Y-127000000D03*
%TO.P,J6,12,Pin_12*%
%TO.N,B3_3V3*%
X165100000Y-124460000D03*
%TO.P,J6,13,Pin_13*%
%TO.N,HS_3V3*%
X167640000Y-127000000D03*
%TO.P,J6,14,Pin_14*%
%TO.N,VS_3V3*%
X167640000Y-124460000D03*
%TO.P,J6,15,Pin_15*%
%TO.N,GND*%
X170180000Y-127000000D03*
%TO.P,J6,16,Pin_16*%
X170180000Y-124460000D03*
%TD*%
D16*
%TO.P,J4,1,Pin_1*%
%TO.N,HS_3V3*%
X172694200Y-50200400D03*
D17*
%TO.P,J4,2,Pin_2*%
%TO.N,USR1_1V8*%
X172694200Y-52740400D03*
%TO.P,J4,3,Pin_3*%
%TO.N,USR2_1V8*%
X172694200Y-55280400D03*
%TO.P,J4,4,Pin_4*%
%TO.N,USR3_1V8*%
X172694200Y-57820400D03*
%TO.P,J4,5,Pin_5*%
%TO.N,USR4_1V8*%
X172694200Y-60360400D03*
%TO.P,J4,6,Pin_6*%
%TO.N,unconnected-(J4-Pin_6-Pad6)*%
X172694200Y-62900400D03*
%TO.P,J4,7,Pin_7*%
%TO.N,unconnected-(J4-Pin_7-Pad7)*%
X172694200Y-65440400D03*
%TO.P,J4,8,Pin_8*%
%TO.N,unconnected-(J4-Pin_8-Pad8)*%
X172694200Y-67980400D03*
%TO.P,J4,9,Pin_9*%
%TO.N,unconnected-(J4-Pin_9-Pad9)*%
X172694200Y-70520400D03*
%TO.P,J4,10,Pin_10*%
%TO.N,R1_3V3*%
X172694200Y-73060400D03*
%TO.P,J4,11,Pin_11*%
%TO.N,R0_3V3*%
X172694200Y-75600400D03*
%TO.P,J4,12,Pin_12*%
%TO.N,unconnected-(J4-Pin_12-Pad12)*%
X172694200Y-78140400D03*
%TO.P,J4,13,Pin_13*%
%TO.N,unconnected-(J4-Pin_13-Pad13)*%
X172694200Y-80680400D03*
%TO.P,J4,14,Pin_14*%
%TO.N,unconnected-(J4-Pin_14-Pad14)*%
X172694200Y-83220400D03*
%TO.P,J4,15,Pin_15*%
%TO.N,unconnected-(J4-Pin_15-Pad15)*%
X172694200Y-85760400D03*
%TO.P,J4,16,Pin_16*%
%TO.N,unconnected-(J4-Pin_16-Pad16)*%
X172694200Y-88300400D03*
%TO.P,J4,17,Pin_17*%
%TO.N,unconnected-(J4-Pin_17-Pad17)*%
X172694200Y-90840400D03*
%TO.P,J4,18,Pin_18*%
%TO.N,VDD*%
X172694200Y-93380400D03*
%TO.P,J4,19,Pin_19*%
%TO.N,B3_3V3*%
X172694200Y-95920400D03*
%TO.P,J4,20,Pin_20*%
%TO.N,B2_3V3*%
X172694200Y-98460400D03*
%TO.P,J4,21,Pin_21*%
%TO.N,B1_3V3*%
X172694200Y-101000400D03*
%TO.P,J4,22,Pin_22*%
%TO.N,B0_3V3*%
X172694200Y-103540400D03*
%TO.P,J4,23,Pin_23*%
%TO.N,GND*%
X172694200Y-106080400D03*
%TO.P,J4,24,Pin_24*%
%TO.N,VCC_3V3*%
X172694200Y-108620400D03*
%TD*%
D16*
%TO.P,J2,1,Pin_1*%
%TO.N,unconnected-(J2-Pin_1-Pad1)*%
X168910000Y-55676800D03*
D17*
%TO.P,J2,2,Pin_2*%
%TO.N,unconnected-(J2-Pin_2-Pad2)*%
X168910000Y-58216800D03*
%TO.P,J2,3,Pin_3*%
%TO.N,CPUCLK*%
X168910000Y-60756800D03*
%TO.P,J2,4,Pin_4*%
%TO.N,GROMCLK*%
X168910000Y-63296800D03*
%TO.P,J2,5,Pin_5*%
%TO.N,COMVID*%
X168910000Y-65836800D03*
%TO.P,J2,6,Pin_6*%
%TO.N,EXTVDP*%
X168910000Y-68376800D03*
%TO.P,J2,7,Pin_7*%
%TO.N,~{RESET}*%
X168910000Y-70916800D03*
%TO.P,J2,8,Pin_8*%
%TO.N,VCC*%
X168910000Y-73456800D03*
%TO.P,J2,9,Pin_9*%
%TO.N,unconnected-(J2-Pin_9-Pad9)*%
X168910000Y-75996800D03*
%TO.P,J2,10,Pin_10*%
%TO.N,unconnected-(J2-Pin_10-Pad10)*%
X168910000Y-78536800D03*
%TO.P,J2,11,Pin_11*%
%TO.N,unconnected-(J2-Pin_11-Pad11)*%
X168910000Y-81076800D03*
%TO.P,J2,12,Pin_12*%
%TO.N,unconnected-(J2-Pin_12-Pad12)*%
X168910000Y-83616800D03*
%TO.P,J2,13,Pin_13*%
%TO.N,unconnected-(J2-Pin_13-Pad13)*%
X168910000Y-86156800D03*
%TO.P,J2,14,Pin_14*%
%TO.N,unconnected-(J2-Pin_14-Pad14)*%
X168910000Y-88696800D03*
%TO.P,J2,15,Pin_15*%
%TO.N,unconnected-(J2-Pin_15-Pad15)*%
X168910000Y-91236800D03*
%TO.P,J2,16,Pin_16*%
%TO.N,unconnected-(J2-Pin_16-Pad16)*%
X168910000Y-93776800D03*
%TO.P,J2,17,Pin_17*%
%TO.N,CD0*%
X168910000Y-96316800D03*
%TO.P,J2,18,Pin_18*%
%TO.N,CD1*%
X168910000Y-98856800D03*
%TO.P,J2,19,Pin_19*%
%TO.N,CD2*%
X168910000Y-101396800D03*
%TO.P,J2,20,Pin_20*%
%TO.N,CD3*%
X168910000Y-103936800D03*
%TD*%
D16*
%TO.P,J1,1,Pin_1*%
%TO.N,unconnected-(J1-Pin_1-Pad1)*%
X153670000Y-55676800D03*
D17*
%TO.P,J1,2,Pin_2*%
%TO.N,unconnected-(J1-Pin_2-Pad2)*%
X153670000Y-58216800D03*
%TO.P,J1,3,Pin_3*%
%TO.N,unconnected-(J1-Pin_3-Pad3)*%
X153670000Y-60756800D03*
%TO.P,J1,4,Pin_4*%
%TO.N,unconnected-(J1-Pin_4-Pad4)*%
X153670000Y-63296800D03*
%TO.P,J1,5,Pin_5*%
%TO.N,unconnected-(J1-Pin_5-Pad5)*%
X153670000Y-65836800D03*
%TO.P,J1,6,Pin_6*%
%TO.N,unconnected-(J1-Pin_6-Pad6)*%
X153670000Y-68376800D03*
%TO.P,J1,7,Pin_7*%
%TO.N,unconnected-(J1-Pin_7-Pad7)*%
X153670000Y-70916800D03*
%TO.P,J1,8,Pin_8*%
%TO.N,unconnected-(J1-Pin_8-Pad8)*%
X153670000Y-73456800D03*
%TO.P,J1,9,Pin_9*%
%TO.N,unconnected-(J1-Pin_9-Pad9)*%
X153670000Y-75996800D03*
%TO.P,J1,10,Pin_10*%
%TO.N,unconnected-(J1-Pin_10-Pad10)*%
X153670000Y-78536800D03*
%TO.P,J1,11,Pin_11*%
%TO.N,unconnected-(J1-Pin_11-Pad11)*%
X153670000Y-81076800D03*
%TO.P,J1,12,Pin_12*%
%TO.N,GND*%
X153670000Y-83616800D03*
%TO.P,J1,13,Pin_13*%
%TO.N,MODE*%
X153670000Y-86156800D03*
%TO.P,J1,14,Pin_14*%
%TO.N,~{CSW}*%
X153670000Y-88696800D03*
%TO.P,J1,15,Pin_15*%
%TO.N,~{CSR}*%
X153670000Y-91236800D03*
%TO.P,J1,16,Pin_16*%
%TO.N,~{INT}*%
X153670000Y-93776800D03*
%TO.P,J1,17,Pin_17*%
%TO.N,CD7*%
X153670000Y-96316800D03*
%TO.P,J1,18,Pin_18*%
%TO.N,CD6*%
X153670000Y-98856800D03*
%TO.P,J1,19,Pin_19*%
%TO.N,CD5*%
X153670000Y-101396800D03*
%TO.P,J1,20,Pin_20*%
%TO.N,CD4*%
X153670000Y-103936800D03*
%TD*%
D20*
%TO.N,VCC_3V3*%
X150851300Y-110970500D03*
%TO.N,GND*%
X159445500Y-89028200D03*
%TO.N,VCC*%
X163363400Y-81971800D03*
%TO.N,B0_3V3*%
X161384900Y-122983500D03*
X167611600Y-116186200D03*
X165550000Y-118109400D03*
X172661900Y-115221200D03*
%TO.N,B3_3V3*%
X165241500Y-115874200D03*
X169807300Y-97492000D03*
%TO.N,CD0_3V3*%
X158728900Y-107558600D03*
%TO.N,CD2_3V3*%
X155374600Y-83328500D03*
%TO.N,CD3_3V3*%
X162173800Y-111154500D03*
X163175800Y-87123000D03*
%TO.N,R1_3V3*%
X169096700Y-128049100D03*
%TO.N,G0_3V3*%
X149444200Y-116099000D03*
X153231500Y-118229700D03*
%TO.N,~{INT}*%
X151317300Y-91836800D03*
%TO.N,CD3*%
X155904100Y-105050400D03*
%TO.N,CD2*%
X160514500Y-117161400D03*
%TO.N,CD1*%
X161763700Y-89657000D03*
X158743900Y-109118400D03*
%TO.N,CD0*%
X160020400Y-116185200D03*
%TD*%
D21*
%TO.N,VCC_3V3*%
X150362700Y-87030400D02*
X149475700Y-87030400D01*
X151493100Y-110328700D02*
X151493100Y-99727000D01*
X151772200Y-67767600D02*
X151772200Y-54036300D01*
X149475700Y-87030400D02*
X148215600Y-85770300D01*
X150851300Y-110970500D02*
X151493100Y-110328700D01*
X151591300Y-92588300D02*
X152042400Y-92137200D01*
X163451400Y-80750100D02*
X163524100Y-80822800D01*
X173061400Y-107445300D02*
X173909600Y-106597100D01*
X172694200Y-108620400D02*
X172694200Y-107445300D01*
X165049200Y-80822800D02*
X163524100Y-80822800D01*
X156897400Y-48911100D02*
X160457600Y-48911100D01*
X172340700Y-92205200D02*
X170102300Y-89966800D01*
X173909600Y-106597100D02*
X173909600Y-92907500D01*
X163451400Y-53395800D02*
X163595900Y-53395800D01*
X161239200Y-51183600D02*
X163451400Y-53395800D01*
X165008400Y-53395800D02*
X163595900Y-53395800D01*
X168478900Y-89966800D02*
X167271300Y-88759200D01*
X163451400Y-53395800D02*
X163451400Y-80750100D01*
X170102300Y-89966800D02*
X168478900Y-89966800D01*
X167271300Y-81519800D02*
X166574300Y-80822800D01*
X161239200Y-49692700D02*
X161239200Y-51183600D01*
X167271300Y-88759200D02*
X167271300Y-81519800D01*
X151493100Y-99727000D02*
X151591300Y-99628800D01*
X149529300Y-69164000D02*
X150375800Y-69164000D01*
X160457600Y-48911100D02*
X161239200Y-49692700D01*
X165049200Y-80822800D02*
X166574300Y-80822800D01*
X173909600Y-92907500D02*
X173207300Y-92205200D01*
X173207300Y-92205200D02*
X172340700Y-92205200D01*
X148215600Y-85770300D02*
X148215600Y-70477700D01*
X151591300Y-99628800D02*
X151591300Y-92588300D01*
X148215600Y-70477700D02*
X149529300Y-69164000D01*
X152042400Y-88710100D02*
X150362700Y-87030400D01*
X152042400Y-92137200D02*
X152042400Y-88710100D01*
X172694200Y-107445300D02*
X173061400Y-107445300D01*
X150375800Y-69164000D02*
X151772200Y-67767600D01*
X151772200Y-54036300D02*
X156897400Y-48911100D01*
%TO.N,GND*%
X170180000Y-127000000D02*
X170180000Y-124460000D01*
X158913500Y-76255800D02*
X159905100Y-77247400D01*
X159390000Y-75779300D02*
X158913500Y-76255800D01*
X159969200Y-50038000D02*
X159969200Y-50600500D01*
X157388400Y-76255800D02*
X158913500Y-76255800D01*
X165049200Y-50038000D02*
X162509200Y-50038000D01*
X159116800Y-50600500D02*
X158554300Y-50038000D01*
X157429200Y-103682800D02*
X159445500Y-101666500D01*
X159390000Y-50600500D02*
X159390000Y-75779300D01*
X159969200Y-50600500D02*
X159390000Y-50600500D01*
X159390000Y-50600500D02*
X159116800Y-50600500D01*
X159905100Y-88568600D02*
X159445500Y-89028200D01*
X157429200Y-50038000D02*
X158554300Y-50038000D01*
X159445500Y-101666500D02*
X159445500Y-89028200D01*
X159905100Y-77247400D02*
X159905100Y-88568600D01*
%TO.N,R2_3V3*%
X149877300Y-93380400D02*
X149877300Y-94555500D01*
X154940000Y-127000000D02*
X153764900Y-127000000D01*
X149512000Y-94555500D02*
X149877300Y-94555500D01*
X153764900Y-126169000D02*
X153250200Y-125654300D01*
X153764900Y-127000000D02*
X153764900Y-126169000D01*
X151905700Y-125654300D02*
X147768600Y-121517200D01*
X147768600Y-121517200D02*
X147768600Y-96298900D01*
X153250200Y-125654300D02*
X151905700Y-125654300D01*
X147768600Y-96298900D02*
X149512000Y-94555500D01*
%TO.N,R3_3V3*%
X151072500Y-92845500D02*
X150242500Y-92015500D01*
X149468100Y-99730400D02*
X150333700Y-99730400D01*
X148218800Y-115922700D02*
X148218800Y-100979700D01*
X154940000Y-123284900D02*
X153718200Y-122063100D01*
X150242500Y-92015500D02*
X149877300Y-92015500D01*
X151103700Y-117365100D02*
X149661200Y-117365100D01*
X149661200Y-117365100D02*
X148218800Y-115922700D01*
X153718200Y-119979600D02*
X151103700Y-117365100D01*
X150333700Y-99730400D02*
X151072500Y-98991600D01*
X153718200Y-122063100D02*
X153718200Y-119979600D01*
X149877300Y-90840400D02*
X149877300Y-92015500D01*
X154940000Y-124460000D02*
X154940000Y-123284900D01*
X148218800Y-100979700D02*
X149468100Y-99730400D01*
X151072500Y-98991600D02*
X151072500Y-92845500D01*
%TO.N,VCC*%
X159923200Y-103201700D02*
X156701600Y-106423300D01*
X156701600Y-106423300D02*
X156006800Y-106423300D01*
X160823500Y-88880100D02*
X159923200Y-89780400D01*
X159923200Y-89780400D02*
X159923200Y-103201700D01*
X156006800Y-107848400D02*
X156006800Y-106423300D01*
X160823500Y-84511700D02*
X160823500Y-88880100D01*
X163363400Y-81971800D02*
X160823500Y-84511700D01*
%TO.N,B0_3V3*%
X161384900Y-125017000D02*
X161384900Y-122983500D01*
X165550000Y-118109400D02*
X165688400Y-118109400D01*
X171514300Y-109679900D02*
X171514300Y-105530100D01*
X172661900Y-115221200D02*
X173769600Y-114113500D01*
X162560000Y-125824900D02*
X162192800Y-125824900D01*
X171514300Y-105530100D02*
X172328900Y-104715500D01*
X173769600Y-114113500D02*
X173769600Y-111935200D01*
X172328900Y-104715500D02*
X172694200Y-104715500D01*
X173769600Y-111935200D02*
X171514300Y-109679900D01*
X165688400Y-118109400D02*
X167611600Y-116186200D01*
X162560000Y-127000000D02*
X162560000Y-125824900D01*
X162192800Y-125824900D02*
X161384900Y-125017000D01*
X172694200Y-103540400D02*
X172694200Y-104715500D01*
%TO.N,B1_3V3*%
X171057500Y-111437400D02*
X171057500Y-103446900D01*
X171208700Y-111588600D02*
X171057500Y-111437400D01*
X172694200Y-101000400D02*
X172694200Y-102175500D01*
X171057500Y-103446900D02*
X172328900Y-102175500D01*
X163735100Y-124460000D02*
X163735100Y-123859100D01*
X172328900Y-102175500D02*
X172694200Y-102175500D01*
X166273400Y-121320800D02*
X166273400Y-119857900D01*
X171208700Y-114922600D02*
X171208700Y-111588600D01*
X162560000Y-124460000D02*
X163735100Y-124460000D01*
X166273400Y-119857900D02*
X171208700Y-114922600D01*
X163735100Y-123859100D02*
X166273400Y-121320800D01*
%TO.N,B3_3V3*%
X163524100Y-98129500D02*
X164215500Y-97438100D01*
X163524100Y-108839800D02*
X163524100Y-98129500D01*
X165875800Y-97438100D02*
X165929700Y-97492000D01*
X166128600Y-114987100D02*
X166128600Y-111444300D01*
X165929700Y-97492000D02*
X169807300Y-97492000D01*
X164215500Y-97438100D02*
X165875800Y-97438100D01*
X166128600Y-111444300D02*
X163524100Y-108839800D01*
X165241500Y-115874200D02*
X166128600Y-114987100D01*
%TO.N,CD0_3V3*%
X163370600Y-85902800D02*
X161273600Y-87999800D01*
X163524100Y-85902800D02*
X163370600Y-85902800D01*
X165049200Y-85902800D02*
X163524100Y-85902800D01*
X161273600Y-89121400D02*
X160373400Y-90021600D01*
X161273600Y-87999800D02*
X161273600Y-89121400D01*
X160373400Y-105914100D02*
X158728900Y-107558600D01*
X160373400Y-90021600D02*
X160373400Y-105914100D01*
%TO.N,CD1_3V3*%
X161273600Y-107614200D02*
X157443700Y-111444100D01*
X165049200Y-88442800D02*
X163524100Y-88442800D01*
X157443700Y-111444100D02*
X157383400Y-111444100D01*
X157383400Y-112969200D02*
X157383400Y-111444100D01*
X163524100Y-88922100D02*
X161273600Y-91172600D01*
X161273600Y-91172600D02*
X161273600Y-107614200D01*
X163524100Y-88442800D02*
X163524100Y-88922100D01*
%TO.N,CD2_3V3*%
X161723700Y-92783200D02*
X161723700Y-109643800D01*
X159923400Y-112969200D02*
X159923400Y-111444100D01*
X153128700Y-84792000D02*
X154174000Y-84792000D01*
X150244500Y-74235500D02*
X152158000Y-76149000D01*
X163524100Y-90982800D02*
X161723700Y-92783200D01*
X165049200Y-90982800D02*
X163524100Y-90982800D01*
X149877300Y-73060400D02*
X149877300Y-74235500D01*
X149877300Y-74235500D02*
X150244500Y-74235500D01*
X152158000Y-83821300D02*
X153128700Y-84792000D01*
X152158000Y-76149000D02*
X152158000Y-83821300D01*
X154174000Y-84792000D02*
X155374600Y-83591400D01*
X161723700Y-109643800D02*
X159923400Y-111444100D01*
X155374600Y-83591400D02*
X155374600Y-83328500D01*
%TO.N,CD3_3V3*%
X165049200Y-93522800D02*
X163524100Y-93522800D01*
X165763300Y-87123000D02*
X163175800Y-87123000D01*
X165066700Y-93522800D02*
X166574300Y-93522800D01*
X162173800Y-94873100D02*
X162173800Y-111154500D01*
X165066700Y-93522800D02*
X165049200Y-93522800D01*
X163524100Y-93522800D02*
X162173800Y-94873100D01*
X166574300Y-87934000D02*
X165763300Y-87123000D01*
X166574300Y-93522800D02*
X166574300Y-87934000D01*
%TO.N,CD4_3V3*%
X165003400Y-112969200D02*
X165003400Y-111444100D01*
X163524100Y-96062800D02*
X163074000Y-96512900D01*
X165049200Y-96062800D02*
X163524100Y-96062800D01*
X163074000Y-109514700D02*
X165003400Y-111444100D01*
X163074000Y-96512900D02*
X163074000Y-109514700D01*
%TO.N,CD5_3V3*%
X167100200Y-111444100D02*
X164741600Y-109085500D01*
X164741600Y-109085500D02*
X164741600Y-106557400D01*
X167543400Y-111444100D02*
X167100200Y-111444100D01*
X164741600Y-106557400D02*
X166574300Y-104724700D01*
X166574300Y-104724700D02*
X166574300Y-98602800D01*
X165049200Y-98602800D02*
X166574300Y-98602800D01*
X167543400Y-112969200D02*
X167543400Y-111444100D01*
%TO.N,HS_3V3*%
X168007300Y-125824900D02*
X168921300Y-124910900D01*
X168921300Y-124910900D02*
X168921300Y-119753200D01*
X172694200Y-50200400D02*
X172694200Y-51375500D01*
X167640000Y-127000000D02*
X167640000Y-125824900D01*
X168921300Y-119753200D02*
X169623000Y-119051500D01*
X173061500Y-51375500D02*
X172694200Y-51375500D01*
X174359800Y-114548800D02*
X174359800Y-52673800D01*
X169857100Y-119051500D02*
X174359800Y-114548800D01*
X169623000Y-119051500D02*
X169857100Y-119051500D01*
X167640000Y-125824900D02*
X168007300Y-125824900D01*
X174359800Y-52673800D02*
X173061500Y-51375500D01*
%TO.N,R0_3V3*%
X172694200Y-75600400D02*
X172694200Y-74425300D01*
X171492500Y-49188400D02*
X171492500Y-73588900D01*
X174810000Y-124038000D02*
X174810000Y-50129500D01*
X170072000Y-128776000D02*
X174810000Y-124038000D01*
X171492500Y-73588900D02*
X172328900Y-74425300D01*
X172328900Y-74425300D02*
X172694200Y-74425300D01*
X171655700Y-49025200D02*
X171492500Y-49188400D01*
X174810000Y-50129500D02*
X173705700Y-49025200D01*
X152400000Y-127000000D02*
X154176000Y-128776000D01*
X154176000Y-128776000D02*
X170072000Y-128776000D01*
X173705700Y-49025200D02*
X171655700Y-49025200D01*
%TO.N,R1_3V3*%
X168911200Y-128234600D02*
X169096700Y-128049100D01*
X156210000Y-126569100D02*
X156210000Y-127472600D01*
X153575100Y-124460000D02*
X153575100Y-124761100D01*
X155465700Y-125824800D02*
X156210000Y-126569100D01*
X152400000Y-124460000D02*
X153575100Y-124460000D01*
X156972000Y-128234600D02*
X168911200Y-128234600D01*
X156210000Y-127472600D02*
X156972000Y-128234600D01*
X154638800Y-125824800D02*
X155465700Y-125824800D01*
X153575100Y-124761100D02*
X154638800Y-125824800D01*
%TO.N,G0_3V3*%
X149444200Y-116099000D02*
X151100800Y-116099000D01*
X151100800Y-116099000D02*
X153231500Y-118229700D01*
%TO.N,G1_3V3*%
X151178200Y-112336000D02*
X151178200Y-113840700D01*
X156084500Y-121889400D02*
X157480000Y-123284900D01*
X151178200Y-113840700D02*
X156084500Y-118747000D01*
X149877300Y-101000400D02*
X149877300Y-102175500D01*
X149512000Y-102175500D02*
X148669000Y-103018500D01*
X148669000Y-103018500D02*
X148669000Y-109826800D01*
X149877300Y-102175500D02*
X149512000Y-102175500D01*
X157480000Y-124460000D02*
X157480000Y-123284900D01*
X148669000Y-109826800D02*
X151178200Y-112336000D01*
X156084500Y-118747000D02*
X156084500Y-121889400D01*
%TO.N,MODE*%
X158170300Y-84632800D02*
X158969300Y-83833800D01*
X158969300Y-79837300D02*
X158807900Y-79675900D01*
X155410300Y-63452300D02*
X156483500Y-62379100D01*
X156369100Y-84632800D02*
X158170300Y-84632800D01*
X158807900Y-79675900D02*
X158161900Y-79675900D01*
X154845100Y-86156800D02*
X156369100Y-84632800D01*
X156483500Y-62379100D02*
X158260200Y-62379100D01*
X158260200Y-62379100D02*
X158913500Y-63032400D01*
X157388400Y-66095800D02*
X158913500Y-66095800D01*
X155410300Y-76924300D02*
X155410300Y-63452300D01*
X158913500Y-63032400D02*
X158913500Y-66095800D01*
X153670000Y-86156800D02*
X154845100Y-86156800D01*
X158969300Y-83833800D02*
X158969300Y-79837300D01*
X158161900Y-79675900D02*
X155410300Y-76924300D01*
%TO.N,~{CSW}*%
X154925800Y-52241000D02*
X158740200Y-52241000D01*
X149457200Y-71790400D02*
X150331400Y-71790400D01*
X149476300Y-79410400D02*
X148667700Y-78601800D01*
X153301300Y-87521700D02*
X151052500Y-85272900D01*
X148667700Y-72579900D02*
X149457200Y-71790400D01*
X151052500Y-80191500D02*
X150271400Y-79410400D01*
X158913500Y-52414300D02*
X158913500Y-61015800D01*
X153670000Y-88696800D02*
X153670000Y-87521700D01*
X151052500Y-85272900D02*
X151052500Y-80191500D01*
X158740200Y-52241000D02*
X158913500Y-52414300D01*
X152486000Y-54680800D02*
X154925800Y-52241000D01*
X153670000Y-87521700D02*
X153301300Y-87521700D01*
X148667700Y-78601800D02*
X148667700Y-72579900D01*
X150271400Y-79410400D02*
X149476300Y-79410400D01*
X157388400Y-61015800D02*
X158913500Y-61015800D01*
X150331400Y-71790400D02*
X152486000Y-69635800D01*
X152486000Y-69635800D02*
X152486000Y-54680800D01*
%TO.N,~{CSR}*%
X152303400Y-112969200D02*
X152303400Y-111444100D01*
X157588600Y-78449900D02*
X158275300Y-78449900D01*
X159453700Y-79628300D02*
X159453700Y-85908000D01*
X157388400Y-63555800D02*
X155860500Y-65083700D01*
X152303400Y-111444100D02*
X151985100Y-111125800D01*
X152435100Y-99646800D02*
X152435100Y-93281500D01*
X155860500Y-76721800D02*
X157588600Y-78449900D01*
X154050000Y-90061700D02*
X153670000Y-90061700D01*
X155034800Y-88836200D02*
X155034800Y-89076900D01*
X151985100Y-111125800D02*
X151985100Y-100096800D01*
X152435100Y-93281500D02*
X153304700Y-92411900D01*
X155034800Y-89076900D02*
X154050000Y-90061700D01*
X158188900Y-87172800D02*
X156698200Y-87172800D01*
X151985100Y-100096800D02*
X152435100Y-99646800D01*
X153670000Y-91236800D02*
X153670000Y-92411900D01*
X159453700Y-85908000D02*
X158188900Y-87172800D01*
X158275300Y-78449900D02*
X159453700Y-79628300D01*
X153304700Y-92411900D02*
X153670000Y-92411900D01*
X155860500Y-65083700D02*
X155860500Y-76721800D01*
X153670000Y-91236800D02*
X153670000Y-90061700D01*
X156698200Y-87172800D02*
X155034800Y-88836200D01*
%TO.N,~{INT}*%
X151317300Y-90582700D02*
X150305000Y-89570400D01*
X147743000Y-87831200D02*
X147743000Y-68393200D01*
X150305000Y-89570400D02*
X149482200Y-89570400D01*
X150340900Y-66710400D02*
X151052500Y-65998800D01*
X149425800Y-66710400D02*
X150340900Y-66710400D01*
X151052500Y-65998800D02*
X151052500Y-54106200D01*
X165087700Y-48443300D02*
X166533500Y-49889100D01*
X151052500Y-54106200D02*
X156715400Y-48443300D01*
X147743000Y-68393200D02*
X149425800Y-66710400D01*
X165008400Y-61015800D02*
X166533500Y-61015800D01*
X166533500Y-49889100D02*
X166533500Y-61015800D01*
X156715400Y-48443300D02*
X165087700Y-48443300D01*
X151317300Y-91836800D02*
X151317300Y-90582700D01*
X149482200Y-89570400D02*
X147743000Y-87831200D01*
%TO.N,CD5*%
X154037200Y-102571900D02*
X153670000Y-102571900D01*
X156113400Y-113851200D02*
X156113400Y-111171000D01*
X154554500Y-106001100D02*
X154846600Y-105709000D01*
X154846600Y-105709000D02*
X154846600Y-103381300D01*
X160313700Y-118051500D02*
X156113400Y-113851200D01*
X153670000Y-101396800D02*
X153670000Y-102571900D01*
X163990800Y-118051500D02*
X160313700Y-118051500D01*
X154846600Y-103381300D02*
X154037200Y-102571900D01*
X165003400Y-119064100D02*
X163990800Y-118051500D01*
X154554500Y-109612100D02*
X154554500Y-106001100D01*
X165003400Y-120589200D02*
X165003400Y-119064100D01*
X156113400Y-111171000D02*
X154554500Y-109612100D01*
%TO.N,CD4*%
X162463400Y-120589200D02*
X162463400Y-119064100D01*
X162463400Y-119064100D02*
X158919200Y-119064100D01*
X157429200Y-93522800D02*
X155904100Y-93522800D01*
X158919200Y-119064100D02*
X153670000Y-113814900D01*
X152435300Y-102702100D02*
X153670000Y-103936800D01*
X152435300Y-100892200D02*
X152435300Y-102702100D01*
X154924500Y-94502400D02*
X154924500Y-99328000D01*
X154924500Y-99328000D02*
X154125700Y-100126800D01*
X153670000Y-113814900D02*
X153670000Y-103936800D01*
X153200700Y-100126800D02*
X152435300Y-100892200D01*
X154125700Y-100126800D02*
X153200700Y-100126800D01*
X155904100Y-93522800D02*
X154924500Y-94502400D01*
%TO.N,CD3*%
X158157900Y-94792800D02*
X156705200Y-94792800D01*
X157429200Y-90982800D02*
X158954300Y-90982800D01*
X158954300Y-90982800D02*
X158954300Y-93996400D01*
X156705200Y-94792800D02*
X155904100Y-95593900D01*
X155904100Y-95593900D02*
X155904100Y-105050400D01*
X158954300Y-93996400D02*
X158157900Y-94792800D01*
%TO.N,CD2*%
X168910000Y-102571900D02*
X168556100Y-102571900D01*
X168556100Y-102571900D02*
X167684400Y-103443600D01*
X168679500Y-113827200D02*
X165345300Y-117161400D01*
X165345300Y-117161400D02*
X160514500Y-117161400D01*
X167684400Y-110460100D02*
X168679500Y-111455200D01*
X167684400Y-103443600D02*
X167684400Y-110460100D01*
X168910000Y-101396800D02*
X168910000Y-102571900D01*
X168679500Y-111455200D02*
X168679500Y-113827200D01*
%TO.N,CD1*%
X161763700Y-89657000D02*
X160823500Y-90597200D01*
X160823500Y-90597200D02*
X160823500Y-107038800D01*
X160823500Y-107038800D02*
X158743900Y-109118400D01*
%TO.N,CD0*%
X163965400Y-94924800D02*
X162623900Y-96266300D01*
X162623900Y-96266300D02*
X162623900Y-110273600D01*
X163633800Y-111283500D02*
X163633800Y-113797600D01*
X161246200Y-116185200D02*
X160020400Y-116185200D01*
X162623900Y-110273600D02*
X163633800Y-111283500D01*
X168910000Y-96316800D02*
X167734900Y-96316800D01*
X167734900Y-96316800D02*
X166342900Y-94924800D01*
X163633800Y-113797600D02*
X161246200Y-116185200D01*
X166342900Y-94924800D02*
X163965400Y-94924800D01*
%TO.N,VDD*%
X169329100Y-100126800D02*
X168504900Y-100126800D01*
X172694200Y-94555500D02*
X172326900Y-94555500D01*
X157388400Y-53395800D02*
X155863300Y-53395800D01*
X167234200Y-105355900D02*
X166166800Y-106423300D01*
X154960200Y-54298900D02*
X154960200Y-79878900D01*
X171519100Y-95363300D02*
X171519100Y-97936800D01*
X172694200Y-93380400D02*
X172694200Y-94555500D01*
X166166800Y-107848400D02*
X166166800Y-106423300D01*
X171519100Y-97936800D02*
X169329100Y-100126800D01*
X172326900Y-94555500D02*
X171519100Y-95363300D01*
X154960200Y-79878900D02*
X155904100Y-80822800D01*
X157429200Y-80822800D02*
X155904100Y-80822800D01*
X167234200Y-101397500D02*
X167234200Y-105355900D01*
X168504900Y-100126800D02*
X167234200Y-101397500D01*
X155863300Y-53395800D02*
X154960200Y-54298900D01*
%TD*%
M02*
