%TF.GenerationSoftware,KiCad,Pcbnew,7.0.1*%
%TF.CreationDate,2023-04-24T00:42:08-07:00*%
%TF.ProjectId,TN9K_F18A,544e394b-5f46-4313-9841-2e6b69636164,rev?*%
%TF.SameCoordinates,Original*%
%TF.FileFunction,Copper,L1,Top*%
%TF.FilePolarity,Positive*%
%FSLAX46Y46*%
G04 Gerber Fmt 4.6, Leading zero omitted, Abs format (unit mm)*
G04 Created by KiCad (PCBNEW 7.0.1) date 2023-04-24 00:42:08*
%MOMM*%
%LPD*%
G01*
G04 APERTURE LIST*
%TA.AperFunction,ComponentPad*%
%ADD10R,2.400000X1.600000*%
%TD*%
%TA.AperFunction,ComponentPad*%
%ADD11O,2.400000X1.600000*%
%TD*%
%TA.AperFunction,ComponentPad*%
%ADD12R,1.700000X1.700000*%
%TD*%
%TA.AperFunction,ComponentPad*%
%ADD13O,1.700000X1.700000*%
%TD*%
%TA.AperFunction,ComponentPad*%
%ADD14R,1.600000X1.600000*%
%TD*%
%TA.AperFunction,ComponentPad*%
%ADD15O,1.600000X1.600000*%
%TD*%
%TA.AperFunction,ComponentPad*%
%ADD16R,1.600000X2.400000*%
%TD*%
%TA.AperFunction,ComponentPad*%
%ADD17O,1.600000X2.400000*%
%TD*%
%TA.AperFunction,ViaPad*%
%ADD18C,1.000000*%
%TD*%
%TA.AperFunction,ViaPad*%
%ADD19C,0.800000*%
%TD*%
%TA.AperFunction,Conductor*%
%ADD20C,0.500000*%
%TD*%
%TA.AperFunction,Conductor*%
%ADD21C,0.250000*%
%TD*%
G04 APERTURE END LIST*
D10*
%TO.P,U3,1,DIR*%
%TO.N,VCC*%
X157480000Y-56515000D03*
D11*
%TO.P,U3,2,A0*%
%TO.N,~{RESET}*%
X157480000Y-59055000D03*
%TO.P,U3,3,A1*%
%TO.N,~{INT_3V3}*%
X157480000Y-61595000D03*
%TO.P,U3,4,A2*%
%TO.N,~{CSW}*%
X157480000Y-64135000D03*
%TO.P,U3,5,A3*%
%TO.N,~{CSR}*%
X157480000Y-66675000D03*
%TO.P,U3,6,A4*%
%TO.N,MODE*%
X157480000Y-69215000D03*
%TO.P,U3,7,A5*%
%TO.N,CPUCLK_3V3*%
X157480000Y-71755000D03*
%TO.P,U3,8,A6*%
%TO.N,GROMCLK_3V3*%
X157480000Y-74295000D03*
%TO.P,U3,9,A7*%
%TO.N,unconnected-(U3-A7-Pad9)*%
X157480000Y-76835000D03*
%TO.P,U3,10,GND*%
%TO.N,GND*%
X157480000Y-79375000D03*
%TO.P,U3,11,B7*%
%TO.N,unconnected-(U3-B7-Pad11)*%
X165100000Y-79375000D03*
%TO.P,U3,12,B6*%
%TO.N,GROMCLK*%
X165100000Y-76835000D03*
%TO.P,U3,13,B5*%
%TO.N,CPUCLK*%
X165100000Y-74295000D03*
%TO.P,U3,14,B4*%
%TO.N,MODE_3V3*%
X165100000Y-71755000D03*
%TO.P,U3,15,B3*%
%TO.N,~{CSR_3V3}*%
X165100000Y-69215000D03*
%TO.P,U3,16,B2*%
%TO.N,~{CSW_3V3}*%
X165100000Y-66675000D03*
%TO.P,U3,17,B1*%
%TO.N,~{INT}*%
X165100000Y-64135000D03*
%TO.P,U3,18,B0*%
%TO.N,~{RESET_3V3}*%
X165100000Y-61595000D03*
%TO.P,U3,19,~{0E}*%
%TO.N,GND*%
X165100000Y-59055000D03*
%TO.P,U3,20,VCC*%
%TO.N,VCC_3V3*%
X165100000Y-56515000D03*
%TD*%
D12*
%TO.P,J3,1,Pin_1*%
%TO.N,MODE_3V3*%
X149877300Y-50200400D03*
D13*
%TO.P,J3,2,Pin_2*%
%TO.N,~{CSW_3V3}*%
X149877300Y-52740400D03*
%TO.P,J3,3,Pin_3*%
%TO.N,~{CSR_3V3}*%
X149877300Y-55280400D03*
%TO.P,J3,4,Pin_4*%
%TO.N,~{INT_3V3}*%
X149877300Y-57820400D03*
%TO.P,J3,5,Pin_5*%
%TO.N,CPUCLK_3V3*%
X149877300Y-60360400D03*
%TO.P,J3,6,Pin_6*%
%TO.N,GROMCLK_3V3*%
X149877300Y-62900400D03*
%TO.P,J3,7,Pin_7*%
%TO.N,~{RESET_3V3}*%
X149877300Y-65440400D03*
%TO.P,J3,8,Pin_8*%
%TO.N,CD0_3V3*%
X149877300Y-67980400D03*
%TO.P,J3,9,Pin_9*%
%TO.N,CD1_3V3*%
X149877300Y-70520400D03*
%TO.P,J3,10,Pin_10*%
%TO.N,CD2_3V3*%
X149877300Y-73060400D03*
%TO.P,J3,11,Pin_11*%
%TO.N,CD3_3V3*%
X149877300Y-75600400D03*
%TO.P,J3,12,Pin_12*%
%TO.N,CD4_3V3*%
X149877300Y-78140400D03*
%TO.P,J3,13,Pin_13*%
%TO.N,CD5_3V3*%
X149877300Y-80680400D03*
%TO.P,J3,14,Pin_14*%
%TO.N,CD6_3V3*%
X149877300Y-83220400D03*
%TO.P,J3,15,Pin_15*%
%TO.N,CD7_3V3*%
X149877300Y-85760400D03*
%TO.P,J3,16,Pin_16*%
%TO.N,HS_3V3*%
X149877300Y-88300400D03*
%TO.P,J3,17,Pin_17*%
%TO.N,R3_3V3*%
X149877300Y-90840400D03*
%TO.P,J3,18,Pin_18*%
%TO.N,R2_3V3*%
X149877300Y-93380400D03*
%TO.P,J3,19,Pin_19*%
%TO.N,G3_3V3*%
X149877300Y-95920400D03*
%TO.P,J3,20,Pin_20*%
%TO.N,G2_3V3*%
X149877300Y-98460400D03*
%TO.P,J3,21,Pin_21*%
%TO.N,G1_3V3*%
X149877300Y-101000400D03*
%TO.P,J3,22,Pin_22*%
%TO.N,G0_3V3*%
X149877300Y-103540400D03*
%TO.P,J3,23,Pin_23*%
%TO.N,unconnected-(J3-Pin_23-Pad23)*%
X149877300Y-106080400D03*
%TO.P,J3,24,Pin_24*%
%TO.N,unconnected-(J3-Pin_24-Pad24)*%
X149877300Y-108620400D03*
%TD*%
D14*
%TO.P,J5,1,Pin_1*%
%TO.N,USR1_1V8*%
X165100000Y-43180000D03*
D15*
%TO.P,J5,2,Pin_2*%
%TO.N,USR2_1V8*%
X162560000Y-43180000D03*
%TO.P,J5,3,Pin_3*%
%TO.N,USR3_1V8*%
X160020000Y-43180000D03*
%TO.P,J5,4,Pin_4*%
%TO.N,USR4_1V8*%
X157480000Y-43180000D03*
%TO.P,J5,5,Pin_5*%
%TO.N,GND*%
X157480000Y-50800000D03*
%TO.P,J5,6,Pin_6*%
X160020000Y-50800000D03*
%TO.P,J5,7,Pin_7*%
X162560000Y-50800000D03*
%TO.P,J5,8,Pin_8*%
X165100000Y-50800000D03*
%TD*%
D12*
%TO.P,J6,1,Pin_1*%
%TO.N,R0_3V3*%
X152400000Y-127000000D03*
D13*
%TO.P,J6,2,Pin_2*%
%TO.N,R1_3V3*%
X152400000Y-124460000D03*
%TO.P,J6,3,Pin_3*%
%TO.N,R2_3V3*%
X154940000Y-127000000D03*
%TO.P,J6,4,Pin_4*%
%TO.N,R3_3V3*%
X154940000Y-124460000D03*
%TO.P,J6,5,Pin_5*%
%TO.N,G0_3V3*%
X157480000Y-127000000D03*
%TO.P,J6,6,Pin_6*%
%TO.N,G1_3V3*%
X157480000Y-124460000D03*
%TO.P,J6,7,Pin_7*%
%TO.N,G2_3V3*%
X160020000Y-127000000D03*
%TO.P,J6,8,Pin_8*%
%TO.N,G3_3V3*%
X160020000Y-124460000D03*
%TO.P,J6,9,Pin_9*%
%TO.N,B0_3V3*%
X162560000Y-127000000D03*
%TO.P,J6,10,Pin_10*%
%TO.N,B1_3V3*%
X162560000Y-124460000D03*
%TO.P,J6,11,Pin_11*%
%TO.N,B2_3V3*%
X165100000Y-127000000D03*
%TO.P,J6,12,Pin_12*%
%TO.N,B3_3V3*%
X165100000Y-124460000D03*
%TO.P,J6,13,Pin_13*%
%TO.N,VS_3V3*%
X167640000Y-127000000D03*
%TO.P,J6,14,Pin_14*%
%TO.N,HS_3V3*%
X167640000Y-124460000D03*
%TO.P,J6,15,Pin_15*%
%TO.N,GND*%
X170180000Y-127000000D03*
%TO.P,J6,16,Pin_16*%
%TO.N,VCC*%
X170180000Y-124460000D03*
%TD*%
D12*
%TO.P,J4,1,Pin_1*%
%TO.N,VS_3V3*%
X172694200Y-50200400D03*
D13*
%TO.P,J4,2,Pin_2*%
%TO.N,USR1_1V8*%
X172694200Y-52740400D03*
%TO.P,J4,3,Pin_3*%
%TO.N,USR2_1V8*%
X172694200Y-55280400D03*
%TO.P,J4,4,Pin_4*%
%TO.N,USR3_1V8*%
X172694200Y-57820400D03*
%TO.P,J4,5,Pin_5*%
%TO.N,USR4_1V8*%
X172694200Y-60360400D03*
%TO.P,J4,6,Pin_6*%
%TO.N,unconnected-(J4-Pin_6-Pad6)*%
X172694200Y-62900400D03*
%TO.P,J4,7,Pin_7*%
%TO.N,unconnected-(J4-Pin_7-Pad7)*%
X172694200Y-65440400D03*
%TO.P,J4,8,Pin_8*%
%TO.N,unconnected-(J4-Pin_8-Pad8)*%
X172694200Y-67980400D03*
%TO.P,J4,9,Pin_9*%
%TO.N,unconnected-(J4-Pin_9-Pad9)*%
X172694200Y-70520400D03*
%TO.P,J4,10,Pin_10*%
%TO.N,R1_3V3*%
X172694200Y-73060400D03*
%TO.P,J4,11,Pin_11*%
%TO.N,R0_3V3*%
X172694200Y-75600400D03*
%TO.P,J4,12,Pin_12*%
%TO.N,unconnected-(J4-Pin_12-Pad12)*%
X172694200Y-78140400D03*
%TO.P,J4,13,Pin_13*%
%TO.N,unconnected-(J4-Pin_13-Pad13)*%
X172694200Y-80680400D03*
%TO.P,J4,14,Pin_14*%
%TO.N,unconnected-(J4-Pin_14-Pad14)*%
X172694200Y-83220400D03*
%TO.P,J4,15,Pin_15*%
%TO.N,unconnected-(J4-Pin_15-Pad15)*%
X172694200Y-85760400D03*
%TO.P,J4,16,Pin_16*%
%TO.N,unconnected-(J4-Pin_16-Pad16)*%
X172694200Y-88300400D03*
%TO.P,J4,17,Pin_17*%
%TO.N,unconnected-(J4-Pin_17-Pad17)*%
X172694200Y-90840400D03*
%TO.P,J4,18,Pin_18*%
%TO.N,VCC*%
X172694200Y-93380400D03*
%TO.P,J4,19,Pin_19*%
%TO.N,B3_3V3*%
X172694200Y-95920400D03*
%TO.P,J4,20,Pin_20*%
%TO.N,B2_3V3*%
X172694200Y-98460400D03*
%TO.P,J4,21,Pin_21*%
%TO.N,B1_3V3*%
X172694200Y-101000400D03*
%TO.P,J4,22,Pin_22*%
%TO.N,B0_3V3*%
X172694200Y-103540400D03*
%TO.P,J4,23,Pin_23*%
%TO.N,GND*%
X172694200Y-106080400D03*
%TO.P,J4,24,Pin_24*%
%TO.N,VCC_3V3*%
X172694200Y-108620400D03*
%TD*%
D16*
%TO.P,U2,1,DIR*%
%TO.N,VCC*%
X149860000Y-120015000D03*
D17*
%TO.P,U2,2,A0*%
%TO.N,CD0*%
X152400000Y-120015000D03*
%TO.P,U2,3,A1*%
%TO.N,CD1*%
X154940000Y-120015000D03*
%TO.P,U2,4,A2*%
%TO.N,CD2*%
X157480000Y-120015000D03*
%TO.P,U2,5,A3*%
%TO.N,CD3*%
X160020000Y-120015000D03*
%TO.P,U2,6,A4*%
%TO.N,CD4*%
X162560000Y-120015000D03*
%TO.P,U2,7,A5*%
%TO.N,CD5*%
X165100000Y-120015000D03*
%TO.P,U2,8,A6*%
%TO.N,CD6*%
X167640000Y-120015000D03*
%TO.P,U2,9,A7*%
%TO.N,CD7*%
X170180000Y-120015000D03*
%TO.P,U2,10,GND*%
%TO.N,GND*%
X172720000Y-120015000D03*
%TO.P,U2,11,B7*%
%TO.N,CD7_3V3*%
X172720000Y-112395000D03*
%TO.P,U2,12,B6*%
%TO.N,CD6_3V3*%
X170180000Y-112395000D03*
%TO.P,U2,13,B5*%
%TO.N,CD5_3V3*%
X167640000Y-112395000D03*
%TO.P,U2,14,B4*%
%TO.N,CD4_3V3*%
X165100000Y-112395000D03*
%TO.P,U2,15,B3*%
%TO.N,CD3_3V3*%
X162560000Y-112395000D03*
%TO.P,U2,16,B2*%
%TO.N,CD2_3V3*%
X160020000Y-112395000D03*
%TO.P,U2,17,B1*%
%TO.N,CD1_3V3*%
X157480000Y-112395000D03*
%TO.P,U2,18,B0*%
%TO.N,CD0_3V3*%
X154940000Y-112395000D03*
%TO.P,U2,19,~{0E}*%
%TO.N,~{CSW}*%
X152400000Y-112395000D03*
%TO.P,U2,20,VCC*%
%TO.N,VCC_3V3*%
X149860000Y-112395000D03*
%TD*%
D10*
%TO.P,U1,1,DIR*%
%TO.N,GND*%
X157607000Y-84455000D03*
D11*
%TO.P,U1,2,A0*%
%TO.N,CD0*%
X157607000Y-86995000D03*
%TO.P,U1,3,A1*%
%TO.N,CD1*%
X157607000Y-89535000D03*
%TO.P,U1,4,A2*%
%TO.N,CD2*%
X157607000Y-92075000D03*
%TO.P,U1,5,A3*%
%TO.N,CD3*%
X157607000Y-94615000D03*
%TO.P,U1,6,A4*%
%TO.N,CD4*%
X157607000Y-97155000D03*
%TO.P,U1,7,A5*%
%TO.N,CD5*%
X157607000Y-99695000D03*
%TO.P,U1,8,A6*%
%TO.N,CD6*%
X157607000Y-102235000D03*
%TO.P,U1,9,A7*%
%TO.N,CD7*%
X157607000Y-104775000D03*
%TO.P,U1,10,GND*%
%TO.N,GND*%
X157607000Y-107315000D03*
%TO.P,U1,11,B7*%
%TO.N,CD7_3V3*%
X165227000Y-107315000D03*
%TO.P,U1,12,B6*%
%TO.N,CD6_3V3*%
X165227000Y-104775000D03*
%TO.P,U1,13,B5*%
%TO.N,CD5_3V3*%
X165227000Y-102235000D03*
%TO.P,U1,14,B4*%
%TO.N,CD4_3V3*%
X165227000Y-99695000D03*
%TO.P,U1,15,B3*%
%TO.N,CD3_3V3*%
X165227000Y-97155000D03*
%TO.P,U1,16,B2*%
%TO.N,CD2_3V3*%
X165227000Y-94615000D03*
%TO.P,U1,17,B1*%
%TO.N,CD1_3V3*%
X165227000Y-92075000D03*
%TO.P,U1,18,B0*%
%TO.N,CD0_3V3*%
X165227000Y-89535000D03*
%TO.P,U1,19,~{0E}*%
%TO.N,~{CSR}*%
X165227000Y-86995000D03*
%TO.P,U1,20,VCC*%
%TO.N,VCC_3V3*%
X165227000Y-84455000D03*
%TD*%
D12*
%TO.P,J2,1,Pin_1*%
%TO.N,unconnected-(J2-Pin_1-Pad1)*%
X168910000Y-55676800D03*
D13*
%TO.P,J2,2,Pin_2*%
%TO.N,unconnected-(J2-Pin_2-Pad2)*%
X168910000Y-58216800D03*
%TO.P,J2,3,Pin_3*%
%TO.N,CPUCLK*%
X168910000Y-60756800D03*
%TO.P,J2,4,Pin_4*%
%TO.N,GROMCLK*%
X168910000Y-63296800D03*
%TO.P,J2,5,Pin_5*%
%TO.N,COMVID*%
X168910000Y-65836800D03*
%TO.P,J2,6,Pin_6*%
%TO.N,EXTVDP*%
X168910000Y-68376800D03*
%TO.P,J2,7,Pin_7*%
%TO.N,~{RESET}*%
X168910000Y-70916800D03*
%TO.P,J2,8,Pin_8*%
%TO.N,VCC*%
X168910000Y-73456800D03*
%TO.P,J2,9,Pin_9*%
%TO.N,unconnected-(J2-Pin_9-Pad9)*%
X168910000Y-75996800D03*
%TO.P,J2,10,Pin_10*%
%TO.N,unconnected-(J2-Pin_10-Pad10)*%
X168910000Y-78536800D03*
%TO.P,J2,11,Pin_11*%
%TO.N,unconnected-(J2-Pin_11-Pad11)*%
X168910000Y-81076800D03*
%TO.P,J2,12,Pin_12*%
%TO.N,unconnected-(J2-Pin_12-Pad12)*%
X168910000Y-83616800D03*
%TO.P,J2,13,Pin_13*%
%TO.N,unconnected-(J2-Pin_13-Pad13)*%
X168910000Y-86156800D03*
%TO.P,J2,14,Pin_14*%
%TO.N,unconnected-(J2-Pin_14-Pad14)*%
X168910000Y-88696800D03*
%TO.P,J2,15,Pin_15*%
%TO.N,unconnected-(J2-Pin_15-Pad15)*%
X168910000Y-91236800D03*
%TO.P,J2,16,Pin_16*%
%TO.N,unconnected-(J2-Pin_16-Pad16)*%
X168910000Y-93776800D03*
%TO.P,J2,17,Pin_17*%
%TO.N,CD0*%
X168910000Y-96316800D03*
%TO.P,J2,18,Pin_18*%
%TO.N,CD1*%
X168910000Y-98856800D03*
%TO.P,J2,19,Pin_19*%
%TO.N,CD2*%
X168910000Y-101396800D03*
%TO.P,J2,20,Pin_20*%
%TO.N,CD3*%
X168910000Y-103936800D03*
%TD*%
D12*
%TO.P,J1,1,Pin_1*%
%TO.N,unconnected-(J1-Pin_1-Pad1)*%
X153670000Y-55676800D03*
D13*
%TO.P,J1,2,Pin_2*%
%TO.N,unconnected-(J1-Pin_2-Pad2)*%
X153670000Y-58216800D03*
%TO.P,J1,3,Pin_3*%
%TO.N,unconnected-(J1-Pin_3-Pad3)*%
X153670000Y-60756800D03*
%TO.P,J1,4,Pin_4*%
%TO.N,unconnected-(J1-Pin_4-Pad4)*%
X153670000Y-63296800D03*
%TO.P,J1,5,Pin_5*%
%TO.N,unconnected-(J1-Pin_5-Pad5)*%
X153670000Y-65836800D03*
%TO.P,J1,6,Pin_6*%
%TO.N,unconnected-(J1-Pin_6-Pad6)*%
X153670000Y-68376800D03*
%TO.P,J1,7,Pin_7*%
%TO.N,unconnected-(J1-Pin_7-Pad7)*%
X153670000Y-70916800D03*
%TO.P,J1,8,Pin_8*%
%TO.N,unconnected-(J1-Pin_8-Pad8)*%
X153670000Y-73456800D03*
%TO.P,J1,9,Pin_9*%
%TO.N,unconnected-(J1-Pin_9-Pad9)*%
X153670000Y-75996800D03*
%TO.P,J1,10,Pin_10*%
%TO.N,unconnected-(J1-Pin_10-Pad10)*%
X153670000Y-78536800D03*
%TO.P,J1,11,Pin_11*%
%TO.N,unconnected-(J1-Pin_11-Pad11)*%
X153670000Y-81076800D03*
%TO.P,J1,12,Pin_12*%
%TO.N,GND*%
X153670000Y-83616800D03*
%TO.P,J1,13,Pin_13*%
%TO.N,MODE*%
X153670000Y-86156800D03*
%TO.P,J1,14,Pin_14*%
%TO.N,~{CSW}*%
X153670000Y-88696800D03*
%TO.P,J1,15,Pin_15*%
%TO.N,~{CSR}*%
X153670000Y-91236800D03*
%TO.P,J1,16,Pin_16*%
%TO.N,~{INT}*%
X153670000Y-93776800D03*
%TO.P,J1,17,Pin_17*%
%TO.N,CD7*%
X153670000Y-96316800D03*
%TO.P,J1,18,Pin_18*%
%TO.N,CD6*%
X153670000Y-98856800D03*
%TO.P,J1,19,Pin_19*%
%TO.N,CD5*%
X153670000Y-101396800D03*
%TO.P,J1,20,Pin_20*%
%TO.N,CD4*%
X153670000Y-103936800D03*
%TD*%
D18*
%TO.N,VCC_3V3*%
X169290700Y-114409900D03*
X170577100Y-65752700D03*
X165608200Y-117786900D03*
%TO.N,GND*%
X169277200Y-108101800D03*
%TO.N,VCC*%
X155952500Y-122562600D03*
X155829900Y-52015900D03*
D19*
%TO.N,GROMCLK_3V3*%
X151844800Y-71697100D03*
%TO.N,~{RESET_3V3}*%
X162342800Y-55311800D03*
%TO.N,CD5_3V3*%
X151828100Y-61486200D03*
%TO.N,G0_3V3*%
X154870400Y-116346100D03*
%TO.N,CD7*%
X156291600Y-109710400D03*
%TO.N,CD6*%
X155318700Y-110152000D03*
%TO.N,CD5*%
X154580000Y-108321700D03*
%TO.N,CD4*%
X163118200Y-103732000D03*
%TO.N,CD0*%
X155534800Y-118072200D03*
%TD*%
D20*
%TO.N,VCC_3V3*%
X163449900Y-56515000D02*
X163449900Y-84328000D01*
X167814500Y-54366500D02*
X166750100Y-55430900D01*
X164793400Y-84455000D02*
X165227000Y-84455000D01*
X166750100Y-55430900D02*
X166750100Y-56515000D01*
X165100000Y-56515000D02*
X166750100Y-56515000D01*
X163449900Y-84328000D02*
X163576900Y-84455000D01*
X170577100Y-65752700D02*
X170577100Y-54990300D01*
X169290700Y-114409900D02*
X165913700Y-117786900D01*
X170577100Y-54990300D02*
X169953300Y-54366500D01*
X165100000Y-56515000D02*
X163449900Y-56515000D01*
X169953300Y-54366500D02*
X167814500Y-54366500D01*
X164793400Y-84455000D02*
X163576900Y-84455000D01*
X165913700Y-117786900D02*
X165608200Y-117786900D01*
%TO.N,GND*%
X163192900Y-55664000D02*
X163192900Y-52683000D01*
X170281300Y-107193200D02*
X170281300Y-108101800D01*
X171394100Y-106080400D02*
X170281300Y-107193200D01*
X163550700Y-51099200D02*
X163849900Y-50800000D01*
X159257100Y-105664900D02*
X159257100Y-84455000D01*
X171450000Y-109270500D02*
X171450000Y-117094900D01*
X162560000Y-50800000D02*
X162560000Y-51099200D01*
X172720000Y-120015000D02*
X172720000Y-118364900D01*
X162560000Y-51398400D02*
X162560000Y-52050100D01*
X163192900Y-52683000D02*
X162560000Y-52050100D01*
X162560000Y-51099200D02*
X163550700Y-51099200D01*
X161270100Y-50800000D02*
X161868500Y-51398400D01*
X160020000Y-50800000D02*
X158730100Y-50800000D01*
X171450000Y-117094900D02*
X172720000Y-118364900D01*
X161868500Y-51398400D02*
X162560000Y-51398400D01*
X157480000Y-79375000D02*
X159130100Y-79375000D01*
X162560000Y-51099200D02*
X162560000Y-51398400D01*
X169277200Y-108101800D02*
X170281300Y-108101800D01*
X172694200Y-106080400D02*
X171394100Y-106080400D01*
X162719200Y-75785900D02*
X162719200Y-56137700D01*
X162719200Y-56137700D02*
X163192900Y-55664000D01*
X159130100Y-79375000D02*
X162719200Y-75785900D01*
X157607000Y-84455000D02*
X159257100Y-84455000D01*
X170281300Y-108101800D02*
X171450000Y-109270500D01*
X159257100Y-79502000D02*
X159130100Y-79375000D01*
X160020000Y-50800000D02*
X161270100Y-50800000D01*
X157607000Y-107315000D02*
X159257100Y-105664900D01*
X159257100Y-84455000D02*
X159257100Y-79502000D01*
X157480000Y-50800000D02*
X158730100Y-50800000D01*
X165100000Y-50800000D02*
X163849900Y-50800000D01*
D21*
%TO.N,VS_3V3*%
X174319500Y-93341600D02*
X173088300Y-92110400D01*
X169622900Y-125824900D02*
X170500900Y-125824900D01*
X168815100Y-127000000D02*
X168815100Y-126632700D01*
X167640000Y-127000000D02*
X168815100Y-127000000D01*
X173088300Y-92110400D02*
X172237700Y-92110400D01*
X172237700Y-92110400D02*
X171519100Y-91391800D01*
X172694200Y-50200400D02*
X172694200Y-51375500D01*
X168815100Y-126632700D02*
X169622900Y-125824900D01*
X172326900Y-51375500D02*
X172694200Y-51375500D01*
X171519100Y-52183300D02*
X172326900Y-51375500D01*
X174319500Y-122006300D02*
X174319500Y-93341600D01*
X170500900Y-125824900D02*
X174319500Y-122006300D01*
X171519100Y-91391800D02*
X171519100Y-52183300D01*
%TO.N,R2_3V3*%
X151079900Y-90380100D02*
X151079900Y-92177800D01*
X150329800Y-89630000D02*
X151079900Y-90380100D01*
X151857400Y-125824900D02*
X147705600Y-121673100D01*
X153764900Y-126192100D02*
X153397700Y-125824900D01*
X153397700Y-125824900D02*
X151857400Y-125824900D01*
X151079900Y-92177800D02*
X149877300Y-93380400D01*
X147705600Y-91336700D02*
X149412300Y-89630000D01*
X153764900Y-127000000D02*
X153764900Y-126192100D01*
X149412300Y-89630000D02*
X150329800Y-89630000D01*
X154940000Y-127000000D02*
X153764900Y-127000000D01*
X147705600Y-121673100D02*
X147705600Y-91336700D01*
%TO.N,R3_3V3*%
X148204300Y-121525700D02*
X148204300Y-93323200D01*
X154940000Y-124460000D02*
X153764900Y-124460000D01*
X149963500Y-123284900D02*
X148204300Y-121525700D01*
X152938100Y-123284900D02*
X149963500Y-123284900D01*
X148204300Y-93323200D02*
X149512000Y-92015500D01*
X153764900Y-124460000D02*
X153764900Y-124111700D01*
X153764900Y-124111700D02*
X152938100Y-123284900D01*
X149512000Y-92015500D02*
X149877300Y-92015500D01*
X149877300Y-90840400D02*
X149877300Y-92015500D01*
D20*
%TO.N,VCC*%
X168910000Y-73456800D02*
X170583000Y-75129800D01*
X170583000Y-75129800D02*
X170583000Y-91269200D01*
X154471200Y-122562600D02*
X153573700Y-121665100D01*
X149860000Y-120015000D02*
X149860000Y-121665100D01*
X155952500Y-122562600D02*
X154471200Y-122562600D01*
X155829900Y-56515000D02*
X155829900Y-52015900D01*
X157480000Y-56515000D02*
X155829900Y-56515000D01*
X153573700Y-121665100D02*
X149860000Y-121665100D01*
X170583000Y-91269200D02*
X172694200Y-93380400D01*
D21*
%TO.N,B1_3V3*%
X171329400Y-104782700D02*
X171329400Y-103175000D01*
X172694200Y-101000400D02*
X172694200Y-102175500D01*
X172328900Y-102175500D02*
X172694200Y-102175500D01*
X163735100Y-122109800D02*
X163735100Y-118418200D01*
X162560000Y-124460000D02*
X162560000Y-123284900D01*
X168438500Y-110856300D02*
X168438500Y-107673600D01*
X168765200Y-113388100D02*
X168765200Y-111183000D01*
X168438500Y-107673600D02*
X171329400Y-104782700D01*
X162560000Y-123284900D02*
X163735100Y-122109800D01*
X163735100Y-118418200D02*
X168765200Y-113388100D01*
X171329400Y-103175000D02*
X172328900Y-102175500D01*
X168765200Y-111183000D02*
X168438500Y-110856300D01*
%TO.N,B3_3V3*%
X166275100Y-124094700D02*
X166275100Y-124460000D01*
X172694200Y-95920400D02*
X172694200Y-97095500D01*
X165100000Y-124460000D02*
X166275100Y-124460000D01*
X167967700Y-122402100D02*
X166275100Y-124094700D01*
X173869300Y-120918800D02*
X172386000Y-122402100D01*
X173869300Y-97903300D02*
X173869300Y-120918800D01*
X173061500Y-97095500D02*
X173869300Y-97903300D01*
X172386000Y-122402100D02*
X167967700Y-122402100D01*
X172694200Y-97095500D02*
X173061500Y-97095500D01*
%TO.N,GROMCLK_3V3*%
X151844800Y-70825900D02*
X151844800Y-71697100D01*
X148702200Y-64075500D02*
X148702200Y-68505700D01*
X149446900Y-69250400D02*
X150269300Y-69250400D01*
X149877300Y-62900400D02*
X148702200Y-64075500D01*
X148702200Y-68505700D02*
X149446900Y-69250400D01*
X150269300Y-69250400D02*
X151844800Y-70825900D01*
%TO.N,~{RESET_3V3}*%
X158229700Y-60325000D02*
X162100800Y-56453900D01*
X162100800Y-56453900D02*
X162100800Y-55553800D01*
X154096000Y-62026800D02*
X155797800Y-60325000D01*
X150975800Y-64265300D02*
X153214300Y-62026800D01*
X155797800Y-60325000D02*
X158229700Y-60325000D01*
X149877300Y-64265300D02*
X150975800Y-64265300D01*
X162100800Y-55553800D02*
X162342800Y-55311800D01*
X149877300Y-65440400D02*
X149877300Y-64265300D01*
X153214300Y-62026800D02*
X154096000Y-62026800D01*
%TO.N,CD0_3V3*%
X165227000Y-89535000D02*
X163701900Y-89535000D01*
X154940000Y-112395000D02*
X154940000Y-112112400D01*
X159832300Y-93404600D02*
X163701900Y-89535000D01*
X159832300Y-107220100D02*
X159832300Y-93404600D01*
X154940000Y-112112400D02*
X159832300Y-107220100D01*
%TO.N,CD1_3V3*%
X157480000Y-112395000D02*
X157480000Y-110869900D01*
X160759600Y-95017300D02*
X163701900Y-92075000D01*
X157480000Y-110869900D02*
X160759600Y-107590300D01*
X160759600Y-107590300D02*
X160759600Y-95017300D01*
X165227000Y-92075000D02*
X163701900Y-92075000D01*
%TO.N,CD2_3V3*%
X165227000Y-94615000D02*
X163701900Y-94615000D01*
X160020000Y-112395000D02*
X160020000Y-110869900D01*
X160020000Y-109194400D02*
X161209700Y-108004700D01*
X161209700Y-97107200D02*
X163701900Y-94615000D01*
X160020000Y-110869900D02*
X160020000Y-109194400D01*
X161209700Y-108004700D02*
X161209700Y-97107200D01*
%TO.N,CD3_3V3*%
X162560000Y-112395000D02*
X162560000Y-110869900D01*
X162393100Y-110703000D02*
X162393100Y-99988900D01*
X162560000Y-110869900D02*
X162393100Y-110703000D01*
X162393100Y-99988900D02*
X165227000Y-97155000D01*
%TO.N,CD4_3V3*%
X163701900Y-104173800D02*
X163843300Y-104032400D01*
X163701900Y-109471800D02*
X163701900Y-104173800D01*
X165227000Y-99695000D02*
X163701900Y-99695000D01*
X165100000Y-110869900D02*
X163701900Y-109471800D01*
X163843300Y-103431600D02*
X163701900Y-103290200D01*
X165100000Y-112395000D02*
X165100000Y-110869900D01*
X163843300Y-104032400D02*
X163843300Y-103431600D01*
X163701900Y-103290200D02*
X163701900Y-99695000D01*
%TO.N,CD5_3V3*%
X151828100Y-61486200D02*
X151683900Y-61630400D01*
X165227000Y-102235000D02*
X166752100Y-102235000D01*
X167640000Y-107041600D02*
X170156700Y-104524900D01*
X149512000Y-79505300D02*
X149877300Y-79505300D01*
X149431700Y-61630400D02*
X148204300Y-62857800D01*
X170156700Y-103446800D02*
X169376700Y-102666800D01*
X167640000Y-110869900D02*
X167640000Y-107041600D01*
X167183900Y-102666800D02*
X166752100Y-102235000D01*
X149877300Y-80680400D02*
X149877300Y-79505300D01*
X148204300Y-62857800D02*
X148204300Y-78197600D01*
X169376700Y-102666800D02*
X167183900Y-102666800D01*
X148204300Y-78197600D02*
X149512000Y-79505300D01*
X167640000Y-112395000D02*
X167640000Y-110869900D01*
X151683900Y-61630400D02*
X149431700Y-61630400D01*
X170156700Y-104524900D02*
X170156700Y-103446800D01*
%TO.N,R0_3V3*%
X152400000Y-127000000D02*
X153618800Y-128218800D01*
X174792900Y-124099200D02*
X174792900Y-78509000D01*
X170673300Y-128218800D02*
X174792900Y-124099200D01*
X153618800Y-128218800D02*
X170673300Y-128218800D01*
X173059400Y-76775500D02*
X172694200Y-76775500D01*
X172694200Y-75600400D02*
X172694200Y-76775500D01*
X174792900Y-78509000D02*
X173059400Y-76775500D01*
%TO.N,G0_3V3*%
X158084100Y-122652800D02*
X156354900Y-120923600D01*
X159462900Y-125824900D02*
X160356000Y-125824900D01*
X157480000Y-127000000D02*
X158655100Y-127000000D01*
X158655100Y-126632700D02*
X159462900Y-125824900D01*
X156354900Y-120923600D02*
X156354900Y-117830600D01*
X158655100Y-127000000D02*
X158655100Y-126632700D01*
X161197000Y-123965100D02*
X159884700Y-122652800D01*
X156354900Y-117830600D02*
X154870400Y-116346100D01*
X159884700Y-122652800D02*
X158084100Y-122652800D01*
X160356000Y-125824900D02*
X161197000Y-124983900D01*
X161197000Y-124983900D02*
X161197000Y-123965100D01*
%TO.N,G1_3V3*%
X156304900Y-124460000D02*
X156304900Y-124123600D01*
X154380100Y-123284900D02*
X153930000Y-122834800D01*
X148698300Y-102989200D02*
X149512000Y-102175500D01*
X155466200Y-123284900D02*
X154380100Y-123284900D01*
X149512000Y-102175500D02*
X149877300Y-102175500D01*
X148698300Y-121340800D02*
X148698300Y-102989200D01*
X150192300Y-122834800D02*
X148698300Y-121340800D01*
X156304900Y-124123600D02*
X155466200Y-123284900D01*
X149877300Y-101000400D02*
X149877300Y-102175500D01*
X157480000Y-124460000D02*
X156304900Y-124460000D01*
X153930000Y-122834800D02*
X150192300Y-122834800D01*
%TO.N,G3_3V3*%
X150221700Y-97095500D02*
X151080100Y-97953900D01*
X149877300Y-97095500D02*
X150221700Y-97095500D01*
X153806700Y-120887300D02*
X154647800Y-121728400D01*
X151080100Y-115490800D02*
X153806700Y-118217400D01*
X156480500Y-121728400D02*
X158844900Y-124092800D01*
X160020000Y-124460000D02*
X158844900Y-124460000D01*
X158844900Y-124092800D02*
X158844900Y-124460000D01*
X154647800Y-121728400D02*
X156480500Y-121728400D01*
X149877300Y-95920400D02*
X149877300Y-97095500D01*
X153806700Y-118217400D02*
X153806700Y-120887300D01*
X151080100Y-97953900D02*
X151080100Y-115490800D01*
%TO.N,MODE*%
X154037200Y-84981700D02*
X155295300Y-83723600D01*
X155295300Y-83723600D02*
X155295300Y-69874600D01*
X153670000Y-86156800D02*
X153670000Y-84981700D01*
X153670000Y-84981700D02*
X154037200Y-84981700D01*
X155295300Y-69874600D02*
X155954900Y-69215000D01*
X157480000Y-69215000D02*
X155954900Y-69215000D01*
%TO.N,~{CSW}*%
X152009800Y-110479700D02*
X152009800Y-91166800D01*
X153304700Y-89871900D02*
X153670000Y-89871900D01*
X152400000Y-110869900D02*
X152009800Y-110479700D01*
X152009800Y-91166800D02*
X153304700Y-89871900D01*
X154105100Y-82346800D02*
X154845100Y-81606800D01*
X153302800Y-87521700D02*
X152468600Y-86687500D01*
X152468600Y-83155400D02*
X153277200Y-82346800D01*
X152400000Y-112395000D02*
X152400000Y-110869900D01*
X152468600Y-86687500D02*
X152468600Y-83155400D01*
X154845100Y-81606800D02*
X154845100Y-65244800D01*
X153670000Y-88696800D02*
X153670000Y-87521700D01*
X157480000Y-64135000D02*
X155954900Y-64135000D01*
X153670000Y-87521700D02*
X153302800Y-87521700D01*
X153277200Y-82346800D02*
X154105100Y-82346800D01*
X153670000Y-88696800D02*
X153670000Y-89871900D01*
X154845100Y-65244800D02*
X155954900Y-64135000D01*
%TO.N,~{CSR}*%
X157480000Y-66675000D02*
X159005100Y-66675000D01*
X155745400Y-89161400D02*
X153670000Y-91236800D01*
X159005100Y-66675000D02*
X159005100Y-74764000D01*
X158204100Y-75565000D02*
X156751300Y-75565000D01*
X156751300Y-75565000D02*
X155745400Y-76570900D01*
X155745400Y-76570900D02*
X155745400Y-89161400D01*
X159005100Y-74764000D02*
X158204100Y-75565000D01*
%TO.N,CD7*%
X157607000Y-104775000D02*
X156081900Y-104775000D01*
X156081900Y-104775000D02*
X156081900Y-109500700D01*
X156081900Y-109500700D02*
X156291600Y-109710400D01*
%TO.N,CD6*%
X155318700Y-102235000D02*
X155318700Y-101315400D01*
X155318700Y-110152000D02*
X155318700Y-102235000D01*
X154035200Y-100031900D02*
X153670000Y-100031900D01*
X155318700Y-102235000D02*
X156081900Y-102235000D01*
X157607000Y-102235000D02*
X156081900Y-102235000D01*
X153670000Y-98856800D02*
X153670000Y-100031900D01*
X155318700Y-101315400D02*
X154035200Y-100031900D01*
%TO.N,CD5*%
X154863000Y-108038700D02*
X154580000Y-108321700D01*
X153670000Y-102571900D02*
X154037200Y-102571900D01*
X154863000Y-103397700D02*
X154863000Y-108038700D01*
X153670000Y-101396800D02*
X153670000Y-102571900D01*
X154037200Y-102571900D02*
X154863000Y-103397700D01*
%TO.N,CD4*%
X159530300Y-121540100D02*
X162560000Y-121540100D01*
X162560000Y-120015000D02*
X162560000Y-121540100D01*
X158884600Y-118758900D02*
X158884600Y-120894400D01*
X163118200Y-110018100D02*
X163747000Y-110646900D01*
X163118200Y-103732000D02*
X163118200Y-110018100D01*
X158884600Y-120894400D02*
X159530300Y-121540100D01*
X163747000Y-113896500D02*
X158884600Y-118758900D01*
X163747000Y-110646900D02*
X163747000Y-113896500D01*
%TO.N,CD3*%
X160020000Y-120015000D02*
X160020000Y-118489900D01*
X166370000Y-108851500D02*
X166370000Y-113135600D01*
X168910000Y-103936800D02*
X168910000Y-105111900D01*
X166818600Y-108402900D02*
X166370000Y-108851500D01*
X168910000Y-105111900D02*
X166818600Y-107203300D01*
X166818600Y-107203300D02*
X166818600Y-108402900D01*
X166370000Y-113135600D02*
X161015700Y-118489900D01*
X161015700Y-118489900D02*
X160020000Y-118489900D01*
%TO.N,CD2*%
X168521600Y-100221700D02*
X168910000Y-100221700D01*
X166057700Y-95958900D02*
X167251700Y-97152900D01*
X161434800Y-108416200D02*
X161659800Y-108191200D01*
X167251700Y-97152900D02*
X167251700Y-98951800D01*
X157480000Y-120015000D02*
X157480000Y-118489900D01*
X161659800Y-98721500D02*
X164422400Y-95958900D01*
X161659800Y-108191200D02*
X161659800Y-98721500D01*
X167251700Y-98951800D02*
X168521600Y-100221700D01*
X161434800Y-114535100D02*
X161434800Y-108416200D01*
X164422400Y-95958900D02*
X166057700Y-95958900D01*
X168910000Y-101396800D02*
X168910000Y-100221700D01*
X157480000Y-118489900D02*
X161434800Y-114535100D01*
%TO.N,CD1*%
X156081900Y-93028700D02*
X154063800Y-95046800D01*
X154940000Y-118502900D02*
X154940000Y-120015000D01*
X157607000Y-89535000D02*
X156081900Y-89535000D01*
X153579300Y-117142200D02*
X154940000Y-118502900D01*
X153579300Y-109356100D02*
X153579300Y-117142200D01*
X154063800Y-95046800D02*
X153181200Y-95046800D01*
X152460000Y-108236800D02*
X153579300Y-109356100D01*
X156081900Y-89535000D02*
X156081900Y-93028700D01*
X152460000Y-95768000D02*
X152460000Y-108236800D01*
X153181200Y-95046800D02*
X152460000Y-95768000D01*
%TO.N,CD0*%
X164187700Y-90943600D02*
X166151000Y-90943600D01*
X166151000Y-90943600D02*
X167701900Y-92494500D01*
X155534800Y-118072200D02*
X154095700Y-116633100D01*
X168910000Y-96316800D02*
X168910000Y-95141700D01*
X154095700Y-115768200D02*
X156065200Y-113798700D01*
X167701900Y-92494500D02*
X167701900Y-94298900D01*
X160309500Y-107379600D02*
X160309500Y-94821800D01*
X160309500Y-94821800D02*
X164187700Y-90943600D01*
X167701900Y-94298900D02*
X168544700Y-95141700D01*
X154095700Y-116633100D02*
X154095700Y-115768200D01*
X156065200Y-113798700D02*
X156065200Y-111623900D01*
X168544700Y-95141700D02*
X168910000Y-95141700D01*
X156065200Y-111623900D02*
X160309500Y-107379600D01*
%TO.N,GROMCLK*%
X168910000Y-63296800D02*
X168910000Y-64471900D01*
X168542700Y-64471900D02*
X167734900Y-65279700D01*
X165100000Y-76835000D02*
X166625100Y-76835000D01*
X168910000Y-64471900D02*
X168542700Y-64471900D01*
X167734900Y-75725200D02*
X166625100Y-76835000D01*
X167734900Y-65279700D02*
X167734900Y-75725200D01*
%TO.N,CPUCLK*%
X168910000Y-61931900D02*
X168542800Y-61931900D01*
X166625100Y-63849600D02*
X166625100Y-74295000D01*
X165100000Y-74295000D02*
X166625100Y-74295000D01*
X168542800Y-61931900D02*
X166625100Y-63849600D01*
X168910000Y-60756800D02*
X168910000Y-61931900D01*
%TD*%
M02*
