%TF.GenerationSoftware,KiCad,Pcbnew,7.0.1*%
%TF.CreationDate,2023-05-22T13:15:01-07:00*%
%TF.ProjectId,tn9k_f18a,746e396b-5f66-4313-9861-2e6b69636164,rev?*%
%TF.SameCoordinates,Original*%
%TF.FileFunction,Legend,Top*%
%TF.FilePolarity,Positive*%
%FSLAX46Y46*%
G04 Gerber Fmt 4.6, Leading zero omitted, Abs format (unit mm)*
G04 Created by KiCad (PCBNEW 7.0.1) date 2023-05-22 13:15:01*
%MOMM*%
%LPD*%
G01*
G04 APERTURE LIST*
%ADD10C,0.250000*%
%ADD11C,0.187500*%
%ADD12C,0.150000*%
%ADD13C,0.120000*%
G04 APERTURE END LIST*
D10*
X171171419Y-48215561D02*
X171171419Y-47644133D01*
X172171419Y-47929847D02*
X171171419Y-47929847D01*
X172171419Y-47310799D02*
X171171419Y-47310799D01*
X171171419Y-47310799D02*
X172171419Y-46739371D01*
X172171419Y-46739371D02*
X171171419Y-46739371D01*
X172171419Y-46215561D02*
X172171419Y-46025085D01*
X172171419Y-46025085D02*
X172123800Y-45929847D01*
X172123800Y-45929847D02*
X172076180Y-45882228D01*
X172076180Y-45882228D02*
X171933323Y-45786990D01*
X171933323Y-45786990D02*
X171742847Y-45739371D01*
X171742847Y-45739371D02*
X171361895Y-45739371D01*
X171361895Y-45739371D02*
X171266657Y-45786990D01*
X171266657Y-45786990D02*
X171219038Y-45834609D01*
X171219038Y-45834609D02*
X171171419Y-45929847D01*
X171171419Y-45929847D02*
X171171419Y-46120323D01*
X171171419Y-46120323D02*
X171219038Y-46215561D01*
X171219038Y-46215561D02*
X171266657Y-46263180D01*
X171266657Y-46263180D02*
X171361895Y-46310799D01*
X171361895Y-46310799D02*
X171599990Y-46310799D01*
X171599990Y-46310799D02*
X171695228Y-46263180D01*
X171695228Y-46263180D02*
X171742847Y-46215561D01*
X171742847Y-46215561D02*
X171790466Y-46120323D01*
X171790466Y-46120323D02*
X171790466Y-45929847D01*
X171790466Y-45929847D02*
X171742847Y-45834609D01*
X171742847Y-45834609D02*
X171695228Y-45786990D01*
X171695228Y-45786990D02*
X171599990Y-45739371D01*
X172171419Y-45310799D02*
X171171419Y-45310799D01*
X172171419Y-44739371D02*
X171599990Y-45167942D01*
X171171419Y-44739371D02*
X171742847Y-45310799D01*
X173267609Y-47739371D02*
X173267609Y-48072704D01*
X173791419Y-48072704D02*
X172791419Y-48072704D01*
X172791419Y-48072704D02*
X172791419Y-47596514D01*
X173791419Y-46691752D02*
X173791419Y-47263180D01*
X173791419Y-46977466D02*
X172791419Y-46977466D01*
X172791419Y-46977466D02*
X172934276Y-47072704D01*
X172934276Y-47072704D02*
X173029514Y-47167942D01*
X173029514Y-47167942D02*
X173077133Y-47263180D01*
X173219990Y-46120323D02*
X173172371Y-46215561D01*
X173172371Y-46215561D02*
X173124752Y-46263180D01*
X173124752Y-46263180D02*
X173029514Y-46310799D01*
X173029514Y-46310799D02*
X172981895Y-46310799D01*
X172981895Y-46310799D02*
X172886657Y-46263180D01*
X172886657Y-46263180D02*
X172839038Y-46215561D01*
X172839038Y-46215561D02*
X172791419Y-46120323D01*
X172791419Y-46120323D02*
X172791419Y-45929847D01*
X172791419Y-45929847D02*
X172839038Y-45834609D01*
X172839038Y-45834609D02*
X172886657Y-45786990D01*
X172886657Y-45786990D02*
X172981895Y-45739371D01*
X172981895Y-45739371D02*
X173029514Y-45739371D01*
X173029514Y-45739371D02*
X173124752Y-45786990D01*
X173124752Y-45786990D02*
X173172371Y-45834609D01*
X173172371Y-45834609D02*
X173219990Y-45929847D01*
X173219990Y-45929847D02*
X173219990Y-46120323D01*
X173219990Y-46120323D02*
X173267609Y-46215561D01*
X173267609Y-46215561D02*
X173315228Y-46263180D01*
X173315228Y-46263180D02*
X173410466Y-46310799D01*
X173410466Y-46310799D02*
X173600942Y-46310799D01*
X173600942Y-46310799D02*
X173696180Y-46263180D01*
X173696180Y-46263180D02*
X173743800Y-46215561D01*
X173743800Y-46215561D02*
X173791419Y-46120323D01*
X173791419Y-46120323D02*
X173791419Y-45929847D01*
X173791419Y-45929847D02*
X173743800Y-45834609D01*
X173743800Y-45834609D02*
X173696180Y-45786990D01*
X173696180Y-45786990D02*
X173600942Y-45739371D01*
X173600942Y-45739371D02*
X173410466Y-45739371D01*
X173410466Y-45739371D02*
X173315228Y-45786990D01*
X173315228Y-45786990D02*
X173267609Y-45834609D01*
X173267609Y-45834609D02*
X173219990Y-45929847D01*
X173505704Y-45358418D02*
X173505704Y-44882228D01*
X173791419Y-45453656D02*
X172791419Y-45120323D01*
X172791419Y-45120323D02*
X173791419Y-44786990D01*
X173791419Y-43167942D02*
X173791419Y-43739370D01*
X173791419Y-43453656D02*
X172791419Y-43453656D01*
X172791419Y-43453656D02*
X172934276Y-43548894D01*
X172934276Y-43548894D02*
X173029514Y-43644132D01*
X173029514Y-43644132D02*
X173077133Y-43739370D01*
X173696180Y-42739370D02*
X173743800Y-42691751D01*
X173743800Y-42691751D02*
X173791419Y-42739370D01*
X173791419Y-42739370D02*
X173743800Y-42786989D01*
X173743800Y-42786989D02*
X173696180Y-42739370D01*
X173696180Y-42739370D02*
X173791419Y-42739370D01*
X173791419Y-41739371D02*
X173791419Y-42310799D01*
X173791419Y-42025085D02*
X172791419Y-42025085D01*
X172791419Y-42025085D02*
X172934276Y-42120323D01*
X172934276Y-42120323D02*
X173029514Y-42215561D01*
X173029514Y-42215561D02*
X173077133Y-42310799D01*
D11*
X148526428Y-43253214D02*
X148097857Y-43253214D01*
X148312142Y-43253214D02*
X148312142Y-42503214D01*
X148312142Y-42503214D02*
X148240714Y-42610357D01*
X148240714Y-42610357D02*
X148169285Y-42681785D01*
X148169285Y-42681785D02*
X148097857Y-42717500D01*
X148847857Y-43181785D02*
X148883571Y-43217500D01*
X148883571Y-43217500D02*
X148847857Y-43253214D01*
X148847857Y-43253214D02*
X148812143Y-43217500D01*
X148812143Y-43217500D02*
X148847857Y-43181785D01*
X148847857Y-43181785D02*
X148847857Y-43253214D01*
X148847857Y-42788928D02*
X148883571Y-42824642D01*
X148883571Y-42824642D02*
X148847857Y-42860357D01*
X148847857Y-42860357D02*
X148812143Y-42824642D01*
X148812143Y-42824642D02*
X148847857Y-42788928D01*
X148847857Y-42788928D02*
X148847857Y-42860357D01*
X149205000Y-43253214D02*
X149205000Y-42503214D01*
X149205000Y-42503214D02*
X149455000Y-43038928D01*
X149455000Y-43038928D02*
X149705000Y-42503214D01*
X149705000Y-42503214D02*
X149705000Y-43253214D01*
X150026429Y-43038928D02*
X150383572Y-43038928D01*
X149955000Y-43253214D02*
X150205000Y-42503214D01*
X150205000Y-42503214D02*
X150455000Y-43253214D01*
X150633571Y-42503214D02*
X151133571Y-43253214D01*
X151133571Y-42503214D02*
X150633571Y-43253214D01*
X151955001Y-43217500D02*
X152062144Y-43253214D01*
X152062144Y-43253214D02*
X152240715Y-43253214D01*
X152240715Y-43253214D02*
X152312144Y-43217500D01*
X152312144Y-43217500D02*
X152347858Y-43181785D01*
X152347858Y-43181785D02*
X152383572Y-43110357D01*
X152383572Y-43110357D02*
X152383572Y-43038928D01*
X152383572Y-43038928D02*
X152347858Y-42967500D01*
X152347858Y-42967500D02*
X152312144Y-42931785D01*
X152312144Y-42931785D02*
X152240715Y-42896071D01*
X152240715Y-42896071D02*
X152097858Y-42860357D01*
X152097858Y-42860357D02*
X152026429Y-42824642D01*
X152026429Y-42824642D02*
X151990715Y-42788928D01*
X151990715Y-42788928D02*
X151955001Y-42717500D01*
X151955001Y-42717500D02*
X151955001Y-42646071D01*
X151955001Y-42646071D02*
X151990715Y-42574642D01*
X151990715Y-42574642D02*
X152026429Y-42538928D01*
X152026429Y-42538928D02*
X152097858Y-42503214D01*
X152097858Y-42503214D02*
X152276429Y-42503214D01*
X152276429Y-42503214D02*
X152383572Y-42538928D01*
X152705001Y-43253214D02*
X152705001Y-42503214D01*
X152705001Y-42503214D02*
X152990715Y-42503214D01*
X152990715Y-42503214D02*
X153062144Y-42538928D01*
X153062144Y-42538928D02*
X153097858Y-42574642D01*
X153097858Y-42574642D02*
X153133572Y-42646071D01*
X153133572Y-42646071D02*
X153133572Y-42753214D01*
X153133572Y-42753214D02*
X153097858Y-42824642D01*
X153097858Y-42824642D02*
X153062144Y-42860357D01*
X153062144Y-42860357D02*
X152990715Y-42896071D01*
X152990715Y-42896071D02*
X152705001Y-42896071D01*
X153883572Y-43253214D02*
X153633572Y-42896071D01*
X153455001Y-43253214D02*
X153455001Y-42503214D01*
X153455001Y-42503214D02*
X153740715Y-42503214D01*
X153740715Y-42503214D02*
X153812144Y-42538928D01*
X153812144Y-42538928D02*
X153847858Y-42574642D01*
X153847858Y-42574642D02*
X153883572Y-42646071D01*
X153883572Y-42646071D02*
X153883572Y-42753214D01*
X153883572Y-42753214D02*
X153847858Y-42824642D01*
X153847858Y-42824642D02*
X153812144Y-42860357D01*
X153812144Y-42860357D02*
X153740715Y-42896071D01*
X153740715Y-42896071D02*
X153455001Y-42896071D01*
X148097857Y-43789642D02*
X148133571Y-43753928D01*
X148133571Y-43753928D02*
X148205000Y-43718214D01*
X148205000Y-43718214D02*
X148383571Y-43718214D01*
X148383571Y-43718214D02*
X148455000Y-43753928D01*
X148455000Y-43753928D02*
X148490714Y-43789642D01*
X148490714Y-43789642D02*
X148526428Y-43861071D01*
X148526428Y-43861071D02*
X148526428Y-43932500D01*
X148526428Y-43932500D02*
X148490714Y-44039642D01*
X148490714Y-44039642D02*
X148062142Y-44468214D01*
X148062142Y-44468214D02*
X148526428Y-44468214D01*
X148847857Y-44396785D02*
X148883571Y-44432500D01*
X148883571Y-44432500D02*
X148847857Y-44468214D01*
X148847857Y-44468214D02*
X148812143Y-44432500D01*
X148812143Y-44432500D02*
X148847857Y-44396785D01*
X148847857Y-44396785D02*
X148847857Y-44468214D01*
X148847857Y-44003928D02*
X148883571Y-44039642D01*
X148883571Y-44039642D02*
X148847857Y-44075357D01*
X148847857Y-44075357D02*
X148812143Y-44039642D01*
X148812143Y-44039642D02*
X148847857Y-44003928D01*
X148847857Y-44003928D02*
X148847857Y-44075357D01*
X149169286Y-44432500D02*
X149276429Y-44468214D01*
X149276429Y-44468214D02*
X149455000Y-44468214D01*
X149455000Y-44468214D02*
X149526429Y-44432500D01*
X149526429Y-44432500D02*
X149562143Y-44396785D01*
X149562143Y-44396785D02*
X149597857Y-44325357D01*
X149597857Y-44325357D02*
X149597857Y-44253928D01*
X149597857Y-44253928D02*
X149562143Y-44182500D01*
X149562143Y-44182500D02*
X149526429Y-44146785D01*
X149526429Y-44146785D02*
X149455000Y-44111071D01*
X149455000Y-44111071D02*
X149312143Y-44075357D01*
X149312143Y-44075357D02*
X149240714Y-44039642D01*
X149240714Y-44039642D02*
X149205000Y-44003928D01*
X149205000Y-44003928D02*
X149169286Y-43932500D01*
X149169286Y-43932500D02*
X149169286Y-43861071D01*
X149169286Y-43861071D02*
X149205000Y-43789642D01*
X149205000Y-43789642D02*
X149240714Y-43753928D01*
X149240714Y-43753928D02*
X149312143Y-43718214D01*
X149312143Y-43718214D02*
X149490714Y-43718214D01*
X149490714Y-43718214D02*
X149597857Y-43753928D01*
X150347857Y-44396785D02*
X150312143Y-44432500D01*
X150312143Y-44432500D02*
X150205000Y-44468214D01*
X150205000Y-44468214D02*
X150133572Y-44468214D01*
X150133572Y-44468214D02*
X150026429Y-44432500D01*
X150026429Y-44432500D02*
X149955000Y-44361071D01*
X149955000Y-44361071D02*
X149919286Y-44289642D01*
X149919286Y-44289642D02*
X149883572Y-44146785D01*
X149883572Y-44146785D02*
X149883572Y-44039642D01*
X149883572Y-44039642D02*
X149919286Y-43896785D01*
X149919286Y-43896785D02*
X149955000Y-43825357D01*
X149955000Y-43825357D02*
X150026429Y-43753928D01*
X150026429Y-43753928D02*
X150133572Y-43718214D01*
X150133572Y-43718214D02*
X150205000Y-43718214D01*
X150205000Y-43718214D02*
X150312143Y-43753928D01*
X150312143Y-43753928D02*
X150347857Y-43789642D01*
X150633572Y-44253928D02*
X150990715Y-44253928D01*
X150562143Y-44468214D02*
X150812143Y-43718214D01*
X150812143Y-43718214D02*
X151062143Y-44468214D01*
X151312143Y-44468214D02*
X151312143Y-43718214D01*
X151312143Y-43718214D02*
X151740714Y-44468214D01*
X151740714Y-44468214D02*
X151740714Y-43718214D01*
X152455000Y-44468214D02*
X152097857Y-44468214D01*
X152097857Y-44468214D02*
X152097857Y-43718214D01*
X152705000Y-44468214D02*
X152705000Y-43718214D01*
X153062143Y-44468214D02*
X153062143Y-43718214D01*
X153062143Y-43718214D02*
X153490714Y-44468214D01*
X153490714Y-44468214D02*
X153490714Y-43718214D01*
X153847857Y-44075357D02*
X154097857Y-44075357D01*
X154205000Y-44468214D02*
X153847857Y-44468214D01*
X153847857Y-44468214D02*
X153847857Y-43718214D01*
X153847857Y-43718214D02*
X154205000Y-43718214D01*
X148062142Y-44933214D02*
X148526428Y-44933214D01*
X148526428Y-44933214D02*
X148276428Y-45218928D01*
X148276428Y-45218928D02*
X148383571Y-45218928D01*
X148383571Y-45218928D02*
X148455000Y-45254642D01*
X148455000Y-45254642D02*
X148490714Y-45290357D01*
X148490714Y-45290357D02*
X148526428Y-45361785D01*
X148526428Y-45361785D02*
X148526428Y-45540357D01*
X148526428Y-45540357D02*
X148490714Y-45611785D01*
X148490714Y-45611785D02*
X148455000Y-45647500D01*
X148455000Y-45647500D02*
X148383571Y-45683214D01*
X148383571Y-45683214D02*
X148169285Y-45683214D01*
X148169285Y-45683214D02*
X148097857Y-45647500D01*
X148097857Y-45647500D02*
X148062142Y-45611785D01*
X148847857Y-45611785D02*
X148883571Y-45647500D01*
X148883571Y-45647500D02*
X148847857Y-45683214D01*
X148847857Y-45683214D02*
X148812143Y-45647500D01*
X148812143Y-45647500D02*
X148847857Y-45611785D01*
X148847857Y-45611785D02*
X148847857Y-45683214D01*
X148847857Y-45218928D02*
X148883571Y-45254642D01*
X148883571Y-45254642D02*
X148847857Y-45290357D01*
X148847857Y-45290357D02*
X148812143Y-45254642D01*
X148812143Y-45254642D02*
X148847857Y-45218928D01*
X148847857Y-45218928D02*
X148847857Y-45290357D01*
X149597857Y-44968928D02*
X149526429Y-44933214D01*
X149526429Y-44933214D02*
X149419286Y-44933214D01*
X149419286Y-44933214D02*
X149312143Y-44968928D01*
X149312143Y-44968928D02*
X149240714Y-45040357D01*
X149240714Y-45040357D02*
X149205000Y-45111785D01*
X149205000Y-45111785D02*
X149169286Y-45254642D01*
X149169286Y-45254642D02*
X149169286Y-45361785D01*
X149169286Y-45361785D02*
X149205000Y-45504642D01*
X149205000Y-45504642D02*
X149240714Y-45576071D01*
X149240714Y-45576071D02*
X149312143Y-45647500D01*
X149312143Y-45647500D02*
X149419286Y-45683214D01*
X149419286Y-45683214D02*
X149490714Y-45683214D01*
X149490714Y-45683214D02*
X149597857Y-45647500D01*
X149597857Y-45647500D02*
X149633571Y-45611785D01*
X149633571Y-45611785D02*
X149633571Y-45361785D01*
X149633571Y-45361785D02*
X149490714Y-45361785D01*
X150383571Y-45683214D02*
X150133571Y-45326071D01*
X149955000Y-45683214D02*
X149955000Y-44933214D01*
X149955000Y-44933214D02*
X150240714Y-44933214D01*
X150240714Y-44933214D02*
X150312143Y-44968928D01*
X150312143Y-44968928D02*
X150347857Y-45004642D01*
X150347857Y-45004642D02*
X150383571Y-45076071D01*
X150383571Y-45076071D02*
X150383571Y-45183214D01*
X150383571Y-45183214D02*
X150347857Y-45254642D01*
X150347857Y-45254642D02*
X150312143Y-45290357D01*
X150312143Y-45290357D02*
X150240714Y-45326071D01*
X150240714Y-45326071D02*
X149955000Y-45326071D01*
X150847857Y-44933214D02*
X150990714Y-44933214D01*
X150990714Y-44933214D02*
X151062143Y-44968928D01*
X151062143Y-44968928D02*
X151133571Y-45040357D01*
X151133571Y-45040357D02*
X151169286Y-45183214D01*
X151169286Y-45183214D02*
X151169286Y-45433214D01*
X151169286Y-45433214D02*
X151133571Y-45576071D01*
X151133571Y-45576071D02*
X151062143Y-45647500D01*
X151062143Y-45647500D02*
X150990714Y-45683214D01*
X150990714Y-45683214D02*
X150847857Y-45683214D01*
X150847857Y-45683214D02*
X150776429Y-45647500D01*
X150776429Y-45647500D02*
X150705000Y-45576071D01*
X150705000Y-45576071D02*
X150669286Y-45433214D01*
X150669286Y-45433214D02*
X150669286Y-45183214D01*
X150669286Y-45183214D02*
X150705000Y-45040357D01*
X150705000Y-45040357D02*
X150776429Y-44968928D01*
X150776429Y-44968928D02*
X150847857Y-44933214D01*
X151490714Y-45683214D02*
X151490714Y-44933214D01*
X151490714Y-44933214D02*
X151740714Y-45468928D01*
X151740714Y-45468928D02*
X151990714Y-44933214D01*
X151990714Y-44933214D02*
X151990714Y-45683214D01*
X152776428Y-45611785D02*
X152740714Y-45647500D01*
X152740714Y-45647500D02*
X152633571Y-45683214D01*
X152633571Y-45683214D02*
X152562143Y-45683214D01*
X152562143Y-45683214D02*
X152455000Y-45647500D01*
X152455000Y-45647500D02*
X152383571Y-45576071D01*
X152383571Y-45576071D02*
X152347857Y-45504642D01*
X152347857Y-45504642D02*
X152312143Y-45361785D01*
X152312143Y-45361785D02*
X152312143Y-45254642D01*
X152312143Y-45254642D02*
X152347857Y-45111785D01*
X152347857Y-45111785D02*
X152383571Y-45040357D01*
X152383571Y-45040357D02*
X152455000Y-44968928D01*
X152455000Y-44968928D02*
X152562143Y-44933214D01*
X152562143Y-44933214D02*
X152633571Y-44933214D01*
X152633571Y-44933214D02*
X152740714Y-44968928D01*
X152740714Y-44968928D02*
X152776428Y-45004642D01*
X153455000Y-45683214D02*
X153097857Y-45683214D01*
X153097857Y-45683214D02*
X153097857Y-44933214D01*
X153705000Y-45683214D02*
X153705000Y-44933214D01*
X154133571Y-45683214D02*
X153812143Y-45254642D01*
X154133571Y-44933214D02*
X153705000Y-45361785D01*
X148455000Y-46398214D02*
X148455000Y-46898214D01*
X148276428Y-46112500D02*
X148097857Y-46648214D01*
X148097857Y-46648214D02*
X148562142Y-46648214D01*
X148847857Y-46826785D02*
X148883571Y-46862500D01*
X148883571Y-46862500D02*
X148847857Y-46898214D01*
X148847857Y-46898214D02*
X148812143Y-46862500D01*
X148812143Y-46862500D02*
X148847857Y-46826785D01*
X148847857Y-46826785D02*
X148847857Y-46898214D01*
X148847857Y-46433928D02*
X148883571Y-46469642D01*
X148883571Y-46469642D02*
X148847857Y-46505357D01*
X148847857Y-46505357D02*
X148812143Y-46469642D01*
X148812143Y-46469642D02*
X148847857Y-46433928D01*
X148847857Y-46433928D02*
X148847857Y-46505357D01*
X149633571Y-46826785D02*
X149597857Y-46862500D01*
X149597857Y-46862500D02*
X149490714Y-46898214D01*
X149490714Y-46898214D02*
X149419286Y-46898214D01*
X149419286Y-46898214D02*
X149312143Y-46862500D01*
X149312143Y-46862500D02*
X149240714Y-46791071D01*
X149240714Y-46791071D02*
X149205000Y-46719642D01*
X149205000Y-46719642D02*
X149169286Y-46576785D01*
X149169286Y-46576785D02*
X149169286Y-46469642D01*
X149169286Y-46469642D02*
X149205000Y-46326785D01*
X149205000Y-46326785D02*
X149240714Y-46255357D01*
X149240714Y-46255357D02*
X149312143Y-46183928D01*
X149312143Y-46183928D02*
X149419286Y-46148214D01*
X149419286Y-46148214D02*
X149490714Y-46148214D01*
X149490714Y-46148214D02*
X149597857Y-46183928D01*
X149597857Y-46183928D02*
X149633571Y-46219642D01*
X149955000Y-46898214D02*
X149955000Y-46148214D01*
X149955000Y-46148214D02*
X150240714Y-46148214D01*
X150240714Y-46148214D02*
X150312143Y-46183928D01*
X150312143Y-46183928D02*
X150347857Y-46219642D01*
X150347857Y-46219642D02*
X150383571Y-46291071D01*
X150383571Y-46291071D02*
X150383571Y-46398214D01*
X150383571Y-46398214D02*
X150347857Y-46469642D01*
X150347857Y-46469642D02*
X150312143Y-46505357D01*
X150312143Y-46505357D02*
X150240714Y-46541071D01*
X150240714Y-46541071D02*
X149955000Y-46541071D01*
X150705000Y-46148214D02*
X150705000Y-46755357D01*
X150705000Y-46755357D02*
X150740714Y-46826785D01*
X150740714Y-46826785D02*
X150776429Y-46862500D01*
X150776429Y-46862500D02*
X150847857Y-46898214D01*
X150847857Y-46898214D02*
X150990714Y-46898214D01*
X150990714Y-46898214D02*
X151062143Y-46862500D01*
X151062143Y-46862500D02*
X151097857Y-46826785D01*
X151097857Y-46826785D02*
X151133571Y-46755357D01*
X151133571Y-46755357D02*
X151133571Y-46148214D01*
X151919285Y-46826785D02*
X151883571Y-46862500D01*
X151883571Y-46862500D02*
X151776428Y-46898214D01*
X151776428Y-46898214D02*
X151705000Y-46898214D01*
X151705000Y-46898214D02*
X151597857Y-46862500D01*
X151597857Y-46862500D02*
X151526428Y-46791071D01*
X151526428Y-46791071D02*
X151490714Y-46719642D01*
X151490714Y-46719642D02*
X151455000Y-46576785D01*
X151455000Y-46576785D02*
X151455000Y-46469642D01*
X151455000Y-46469642D02*
X151490714Y-46326785D01*
X151490714Y-46326785D02*
X151526428Y-46255357D01*
X151526428Y-46255357D02*
X151597857Y-46183928D01*
X151597857Y-46183928D02*
X151705000Y-46148214D01*
X151705000Y-46148214D02*
X151776428Y-46148214D01*
X151776428Y-46148214D02*
X151883571Y-46183928D01*
X151883571Y-46183928D02*
X151919285Y-46219642D01*
X152597857Y-46898214D02*
X152240714Y-46898214D01*
X152240714Y-46898214D02*
X152240714Y-46148214D01*
X152847857Y-46898214D02*
X152847857Y-46148214D01*
X153276428Y-46898214D02*
X152955000Y-46469642D01*
X153276428Y-46148214D02*
X152847857Y-46576785D01*
D10*
X168448019Y-52441504D02*
X169257542Y-52441504D01*
X169257542Y-52441504D02*
X169352780Y-52393885D01*
X169352780Y-52393885D02*
X169400400Y-52346266D01*
X169400400Y-52346266D02*
X169448019Y-52251028D01*
X169448019Y-52251028D02*
X169448019Y-52060552D01*
X169448019Y-52060552D02*
X169400400Y-51965314D01*
X169400400Y-51965314D02*
X169352780Y-51917695D01*
X169352780Y-51917695D02*
X169257542Y-51870076D01*
X169257542Y-51870076D02*
X168448019Y-51870076D01*
X169400400Y-51441504D02*
X169448019Y-51298647D01*
X169448019Y-51298647D02*
X169448019Y-51060552D01*
X169448019Y-51060552D02*
X169400400Y-50965314D01*
X169400400Y-50965314D02*
X169352780Y-50917695D01*
X169352780Y-50917695D02*
X169257542Y-50870076D01*
X169257542Y-50870076D02*
X169162304Y-50870076D01*
X169162304Y-50870076D02*
X169067066Y-50917695D01*
X169067066Y-50917695D02*
X169019447Y-50965314D01*
X169019447Y-50965314D02*
X168971828Y-51060552D01*
X168971828Y-51060552D02*
X168924209Y-51251028D01*
X168924209Y-51251028D02*
X168876590Y-51346266D01*
X168876590Y-51346266D02*
X168828971Y-51393885D01*
X168828971Y-51393885D02*
X168733733Y-51441504D01*
X168733733Y-51441504D02*
X168638495Y-51441504D01*
X168638495Y-51441504D02*
X168543257Y-51393885D01*
X168543257Y-51393885D02*
X168495638Y-51346266D01*
X168495638Y-51346266D02*
X168448019Y-51251028D01*
X168448019Y-51251028D02*
X168448019Y-51012933D01*
X168448019Y-51012933D02*
X168495638Y-50870076D01*
X168924209Y-50108171D02*
X168971828Y-49965314D01*
X168971828Y-49965314D02*
X169019447Y-49917695D01*
X169019447Y-49917695D02*
X169114685Y-49870076D01*
X169114685Y-49870076D02*
X169257542Y-49870076D01*
X169257542Y-49870076D02*
X169352780Y-49917695D01*
X169352780Y-49917695D02*
X169400400Y-49965314D01*
X169400400Y-49965314D02*
X169448019Y-50060552D01*
X169448019Y-50060552D02*
X169448019Y-50441504D01*
X169448019Y-50441504D02*
X168448019Y-50441504D01*
X168448019Y-50441504D02*
X168448019Y-50108171D01*
X168448019Y-50108171D02*
X168495638Y-50012933D01*
X168495638Y-50012933D02*
X168543257Y-49965314D01*
X168543257Y-49965314D02*
X168638495Y-49917695D01*
X168638495Y-49917695D02*
X168733733Y-49917695D01*
X168733733Y-49917695D02*
X168828971Y-49965314D01*
X168828971Y-49965314D02*
X168876590Y-50012933D01*
X168876590Y-50012933D02*
X168924209Y-50108171D01*
X168924209Y-50108171D02*
X168924209Y-50441504D01*
X169067066Y-49441504D02*
X169067066Y-48679600D01*
X169352780Y-47631981D02*
X169400400Y-47679600D01*
X169400400Y-47679600D02*
X169448019Y-47822457D01*
X169448019Y-47822457D02*
X169448019Y-47917695D01*
X169448019Y-47917695D02*
X169400400Y-48060552D01*
X169400400Y-48060552D02*
X169305161Y-48155790D01*
X169305161Y-48155790D02*
X169209923Y-48203409D01*
X169209923Y-48203409D02*
X169019447Y-48251028D01*
X169019447Y-48251028D02*
X168876590Y-48251028D01*
X168876590Y-48251028D02*
X168686114Y-48203409D01*
X168686114Y-48203409D02*
X168590876Y-48155790D01*
X168590876Y-48155790D02*
X168495638Y-48060552D01*
X168495638Y-48060552D02*
X168448019Y-47917695D01*
X168448019Y-47917695D02*
X168448019Y-47822457D01*
X168448019Y-47822457D02*
X168495638Y-47679600D01*
X168495638Y-47679600D02*
X168543257Y-47631981D01*
X169400400Y-46489123D02*
X169448019Y-46346266D01*
X169448019Y-46346266D02*
X169448019Y-46108171D01*
X169448019Y-46108171D02*
X169400400Y-46012933D01*
X169400400Y-46012933D02*
X169352780Y-45965314D01*
X169352780Y-45965314D02*
X169257542Y-45917695D01*
X169257542Y-45917695D02*
X169162304Y-45917695D01*
X169162304Y-45917695D02*
X169067066Y-45965314D01*
X169067066Y-45965314D02*
X169019447Y-46012933D01*
X169019447Y-46012933D02*
X168971828Y-46108171D01*
X168971828Y-46108171D02*
X168924209Y-46298647D01*
X168924209Y-46298647D02*
X168876590Y-46393885D01*
X168876590Y-46393885D02*
X168828971Y-46441504D01*
X168828971Y-46441504D02*
X168733733Y-46489123D01*
X168733733Y-46489123D02*
X168638495Y-46489123D01*
X168638495Y-46489123D02*
X168543257Y-46441504D01*
X168543257Y-46441504D02*
X168495638Y-46393885D01*
X168495638Y-46393885D02*
X168448019Y-46298647D01*
X168448019Y-46298647D02*
X168448019Y-46060552D01*
X168448019Y-46060552D02*
X168495638Y-45917695D01*
X169448019Y-45489123D02*
X168448019Y-45489123D01*
X169448019Y-45012933D02*
X168448019Y-45012933D01*
X168448019Y-45012933D02*
X168448019Y-44774838D01*
X168448019Y-44774838D02*
X168495638Y-44631981D01*
X168495638Y-44631981D02*
X168590876Y-44536743D01*
X168590876Y-44536743D02*
X168686114Y-44489124D01*
X168686114Y-44489124D02*
X168876590Y-44441505D01*
X168876590Y-44441505D02*
X169019447Y-44441505D01*
X169019447Y-44441505D02*
X169209923Y-44489124D01*
X169209923Y-44489124D02*
X169305161Y-44536743D01*
X169305161Y-44536743D02*
X169400400Y-44631981D01*
X169400400Y-44631981D02*
X169448019Y-44774838D01*
X169448019Y-44774838D02*
X169448019Y-45012933D01*
X168924209Y-44012933D02*
X168924209Y-43679600D01*
X169448019Y-43536743D02*
X169448019Y-44012933D01*
X169448019Y-44012933D02*
X168448019Y-44012933D01*
X168448019Y-44012933D02*
X168448019Y-43536743D01*
X172232619Y-128809761D02*
X173232619Y-128476428D01*
X173232619Y-128476428D02*
X172232619Y-128143095D01*
X172280238Y-127285952D02*
X172232619Y-127381190D01*
X172232619Y-127381190D02*
X172232619Y-127524047D01*
X172232619Y-127524047D02*
X172280238Y-127666904D01*
X172280238Y-127666904D02*
X172375476Y-127762142D01*
X172375476Y-127762142D02*
X172470714Y-127809761D01*
X172470714Y-127809761D02*
X172661190Y-127857380D01*
X172661190Y-127857380D02*
X172804047Y-127857380D01*
X172804047Y-127857380D02*
X172994523Y-127809761D01*
X172994523Y-127809761D02*
X173089761Y-127762142D01*
X173089761Y-127762142D02*
X173185000Y-127666904D01*
X173185000Y-127666904D02*
X173232619Y-127524047D01*
X173232619Y-127524047D02*
X173232619Y-127428809D01*
X173232619Y-127428809D02*
X173185000Y-127285952D01*
X173185000Y-127285952D02*
X173137380Y-127238333D01*
X173137380Y-127238333D02*
X172804047Y-127238333D01*
X172804047Y-127238333D02*
X172804047Y-127428809D01*
X172946904Y-126857380D02*
X172946904Y-126381190D01*
X173232619Y-126952618D02*
X172232619Y-126619285D01*
X172232619Y-126619285D02*
X173232619Y-126285952D01*
X172232619Y-125000237D02*
X172232619Y-124809761D01*
X172232619Y-124809761D02*
X172280238Y-124714523D01*
X172280238Y-124714523D02*
X172375476Y-124619285D01*
X172375476Y-124619285D02*
X172565952Y-124571666D01*
X172565952Y-124571666D02*
X172899285Y-124571666D01*
X172899285Y-124571666D02*
X173089761Y-124619285D01*
X173089761Y-124619285D02*
X173185000Y-124714523D01*
X173185000Y-124714523D02*
X173232619Y-124809761D01*
X173232619Y-124809761D02*
X173232619Y-125000237D01*
X173232619Y-125000237D02*
X173185000Y-125095475D01*
X173185000Y-125095475D02*
X173089761Y-125190713D01*
X173089761Y-125190713D02*
X172899285Y-125238332D01*
X172899285Y-125238332D02*
X172565952Y-125238332D01*
X172565952Y-125238332D02*
X172375476Y-125190713D01*
X172375476Y-125190713D02*
X172280238Y-125095475D01*
X172280238Y-125095475D02*
X172232619Y-125000237D01*
X172232619Y-124143094D02*
X173042142Y-124143094D01*
X173042142Y-124143094D02*
X173137380Y-124095475D01*
X173137380Y-124095475D02*
X173185000Y-124047856D01*
X173185000Y-124047856D02*
X173232619Y-123952618D01*
X173232619Y-123952618D02*
X173232619Y-123762142D01*
X173232619Y-123762142D02*
X173185000Y-123666904D01*
X173185000Y-123666904D02*
X173137380Y-123619285D01*
X173137380Y-123619285D02*
X173042142Y-123571666D01*
X173042142Y-123571666D02*
X172232619Y-123571666D01*
X172232619Y-123238332D02*
X172232619Y-122666904D01*
X173232619Y-122952618D02*
X172232619Y-122952618D01*
X157667295Y-111129619D02*
X157667295Y-110129619D01*
X157667295Y-110605809D02*
X158238723Y-110605809D01*
X158238723Y-111129619D02*
X158238723Y-110129619D01*
X158714914Y-111129619D02*
X158714914Y-110129619D01*
X158714914Y-110129619D02*
X158953009Y-110129619D01*
X158953009Y-110129619D02*
X159095866Y-110177238D01*
X159095866Y-110177238D02*
X159191104Y-110272476D01*
X159191104Y-110272476D02*
X159238723Y-110367714D01*
X159238723Y-110367714D02*
X159286342Y-110558190D01*
X159286342Y-110558190D02*
X159286342Y-110701047D01*
X159286342Y-110701047D02*
X159238723Y-110891523D01*
X159238723Y-110891523D02*
X159191104Y-110986761D01*
X159191104Y-110986761D02*
X159095866Y-111082000D01*
X159095866Y-111082000D02*
X158953009Y-111129619D01*
X158953009Y-111129619D02*
X158714914Y-111129619D01*
X159714914Y-111129619D02*
X159714914Y-110129619D01*
X159714914Y-110129619D02*
X160048247Y-110843904D01*
X160048247Y-110843904D02*
X160381580Y-110129619D01*
X160381580Y-110129619D02*
X160381580Y-111129619D01*
X160857771Y-111129619D02*
X160857771Y-110129619D01*
X162048247Y-111082000D02*
X162191104Y-111129619D01*
X162191104Y-111129619D02*
X162429199Y-111129619D01*
X162429199Y-111129619D02*
X162524437Y-111082000D01*
X162524437Y-111082000D02*
X162572056Y-111034380D01*
X162572056Y-111034380D02*
X162619675Y-110939142D01*
X162619675Y-110939142D02*
X162619675Y-110843904D01*
X162619675Y-110843904D02*
X162572056Y-110748666D01*
X162572056Y-110748666D02*
X162524437Y-110701047D01*
X162524437Y-110701047D02*
X162429199Y-110653428D01*
X162429199Y-110653428D02*
X162238723Y-110605809D01*
X162238723Y-110605809D02*
X162143485Y-110558190D01*
X162143485Y-110558190D02*
X162095866Y-110510571D01*
X162095866Y-110510571D02*
X162048247Y-110415333D01*
X162048247Y-110415333D02*
X162048247Y-110320095D01*
X162048247Y-110320095D02*
X162095866Y-110224857D01*
X162095866Y-110224857D02*
X162143485Y-110177238D01*
X162143485Y-110177238D02*
X162238723Y-110129619D01*
X162238723Y-110129619D02*
X162476818Y-110129619D01*
X162476818Y-110129619D02*
X162619675Y-110177238D01*
X163048247Y-111129619D02*
X163048247Y-110129619D01*
X163524437Y-111129619D02*
X163524437Y-110129619D01*
X163524437Y-110129619D02*
X163762532Y-110129619D01*
X163762532Y-110129619D02*
X163905389Y-110177238D01*
X163905389Y-110177238D02*
X164000627Y-110272476D01*
X164000627Y-110272476D02*
X164048246Y-110367714D01*
X164048246Y-110367714D02*
X164095865Y-110558190D01*
X164095865Y-110558190D02*
X164095865Y-110701047D01*
X164095865Y-110701047D02*
X164048246Y-110891523D01*
X164048246Y-110891523D02*
X164000627Y-110986761D01*
X164000627Y-110986761D02*
X163905389Y-111082000D01*
X163905389Y-111082000D02*
X163762532Y-111129619D01*
X163762532Y-111129619D02*
X163524437Y-111129619D01*
X164524437Y-110605809D02*
X164857770Y-110605809D01*
X165000627Y-111129619D02*
X164524437Y-111129619D01*
X164524437Y-111129619D02*
X164524437Y-110129619D01*
X164524437Y-110129619D02*
X165000627Y-110129619D01*
X151450657Y-49550619D02*
X152069704Y-49550619D01*
X152069704Y-49550619D02*
X151736371Y-49931571D01*
X151736371Y-49931571D02*
X151879228Y-49931571D01*
X151879228Y-49931571D02*
X151974466Y-49979190D01*
X151974466Y-49979190D02*
X152022085Y-50026809D01*
X152022085Y-50026809D02*
X152069704Y-50122047D01*
X152069704Y-50122047D02*
X152069704Y-50360142D01*
X152069704Y-50360142D02*
X152022085Y-50455380D01*
X152022085Y-50455380D02*
X151974466Y-50503000D01*
X151974466Y-50503000D02*
X151879228Y-50550619D01*
X151879228Y-50550619D02*
X151593514Y-50550619D01*
X151593514Y-50550619D02*
X151498276Y-50503000D01*
X151498276Y-50503000D02*
X151450657Y-50455380D01*
X152641133Y-49979190D02*
X152545895Y-49931571D01*
X152545895Y-49931571D02*
X152498276Y-49883952D01*
X152498276Y-49883952D02*
X152450657Y-49788714D01*
X152450657Y-49788714D02*
X152450657Y-49741095D01*
X152450657Y-49741095D02*
X152498276Y-49645857D01*
X152498276Y-49645857D02*
X152545895Y-49598238D01*
X152545895Y-49598238D02*
X152641133Y-49550619D01*
X152641133Y-49550619D02*
X152831609Y-49550619D01*
X152831609Y-49550619D02*
X152926847Y-49598238D01*
X152926847Y-49598238D02*
X152974466Y-49645857D01*
X152974466Y-49645857D02*
X153022085Y-49741095D01*
X153022085Y-49741095D02*
X153022085Y-49788714D01*
X153022085Y-49788714D02*
X152974466Y-49883952D01*
X152974466Y-49883952D02*
X152926847Y-49931571D01*
X152926847Y-49931571D02*
X152831609Y-49979190D01*
X152831609Y-49979190D02*
X152641133Y-49979190D01*
X152641133Y-49979190D02*
X152545895Y-50026809D01*
X152545895Y-50026809D02*
X152498276Y-50074428D01*
X152498276Y-50074428D02*
X152450657Y-50169666D01*
X152450657Y-50169666D02*
X152450657Y-50360142D01*
X152450657Y-50360142D02*
X152498276Y-50455380D01*
X152498276Y-50455380D02*
X152545895Y-50503000D01*
X152545895Y-50503000D02*
X152641133Y-50550619D01*
X152641133Y-50550619D02*
X152831609Y-50550619D01*
X152831609Y-50550619D02*
X152926847Y-50503000D01*
X152926847Y-50503000D02*
X152974466Y-50455380D01*
X152974466Y-50455380D02*
X153022085Y-50360142D01*
X153022085Y-50360142D02*
X153022085Y-50169666D01*
X153022085Y-50169666D02*
X152974466Y-50074428D01*
X152974466Y-50074428D02*
X152926847Y-50026809D01*
X152926847Y-50026809D02*
X152831609Y-49979190D01*
X170237066Y-49601419D02*
X170046590Y-49601419D01*
X170046590Y-49601419D02*
X169951352Y-49649038D01*
X169951352Y-49649038D02*
X169903733Y-49696657D01*
X169903733Y-49696657D02*
X169808495Y-49839514D01*
X169808495Y-49839514D02*
X169760876Y-50029990D01*
X169760876Y-50029990D02*
X169760876Y-50410942D01*
X169760876Y-50410942D02*
X169808495Y-50506180D01*
X169808495Y-50506180D02*
X169856114Y-50553800D01*
X169856114Y-50553800D02*
X169951352Y-50601419D01*
X169951352Y-50601419D02*
X170141828Y-50601419D01*
X170141828Y-50601419D02*
X170237066Y-50553800D01*
X170237066Y-50553800D02*
X170284685Y-50506180D01*
X170284685Y-50506180D02*
X170332304Y-50410942D01*
X170332304Y-50410942D02*
X170332304Y-50172847D01*
X170332304Y-50172847D02*
X170284685Y-50077609D01*
X170284685Y-50077609D02*
X170237066Y-50029990D01*
X170237066Y-50029990D02*
X170141828Y-49982371D01*
X170141828Y-49982371D02*
X169951352Y-49982371D01*
X169951352Y-49982371D02*
X169856114Y-50029990D01*
X169856114Y-50029990D02*
X169808495Y-50077609D01*
X169808495Y-50077609D02*
X169760876Y-50172847D01*
X170665638Y-49601419D02*
X171284685Y-49601419D01*
X171284685Y-49601419D02*
X170951352Y-49982371D01*
X170951352Y-49982371D02*
X171094209Y-49982371D01*
X171094209Y-49982371D02*
X171189447Y-50029990D01*
X171189447Y-50029990D02*
X171237066Y-50077609D01*
X171237066Y-50077609D02*
X171284685Y-50172847D01*
X171284685Y-50172847D02*
X171284685Y-50410942D01*
X171284685Y-50410942D02*
X171237066Y-50506180D01*
X171237066Y-50506180D02*
X171189447Y-50553800D01*
X171189447Y-50553800D02*
X171094209Y-50601419D01*
X171094209Y-50601419D02*
X170808495Y-50601419D01*
X170808495Y-50601419D02*
X170713257Y-50553800D01*
X170713257Y-50553800D02*
X170665638Y-50506180D01*
D12*
%TO.C,U3*%
X161501800Y-70106609D02*
X161549419Y-69963752D01*
X161549419Y-69963752D02*
X161549419Y-69725657D01*
X161549419Y-69725657D02*
X161501800Y-69630419D01*
X161501800Y-69630419D02*
X161454180Y-69582800D01*
X161454180Y-69582800D02*
X161358942Y-69535181D01*
X161358942Y-69535181D02*
X161263704Y-69535181D01*
X161263704Y-69535181D02*
X161168466Y-69582800D01*
X161168466Y-69582800D02*
X161120847Y-69630419D01*
X161120847Y-69630419D02*
X161073228Y-69725657D01*
X161073228Y-69725657D02*
X161025609Y-69916133D01*
X161025609Y-69916133D02*
X160977990Y-70011371D01*
X160977990Y-70011371D02*
X160930371Y-70058990D01*
X160930371Y-70058990D02*
X160835133Y-70106609D01*
X160835133Y-70106609D02*
X160739895Y-70106609D01*
X160739895Y-70106609D02*
X160644657Y-70058990D01*
X160644657Y-70058990D02*
X160597038Y-70011371D01*
X160597038Y-70011371D02*
X160549419Y-69916133D01*
X160549419Y-69916133D02*
X160549419Y-69678038D01*
X160549419Y-69678038D02*
X160597038Y-69535181D01*
X161549419Y-69106609D02*
X160549419Y-69106609D01*
X160549419Y-69106609D02*
X161549419Y-68535181D01*
X161549419Y-68535181D02*
X160549419Y-68535181D01*
X160549419Y-68154228D02*
X160549419Y-67487562D01*
X160549419Y-67487562D02*
X161549419Y-67916133D01*
X160882752Y-66678038D02*
X161549419Y-66678038D01*
X160501800Y-66916133D02*
X161216085Y-67154228D01*
X161216085Y-67154228D02*
X161216085Y-66535181D01*
X161549419Y-65678038D02*
X161549419Y-66154228D01*
X161549419Y-66154228D02*
X160549419Y-66154228D01*
X160549419Y-65487561D02*
X161549419Y-65154228D01*
X161549419Y-65154228D02*
X160549419Y-64820895D01*
X161454180Y-63916133D02*
X161501800Y-63963752D01*
X161501800Y-63963752D02*
X161549419Y-64106609D01*
X161549419Y-64106609D02*
X161549419Y-64201847D01*
X161549419Y-64201847D02*
X161501800Y-64344704D01*
X161501800Y-64344704D02*
X161406561Y-64439942D01*
X161406561Y-64439942D02*
X161311323Y-64487561D01*
X161311323Y-64487561D02*
X161120847Y-64535180D01*
X161120847Y-64535180D02*
X160977990Y-64535180D01*
X160977990Y-64535180D02*
X160787514Y-64487561D01*
X160787514Y-64487561D02*
X160692276Y-64439942D01*
X160692276Y-64439942D02*
X160597038Y-64344704D01*
X160597038Y-64344704D02*
X160549419Y-64201847D01*
X160549419Y-64201847D02*
X160549419Y-64106609D01*
X160549419Y-64106609D02*
X160597038Y-63963752D01*
X160597038Y-63963752D02*
X160644657Y-63916133D01*
X160644657Y-63535180D02*
X160597038Y-63487561D01*
X160597038Y-63487561D02*
X160549419Y-63392323D01*
X160549419Y-63392323D02*
X160549419Y-63154228D01*
X160549419Y-63154228D02*
X160597038Y-63058990D01*
X160597038Y-63058990D02*
X160644657Y-63011371D01*
X160644657Y-63011371D02*
X160739895Y-62963752D01*
X160739895Y-62963752D02*
X160835133Y-62963752D01*
X160835133Y-62963752D02*
X160977990Y-63011371D01*
X160977990Y-63011371D02*
X161549419Y-63582799D01*
X161549419Y-63582799D02*
X161549419Y-62963752D01*
X160882752Y-62106609D02*
X161549419Y-62106609D01*
X160501800Y-62344704D02*
X161216085Y-62582799D01*
X161216085Y-62582799D02*
X161216085Y-61963752D01*
X160549419Y-61106609D02*
X160549419Y-61582799D01*
X160549419Y-61582799D02*
X161025609Y-61630418D01*
X161025609Y-61630418D02*
X160977990Y-61582799D01*
X160977990Y-61582799D02*
X160930371Y-61487561D01*
X160930371Y-61487561D02*
X160930371Y-61249466D01*
X160930371Y-61249466D02*
X160977990Y-61154228D01*
X160977990Y-61154228D02*
X161025609Y-61106609D01*
X161025609Y-61106609D02*
X161120847Y-61058990D01*
X161120847Y-61058990D02*
X161358942Y-61058990D01*
X161358942Y-61058990D02*
X161454180Y-61106609D01*
X161454180Y-61106609D02*
X161501800Y-61154228D01*
X161501800Y-61154228D02*
X161549419Y-61249466D01*
X161549419Y-61249466D02*
X161549419Y-61487561D01*
X161549419Y-61487561D02*
X161501800Y-61582799D01*
X161501800Y-61582799D02*
X161454180Y-61630418D01*
%TO.C,D1*%
X159784456Y-108195364D02*
X159355885Y-108195364D01*
X159570170Y-108195364D02*
X159570170Y-107445364D01*
X159570170Y-107445364D02*
X159498742Y-107552507D01*
X159498742Y-107552507D02*
X159427313Y-107623935D01*
X159427313Y-107623935D02*
X159355885Y-107659650D01*
X160105885Y-108195364D02*
X160105885Y-107445364D01*
X160105885Y-107445364D02*
X160534456Y-108195364D01*
X160534456Y-108195364D02*
X160534456Y-107445364D01*
X161248742Y-107445364D02*
X160891599Y-107445364D01*
X160891599Y-107445364D02*
X160855885Y-107802507D01*
X160855885Y-107802507D02*
X160891599Y-107766792D01*
X160891599Y-107766792D02*
X160963028Y-107731078D01*
X160963028Y-107731078D02*
X161141599Y-107731078D01*
X161141599Y-107731078D02*
X161213028Y-107766792D01*
X161213028Y-107766792D02*
X161248742Y-107802507D01*
X161248742Y-107802507D02*
X161284456Y-107873935D01*
X161284456Y-107873935D02*
X161284456Y-108052507D01*
X161284456Y-108052507D02*
X161248742Y-108123935D01*
X161248742Y-108123935D02*
X161213028Y-108159650D01*
X161213028Y-108159650D02*
X161141599Y-108195364D01*
X161141599Y-108195364D02*
X160963028Y-108195364D01*
X160963028Y-108195364D02*
X160891599Y-108159650D01*
X160891599Y-108159650D02*
X160855885Y-108123935D01*
X161713028Y-107766792D02*
X161641599Y-107731078D01*
X161641599Y-107731078D02*
X161605885Y-107695364D01*
X161605885Y-107695364D02*
X161570171Y-107623935D01*
X161570171Y-107623935D02*
X161570171Y-107588221D01*
X161570171Y-107588221D02*
X161605885Y-107516792D01*
X161605885Y-107516792D02*
X161641599Y-107481078D01*
X161641599Y-107481078D02*
X161713028Y-107445364D01*
X161713028Y-107445364D02*
X161855885Y-107445364D01*
X161855885Y-107445364D02*
X161927314Y-107481078D01*
X161927314Y-107481078D02*
X161963028Y-107516792D01*
X161963028Y-107516792D02*
X161998742Y-107588221D01*
X161998742Y-107588221D02*
X161998742Y-107623935D01*
X161998742Y-107623935D02*
X161963028Y-107695364D01*
X161963028Y-107695364D02*
X161927314Y-107731078D01*
X161927314Y-107731078D02*
X161855885Y-107766792D01*
X161855885Y-107766792D02*
X161713028Y-107766792D01*
X161713028Y-107766792D02*
X161641599Y-107802507D01*
X161641599Y-107802507D02*
X161605885Y-107838221D01*
X161605885Y-107838221D02*
X161570171Y-107909650D01*
X161570171Y-107909650D02*
X161570171Y-108052507D01*
X161570171Y-108052507D02*
X161605885Y-108123935D01*
X161605885Y-108123935D02*
X161641599Y-108159650D01*
X161641599Y-108159650D02*
X161713028Y-108195364D01*
X161713028Y-108195364D02*
X161855885Y-108195364D01*
X161855885Y-108195364D02*
X161927314Y-108159650D01*
X161927314Y-108159650D02*
X161963028Y-108123935D01*
X161963028Y-108123935D02*
X161998742Y-108052507D01*
X161998742Y-108052507D02*
X161998742Y-107909650D01*
X161998742Y-107909650D02*
X161963028Y-107838221D01*
X161963028Y-107838221D02*
X161927314Y-107802507D01*
X161927314Y-107802507D02*
X161855885Y-107766792D01*
X162713028Y-108195364D02*
X162284457Y-108195364D01*
X162498742Y-108195364D02*
X162498742Y-107445364D01*
X162498742Y-107445364D02*
X162427314Y-107552507D01*
X162427314Y-107552507D02*
X162355885Y-107623935D01*
X162355885Y-107623935D02*
X162284457Y-107659650D01*
X162963028Y-107445364D02*
X163463028Y-107445364D01*
X163463028Y-107445364D02*
X163141600Y-108195364D01*
%TO.C,U2*%
X161796600Y-97178009D02*
X161844219Y-97035152D01*
X161844219Y-97035152D02*
X161844219Y-96797057D01*
X161844219Y-96797057D02*
X161796600Y-96701819D01*
X161796600Y-96701819D02*
X161748980Y-96654200D01*
X161748980Y-96654200D02*
X161653742Y-96606581D01*
X161653742Y-96606581D02*
X161558504Y-96606581D01*
X161558504Y-96606581D02*
X161463266Y-96654200D01*
X161463266Y-96654200D02*
X161415647Y-96701819D01*
X161415647Y-96701819D02*
X161368028Y-96797057D01*
X161368028Y-96797057D02*
X161320409Y-96987533D01*
X161320409Y-96987533D02*
X161272790Y-97082771D01*
X161272790Y-97082771D02*
X161225171Y-97130390D01*
X161225171Y-97130390D02*
X161129933Y-97178009D01*
X161129933Y-97178009D02*
X161034695Y-97178009D01*
X161034695Y-97178009D02*
X160939457Y-97130390D01*
X160939457Y-97130390D02*
X160891838Y-97082771D01*
X160891838Y-97082771D02*
X160844219Y-96987533D01*
X160844219Y-96987533D02*
X160844219Y-96749438D01*
X160844219Y-96749438D02*
X160891838Y-96606581D01*
X161844219Y-96178009D02*
X160844219Y-96178009D01*
X160844219Y-96178009D02*
X161844219Y-95606581D01*
X161844219Y-95606581D02*
X160844219Y-95606581D01*
X160844219Y-95225628D02*
X160844219Y-94558962D01*
X160844219Y-94558962D02*
X161844219Y-94987533D01*
X161177552Y-93749438D02*
X161844219Y-93749438D01*
X160796600Y-93987533D02*
X161510885Y-94225628D01*
X161510885Y-94225628D02*
X161510885Y-93606581D01*
X161844219Y-92749438D02*
X161844219Y-93225628D01*
X161844219Y-93225628D02*
X160844219Y-93225628D01*
X160844219Y-92558961D02*
X161844219Y-92225628D01*
X161844219Y-92225628D02*
X160844219Y-91892295D01*
X161748980Y-90987533D02*
X161796600Y-91035152D01*
X161796600Y-91035152D02*
X161844219Y-91178009D01*
X161844219Y-91178009D02*
X161844219Y-91273247D01*
X161844219Y-91273247D02*
X161796600Y-91416104D01*
X161796600Y-91416104D02*
X161701361Y-91511342D01*
X161701361Y-91511342D02*
X161606123Y-91558961D01*
X161606123Y-91558961D02*
X161415647Y-91606580D01*
X161415647Y-91606580D02*
X161272790Y-91606580D01*
X161272790Y-91606580D02*
X161082314Y-91558961D01*
X161082314Y-91558961D02*
X160987076Y-91511342D01*
X160987076Y-91511342D02*
X160891838Y-91416104D01*
X160891838Y-91416104D02*
X160844219Y-91273247D01*
X160844219Y-91273247D02*
X160844219Y-91178009D01*
X160844219Y-91178009D02*
X160891838Y-91035152D01*
X160891838Y-91035152D02*
X160939457Y-90987533D01*
X160939457Y-90606580D02*
X160891838Y-90558961D01*
X160891838Y-90558961D02*
X160844219Y-90463723D01*
X160844219Y-90463723D02*
X160844219Y-90225628D01*
X160844219Y-90225628D02*
X160891838Y-90130390D01*
X160891838Y-90130390D02*
X160939457Y-90082771D01*
X160939457Y-90082771D02*
X161034695Y-90035152D01*
X161034695Y-90035152D02*
X161129933Y-90035152D01*
X161129933Y-90035152D02*
X161272790Y-90082771D01*
X161272790Y-90082771D02*
X161844219Y-90654199D01*
X161844219Y-90654199D02*
X161844219Y-90035152D01*
X161177552Y-89178009D02*
X161844219Y-89178009D01*
X160796600Y-89416104D02*
X161510885Y-89654199D01*
X161510885Y-89654199D02*
X161510885Y-89035152D01*
X160844219Y-88178009D02*
X160844219Y-88654199D01*
X160844219Y-88654199D02*
X161320409Y-88701818D01*
X161320409Y-88701818D02*
X161272790Y-88654199D01*
X161272790Y-88654199D02*
X161225171Y-88558961D01*
X161225171Y-88558961D02*
X161225171Y-88320866D01*
X161225171Y-88320866D02*
X161272790Y-88225628D01*
X161272790Y-88225628D02*
X161320409Y-88178009D01*
X161320409Y-88178009D02*
X161415647Y-88130390D01*
X161415647Y-88130390D02*
X161653742Y-88130390D01*
X161653742Y-88130390D02*
X161748980Y-88178009D01*
X161748980Y-88178009D02*
X161796600Y-88225628D01*
X161796600Y-88225628D02*
X161844219Y-88320866D01*
X161844219Y-88320866D02*
X161844219Y-88558961D01*
X161844219Y-88558961D02*
X161796600Y-88654199D01*
X161796600Y-88654199D02*
X161748980Y-88701818D01*
%TO.C,U1*%
X157223390Y-117194200D02*
X157366247Y-117241819D01*
X157366247Y-117241819D02*
X157604342Y-117241819D01*
X157604342Y-117241819D02*
X157699580Y-117194200D01*
X157699580Y-117194200D02*
X157747199Y-117146580D01*
X157747199Y-117146580D02*
X157794818Y-117051342D01*
X157794818Y-117051342D02*
X157794818Y-116956104D01*
X157794818Y-116956104D02*
X157747199Y-116860866D01*
X157747199Y-116860866D02*
X157699580Y-116813247D01*
X157699580Y-116813247D02*
X157604342Y-116765628D01*
X157604342Y-116765628D02*
X157413866Y-116718009D01*
X157413866Y-116718009D02*
X157318628Y-116670390D01*
X157318628Y-116670390D02*
X157271009Y-116622771D01*
X157271009Y-116622771D02*
X157223390Y-116527533D01*
X157223390Y-116527533D02*
X157223390Y-116432295D01*
X157223390Y-116432295D02*
X157271009Y-116337057D01*
X157271009Y-116337057D02*
X157318628Y-116289438D01*
X157318628Y-116289438D02*
X157413866Y-116241819D01*
X157413866Y-116241819D02*
X157651961Y-116241819D01*
X157651961Y-116241819D02*
X157794818Y-116289438D01*
X158223390Y-117241819D02*
X158223390Y-116241819D01*
X158223390Y-116241819D02*
X158794818Y-117241819D01*
X158794818Y-117241819D02*
X158794818Y-116241819D01*
X159175771Y-116241819D02*
X159842437Y-116241819D01*
X159842437Y-116241819D02*
X159413866Y-117241819D01*
X160651961Y-116575152D02*
X160651961Y-117241819D01*
X160413866Y-116194200D02*
X160175771Y-116908485D01*
X160175771Y-116908485D02*
X160794818Y-116908485D01*
X161651961Y-117241819D02*
X161175771Y-117241819D01*
X161175771Y-117241819D02*
X161175771Y-116241819D01*
X161842438Y-116241819D02*
X162175771Y-117241819D01*
X162175771Y-117241819D02*
X162509104Y-116241819D01*
X163413866Y-117146580D02*
X163366247Y-117194200D01*
X163366247Y-117194200D02*
X163223390Y-117241819D01*
X163223390Y-117241819D02*
X163128152Y-117241819D01*
X163128152Y-117241819D02*
X162985295Y-117194200D01*
X162985295Y-117194200D02*
X162890057Y-117098961D01*
X162890057Y-117098961D02*
X162842438Y-117003723D01*
X162842438Y-117003723D02*
X162794819Y-116813247D01*
X162794819Y-116813247D02*
X162794819Y-116670390D01*
X162794819Y-116670390D02*
X162842438Y-116479914D01*
X162842438Y-116479914D02*
X162890057Y-116384676D01*
X162890057Y-116384676D02*
X162985295Y-116289438D01*
X162985295Y-116289438D02*
X163128152Y-116241819D01*
X163128152Y-116241819D02*
X163223390Y-116241819D01*
X163223390Y-116241819D02*
X163366247Y-116289438D01*
X163366247Y-116289438D02*
X163413866Y-116337057D01*
X163794819Y-116337057D02*
X163842438Y-116289438D01*
X163842438Y-116289438D02*
X163937676Y-116241819D01*
X163937676Y-116241819D02*
X164175771Y-116241819D01*
X164175771Y-116241819D02*
X164271009Y-116289438D01*
X164271009Y-116289438D02*
X164318628Y-116337057D01*
X164318628Y-116337057D02*
X164366247Y-116432295D01*
X164366247Y-116432295D02*
X164366247Y-116527533D01*
X164366247Y-116527533D02*
X164318628Y-116670390D01*
X164318628Y-116670390D02*
X163747200Y-117241819D01*
X163747200Y-117241819D02*
X164366247Y-117241819D01*
X165223390Y-116575152D02*
X165223390Y-117241819D01*
X164985295Y-116194200D02*
X164747200Y-116908485D01*
X164747200Y-116908485D02*
X165366247Y-116908485D01*
X166223390Y-116241819D02*
X165747200Y-116241819D01*
X165747200Y-116241819D02*
X165699581Y-116718009D01*
X165699581Y-116718009D02*
X165747200Y-116670390D01*
X165747200Y-116670390D02*
X165842438Y-116622771D01*
X165842438Y-116622771D02*
X166080533Y-116622771D01*
X166080533Y-116622771D02*
X166175771Y-116670390D01*
X166175771Y-116670390D02*
X166223390Y-116718009D01*
X166223390Y-116718009D02*
X166271009Y-116813247D01*
X166271009Y-116813247D02*
X166271009Y-117051342D01*
X166271009Y-117051342D02*
X166223390Y-117146580D01*
X166223390Y-117146580D02*
X166175771Y-117194200D01*
X166175771Y-117194200D02*
X166080533Y-117241819D01*
X166080533Y-117241819D02*
X165842438Y-117241819D01*
X165842438Y-117241819D02*
X165747200Y-117194200D01*
X165747200Y-117194200D02*
X165699581Y-117146580D01*
D13*
%TO.C,U3*%
X155948400Y-52005800D02*
X155948400Y-77645800D01*
X155948400Y-77645800D02*
X166448400Y-77645800D01*
X158948400Y-52065800D02*
X158948400Y-77585800D01*
X158948400Y-77585800D02*
X163448400Y-77585800D01*
X160198400Y-52065800D02*
X158948400Y-52065800D01*
X163448400Y-52065800D02*
X162198400Y-52065800D01*
X163448400Y-77585800D02*
X163448400Y-52065800D01*
X166448400Y-52005800D02*
X155948400Y-52005800D01*
X166448400Y-77645800D02*
X166448400Y-52005800D01*
X160198400Y-52065800D02*
G75*
G03*
X162198400Y-52065800I1000000J0D01*
G01*
%TO.C,D1*%
X164826800Y-107848400D02*
X163806800Y-107848400D01*
X163806800Y-109318400D02*
X163806800Y-106378400D01*
X163806800Y-106378400D02*
X158366800Y-106378400D01*
X163026800Y-109318400D02*
X163026800Y-106378400D01*
X162906800Y-109318400D02*
X162906800Y-106378400D01*
X162786800Y-109318400D02*
X162786800Y-106378400D01*
X158366800Y-109318400D02*
X163806800Y-109318400D01*
X158366800Y-106378400D02*
X158366800Y-109318400D01*
X157346800Y-107848400D02*
X158366800Y-107848400D01*
%TO.C,U2*%
X155989200Y-79432800D02*
X155989200Y-105072800D01*
X155989200Y-105072800D02*
X166489200Y-105072800D01*
X158989200Y-79492800D02*
X158989200Y-105012800D01*
X158989200Y-105012800D02*
X163489200Y-105012800D01*
X160239200Y-79492800D02*
X158989200Y-79492800D01*
X163489200Y-79492800D02*
X162239200Y-79492800D01*
X163489200Y-105012800D02*
X163489200Y-79492800D01*
X166489200Y-79432800D02*
X155989200Y-79432800D01*
X166489200Y-105072800D02*
X166489200Y-79432800D01*
X160239200Y-79492800D02*
G75*
G03*
X162239200Y-79492800I1000000J0D01*
G01*
%TO.C,U1*%
X148373400Y-122029200D02*
X174013400Y-122029200D01*
X174013400Y-122029200D02*
X174013400Y-111529200D01*
X148433400Y-119029200D02*
X173953400Y-119029200D01*
X173953400Y-119029200D02*
X173953400Y-114529200D01*
X148433400Y-117779200D02*
X148433400Y-119029200D01*
X148433400Y-114529200D02*
X148433400Y-115779200D01*
X173953400Y-114529200D02*
X148433400Y-114529200D01*
X148373400Y-111529200D02*
X148373400Y-122029200D01*
X174013400Y-111529200D02*
X148373400Y-111529200D01*
X148433400Y-117779200D02*
G75*
G03*
X148433400Y-115779200I0J1000000D01*
G01*
%TO.C,J3*%
X148547300Y-51470400D02*
X148547300Y-109950400D01*
X148547300Y-51470400D02*
X151207300Y-51470400D01*
X148547300Y-109950400D02*
X151207300Y-109950400D01*
X149877300Y-48870400D02*
X151207300Y-48870400D01*
X151207300Y-48870400D02*
X151207300Y-50200400D01*
X151207300Y-51470400D02*
X151207300Y-109950400D01*
%TO.C,J5*%
X167399200Y-42578000D02*
X166089200Y-42578000D01*
X167399200Y-42578000D02*
X167399200Y-43961000D01*
X167159200Y-42818000D02*
X166089200Y-42818000D01*
X167159200Y-42818000D02*
X167159200Y-49639000D01*
X164009200Y-42818000D02*
X163498200Y-42818000D01*
X161519200Y-42818000D02*
X160958200Y-42818000D01*
X158979200Y-42818000D02*
X158418200Y-42818000D01*
X156439200Y-42818000D02*
X155319200Y-42818000D01*
X155319200Y-42818000D02*
X155319200Y-49639000D01*
X165684200Y-44418000D02*
X164414200Y-44418000D01*
X165564200Y-44418000D02*
X165564200Y-45624667D01*
X165444200Y-44418000D02*
X165444200Y-45624667D01*
X165324200Y-44418000D02*
X165324200Y-45624667D01*
X165204200Y-44418000D02*
X165204200Y-45624667D01*
X165084200Y-44418000D02*
X165084200Y-45624667D01*
X164964200Y-44418000D02*
X164964200Y-45624667D01*
X164844200Y-44418000D02*
X164844200Y-45624667D01*
X164724200Y-44418000D02*
X164724200Y-45624667D01*
X164604200Y-44418000D02*
X164604200Y-45624667D01*
X164484200Y-44418000D02*
X164484200Y-45624667D01*
X164414200Y-44418000D02*
X164414200Y-48038000D01*
X163144200Y-44418000D02*
X161874200Y-44418000D01*
X163024200Y-44418000D02*
X163024200Y-45624667D01*
X162904200Y-44418000D02*
X162904200Y-45624667D01*
X162784200Y-44418000D02*
X162784200Y-45624667D01*
X162664200Y-44418000D02*
X162664200Y-45624667D01*
X162544200Y-44418000D02*
X162544200Y-45624667D01*
X162424200Y-44418000D02*
X162424200Y-45624667D01*
X162304200Y-44418000D02*
X162304200Y-45624667D01*
X162184200Y-44418000D02*
X162184200Y-45624667D01*
X162064200Y-44418000D02*
X162064200Y-45624667D01*
X161944200Y-44418000D02*
X161944200Y-45624667D01*
X161874200Y-44418000D02*
X161874200Y-48038000D01*
X160604200Y-44418000D02*
X159334200Y-44418000D01*
X160484200Y-44418000D02*
X160484200Y-45624667D01*
X160364200Y-44418000D02*
X160364200Y-45624667D01*
X160244200Y-44418000D02*
X160244200Y-45624667D01*
X160124200Y-44418000D02*
X160124200Y-45624667D01*
X160004200Y-44418000D02*
X160004200Y-45624667D01*
X159884200Y-44418000D02*
X159884200Y-45624667D01*
X159764200Y-44418000D02*
X159764200Y-45624667D01*
X159644200Y-44418000D02*
X159644200Y-45624667D01*
X159524200Y-44418000D02*
X159524200Y-45624667D01*
X159404200Y-44418000D02*
X159404200Y-45624667D01*
X159334200Y-44418000D02*
X159334200Y-48038000D01*
X158064200Y-44418000D02*
X156794200Y-44418000D01*
X157944200Y-44418000D02*
X157944200Y-45624667D01*
X157824200Y-44418000D02*
X157824200Y-45624667D01*
X157704200Y-44418000D02*
X157704200Y-45624667D01*
X157584200Y-44418000D02*
X157584200Y-45624667D01*
X157464200Y-44418000D02*
X157464200Y-45624667D01*
X157344200Y-44418000D02*
X157344200Y-45624667D01*
X157224200Y-44418000D02*
X157224200Y-45624667D01*
X157104200Y-44418000D02*
X157104200Y-45624667D01*
X156984200Y-44418000D02*
X156984200Y-45624667D01*
X156864200Y-44418000D02*
X156864200Y-45624667D01*
X156794200Y-44418000D02*
X156794200Y-48038000D01*
X165684200Y-45624667D02*
X164414200Y-45624667D01*
X163144200Y-45624667D02*
X161874200Y-45624667D01*
X160604200Y-45624667D02*
X159334200Y-45624667D01*
X158064200Y-45624667D02*
X156794200Y-45624667D01*
X165684200Y-48038000D02*
X165684200Y-44418000D01*
X164414200Y-48038000D02*
X165684200Y-48038000D01*
X163144200Y-48038000D02*
X163144200Y-44418000D01*
X161874200Y-48038000D02*
X163144200Y-48038000D01*
X160604200Y-48038000D02*
X160604200Y-44418000D01*
X159334200Y-48038000D02*
X160604200Y-48038000D01*
X158064200Y-48038000D02*
X158064200Y-44418000D01*
X156794200Y-48038000D02*
X158064200Y-48038000D01*
X167159200Y-49639000D02*
X166039200Y-49639000D01*
X164059200Y-49639000D02*
X163498200Y-49639000D01*
X161519200Y-49639000D02*
X160958200Y-49639000D01*
X158979200Y-49639000D02*
X158418200Y-49639000D01*
X156439200Y-49639000D02*
X155319200Y-49639000D01*
%TO.C,J6*%
X151070000Y-128330000D02*
X151070000Y-127000000D01*
X152400000Y-128330000D02*
X151070000Y-128330000D01*
X153670000Y-128330000D02*
X171510000Y-128330000D01*
X153670000Y-128330000D02*
X153670000Y-125730000D01*
X171510000Y-128330000D02*
X171510000Y-123130000D01*
X151070000Y-125730000D02*
X151070000Y-123130000D01*
X153670000Y-125730000D02*
X151070000Y-125730000D01*
X151070000Y-123130000D02*
X171510000Y-123130000D01*
%TO.C,J4*%
X171364200Y-51470400D02*
X171364200Y-109950400D01*
X171364200Y-51470400D02*
X174024200Y-51470400D01*
X171364200Y-109950400D02*
X174024200Y-109950400D01*
X172694200Y-48870400D02*
X174024200Y-48870400D01*
X174024200Y-48870400D02*
X174024200Y-50200400D01*
X174024200Y-51470400D02*
X174024200Y-109950400D01*
%TD*%
M02*
