%TF.GenerationSoftware,KiCad,Pcbnew,7.0.1*%
%TF.CreationDate,2023-04-24T00:42:08-07:00*%
%TF.ProjectId,TN9K_F18A,544e394b-5f46-4313-9841-2e6b69636164,rev?*%
%TF.SameCoordinates,Original*%
%TF.FileFunction,Legend,Bot*%
%TF.FilePolarity,Positive*%
%FSLAX46Y46*%
G04 Gerber Fmt 4.6, Leading zero omitted, Abs format (unit mm)*
G04 Created by KiCad (PCBNEW 7.0.1) date 2023-04-24 00:42:08*
%MOMM*%
%LPD*%
G01*
G04 APERTURE LIST*
%ADD10C,0.250000*%
%ADD11C,0.120000*%
G04 APERTURE END LIST*
D10*
X169259333Y-53363752D02*
X169259333Y-54030419D01*
X169497428Y-52982800D02*
X169735523Y-53697085D01*
X169735523Y-53697085D02*
X169116476Y-53697085D01*
X168545047Y-53030419D02*
X168449809Y-53030419D01*
X168449809Y-53030419D02*
X168354571Y-53078038D01*
X168354571Y-53078038D02*
X168306952Y-53125657D01*
X168306952Y-53125657D02*
X168259333Y-53220895D01*
X168259333Y-53220895D02*
X168211714Y-53411371D01*
X168211714Y-53411371D02*
X168211714Y-53649466D01*
X168211714Y-53649466D02*
X168259333Y-53839942D01*
X168259333Y-53839942D02*
X168306952Y-53935180D01*
X168306952Y-53935180D02*
X168354571Y-53982800D01*
X168354571Y-53982800D02*
X168449809Y-54030419D01*
X168449809Y-54030419D02*
X168545047Y-54030419D01*
X168545047Y-54030419D02*
X168640285Y-53982800D01*
X168640285Y-53982800D02*
X168687904Y-53935180D01*
X168687904Y-53935180D02*
X168735523Y-53839942D01*
X168735523Y-53839942D02*
X168783142Y-53649466D01*
X168783142Y-53649466D02*
X168783142Y-53411371D01*
X168783142Y-53411371D02*
X168735523Y-53220895D01*
X168735523Y-53220895D02*
X168687904Y-53125657D01*
X168687904Y-53125657D02*
X168640285Y-53078038D01*
X168640285Y-53078038D02*
X168545047Y-53030419D01*
X153619295Y-54030419D02*
X154190723Y-54030419D01*
X153905009Y-54030419D02*
X153905009Y-53030419D01*
X153905009Y-53030419D02*
X154000247Y-53173276D01*
X154000247Y-53173276D02*
X154095485Y-53268514D01*
X154095485Y-53268514D02*
X154190723Y-53316133D01*
X160802619Y-77565238D02*
X160802619Y-78136666D01*
X161802619Y-77850952D02*
X160802619Y-77850952D01*
X161802619Y-78470000D02*
X160802619Y-78470000D01*
X160802619Y-78470000D02*
X161516904Y-78803333D01*
X161516904Y-78803333D02*
X160802619Y-79136666D01*
X160802619Y-79136666D02*
X161802619Y-79136666D01*
X161755000Y-79565238D02*
X161802619Y-79708095D01*
X161802619Y-79708095D02*
X161802619Y-79946190D01*
X161802619Y-79946190D02*
X161755000Y-80041428D01*
X161755000Y-80041428D02*
X161707380Y-80089047D01*
X161707380Y-80089047D02*
X161612142Y-80136666D01*
X161612142Y-80136666D02*
X161516904Y-80136666D01*
X161516904Y-80136666D02*
X161421666Y-80089047D01*
X161421666Y-80089047D02*
X161374047Y-80041428D01*
X161374047Y-80041428D02*
X161326428Y-79946190D01*
X161326428Y-79946190D02*
X161278809Y-79755714D01*
X161278809Y-79755714D02*
X161231190Y-79660476D01*
X161231190Y-79660476D02*
X161183571Y-79612857D01*
X161183571Y-79612857D02*
X161088333Y-79565238D01*
X161088333Y-79565238D02*
X160993095Y-79565238D01*
X160993095Y-79565238D02*
X160897857Y-79612857D01*
X160897857Y-79612857D02*
X160850238Y-79660476D01*
X160850238Y-79660476D02*
X160802619Y-79755714D01*
X160802619Y-79755714D02*
X160802619Y-79993809D01*
X160802619Y-79993809D02*
X160850238Y-80136666D01*
X161802619Y-80612857D02*
X161802619Y-80803333D01*
X161802619Y-80803333D02*
X161755000Y-80898571D01*
X161755000Y-80898571D02*
X161707380Y-80946190D01*
X161707380Y-80946190D02*
X161564523Y-81041428D01*
X161564523Y-81041428D02*
X161374047Y-81089047D01*
X161374047Y-81089047D02*
X160993095Y-81089047D01*
X160993095Y-81089047D02*
X160897857Y-81041428D01*
X160897857Y-81041428D02*
X160850238Y-80993809D01*
X160850238Y-80993809D02*
X160802619Y-80898571D01*
X160802619Y-80898571D02*
X160802619Y-80708095D01*
X160802619Y-80708095D02*
X160850238Y-80612857D01*
X160850238Y-80612857D02*
X160897857Y-80565238D01*
X160897857Y-80565238D02*
X160993095Y-80517619D01*
X160993095Y-80517619D02*
X161231190Y-80517619D01*
X161231190Y-80517619D02*
X161326428Y-80565238D01*
X161326428Y-80565238D02*
X161374047Y-80612857D01*
X161374047Y-80612857D02*
X161421666Y-80708095D01*
X161421666Y-80708095D02*
X161421666Y-80898571D01*
X161421666Y-80898571D02*
X161374047Y-80993809D01*
X161374047Y-80993809D02*
X161326428Y-81041428D01*
X161326428Y-81041428D02*
X161231190Y-81089047D01*
X161802619Y-82041428D02*
X161802619Y-81470000D01*
X161802619Y-81755714D02*
X160802619Y-81755714D01*
X160802619Y-81755714D02*
X160945476Y-81660476D01*
X160945476Y-81660476D02*
X161040714Y-81565238D01*
X161040714Y-81565238D02*
X161088333Y-81470000D01*
X160802619Y-82374762D02*
X161802619Y-83041428D01*
X160802619Y-83041428D02*
X161802619Y-82374762D01*
X161231190Y-83565238D02*
X161183571Y-83470000D01*
X161183571Y-83470000D02*
X161135952Y-83422381D01*
X161135952Y-83422381D02*
X161040714Y-83374762D01*
X161040714Y-83374762D02*
X160993095Y-83374762D01*
X160993095Y-83374762D02*
X160897857Y-83422381D01*
X160897857Y-83422381D02*
X160850238Y-83470000D01*
X160850238Y-83470000D02*
X160802619Y-83565238D01*
X160802619Y-83565238D02*
X160802619Y-83755714D01*
X160802619Y-83755714D02*
X160850238Y-83850952D01*
X160850238Y-83850952D02*
X160897857Y-83898571D01*
X160897857Y-83898571D02*
X160993095Y-83946190D01*
X160993095Y-83946190D02*
X161040714Y-83946190D01*
X161040714Y-83946190D02*
X161135952Y-83898571D01*
X161135952Y-83898571D02*
X161183571Y-83850952D01*
X161183571Y-83850952D02*
X161231190Y-83755714D01*
X161231190Y-83755714D02*
X161231190Y-83565238D01*
X161231190Y-83565238D02*
X161278809Y-83470000D01*
X161278809Y-83470000D02*
X161326428Y-83422381D01*
X161326428Y-83422381D02*
X161421666Y-83374762D01*
X161421666Y-83374762D02*
X161612142Y-83374762D01*
X161612142Y-83374762D02*
X161707380Y-83422381D01*
X161707380Y-83422381D02*
X161755000Y-83470000D01*
X161755000Y-83470000D02*
X161802619Y-83565238D01*
X161802619Y-83565238D02*
X161802619Y-83755714D01*
X161802619Y-83755714D02*
X161755000Y-83850952D01*
X161755000Y-83850952D02*
X161707380Y-83898571D01*
X161707380Y-83898571D02*
X161612142Y-83946190D01*
X161612142Y-83946190D02*
X161421666Y-83946190D01*
X161421666Y-83946190D02*
X161326428Y-83898571D01*
X161326428Y-83898571D02*
X161278809Y-83850952D01*
X161278809Y-83850952D02*
X161231190Y-83755714D01*
X161516904Y-84327143D02*
X161516904Y-84803333D01*
X161802619Y-84231905D02*
X160802619Y-84565238D01*
X160802619Y-84565238D02*
X161802619Y-84898571D01*
X169449761Y-46787619D02*
X168878333Y-46787619D01*
X169164047Y-47787619D02*
X169164047Y-46787619D01*
X168592618Y-47501904D02*
X168116428Y-47501904D01*
X168687856Y-47787619D02*
X168354523Y-46787619D01*
X168354523Y-46787619D02*
X168021190Y-47787619D01*
X167687856Y-47787619D02*
X167687856Y-46787619D01*
X167687856Y-46787619D02*
X167116428Y-47787619D01*
X167116428Y-47787619D02*
X167116428Y-46787619D01*
X166116428Y-46835238D02*
X166211666Y-46787619D01*
X166211666Y-46787619D02*
X166354523Y-46787619D01*
X166354523Y-46787619D02*
X166497380Y-46835238D01*
X166497380Y-46835238D02*
X166592618Y-46930476D01*
X166592618Y-46930476D02*
X166640237Y-47025714D01*
X166640237Y-47025714D02*
X166687856Y-47216190D01*
X166687856Y-47216190D02*
X166687856Y-47359047D01*
X166687856Y-47359047D02*
X166640237Y-47549523D01*
X166640237Y-47549523D02*
X166592618Y-47644761D01*
X166592618Y-47644761D02*
X166497380Y-47740000D01*
X166497380Y-47740000D02*
X166354523Y-47787619D01*
X166354523Y-47787619D02*
X166259285Y-47787619D01*
X166259285Y-47787619D02*
X166116428Y-47740000D01*
X166116428Y-47740000D02*
X166068809Y-47692380D01*
X166068809Y-47692380D02*
X166068809Y-47359047D01*
X166068809Y-47359047D02*
X166259285Y-47359047D01*
X164878332Y-47787619D02*
X164878332Y-46787619D01*
X164878332Y-46787619D02*
X164306904Y-47787619D01*
X164306904Y-47787619D02*
X164306904Y-46787619D01*
X163878332Y-47501904D02*
X163402142Y-47501904D01*
X163973570Y-47787619D02*
X163640237Y-46787619D01*
X163640237Y-46787619D02*
X163306904Y-47787619D01*
X162973570Y-47787619D02*
X162973570Y-46787619D01*
X162973570Y-46787619D02*
X162402142Y-47787619D01*
X162402142Y-47787619D02*
X162402142Y-46787619D01*
X161735475Y-46787619D02*
X161544999Y-46787619D01*
X161544999Y-46787619D02*
X161449761Y-46835238D01*
X161449761Y-46835238D02*
X161354523Y-46930476D01*
X161354523Y-46930476D02*
X161306904Y-47120952D01*
X161306904Y-47120952D02*
X161306904Y-47454285D01*
X161306904Y-47454285D02*
X161354523Y-47644761D01*
X161354523Y-47644761D02*
X161449761Y-47740000D01*
X161449761Y-47740000D02*
X161544999Y-47787619D01*
X161544999Y-47787619D02*
X161735475Y-47787619D01*
X161735475Y-47787619D02*
X161830713Y-47740000D01*
X161830713Y-47740000D02*
X161925951Y-47644761D01*
X161925951Y-47644761D02*
X161973570Y-47454285D01*
X161973570Y-47454285D02*
X161973570Y-47120952D01*
X161973570Y-47120952D02*
X161925951Y-46930476D01*
X161925951Y-46930476D02*
X161830713Y-46835238D01*
X161830713Y-46835238D02*
X161735475Y-46787619D01*
X160068808Y-47787619D02*
X159878332Y-47787619D01*
X159878332Y-47787619D02*
X159783094Y-47740000D01*
X159783094Y-47740000D02*
X159735475Y-47692380D01*
X159735475Y-47692380D02*
X159640237Y-47549523D01*
X159640237Y-47549523D02*
X159592618Y-47359047D01*
X159592618Y-47359047D02*
X159592618Y-46978095D01*
X159592618Y-46978095D02*
X159640237Y-46882857D01*
X159640237Y-46882857D02*
X159687856Y-46835238D01*
X159687856Y-46835238D02*
X159783094Y-46787619D01*
X159783094Y-46787619D02*
X159973570Y-46787619D01*
X159973570Y-46787619D02*
X160068808Y-46835238D01*
X160068808Y-46835238D02*
X160116427Y-46882857D01*
X160116427Y-46882857D02*
X160164046Y-46978095D01*
X160164046Y-46978095D02*
X160164046Y-47216190D01*
X160164046Y-47216190D02*
X160116427Y-47311428D01*
X160116427Y-47311428D02*
X160068808Y-47359047D01*
X160068808Y-47359047D02*
X159973570Y-47406666D01*
X159973570Y-47406666D02*
X159783094Y-47406666D01*
X159783094Y-47406666D02*
X159687856Y-47359047D01*
X159687856Y-47359047D02*
X159640237Y-47311428D01*
X159640237Y-47311428D02*
X159592618Y-47216190D01*
X159164046Y-47787619D02*
X159164046Y-46787619D01*
X158592618Y-47787619D02*
X159021189Y-47216190D01*
X158592618Y-46787619D02*
X159164046Y-47359047D01*
X157068808Y-47263809D02*
X157402141Y-47263809D01*
X157402141Y-47787619D02*
X157402141Y-46787619D01*
X157402141Y-46787619D02*
X156925951Y-46787619D01*
X156021189Y-47787619D02*
X156592617Y-47787619D01*
X156306903Y-47787619D02*
X156306903Y-46787619D01*
X156306903Y-46787619D02*
X156402141Y-46930476D01*
X156402141Y-46930476D02*
X156497379Y-47025714D01*
X156497379Y-47025714D02*
X156592617Y-47073333D01*
X155449760Y-47216190D02*
X155544998Y-47168571D01*
X155544998Y-47168571D02*
X155592617Y-47120952D01*
X155592617Y-47120952D02*
X155640236Y-47025714D01*
X155640236Y-47025714D02*
X155640236Y-46978095D01*
X155640236Y-46978095D02*
X155592617Y-46882857D01*
X155592617Y-46882857D02*
X155544998Y-46835238D01*
X155544998Y-46835238D02*
X155449760Y-46787619D01*
X155449760Y-46787619D02*
X155259284Y-46787619D01*
X155259284Y-46787619D02*
X155164046Y-46835238D01*
X155164046Y-46835238D02*
X155116427Y-46882857D01*
X155116427Y-46882857D02*
X155068808Y-46978095D01*
X155068808Y-46978095D02*
X155068808Y-47025714D01*
X155068808Y-47025714D02*
X155116427Y-47120952D01*
X155116427Y-47120952D02*
X155164046Y-47168571D01*
X155164046Y-47168571D02*
X155259284Y-47216190D01*
X155259284Y-47216190D02*
X155449760Y-47216190D01*
X155449760Y-47216190D02*
X155544998Y-47263809D01*
X155544998Y-47263809D02*
X155592617Y-47311428D01*
X155592617Y-47311428D02*
X155640236Y-47406666D01*
X155640236Y-47406666D02*
X155640236Y-47597142D01*
X155640236Y-47597142D02*
X155592617Y-47692380D01*
X155592617Y-47692380D02*
X155544998Y-47740000D01*
X155544998Y-47740000D02*
X155449760Y-47787619D01*
X155449760Y-47787619D02*
X155259284Y-47787619D01*
X155259284Y-47787619D02*
X155164046Y-47740000D01*
X155164046Y-47740000D02*
X155116427Y-47692380D01*
X155116427Y-47692380D02*
X155068808Y-47597142D01*
X155068808Y-47597142D02*
X155068808Y-47406666D01*
X155068808Y-47406666D02*
X155116427Y-47311428D01*
X155116427Y-47311428D02*
X155164046Y-47263809D01*
X155164046Y-47263809D02*
X155259284Y-47216190D01*
X154687855Y-47501904D02*
X154211665Y-47501904D01*
X154783093Y-47787619D02*
X154449760Y-46787619D01*
X154449760Y-46787619D02*
X154116427Y-47787619D01*
X169354523Y-48502857D02*
X169306904Y-48455238D01*
X169306904Y-48455238D02*
X169211666Y-48407619D01*
X169211666Y-48407619D02*
X168973571Y-48407619D01*
X168973571Y-48407619D02*
X168878333Y-48455238D01*
X168878333Y-48455238D02*
X168830714Y-48502857D01*
X168830714Y-48502857D02*
X168783095Y-48598095D01*
X168783095Y-48598095D02*
X168783095Y-48693333D01*
X168783095Y-48693333D02*
X168830714Y-48836190D01*
X168830714Y-48836190D02*
X169402142Y-49407619D01*
X169402142Y-49407619D02*
X168783095Y-49407619D01*
X168164047Y-48407619D02*
X168068809Y-48407619D01*
X168068809Y-48407619D02*
X167973571Y-48455238D01*
X167973571Y-48455238D02*
X167925952Y-48502857D01*
X167925952Y-48502857D02*
X167878333Y-48598095D01*
X167878333Y-48598095D02*
X167830714Y-48788571D01*
X167830714Y-48788571D02*
X167830714Y-49026666D01*
X167830714Y-49026666D02*
X167878333Y-49217142D01*
X167878333Y-49217142D02*
X167925952Y-49312380D01*
X167925952Y-49312380D02*
X167973571Y-49360000D01*
X167973571Y-49360000D02*
X168068809Y-49407619D01*
X168068809Y-49407619D02*
X168164047Y-49407619D01*
X168164047Y-49407619D02*
X168259285Y-49360000D01*
X168259285Y-49360000D02*
X168306904Y-49312380D01*
X168306904Y-49312380D02*
X168354523Y-49217142D01*
X168354523Y-49217142D02*
X168402142Y-49026666D01*
X168402142Y-49026666D02*
X168402142Y-48788571D01*
X168402142Y-48788571D02*
X168354523Y-48598095D01*
X168354523Y-48598095D02*
X168306904Y-48502857D01*
X168306904Y-48502857D02*
X168259285Y-48455238D01*
X168259285Y-48455238D02*
X168164047Y-48407619D01*
X167449761Y-48502857D02*
X167402142Y-48455238D01*
X167402142Y-48455238D02*
X167306904Y-48407619D01*
X167306904Y-48407619D02*
X167068809Y-48407619D01*
X167068809Y-48407619D02*
X166973571Y-48455238D01*
X166973571Y-48455238D02*
X166925952Y-48502857D01*
X166925952Y-48502857D02*
X166878333Y-48598095D01*
X166878333Y-48598095D02*
X166878333Y-48693333D01*
X166878333Y-48693333D02*
X166925952Y-48836190D01*
X166925952Y-48836190D02*
X167497380Y-49407619D01*
X167497380Y-49407619D02*
X166878333Y-49407619D01*
X166544999Y-48407619D02*
X165925952Y-48407619D01*
X165925952Y-48407619D02*
X166259285Y-48788571D01*
X166259285Y-48788571D02*
X166116428Y-48788571D01*
X166116428Y-48788571D02*
X166021190Y-48836190D01*
X166021190Y-48836190D02*
X165973571Y-48883809D01*
X165973571Y-48883809D02*
X165925952Y-48979047D01*
X165925952Y-48979047D02*
X165925952Y-49217142D01*
X165925952Y-49217142D02*
X165973571Y-49312380D01*
X165973571Y-49312380D02*
X166021190Y-49360000D01*
X166021190Y-49360000D02*
X166116428Y-49407619D01*
X166116428Y-49407619D02*
X166402142Y-49407619D01*
X166402142Y-49407619D02*
X166497380Y-49360000D01*
X166497380Y-49360000D02*
X166544999Y-49312380D01*
X164259285Y-49407619D02*
X164735475Y-49407619D01*
X164735475Y-49407619D02*
X164735475Y-48407619D01*
X163925951Y-48407619D02*
X163925951Y-49217142D01*
X163925951Y-49217142D02*
X163878332Y-49312380D01*
X163878332Y-49312380D02*
X163830713Y-49360000D01*
X163830713Y-49360000D02*
X163735475Y-49407619D01*
X163735475Y-49407619D02*
X163544999Y-49407619D01*
X163544999Y-49407619D02*
X163449761Y-49360000D01*
X163449761Y-49360000D02*
X163402142Y-49312380D01*
X163402142Y-49312380D02*
X163354523Y-49217142D01*
X163354523Y-49217142D02*
X163354523Y-48407619D01*
X162878332Y-49407619D02*
X162878332Y-48407619D01*
X162449761Y-49360000D02*
X162306904Y-49407619D01*
X162306904Y-49407619D02*
X162068809Y-49407619D01*
X162068809Y-49407619D02*
X161973571Y-49360000D01*
X161973571Y-49360000D02*
X161925952Y-49312380D01*
X161925952Y-49312380D02*
X161878333Y-49217142D01*
X161878333Y-49217142D02*
X161878333Y-49121904D01*
X161878333Y-49121904D02*
X161925952Y-49026666D01*
X161925952Y-49026666D02*
X161973571Y-48979047D01*
X161973571Y-48979047D02*
X162068809Y-48931428D01*
X162068809Y-48931428D02*
X162259285Y-48883809D01*
X162259285Y-48883809D02*
X162354523Y-48836190D01*
X162354523Y-48836190D02*
X162402142Y-48788571D01*
X162402142Y-48788571D02*
X162449761Y-48693333D01*
X162449761Y-48693333D02*
X162449761Y-48598095D01*
X162449761Y-48598095D02*
X162402142Y-48502857D01*
X162402142Y-48502857D02*
X162354523Y-48455238D01*
X162354523Y-48455238D02*
X162259285Y-48407619D01*
X162259285Y-48407619D02*
X162021190Y-48407619D01*
X162021190Y-48407619D02*
X161878333Y-48455238D01*
X160735475Y-49121904D02*
X160259285Y-49121904D01*
X160830713Y-49407619D02*
X160497380Y-48407619D01*
X160497380Y-48407619D02*
X160164047Y-49407619D01*
X159830713Y-49407619D02*
X159830713Y-48407619D01*
X159830713Y-48407619D02*
X159259285Y-49407619D01*
X159259285Y-49407619D02*
X159259285Y-48407619D01*
X158925951Y-48407619D02*
X158354523Y-48407619D01*
X158640237Y-49407619D02*
X158640237Y-48407619D01*
X157830713Y-48407619D02*
X157640237Y-48407619D01*
X157640237Y-48407619D02*
X157544999Y-48455238D01*
X157544999Y-48455238D02*
X157449761Y-48550476D01*
X157449761Y-48550476D02*
X157402142Y-48740952D01*
X157402142Y-48740952D02*
X157402142Y-49074285D01*
X157402142Y-49074285D02*
X157449761Y-49264761D01*
X157449761Y-49264761D02*
X157544999Y-49360000D01*
X157544999Y-49360000D02*
X157640237Y-49407619D01*
X157640237Y-49407619D02*
X157830713Y-49407619D01*
X157830713Y-49407619D02*
X157925951Y-49360000D01*
X157925951Y-49360000D02*
X158021189Y-49264761D01*
X158021189Y-49264761D02*
X158068808Y-49074285D01*
X158068808Y-49074285D02*
X158068808Y-48740952D01*
X158068808Y-48740952D02*
X158021189Y-48550476D01*
X158021189Y-48550476D02*
X157925951Y-48455238D01*
X157925951Y-48455238D02*
X157830713Y-48407619D01*
X156973570Y-49407619D02*
X156973570Y-48407619D01*
X156973570Y-48407619D02*
X156402142Y-49407619D01*
X156402142Y-49407619D02*
X156402142Y-48407619D01*
X155925951Y-49407619D02*
X155925951Y-48407619D01*
X155259285Y-48407619D02*
X155068809Y-48407619D01*
X155068809Y-48407619D02*
X154973571Y-48455238D01*
X154973571Y-48455238D02*
X154878333Y-48550476D01*
X154878333Y-48550476D02*
X154830714Y-48740952D01*
X154830714Y-48740952D02*
X154830714Y-49074285D01*
X154830714Y-49074285D02*
X154878333Y-49264761D01*
X154878333Y-49264761D02*
X154973571Y-49360000D01*
X154973571Y-49360000D02*
X155068809Y-49407619D01*
X155068809Y-49407619D02*
X155259285Y-49407619D01*
X155259285Y-49407619D02*
X155354523Y-49360000D01*
X155354523Y-49360000D02*
X155449761Y-49264761D01*
X155449761Y-49264761D02*
X155497380Y-49074285D01*
X155497380Y-49074285D02*
X155497380Y-48740952D01*
X155497380Y-48740952D02*
X155449761Y-48550476D01*
X155449761Y-48550476D02*
X155354523Y-48455238D01*
X155354523Y-48455238D02*
X155259285Y-48407619D01*
X154449761Y-49360000D02*
X154306904Y-49407619D01*
X154306904Y-49407619D02*
X154068809Y-49407619D01*
X154068809Y-49407619D02*
X153973571Y-49360000D01*
X153973571Y-49360000D02*
X153925952Y-49312380D01*
X153925952Y-49312380D02*
X153878333Y-49217142D01*
X153878333Y-49217142D02*
X153878333Y-49121904D01*
X153878333Y-49121904D02*
X153925952Y-49026666D01*
X153925952Y-49026666D02*
X153973571Y-48979047D01*
X153973571Y-48979047D02*
X154068809Y-48931428D01*
X154068809Y-48931428D02*
X154259285Y-48883809D01*
X154259285Y-48883809D02*
X154354523Y-48836190D01*
X154354523Y-48836190D02*
X154402142Y-48788571D01*
X154402142Y-48788571D02*
X154449761Y-48693333D01*
X154449761Y-48693333D02*
X154449761Y-48598095D01*
X154449761Y-48598095D02*
X154402142Y-48502857D01*
X154402142Y-48502857D02*
X154354523Y-48455238D01*
X154354523Y-48455238D02*
X154259285Y-48407619D01*
X154259285Y-48407619D02*
X154021190Y-48407619D01*
X154021190Y-48407619D02*
X153878333Y-48455238D01*
X153449761Y-49407619D02*
X153449761Y-48407619D01*
D11*
%TO.C,J2*%
X170240000Y-105266800D02*
X167580000Y-105266800D01*
X170240000Y-56946800D02*
X170240000Y-105266800D01*
X170240000Y-56946800D02*
X167580000Y-56946800D01*
X170240000Y-55676800D02*
X170240000Y-54346800D01*
X170240000Y-54346800D02*
X168910000Y-54346800D01*
X167580000Y-56946800D02*
X167580000Y-105266800D01*
%TO.C,J1*%
X155000000Y-105266800D02*
X152340000Y-105266800D01*
X155000000Y-56946800D02*
X155000000Y-105266800D01*
X155000000Y-56946800D02*
X152340000Y-56946800D01*
X155000000Y-55676800D02*
X155000000Y-54346800D01*
X155000000Y-54346800D02*
X153670000Y-54346800D01*
X152340000Y-56946800D02*
X152340000Y-105266800D01*
%TD*%
M02*
