%TF.GenerationSoftware,KiCad,Pcbnew,7.0.2-0*%
%TF.CreationDate,2023-05-04T08:20:14+02:00*%
%TF.ProjectId,tn9k_f18a,746e396b-5f66-4313-9861-2e6b69636164,rev?*%
%TF.SameCoordinates,Original*%
%TF.FileFunction,Soldermask,Top*%
%TF.FilePolarity,Negative*%
%FSLAX46Y46*%
G04 Gerber Fmt 4.6, Leading zero omitted, Abs format (unit mm)*
G04 Created by KiCad (PCBNEW 7.0.2-0) date 2023-05-04 08:20:14*
%MOMM*%
%LPD*%
G01*
G04 APERTURE LIST*
G04 Aperture macros list*
%AMRoundRect*
0 Rectangle with rounded corners*
0 $1 Rounding radius*
0 $2 $3 $4 $5 $6 $7 $8 $9 X,Y pos of 4 corners*
0 Add a 4 corners polygon primitive as box body*
4,1,4,$2,$3,$4,$5,$6,$7,$8,$9,$2,$3,0*
0 Add four circle primitives for the rounded corners*
1,1,$1+$1,$2,$3*
1,1,$1+$1,$4,$5*
1,1,$1+$1,$6,$7*
1,1,$1+$1,$8,$9*
0 Add four rect primitives between the rounded corners*
20,1,$1+$1,$2,$3,$4,$5,0*
20,1,$1+$1,$4,$5,$6,$7,0*
20,1,$1+$1,$6,$7,$8,$9,0*
20,1,$1+$1,$8,$9,$2,$3,0*%
G04 Aperture macros list end*
%ADD10R,1.600000X1.600000*%
%ADD11O,1.600000X1.600000*%
%ADD12C,1.600000*%
%ADD13C,4.000000*%
%ADD14R,1.700000X1.700000*%
%ADD15O,1.700000X1.700000*%
%ADD16RoundRect,0.237500X-0.250000X-0.237500X0.250000X-0.237500X0.250000X0.237500X-0.250000X0.237500X0*%
%ADD17R,1.560000X0.650000*%
%ADD18RoundRect,0.075000X-0.662500X-0.075000X0.662500X-0.075000X0.662500X0.075000X-0.662500X0.075000X0*%
%ADD19RoundRect,0.250000X-0.337500X-0.475000X0.337500X-0.475000X0.337500X0.475000X-0.337500X0.475000X0*%
G04 APERTURE END LIST*
D10*
%TO.C,J1*%
X122682000Y-116302000D03*
D11*
X122682000Y-113762000D03*
X107442000Y-116302000D03*
X107442000Y-113762000D03*
X122682000Y-88362000D03*
X122682000Y-85822000D03*
X122682000Y-83282000D03*
X122682000Y-80742000D03*
X122682000Y-78202000D03*
X122682000Y-75662000D03*
X122682000Y-73122000D03*
X122682000Y-70582000D03*
X122682000Y-68042000D03*
X107442000Y-68042000D03*
X107442000Y-70582000D03*
X107442000Y-73122000D03*
X107442000Y-75662000D03*
X107442000Y-98522000D03*
X107442000Y-101062000D03*
X107442000Y-108682000D03*
X107442000Y-111222000D03*
%TD*%
D12*
%TO.C,J5*%
X111218000Y-143089669D03*
X113508000Y-143089669D03*
X115798000Y-143089669D03*
X118088000Y-143089669D03*
X120378000Y-143089669D03*
X112363000Y-141109669D03*
X114653000Y-141109669D03*
X116943000Y-141109669D03*
X119233000Y-141109669D03*
X121523000Y-141109669D03*
X111218000Y-139129669D03*
X113508000Y-139129669D03*
X115798000Y-139129669D03*
X118088000Y-139129669D03*
D10*
X120378000Y-139129669D03*
D13*
X103563000Y-141179669D03*
X128563000Y-141179669D03*
%TD*%
D14*
%TO.C,J2*%
X125095000Y-131953000D03*
D15*
X125095000Y-134493000D03*
X122555000Y-131953000D03*
X122555000Y-134493000D03*
X120015000Y-131953000D03*
X120015000Y-134493000D03*
X117475000Y-131953000D03*
X117475000Y-134493000D03*
X114935000Y-131953000D03*
X114935000Y-134493000D03*
X112395000Y-131953000D03*
X112395000Y-134493000D03*
X109855000Y-131953000D03*
X109855000Y-134493000D03*
X107315000Y-131953000D03*
X107315000Y-134493000D03*
%TD*%
D14*
%TO.C,J6*%
X125095000Y-123128000D03*
D15*
X125095000Y-125668000D03*
X122555000Y-123128000D03*
X122555000Y-125668000D03*
X120015000Y-123128000D03*
X120015000Y-125668000D03*
X117475000Y-123128000D03*
X117475000Y-125668000D03*
X114935000Y-123128000D03*
X114935000Y-125668000D03*
X112395000Y-123128000D03*
X112395000Y-125668000D03*
X109855000Y-123128000D03*
X109855000Y-125668000D03*
X107315000Y-123128000D03*
X107315000Y-125668000D03*
%TD*%
D16*
%TO.C,R11*%
X109593000Y-109220000D03*
X111418000Y-109220000D03*
%TD*%
D14*
%TO.C,J3*%
X104538300Y-60106400D03*
D15*
X104538300Y-62646400D03*
X104538300Y-65186400D03*
X104538300Y-67726400D03*
X104538300Y-70266400D03*
X104538300Y-72806400D03*
X104538300Y-75346400D03*
X104538300Y-77886400D03*
X104538300Y-80426400D03*
X104538300Y-82966400D03*
X104538300Y-85506400D03*
X104538300Y-88046400D03*
X104538300Y-90586400D03*
X104538300Y-93126400D03*
X104538300Y-95666400D03*
X104538300Y-98206400D03*
X104538300Y-100746400D03*
X104538300Y-103286400D03*
X104538300Y-105826400D03*
X104538300Y-108366400D03*
X104538300Y-110906400D03*
X104538300Y-113446400D03*
X104538300Y-115986400D03*
X104538300Y-118526400D03*
%TD*%
D16*
%TO.C,R1*%
X118229000Y-103692000D03*
X120054000Y-103692000D03*
%TD*%
%TO.C,R9*%
X109590948Y-103691891D03*
X111415948Y-103691891D03*
%TD*%
D17*
%TO.C,U1*%
X111385000Y-84430000D03*
X111385000Y-85380000D03*
X111385000Y-86330000D03*
X114085000Y-86330000D03*
X114085000Y-84430000D03*
%TD*%
D16*
%TO.C,R7*%
X113911000Y-109220000D03*
X115736000Y-109220000D03*
%TD*%
%TO.C,R3*%
X118229000Y-109220000D03*
X120054000Y-109220000D03*
%TD*%
%TO.C,R10*%
X109590948Y-106455891D03*
X111415948Y-106455891D03*
%TD*%
%TO.C,R8*%
X113911000Y-111984000D03*
X115736000Y-111984000D03*
%TD*%
%TO.C,R4*%
X118229000Y-111984000D03*
X120054000Y-111984000D03*
%TD*%
D14*
%TO.C,J4*%
X127355200Y-60106400D03*
D15*
X127355200Y-62646400D03*
X127355200Y-65186400D03*
X127355200Y-67726400D03*
X127355200Y-70266400D03*
X127355200Y-72806400D03*
X127355200Y-75346400D03*
X127355200Y-77886400D03*
X127355200Y-80426400D03*
X127355200Y-82966400D03*
X127355200Y-85506400D03*
X127355200Y-88046400D03*
X127355200Y-90586400D03*
X127355200Y-93126400D03*
X127355200Y-95666400D03*
X127355200Y-98206400D03*
X127355200Y-100746400D03*
X127355200Y-103286400D03*
X127355200Y-105826400D03*
X127355200Y-108366400D03*
X127355200Y-110906400D03*
X127355200Y-113446400D03*
X127355200Y-115986400D03*
X127355200Y-118526400D03*
%TD*%
D16*
%TO.C,R12*%
X109593000Y-111984000D03*
X111418000Y-111984000D03*
%TD*%
%TO.C,R2*%
X118229000Y-106456000D03*
X120054000Y-106456000D03*
%TD*%
D18*
%TO.C,U4*%
X118813500Y-88454000D03*
X118813500Y-88954000D03*
X118813500Y-89454000D03*
X118813500Y-89954000D03*
X118813500Y-90454000D03*
X118813500Y-90954000D03*
X118813500Y-91454000D03*
X118813500Y-91954000D03*
X118813500Y-92454000D03*
X118813500Y-92954000D03*
X118813500Y-93454000D03*
X118813500Y-93954000D03*
X118813500Y-94454000D03*
X118813500Y-94954000D03*
X118813500Y-95454000D03*
X118813500Y-95954000D03*
X118813500Y-96454000D03*
X118813500Y-96954000D03*
X118813500Y-97454000D03*
X118813500Y-97954000D03*
X118813500Y-98454000D03*
X118813500Y-98954000D03*
X118813500Y-99454000D03*
X118813500Y-99954000D03*
X111388500Y-99954000D03*
X111388500Y-99454000D03*
X111388500Y-98954000D03*
X111388500Y-98454000D03*
X111388500Y-97954000D03*
X111388500Y-97454000D03*
X111388500Y-96954000D03*
X111388500Y-96454000D03*
X111388500Y-95954000D03*
X111388500Y-95454000D03*
X111388500Y-94954000D03*
X111388500Y-94454000D03*
X111388500Y-93954000D03*
X111388500Y-93454000D03*
X111388500Y-92954000D03*
X111388500Y-92454000D03*
X111388500Y-91954000D03*
X111388500Y-91454000D03*
X111388500Y-90954000D03*
X111388500Y-90454000D03*
X111388500Y-89954000D03*
X111388500Y-89454000D03*
X111388500Y-88954000D03*
X111388500Y-88454000D03*
%TD*%
D16*
%TO.C,R13*%
X113934500Y-116332000D03*
X115759500Y-116332000D03*
%TD*%
%TO.C,R14*%
X109623930Y-116338528D03*
X111448930Y-116338528D03*
%TD*%
D19*
%TO.C,C1*%
X116857500Y-86203000D03*
X118932500Y-86203000D03*
%TD*%
D16*
%TO.C,R6*%
X113911000Y-106456000D03*
X115736000Y-106456000D03*
%TD*%
M02*
