M48
; DRILL file {KiCad 7.0.1} date Mon May 22 13:15:02 2023
; FORMAT={-:-/ absolute / inch / decimal}
; #@! TF.CreationDate,2023-05-22T13:15:02-07:00
; #@! TF.GenerationSoftware,Kicad,Pcbnew,7.0.1
; #@! TF.FileFunction,Plated,1,2,PTH
FMAT,2
INCH
; #@! TA.AperFunction,Plated,PTH,ViaDrill
T1C0.0157
; #@! TA.AperFunction,Plated,PTH,ComponentDrill
T2C0.0315
; #@! TA.AperFunction,Plated,PTH,ComponentDrill
T3C0.0394
; #@! TA.AperFunction,Plated,PTH,ComponentDrill
T4C0.0433
%
G90
G05
T1
X5.8836Y-4.5708
X5.939Y-4.3689
X5.9574Y-3.6156
X6.0327Y-4.6547
X6.1171Y-3.2806
X6.138Y-4.1358
X6.2492Y-4.2346
X6.2498Y-4.296
X6.2774Y-3.505
X6.3Y-4.5742
X6.3195Y-4.6127
X6.3537Y-4.8419
X6.3686Y-3.5298
X6.3848Y-4.3762
X6.4242Y-3.43
X6.4316Y-3.2272
X6.5056Y-4.562
X6.5177Y-4.65
X6.5989Y-4.5743
X6.6574Y-5.0413
X6.6853Y-3.8383
X6.7977Y-4.5363
T2
X5.8962Y-4.4476
X5.8962Y-4.7476
X5.9962Y-4.4476
X5.9962Y-4.7476
X6.0962Y-4.4476
X6.0962Y-4.7476
X6.1962Y-4.4476
X6.1962Y-4.7476
X6.1964Y-2.1022
X6.1964Y-2.2022
X6.1964Y-2.3022
X6.1964Y-2.4022
X6.1964Y-2.5022
X6.1964Y-2.6022
X6.1964Y-2.7022
X6.1964Y-2.8022
X6.1964Y-2.9022
X6.1964Y-3.0022
X6.198Y-1.67
X6.198Y-1.97
X6.198Y-3.182
X6.198Y-3.282
X6.198Y-3.382
X6.198Y-3.482
X6.198Y-3.582
X6.198Y-3.682
X6.198Y-3.782
X6.198Y-3.882
X6.198Y-3.982
X6.198Y-4.082
X6.2962Y-4.4476
X6.2962Y-4.7476
X6.298Y-1.67
X6.298Y-1.97
X6.3962Y-4.4476
X6.3962Y-4.7476
X6.398Y-1.67
X6.398Y-1.97
X6.4962Y-4.4476
X6.4962Y-4.7476
X6.4964Y-2.1022
X6.4964Y-2.2022
X6.4964Y-2.3022
X6.4964Y-2.4022
X6.4964Y-2.5022
X6.4964Y-2.6022
X6.4964Y-2.7022
X6.4964Y-2.8022
X6.4964Y-2.9022
X6.4964Y-3.0022
X6.498Y-1.67
X6.498Y-1.97
X6.498Y-3.182
X6.498Y-3.282
X6.498Y-3.382
X6.498Y-3.482
X6.498Y-3.582
X6.498Y-3.682
X6.498Y-3.782
X6.498Y-3.882
X6.498Y-3.982
X6.498Y-4.082
X6.5962Y-4.4476
X6.5962Y-4.7476
X6.6962Y-4.4476
X6.6962Y-4.7476
X6.7962Y-4.4476
X6.7962Y-4.7476
T3
X5.9007Y-1.9764
X5.9007Y-2.0764
X5.9007Y-2.1764
X5.9007Y-2.2764
X5.9007Y-2.3764
X5.9007Y-2.4764
X5.9007Y-2.5764
X5.9007Y-2.6764
X5.9007Y-2.7764
X5.9007Y-2.8764
X5.9007Y-2.9764
X5.9007Y-3.0764
X5.9007Y-3.1764
X5.9007Y-3.2764
X5.9007Y-3.3764
X5.9007Y-3.4764
X5.9007Y-3.5764
X5.9007Y-3.6764
X5.9007Y-3.7764
X5.9007Y-3.8764
X5.9007Y-3.9764
X5.9007Y-4.0764
X5.9007Y-4.1764
X5.9007Y-4.2764
X6.0Y-4.9
X6.0Y-5.0
X6.05Y-2.192
X6.05Y-2.292
X6.05Y-2.392
X6.05Y-2.492
X6.05Y-2.592
X6.05Y-2.692
X6.05Y-2.792
X6.05Y-2.892
X6.05Y-2.992
X6.05Y-3.092
X6.05Y-3.192
X6.05Y-3.292
X6.05Y-3.392
X6.05Y-3.492
X6.05Y-3.592
X6.05Y-3.692
X6.05Y-3.792
X6.05Y-3.892
X6.05Y-3.992
X6.05Y-4.092
X6.1Y-4.9
X6.1Y-5.0
X6.2Y-4.9
X6.2Y-5.0
X6.3Y-4.9
X6.3Y-5.0
X6.4Y-4.9
X6.4Y-5.0
X6.5Y-4.9
X6.5Y-5.0
X6.6Y-4.9
X6.6Y-5.0
X6.65Y-2.192
X6.65Y-2.292
X6.65Y-2.392
X6.65Y-2.492
X6.65Y-2.592
X6.65Y-2.692
X6.65Y-2.792
X6.65Y-2.892
X6.65Y-2.992
X6.65Y-3.092
X6.65Y-3.192
X6.65Y-3.292
X6.65Y-3.392
X6.65Y-3.492
X6.65Y-3.592
X6.65Y-3.692
X6.65Y-3.792
X6.65Y-3.892
X6.65Y-3.992
X6.65Y-4.092
X6.7Y-4.9
X6.7Y-5.0
X6.799Y-1.9764
X6.799Y-2.0764
X6.799Y-2.1764
X6.799Y-2.2764
X6.799Y-2.3764
X6.799Y-2.4764
X6.799Y-2.5764
X6.799Y-2.6764
X6.799Y-2.7764
X6.799Y-2.8764
X6.799Y-2.9764
X6.799Y-3.0764
X6.799Y-3.1764
X6.799Y-3.2764
X6.799Y-3.3764
X6.799Y-3.4764
X6.799Y-3.5764
X6.799Y-3.6764
X6.799Y-3.7764
X6.799Y-3.8764
X6.799Y-3.9764
X6.799Y-4.0764
X6.799Y-4.1764
X6.799Y-4.2764
T4
X6.142Y-4.246
X6.542Y-4.246
T0
M30
