M48
; DRILL file {KiCad 7.0.1} date Mon Apr 24 00:42:06 2023
; FORMAT={-:-/ absolute / inch / decimal}
; #@! TF.CreationDate,2023-04-24T00:42:06-07:00
; #@! TF.GenerationSoftware,Kicad,Pcbnew,7.0.1
; #@! TF.FileFunction,Plated,1,2,PTH
FMAT,2
INCH
; #@! TA.AperFunction,Plated,PTH,ViaDrill
T1C0.0157
; #@! TA.AperFunction,Plated,PTH,ViaDrill
T2C0.0236
; #@! TA.AperFunction,Plated,PTH,ComponentDrill
T3C0.0315
; #@! TA.AperFunction,Plated,PTH,ComponentDrill
T4C0.0394
%
G90
G05
T1
X5.9775Y-2.4207
X5.9781Y-2.8227
X6.0858Y-4.2646
X6.0973Y-4.5806
X6.1149Y-4.3367
X6.1234Y-4.6485
X6.1532Y-4.3193
X6.3914Y-2.1776
X6.422Y-4.0839
T2
X6.135Y-2.0479
X6.1399Y-4.8253
X6.52Y-4.6373
X6.6645Y-4.256
X6.665Y-4.5043
X6.7156Y-2.5887
T3
X5.9Y-4.425
X5.9Y-4.725
X6.0Y-4.425
X6.0Y-4.725
X6.1Y-4.425
X6.1Y-4.725
X6.2Y-1.7
X6.2Y-2.0
X6.2Y-2.225
X6.2Y-2.325
X6.2Y-2.425
X6.2Y-2.525
X6.2Y-2.625
X6.2Y-2.725
X6.2Y-2.825
X6.2Y-2.925
X6.2Y-3.025
X6.2Y-3.125
X6.2Y-4.425
X6.2Y-4.725
X6.205Y-3.325
X6.205Y-3.425
X6.205Y-3.525
X6.205Y-3.625
X6.205Y-3.725
X6.205Y-3.825
X6.205Y-3.925
X6.205Y-4.025
X6.205Y-4.125
X6.205Y-4.225
X6.3Y-1.7
X6.3Y-2.0
X6.3Y-4.425
X6.3Y-4.725
X6.4Y-1.7
X6.4Y-2.0
X6.4Y-4.425
X6.4Y-4.725
X6.5Y-1.7
X6.5Y-2.0
X6.5Y-2.225
X6.5Y-2.325
X6.5Y-2.425
X6.5Y-2.525
X6.5Y-2.625
X6.5Y-2.725
X6.5Y-2.825
X6.5Y-2.925
X6.5Y-3.025
X6.5Y-3.125
X6.5Y-4.425
X6.5Y-4.725
X6.505Y-3.325
X6.505Y-3.425
X6.505Y-3.525
X6.505Y-3.625
X6.505Y-3.725
X6.505Y-3.825
X6.505Y-3.925
X6.505Y-4.025
X6.505Y-4.125
X6.505Y-4.225
X6.6Y-4.425
X6.6Y-4.725
X6.7Y-4.425
X6.7Y-4.725
X6.8Y-4.425
X6.8Y-4.725
T4
X5.9007Y-1.9764
X5.9007Y-2.0764
X5.9007Y-2.1764
X5.9007Y-2.2764
X5.9007Y-2.3764
X5.9007Y-2.4764
X5.9007Y-2.5764
X5.9007Y-2.6764
X5.9007Y-2.7764
X5.9007Y-2.8764
X5.9007Y-2.9764
X5.9007Y-3.0764
X5.9007Y-3.1764
X5.9007Y-3.2764
X5.9007Y-3.3764
X5.9007Y-3.4764
X5.9007Y-3.5764
X5.9007Y-3.6764
X5.9007Y-3.7764
X5.9007Y-3.8764
X5.9007Y-3.9764
X5.9007Y-4.0764
X5.9007Y-4.1764
X5.9007Y-4.2764
X6.0Y-4.9
X6.0Y-5.0
X6.05Y-2.192
X6.05Y-2.292
X6.05Y-2.392
X6.05Y-2.492
X6.05Y-2.592
X6.05Y-2.692
X6.05Y-2.792
X6.05Y-2.892
X6.05Y-2.992
X6.05Y-3.092
X6.05Y-3.192
X6.05Y-3.292
X6.05Y-3.392
X6.05Y-3.492
X6.05Y-3.592
X6.05Y-3.692
X6.05Y-3.792
X6.05Y-3.892
X6.05Y-3.992
X6.05Y-4.092
X6.1Y-4.9
X6.1Y-5.0
X6.2Y-4.9
X6.2Y-5.0
X6.3Y-4.9
X6.3Y-5.0
X6.4Y-4.9
X6.4Y-5.0
X6.5Y-4.9
X6.5Y-5.0
X6.6Y-4.9
X6.6Y-5.0
X6.65Y-2.192
X6.65Y-2.292
X6.65Y-2.392
X6.65Y-2.492
X6.65Y-2.592
X6.65Y-2.692
X6.65Y-2.792
X6.65Y-2.892
X6.65Y-2.992
X6.65Y-3.092
X6.65Y-3.192
X6.65Y-3.292
X6.65Y-3.392
X6.65Y-3.492
X6.65Y-3.592
X6.65Y-3.692
X6.65Y-3.792
X6.65Y-3.892
X6.65Y-3.992
X6.65Y-4.092
X6.7Y-4.9
X6.7Y-5.0
X6.799Y-1.9764
X6.799Y-2.0764
X6.799Y-2.1764
X6.799Y-2.2764
X6.799Y-2.3764
X6.799Y-2.4764
X6.799Y-2.5764
X6.799Y-2.6764
X6.799Y-2.7764
X6.799Y-2.8764
X6.799Y-2.9764
X6.799Y-3.0764
X6.799Y-3.1764
X6.799Y-3.2764
X6.799Y-3.3764
X6.799Y-3.4764
X6.799Y-3.5764
X6.799Y-3.6764
X6.799Y-3.7764
X6.799Y-3.8764
X6.799Y-3.9764
X6.799Y-4.0764
X6.799Y-4.1764
X6.799Y-4.2764
T0
M30
