%TF.GenerationSoftware,KiCad,Pcbnew,7.0.2-0*%
%TF.CreationDate,2023-05-04T08:20:14+02:00*%
%TF.ProjectId,tn9k_f18a,746e396b-5f66-4313-9861-2e6b69636164,rev?*%
%TF.SameCoordinates,Original*%
%TF.FileFunction,Profile,NP*%
%FSLAX46Y46*%
G04 Gerber Fmt 4.6, Leading zero omitted, Abs format (unit mm)*
G04 Created by KiCad (PCBNEW 7.0.2-0) date 2023-05-04 08:20:14*
%MOMM*%
%LPD*%
G01*
G04 APERTURE LIST*
%TA.AperFunction,Profile*%
%ADD10C,0.100000*%
%TD*%
G04 APERTURE END LIST*
D10*
X129159000Y-58928000D02*
G75*
G03*
X128524000Y-58293000I-635000J0D01*
G01*
X103378000Y-58293000D02*
G75*
G03*
X102743000Y-58928000I0J-635000D01*
G01*
X132080000Y-137541000D02*
G75*
G03*
X131445000Y-136906000I-635000J0D01*
G01*
X131445000Y-153162000D02*
G75*
G03*
X132080000Y-152527000I0J635000D01*
G01*
X100076000Y-152527000D02*
G75*
G03*
X100711000Y-153162000I635000J0D01*
G01*
X100711000Y-136906000D02*
G75*
G03*
X100076000Y-137541000I0J-635000D01*
G01*
X128778000Y-128143000D02*
X126492000Y-128143000D01*
X128778000Y-128397000D02*
X128778000Y-128143000D01*
X126492000Y-128397000D02*
X128778000Y-128397000D01*
X126492000Y-128143000D02*
X126492000Y-128397000D01*
X125730000Y-128143000D02*
X124460000Y-128143000D01*
X125730000Y-128397000D02*
X125730000Y-128143000D01*
X124460000Y-128397000D02*
X125730000Y-128397000D01*
X124460000Y-128143000D02*
X124460000Y-128397000D01*
X123698000Y-128143000D02*
X121920000Y-128143000D01*
X123698000Y-128397000D02*
X123698000Y-128143000D01*
X121920000Y-128397000D02*
X123698000Y-128397000D01*
X121920000Y-128143000D02*
X121920000Y-128397000D01*
X121158000Y-128143000D02*
X111252000Y-128143000D01*
X121158000Y-128397000D02*
X121158000Y-128143000D01*
X111252000Y-128397000D02*
X121158000Y-128397000D01*
X111252000Y-128143000D02*
X111252000Y-128397000D01*
X110490000Y-128143000D02*
X109220000Y-128143000D01*
X110490000Y-128397000D02*
X110490000Y-128143000D01*
X109220000Y-128397000D02*
X110490000Y-128397000D01*
X109220000Y-128143000D02*
X109220000Y-128397000D01*
X108458000Y-128143000D02*
X103124000Y-128143000D01*
X108458000Y-128397000D02*
X108458000Y-128143000D01*
X103124000Y-128397000D02*
X108458000Y-128397000D01*
X103124000Y-128143000D02*
X103124000Y-128397000D01*
X100076000Y-137541000D02*
X100076000Y-152527000D01*
X102743000Y-136906000D02*
X100711000Y-136906000D01*
X132080000Y-137541000D02*
X132080000Y-152527000D01*
X129159000Y-136906000D02*
X131445000Y-136906000D01*
X102743000Y-58928000D02*
X102743000Y-136906000D01*
X129159000Y-136906000D02*
X129159000Y-58928000D01*
X128524000Y-58293000D02*
X103378000Y-58293000D01*
X100711000Y-153162000D02*
X131445000Y-153162000D01*
M02*
