M48
; DRILL file {KiCad 7.0.2-0} date 2023 May 04, Thursday 08:20:17
; FORMAT={-:-/ absolute / inch / decimal}
; #@! TF.CreationDate,2023-05-04T08:20:17+02:00
; #@! TF.GenerationSoftware,Kicad,Pcbnew,7.0.2-0
; #@! TF.FileFunction,Plated,1,2,PTH
FMAT,2
INCH
; #@! TA.AperFunction,Plated,PTH,ViaDrill
T1C0.0059
; #@! TA.AperFunction,Plated,PTH,ViaDrill
T2C0.0079
; #@! TA.AperFunction,Plated,PTH,ComponentDrill
T3C0.0280
; #@! TA.AperFunction,Plated,PTH,ComponentDrill
T4C0.0394
; #@! TA.AperFunction,Plated,PTH,ComponentDrill
T5C0.1260
%
G90
G05
T1
X4.15Y-3.72
X4.155Y-4.4243
X4.175Y-4.3356
X4.185Y-4.54
X4.19Y-3.74
X4.195Y-3.94
X4.2001Y-3.9195
X4.2023Y-3.5
X4.23Y-3.09
X4.23Y-3.145
X4.23Y-3.23
X4.23Y-3.32
X4.23Y-3.4
X4.23Y-4.08
X4.23Y-4.19
X4.235Y-2.415
X4.235Y-2.515
X4.24Y-3.5156
X4.2539Y-3.695
X4.255Y-3.5819
X4.255Y-3.62
X4.26Y-3.5256
X4.27Y-3.6356
X4.275Y-3.695
X4.2782Y-3.9262
X4.29Y-2.675
X4.295Y-3.9107
X4.2991Y-4.3661
X4.3Y-4.015
X4.3Y-4.61
X4.305Y-2.415
X4.3146Y-4.0824
X4.3147Y-4.3
X4.3147Y-4.4088
X4.315Y-4.19
X4.3156Y-2.78
X4.32Y-3.7256
X4.325Y-2.88
X4.325Y-5.01
X4.325Y-5.11
X4.3294Y-4.635
X4.3345Y-2.975
X4.3393Y-3.5653
X4.34Y-3.745
X4.3411Y-3.7661
X4.342Y-3.6762
X4.3445Y-3.115
X4.345Y-4.745
X4.345Y-5.245
X4.395Y-5.365
X4.4Y-2.425
X4.4Y-2.5508
X4.4094Y-3.2856
X4.415Y-3.4824
X4.425Y-2.57
X4.425Y-3.3462
X4.4275Y-3.7
X4.43Y-3.66
X4.43Y-3.73
X4.435Y-4.41
X4.44Y-2.465
X4.4406Y-3.3269
X4.445Y-3.6184
X4.445Y-3.7151
X4.45Y-3.915
X4.455Y-2.365
X4.455Y-3.749
X4.4606Y-3.1819
X4.47Y-3.8
X4.4847Y-4.3
X4.4847Y-4.4088
X4.485Y-4.19
X4.485Y-4.9
X4.4855Y-4.0815
X4.4861Y-3.425
X4.4861Y-3.4819
X4.4861Y-3.78
X4.49Y-3.84
X4.5093Y-3.7363
X4.51Y-3.51
X4.52Y-2.485
X4.52Y-2.73
X4.52Y-2.83
X4.52Y-2.91
X4.52Y-2.96
X4.52Y-3.04
X4.52Y-3.145
X4.53Y-3.84
X4.54Y-3.335
X4.54Y-3.92
X4.56Y-3.65
X4.56Y-3.765
X4.5694Y-4.215
X4.5694Y-4.335
X4.585Y-4.08
X4.585Y-4.445
X4.5889Y-3.465
X4.59Y-3.065
X4.5989Y-3.2661
X4.6089Y-3.245
X4.61Y-3.9046
X4.61Y-3.9494
X4.6189Y-3.16
X4.63Y-3.5807
X4.635Y-3.6184
X4.635Y-3.9046
X4.635Y-3.965
X4.6396Y-3.5211
X4.64Y-3.5
X4.64Y-3.5612
X4.65Y-2.485
X4.65Y-2.73
X4.6547Y-4.0824
X4.6547Y-4.3
X4.6547Y-4.4088
X4.655Y-4.19
X4.67Y-4.8844
X4.72Y-4.34
X4.725Y-4.39
X4.7392Y-3.975
X4.74Y-2.735
X4.7442Y-3.72
X4.745Y-2.83
X4.745Y-2.91
X4.745Y-2.96
X4.745Y-3.04
X4.745Y-3.145
X4.745Y-3.23
X4.745Y-3.315
X4.765Y-2.64
X4.765Y-3.6
X4.77Y-3.82
X4.825Y-4.745
X4.895Y-4.545
X4.9039Y-4.19
X4.905Y-3.265
X4.9139Y-3.36
X4.9139Y-4.0394
X4.92Y-4.465
X4.9206Y-4.365
X4.9206Y-4.3861
X4.9239Y-4.06
X4.925Y-5.01
X4.925Y-5.11
X4.9282Y-4.1703
X4.93Y-2.485
X4.93Y-2.59
X4.93Y-2.68
X4.93Y-2.83
X4.93Y-2.96
X4.93Y-3.145
T2
X4.7567Y-3.8752
X4.765Y-3.445
X4.77Y-4.66
T3
X4.23Y-2.6788
X4.23Y-2.7788
X4.23Y-2.8788
X4.23Y-2.9788
X4.23Y-3.8788
X4.23Y-3.9788
X4.23Y-4.2788
X4.23Y-4.3788
X4.23Y-4.4788
X4.23Y-4.5788
X4.83Y-2.6788
X4.83Y-2.7788
X4.83Y-2.8788
X4.83Y-2.9788
X4.83Y-3.0788
X4.83Y-3.1788
X4.83Y-3.2788
X4.83Y-3.3788
X4.83Y-3.4788
X4.83Y-4.4788
X4.83Y-4.5788
T4
X4.1157Y-2.3664
X4.1157Y-2.4664
X4.1157Y-2.5664
X4.1157Y-2.6664
X4.1157Y-2.7664
X4.1157Y-2.8664
X4.1157Y-2.9664
X4.1157Y-3.0664
X4.1157Y-3.1664
X4.1157Y-3.2664
X4.1157Y-3.3664
X4.1157Y-3.4664
X4.1157Y-3.5664
X4.1157Y-3.6664
X4.1157Y-3.7664
X4.1157Y-3.8664
X4.1157Y-3.9664
X4.1157Y-4.0664
X4.1157Y-4.1664
X4.1157Y-4.2664
X4.1157Y-4.3664
X4.1157Y-4.4664
X4.1157Y-4.5664
X4.1157Y-4.6664
X4.225Y-4.8476
X4.225Y-4.9476
X4.225Y-5.195
X4.225Y-5.295
X4.325Y-4.8476
X4.325Y-4.9476
X4.325Y-5.195
X4.325Y-5.295
X4.3787Y-5.4775
X4.3787Y-5.6335
X4.4237Y-5.5555
X4.425Y-4.8476
X4.425Y-4.9476
X4.425Y-5.195
X4.425Y-5.295
X4.4688Y-5.4775
X4.4688Y-5.6335
X4.5139Y-5.5555
X4.525Y-4.8476
X4.525Y-4.9476
X4.525Y-5.195
X4.525Y-5.295
X4.559Y-5.4775
X4.559Y-5.6335
X4.6041Y-5.5555
X4.625Y-4.8476
X4.625Y-4.9476
X4.625Y-5.195
X4.625Y-5.295
X4.6491Y-5.4775
X4.6491Y-5.6335
X4.6942Y-5.5555
X4.725Y-4.8476
X4.725Y-4.9476
X4.725Y-5.195
X4.725Y-5.295
X4.7393Y-5.4775
X4.7393Y-5.6335
X4.7844Y-5.5555
X4.825Y-4.8476
X4.825Y-4.9476
X4.825Y-5.195
X4.825Y-5.295
X4.925Y-4.8476
X4.925Y-4.9476
X4.925Y-5.195
X4.925Y-5.295
X5.014Y-2.3664
X5.014Y-2.4664
X5.014Y-2.5664
X5.014Y-2.6664
X5.014Y-2.7664
X5.014Y-2.8664
X5.014Y-2.9664
X5.014Y-3.0664
X5.014Y-3.1664
X5.014Y-3.2664
X5.014Y-3.3664
X5.014Y-3.4664
X5.014Y-3.5664
X5.014Y-3.6664
X5.014Y-3.7664
X5.014Y-3.8664
X5.014Y-3.9664
X5.014Y-4.0664
X5.014Y-4.1664
X5.014Y-4.2664
X5.014Y-4.3664
X5.014Y-4.4664
X5.014Y-4.5664
X5.014Y-4.6664
T5
X4.0773Y-5.5583
X5.0615Y-5.5583
T0
M30
