%TF.GenerationSoftware,KiCad,Pcbnew,7.0.2-0*%
%TF.CreationDate,2023-05-04T08:20:14+02:00*%
%TF.ProjectId,tn9k_f18a,746e396b-5f66-4313-9861-2e6b69636164,rev?*%
%TF.SameCoordinates,Original*%
%TF.FileFunction,Paste,Top*%
%TF.FilePolarity,Positive*%
%FSLAX46Y46*%
G04 Gerber Fmt 4.6, Leading zero omitted, Abs format (unit mm)*
G04 Created by KiCad (PCBNEW 7.0.2-0) date 2023-05-04 08:20:14*
%MOMM*%
%LPD*%
G01*
G04 APERTURE LIST*
G04 Aperture macros list*
%AMRoundRect*
0 Rectangle with rounded corners*
0 $1 Rounding radius*
0 $2 $3 $4 $5 $6 $7 $8 $9 X,Y pos of 4 corners*
0 Add a 4 corners polygon primitive as box body*
4,1,4,$2,$3,$4,$5,$6,$7,$8,$9,$2,$3,0*
0 Add four circle primitives for the rounded corners*
1,1,$1+$1,$2,$3*
1,1,$1+$1,$4,$5*
1,1,$1+$1,$6,$7*
1,1,$1+$1,$8,$9*
0 Add four rect primitives between the rounded corners*
20,1,$1+$1,$2,$3,$4,$5,0*
20,1,$1+$1,$4,$5,$6,$7,0*
20,1,$1+$1,$6,$7,$8,$9,0*
20,1,$1+$1,$8,$9,$2,$3,0*%
G04 Aperture macros list end*
%ADD10RoundRect,0.237500X-0.250000X-0.237500X0.250000X-0.237500X0.250000X0.237500X-0.250000X0.237500X0*%
%ADD11R,1.560000X0.650000*%
%ADD12RoundRect,0.075000X-0.662500X-0.075000X0.662500X-0.075000X0.662500X0.075000X-0.662500X0.075000X0*%
%ADD13RoundRect,0.250000X-0.337500X-0.475000X0.337500X-0.475000X0.337500X0.475000X-0.337500X0.475000X0*%
G04 APERTURE END LIST*
D10*
%TO.C,R11*%
X109593000Y-109220000D03*
X111418000Y-109220000D03*
%TD*%
%TO.C,R1*%
X118229000Y-103692000D03*
X120054000Y-103692000D03*
%TD*%
%TO.C,R9*%
X109590948Y-103691891D03*
X111415948Y-103691891D03*
%TD*%
D11*
%TO.C,U1*%
X111385000Y-84430000D03*
X111385000Y-85380000D03*
X111385000Y-86330000D03*
X114085000Y-86330000D03*
X114085000Y-84430000D03*
%TD*%
D10*
%TO.C,R7*%
X113911000Y-109220000D03*
X115736000Y-109220000D03*
%TD*%
%TO.C,R3*%
X118229000Y-109220000D03*
X120054000Y-109220000D03*
%TD*%
%TO.C,R10*%
X109590948Y-106455891D03*
X111415948Y-106455891D03*
%TD*%
%TO.C,R8*%
X113911000Y-111984000D03*
X115736000Y-111984000D03*
%TD*%
%TO.C,R4*%
X118229000Y-111984000D03*
X120054000Y-111984000D03*
%TD*%
%TO.C,R12*%
X109593000Y-111984000D03*
X111418000Y-111984000D03*
%TD*%
%TO.C,R2*%
X118229000Y-106456000D03*
X120054000Y-106456000D03*
%TD*%
D12*
%TO.C,U4*%
X118813500Y-88454000D03*
X118813500Y-88954000D03*
X118813500Y-89454000D03*
X118813500Y-89954000D03*
X118813500Y-90454000D03*
X118813500Y-90954000D03*
X118813500Y-91454000D03*
X118813500Y-91954000D03*
X118813500Y-92454000D03*
X118813500Y-92954000D03*
X118813500Y-93454000D03*
X118813500Y-93954000D03*
X118813500Y-94454000D03*
X118813500Y-94954000D03*
X118813500Y-95454000D03*
X118813500Y-95954000D03*
X118813500Y-96454000D03*
X118813500Y-96954000D03*
X118813500Y-97454000D03*
X118813500Y-97954000D03*
X118813500Y-98454000D03*
X118813500Y-98954000D03*
X118813500Y-99454000D03*
X118813500Y-99954000D03*
X111388500Y-99954000D03*
X111388500Y-99454000D03*
X111388500Y-98954000D03*
X111388500Y-98454000D03*
X111388500Y-97954000D03*
X111388500Y-97454000D03*
X111388500Y-96954000D03*
X111388500Y-96454000D03*
X111388500Y-95954000D03*
X111388500Y-95454000D03*
X111388500Y-94954000D03*
X111388500Y-94454000D03*
X111388500Y-93954000D03*
X111388500Y-93454000D03*
X111388500Y-92954000D03*
X111388500Y-92454000D03*
X111388500Y-91954000D03*
X111388500Y-91454000D03*
X111388500Y-90954000D03*
X111388500Y-90454000D03*
X111388500Y-89954000D03*
X111388500Y-89454000D03*
X111388500Y-88954000D03*
X111388500Y-88454000D03*
%TD*%
D10*
%TO.C,R13*%
X113934500Y-116332000D03*
X115759500Y-116332000D03*
%TD*%
%TO.C,R14*%
X109623930Y-116338528D03*
X111448930Y-116338528D03*
%TD*%
D13*
%TO.C,C1*%
X116857500Y-86203000D03*
X118932500Y-86203000D03*
%TD*%
D10*
%TO.C,R6*%
X113911000Y-106456000D03*
X115736000Y-106456000D03*
%TD*%
M02*
