%TF.GenerationSoftware,KiCad,Pcbnew,7.0.1*%
%TF.CreationDate,2023-08-06T16:29:57-07:00*%
%TF.ProjectId,tn_vdp_v3_board,746e5f76-6470-45f7-9633-5f626f617264,rev?*%
%TF.SameCoordinates,Original*%
%TF.FileFunction,Drillmap*%
%TF.FilePolarity,Positive*%
%FSLAX45Y45*%
G04 Gerber Fmt 4.5, Leading zero omitted, Abs format (unit mm)*
G04 Created by KiCad (PCBNEW 7.0.1) date 2023-08-06 16:29:57*
%MOMM*%
%LPD*%
G01*
G04 APERTURE LIST*
%ADD10C,0.100000*%
%ADD11C,0.200000*%
%ADD12C,0.160000*%
G04 APERTURE END LIST*
D10*
X18500000Y-4495800D02*
X18500000Y-11277600D01*
X13563600Y-4495800D02*
X18500000Y-4495800D01*
X13563600Y-11277600D02*
X18500000Y-11277600D01*
X13563600Y-11277600D02*
X13563600Y-4495800D01*
D11*
D12*
X14610700Y-10504600D02*
X14770700Y-10664600D01*
X14770700Y-10504600D02*
X14610700Y-10664600D01*
D11*
X13806219Y-11595124D02*
X13806219Y-11395124D01*
X13806219Y-11395124D02*
X13853838Y-11395124D01*
X13853838Y-11395124D02*
X13882409Y-11404648D01*
X13882409Y-11404648D02*
X13901457Y-11423695D01*
X13901457Y-11423695D02*
X13910981Y-11442743D01*
X13910981Y-11442743D02*
X13920505Y-11480838D01*
X13920505Y-11480838D02*
X13920505Y-11509409D01*
X13920505Y-11509409D02*
X13910981Y-11547505D01*
X13910981Y-11547505D02*
X13901457Y-11566552D01*
X13901457Y-11566552D02*
X13882409Y-11585600D01*
X13882409Y-11585600D02*
X13853838Y-11595124D01*
X13853838Y-11595124D02*
X13806219Y-11595124D01*
X14006219Y-11595124D02*
X14006219Y-11461790D01*
X14006219Y-11499886D02*
X14015743Y-11480838D01*
X14015743Y-11480838D02*
X14025267Y-11471314D01*
X14025267Y-11471314D02*
X14044314Y-11461790D01*
X14044314Y-11461790D02*
X14063362Y-11461790D01*
X14130028Y-11595124D02*
X14130028Y-11461790D01*
X14130028Y-11395124D02*
X14120505Y-11404648D01*
X14120505Y-11404648D02*
X14130028Y-11414171D01*
X14130028Y-11414171D02*
X14139552Y-11404648D01*
X14139552Y-11404648D02*
X14130028Y-11395124D01*
X14130028Y-11395124D02*
X14130028Y-11414171D01*
X14253838Y-11595124D02*
X14234790Y-11585600D01*
X14234790Y-11585600D02*
X14225267Y-11566552D01*
X14225267Y-11566552D02*
X14225267Y-11395124D01*
X14358600Y-11595124D02*
X14339552Y-11585600D01*
X14339552Y-11585600D02*
X14330028Y-11566552D01*
X14330028Y-11566552D02*
X14330028Y-11395124D01*
X14587171Y-11595124D02*
X14587171Y-11395124D01*
X14587171Y-11395124D02*
X14653838Y-11537981D01*
X14653838Y-11537981D02*
X14720505Y-11395124D01*
X14720505Y-11395124D02*
X14720505Y-11595124D01*
X14901457Y-11595124D02*
X14901457Y-11490362D01*
X14901457Y-11490362D02*
X14891933Y-11471314D01*
X14891933Y-11471314D02*
X14872886Y-11461790D01*
X14872886Y-11461790D02*
X14834790Y-11461790D01*
X14834790Y-11461790D02*
X14815743Y-11471314D01*
X14901457Y-11585600D02*
X14882409Y-11595124D01*
X14882409Y-11595124D02*
X14834790Y-11595124D01*
X14834790Y-11595124D02*
X14815743Y-11585600D01*
X14815743Y-11585600D02*
X14806219Y-11566552D01*
X14806219Y-11566552D02*
X14806219Y-11547505D01*
X14806219Y-11547505D02*
X14815743Y-11528457D01*
X14815743Y-11528457D02*
X14834790Y-11518933D01*
X14834790Y-11518933D02*
X14882409Y-11518933D01*
X14882409Y-11518933D02*
X14901457Y-11509409D01*
X14996695Y-11461790D02*
X14996695Y-11661790D01*
X14996695Y-11471314D02*
X15015743Y-11461790D01*
X15015743Y-11461790D02*
X15053838Y-11461790D01*
X15053838Y-11461790D02*
X15072886Y-11471314D01*
X15072886Y-11471314D02*
X15082409Y-11480838D01*
X15082409Y-11480838D02*
X15091933Y-11499886D01*
X15091933Y-11499886D02*
X15091933Y-11557028D01*
X15091933Y-11557028D02*
X15082409Y-11576076D01*
X15082409Y-11576076D02*
X15072886Y-11585600D01*
X15072886Y-11585600D02*
X15053838Y-11595124D01*
X15053838Y-11595124D02*
X15015743Y-11595124D01*
X15015743Y-11595124D02*
X14996695Y-11585600D01*
X15177648Y-11576076D02*
X15187171Y-11585600D01*
X15187171Y-11585600D02*
X15177648Y-11595124D01*
X15177648Y-11595124D02*
X15168124Y-11585600D01*
X15168124Y-11585600D02*
X15177648Y-11576076D01*
X15177648Y-11576076D02*
X15177648Y-11595124D01*
X15177648Y-11471314D02*
X15187171Y-11480838D01*
X15187171Y-11480838D02*
X15177648Y-11490362D01*
X15177648Y-11490362D02*
X15168124Y-11480838D01*
X15168124Y-11480838D02*
X15177648Y-11471314D01*
X15177648Y-11471314D02*
X15177648Y-11490362D01*
D12*
X13398600Y-11842600D02*
X13558600Y-12002600D01*
X13558600Y-11842600D02*
X13398600Y-12002600D01*
D11*
X13910981Y-12015124D02*
X13796695Y-12015124D01*
X13853838Y-12015124D02*
X13853838Y-11815124D01*
X13853838Y-11815124D02*
X13834790Y-11843695D01*
X13834790Y-11843695D02*
X13815743Y-11862743D01*
X13815743Y-11862743D02*
X13796695Y-11872267D01*
X13996695Y-11996076D02*
X14006219Y-12005600D01*
X14006219Y-12005600D02*
X13996695Y-12015124D01*
X13996695Y-12015124D02*
X13987171Y-12005600D01*
X13987171Y-12005600D02*
X13996695Y-11996076D01*
X13996695Y-11996076D02*
X13996695Y-12015124D01*
X14177648Y-11815124D02*
X14139552Y-11815124D01*
X14139552Y-11815124D02*
X14120505Y-11824648D01*
X14120505Y-11824648D02*
X14110981Y-11834171D01*
X14110981Y-11834171D02*
X14091933Y-11862743D01*
X14091933Y-11862743D02*
X14082409Y-11900838D01*
X14082409Y-11900838D02*
X14082409Y-11977028D01*
X14082409Y-11977028D02*
X14091933Y-11996076D01*
X14091933Y-11996076D02*
X14101457Y-12005600D01*
X14101457Y-12005600D02*
X14120505Y-12015124D01*
X14120505Y-12015124D02*
X14158600Y-12015124D01*
X14158600Y-12015124D02*
X14177648Y-12005600D01*
X14177648Y-12005600D02*
X14187171Y-11996076D01*
X14187171Y-11996076D02*
X14196695Y-11977028D01*
X14196695Y-11977028D02*
X14196695Y-11929409D01*
X14196695Y-11929409D02*
X14187171Y-11910362D01*
X14187171Y-11910362D02*
X14177648Y-11900838D01*
X14177648Y-11900838D02*
X14158600Y-11891314D01*
X14158600Y-11891314D02*
X14120505Y-11891314D01*
X14120505Y-11891314D02*
X14101457Y-11900838D01*
X14101457Y-11900838D02*
X14091933Y-11910362D01*
X14091933Y-11910362D02*
X14082409Y-11929409D01*
X14320505Y-11815124D02*
X14339552Y-11815124D01*
X14339552Y-11815124D02*
X14358600Y-11824648D01*
X14358600Y-11824648D02*
X14368124Y-11834171D01*
X14368124Y-11834171D02*
X14377648Y-11853219D01*
X14377648Y-11853219D02*
X14387171Y-11891314D01*
X14387171Y-11891314D02*
X14387171Y-11938933D01*
X14387171Y-11938933D02*
X14377648Y-11977028D01*
X14377648Y-11977028D02*
X14368124Y-11996076D01*
X14368124Y-11996076D02*
X14358600Y-12005600D01*
X14358600Y-12005600D02*
X14339552Y-12015124D01*
X14339552Y-12015124D02*
X14320505Y-12015124D01*
X14320505Y-12015124D02*
X14301457Y-12005600D01*
X14301457Y-12005600D02*
X14291933Y-11996076D01*
X14291933Y-11996076D02*
X14282409Y-11977028D01*
X14282409Y-11977028D02*
X14272886Y-11938933D01*
X14272886Y-11938933D02*
X14272886Y-11891314D01*
X14272886Y-11891314D02*
X14282409Y-11853219D01*
X14282409Y-11853219D02*
X14291933Y-11834171D01*
X14291933Y-11834171D02*
X14301457Y-11824648D01*
X14301457Y-11824648D02*
X14320505Y-11815124D01*
X14510981Y-11815124D02*
X14530029Y-11815124D01*
X14530029Y-11815124D02*
X14549076Y-11824648D01*
X14549076Y-11824648D02*
X14558600Y-11834171D01*
X14558600Y-11834171D02*
X14568124Y-11853219D01*
X14568124Y-11853219D02*
X14577648Y-11891314D01*
X14577648Y-11891314D02*
X14577648Y-11938933D01*
X14577648Y-11938933D02*
X14568124Y-11977028D01*
X14568124Y-11977028D02*
X14558600Y-11996076D01*
X14558600Y-11996076D02*
X14549076Y-12005600D01*
X14549076Y-12005600D02*
X14530029Y-12015124D01*
X14530029Y-12015124D02*
X14510981Y-12015124D01*
X14510981Y-12015124D02*
X14491933Y-12005600D01*
X14491933Y-12005600D02*
X14482409Y-11996076D01*
X14482409Y-11996076D02*
X14472886Y-11977028D01*
X14472886Y-11977028D02*
X14463362Y-11938933D01*
X14463362Y-11938933D02*
X14463362Y-11891314D01*
X14463362Y-11891314D02*
X14472886Y-11853219D01*
X14472886Y-11853219D02*
X14482409Y-11834171D01*
X14482409Y-11834171D02*
X14491933Y-11824648D01*
X14491933Y-11824648D02*
X14510981Y-11815124D01*
X14663362Y-12015124D02*
X14663362Y-11881790D01*
X14663362Y-11900838D02*
X14672886Y-11891314D01*
X14672886Y-11891314D02*
X14691933Y-11881790D01*
X14691933Y-11881790D02*
X14720505Y-11881790D01*
X14720505Y-11881790D02*
X14739552Y-11891314D01*
X14739552Y-11891314D02*
X14749076Y-11910362D01*
X14749076Y-11910362D02*
X14749076Y-12015124D01*
X14749076Y-11910362D02*
X14758600Y-11891314D01*
X14758600Y-11891314D02*
X14777648Y-11881790D01*
X14777648Y-11881790D02*
X14806219Y-11881790D01*
X14806219Y-11881790D02*
X14825267Y-11891314D01*
X14825267Y-11891314D02*
X14834790Y-11910362D01*
X14834790Y-11910362D02*
X14834790Y-12015124D01*
X14930029Y-12015124D02*
X14930029Y-11881790D01*
X14930029Y-11900838D02*
X14939552Y-11891314D01*
X14939552Y-11891314D02*
X14958600Y-11881790D01*
X14958600Y-11881790D02*
X14987171Y-11881790D01*
X14987171Y-11881790D02*
X15006219Y-11891314D01*
X15006219Y-11891314D02*
X15015743Y-11910362D01*
X15015743Y-11910362D02*
X15015743Y-12015124D01*
X15015743Y-11910362D02*
X15025267Y-11891314D01*
X15025267Y-11891314D02*
X15044314Y-11881790D01*
X15044314Y-11881790D02*
X15072886Y-11881790D01*
X15072886Y-11881790D02*
X15091933Y-11891314D01*
X15091933Y-11891314D02*
X15101457Y-11910362D01*
X15101457Y-11910362D02*
X15101457Y-12015124D01*
X15491933Y-11805600D02*
X15320505Y-12062743D01*
X15749076Y-11815124D02*
X15768124Y-11815124D01*
X15768124Y-11815124D02*
X15787172Y-11824648D01*
X15787172Y-11824648D02*
X15796695Y-11834171D01*
X15796695Y-11834171D02*
X15806219Y-11853219D01*
X15806219Y-11853219D02*
X15815743Y-11891314D01*
X15815743Y-11891314D02*
X15815743Y-11938933D01*
X15815743Y-11938933D02*
X15806219Y-11977028D01*
X15806219Y-11977028D02*
X15796695Y-11996076D01*
X15796695Y-11996076D02*
X15787172Y-12005600D01*
X15787172Y-12005600D02*
X15768124Y-12015124D01*
X15768124Y-12015124D02*
X15749076Y-12015124D01*
X15749076Y-12015124D02*
X15730029Y-12005600D01*
X15730029Y-12005600D02*
X15720505Y-11996076D01*
X15720505Y-11996076D02*
X15710981Y-11977028D01*
X15710981Y-11977028D02*
X15701457Y-11938933D01*
X15701457Y-11938933D02*
X15701457Y-11891314D01*
X15701457Y-11891314D02*
X15710981Y-11853219D01*
X15710981Y-11853219D02*
X15720505Y-11834171D01*
X15720505Y-11834171D02*
X15730029Y-11824648D01*
X15730029Y-11824648D02*
X15749076Y-11815124D01*
X15901457Y-11996076D02*
X15910981Y-12005600D01*
X15910981Y-12005600D02*
X15901457Y-12015124D01*
X15901457Y-12015124D02*
X15891933Y-12005600D01*
X15891933Y-12005600D02*
X15901457Y-11996076D01*
X15901457Y-11996076D02*
X15901457Y-12015124D01*
X16034791Y-11815124D02*
X16053838Y-11815124D01*
X16053838Y-11815124D02*
X16072886Y-11824648D01*
X16072886Y-11824648D02*
X16082410Y-11834171D01*
X16082410Y-11834171D02*
X16091933Y-11853219D01*
X16091933Y-11853219D02*
X16101457Y-11891314D01*
X16101457Y-11891314D02*
X16101457Y-11938933D01*
X16101457Y-11938933D02*
X16091933Y-11977028D01*
X16091933Y-11977028D02*
X16082410Y-11996076D01*
X16082410Y-11996076D02*
X16072886Y-12005600D01*
X16072886Y-12005600D02*
X16053838Y-12015124D01*
X16053838Y-12015124D02*
X16034791Y-12015124D01*
X16034791Y-12015124D02*
X16015743Y-12005600D01*
X16015743Y-12005600D02*
X16006219Y-11996076D01*
X16006219Y-11996076D02*
X15996695Y-11977028D01*
X15996695Y-11977028D02*
X15987172Y-11938933D01*
X15987172Y-11938933D02*
X15987172Y-11891314D01*
X15987172Y-11891314D02*
X15996695Y-11853219D01*
X15996695Y-11853219D02*
X16006219Y-11834171D01*
X16006219Y-11834171D02*
X16015743Y-11824648D01*
X16015743Y-11824648D02*
X16034791Y-11815124D01*
X16272886Y-11815124D02*
X16234791Y-11815124D01*
X16234791Y-11815124D02*
X16215743Y-11824648D01*
X16215743Y-11824648D02*
X16206219Y-11834171D01*
X16206219Y-11834171D02*
X16187172Y-11862743D01*
X16187172Y-11862743D02*
X16177648Y-11900838D01*
X16177648Y-11900838D02*
X16177648Y-11977028D01*
X16177648Y-11977028D02*
X16187172Y-11996076D01*
X16187172Y-11996076D02*
X16196695Y-12005600D01*
X16196695Y-12005600D02*
X16215743Y-12015124D01*
X16215743Y-12015124D02*
X16253838Y-12015124D01*
X16253838Y-12015124D02*
X16272886Y-12005600D01*
X16272886Y-12005600D02*
X16282410Y-11996076D01*
X16282410Y-11996076D02*
X16291933Y-11977028D01*
X16291933Y-11977028D02*
X16291933Y-11929409D01*
X16291933Y-11929409D02*
X16282410Y-11910362D01*
X16282410Y-11910362D02*
X16272886Y-11900838D01*
X16272886Y-11900838D02*
X16253838Y-11891314D01*
X16253838Y-11891314D02*
X16215743Y-11891314D01*
X16215743Y-11891314D02*
X16196695Y-11900838D01*
X16196695Y-11900838D02*
X16187172Y-11910362D01*
X16187172Y-11910362D02*
X16177648Y-11929409D01*
X16358600Y-11815124D02*
X16482410Y-11815124D01*
X16482410Y-11815124D02*
X16415743Y-11891314D01*
X16415743Y-11891314D02*
X16444314Y-11891314D01*
X16444314Y-11891314D02*
X16463362Y-11900838D01*
X16463362Y-11900838D02*
X16472886Y-11910362D01*
X16472886Y-11910362D02*
X16482410Y-11929409D01*
X16482410Y-11929409D02*
X16482410Y-11977028D01*
X16482410Y-11977028D02*
X16472886Y-11996076D01*
X16472886Y-11996076D02*
X16463362Y-12005600D01*
X16463362Y-12005600D02*
X16444314Y-12015124D01*
X16444314Y-12015124D02*
X16387172Y-12015124D01*
X16387172Y-12015124D02*
X16368124Y-12005600D01*
X16368124Y-12005600D02*
X16358600Y-11996076D01*
X16606219Y-11815124D02*
X16625267Y-11815124D01*
X16625267Y-11815124D02*
X16644314Y-11824648D01*
X16644314Y-11824648D02*
X16653838Y-11834171D01*
X16653838Y-11834171D02*
X16663362Y-11853219D01*
X16663362Y-11853219D02*
X16672886Y-11891314D01*
X16672886Y-11891314D02*
X16672886Y-11938933D01*
X16672886Y-11938933D02*
X16663362Y-11977028D01*
X16663362Y-11977028D02*
X16653838Y-11996076D01*
X16653838Y-11996076D02*
X16644314Y-12005600D01*
X16644314Y-12005600D02*
X16625267Y-12015124D01*
X16625267Y-12015124D02*
X16606219Y-12015124D01*
X16606219Y-12015124D02*
X16587172Y-12005600D01*
X16587172Y-12005600D02*
X16577648Y-11996076D01*
X16577648Y-11996076D02*
X16568124Y-11977028D01*
X16568124Y-11977028D02*
X16558600Y-11938933D01*
X16558600Y-11938933D02*
X16558600Y-11891314D01*
X16558600Y-11891314D02*
X16568124Y-11853219D01*
X16568124Y-11853219D02*
X16577648Y-11834171D01*
X16577648Y-11834171D02*
X16587172Y-11824648D01*
X16587172Y-11824648D02*
X16606219Y-11815124D01*
X16749076Y-11815124D02*
X16749076Y-11853219D01*
X16825267Y-11815124D02*
X16825267Y-11853219D01*
X17120505Y-12091314D02*
X17110981Y-12081790D01*
X17110981Y-12081790D02*
X17091934Y-12053219D01*
X17091934Y-12053219D02*
X17082410Y-12034171D01*
X17082410Y-12034171D02*
X17072886Y-12005600D01*
X17072886Y-12005600D02*
X17063362Y-11957981D01*
X17063362Y-11957981D02*
X17063362Y-11919886D01*
X17063362Y-11919886D02*
X17072886Y-11872267D01*
X17072886Y-11872267D02*
X17082410Y-11843695D01*
X17082410Y-11843695D02*
X17091934Y-11824648D01*
X17091934Y-11824648D02*
X17110981Y-11796076D01*
X17110981Y-11796076D02*
X17120505Y-11786552D01*
X17301457Y-12015124D02*
X17187172Y-12015124D01*
X17244315Y-12015124D02*
X17244315Y-11815124D01*
X17244315Y-11815124D02*
X17225267Y-11843695D01*
X17225267Y-11843695D02*
X17206219Y-11862743D01*
X17206219Y-11862743D02*
X17187172Y-11872267D01*
X17539553Y-12015124D02*
X17539553Y-11815124D01*
X17625267Y-12015124D02*
X17625267Y-11910362D01*
X17625267Y-11910362D02*
X17615743Y-11891314D01*
X17615743Y-11891314D02*
X17596696Y-11881790D01*
X17596696Y-11881790D02*
X17568124Y-11881790D01*
X17568124Y-11881790D02*
X17549077Y-11891314D01*
X17549077Y-11891314D02*
X17539553Y-11900838D01*
X17749077Y-12015124D02*
X17730029Y-12005600D01*
X17730029Y-12005600D02*
X17720505Y-11996076D01*
X17720505Y-11996076D02*
X17710981Y-11977028D01*
X17710981Y-11977028D02*
X17710981Y-11919886D01*
X17710981Y-11919886D02*
X17720505Y-11900838D01*
X17720505Y-11900838D02*
X17730029Y-11891314D01*
X17730029Y-11891314D02*
X17749077Y-11881790D01*
X17749077Y-11881790D02*
X17777648Y-11881790D01*
X17777648Y-11881790D02*
X17796696Y-11891314D01*
X17796696Y-11891314D02*
X17806219Y-11900838D01*
X17806219Y-11900838D02*
X17815743Y-11919886D01*
X17815743Y-11919886D02*
X17815743Y-11977028D01*
X17815743Y-11977028D02*
X17806219Y-11996076D01*
X17806219Y-11996076D02*
X17796696Y-12005600D01*
X17796696Y-12005600D02*
X17777648Y-12015124D01*
X17777648Y-12015124D02*
X17749077Y-12015124D01*
X17930029Y-12015124D02*
X17910981Y-12005600D01*
X17910981Y-12005600D02*
X17901458Y-11986552D01*
X17901458Y-11986552D02*
X17901458Y-11815124D01*
X18082410Y-12005600D02*
X18063362Y-12015124D01*
X18063362Y-12015124D02*
X18025267Y-12015124D01*
X18025267Y-12015124D02*
X18006219Y-12005600D01*
X18006219Y-12005600D02*
X17996696Y-11986552D01*
X17996696Y-11986552D02*
X17996696Y-11910362D01*
X17996696Y-11910362D02*
X18006219Y-11891314D01*
X18006219Y-11891314D02*
X18025267Y-11881790D01*
X18025267Y-11881790D02*
X18063362Y-11881790D01*
X18063362Y-11881790D02*
X18082410Y-11891314D01*
X18082410Y-11891314D02*
X18091934Y-11910362D01*
X18091934Y-11910362D02*
X18091934Y-11929409D01*
X18091934Y-11929409D02*
X17996696Y-11948457D01*
X18158600Y-12091314D02*
X18168124Y-12081790D01*
X18168124Y-12081790D02*
X18187172Y-12053219D01*
X18187172Y-12053219D02*
X18196696Y-12034171D01*
X18196696Y-12034171D02*
X18206219Y-12005600D01*
X18206219Y-12005600D02*
X18215743Y-11957981D01*
X18215743Y-11957981D02*
X18215743Y-11919886D01*
X18215743Y-11919886D02*
X18206219Y-11872267D01*
X18206219Y-11872267D02*
X18196696Y-11843695D01*
X18196696Y-11843695D02*
X18187172Y-11824648D01*
X18187172Y-11824648D02*
X18168124Y-11796076D01*
X18168124Y-11796076D02*
X18158600Y-11786552D01*
X18520505Y-12091314D02*
X18510981Y-12081790D01*
X18510981Y-12081790D02*
X18491934Y-12053219D01*
X18491934Y-12053219D02*
X18482410Y-12034171D01*
X18482410Y-12034171D02*
X18472886Y-12005600D01*
X18472886Y-12005600D02*
X18463362Y-11957981D01*
X18463362Y-11957981D02*
X18463362Y-11919886D01*
X18463362Y-11919886D02*
X18472886Y-11872267D01*
X18472886Y-11872267D02*
X18482410Y-11843695D01*
X18482410Y-11843695D02*
X18491934Y-11824648D01*
X18491934Y-11824648D02*
X18510981Y-11796076D01*
X18510981Y-11796076D02*
X18520505Y-11786552D01*
X18596696Y-11881790D02*
X18596696Y-12015124D01*
X18596696Y-11900838D02*
X18606219Y-11891314D01*
X18606219Y-11891314D02*
X18625267Y-11881790D01*
X18625267Y-11881790D02*
X18653839Y-11881790D01*
X18653839Y-11881790D02*
X18672886Y-11891314D01*
X18672886Y-11891314D02*
X18682410Y-11910362D01*
X18682410Y-11910362D02*
X18682410Y-12015124D01*
X18806219Y-12015124D02*
X18787172Y-12005600D01*
X18787172Y-12005600D02*
X18777648Y-11996076D01*
X18777648Y-11996076D02*
X18768124Y-11977028D01*
X18768124Y-11977028D02*
X18768124Y-11919886D01*
X18768124Y-11919886D02*
X18777648Y-11900838D01*
X18777648Y-11900838D02*
X18787172Y-11891314D01*
X18787172Y-11891314D02*
X18806219Y-11881790D01*
X18806219Y-11881790D02*
X18834791Y-11881790D01*
X18834791Y-11881790D02*
X18853839Y-11891314D01*
X18853839Y-11891314D02*
X18863362Y-11900838D01*
X18863362Y-11900838D02*
X18872886Y-11919886D01*
X18872886Y-11919886D02*
X18872886Y-11977028D01*
X18872886Y-11977028D02*
X18863362Y-11996076D01*
X18863362Y-11996076D02*
X18853839Y-12005600D01*
X18853839Y-12005600D02*
X18834791Y-12015124D01*
X18834791Y-12015124D02*
X18806219Y-12015124D01*
X18930029Y-11881790D02*
X19006219Y-11881790D01*
X18958600Y-11815124D02*
X18958600Y-11986552D01*
X18958600Y-11986552D02*
X18968124Y-12005600D01*
X18968124Y-12005600D02*
X18987172Y-12015124D01*
X18987172Y-12015124D02*
X19006219Y-12015124D01*
X19225267Y-11881790D02*
X19225267Y-12081790D01*
X19225267Y-11891314D02*
X19244315Y-11881790D01*
X19244315Y-11881790D02*
X19282410Y-11881790D01*
X19282410Y-11881790D02*
X19301458Y-11891314D01*
X19301458Y-11891314D02*
X19310981Y-11900838D01*
X19310981Y-11900838D02*
X19320505Y-11919886D01*
X19320505Y-11919886D02*
X19320505Y-11977028D01*
X19320505Y-11977028D02*
X19310981Y-11996076D01*
X19310981Y-11996076D02*
X19301458Y-12005600D01*
X19301458Y-12005600D02*
X19282410Y-12015124D01*
X19282410Y-12015124D02*
X19244315Y-12015124D01*
X19244315Y-12015124D02*
X19225267Y-12005600D01*
X19434791Y-12015124D02*
X19415743Y-12005600D01*
X19415743Y-12005600D02*
X19406220Y-11986552D01*
X19406220Y-11986552D02*
X19406220Y-11815124D01*
X19596696Y-12015124D02*
X19596696Y-11910362D01*
X19596696Y-11910362D02*
X19587172Y-11891314D01*
X19587172Y-11891314D02*
X19568124Y-11881790D01*
X19568124Y-11881790D02*
X19530029Y-11881790D01*
X19530029Y-11881790D02*
X19510981Y-11891314D01*
X19596696Y-12005600D02*
X19577648Y-12015124D01*
X19577648Y-12015124D02*
X19530029Y-12015124D01*
X19530029Y-12015124D02*
X19510981Y-12005600D01*
X19510981Y-12005600D02*
X19501458Y-11986552D01*
X19501458Y-11986552D02*
X19501458Y-11967505D01*
X19501458Y-11967505D02*
X19510981Y-11948457D01*
X19510981Y-11948457D02*
X19530029Y-11938933D01*
X19530029Y-11938933D02*
X19577648Y-11938933D01*
X19577648Y-11938933D02*
X19596696Y-11929409D01*
X19663362Y-11881790D02*
X19739553Y-11881790D01*
X19691934Y-11815124D02*
X19691934Y-11986552D01*
X19691934Y-11986552D02*
X19701458Y-12005600D01*
X19701458Y-12005600D02*
X19720505Y-12015124D01*
X19720505Y-12015124D02*
X19739553Y-12015124D01*
X19882410Y-12005600D02*
X19863362Y-12015124D01*
X19863362Y-12015124D02*
X19825267Y-12015124D01*
X19825267Y-12015124D02*
X19806220Y-12005600D01*
X19806220Y-12005600D02*
X19796696Y-11986552D01*
X19796696Y-11986552D02*
X19796696Y-11910362D01*
X19796696Y-11910362D02*
X19806220Y-11891314D01*
X19806220Y-11891314D02*
X19825267Y-11881790D01*
X19825267Y-11881790D02*
X19863362Y-11881790D01*
X19863362Y-11881790D02*
X19882410Y-11891314D01*
X19882410Y-11891314D02*
X19891934Y-11910362D01*
X19891934Y-11910362D02*
X19891934Y-11929409D01*
X19891934Y-11929409D02*
X19796696Y-11948457D01*
X20063362Y-12015124D02*
X20063362Y-11815124D01*
X20063362Y-12005600D02*
X20044315Y-12015124D01*
X20044315Y-12015124D02*
X20006220Y-12015124D01*
X20006220Y-12015124D02*
X19987172Y-12005600D01*
X19987172Y-12005600D02*
X19977648Y-11996076D01*
X19977648Y-11996076D02*
X19968124Y-11977028D01*
X19968124Y-11977028D02*
X19968124Y-11919886D01*
X19968124Y-11919886D02*
X19977648Y-11900838D01*
X19977648Y-11900838D02*
X19987172Y-11891314D01*
X19987172Y-11891314D02*
X20006220Y-11881790D01*
X20006220Y-11881790D02*
X20044315Y-11881790D01*
X20044315Y-11881790D02*
X20063362Y-11891314D01*
X20139553Y-12091314D02*
X20149077Y-12081790D01*
X20149077Y-12081790D02*
X20168124Y-12053219D01*
X20168124Y-12053219D02*
X20177648Y-12034171D01*
X20177648Y-12034171D02*
X20187172Y-12005600D01*
X20187172Y-12005600D02*
X20196696Y-11957981D01*
X20196696Y-11957981D02*
X20196696Y-11919886D01*
X20196696Y-11919886D02*
X20187172Y-11872267D01*
X20187172Y-11872267D02*
X20177648Y-11843695D01*
X20177648Y-11843695D02*
X20168124Y-11824648D01*
X20168124Y-11824648D02*
X20149077Y-11796076D01*
X20149077Y-11796076D02*
X20139553Y-11786552D01*
M02*
