%TF.GenerationSoftware,KiCad,Pcbnew,7.0.1*%
%TF.CreationDate,2023-07-01T13:19:20-07:00*%
%TF.ProjectId,tn_vdp_v3_board,746e5f76-6470-45f7-9633-5f626f617264,rev?*%
%TF.SameCoordinates,Original*%
%TF.FileFunction,Copper,L2,Bot*%
%TF.FilePolarity,Positive*%
%FSLAX46Y46*%
G04 Gerber Fmt 4.6, Leading zero omitted, Abs format (unit mm)*
G04 Created by KiCad (PCBNEW 7.0.1) date 2023-07-01 13:19:20*
%MOMM*%
%LPD*%
G01*
G04 APERTURE LIST*
%TA.AperFunction,ComponentPad*%
%ADD10R,2.400000X1.600000*%
%TD*%
%TA.AperFunction,ComponentPad*%
%ADD11O,2.400000X1.600000*%
%TD*%
%TA.AperFunction,ComponentPad*%
%ADD12R,1.700000X1.700000*%
%TD*%
%TA.AperFunction,ComponentPad*%
%ADD13O,1.700000X1.700000*%
%TD*%
%TA.AperFunction,ComponentPad*%
%ADD14C,1.600000*%
%TD*%
%TA.AperFunction,ComponentPad*%
%ADD15C,3.500000*%
%TD*%
%TA.AperFunction,ComponentPad*%
%ADD16C,1.620000*%
%TD*%
%TA.AperFunction,ComponentPad*%
%ADD17R,1.600000X1.600000*%
%TD*%
%TA.AperFunction,ComponentPad*%
%ADD18O,1.600000X1.600000*%
%TD*%
%TA.AperFunction,ViaPad*%
%ADD19C,0.800000*%
%TD*%
%TA.AperFunction,Conductor*%
%ADD20C,0.250000*%
%TD*%
G04 APERTURE END LIST*
D10*
%TO.P,U3,1,DIR*%
%TO.N,VCC*%
X138337000Y-50800000D03*
D11*
%TO.P,U3,2,A0*%
%TO.N,~{RESET}*%
X138337000Y-53340000D03*
%TO.P,U3,3,A1*%
%TO.N,~{INT_3V3}*%
X138337000Y-55880000D03*
%TO.P,U3,4,A2*%
%TO.N,~{CSW}*%
X138337000Y-58420000D03*
%TO.P,U3,5,A3*%
%TO.N,~{CSR}*%
X138337000Y-60960000D03*
%TO.P,U3,6,A4*%
%TO.N,MODE*%
X138337000Y-63500000D03*
%TO.P,U3,7,A5*%
%TO.N,CPUCLK_3V3*%
X138337000Y-66040000D03*
%TO.P,U3,8,A6*%
%TO.N,GROMCLK_3V3*%
X138337000Y-68580000D03*
%TO.P,U3,9,A7*%
%TO.N,MODE1*%
X138337000Y-71120000D03*
%TO.P,U3,10,GND*%
%TO.N,GND*%
X138337000Y-73660000D03*
%TO.P,U3,11,B7*%
%TO.N,MODE1_3V3*%
X145957000Y-73660000D03*
%TO.P,U3,12,B6*%
%TO.N,GROMCLK*%
X145957000Y-71120000D03*
%TO.P,U3,13,B5*%
%TO.N,CPUCLK*%
X145957000Y-68580000D03*
%TO.P,U3,14,B4*%
%TO.N,MODE_3V3*%
X145957000Y-66040000D03*
%TO.P,U3,15,B3*%
%TO.N,~{CSR_3V3}*%
X145957000Y-63500000D03*
%TO.P,U3,16,B2*%
%TO.N,~{CSW_3V3}*%
X145957000Y-60960000D03*
%TO.P,U3,17,B1*%
%TO.N,~{INT}*%
X145957000Y-58420000D03*
%TO.P,U3,18,B0*%
%TO.N,~{RESET_3V3}*%
X145957000Y-55880000D03*
%TO.P,U3,19,~{0E}*%
%TO.N,GND*%
X145957000Y-53340000D03*
%TO.P,U3,20,VCC*%
%TO.N,VCC_3V3*%
X145957000Y-50800000D03*
%TD*%
D12*
%TO.P,J2,1,Pin_1*%
%TO.N,GND*%
X181000000Y-73660000D03*
D13*
%TO.P,J2,2,Pin_2*%
%TO.N,VCC*%
X178460000Y-73660000D03*
%TO.P,J2,3,Pin_3*%
%TO.N,GND*%
X181000000Y-71120000D03*
%TO.P,J2,4,Pin_4*%
%TO.N,CPUCLK*%
X178460000Y-71120000D03*
%TO.P,J2,5,Pin_5*%
%TO.N,CD0*%
X181000000Y-68580000D03*
%TO.P,J2,6,Pin_6*%
%TO.N,GROMCLK*%
X178460000Y-68580000D03*
%TO.P,J2,7,Pin_7*%
%TO.N,CD1*%
X181000000Y-66040000D03*
%TO.P,J2,8,Pin_8*%
%TO.N,AUDIO*%
X178460000Y-66040000D03*
%TO.P,J2,9,Pin_9*%
%TO.N,CD2*%
X181000000Y-63500000D03*
%TO.P,J2,10,Pin_10*%
%TO.N,MODE1*%
X178460000Y-63500000D03*
%TO.P,J2,11,Pin_11*%
%TO.N,CD3*%
X181000000Y-60960000D03*
%TO.P,J2,12,Pin_12*%
%TO.N,~{RESET}*%
X178460000Y-60960000D03*
%TO.P,J2,13,Pin_13*%
%TO.N,CD4*%
X181000000Y-58420000D03*
%TO.P,J2,14,Pin_14*%
%TO.N,MODE*%
X178460000Y-58420000D03*
%TO.P,J2,15,Pin_15*%
%TO.N,CD5*%
X181000000Y-55880000D03*
%TO.P,J2,16,Pin_16*%
%TO.N,~{CSW}*%
X178460000Y-55880000D03*
%TO.P,J2,17,Pin_17*%
%TO.N,CD6*%
X181000000Y-53340000D03*
%TO.P,J2,18,Pin_18*%
%TO.N,~{CSR}*%
X178460000Y-53340000D03*
%TO.P,J2,19,Pin_19*%
%TO.N,CD7*%
X181000000Y-50800000D03*
%TO.P,J2,20,Pin_20*%
%TO.N,~{INT}*%
X178460000Y-50800000D03*
%TD*%
D12*
%TO.P,J3,1,Pin_1*%
%TO.N,unconnected-(J3-Pin_1-Pad1)*%
X150000000Y-50000000D03*
D13*
%TO.P,J3,2,Pin_2*%
%TO.N,unconnected-(J3-Pin_2-Pad2)*%
X150000000Y-52540000D03*
%TO.P,J3,3,Pin_3*%
%TO.N,unconnected-(J3-Pin_3-Pad3)*%
X150000000Y-55080000D03*
%TO.P,J3,4,Pin_4*%
%TO.N,unconnected-(J3-Pin_4-Pad4)*%
X150000000Y-57620000D03*
%TO.P,J3,5,Pin_5*%
%TO.N,unconnected-(J3-Pin_5-Pad5)*%
X150000000Y-60160000D03*
%TO.P,J3,6,Pin_6*%
%TO.N,unconnected-(J3-Pin_6-Pad6)*%
X150000000Y-62700000D03*
%TO.P,J3,7,Pin_7*%
%TO.N,unconnected-(J3-Pin_7-Pad7)*%
X150000000Y-65240000D03*
%TO.P,J3,8,Pin_8*%
%TO.N,MODE_3V3*%
X150000000Y-67780000D03*
%TO.P,J3,9,Pin_9*%
%TO.N,~{CSW_3V3}*%
X150000000Y-70320000D03*
%TO.P,J3,10,Pin_10*%
%TO.N,~{CSR_3V3}*%
X150000000Y-72860000D03*
%TO.P,J3,11,Pin_11*%
%TO.N,~{INT_3V3}*%
X150000000Y-75400000D03*
%TO.P,J3,12,Pin_12*%
%TO.N,CPUCLK_3V3*%
X150000000Y-77940000D03*
%TO.P,J3,13,Pin_13*%
%TO.N,GROMCLK_3V3*%
X150000000Y-80480000D03*
%TO.P,J3,14,Pin_14*%
%TO.N,~{RESET_3V3}*%
X150000000Y-83020000D03*
%TO.P,J3,15,Pin_15*%
%TO.N,USR1_1V8*%
X150000000Y-85560000D03*
%TO.P,J3,16,Pin_16*%
%TO.N,USR2_1V8*%
X150000000Y-88100000D03*
%TO.P,J3,17,Pin_17*%
%TO.N,USR3_1V8*%
X150000000Y-90640000D03*
%TO.P,J3,18,Pin_18*%
%TO.N,USR4_1V8*%
X150000000Y-93180000D03*
%TO.P,J3,19,Pin_19*%
%TO.N,VCC_3V3*%
X150000000Y-95720000D03*
%TO.P,J3,20,Pin_20*%
%TO.N,GND*%
X150000000Y-98260000D03*
%TD*%
D14*
%TO.P,C2,1*%
%TO.N,VCC_3V3*%
X158663000Y-76578000D03*
%TO.P,C2,2*%
%TO.N,GND*%
X156163000Y-76578000D03*
%TD*%
D15*
%TO.P,H1,1*%
%TO.N,N/C*%
X137668000Y-46990000D03*
%TD*%
D14*
%TO.P,C4,1*%
%TO.N,VREF*%
X177250000Y-109250000D03*
%TO.P,C4,2*%
%TO.N,GND*%
X174750000Y-109250000D03*
%TD*%
D12*
%TO.P,J6,1,Pin_1*%
%TO.N,VCC*%
X170320000Y-50000000D03*
D13*
%TO.P,J6,2,Pin_2*%
%TO.N,GND*%
X170320000Y-52540000D03*
%TO.P,J6,3,Pin_3*%
%TO.N,unconnected-(J6-Pin_3-Pad3)*%
X170320000Y-55080000D03*
%TO.P,J6,4,Pin_4*%
%TO.N,unconnected-(J6-Pin_4-Pad4)*%
X170320000Y-57620000D03*
%TO.P,J6,5,Pin_5*%
%TO.N,CD0_3V3*%
X170320000Y-60160000D03*
%TO.P,J6,6,Pin_6*%
%TO.N,CD1_3V3*%
X170320000Y-62700000D03*
%TO.P,J6,7,Pin_7*%
%TO.N,CD2_3V3*%
X170320000Y-65240000D03*
%TO.P,J6,8,Pin_8*%
%TO.N,CD3_3V3*%
X170320000Y-67780000D03*
%TO.P,J6,9,Pin_9*%
%TO.N,CD4_3V3*%
X170320000Y-70320000D03*
%TO.P,J6,10,Pin_10*%
%TO.N,CD5_3V3*%
X170320000Y-72860000D03*
%TO.P,J6,11,Pin_11*%
%TO.N,CD6_3V3*%
X170320000Y-75400000D03*
%TO.P,J6,12,Pin_12*%
%TO.N,CD7_3V3*%
X170320000Y-77940000D03*
%TO.P,J6,13,Pin_13*%
%TO.N,MODE1_3V3*%
X170320000Y-80480000D03*
%TO.P,J6,14,Pin_14*%
%TO.N,unconnected-(J6-Pin_14-Pad14)*%
X170320000Y-83020000D03*
%TO.P,J6,15,Pin_15*%
%TO.N,GND*%
X170320000Y-85560000D03*
%TO.P,J6,16,Pin_16*%
%TO.N,VCC_3V3*%
X170320000Y-88100000D03*
%TO.P,J6,17,Pin_17*%
%TO.N,ADC_CLK*%
X170320000Y-90640000D03*
%TO.P,J6,18,Pin_18*%
%TO.N,ADC_CS*%
X170320000Y-93180000D03*
%TO.P,J6,19,Pin_19*%
%TO.N,ADC_MISO*%
X170320000Y-95720000D03*
%TO.P,J6,20,Pin_20*%
%TO.N,ADC_MOSI*%
X170320000Y-98260000D03*
%TD*%
D14*
%TO.P,C1,1*%
%TO.N,VCC_3V3*%
X140750000Y-76835000D03*
%TO.P,C1,2*%
%TO.N,GND*%
X138250000Y-76835000D03*
%TD*%
D10*
%TO.P,U4,1,~{CS}/SHDN*%
%TO.N,ADC_CS*%
X174675000Y-98250000D03*
D11*
%TO.P,U4,2,CH0*%
%TO.N,AUDIO*%
X174675000Y-100790000D03*
%TO.P,U4,3,CH1*%
X174675000Y-103330000D03*
%TO.P,U4,4,VSS*%
%TO.N,GND*%
X174675000Y-105870000D03*
%TO.P,U4,5,DIN*%
%TO.N,ADC_MOSI*%
X182295000Y-105870000D03*
%TO.P,U4,6,DOUT*%
%TO.N,ADC_MISO*%
X182295000Y-103330000D03*
%TO.P,U4,7,CLK*%
%TO.N,ADC_CLK*%
X182295000Y-100790000D03*
%TO.P,U4,8,VDD/VREF*%
%TO.N,VREF*%
X182295000Y-98250000D03*
%TD*%
D14*
%TO.P,C3,1*%
%TO.N,VCC_3V3*%
X163870000Y-81785000D03*
%TO.P,C3,2*%
%TO.N,GND*%
X161370000Y-81785000D03*
%TD*%
D16*
%TO.P,RV1,1,1*%
%TO.N,VCC*%
X176000000Y-94750000D03*
%TO.P,RV1,2,2*%
%TO.N,VREF*%
X181000000Y-92250000D03*
%TO.P,RV1,3,3*%
%TO.N,GND*%
X176000000Y-89750000D03*
%TD*%
D15*
%TO.P,H3,1*%
%TO.N,N/C*%
X137668000Y-110744000D03*
%TD*%
%TO.P,H4,1*%
%TO.N,N/C*%
X183000000Y-110744000D03*
%TD*%
D17*
%TO.P,J4,1,Pin_1*%
%TO.N,USR1_1V8*%
X174675000Y-78450000D03*
D18*
%TO.P,J4,2,Pin_2*%
%TO.N,USR2_1V8*%
X174675000Y-80990000D03*
%TO.P,J4,3,Pin_3*%
%TO.N,USR3_1V8*%
X174675000Y-83530000D03*
%TO.P,J4,4,Pin_4*%
%TO.N,USR4_1V8*%
X174675000Y-86070000D03*
%TO.P,J4,5,Pin_5*%
%TO.N,GND*%
X182295000Y-86070000D03*
%TO.P,J4,6,Pin_6*%
X182295000Y-83530000D03*
%TO.P,J4,7,Pin_7*%
X182295000Y-80990000D03*
%TO.P,J4,8,Pin_8*%
X182295000Y-78450000D03*
%TD*%
D10*
%TO.P,U2,1,DIR*%
%TO.N,VCC*%
X156209200Y-50573400D03*
D11*
%TO.P,U2,2,A0*%
%TO.N,CD0*%
X156209200Y-53113400D03*
%TO.P,U2,3,A1*%
%TO.N,CD1*%
X156209200Y-55653400D03*
%TO.P,U2,4,A2*%
%TO.N,CD2*%
X156209200Y-58193400D03*
%TO.P,U2,5,A3*%
%TO.N,CD3*%
X156209200Y-60733400D03*
%TO.P,U2,6,A4*%
%TO.N,CD4*%
X156209200Y-63273400D03*
%TO.P,U2,7,A5*%
%TO.N,CD5*%
X156209200Y-65813400D03*
%TO.P,U2,8,A6*%
%TO.N,CD6*%
X156209200Y-68353400D03*
%TO.P,U2,9,A7*%
%TO.N,CD7*%
X156209200Y-70893400D03*
%TO.P,U2,10,GND*%
%TO.N,GND*%
X156209200Y-73433400D03*
%TO.P,U2,11,B7*%
%TO.N,CD7_3V3*%
X163829200Y-73433400D03*
%TO.P,U2,12,B6*%
%TO.N,CD6_3V3*%
X163829200Y-70893400D03*
%TO.P,U2,13,B5*%
%TO.N,CD5_3V3*%
X163829200Y-68353400D03*
%TO.P,U2,14,B4*%
%TO.N,CD4_3V3*%
X163829200Y-65813400D03*
%TO.P,U2,15,B3*%
%TO.N,CD3_3V3*%
X163829200Y-63273400D03*
%TO.P,U2,16,B2*%
%TO.N,CD2_3V3*%
X163829200Y-60733400D03*
%TO.P,U2,17,B1*%
%TO.N,CD1_3V3*%
X163829200Y-58193400D03*
%TO.P,U2,18,B0*%
%TO.N,CD0_3V3*%
X163829200Y-55653400D03*
%TO.P,U2,19,~{0E}*%
%TO.N,~{CSW}*%
X163829200Y-53113400D03*
%TO.P,U2,20,VCC*%
%TO.N,VCC_3V3*%
X163829200Y-50573400D03*
%TD*%
D15*
%TO.P,H2,1*%
%TO.N,N/C*%
X183000000Y-46990000D03*
%TD*%
D10*
%TO.P,U1,1,DIR*%
%TO.N,GND*%
X156250000Y-84960000D03*
D11*
%TO.P,U1,2,A0*%
%TO.N,CD0*%
X156250000Y-87500000D03*
%TO.P,U1,3,A1*%
%TO.N,CD1*%
X156250000Y-90040000D03*
%TO.P,U1,4,A2*%
%TO.N,CD2*%
X156250000Y-92580000D03*
%TO.P,U1,5,A3*%
%TO.N,CD3*%
X156250000Y-95120000D03*
%TO.P,U1,6,A4*%
%TO.N,CD4*%
X156250000Y-97660000D03*
%TO.P,U1,7,A5*%
%TO.N,CD5*%
X156250000Y-100200000D03*
%TO.P,U1,8,A6*%
%TO.N,CD6*%
X156250000Y-102740000D03*
%TO.P,U1,9,A7*%
%TO.N,CD7*%
X156250000Y-105280000D03*
%TO.P,U1,10,GND*%
%TO.N,GND*%
X156250000Y-107820000D03*
%TO.P,U1,11,B7*%
%TO.N,CD7_3V3*%
X163870000Y-107820000D03*
%TO.P,U1,12,B6*%
%TO.N,CD6_3V3*%
X163870000Y-105280000D03*
%TO.P,U1,13,B5*%
%TO.N,CD5_3V3*%
X163870000Y-102740000D03*
%TO.P,U1,14,B4*%
%TO.N,CD4_3V3*%
X163870000Y-100200000D03*
%TO.P,U1,15,B3*%
%TO.N,CD3_3V3*%
X163870000Y-97660000D03*
%TO.P,U1,16,B2*%
%TO.N,CD2_3V3*%
X163870000Y-95120000D03*
%TO.P,U1,17,B1*%
%TO.N,CD1_3V3*%
X163870000Y-92580000D03*
%TO.P,U1,18,B0*%
%TO.N,CD0_3V3*%
X163870000Y-90040000D03*
%TO.P,U1,19,~{0E}*%
%TO.N,~{CSR}*%
X163870000Y-87500000D03*
%TO.P,U1,20,VCC*%
%TO.N,VCC_3V3*%
X163870000Y-84960000D03*
%TD*%
D12*
%TO.P,J1,1,Pin_1*%
%TO.N,GND*%
X139460000Y-83540000D03*
D13*
%TO.P,J1,2,Pin_2*%
%TO.N,VCC*%
X142000000Y-83540000D03*
%TO.P,J1,3,Pin_3*%
%TO.N,GND*%
X139460000Y-86080000D03*
%TO.P,J1,4,Pin_4*%
%TO.N,CPUCLK*%
X142000000Y-86080000D03*
%TO.P,J1,5,Pin_5*%
%TO.N,CD0*%
X139460000Y-88620000D03*
%TO.P,J1,6,Pin_6*%
%TO.N,GROMCLK*%
X142000000Y-88620000D03*
%TO.P,J1,7,Pin_7*%
%TO.N,CD1*%
X139460000Y-91160000D03*
%TO.P,J1,8,Pin_8*%
%TO.N,AUDIO*%
X142000000Y-91160000D03*
%TO.P,J1,9,Pin_9*%
%TO.N,CD2*%
X139460000Y-93700000D03*
%TO.P,J1,10,Pin_10*%
%TO.N,MODE1*%
X142000000Y-93700000D03*
%TO.P,J1,11,Pin_11*%
%TO.N,CD3*%
X139460000Y-96240000D03*
%TO.P,J1,12,Pin_12*%
%TO.N,~{RESET}*%
X142000000Y-96240000D03*
%TO.P,J1,13,Pin_13*%
%TO.N,CD4*%
X139460000Y-98780000D03*
%TO.P,J1,14,Pin_14*%
%TO.N,MODE*%
X142000000Y-98780000D03*
%TO.P,J1,15,Pin_15*%
%TO.N,CD5*%
X139460000Y-101320000D03*
%TO.P,J1,16,Pin_16*%
%TO.N,~{CSW}*%
X142000000Y-101320000D03*
%TO.P,J1,17,Pin_17*%
%TO.N,CD6*%
X139460000Y-103860000D03*
%TO.P,J1,18,Pin_18*%
%TO.N,~{CSR}*%
X142000000Y-103860000D03*
%TO.P,J1,19,Pin_19*%
%TO.N,CD7*%
X139460000Y-106400000D03*
%TO.P,J1,20,Pin_20*%
%TO.N,~{INT}*%
X142000000Y-106400000D03*
%TD*%
D19*
%TO.N,CD0*%
X173070400Y-54580800D03*
X148524600Y-86906800D03*
%TO.N,CD1*%
X152023500Y-90121800D03*
X151923900Y-79491900D03*
%TO.N,CD3*%
X159389500Y-60925600D03*
%TO.N,CD5*%
X159886600Y-59509700D03*
%TO.N,~{INT}*%
X159739200Y-52990700D03*
X172195300Y-46754400D03*
%TO.N,~{CSW}*%
X145765500Y-75770500D03*
X143959200Y-60632100D03*
X143959200Y-58122500D03*
%TO.N,MODE*%
X179730000Y-54137500D03*
%TO.N,CPUCLK_3V3*%
X142765900Y-77800400D03*
%TO.N,MODE1_3V3*%
X159942700Y-79883200D03*
X157500900Y-75696700D03*
%TO.N,MODE1*%
X141951800Y-78847400D03*
%TO.N,USR4_1V8*%
X169560100Y-104785000D03*
X153408600Y-105834700D03*
%TO.N,USR2_1V8*%
X152698700Y-108270400D03*
X150918500Y-106632500D03*
%TO.N,VCC_3V3*%
X160028600Y-92092600D03*
%TD*%
D20*
%TO.N,CPUCLK*%
X178460000Y-71120000D02*
X178460000Y-72295100D01*
X177637800Y-72295100D02*
X178460000Y-72295100D01*
X170774900Y-79158000D02*
X177637800Y-72295100D01*
X156943900Y-79158000D02*
X170774900Y-79158000D01*
X151811900Y-84290000D02*
X156943900Y-79158000D01*
X147638000Y-84290000D02*
X151811900Y-84290000D01*
X145848000Y-86080000D02*
X147638000Y-84290000D01*
X142000000Y-86080000D02*
X145848000Y-86080000D01*
%TO.N,GROMCLK*%
X177667600Y-69755100D02*
X178460000Y-69755100D01*
X170847100Y-76575600D02*
X177667600Y-69755100D01*
X169258200Y-76575600D02*
X170847100Y-76575600D01*
X164989800Y-72307200D02*
X169258200Y-76575600D01*
X162938900Y-72307200D02*
X164989800Y-72307200D01*
X162304100Y-72942000D02*
X162938900Y-72307200D01*
X162304100Y-75890000D02*
X162304100Y-72942000D01*
X159486300Y-78707800D02*
X162304100Y-75890000D01*
X155152400Y-78707800D02*
X159486300Y-78707800D01*
X152143300Y-81716900D02*
X155152400Y-78707800D01*
X148565200Y-81716900D02*
X152143300Y-81716900D01*
X145472100Y-84810000D02*
X148565200Y-81716900D01*
X139052500Y-84810000D02*
X145472100Y-84810000D01*
X138231100Y-85631400D02*
X139052500Y-84810000D01*
X138231100Y-89077000D02*
X138231100Y-85631400D01*
X138959300Y-89805200D02*
X138231100Y-89077000D01*
X140178100Y-89805200D02*
X138959300Y-89805200D01*
X141363300Y-88620000D02*
X140178100Y-89805200D01*
X142000000Y-88620000D02*
X141363300Y-88620000D01*
X178460000Y-68580000D02*
X178460000Y-69755100D01*
%TO.N,~{RESET}*%
X178825200Y-59784900D02*
X178460000Y-59784900D01*
X179762400Y-58847700D02*
X178825200Y-59784900D01*
X179762400Y-57972900D02*
X179762400Y-58847700D01*
X180585300Y-57150000D02*
X179762400Y-57972900D01*
X181479700Y-57150000D02*
X180585300Y-57150000D01*
X182187400Y-56442300D02*
X181479700Y-57150000D01*
X182187400Y-50305200D02*
X182187400Y-56442300D01*
X177448600Y-45566400D02*
X182187400Y-50305200D01*
X147635700Y-45566400D02*
X177448600Y-45566400D01*
X139862100Y-53340000D02*
X147635700Y-45566400D01*
X138337000Y-53340000D02*
X139862100Y-53340000D01*
X178460000Y-60960000D02*
X178460000Y-59784900D01*
%TO.N,CD0*%
X139460000Y-88620000D02*
X140635100Y-88620000D01*
X156250000Y-87500000D02*
X154724900Y-87500000D01*
X147986500Y-87444900D02*
X148524600Y-86906800D01*
X141442900Y-87444900D02*
X147986500Y-87444900D01*
X140635100Y-88252700D02*
X141442900Y-87444900D01*
X140635100Y-88620000D02*
X140635100Y-88252700D01*
X154131700Y-86906800D02*
X154724900Y-87500000D01*
X148524600Y-86906800D02*
X154131700Y-86906800D01*
X172204800Y-53715200D02*
X173070400Y-54580800D01*
X169683300Y-53715200D02*
X172204800Y-53715200D01*
X164921800Y-48953700D02*
X169683300Y-53715200D01*
X161894000Y-48953700D02*
X164921800Y-48953700D01*
X157734300Y-53113400D02*
X161894000Y-48953700D01*
X156209200Y-53113400D02*
X157734300Y-53113400D01*
%TO.N,CD1*%
X152094800Y-90361700D02*
X152094800Y-90193100D01*
X150640800Y-91815700D02*
X152094800Y-90361700D01*
X147300900Y-91815700D02*
X150640800Y-91815700D01*
X145430100Y-89944900D02*
X147300900Y-91815700D01*
X140675100Y-89944900D02*
X145430100Y-89944900D01*
X139460000Y-91160000D02*
X140675100Y-89944900D01*
X152247900Y-90040000D02*
X156250000Y-90040000D01*
X152094800Y-90193100D02*
X152247900Y-90040000D01*
X152094800Y-90193100D02*
X152023500Y-90121800D01*
X181000000Y-66040000D02*
X179824900Y-66040000D01*
X179824900Y-66407300D02*
X179824900Y-66040000D01*
X179017100Y-67215100D02*
X179824900Y-66407300D01*
X178085000Y-67215100D02*
X179017100Y-67215100D01*
X171234700Y-74065400D02*
X178085000Y-67215100D01*
X169163000Y-74065400D02*
X171234700Y-74065400D01*
X164861700Y-69764100D02*
X169163000Y-74065400D01*
X162922200Y-69764100D02*
X164861700Y-69764100D01*
X161403900Y-71282400D02*
X162922200Y-69764100D01*
X161403900Y-76153500D02*
X161403900Y-71282400D01*
X159299700Y-78257700D02*
X161403900Y-76153500D01*
X153158100Y-78257700D02*
X159299700Y-78257700D01*
X151923900Y-79491900D02*
X153158100Y-78257700D01*
%TO.N,CD2*%
X153854900Y-92580000D02*
X156250000Y-92580000D01*
X152045500Y-94389400D02*
X153854900Y-92580000D01*
X147334600Y-94389400D02*
X152045500Y-94389400D01*
X145454500Y-92509300D02*
X147334600Y-94389400D01*
X141458600Y-92509300D02*
X145454500Y-92509300D01*
X140635100Y-93332800D02*
X141458600Y-92509300D01*
X140635100Y-93700000D02*
X140635100Y-93332800D01*
X139460000Y-93700000D02*
X140635100Y-93700000D01*
%TO.N,CD3*%
X153905100Y-95939800D02*
X154724900Y-95120000D01*
X152294200Y-95939800D02*
X153905100Y-95939800D01*
X151320700Y-96913300D02*
X152294200Y-95939800D01*
X147318500Y-96913300D02*
X151320700Y-96913300D01*
X145430100Y-95024900D02*
X147318500Y-96913300D01*
X141483000Y-95024900D02*
X145430100Y-95024900D01*
X140635100Y-95872800D02*
X141483000Y-95024900D01*
X140635100Y-96240000D02*
X140635100Y-95872800D01*
X139460000Y-96240000D02*
X140635100Y-96240000D01*
X156250000Y-95120000D02*
X154724900Y-95120000D01*
X159962300Y-60925600D02*
X159389500Y-60925600D01*
X161290400Y-59597500D02*
X159962300Y-60925600D01*
X165403300Y-59597500D02*
X161290400Y-59597500D01*
X169691500Y-63885700D02*
X165403300Y-59597500D01*
X172289600Y-63885700D02*
X169691500Y-63885700D01*
X174040200Y-62135100D02*
X172289600Y-63885700D01*
X179017100Y-62135100D02*
X174040200Y-62135100D01*
X179824900Y-61327300D02*
X179017100Y-62135100D01*
X179824900Y-60960000D02*
X179824900Y-61327300D01*
X181000000Y-60960000D02*
X179824900Y-60960000D01*
%TO.N,CD4*%
X152936700Y-99448200D02*
X154724900Y-97660000D01*
X147313400Y-99448200D02*
X152936700Y-99448200D01*
X145430100Y-97564900D02*
X147313400Y-99448200D01*
X141483000Y-97564900D02*
X145430100Y-97564900D01*
X140635100Y-98412800D02*
X141483000Y-97564900D01*
X140635100Y-98780000D02*
X140635100Y-98412800D01*
X139460000Y-98780000D02*
X140635100Y-98780000D01*
X156250000Y-97660000D02*
X154724900Y-97660000D01*
%TO.N,CD5*%
X154654300Y-100129400D02*
X154724900Y-100200000D01*
X141458500Y-100129400D02*
X154654300Y-100129400D01*
X140635100Y-100952800D02*
X141458500Y-100129400D01*
X140635100Y-101320000D02*
X140635100Y-100952800D01*
X139460000Y-101320000D02*
X140635100Y-101320000D01*
X156250000Y-100200000D02*
X154724900Y-100200000D01*
X181000000Y-55880000D02*
X179824900Y-55880000D01*
X162328100Y-57068200D02*
X159886600Y-59509700D01*
X165354500Y-57068200D02*
X162328100Y-57068200D01*
X169654400Y-61368100D02*
X165354500Y-57068200D01*
X172131500Y-61368100D02*
X169654400Y-61368100D01*
X176349600Y-57150000D02*
X172131500Y-61368100D01*
X178920100Y-57150000D02*
X176349600Y-57150000D01*
X179824900Y-56245200D02*
X178920100Y-57150000D01*
X179824900Y-55880000D02*
X179824900Y-56245200D01*
%TO.N,CD6*%
X154649900Y-102665000D02*
X154724900Y-102740000D01*
X141462900Y-102665000D02*
X154649900Y-102665000D01*
X140635100Y-103492800D02*
X141462900Y-102665000D01*
X140635100Y-103860000D02*
X140635100Y-103492800D01*
X139460000Y-103860000D02*
X140635100Y-103860000D01*
X156250000Y-102740000D02*
X154724900Y-102740000D01*
%TO.N,CD7*%
X139460000Y-106400000D02*
X140635100Y-106400000D01*
X156250000Y-105280000D02*
X154724900Y-105280000D01*
X140635100Y-106032800D02*
X140635100Y-106400000D01*
X141558300Y-105109600D02*
X140635100Y-106032800D01*
X154554500Y-105109600D02*
X141558300Y-105109600D01*
X154724900Y-105280000D02*
X154554500Y-105109600D01*
%TO.N,~{INT}*%
X157758900Y-54971000D02*
X159739200Y-52990700D01*
X157758900Y-56095000D02*
X157758900Y-54971000D01*
X156785700Y-57068200D02*
X157758900Y-56095000D01*
X155134400Y-57068200D02*
X156785700Y-57068200D01*
X153371400Y-58831200D02*
X155134400Y-57068200D01*
X147893300Y-58831200D02*
X153371400Y-58831200D01*
X147482100Y-58420000D02*
X147893300Y-58831200D01*
X178460000Y-50800000D02*
X177284900Y-50800000D01*
X145957000Y-58420000D02*
X147482100Y-58420000D01*
X173239300Y-46754400D02*
X172195300Y-46754400D01*
X177284900Y-50800000D02*
X173239300Y-46754400D01*
%TO.N,~{CSR}*%
X178460000Y-53340000D02*
X177284900Y-53340000D01*
X138337000Y-60960000D02*
X139862100Y-60960000D01*
X139862100Y-54895000D02*
X139862100Y-60960000D01*
X147178100Y-47579000D02*
X139862100Y-54895000D01*
X171523900Y-47579000D02*
X147178100Y-47579000D01*
X177284900Y-53340000D02*
X171523900Y-47579000D01*
%TO.N,~{CSW}*%
X143959200Y-73964200D02*
X143959200Y-60632100D01*
X145765500Y-75770500D02*
X143959200Y-73964200D01*
X165354300Y-50095900D02*
X165354300Y-53113400D01*
X164662300Y-49403900D02*
X165354300Y-50095900D01*
X162190500Y-49403900D02*
X164662300Y-49403900D01*
X157066200Y-54528200D02*
X162190500Y-49403900D01*
X153193200Y-54528200D02*
X157066200Y-54528200D01*
X151371400Y-56350000D02*
X153193200Y-54528200D01*
X148474400Y-56350000D02*
X151371400Y-56350000D01*
X147529600Y-57294800D02*
X148474400Y-56350000D01*
X144786900Y-57294800D02*
X147529600Y-57294800D01*
X143959200Y-58122500D02*
X144786900Y-57294800D01*
X163829200Y-53113400D02*
X165354300Y-53113400D01*
X168532100Y-56291200D02*
X165354300Y-53113400D01*
X176873700Y-56291200D02*
X168532100Y-56291200D01*
X177284900Y-55880000D02*
X176873700Y-56291200D01*
X178460000Y-55880000D02*
X177284900Y-55880000D01*
%TO.N,MODE*%
X138337000Y-63500000D02*
X136811900Y-63500000D01*
X179730000Y-50399800D02*
X179730000Y-54137500D01*
X175346900Y-46016700D02*
X179730000Y-50399800D01*
X147822100Y-46016700D02*
X175346900Y-46016700D01*
X139084000Y-54754800D02*
X147822100Y-46016700D01*
X137441000Y-54754800D02*
X139084000Y-54754800D01*
X136811900Y-55383900D02*
X137441000Y-54754800D01*
X136811900Y-63500000D02*
X136811900Y-55383900D01*
%TO.N,ADC_CS*%
X170685200Y-94355100D02*
X170320000Y-94355100D01*
X173149900Y-96819800D02*
X170685200Y-94355100D01*
X173149900Y-98250000D02*
X173149900Y-96819800D01*
X174675000Y-98250000D02*
X173149900Y-98250000D01*
X170320000Y-93180000D02*
X170320000Y-94355100D01*
%TO.N,ADC_CLK*%
X172859900Y-92004800D02*
X171495100Y-90640000D01*
X178043400Y-92004800D02*
X172859900Y-92004800D01*
X183820100Y-97781500D02*
X178043400Y-92004800D01*
X183820100Y-100790000D02*
X183820100Y-97781500D01*
X182295000Y-100790000D02*
X183820100Y-100790000D01*
X170320000Y-90640000D02*
X171495100Y-90640000D01*
%TO.N,CD7_3V3*%
X169144900Y-77224000D02*
X165354300Y-73433400D01*
X169144900Y-77940000D02*
X169144900Y-77224000D01*
X163829200Y-73433400D02*
X165354300Y-73433400D01*
X170320000Y-77940000D02*
X169144900Y-77940000D01*
%TO.N,CD6_3V3*%
X169144900Y-74684000D02*
X169144900Y-75400000D01*
X165354300Y-70893400D02*
X169144900Y-74684000D01*
X163829200Y-70893400D02*
X165354300Y-70893400D01*
X170320000Y-75400000D02*
X169144900Y-75400000D01*
%TO.N,CD5_3V3*%
X169144900Y-72144000D02*
X165354300Y-68353400D01*
X169144900Y-72860000D02*
X169144900Y-72144000D01*
X163829200Y-68353400D02*
X165354300Y-68353400D01*
X170320000Y-72860000D02*
X169144900Y-72860000D01*
%TO.N,CD4_3V3*%
X165354300Y-66529400D02*
X165354300Y-65813400D01*
X169144900Y-70320000D02*
X165354300Y-66529400D01*
X170320000Y-70320000D02*
X169144900Y-70320000D01*
X163829200Y-65813400D02*
X165354300Y-65813400D01*
%TO.N,CD3_3V3*%
X163870000Y-97660000D02*
X165395100Y-97660000D01*
X174417300Y-64857800D02*
X171495100Y-67780000D01*
X181560300Y-64857800D02*
X174417300Y-64857800D01*
X183425900Y-66723400D02*
X181560300Y-64857800D01*
X183425900Y-86601600D02*
X183425900Y-66723400D01*
X179125600Y-90901900D02*
X183425900Y-86601600D01*
X175030200Y-90901900D02*
X179125600Y-90901900D01*
X173554800Y-89426500D02*
X175030200Y-90901900D01*
X169871500Y-89426500D02*
X173554800Y-89426500D01*
X165395100Y-93902900D02*
X169871500Y-89426500D01*
X165395100Y-97660000D02*
X165395100Y-93902900D01*
X169144900Y-67064000D02*
X165354300Y-63273400D01*
X169144900Y-67780000D02*
X169144900Y-67064000D01*
X163829200Y-63273400D02*
X165354300Y-63273400D01*
X170320000Y-67780000D02*
X169144900Y-67780000D01*
X170320000Y-67780000D02*
X171495100Y-67780000D01*
%TO.N,CD2_3V3*%
X165354300Y-61449400D02*
X165354300Y-60733400D01*
X169144900Y-65240000D02*
X165354300Y-61449400D01*
X170320000Y-65240000D02*
X169144900Y-65240000D01*
X163829200Y-60733400D02*
X165354300Y-60733400D01*
%TO.N,CD1_3V3*%
X169144900Y-61984000D02*
X165354300Y-58193400D01*
X169144900Y-62700000D02*
X169144900Y-61984000D01*
X163829200Y-58193400D02*
X165354300Y-58193400D01*
X170320000Y-62700000D02*
X169144900Y-62700000D01*
%TO.N,CD0_3V3*%
X165354300Y-56369400D02*
X165354300Y-55653400D01*
X169144900Y-60160000D02*
X165354300Y-56369400D01*
X170320000Y-60160000D02*
X169144900Y-60160000D01*
X163829200Y-55653400D02*
X165354300Y-55653400D01*
%TO.N,GROMCLK_3V3*%
X150000000Y-80480000D02*
X148824900Y-80480000D01*
X138337000Y-68580000D02*
X136811900Y-68580000D01*
X140264800Y-80480000D02*
X148824900Y-80480000D01*
X136811900Y-77027100D02*
X140264800Y-80480000D01*
X136811900Y-68580000D02*
X136811900Y-77027100D01*
%TO.N,CPUCLK_3V3*%
X142905500Y-77940000D02*
X142765900Y-77800400D01*
X150000000Y-77940000D02*
X142905500Y-77940000D01*
%TO.N,~{CSR_3V3}*%
X144431900Y-66525400D02*
X144431900Y-63500000D01*
X145216500Y-67310000D02*
X144431900Y-66525400D01*
X146683300Y-67310000D02*
X145216500Y-67310000D01*
X148824900Y-69451600D02*
X146683300Y-67310000D01*
X148824900Y-70877100D02*
X148824900Y-69451600D01*
X149632700Y-71684900D02*
X148824900Y-70877100D01*
X150000000Y-71684900D02*
X149632700Y-71684900D01*
X150000000Y-72860000D02*
X150000000Y-71684900D01*
X145957000Y-63500000D02*
X144431900Y-63500000D01*
%TO.N,~{CSW_3V3}*%
X145957000Y-60960000D02*
X147482100Y-60960000D01*
X150000000Y-70320000D02*
X150000000Y-69144900D01*
X147482100Y-64386200D02*
X147482100Y-60960000D01*
X149564300Y-66468400D02*
X147482100Y-64386200D01*
X150359200Y-66468400D02*
X149564300Y-66468400D01*
X151181900Y-67291100D02*
X150359200Y-66468400D01*
X151181900Y-68328200D02*
X151181900Y-67291100D01*
X150365200Y-69144900D02*
X151181900Y-68328200D01*
X150000000Y-69144900D02*
X150365200Y-69144900D01*
%TO.N,MODE_3V3*%
X147482100Y-66437200D02*
X147482100Y-66040000D01*
X148824900Y-67780000D02*
X147482100Y-66437200D01*
X150000000Y-67780000D02*
X148824900Y-67780000D01*
X145957000Y-66040000D02*
X147482100Y-66040000D01*
%TO.N,VCC*%
X170320000Y-50000000D02*
X169144900Y-50000000D01*
X156209200Y-50573400D02*
X157734300Y-50573400D01*
X141513000Y-82364900D02*
X142000000Y-82364900D01*
X136353000Y-77204900D02*
X141513000Y-82364900D01*
X136353000Y-51258900D02*
X136353000Y-77204900D01*
X136811900Y-50800000D02*
X136353000Y-51258900D01*
X138337000Y-50800000D02*
X136811900Y-50800000D01*
X142000000Y-83540000D02*
X142000000Y-82364900D01*
X160278600Y-48029100D02*
X157734300Y-50573400D01*
X167174000Y-48029100D02*
X160278600Y-48029100D01*
X169144900Y-50000000D02*
X167174000Y-48029100D01*
%TO.N,MODE1_3V3*%
X157112400Y-75308200D02*
X157500900Y-75696700D01*
X151924800Y-75308200D02*
X157112400Y-75308200D01*
X150743000Y-74126400D02*
X151924800Y-75308200D01*
X147948500Y-74126400D02*
X150743000Y-74126400D01*
X147482100Y-73660000D02*
X147948500Y-74126400D01*
X170320000Y-80480000D02*
X169144900Y-80480000D01*
X145957000Y-73660000D02*
X147482100Y-73660000D01*
X160079300Y-79746600D02*
X159942700Y-79883200D01*
X168411500Y-79746600D02*
X160079300Y-79746600D01*
X169144900Y-80480000D02*
X168411500Y-79746600D01*
%TO.N,MODE1*%
X173759300Y-63500000D02*
X178460000Y-63500000D01*
X170806100Y-66453200D02*
X173759300Y-63500000D01*
X169295800Y-66453200D02*
X170806100Y-66453200D01*
X164964200Y-62121600D02*
X169295800Y-66453200D01*
X162977400Y-62121600D02*
X164964200Y-62121600D01*
X159874300Y-65224700D02*
X162977400Y-62121600D01*
X159874300Y-76975300D02*
X159874300Y-65224700D01*
X159042100Y-77807500D02*
X159874300Y-76975300D01*
X152188600Y-77807500D02*
X159042100Y-77807500D01*
X150876800Y-79119300D02*
X152188600Y-77807500D01*
X142223700Y-79119300D02*
X150876800Y-79119300D01*
X141951800Y-78847400D02*
X142223700Y-79119300D01*
%TO.N,USR4_1V8*%
X153408600Y-106996200D02*
X153408600Y-105834700D01*
X155357600Y-108945200D02*
X153408600Y-106996200D01*
X165399900Y-108945200D02*
X155357600Y-108945200D01*
X169560100Y-104785000D02*
X165399900Y-108945200D01*
%TO.N,USR3_1V8*%
X174675000Y-83530000D02*
X173549900Y-83530000D01*
X150000000Y-90640000D02*
X151175100Y-90640000D01*
X151175100Y-89913400D02*
X151175100Y-90640000D01*
X152463300Y-88625200D02*
X151175100Y-89913400D01*
X157196200Y-88625200D02*
X152463300Y-88625200D01*
X157803800Y-88017600D02*
X157196200Y-88625200D01*
X157803800Y-87058700D02*
X157803800Y-88017600D01*
X156830300Y-86085200D02*
X157803800Y-87058700D01*
X154915500Y-86085200D02*
X156830300Y-86085200D01*
X154724800Y-85894500D02*
X154915500Y-86085200D01*
X154724800Y-83959200D02*
X154724800Y-85894500D01*
X155588700Y-83095300D02*
X154724800Y-83959200D01*
X158458400Y-83095300D02*
X155588700Y-83095300D01*
X160906700Y-80647000D02*
X158458400Y-83095300D01*
X164520600Y-80647000D02*
X160906700Y-80647000D01*
X168163600Y-84290000D02*
X164520600Y-80647000D01*
X172789900Y-84290000D02*
X168163600Y-84290000D01*
X173549900Y-83530000D02*
X172789900Y-84290000D01*
%TO.N,USR2_1V8*%
X151060800Y-106632500D02*
X150918500Y-106632500D01*
X152698700Y-108270400D02*
X151060800Y-106632500D01*
%TO.N,USR1_1V8*%
X152166300Y-85560000D02*
X150000000Y-85560000D01*
X156545300Y-81181000D02*
X152166300Y-85560000D01*
X159736000Y-81181000D02*
X156545300Y-81181000D01*
X160720200Y-80196800D02*
X159736000Y-81181000D01*
X166691300Y-80196800D02*
X160720200Y-80196800D01*
X168160300Y-81665800D02*
X166691300Y-80196800D01*
X170896600Y-81665800D02*
X168160300Y-81665800D01*
X173549900Y-79012500D02*
X170896600Y-81665800D01*
X173549900Y-78450000D02*
X173549900Y-79012500D01*
X174675000Y-78450000D02*
X173549900Y-78450000D01*
%TO.N,AUDIO*%
X142000000Y-91160000D02*
X140824900Y-91160000D01*
X176200100Y-106394500D02*
X176200100Y-103330000D01*
X175149300Y-107445300D02*
X176200100Y-106394500D01*
X173508800Y-107445300D02*
X175149300Y-107445300D01*
X171531800Y-109422300D02*
X173508800Y-107445300D01*
X140791900Y-109422300D02*
X171531800Y-109422300D01*
X138282200Y-106912600D02*
X140791900Y-109422300D01*
X138282200Y-93211100D02*
X138282200Y-106912600D01*
X139063300Y-92430000D02*
X138282200Y-93211100D01*
X139920100Y-92430000D02*
X139063300Y-92430000D01*
X140824900Y-91525200D02*
X139920100Y-92430000D01*
X140824900Y-91160000D02*
X140824900Y-91525200D01*
X175437600Y-103330000D02*
X175437600Y-100790000D01*
X174675000Y-100790000D02*
X175437600Y-100790000D01*
X174675000Y-103330000D02*
X175437600Y-103330000D01*
X175437600Y-103330000D02*
X176200100Y-103330000D01*
%TO.N,GND*%
X174675000Y-105870000D02*
X173149900Y-105870000D01*
X182295000Y-86070000D02*
X181169900Y-86070000D01*
X175685100Y-89750000D02*
X176000000Y-89750000D01*
X171495100Y-85560000D02*
X175685100Y-89750000D01*
X153045100Y-96390000D02*
X161370000Y-96390000D01*
X151175100Y-98260000D02*
X153045100Y-96390000D01*
X150000000Y-98260000D02*
X151175100Y-98260000D01*
X170907600Y-85560000D02*
X171495100Y-85560000D01*
X170907600Y-85560000D02*
X170320000Y-85560000D01*
X170320000Y-85560000D02*
X169144900Y-85560000D01*
X168508300Y-85560000D02*
X169144900Y-85560000D01*
X166120800Y-83172500D02*
X168508300Y-85560000D01*
X161370000Y-83172500D02*
X166120800Y-83172500D01*
X177489900Y-89750000D02*
X176000000Y-89750000D01*
X181169900Y-86070000D02*
X177489900Y-89750000D01*
X162268900Y-104059900D02*
X161139500Y-102930500D01*
X171339800Y-104059900D02*
X162268900Y-104059900D01*
X173149900Y-105870000D02*
X171339800Y-104059900D01*
X139376700Y-77961700D02*
X138250000Y-76835000D01*
X141316800Y-77961700D02*
X139376700Y-77961700D01*
X142700500Y-76578000D02*
X141316800Y-77961700D01*
X156163000Y-76578000D02*
X142700500Y-76578000D01*
X158144900Y-84590200D02*
X157775100Y-84960000D01*
X161370000Y-84590200D02*
X158144900Y-84590200D01*
X156250000Y-84960000D02*
X157775100Y-84960000D01*
X147893300Y-53751200D02*
X147482100Y-53340000D01*
X151939100Y-53751200D02*
X147893300Y-53751200D01*
X153875100Y-51815200D02*
X151939100Y-53751200D01*
X158282700Y-51815200D02*
X153875100Y-51815200D01*
X161618600Y-48479300D02*
X158282700Y-51815200D01*
X165084200Y-48479300D02*
X161618600Y-48479300D01*
X169144900Y-52540000D02*
X165084200Y-48479300D01*
X170320000Y-52540000D02*
X169144900Y-52540000D01*
X145957000Y-53340000D02*
X147482100Y-53340000D01*
%TO.N,VCC_3V3*%
X168535100Y-88100000D02*
X170320000Y-88100000D01*
X165395100Y-84960000D02*
X168535100Y-88100000D01*
X163870000Y-84960000D02*
X165395100Y-84960000D01*
X150000000Y-95720000D02*
X151175100Y-95720000D01*
X158416000Y-93705200D02*
X160028600Y-92092600D01*
X155503000Y-93705200D02*
X158416000Y-93705200D01*
X153938100Y-95270100D02*
X155503000Y-93705200D01*
X151625000Y-95270100D02*
X153938100Y-95270100D01*
X151175100Y-95720000D02*
X151625000Y-95270100D01*
X163009200Y-51393400D02*
X163829200Y-50573400D01*
X163009000Y-51393400D02*
X163009200Y-51393400D01*
X151076300Y-62003400D02*
X158663000Y-62003400D01*
X150502900Y-61430000D02*
X151076300Y-62003400D01*
X148591100Y-61430000D02*
X150502900Y-61430000D01*
X146851100Y-59690000D02*
X148591100Y-61430000D01*
X140750000Y-59690000D02*
X146851100Y-59690000D01*
X140750000Y-76835000D02*
X140750000Y-56007000D01*
X158663000Y-76578000D02*
X158663000Y-55739600D01*
X158663000Y-55739600D02*
X163829200Y-50573400D01*
X140750000Y-56007000D02*
X145957000Y-50800000D01*
%TO.N,GND*%
X161370000Y-81785000D02*
X161370000Y-102700000D01*
X161370000Y-102700000D02*
X156250000Y-107820000D01*
%TO.N,VREF*%
X177250000Y-103295000D02*
X182295000Y-98250000D01*
X177250000Y-109250000D02*
X177250000Y-103295000D01*
%TD*%
M02*
