%TF.GenerationSoftware,KiCad,Pcbnew,7.0.1*%
%TF.CreationDate,2023-08-06T16:30:00-07:00*%
%TF.ProjectId,tn_vdp_v3_board,746e5f76-6470-45f7-9633-5f626f617264,rev?*%
%TF.SameCoordinates,Original*%
%TF.FileFunction,Soldermask,Top*%
%TF.FilePolarity,Negative*%
%FSLAX46Y46*%
G04 Gerber Fmt 4.6, Leading zero omitted, Abs format (unit mm)*
G04 Created by KiCad (PCBNEW 7.0.1) date 2023-08-06 16:30:00*
%MOMM*%
%LPD*%
G01*
G04 APERTURE LIST*
%ADD10C,1.600000*%
%ADD11R,4.000000X4.000000*%
%ADD12C,3.300000*%
%ADD13C,3.500000*%
%ADD14R,2.400000X1.600000*%
%ADD15O,2.400000X1.600000*%
%ADD16R,1.700000X1.700000*%
%ADD17O,1.700000X1.700000*%
%ADD18C,1.620000*%
%ADD19R,1.600000X1.600000*%
%ADD20O,1.600000X1.600000*%
G04 APERTURE END LIST*
D10*
%TO.C,J7*%
X146907000Y-105846000D03*
D11*
X137907000Y-105846000D03*
D12*
X143907000Y-105846000D03*
D13*
X144907000Y-101346000D03*
X144907000Y-110346000D03*
%TD*%
D14*
%TO.C,U3*%
X138337000Y-50800000D03*
D15*
X138337000Y-53340000D03*
X138337000Y-55880000D03*
X138337000Y-58420000D03*
X138337000Y-60960000D03*
X138337000Y-63500000D03*
X138337000Y-66040000D03*
X138337000Y-68580000D03*
X138337000Y-71120000D03*
X138337000Y-73660000D03*
X145957000Y-73660000D03*
X145957000Y-71120000D03*
X145957000Y-68580000D03*
X145957000Y-66040000D03*
X145957000Y-63500000D03*
X145957000Y-60960000D03*
X145957000Y-58420000D03*
X145957000Y-55880000D03*
X145957000Y-53340000D03*
X145957000Y-50800000D03*
%TD*%
D16*
%TO.C,J2*%
X181775000Y-71200000D03*
D17*
X179235000Y-71200000D03*
X181775000Y-68660000D03*
X179235000Y-68660000D03*
X181775000Y-66120000D03*
X179235000Y-66120000D03*
X181775000Y-63580000D03*
X179235000Y-63580000D03*
X181775000Y-61040000D03*
X179235000Y-61040000D03*
X181775000Y-58500000D03*
X179235000Y-58500000D03*
X181775000Y-55960000D03*
X179235000Y-55960000D03*
X181775000Y-53420000D03*
X179235000Y-53420000D03*
X181775000Y-50880000D03*
X179235000Y-50880000D03*
X181775000Y-48340000D03*
X179235000Y-48340000D03*
%TD*%
D16*
%TO.C,J3*%
X150000000Y-48060000D03*
D17*
X150000000Y-50600000D03*
X150000000Y-53140000D03*
X150000000Y-55680000D03*
X150000000Y-58220000D03*
X150000000Y-60760000D03*
X150000000Y-63300000D03*
X150000000Y-65840000D03*
X150000000Y-68380000D03*
X150000000Y-70920000D03*
X150000000Y-73460000D03*
X150000000Y-76000000D03*
X150000000Y-78540000D03*
X150000000Y-81080000D03*
X150000000Y-83620000D03*
X150000000Y-86160000D03*
X150000000Y-88700000D03*
X150000000Y-91240000D03*
X150000000Y-93780000D03*
X150000000Y-96320000D03*
%TD*%
D10*
%TO.C,C6*%
X170400000Y-101000000D03*
X170400000Y-103500000D03*
%TD*%
%TO.C,C2*%
X158663000Y-76578000D03*
X156163000Y-76578000D03*
%TD*%
%TO.C,C4*%
X177250000Y-109250000D03*
X174750000Y-109250000D03*
%TD*%
D16*
%TO.C,J6*%
X170320000Y-48060000D03*
D17*
X170320000Y-50600000D03*
X170320000Y-53140000D03*
X170320000Y-55680000D03*
X170320000Y-58220000D03*
X170320000Y-60760000D03*
X170320000Y-63300000D03*
X170320000Y-65840000D03*
X170320000Y-68380000D03*
X170320000Y-70920000D03*
X170320000Y-73460000D03*
X170320000Y-76000000D03*
X170320000Y-78540000D03*
X170320000Y-81080000D03*
X170320000Y-83620000D03*
X170320000Y-86160000D03*
X170320000Y-88700000D03*
X170320000Y-91240000D03*
X170320000Y-93780000D03*
X170320000Y-96320000D03*
%TD*%
D10*
%TO.C,C1*%
X140750000Y-76835000D03*
X138250000Y-76835000D03*
%TD*%
D14*
%TO.C,U4*%
X174675000Y-98250000D03*
D15*
X174675000Y-100790000D03*
X174675000Y-103330000D03*
X174675000Y-105870000D03*
X182295000Y-105870000D03*
X182295000Y-103330000D03*
X182295000Y-100790000D03*
X182295000Y-98250000D03*
%TD*%
D10*
%TO.C,C3*%
X163870000Y-81785000D03*
X161370000Y-81785000D03*
%TD*%
D18*
%TO.C,RV1*%
X176000000Y-94750000D03*
X181000000Y-92250000D03*
X176000000Y-89750000D03*
%TD*%
D19*
%TO.C,J4*%
X174700000Y-77200000D03*
D20*
X174700000Y-79740000D03*
X174700000Y-82280000D03*
X174700000Y-84820000D03*
X182320000Y-84820000D03*
X182320000Y-82280000D03*
X182320000Y-79740000D03*
X182320000Y-77200000D03*
%TD*%
D14*
%TO.C,U2*%
X156209200Y-50573400D03*
D15*
X156209200Y-53113400D03*
X156209200Y-55653400D03*
X156209200Y-58193400D03*
X156209200Y-60733400D03*
X156209200Y-63273400D03*
X156209200Y-65813400D03*
X156209200Y-68353400D03*
X156209200Y-70893400D03*
X156209200Y-73433400D03*
X163829200Y-73433400D03*
X163829200Y-70893400D03*
X163829200Y-68353400D03*
X163829200Y-65813400D03*
X163829200Y-63273400D03*
X163829200Y-60733400D03*
X163829200Y-58193400D03*
X163829200Y-55653400D03*
X163829200Y-53113400D03*
X163829200Y-50573400D03*
%TD*%
D16*
%TO.C,J5*%
X145000000Y-94500000D03*
D17*
X145000000Y-91960000D03*
%TD*%
D19*
%TO.C,C5*%
X168794900Y-108500000D03*
D10*
X171294900Y-108500000D03*
%TD*%
D14*
%TO.C,U1*%
X156250000Y-84960000D03*
D15*
X156250000Y-87500000D03*
X156250000Y-90040000D03*
X156250000Y-92580000D03*
X156250000Y-95120000D03*
X156250000Y-97660000D03*
X156250000Y-100200000D03*
X156250000Y-102740000D03*
X156250000Y-105280000D03*
X156250000Y-107820000D03*
X163870000Y-107820000D03*
X163870000Y-105280000D03*
X163870000Y-102740000D03*
X163870000Y-100200000D03*
X163870000Y-97660000D03*
X163870000Y-95120000D03*
X163870000Y-92580000D03*
X163870000Y-90040000D03*
X163870000Y-87500000D03*
X163870000Y-84960000D03*
%TD*%
M02*
