%TF.GenerationSoftware,KiCad,Pcbnew,7.0.1*%
%TF.CreationDate,2023-08-06T16:30:00-07:00*%
%TF.ProjectId,tn_vdp_v3_board,746e5f76-6470-45f7-9633-5f626f617264,rev?*%
%TF.SameCoordinates,Original*%
%TF.FileFunction,Copper,L2,Bot*%
%TF.FilePolarity,Positive*%
%FSLAX46Y46*%
G04 Gerber Fmt 4.6, Leading zero omitted, Abs format (unit mm)*
G04 Created by KiCad (PCBNEW 7.0.1) date 2023-08-06 16:30:00*
%MOMM*%
%LPD*%
G01*
G04 APERTURE LIST*
%TA.AperFunction,ComponentPad*%
%ADD10R,4.000000X4.000000*%
%TD*%
%TA.AperFunction,ComponentPad*%
%ADD11C,3.300000*%
%TD*%
%TA.AperFunction,ComponentPad*%
%ADD12C,3.500000*%
%TD*%
%TA.AperFunction,ComponentPad*%
%ADD13R,2.400000X1.600000*%
%TD*%
%TA.AperFunction,ComponentPad*%
%ADD14O,2.400000X1.600000*%
%TD*%
%TA.AperFunction,ComponentPad*%
%ADD15R,1.700000X1.700000*%
%TD*%
%TA.AperFunction,ComponentPad*%
%ADD16O,1.700000X1.700000*%
%TD*%
%TA.AperFunction,ComponentPad*%
%ADD17C,1.600000*%
%TD*%
%TA.AperFunction,ComponentPad*%
%ADD18C,1.620000*%
%TD*%
%TA.AperFunction,ComponentPad*%
%ADD19R,1.600000X1.600000*%
%TD*%
%TA.AperFunction,ComponentPad*%
%ADD20O,1.600000X1.600000*%
%TD*%
%TA.AperFunction,ViaPad*%
%ADD21C,0.800000*%
%TD*%
%TA.AperFunction,Conductor*%
%ADD22C,0.250000*%
%TD*%
G04 APERTURE END LIST*
D10*
%TO.P,J7,1*%
%TO.N,GND*%
X137907000Y-105846000D03*
D11*
%TO.P,J7,2*%
%TO.N,AUDIO*%
X143907000Y-105846000D03*
D12*
%TO.P,J7,MP,MountPin*%
%TO.N,GND*%
X144907000Y-101346000D03*
X144907000Y-110346000D03*
%TD*%
D13*
%TO.P,U3,1,DIR*%
%TO.N,VCC*%
X138337000Y-50800000D03*
D14*
%TO.P,U3,2,A0*%
%TO.N,~{RESET}*%
X138337000Y-53340000D03*
%TO.P,U3,3,A1*%
%TO.N,~{INT_3V3}*%
X138337000Y-55880000D03*
%TO.P,U3,4,A2*%
%TO.N,~{CSW}*%
X138337000Y-58420000D03*
%TO.P,U3,5,A3*%
%TO.N,~{CSR}*%
X138337000Y-60960000D03*
%TO.P,U3,6,A4*%
%TO.N,MODE*%
X138337000Y-63500000D03*
%TO.P,U3,7,A5*%
%TO.N,CPUCLK_3V3*%
X138337000Y-66040000D03*
%TO.P,U3,8,A6*%
%TO.N,GROMCLK_3V3*%
X138337000Y-68580000D03*
%TO.P,U3,9,A7*%
%TO.N,MODE1*%
X138337000Y-71120000D03*
%TO.P,U3,10,GND*%
%TO.N,GND*%
X138337000Y-73660000D03*
%TO.P,U3,11,B7*%
%TO.N,MODE1_3V3*%
X145957000Y-73660000D03*
%TO.P,U3,12,B6*%
%TO.N,GROMCLK*%
X145957000Y-71120000D03*
%TO.P,U3,13,B5*%
%TO.N,CPUCLK*%
X145957000Y-68580000D03*
%TO.P,U3,14,B4*%
%TO.N,MODE_3V3*%
X145957000Y-66040000D03*
%TO.P,U3,15,B3*%
%TO.N,~{CSR_3V3}*%
X145957000Y-63500000D03*
%TO.P,U3,16,B2*%
%TO.N,~{CSW_3V3}*%
X145957000Y-60960000D03*
%TO.P,U3,17,B1*%
%TO.N,~{INT}*%
X145957000Y-58420000D03*
%TO.P,U3,18,B0*%
%TO.N,~{RESET_3V3}*%
X145957000Y-55880000D03*
%TO.P,U3,19,~{0E}*%
%TO.N,GND*%
X145957000Y-53340000D03*
%TO.P,U3,20,VCC*%
%TO.N,VCC_3V3*%
X145957000Y-50800000D03*
%TD*%
D15*
%TO.P,J2,1,Pin_1*%
%TO.N,GND*%
X181775000Y-71200000D03*
D16*
%TO.P,J2,2,Pin_2*%
%TO.N,VCC*%
X179235000Y-71200000D03*
%TO.P,J2,3,Pin_3*%
%TO.N,GND*%
X181775000Y-68660000D03*
%TO.P,J2,4,Pin_4*%
%TO.N,CPUCLK*%
X179235000Y-68660000D03*
%TO.P,J2,5,Pin_5*%
%TO.N,CD0*%
X181775000Y-66120000D03*
%TO.P,J2,6,Pin_6*%
%TO.N,GROMCLK*%
X179235000Y-66120000D03*
%TO.P,J2,7,Pin_7*%
%TO.N,CD1*%
X181775000Y-63580000D03*
%TO.P,J2,8,Pin_8*%
%TO.N,unconnected-(J2-Pin_8-Pad8)*%
X179235000Y-63580000D03*
%TO.P,J2,9,Pin_9*%
%TO.N,CD2*%
X181775000Y-61040000D03*
%TO.P,J2,10,Pin_10*%
%TO.N,MODE1*%
X179235000Y-61040000D03*
%TO.P,J2,11,Pin_11*%
%TO.N,CD3*%
X181775000Y-58500000D03*
%TO.P,J2,12,Pin_12*%
%TO.N,~{RESET}*%
X179235000Y-58500000D03*
%TO.P,J2,13,Pin_13*%
%TO.N,CD4*%
X181775000Y-55960000D03*
%TO.P,J2,14,Pin_14*%
%TO.N,MODE*%
X179235000Y-55960000D03*
%TO.P,J2,15,Pin_15*%
%TO.N,CD5*%
X181775000Y-53420000D03*
%TO.P,J2,16,Pin_16*%
%TO.N,~{CSW}*%
X179235000Y-53420000D03*
%TO.P,J2,17,Pin_17*%
%TO.N,CD6*%
X181775000Y-50880000D03*
%TO.P,J2,18,Pin_18*%
%TO.N,~{CSR}*%
X179235000Y-50880000D03*
%TO.P,J2,19,Pin_19*%
%TO.N,CD7*%
X181775000Y-48340000D03*
%TO.P,J2,20,Pin_20*%
%TO.N,~{INT}*%
X179235000Y-48340000D03*
%TD*%
D15*
%TO.P,J3,1,Pin_1*%
%TO.N,unconnected-(J3-Pin_1-Pad1)*%
X150000000Y-48060000D03*
D16*
%TO.P,J3,2,Pin_2*%
%TO.N,unconnected-(J3-Pin_2-Pad2)*%
X150000000Y-50600000D03*
%TO.P,J3,3,Pin_3*%
%TO.N,unconnected-(J3-Pin_3-Pad3)*%
X150000000Y-53140000D03*
%TO.P,J3,4,Pin_4*%
%TO.N,unconnected-(J3-Pin_4-Pad4)*%
X150000000Y-55680000D03*
%TO.P,J3,5,Pin_5*%
%TO.N,unconnected-(J3-Pin_5-Pad5)*%
X150000000Y-58220000D03*
%TO.P,J3,6,Pin_6*%
%TO.N,unconnected-(J3-Pin_6-Pad6)*%
X150000000Y-60760000D03*
%TO.P,J3,7,Pin_7*%
%TO.N,unconnected-(J3-Pin_7-Pad7)*%
X150000000Y-63300000D03*
%TO.P,J3,8,Pin_8*%
%TO.N,MODE_3V3*%
X150000000Y-65840000D03*
%TO.P,J3,9,Pin_9*%
%TO.N,~{CSW_3V3}*%
X150000000Y-68380000D03*
%TO.P,J3,10,Pin_10*%
%TO.N,~{CSR_3V3}*%
X150000000Y-70920000D03*
%TO.P,J3,11,Pin_11*%
%TO.N,~{INT_3V3}*%
X150000000Y-73460000D03*
%TO.P,J3,12,Pin_12*%
%TO.N,CPUCLK_3V3*%
X150000000Y-76000000D03*
%TO.P,J3,13,Pin_13*%
%TO.N,GROMCLK_3V3*%
X150000000Y-78540000D03*
%TO.P,J3,14,Pin_14*%
%TO.N,~{RESET_3V3}*%
X150000000Y-81080000D03*
%TO.P,J3,15,Pin_15*%
%TO.N,USR1_1V8*%
X150000000Y-83620000D03*
%TO.P,J3,16,Pin_16*%
%TO.N,USR2_1V8*%
X150000000Y-86160000D03*
%TO.P,J3,17,Pin_17*%
%TO.N,USR3_1V8*%
X150000000Y-88700000D03*
%TO.P,J3,18,Pin_18*%
%TO.N,USR4_1V8*%
X150000000Y-91240000D03*
%TO.P,J3,19,Pin_19*%
%TO.N,VCC_3V3*%
X150000000Y-93780000D03*
%TO.P,J3,20,Pin_20*%
%TO.N,GND*%
X150000000Y-96320000D03*
%TD*%
D17*
%TO.P,C6,1*%
%TO.N,AUDIO_REF*%
X170400000Y-101000000D03*
%TO.P,C6,2*%
%TO.N,GND*%
X170400000Y-103500000D03*
%TD*%
%TO.P,C2,1*%
%TO.N,VCC_3V3*%
X158663000Y-76578000D03*
%TO.P,C2,2*%
%TO.N,GND*%
X156163000Y-76578000D03*
%TD*%
%TO.P,C4,1*%
%TO.N,VCC*%
X177250000Y-109250000D03*
%TO.P,C4,2*%
%TO.N,GND*%
X174750000Y-109250000D03*
%TD*%
D15*
%TO.P,J6,1,Pin_1*%
%TO.N,VCC*%
X170320000Y-48060000D03*
D16*
%TO.P,J6,2,Pin_2*%
%TO.N,GND*%
X170320000Y-50600000D03*
%TO.P,J6,3,Pin_3*%
%TO.N,unconnected-(J6-Pin_3-Pad3)*%
X170320000Y-53140000D03*
%TO.P,J6,4,Pin_4*%
%TO.N,unconnected-(J6-Pin_4-Pad4)*%
X170320000Y-55680000D03*
%TO.P,J6,5,Pin_5*%
%TO.N,CD0_3V3*%
X170320000Y-58220000D03*
%TO.P,J6,6,Pin_6*%
%TO.N,CD1_3V3*%
X170320000Y-60760000D03*
%TO.P,J6,7,Pin_7*%
%TO.N,CD2_3V3*%
X170320000Y-63300000D03*
%TO.P,J6,8,Pin_8*%
%TO.N,CD3_3V3*%
X170320000Y-65840000D03*
%TO.P,J6,9,Pin_9*%
%TO.N,CD4_3V3*%
X170320000Y-68380000D03*
%TO.P,J6,10,Pin_10*%
%TO.N,CD5_3V3*%
X170320000Y-70920000D03*
%TO.P,J6,11,Pin_11*%
%TO.N,CD6_3V3*%
X170320000Y-73460000D03*
%TO.P,J6,12,Pin_12*%
%TO.N,CD7_3V3*%
X170320000Y-76000000D03*
%TO.P,J6,13,Pin_13*%
%TO.N,MODE1_3V3*%
X170320000Y-78540000D03*
%TO.P,J6,14,Pin_14*%
%TO.N,unconnected-(J6-Pin_14-Pad14)*%
X170320000Y-81080000D03*
%TO.P,J6,15,Pin_15*%
%TO.N,GND*%
X170320000Y-83620000D03*
%TO.P,J6,16,Pin_16*%
%TO.N,VCC_3V3*%
X170320000Y-86160000D03*
%TO.P,J6,17,Pin_17*%
%TO.N,ADC_CLK*%
X170320000Y-88700000D03*
%TO.P,J6,18,Pin_18*%
%TO.N,ADC_CS*%
X170320000Y-91240000D03*
%TO.P,J6,19,Pin_19*%
%TO.N,ADC_MISO*%
X170320000Y-93780000D03*
%TO.P,J6,20,Pin_20*%
%TO.N,ADC_MOSI*%
X170320000Y-96320000D03*
%TD*%
D17*
%TO.P,C1,1*%
%TO.N,VCC_3V3*%
X140750000Y-76835000D03*
%TO.P,C1,2*%
%TO.N,GND*%
X138250000Y-76835000D03*
%TD*%
D13*
%TO.P,U4,1,~{CS}/SHDN*%
%TO.N,ADC_CS*%
X174675000Y-98250000D03*
D14*
%TO.P,U4,2,CH0*%
%TO.N,AUDIO_REF*%
X174675000Y-100790000D03*
%TO.P,U4,3,CH1*%
X174675000Y-103330000D03*
%TO.P,U4,4,VSS*%
%TO.N,GND*%
X174675000Y-105870000D03*
%TO.P,U4,5,DIN*%
%TO.N,ADC_MOSI*%
X182295000Y-105870000D03*
%TO.P,U4,6,DOUT*%
%TO.N,ADC_MISO*%
X182295000Y-103330000D03*
%TO.P,U4,7,CLK*%
%TO.N,ADC_CLK*%
X182295000Y-100790000D03*
%TO.P,U4,8,VDD/VREF*%
%TO.N,VCC*%
X182295000Y-98250000D03*
%TD*%
D17*
%TO.P,C3,1*%
%TO.N,VCC_3V3*%
X163870000Y-81785000D03*
%TO.P,C3,2*%
%TO.N,GND*%
X161370000Y-81785000D03*
%TD*%
D18*
%TO.P,RV1,1,1*%
%TO.N,VCC*%
X176000000Y-94750000D03*
%TO.P,RV1,2,2*%
%TO.N,AUDIO_REF*%
X181000000Y-92250000D03*
%TO.P,RV1,3,3*%
%TO.N,GND*%
X176000000Y-89750000D03*
%TD*%
D19*
%TO.P,J4,1,Pin_1*%
%TO.N,USR1_1V8*%
X174700000Y-77200000D03*
D20*
%TO.P,J4,2,Pin_2*%
%TO.N,USR2_1V8*%
X174700000Y-79740000D03*
%TO.P,J4,3,Pin_3*%
%TO.N,USR3_1V8*%
X174700000Y-82280000D03*
%TO.P,J4,4,Pin_4*%
%TO.N,USR4_1V8*%
X174700000Y-84820000D03*
%TO.P,J4,5,Pin_5*%
%TO.N,GND*%
X182320000Y-84820000D03*
%TO.P,J4,6,Pin_6*%
X182320000Y-82280000D03*
%TO.P,J4,7,Pin_7*%
X182320000Y-79740000D03*
%TO.P,J4,8,Pin_8*%
X182320000Y-77200000D03*
%TD*%
D13*
%TO.P,U2,1,DIR*%
%TO.N,VCC*%
X156209200Y-50573400D03*
D14*
%TO.P,U2,2,A0*%
%TO.N,CD0*%
X156209200Y-53113400D03*
%TO.P,U2,3,A1*%
%TO.N,CD1*%
X156209200Y-55653400D03*
%TO.P,U2,4,A2*%
%TO.N,CD2*%
X156209200Y-58193400D03*
%TO.P,U2,5,A3*%
%TO.N,CD3*%
X156209200Y-60733400D03*
%TO.P,U2,6,A4*%
%TO.N,CD4*%
X156209200Y-63273400D03*
%TO.P,U2,7,A5*%
%TO.N,CD5*%
X156209200Y-65813400D03*
%TO.P,U2,8,A6*%
%TO.N,CD6*%
X156209200Y-68353400D03*
%TO.P,U2,9,A7*%
%TO.N,CD7*%
X156209200Y-70893400D03*
%TO.P,U2,10,GND*%
%TO.N,GND*%
X156209200Y-73433400D03*
%TO.P,U2,11,B7*%
%TO.N,CD7_3V3*%
X163829200Y-73433400D03*
%TO.P,U2,12,B6*%
%TO.N,CD6_3V3*%
X163829200Y-70893400D03*
%TO.P,U2,13,B5*%
%TO.N,CD5_3V3*%
X163829200Y-68353400D03*
%TO.P,U2,14,B4*%
%TO.N,CD4_3V3*%
X163829200Y-65813400D03*
%TO.P,U2,15,B3*%
%TO.N,CD3_3V3*%
X163829200Y-63273400D03*
%TO.P,U2,16,B2*%
%TO.N,CD2_3V3*%
X163829200Y-60733400D03*
%TO.P,U2,17,B1*%
%TO.N,CD1_3V3*%
X163829200Y-58193400D03*
%TO.P,U2,18,B0*%
%TO.N,CD0_3V3*%
X163829200Y-55653400D03*
%TO.P,U2,19,~{0E}*%
%TO.N,~{CSW}*%
X163829200Y-53113400D03*
%TO.P,U2,20,VCC*%
%TO.N,VCC_3V3*%
X163829200Y-50573400D03*
%TD*%
D15*
%TO.P,J5,1,Pin_1*%
%TO.N,AUDIO*%
X145000000Y-94500000D03*
D16*
%TO.P,J5,2,Pin_2*%
%TO.N,GND*%
X145000000Y-91960000D03*
%TD*%
D19*
%TO.P,C5,1*%
%TO.N,AUDIO*%
X168794900Y-108500000D03*
D17*
%TO.P,C5,2*%
%TO.N,AUDIO_REF*%
X171294900Y-108500000D03*
%TD*%
D13*
%TO.P,U1,1,DIR*%
%TO.N,GND*%
X156250000Y-84960000D03*
D14*
%TO.P,U1,2,A0*%
%TO.N,CD0*%
X156250000Y-87500000D03*
%TO.P,U1,3,A1*%
%TO.N,CD1*%
X156250000Y-90040000D03*
%TO.P,U1,4,A2*%
%TO.N,CD2*%
X156250000Y-92580000D03*
%TO.P,U1,5,A3*%
%TO.N,CD3*%
X156250000Y-95120000D03*
%TO.P,U1,6,A4*%
%TO.N,CD4*%
X156250000Y-97660000D03*
%TO.P,U1,7,A5*%
%TO.N,CD5*%
X156250000Y-100200000D03*
%TO.P,U1,8,A6*%
%TO.N,CD6*%
X156250000Y-102740000D03*
%TO.P,U1,9,A7*%
%TO.N,CD7*%
X156250000Y-105280000D03*
%TO.P,U1,10,GND*%
%TO.N,GND*%
X156250000Y-107820000D03*
%TO.P,U1,11,B7*%
%TO.N,CD7_3V3*%
X163870000Y-107820000D03*
%TO.P,U1,12,B6*%
%TO.N,CD6_3V3*%
X163870000Y-105280000D03*
%TO.P,U1,13,B5*%
%TO.N,CD5_3V3*%
X163870000Y-102740000D03*
%TO.P,U1,14,B4*%
%TO.N,CD4_3V3*%
X163870000Y-100200000D03*
%TO.P,U1,15,B3*%
%TO.N,CD3_3V3*%
X163870000Y-97660000D03*
%TO.P,U1,16,B2*%
%TO.N,CD2_3V3*%
X163870000Y-95120000D03*
%TO.P,U1,17,B1*%
%TO.N,CD1_3V3*%
X163870000Y-92580000D03*
%TO.P,U1,18,B0*%
%TO.N,CD0_3V3*%
X163870000Y-90040000D03*
%TO.P,U1,19,~{0E}*%
%TO.N,~{CSR}*%
X163870000Y-87500000D03*
%TO.P,U1,20,VCC*%
%TO.N,VCC_3V3*%
X163870000Y-84960000D03*
%TD*%
D21*
%TO.N,CD2*%
X177420900Y-58946300D03*
%TO.N,CD4*%
X182589000Y-45594000D03*
X152441300Y-56867800D03*
%TO.N,~{INT}*%
X155187600Y-48297200D03*
%TO.N,~{CSR}*%
X168332700Y-49959100D03*
X161598900Y-48371100D03*
%TO.N,~{CSW}*%
X165889800Y-46950300D03*
X175725400Y-50131500D03*
%TO.N,USR4_1V8*%
X165064100Y-91236100D03*
X160629100Y-91936300D03*
%TD*%
D22*
%TO.N,AUDIO_REF*%
X173149900Y-101267400D02*
X173149900Y-103330000D01*
X172882500Y-101000000D02*
X173149900Y-101267400D01*
X174675000Y-103330000D02*
X173149900Y-103330000D01*
X171294900Y-105185000D02*
X173149900Y-103330000D01*
X171294900Y-108500000D02*
X171294900Y-105185000D01*
%TO.N,CPUCLK*%
X149567000Y-72190000D02*
X145957000Y-68580000D01*
X150430800Y-72190000D02*
X149567000Y-72190000D01*
X151504900Y-73264100D02*
X150430800Y-72190000D01*
X151504900Y-73512100D02*
X151504900Y-73264100D01*
X156221200Y-78228400D02*
X151504900Y-73512100D01*
X159321000Y-78228400D02*
X156221200Y-78228400D01*
X161223900Y-76325500D02*
X159321000Y-78228400D01*
X161223900Y-71433000D02*
X161223900Y-76325500D01*
X162890200Y-69766700D02*
X161223900Y-71433000D01*
X166249600Y-69766700D02*
X162890200Y-69766700D01*
X168616200Y-72133300D02*
X166249600Y-69766700D01*
X171507500Y-72133300D02*
X168616200Y-72133300D01*
X178697800Y-64943000D02*
X171507500Y-72133300D01*
X179758900Y-64943000D02*
X178697800Y-64943000D01*
X180410200Y-65594300D02*
X179758900Y-64943000D01*
X180410200Y-67484800D02*
X180410200Y-65594300D01*
X179235000Y-68660000D02*
X180410200Y-67484800D01*
%TO.N,GROMCLK*%
X147482100Y-72645100D02*
X147482100Y-71120000D01*
X149567000Y-74730000D02*
X147482100Y-72645100D01*
X151448500Y-74730000D02*
X149567000Y-74730000D01*
X155397100Y-78678600D02*
X151448500Y-74730000D01*
X159592800Y-78678600D02*
X155397100Y-78678600D01*
X162245300Y-76026100D02*
X159592800Y-78678600D01*
X162245300Y-72993400D02*
X162245300Y-76026100D01*
X162990500Y-72248200D02*
X162245300Y-72993400D01*
X166072500Y-72248200D02*
X162990500Y-72248200D01*
X168494800Y-74670500D02*
X166072500Y-72248200D01*
X170832900Y-74670500D02*
X168494800Y-74670500D01*
X178208300Y-67295100D02*
X170832900Y-74670500D01*
X179235000Y-67295100D02*
X178208300Y-67295100D01*
X179235000Y-66120000D02*
X179235000Y-67295100D01*
X145957000Y-71120000D02*
X147482100Y-71120000D01*
%TO.N,~{RESET}*%
X179235000Y-58500000D02*
X178059900Y-58500000D01*
X138337000Y-53340000D02*
X139862100Y-53340000D01*
X171438700Y-51878800D02*
X178059900Y-58500000D01*
X168519700Y-51878800D02*
X171438700Y-51878800D01*
X165170900Y-48530000D02*
X168519700Y-51878800D01*
X162538600Y-48530000D02*
X165170900Y-48530000D01*
X159272200Y-51796400D02*
X162538600Y-48530000D01*
X149481800Y-51796400D02*
X159272200Y-51796400D01*
X147326600Y-49641200D02*
X149481800Y-51796400D01*
X143560900Y-49641200D02*
X147326600Y-49641200D01*
X139862100Y-53340000D02*
X143560900Y-49641200D01*
%TO.N,CD2*%
X156209200Y-58193400D02*
X157734300Y-58193400D01*
X172884600Y-54410000D02*
X177420900Y-58946300D01*
X169865700Y-54410000D02*
X172884600Y-54410000D01*
X166266800Y-50811100D02*
X169865700Y-54410000D01*
X166266800Y-50295800D02*
X166266800Y-50811100D01*
X164951100Y-48980100D02*
X166266800Y-50295800D01*
X162725800Y-48980100D02*
X164951100Y-48980100D01*
X157734300Y-53971600D02*
X162725800Y-48980100D01*
X157734300Y-58193400D02*
X157734300Y-53971600D01*
%TO.N,CD3*%
X156209200Y-60733400D02*
X157734300Y-60733400D01*
X181775000Y-58500000D02*
X180599900Y-58500000D01*
X158184400Y-60283300D02*
X157734300Y-60733400D01*
X158184400Y-54171500D02*
X158184400Y-60283300D01*
X162916200Y-49439700D02*
X158184400Y-54171500D01*
X164732400Y-49439700D02*
X162916200Y-49439700D01*
X165609400Y-50316700D02*
X164732400Y-49439700D01*
X165609400Y-52703700D02*
X165609400Y-50316700D01*
X169789800Y-56884100D02*
X165609400Y-52703700D01*
X174292600Y-56884100D02*
X169789800Y-56884100D01*
X177104500Y-59696000D02*
X174292600Y-56884100D01*
X179769100Y-59696000D02*
X177104500Y-59696000D01*
X180599900Y-58865200D02*
X179769100Y-59696000D01*
X180599900Y-58500000D02*
X180599900Y-58865200D01*
%TO.N,CD4*%
X153789300Y-62378600D02*
X154684100Y-63273400D01*
X153789300Y-58215800D02*
X153789300Y-62378600D01*
X152441300Y-56867800D02*
X153789300Y-58215800D01*
X156209200Y-63273400D02*
X154684100Y-63273400D01*
X183478100Y-46483100D02*
X182589000Y-45594000D01*
X183478100Y-54256900D02*
X183478100Y-46483100D01*
X181775000Y-55960000D02*
X183478100Y-54256900D01*
%TO.N,CD5*%
X154724900Y-108294600D02*
X154724900Y-100200000D01*
X155421800Y-108991500D02*
X154724900Y-108294600D01*
X157488300Y-108991500D02*
X155421800Y-108991500D01*
X159821300Y-106658500D02*
X157488300Y-108991500D01*
X169032400Y-106658500D02*
X159821300Y-106658500D01*
X169920100Y-107546200D02*
X169032400Y-106658500D01*
X169920100Y-108746100D02*
X169920100Y-107546200D01*
X171555200Y-110381200D02*
X169920100Y-108746100D01*
X177712000Y-110381200D02*
X171555200Y-110381200D01*
X179552200Y-108541000D02*
X177712000Y-110381200D01*
X179552200Y-104030200D02*
X179552200Y-108541000D01*
X181522400Y-102060000D02*
X179552200Y-104030200D01*
X183217100Y-102060000D02*
X181522400Y-102060000D01*
X184308300Y-100968800D02*
X183217100Y-102060000D01*
X184308300Y-59317000D02*
X184308300Y-100968800D01*
X182221300Y-57230000D02*
X184308300Y-59317000D01*
X178822700Y-57230000D02*
X182221300Y-57230000D01*
X178059800Y-56467100D02*
X178822700Y-57230000D01*
X178059800Y-52879800D02*
X178059800Y-56467100D01*
X178694800Y-52244800D02*
X178059800Y-52879800D01*
X179791900Y-52244800D02*
X178694800Y-52244800D01*
X180599900Y-53052800D02*
X179791900Y-52244800D01*
X180599900Y-53420000D02*
X180599900Y-53052800D01*
X156250000Y-100200000D02*
X154724900Y-100200000D01*
X181775000Y-53420000D02*
X180599900Y-53420000D01*
%TO.N,~{INT}*%
X179235000Y-48340000D02*
X178059900Y-48340000D01*
X157259600Y-46225200D02*
X155187600Y-48297200D01*
X175945100Y-46225200D02*
X157259600Y-46225200D01*
X178059900Y-48340000D02*
X175945100Y-46225200D01*
%TO.N,~{CSR}*%
X179235000Y-50880000D02*
X178059900Y-50880000D01*
X161890100Y-48079900D02*
X161598900Y-48371100D01*
X165357400Y-48079900D02*
X161890100Y-48079900D01*
X167236600Y-49959100D02*
X165357400Y-48079900D01*
X168332700Y-49959100D02*
X167236600Y-49959100D01*
X175448500Y-50880000D02*
X178059900Y-50880000D01*
X173971500Y-49403000D02*
X175448500Y-50880000D01*
X168888800Y-49403000D02*
X173971500Y-49403000D01*
X168332700Y-49959100D02*
X168888800Y-49403000D01*
%TO.N,~{CSW}*%
X136811900Y-49841900D02*
X136811900Y-58420000D01*
X139769000Y-46884800D02*
X136811900Y-49841900D01*
X152727300Y-46884800D02*
X139769000Y-46884800D01*
X154871100Y-49028600D02*
X152727300Y-46884800D01*
X157057200Y-49028600D02*
X154871100Y-49028600D01*
X159135500Y-46950300D02*
X157057200Y-49028600D01*
X165889800Y-46950300D02*
X159135500Y-46950300D01*
X138337000Y-58420000D02*
X136811900Y-58420000D01*
X172478700Y-46884800D02*
X175725400Y-50131500D01*
X165955300Y-46884800D02*
X172478700Y-46884800D01*
X165889800Y-46950300D02*
X165955300Y-46884800D01*
%TO.N,MODE*%
X179235000Y-55960000D02*
X180410100Y-55960000D01*
X138337000Y-63500000D02*
X136811900Y-63500000D01*
X136361800Y-63049900D02*
X136811900Y-63500000D01*
X136361800Y-49655400D02*
X136361800Y-63049900D01*
X140242100Y-45775100D02*
X136361800Y-49655400D01*
X178355600Y-45775100D02*
X140242100Y-45775100D01*
X180505000Y-47924500D02*
X178355600Y-45775100D01*
X180505000Y-48752500D02*
X180505000Y-47924500D01*
X181325900Y-49573400D02*
X180505000Y-48752500D01*
X182130800Y-49573400D02*
X181325900Y-49573400D01*
X183002400Y-50445000D02*
X182130800Y-49573400D01*
X183002400Y-53859700D02*
X183002400Y-50445000D01*
X182077200Y-54784900D02*
X183002400Y-53859700D01*
X181217900Y-54784900D02*
X182077200Y-54784900D01*
X180410100Y-55592700D02*
X181217900Y-54784900D01*
X180410100Y-55960000D02*
X180410100Y-55592700D01*
%TO.N,ADC_CS*%
X170685200Y-92415100D02*
X170320000Y-92415100D01*
X173149900Y-94879800D02*
X170685200Y-92415100D01*
X173149900Y-98250000D02*
X173149900Y-94879800D01*
X174675000Y-98250000D02*
X173149900Y-98250000D01*
X170320000Y-91240000D02*
X170320000Y-92415100D01*
%TO.N,ADC_CLK*%
X176409900Y-93614800D02*
X171495100Y-88700000D01*
X179673500Y-93614800D02*
X176409900Y-93614800D01*
X183820100Y-97761400D02*
X179673500Y-93614800D01*
X183820100Y-100790000D02*
X183820100Y-97761400D01*
X182295000Y-100790000D02*
X183820100Y-100790000D01*
X170320000Y-88700000D02*
X171495100Y-88700000D01*
%TO.N,CD7_3V3*%
X163829200Y-73433400D02*
X165354300Y-73433400D01*
X166578300Y-73433400D02*
X165354300Y-73433400D01*
X169144900Y-76000000D02*
X166578300Y-73433400D01*
X170320000Y-76000000D02*
X169144900Y-76000000D01*
%TO.N,CD6_3V3*%
X163829200Y-70893400D02*
X165354300Y-70893400D01*
X167920900Y-73460000D02*
X165354300Y-70893400D01*
X170320000Y-73460000D02*
X167920900Y-73460000D01*
%TO.N,CD5_3V3*%
X166578300Y-68353400D02*
X163829200Y-68353400D01*
X169144900Y-70920000D02*
X166578300Y-68353400D01*
X170320000Y-70920000D02*
X169144900Y-70920000D01*
%TO.N,CD4_3V3*%
X167920900Y-68380000D02*
X165354300Y-65813400D01*
X170320000Y-68380000D02*
X167920900Y-68380000D01*
X163829200Y-65813400D02*
X165354300Y-65813400D01*
%TO.N,CD3_3V3*%
X167920900Y-65840000D02*
X165354300Y-63273400D01*
X170320000Y-65840000D02*
X167920900Y-65840000D01*
X163829200Y-63273400D02*
X165354300Y-63273400D01*
%TO.N,CD2_3V3*%
X166578300Y-60733400D02*
X163829200Y-60733400D01*
X169144900Y-63300000D02*
X166578300Y-60733400D01*
X170320000Y-63300000D02*
X169144900Y-63300000D01*
%TO.N,CD1_3V3*%
X166578300Y-58193400D02*
X163829200Y-58193400D01*
X169144900Y-60760000D02*
X166578300Y-58193400D01*
X170320000Y-60760000D02*
X169144900Y-60760000D01*
%TO.N,CD0_3V3*%
X166578300Y-55653400D02*
X163829200Y-55653400D01*
X169144900Y-58220000D02*
X166578300Y-55653400D01*
X170320000Y-58220000D02*
X169144900Y-58220000D01*
%TO.N,MODE_3V3*%
X147682100Y-65840000D02*
X147482100Y-66040000D01*
X150000000Y-65840000D02*
X147682100Y-65840000D01*
X145957000Y-66040000D02*
X147482100Y-66040000D01*
%TO.N,VCC*%
X177269900Y-94750000D02*
X176000000Y-94750000D01*
X180769900Y-98250000D02*
X177269900Y-94750000D01*
X182295000Y-98250000D02*
X180769900Y-98250000D01*
X156209200Y-50573400D02*
X154684100Y-50573400D01*
X138337000Y-50800000D02*
X139862100Y-50800000D01*
X170320000Y-48060000D02*
X169144900Y-48060000D01*
X156209200Y-50573400D02*
X157734300Y-50573400D01*
X165974100Y-48060000D02*
X169144900Y-48060000D01*
X165543900Y-47629800D02*
X165974100Y-48060000D01*
X160677900Y-47629800D02*
X165543900Y-47629800D01*
X157734300Y-50573400D02*
X160677900Y-47629800D01*
X153513200Y-49402500D02*
X154684100Y-50573400D01*
X149167000Y-49402500D02*
X153513200Y-49402500D01*
X148899400Y-49134900D02*
X149167000Y-49402500D01*
X141527200Y-49134900D02*
X148899400Y-49134900D01*
X139862100Y-50800000D02*
X141527200Y-49134900D01*
%TO.N,MODE1_3V3*%
X145957000Y-73660000D02*
X147482100Y-73660000D01*
X169144900Y-78540100D02*
X169144900Y-78540000D01*
X161544500Y-78540100D02*
X169144900Y-78540100D01*
X160075300Y-80009300D02*
X161544500Y-78540100D01*
X156281000Y-80009300D02*
X160075300Y-80009300D01*
X151477000Y-84813300D02*
X156281000Y-80009300D01*
X149511300Y-84813300D02*
X151477000Y-84813300D01*
X147482100Y-82784100D02*
X149511300Y-84813300D01*
X147482100Y-73660000D02*
X147482100Y-82784100D01*
X170320000Y-78540000D02*
X169144900Y-78540000D01*
%TO.N,MODE1*%
X138337000Y-71120000D02*
X139862100Y-71120000D01*
X179235000Y-61040000D02*
X178059900Y-61040000D01*
X139862100Y-75922900D02*
X139862100Y-71120000D01*
X139602300Y-76182700D02*
X139862100Y-75922900D01*
X139602300Y-77319600D02*
X139602300Y-76182700D01*
X140274500Y-77991800D02*
X139602300Y-77319600D01*
X141207200Y-77991800D02*
X140274500Y-77991800D01*
X143592300Y-75606700D02*
X141207200Y-77991800D01*
X143592300Y-68864000D02*
X143592300Y-75606700D01*
X145051200Y-67405100D02*
X143592300Y-68864000D01*
X146840600Y-67405100D02*
X145051200Y-67405100D01*
X149085500Y-69650000D02*
X146840600Y-67405100D01*
X150491900Y-69650000D02*
X149085500Y-69650000D01*
X152273700Y-71431800D02*
X150491900Y-69650000D01*
X152273700Y-71659700D02*
X152273700Y-71431800D01*
X155729100Y-75115100D02*
X152273700Y-71659700D01*
X156360700Y-75115100D02*
X155729100Y-75115100D01*
X157413100Y-76167500D02*
X156360700Y-75115100D01*
X157413100Y-76963200D02*
X157413100Y-76167500D01*
X158208700Y-77758800D02*
X157413100Y-76963200D01*
X159142800Y-77758800D02*
X158208700Y-77758800D01*
X159883900Y-77017700D02*
X159142800Y-77758800D01*
X159883900Y-65202100D02*
X159883900Y-77017700D01*
X162988400Y-62097600D02*
X159883900Y-65202100D01*
X165775800Y-62097600D02*
X162988400Y-62097600D01*
X168170900Y-64492700D02*
X165775800Y-62097600D01*
X174607200Y-64492700D02*
X168170900Y-64492700D01*
X178059900Y-61040000D02*
X174607200Y-64492700D01*
%TO.N,USR4_1V8*%
X159932800Y-91240000D02*
X160629100Y-91936300D01*
X150000000Y-91240000D02*
X159932800Y-91240000D01*
X174700000Y-84820000D02*
X173574900Y-84820000D01*
X168870200Y-87430000D02*
X165064100Y-91236100D01*
X170964900Y-87430000D02*
X168870200Y-87430000D01*
X173574900Y-84820000D02*
X170964900Y-87430000D01*
%TO.N,USR3_1V8*%
X150790000Y-87524900D02*
X150000000Y-87524900D01*
X156267500Y-82047400D02*
X150790000Y-87524900D01*
X159413400Y-82047400D02*
X156267500Y-82047400D01*
X160807600Y-80653200D02*
X159413400Y-82047400D01*
X166020300Y-80653200D02*
X160807600Y-80653200D01*
X167647100Y-82280000D02*
X166020300Y-80653200D01*
X174700000Y-82280000D02*
X167647100Y-82280000D01*
X150000000Y-88700000D02*
X150000000Y-87524900D01*
%TO.N,USR2_1V8*%
X174700000Y-79740000D02*
X173574900Y-79740000D01*
X150000000Y-86160000D02*
X151175100Y-86160000D01*
X160981200Y-79740000D02*
X173574900Y-79740000D01*
X160261800Y-80459400D02*
X160981200Y-79740000D01*
X156875700Y-80459400D02*
X160261800Y-80459400D01*
X151175100Y-86160000D02*
X156875700Y-80459400D01*
%TO.N,USR1_1V8*%
X155629700Y-79165400D02*
X151175100Y-83620000D01*
X160193200Y-79165400D02*
X155629700Y-79165400D01*
X162158600Y-77200000D02*
X160193200Y-79165400D01*
X174700000Y-77200000D02*
X162158600Y-77200000D01*
X150000000Y-83620000D02*
X151175100Y-83620000D01*
%TO.N,AUDIO*%
X168794900Y-108500000D02*
X167669800Y-108500000D01*
X166728200Y-109441600D02*
X167669800Y-108500000D01*
X147502600Y-109441600D02*
X166728200Y-109441600D01*
X143907000Y-105846000D02*
X147502600Y-109441600D01*
%TO.N,GND*%
X162217300Y-103882500D02*
X161202400Y-102867600D01*
X170017500Y-103882500D02*
X162217300Y-103882500D01*
X170400000Y-103500000D02*
X170017500Y-103882500D01*
X151245100Y-96390000D02*
X151175100Y-96320000D01*
X161370000Y-96390000D02*
X151245100Y-96390000D01*
X150000000Y-96320000D02*
X151175100Y-96320000D01*
X156209200Y-73433400D02*
X154684100Y-73433400D01*
X145957000Y-53340000D02*
X147482100Y-53340000D01*
X137907000Y-105846000D02*
X140107000Y-105846000D01*
X144907000Y-101346000D02*
X140407000Y-105846000D01*
X144907000Y-110346000D02*
X140407000Y-105846000D01*
X140407000Y-105846000D02*
X140107000Y-105846000D01*
X168897400Y-83372500D02*
X169144900Y-83620000D01*
X161370000Y-83372500D02*
X168897400Y-83372500D01*
X170320000Y-83620000D02*
X169144900Y-83620000D01*
X176264900Y-89750000D02*
X181194900Y-84820000D01*
X176000000Y-89750000D02*
X176264900Y-89750000D01*
X182320000Y-84820000D02*
X181194900Y-84820000D01*
X145000000Y-91960000D02*
X145000000Y-93135100D01*
X150000000Y-96320000D02*
X148824900Y-96320000D01*
X148824900Y-96320000D02*
X147500000Y-96320000D01*
X144907000Y-98913000D02*
X147500000Y-96320000D01*
X144907000Y-101346000D02*
X144907000Y-98913000D01*
X145831000Y-93135100D02*
X145000000Y-93135100D01*
X147500000Y-94804100D02*
X145831000Y-93135100D01*
X147500000Y-96320000D02*
X147500000Y-94804100D01*
X157801300Y-84986200D02*
X157775100Y-84960000D01*
X161370000Y-84986200D02*
X157801300Y-84986200D01*
X156250000Y-84960000D02*
X157775100Y-84960000D01*
X153213100Y-71962400D02*
X154684100Y-73433400D01*
X153213000Y-71962400D02*
X153213100Y-71962400D01*
X153213000Y-59768900D02*
X153213000Y-71962400D01*
X150394100Y-56950000D02*
X153213000Y-59768900D01*
X149567000Y-56950000D02*
X150394100Y-56950000D01*
X147482100Y-54865100D02*
X149567000Y-56950000D01*
X147482100Y-53340000D02*
X147482100Y-54865100D01*
%TO.N,VCC_3V3*%
X145957000Y-50800000D02*
X147482100Y-50800000D01*
X163009200Y-51393400D02*
X163829200Y-50573400D01*
X163009000Y-51393400D02*
X163009200Y-51393400D01*
X147482100Y-52325100D02*
X147482100Y-50800000D01*
X149567000Y-54410000D02*
X147482100Y-52325100D01*
X151063200Y-54410000D02*
X149567000Y-54410000D01*
X154684000Y-58030800D02*
X151063200Y-54410000D01*
X154684000Y-61204800D02*
X154684000Y-58030800D01*
X155388200Y-61909000D02*
X154684000Y-61204800D01*
X158002100Y-61909000D02*
X155388200Y-61909000D01*
X158663000Y-61248100D02*
X158002100Y-61909000D01*
X167944900Y-84960000D02*
X169144900Y-86160000D01*
X163870000Y-84960000D02*
X167944900Y-84960000D01*
X170320000Y-86160000D02*
X169144900Y-86160000D01*
X158663000Y-55739600D02*
X163829200Y-50573400D01*
X140750000Y-56007000D02*
X145957000Y-50800000D01*
X158663000Y-76578000D02*
X158663000Y-55739600D01*
X140750000Y-76835000D02*
X140750000Y-56007000D01*
%TO.N,GND*%
X161370000Y-102700000D02*
X156250000Y-107820000D01*
X161370000Y-81785000D02*
X161370000Y-102700000D01*
%TO.N,VCC*%
X177250000Y-109250000D02*
X177250000Y-103295000D01*
X177250000Y-103295000D02*
X182295000Y-98250000D01*
%TO.N,AUDIO_REF*%
X170400000Y-101000000D02*
X174465000Y-101000000D01*
X174465000Y-101000000D02*
X174675000Y-100790000D01*
%TD*%
M02*
