%TF.GenerationSoftware,KiCad,Pcbnew,7.0.1*%
%TF.CreationDate,2023-07-20T10:40:34-07:00*%
%TF.ProjectId,tn_vdp_v3_board,746e5f76-6470-45f7-9633-5f626f617264,rev?*%
%TF.SameCoordinates,Original*%
%TF.FileFunction,Copper,L2,Bot*%
%TF.FilePolarity,Positive*%
%FSLAX46Y46*%
G04 Gerber Fmt 4.6, Leading zero omitted, Abs format (unit mm)*
G04 Created by KiCad (PCBNEW 7.0.1) date 2023-07-20 10:40:34*
%MOMM*%
%LPD*%
G01*
G04 APERTURE LIST*
%TA.AperFunction,ComponentPad*%
%ADD10R,2.400000X1.600000*%
%TD*%
%TA.AperFunction,ComponentPad*%
%ADD11O,2.400000X1.600000*%
%TD*%
%TA.AperFunction,ComponentPad*%
%ADD12R,1.700000X1.700000*%
%TD*%
%TA.AperFunction,ComponentPad*%
%ADD13O,1.700000X1.700000*%
%TD*%
%TA.AperFunction,ComponentPad*%
%ADD14C,1.600000*%
%TD*%
%TA.AperFunction,ComponentPad*%
%ADD15C,1.620000*%
%TD*%
%TA.AperFunction,ComponentPad*%
%ADD16R,1.600000X1.600000*%
%TD*%
%TA.AperFunction,ComponentPad*%
%ADD17O,1.600000X1.600000*%
%TD*%
%TA.AperFunction,ComponentPad*%
%ADD18R,4.000000X4.000000*%
%TD*%
%TA.AperFunction,ComponentPad*%
%ADD19C,3.300000*%
%TD*%
%TA.AperFunction,ComponentPad*%
%ADD20C,3.500000*%
%TD*%
%TA.AperFunction,ViaPad*%
%ADD21C,0.800000*%
%TD*%
%TA.AperFunction,Conductor*%
%ADD22C,0.250000*%
%TD*%
G04 APERTURE END LIST*
D10*
%TO.P,U3,1,DIR*%
%TO.N,VCC*%
X138337000Y-50800000D03*
D11*
%TO.P,U3,2,A0*%
%TO.N,~{RESET}*%
X138337000Y-53340000D03*
%TO.P,U3,3,A1*%
%TO.N,~{INT_3V3}*%
X138337000Y-55880000D03*
%TO.P,U3,4,A2*%
%TO.N,~{CSW}*%
X138337000Y-58420000D03*
%TO.P,U3,5,A3*%
%TO.N,~{CSR}*%
X138337000Y-60960000D03*
%TO.P,U3,6,A4*%
%TO.N,MODE*%
X138337000Y-63500000D03*
%TO.P,U3,7,A5*%
%TO.N,CPUCLK_3V3*%
X138337000Y-66040000D03*
%TO.P,U3,8,A6*%
%TO.N,GROMCLK_3V3*%
X138337000Y-68580000D03*
%TO.P,U3,9,A7*%
%TO.N,MODE1*%
X138337000Y-71120000D03*
%TO.P,U3,10,GND*%
%TO.N,GND*%
X138337000Y-73660000D03*
%TO.P,U3,11,B7*%
%TO.N,MODE1_3V3*%
X145957000Y-73660000D03*
%TO.P,U3,12,B6*%
%TO.N,GROMCLK*%
X145957000Y-71120000D03*
%TO.P,U3,13,B5*%
%TO.N,CPUCLK*%
X145957000Y-68580000D03*
%TO.P,U3,14,B4*%
%TO.N,MODE_3V3*%
X145957000Y-66040000D03*
%TO.P,U3,15,B3*%
%TO.N,~{CSR_3V3}*%
X145957000Y-63500000D03*
%TO.P,U3,16,B2*%
%TO.N,~{CSW_3V3}*%
X145957000Y-60960000D03*
%TO.P,U3,17,B1*%
%TO.N,~{INT}*%
X145957000Y-58420000D03*
%TO.P,U3,18,B0*%
%TO.N,~{RESET_3V3}*%
X145957000Y-55880000D03*
%TO.P,U3,19,~{0E}*%
%TO.N,GND*%
X145957000Y-53340000D03*
%TO.P,U3,20,VCC*%
%TO.N,VCC_3V3*%
X145957000Y-50800000D03*
%TD*%
D12*
%TO.P,J2,1,Pin_1*%
%TO.N,GND*%
X181775000Y-71200000D03*
D13*
%TO.P,J2,2,Pin_2*%
%TO.N,VCC*%
X179235000Y-71200000D03*
%TO.P,J2,3,Pin_3*%
%TO.N,GND*%
X181775000Y-68660000D03*
%TO.P,J2,4,Pin_4*%
%TO.N,CPUCLK*%
X179235000Y-68660000D03*
%TO.P,J2,5,Pin_5*%
%TO.N,CD0*%
X181775000Y-66120000D03*
%TO.P,J2,6,Pin_6*%
%TO.N,GROMCLK*%
X179235000Y-66120000D03*
%TO.P,J2,7,Pin_7*%
%TO.N,CD1*%
X181775000Y-63580000D03*
%TO.P,J2,8,Pin_8*%
%TO.N,unconnected-(J2-Pin_8-Pad8)*%
X179235000Y-63580000D03*
%TO.P,J2,9,Pin_9*%
%TO.N,CD2*%
X181775000Y-61040000D03*
%TO.P,J2,10,Pin_10*%
%TO.N,MODE1*%
X179235000Y-61040000D03*
%TO.P,J2,11,Pin_11*%
%TO.N,CD3*%
X181775000Y-58500000D03*
%TO.P,J2,12,Pin_12*%
%TO.N,~{RESET}*%
X179235000Y-58500000D03*
%TO.P,J2,13,Pin_13*%
%TO.N,CD4*%
X181775000Y-55960000D03*
%TO.P,J2,14,Pin_14*%
%TO.N,MODE*%
X179235000Y-55960000D03*
%TO.P,J2,15,Pin_15*%
%TO.N,CD5*%
X181775000Y-53420000D03*
%TO.P,J2,16,Pin_16*%
%TO.N,~{CSW}*%
X179235000Y-53420000D03*
%TO.P,J2,17,Pin_17*%
%TO.N,CD6*%
X181775000Y-50880000D03*
%TO.P,J2,18,Pin_18*%
%TO.N,~{CSR}*%
X179235000Y-50880000D03*
%TO.P,J2,19,Pin_19*%
%TO.N,CD7*%
X181775000Y-48340000D03*
%TO.P,J2,20,Pin_20*%
%TO.N,~{INT}*%
X179235000Y-48340000D03*
%TD*%
D12*
%TO.P,J3,1,Pin_1*%
%TO.N,unconnected-(J3-Pin_1-Pad1)*%
X150000000Y-48060000D03*
D13*
%TO.P,J3,2,Pin_2*%
%TO.N,unconnected-(J3-Pin_2-Pad2)*%
X150000000Y-50600000D03*
%TO.P,J3,3,Pin_3*%
%TO.N,unconnected-(J3-Pin_3-Pad3)*%
X150000000Y-53140000D03*
%TO.P,J3,4,Pin_4*%
%TO.N,unconnected-(J3-Pin_4-Pad4)*%
X150000000Y-55680000D03*
%TO.P,J3,5,Pin_5*%
%TO.N,unconnected-(J3-Pin_5-Pad5)*%
X150000000Y-58220000D03*
%TO.P,J3,6,Pin_6*%
%TO.N,unconnected-(J3-Pin_6-Pad6)*%
X150000000Y-60760000D03*
%TO.P,J3,7,Pin_7*%
%TO.N,unconnected-(J3-Pin_7-Pad7)*%
X150000000Y-63300000D03*
%TO.P,J3,8,Pin_8*%
%TO.N,MODE_3V3*%
X150000000Y-65840000D03*
%TO.P,J3,9,Pin_9*%
%TO.N,~{CSW_3V3}*%
X150000000Y-68380000D03*
%TO.P,J3,10,Pin_10*%
%TO.N,~{CSR_3V3}*%
X150000000Y-70920000D03*
%TO.P,J3,11,Pin_11*%
%TO.N,~{INT_3V3}*%
X150000000Y-73460000D03*
%TO.P,J3,12,Pin_12*%
%TO.N,CPUCLK_3V3*%
X150000000Y-76000000D03*
%TO.P,J3,13,Pin_13*%
%TO.N,GROMCLK_3V3*%
X150000000Y-78540000D03*
%TO.P,J3,14,Pin_14*%
%TO.N,~{RESET_3V3}*%
X150000000Y-81080000D03*
%TO.P,J3,15,Pin_15*%
%TO.N,USR1_1V8*%
X150000000Y-83620000D03*
%TO.P,J3,16,Pin_16*%
%TO.N,USR2_1V8*%
X150000000Y-86160000D03*
%TO.P,J3,17,Pin_17*%
%TO.N,USR3_1V8*%
X150000000Y-88700000D03*
%TO.P,J3,18,Pin_18*%
%TO.N,USR4_1V8*%
X150000000Y-91240000D03*
%TO.P,J3,19,Pin_19*%
%TO.N,VCC_3V3*%
X150000000Y-93780000D03*
%TO.P,J3,20,Pin_20*%
%TO.N,GND*%
X150000000Y-96320000D03*
%TD*%
D14*
%TO.P,C6,1*%
%TO.N,AUDIO_REF*%
X170400000Y-101000000D03*
%TO.P,C6,2*%
%TO.N,GND*%
X170400000Y-103500000D03*
%TD*%
%TO.P,C2,1*%
%TO.N,VCC_3V3*%
X158663000Y-76578000D03*
%TO.P,C2,2*%
%TO.N,GND*%
X156163000Y-76578000D03*
%TD*%
%TO.P,C4,1*%
%TO.N,VCC*%
X177250000Y-109250000D03*
%TO.P,C4,2*%
%TO.N,GND*%
X174750000Y-109250000D03*
%TD*%
D12*
%TO.P,J6,1,Pin_1*%
%TO.N,VCC*%
X170320000Y-48060000D03*
D13*
%TO.P,J6,2,Pin_2*%
%TO.N,GND*%
X170320000Y-50600000D03*
%TO.P,J6,3,Pin_3*%
%TO.N,unconnected-(J6-Pin_3-Pad3)*%
X170320000Y-53140000D03*
%TO.P,J6,4,Pin_4*%
%TO.N,unconnected-(J6-Pin_4-Pad4)*%
X170320000Y-55680000D03*
%TO.P,J6,5,Pin_5*%
%TO.N,CD0_3V3*%
X170320000Y-58220000D03*
%TO.P,J6,6,Pin_6*%
%TO.N,CD1_3V3*%
X170320000Y-60760000D03*
%TO.P,J6,7,Pin_7*%
%TO.N,CD2_3V3*%
X170320000Y-63300000D03*
%TO.P,J6,8,Pin_8*%
%TO.N,CD3_3V3*%
X170320000Y-65840000D03*
%TO.P,J6,9,Pin_9*%
%TO.N,CD4_3V3*%
X170320000Y-68380000D03*
%TO.P,J6,10,Pin_10*%
%TO.N,CD5_3V3*%
X170320000Y-70920000D03*
%TO.P,J6,11,Pin_11*%
%TO.N,CD6_3V3*%
X170320000Y-73460000D03*
%TO.P,J6,12,Pin_12*%
%TO.N,CD7_3V3*%
X170320000Y-76000000D03*
%TO.P,J6,13,Pin_13*%
%TO.N,MODE1_3V3*%
X170320000Y-78540000D03*
%TO.P,J6,14,Pin_14*%
%TO.N,unconnected-(J6-Pin_14-Pad14)*%
X170320000Y-81080000D03*
%TO.P,J6,15,Pin_15*%
%TO.N,GND*%
X170320000Y-83620000D03*
%TO.P,J6,16,Pin_16*%
%TO.N,VCC_3V3*%
X170320000Y-86160000D03*
%TO.P,J6,17,Pin_17*%
%TO.N,ADC_CLK*%
X170320000Y-88700000D03*
%TO.P,J6,18,Pin_18*%
%TO.N,ADC_CS*%
X170320000Y-91240000D03*
%TO.P,J6,19,Pin_19*%
%TO.N,ADC_MISO*%
X170320000Y-93780000D03*
%TO.P,J6,20,Pin_20*%
%TO.N,ADC_MOSI*%
X170320000Y-96320000D03*
%TD*%
D14*
%TO.P,C1,1*%
%TO.N,VCC_3V3*%
X140750000Y-76835000D03*
%TO.P,C1,2*%
%TO.N,GND*%
X138250000Y-76835000D03*
%TD*%
D10*
%TO.P,U4,1,~{CS}/SHDN*%
%TO.N,ADC_CS*%
X174675000Y-98250000D03*
D11*
%TO.P,U4,2,CH0*%
%TO.N,AUDIO_REF*%
X174675000Y-100790000D03*
%TO.P,U4,3,CH1*%
X174675000Y-103330000D03*
%TO.P,U4,4,VSS*%
%TO.N,GND*%
X174675000Y-105870000D03*
%TO.P,U4,5,DIN*%
%TO.N,ADC_MOSI*%
X182295000Y-105870000D03*
%TO.P,U4,6,DOUT*%
%TO.N,ADC_MISO*%
X182295000Y-103330000D03*
%TO.P,U4,7,CLK*%
%TO.N,ADC_CLK*%
X182295000Y-100790000D03*
%TO.P,U4,8,VDD/VREF*%
%TO.N,VCC*%
X182295000Y-98250000D03*
%TD*%
D14*
%TO.P,C3,1*%
%TO.N,VCC_3V3*%
X163870000Y-81785000D03*
%TO.P,C3,2*%
%TO.N,GND*%
X161370000Y-81785000D03*
%TD*%
D15*
%TO.P,RV1,1,1*%
%TO.N,VCC*%
X176000000Y-94750000D03*
%TO.P,RV1,2,2*%
%TO.N,AUDIO_REF*%
X181000000Y-92250000D03*
%TO.P,RV1,3,3*%
%TO.N,GND*%
X176000000Y-89750000D03*
%TD*%
D16*
%TO.P,J4,1,Pin_1*%
%TO.N,USR1_1V8*%
X174700000Y-77200000D03*
D17*
%TO.P,J4,2,Pin_2*%
%TO.N,USR2_1V8*%
X174700000Y-79740000D03*
%TO.P,J4,3,Pin_3*%
%TO.N,USR3_1V8*%
X174700000Y-82280000D03*
%TO.P,J4,4,Pin_4*%
%TO.N,USR4_1V8*%
X174700000Y-84820000D03*
%TO.P,J4,5,Pin_5*%
%TO.N,GND*%
X182320000Y-84820000D03*
%TO.P,J4,6,Pin_6*%
X182320000Y-82280000D03*
%TO.P,J4,7,Pin_7*%
X182320000Y-79740000D03*
%TO.P,J4,8,Pin_8*%
X182320000Y-77200000D03*
%TD*%
D10*
%TO.P,U2,1,DIR*%
%TO.N,VCC*%
X156209200Y-50573400D03*
D11*
%TO.P,U2,2,A0*%
%TO.N,CD0*%
X156209200Y-53113400D03*
%TO.P,U2,3,A1*%
%TO.N,CD1*%
X156209200Y-55653400D03*
%TO.P,U2,4,A2*%
%TO.N,CD2*%
X156209200Y-58193400D03*
%TO.P,U2,5,A3*%
%TO.N,CD3*%
X156209200Y-60733400D03*
%TO.P,U2,6,A4*%
%TO.N,CD4*%
X156209200Y-63273400D03*
%TO.P,U2,7,A5*%
%TO.N,CD5*%
X156209200Y-65813400D03*
%TO.P,U2,8,A6*%
%TO.N,CD6*%
X156209200Y-68353400D03*
%TO.P,U2,9,A7*%
%TO.N,CD7*%
X156209200Y-70893400D03*
%TO.P,U2,10,GND*%
%TO.N,GND*%
X156209200Y-73433400D03*
%TO.P,U2,11,B7*%
%TO.N,CD7_3V3*%
X163829200Y-73433400D03*
%TO.P,U2,12,B6*%
%TO.N,CD6_3V3*%
X163829200Y-70893400D03*
%TO.P,U2,13,B5*%
%TO.N,CD5_3V3*%
X163829200Y-68353400D03*
%TO.P,U2,14,B4*%
%TO.N,CD4_3V3*%
X163829200Y-65813400D03*
%TO.P,U2,15,B3*%
%TO.N,CD3_3V3*%
X163829200Y-63273400D03*
%TO.P,U2,16,B2*%
%TO.N,CD2_3V3*%
X163829200Y-60733400D03*
%TO.P,U2,17,B1*%
%TO.N,CD1_3V3*%
X163829200Y-58193400D03*
%TO.P,U2,18,B0*%
%TO.N,CD0_3V3*%
X163829200Y-55653400D03*
%TO.P,U2,19,~{0E}*%
%TO.N,~{CSW}*%
X163829200Y-53113400D03*
%TO.P,U2,20,VCC*%
%TO.N,VCC_3V3*%
X163829200Y-50573400D03*
%TD*%
D12*
%TO.P,J5,1,Pin_1*%
%TO.N,AUDIO*%
X145000000Y-94500000D03*
D13*
%TO.P,J5,2,Pin_2*%
%TO.N,GND*%
X145000000Y-91960000D03*
%TD*%
D16*
%TO.P,C5,1*%
%TO.N,AUDIO*%
X168794900Y-108500000D03*
D14*
%TO.P,C5,2*%
%TO.N,AUDIO_REF*%
X171294900Y-108500000D03*
%TD*%
D10*
%TO.P,U1,1,DIR*%
%TO.N,GND*%
X156250000Y-84960000D03*
D11*
%TO.P,U1,2,A0*%
%TO.N,CD0*%
X156250000Y-87500000D03*
%TO.P,U1,3,A1*%
%TO.N,CD1*%
X156250000Y-90040000D03*
%TO.P,U1,4,A2*%
%TO.N,CD2*%
X156250000Y-92580000D03*
%TO.P,U1,5,A3*%
%TO.N,CD3*%
X156250000Y-95120000D03*
%TO.P,U1,6,A4*%
%TO.N,CD4*%
X156250000Y-97660000D03*
%TO.P,U1,7,A5*%
%TO.N,CD5*%
X156250000Y-100200000D03*
%TO.P,U1,8,A6*%
%TO.N,CD6*%
X156250000Y-102740000D03*
%TO.P,U1,9,A7*%
%TO.N,CD7*%
X156250000Y-105280000D03*
%TO.P,U1,10,GND*%
%TO.N,GND*%
X156250000Y-107820000D03*
%TO.P,U1,11,B7*%
%TO.N,CD7_3V3*%
X163870000Y-107820000D03*
%TO.P,U1,12,B6*%
%TO.N,CD6_3V3*%
X163870000Y-105280000D03*
%TO.P,U1,13,B5*%
%TO.N,CD5_3V3*%
X163870000Y-102740000D03*
%TO.P,U1,14,B4*%
%TO.N,CD4_3V3*%
X163870000Y-100200000D03*
%TO.P,U1,15,B3*%
%TO.N,CD3_3V3*%
X163870000Y-97660000D03*
%TO.P,U1,16,B2*%
%TO.N,CD2_3V3*%
X163870000Y-95120000D03*
%TO.P,U1,17,B1*%
%TO.N,CD1_3V3*%
X163870000Y-92580000D03*
%TO.P,U1,18,B0*%
%TO.N,CD0_3V3*%
X163870000Y-90040000D03*
%TO.P,U1,19,~{0E}*%
%TO.N,~{CSR}*%
X163870000Y-87500000D03*
%TO.P,U1,20,VCC*%
%TO.N,VCC_3V3*%
X163870000Y-84960000D03*
%TD*%
D18*
%TO.P,J7,1,In*%
%TO.N,AUDIO*%
X138500000Y-105500000D03*
D19*
%TO.P,J7,2,Ext*%
%TO.N,GND*%
X144500000Y-105500000D03*
D20*
%TO.P,J7,MP*%
%TO.N,N/C*%
X145500000Y-110000000D03*
X145500000Y-101000000D03*
%TD*%
D21*
%TO.N,CPUCLK*%
X161534600Y-73528700D03*
X160298300Y-75481700D03*
%TO.N,~{RESET}*%
X172624600Y-48068900D03*
%TO.N,CD0*%
X161837200Y-66668200D03*
X162470100Y-80163100D03*
%TO.N,CD1*%
X160791000Y-58759000D03*
%TO.N,CD2*%
X159864600Y-61862200D03*
%TO.N,CD3*%
X165199000Y-57055800D03*
X159389100Y-57751200D03*
%TO.N,CD4*%
X162018500Y-51355600D03*
%TO.N,CD5*%
X159575400Y-53634200D03*
%TO.N,CD6*%
X152028600Y-68405300D03*
%TO.N,~{CSR}*%
X162122300Y-100920100D03*
X183620800Y-64243300D03*
%TO.N,~{CSW}*%
X165354300Y-48697000D03*
%TO.N,MODE1*%
X176725500Y-68529100D03*
%TO.N,USR4_1V8*%
X172245300Y-95010000D03*
X165035900Y-98930000D03*
%TD*%
D22*
%TO.N,AUDIO_REF*%
X173149900Y-106645000D02*
X171294900Y-108500000D01*
X173149900Y-103330000D02*
X173149900Y-106645000D01*
X174675000Y-103330000D02*
X173149900Y-103330000D01*
X173149900Y-101267400D02*
X173149900Y-103330000D01*
X172882500Y-101000000D02*
X173149900Y-101267400D01*
%TO.N,CPUCLK*%
X162803700Y-72259600D02*
X161534600Y-73528700D01*
X164855400Y-72259600D02*
X162803700Y-72259600D01*
X167241500Y-74645700D02*
X164855400Y-72259600D01*
X172074200Y-74645700D02*
X167241500Y-74645700D01*
X178059900Y-68660000D02*
X172074200Y-74645700D01*
X144431900Y-71627100D02*
X144431900Y-68580000D01*
X145268700Y-72463900D02*
X144431900Y-71627100D01*
X146960900Y-72463900D02*
X145268700Y-72463900D01*
X149227000Y-74730000D02*
X146960900Y-72463900D01*
X152205400Y-74730000D02*
X149227000Y-74730000D01*
X155661300Y-78185900D02*
X152205400Y-74730000D01*
X159334200Y-78185900D02*
X155661300Y-78185900D01*
X160298300Y-77221800D02*
X159334200Y-78185900D01*
X160298300Y-75481700D02*
X160298300Y-77221800D01*
X145957000Y-68580000D02*
X144431900Y-68580000D01*
X179235000Y-68660000D02*
X178059900Y-68660000D01*
%TO.N,GROMCLK*%
X179235000Y-66120000D02*
X178059900Y-66120000D01*
X145957000Y-71120000D02*
X147482100Y-71120000D01*
X148477700Y-72115600D02*
X147482100Y-71120000D01*
X151494500Y-72115600D02*
X148477700Y-72115600D01*
X154257900Y-74879000D02*
X151494500Y-72115600D01*
X156086500Y-74879000D02*
X154257900Y-74879000D01*
X157413000Y-76205500D02*
X156086500Y-74879000D01*
X157413000Y-76962500D02*
X157413000Y-76205500D01*
X158181100Y-77730600D02*
X157413000Y-76962500D01*
X159149700Y-77730600D02*
X158181100Y-77730600D01*
X159810300Y-77070000D02*
X159149700Y-77730600D01*
X159810300Y-76019100D02*
X159810300Y-77070000D01*
X159573200Y-75782000D02*
X159810300Y-76019100D01*
X159573200Y-67906800D02*
X159573200Y-75782000D01*
X162823900Y-64656100D02*
X159573200Y-67906800D01*
X166219000Y-64656100D02*
X162823900Y-64656100D01*
X168632100Y-67069200D02*
X166219000Y-64656100D01*
X176117900Y-67069200D02*
X168632100Y-67069200D01*
X177067100Y-66120000D02*
X176117900Y-67069200D01*
X178059900Y-66120000D02*
X177067100Y-66120000D01*
%TO.N,~{RESET}*%
X138337000Y-53340000D02*
X136811900Y-53340000D01*
X170990300Y-46434600D02*
X172624600Y-48068900D01*
X140235300Y-46434600D02*
X170990300Y-46434600D01*
X136811900Y-49858000D02*
X140235300Y-46434600D01*
X136811900Y-53340000D02*
X136811900Y-49858000D01*
%TO.N,CD0*%
X181775000Y-66120000D02*
X180599900Y-66120000D01*
X156250000Y-87500000D02*
X154724900Y-87500000D01*
X162397200Y-67228200D02*
X161837200Y-66668200D01*
X166948300Y-67228200D02*
X162397200Y-67228200D01*
X169313400Y-69593300D02*
X166948300Y-67228200D01*
X174334800Y-69593300D02*
X169313400Y-69593300D01*
X176633000Y-67295100D02*
X174334800Y-69593300D01*
X179792100Y-67295100D02*
X176633000Y-67295100D01*
X180599900Y-66487300D02*
X179792100Y-67295100D01*
X180599900Y-66120000D02*
X180599900Y-66487300D01*
X161400700Y-80163100D02*
X162470100Y-80163100D01*
X157769100Y-83794700D02*
X161400700Y-80163100D01*
X154898200Y-83794700D02*
X157769100Y-83794700D01*
X154724900Y-83968000D02*
X154898200Y-83794700D01*
X154724900Y-87500000D02*
X154724900Y-83968000D01*
%TO.N,CD1*%
X181775000Y-63580000D02*
X181775000Y-62404900D01*
X161640200Y-59608200D02*
X160791000Y-58759000D01*
X166251100Y-59608200D02*
X161640200Y-59608200D01*
X168616200Y-61973300D02*
X166251100Y-59608200D01*
X174653300Y-61973300D02*
X168616200Y-61973300D01*
X176762100Y-59864500D02*
X174653300Y-61973300D01*
X182319400Y-59864500D02*
X176762100Y-59864500D01*
X182980900Y-60526000D02*
X182319400Y-59864500D01*
X182980900Y-61566200D02*
X182980900Y-60526000D01*
X182142200Y-62404900D02*
X182980900Y-61566200D01*
X181775000Y-62404900D02*
X182142200Y-62404900D01*
%TO.N,CD2*%
X165965100Y-61862200D02*
X159864600Y-61862200D01*
X168616200Y-64513300D02*
X165965100Y-61862200D01*
X172750000Y-64513300D02*
X168616200Y-64513300D01*
X174877900Y-62385400D02*
X172750000Y-64513300D01*
X179621700Y-62385400D02*
X174877900Y-62385400D01*
X180599900Y-61407200D02*
X179621700Y-62385400D01*
X180599900Y-61040000D02*
X180599900Y-61407200D01*
X181775000Y-61040000D02*
X180599900Y-61040000D01*
%TO.N,CD3*%
X181775000Y-58500000D02*
X180599900Y-58500000D01*
X165211500Y-57043300D02*
X165199000Y-57055800D01*
X178656300Y-57043300D02*
X165211500Y-57043300D01*
X178937900Y-57324900D02*
X178656300Y-57043300D01*
X179792100Y-57324900D02*
X178937900Y-57324900D01*
X180599900Y-58132700D02*
X179792100Y-57324900D01*
X180599900Y-58500000D02*
X180599900Y-58132700D01*
X160084500Y-57055800D02*
X159389100Y-57751200D01*
X165199000Y-57055800D02*
X160084500Y-57055800D01*
%TO.N,CD4*%
X156209200Y-63273400D02*
X157734300Y-63273400D01*
X160803700Y-51355600D02*
X162018500Y-51355600D01*
X157734300Y-54425000D02*
X160803700Y-51355600D01*
X157734300Y-63273400D02*
X157734300Y-54425000D01*
%TO.N,CD5*%
X156209200Y-65813400D02*
X157734300Y-65813400D01*
X158184400Y-55025200D02*
X159575400Y-53634200D01*
X158184400Y-65363300D02*
X158184400Y-55025200D01*
X157734300Y-65813400D02*
X158184400Y-65363300D01*
%TO.N,CD6*%
X154632200Y-68405300D02*
X154684100Y-68353400D01*
X152028600Y-68405300D02*
X154632200Y-68405300D01*
X156209200Y-68353400D02*
X154684100Y-68353400D01*
%TO.N,~{INT}*%
X179235000Y-48340000D02*
X178059900Y-48340000D01*
X145957000Y-58420000D02*
X147482100Y-58420000D01*
X176975100Y-49424800D02*
X178059900Y-48340000D01*
X162097900Y-49424800D02*
X176975100Y-49424800D01*
X157139300Y-54383400D02*
X162097900Y-49424800D01*
X153919800Y-54383400D02*
X157139300Y-54383400D01*
X151298000Y-57005200D02*
X153919800Y-54383400D01*
X148896900Y-57005200D02*
X151298000Y-57005200D01*
X147482100Y-58420000D02*
X148896900Y-57005200D01*
%TO.N,~{CSR}*%
X162344900Y-100697500D02*
X162122300Y-100920100D01*
X162344900Y-87500000D02*
X162344900Y-100697500D01*
X163870000Y-87500000D02*
X162344900Y-87500000D01*
X173639700Y-87500000D02*
X163870000Y-87500000D01*
X176782500Y-84357200D02*
X173639700Y-87500000D01*
X176782500Y-79605400D02*
X176782500Y-84357200D01*
X183620800Y-72767100D02*
X176782500Y-79605400D01*
X183620800Y-64243300D02*
X183620800Y-72767100D01*
%TO.N,~{CSW}*%
X166588900Y-54348000D02*
X165354300Y-53113400D01*
X177131900Y-54348000D02*
X166588900Y-54348000D01*
X178059900Y-53420000D02*
X177131900Y-54348000D01*
X179235000Y-53420000D02*
X178059900Y-53420000D01*
X163829200Y-53113400D02*
X165354300Y-53113400D01*
X138337000Y-58420000D02*
X139862100Y-58420000D01*
X161621800Y-48697000D02*
X165354300Y-48697000D01*
X158620200Y-51698600D02*
X161621800Y-48697000D01*
X154191800Y-51698600D02*
X158620200Y-51698600D01*
X151912600Y-49419400D02*
X154191800Y-51698600D01*
X145344900Y-49419400D02*
X151912600Y-49419400D01*
X139862100Y-54902200D02*
X145344900Y-49419400D01*
X139862100Y-58420000D02*
X139862100Y-54902200D01*
%TO.N,MODE*%
X136339200Y-63027300D02*
X136811900Y-63500000D01*
X136339200Y-49686600D02*
X136339200Y-63027300D01*
X140041400Y-45984400D02*
X136339200Y-49686600D01*
X178564800Y-45984400D02*
X140041400Y-45984400D01*
X180415000Y-47834600D02*
X178564800Y-45984400D01*
X180415000Y-53972100D02*
X180415000Y-47834600D01*
X179602200Y-54784900D02*
X180415000Y-53972100D01*
X179235000Y-54784900D02*
X179602200Y-54784900D01*
X179235000Y-55960000D02*
X179235000Y-54784900D01*
X138337000Y-63500000D02*
X136811900Y-63500000D01*
%TO.N,ADC_CS*%
X170685200Y-92415100D02*
X170320000Y-92415100D01*
X173149900Y-94879800D02*
X170685200Y-92415100D01*
X173149900Y-98250000D02*
X173149900Y-94879800D01*
X174675000Y-98250000D02*
X173149900Y-98250000D01*
X170320000Y-91240000D02*
X170320000Y-92415100D01*
%TO.N,ADC_CLK*%
X176409900Y-93614800D02*
X171495100Y-88700000D01*
X179673500Y-93614800D02*
X176409900Y-93614800D01*
X183820100Y-97761400D02*
X179673500Y-93614800D01*
X183820100Y-100790000D02*
X183820100Y-97761400D01*
X182295000Y-100790000D02*
X183820100Y-100790000D01*
X170320000Y-88700000D02*
X171495100Y-88700000D01*
%TO.N,CD7_3V3*%
X167920900Y-76000000D02*
X165354300Y-73433400D01*
X170320000Y-76000000D02*
X167920900Y-76000000D01*
X163829200Y-73433400D02*
X165354300Y-73433400D01*
%TO.N,CD6_3V3*%
X166578300Y-70893400D02*
X163829200Y-70893400D01*
X169144900Y-73460000D02*
X166578300Y-70893400D01*
X170320000Y-73460000D02*
X169144900Y-73460000D01*
%TO.N,CD5_3V3*%
X166578300Y-68353400D02*
X163829200Y-68353400D01*
X169144900Y-70920000D02*
X166578300Y-68353400D01*
X170320000Y-70920000D02*
X169144900Y-70920000D01*
%TO.N,CD4_3V3*%
X166578300Y-65813400D02*
X163829200Y-65813400D01*
X169144900Y-68380000D02*
X166578300Y-65813400D01*
X170320000Y-68380000D02*
X169144900Y-68380000D01*
%TO.N,CD3_3V3*%
X166578300Y-63273400D02*
X163829200Y-63273400D01*
X169144900Y-65840000D02*
X166578300Y-63273400D01*
X170320000Y-65840000D02*
X169144900Y-65840000D01*
%TO.N,CD2_3V3*%
X166578300Y-60733400D02*
X163829200Y-60733400D01*
X169144900Y-63300000D02*
X166578300Y-60733400D01*
X170320000Y-63300000D02*
X169144900Y-63300000D01*
%TO.N,CD1_3V3*%
X166578300Y-58193400D02*
X163829200Y-58193400D01*
X169144900Y-60760000D02*
X166578300Y-58193400D01*
X170320000Y-60760000D02*
X169144900Y-60760000D01*
%TO.N,MODE_3V3*%
X147682100Y-65840000D02*
X147482100Y-66040000D01*
X150000000Y-65840000D02*
X147682100Y-65840000D01*
X145957000Y-66040000D02*
X147482100Y-66040000D01*
%TO.N,VCC*%
X177269900Y-94750000D02*
X176000000Y-94750000D01*
X180769900Y-98250000D02*
X177269900Y-94750000D01*
X182295000Y-98250000D02*
X180769900Y-98250000D01*
X156209200Y-50573400D02*
X154684100Y-50573400D01*
X138337000Y-50800000D02*
X139862100Y-50800000D01*
X150995500Y-46884800D02*
X154684100Y-50573400D01*
X143777300Y-46884800D02*
X150995500Y-46884800D01*
X139862100Y-50800000D02*
X143777300Y-46884800D01*
X160389200Y-47918500D02*
X157734300Y-50573400D01*
X169003400Y-47918500D02*
X160389200Y-47918500D01*
X169144900Y-48060000D02*
X169003400Y-47918500D01*
X170320000Y-48060000D02*
X169144900Y-48060000D01*
X156209200Y-50573400D02*
X157734300Y-50573400D01*
%TO.N,MODE1_3V3*%
X170320000Y-78540000D02*
X169144900Y-78540000D01*
X145957000Y-73660000D02*
X144431900Y-73660000D01*
X169081400Y-78476500D02*
X169144900Y-78540000D01*
X160953500Y-78476500D02*
X169081400Y-78476500D01*
X158380400Y-81049600D02*
X160953500Y-78476500D01*
X155096900Y-81049600D02*
X158380400Y-81049600D01*
X151346700Y-84799800D02*
X155096900Y-81049600D01*
X143939100Y-84799800D02*
X151346700Y-84799800D01*
X136352800Y-77213500D02*
X143939100Y-84799800D01*
X136352800Y-70904200D02*
X136352800Y-77213500D01*
X137311100Y-69945900D02*
X136352800Y-70904200D01*
X139190900Y-69945900D02*
X137311100Y-69945900D01*
X139862200Y-70617200D02*
X139190900Y-69945900D01*
X139862200Y-75922800D02*
X139862200Y-70617200D01*
X139600500Y-76184500D02*
X139862200Y-75922800D01*
X139600500Y-77317600D02*
X139600500Y-76184500D01*
X140249700Y-77966800D02*
X139600500Y-77317600D01*
X141253100Y-77966800D02*
X140249700Y-77966800D01*
X144431900Y-74788000D02*
X141253100Y-77966800D01*
X144431900Y-73660000D02*
X144431900Y-74788000D01*
%TO.N,MODE1*%
X138337000Y-71120000D02*
X136811900Y-71120000D01*
X173121300Y-72133300D02*
X176725500Y-68529100D01*
X168616200Y-72133300D02*
X173121300Y-72133300D01*
X166194900Y-69712000D02*
X168616200Y-72133300D01*
X162991900Y-69712000D02*
X166194900Y-69712000D01*
X160786300Y-71917600D02*
X162991900Y-69712000D01*
X160786300Y-74944200D02*
X160786300Y-71917600D01*
X161023400Y-75181300D02*
X160786300Y-74944200D01*
X161023400Y-77133300D02*
X161023400Y-75181300D01*
X159520700Y-78636000D02*
X161023400Y-77133300D01*
X155474800Y-78636000D02*
X159520700Y-78636000D01*
X154172400Y-77333600D02*
X155474800Y-78636000D01*
X147610500Y-77333600D02*
X154172400Y-77333600D01*
X146511500Y-78432600D02*
X147610500Y-77333600D01*
X138208600Y-78432600D02*
X146511500Y-78432600D01*
X136811900Y-77035900D02*
X138208600Y-78432600D01*
X136811900Y-71120000D02*
X136811900Y-77035900D01*
%TO.N,USR4_1V8*%
X168955900Y-95010000D02*
X172245300Y-95010000D01*
X165035900Y-98930000D02*
X168955900Y-95010000D01*
%TO.N,USR3_1V8*%
X150000000Y-88700000D02*
X150000000Y-87524900D01*
X166222200Y-82280000D02*
X174700000Y-82280000D01*
X163379100Y-79436900D02*
X166222200Y-82280000D01*
X161490200Y-79436900D02*
X163379100Y-79436900D01*
X158439200Y-82487900D02*
X161490200Y-79436900D01*
X155483900Y-82487900D02*
X158439200Y-82487900D01*
X150446900Y-87524900D02*
X155483900Y-82487900D01*
X150000000Y-87524900D02*
X150446900Y-87524900D01*
%TO.N,USR2_1V8*%
X150000000Y-86160000D02*
X151175100Y-86160000D01*
X164955500Y-79740000D02*
X174700000Y-79740000D01*
X164202200Y-78986700D02*
X164955500Y-79740000D01*
X161079900Y-78986700D02*
X164202200Y-78986700D01*
X158566900Y-81499700D02*
X161079900Y-78986700D01*
X155835400Y-81499700D02*
X158566900Y-81499700D01*
X151175100Y-86160000D02*
X155835400Y-81499700D01*
%TO.N,USR1_1V8*%
X155305400Y-79489700D02*
X151175100Y-83620000D01*
X159303600Y-79489700D02*
X155305400Y-79489700D01*
X161593300Y-77200000D02*
X159303600Y-79489700D01*
X174700000Y-77200000D02*
X161593300Y-77200000D01*
X150000000Y-83620000D02*
X151175100Y-83620000D01*
%TO.N,GND*%
X162217300Y-103882500D02*
X161202400Y-102867600D01*
X170017500Y-103882500D02*
X162217300Y-103882500D01*
X170400000Y-103500000D02*
X170017500Y-103882500D01*
X149360000Y-95144900D02*
X150000000Y-95144900D01*
X146175100Y-91960000D02*
X149360000Y-95144900D01*
X145000000Y-91960000D02*
X146175100Y-91960000D01*
X168897400Y-83372500D02*
X169144900Y-83620000D01*
X161370000Y-83372500D02*
X168897400Y-83372500D01*
X170320000Y-83620000D02*
X169144900Y-83620000D01*
X150000000Y-95732400D02*
X150000000Y-95144900D01*
X150000000Y-95732400D02*
X150000000Y-96320000D01*
X149385900Y-100614100D02*
X144500000Y-105500000D01*
X149477700Y-100614100D02*
X149385900Y-100614100D01*
X156466800Y-107603200D02*
X149477700Y-100614100D01*
X149477700Y-98017400D02*
X150000000Y-97495100D01*
X149477700Y-100614100D02*
X149477700Y-98017400D01*
X150000000Y-96320000D02*
X150000000Y-97495100D01*
X157801300Y-84986200D02*
X157775100Y-84960000D01*
X161370000Y-84986200D02*
X157801300Y-84986200D01*
X156250000Y-84960000D02*
X157775100Y-84960000D01*
X176264900Y-89750000D02*
X181194900Y-84820000D01*
X176000000Y-89750000D02*
X176264900Y-89750000D01*
X182320000Y-84820000D02*
X181194900Y-84820000D01*
%TO.N,VCC_3V3*%
X163829200Y-50573400D02*
X163829000Y-50573400D01*
X149408000Y-67310000D02*
X140750000Y-67310000D01*
X149608000Y-67110000D02*
X149408000Y-67310000D01*
X158663000Y-67110000D02*
X149608000Y-67110000D01*
X167944900Y-84960000D02*
X169144900Y-86160000D01*
X163870000Y-84960000D02*
X167944900Y-84960000D01*
X170320000Y-86160000D02*
X169144900Y-86160000D01*
X140750000Y-76835000D02*
X140750000Y-56007000D01*
X140750000Y-56007000D02*
X145957000Y-50800000D01*
X158663000Y-55739600D02*
X163829200Y-50573400D01*
X158663000Y-76578000D02*
X158663000Y-55739600D01*
%TO.N,GND*%
X161370000Y-102700000D02*
X156250000Y-107820000D01*
X161370000Y-81785000D02*
X161370000Y-102700000D01*
%TO.N,VCC*%
X177250000Y-103295000D02*
X182295000Y-98250000D01*
X177250000Y-109250000D02*
X177250000Y-103295000D01*
%TO.N,AUDIO_REF*%
X174465000Y-101000000D02*
X174675000Y-100790000D01*
X170400000Y-101000000D02*
X174465000Y-101000000D01*
%TD*%
M02*
