%TF.GenerationSoftware,KiCad,Pcbnew,7.0.1*%
%TF.CreationDate,2023-07-01T13:19:18-07:00*%
%TF.ProjectId,tn_vdp_v3_board,746e5f76-6470-45f7-9633-5f626f617264,rev?*%
%TF.SameCoordinates,Original*%
%TF.FileFunction,Drillmap*%
%TF.FilePolarity,Positive*%
%FSLAX45Y45*%
G04 Gerber Fmt 4.5, Leading zero omitted, Abs format (unit mm)*
G04 Created by KiCad (PCBNEW 7.0.1) date 2023-07-01 13:19:18*
%MOMM*%
%LPD*%
G01*
G04 APERTURE LIST*
%ADD10C,0.100000*%
%ADD11C,0.200000*%
G04 APERTURE END LIST*
D10*
X18500000Y-4495800D02*
X18500000Y-11277600D01*
X13563600Y-4495800D02*
X18500000Y-4495800D01*
X13563600Y-11277600D02*
X18500000Y-11277600D01*
X13563600Y-11277600D02*
X13563600Y-4495800D01*
D11*
X13806219Y-11595124D02*
X13806219Y-11395124D01*
X13806219Y-11395124D02*
X13853838Y-11395124D01*
X13853838Y-11395124D02*
X13882409Y-11404648D01*
X13882409Y-11404648D02*
X13901457Y-11423695D01*
X13901457Y-11423695D02*
X13910981Y-11442743D01*
X13910981Y-11442743D02*
X13920505Y-11480838D01*
X13920505Y-11480838D02*
X13920505Y-11509409D01*
X13920505Y-11509409D02*
X13910981Y-11547505D01*
X13910981Y-11547505D02*
X13901457Y-11566552D01*
X13901457Y-11566552D02*
X13882409Y-11585600D01*
X13882409Y-11585600D02*
X13853838Y-11595124D01*
X13853838Y-11595124D02*
X13806219Y-11595124D01*
X14006219Y-11595124D02*
X14006219Y-11461790D01*
X14006219Y-11499886D02*
X14015743Y-11480838D01*
X14015743Y-11480838D02*
X14025267Y-11471314D01*
X14025267Y-11471314D02*
X14044314Y-11461790D01*
X14044314Y-11461790D02*
X14063362Y-11461790D01*
X14130028Y-11595124D02*
X14130028Y-11461790D01*
X14130028Y-11395124D02*
X14120505Y-11404648D01*
X14120505Y-11404648D02*
X14130028Y-11414171D01*
X14130028Y-11414171D02*
X14139552Y-11404648D01*
X14139552Y-11404648D02*
X14130028Y-11395124D01*
X14130028Y-11395124D02*
X14130028Y-11414171D01*
X14253838Y-11595124D02*
X14234790Y-11585600D01*
X14234790Y-11585600D02*
X14225267Y-11566552D01*
X14225267Y-11566552D02*
X14225267Y-11395124D01*
X14358600Y-11595124D02*
X14339552Y-11585600D01*
X14339552Y-11585600D02*
X14330028Y-11566552D01*
X14330028Y-11566552D02*
X14330028Y-11395124D01*
X14587171Y-11595124D02*
X14587171Y-11395124D01*
X14587171Y-11395124D02*
X14653838Y-11537981D01*
X14653838Y-11537981D02*
X14720505Y-11395124D01*
X14720505Y-11395124D02*
X14720505Y-11595124D01*
X14901457Y-11595124D02*
X14901457Y-11490362D01*
X14901457Y-11490362D02*
X14891933Y-11471314D01*
X14891933Y-11471314D02*
X14872886Y-11461790D01*
X14872886Y-11461790D02*
X14834790Y-11461790D01*
X14834790Y-11461790D02*
X14815743Y-11471314D01*
X14901457Y-11585600D02*
X14882409Y-11595124D01*
X14882409Y-11595124D02*
X14834790Y-11595124D01*
X14834790Y-11595124D02*
X14815743Y-11585600D01*
X14815743Y-11585600D02*
X14806219Y-11566552D01*
X14806219Y-11566552D02*
X14806219Y-11547505D01*
X14806219Y-11547505D02*
X14815743Y-11528457D01*
X14815743Y-11528457D02*
X14834790Y-11518933D01*
X14834790Y-11518933D02*
X14882409Y-11518933D01*
X14882409Y-11518933D02*
X14901457Y-11509409D01*
X14996695Y-11461790D02*
X14996695Y-11661790D01*
X14996695Y-11471314D02*
X15015743Y-11461790D01*
X15015743Y-11461790D02*
X15053838Y-11461790D01*
X15053838Y-11461790D02*
X15072886Y-11471314D01*
X15072886Y-11471314D02*
X15082409Y-11480838D01*
X15082409Y-11480838D02*
X15091933Y-11499886D01*
X15091933Y-11499886D02*
X15091933Y-11557028D01*
X15091933Y-11557028D02*
X15082409Y-11576076D01*
X15082409Y-11576076D02*
X15072886Y-11585600D01*
X15072886Y-11585600D02*
X15053838Y-11595124D01*
X15053838Y-11595124D02*
X15015743Y-11595124D01*
X15015743Y-11595124D02*
X14996695Y-11585600D01*
X15177648Y-11576076D02*
X15187171Y-11585600D01*
X15187171Y-11585600D02*
X15177648Y-11595124D01*
X15177648Y-11595124D02*
X15168124Y-11585600D01*
X15168124Y-11585600D02*
X15177648Y-11576076D01*
X15177648Y-11576076D02*
X15177648Y-11595124D01*
X15177648Y-11471314D02*
X15187171Y-11480838D01*
X15187171Y-11480838D02*
X15177648Y-11490362D01*
X15177648Y-11490362D02*
X15168124Y-11480838D01*
X15168124Y-11480838D02*
X15177648Y-11471314D01*
X15177648Y-11471314D02*
X15177648Y-11490362D01*
M02*
