M48
; DRILL file {KiCad 7.0.1} date Thu Jul 20 10:40:32 2023
; FORMAT={-:-/ absolute / inch / decimal}
; #@! TF.CreationDate,2023-07-20T10:40:32-07:00
; #@! TF.GenerationSoftware,Kicad,Pcbnew,7.0.1
; #@! TF.FileFunction,Plated,1,2,PTH
FMAT,2
INCH
; #@! TA.AperFunction,Plated,PTH,ViaDrill
T1C0.0157
; #@! TA.AperFunction,Plated,PTH,ComponentDrill
T2C0.0315
; #@! TA.AperFunction,Plated,PTH,ComponentDrill
T3C0.0354
; #@! TA.AperFunction,Plated,PTH,ComponentDrill
T4C0.0394
; #@! TA.AperFunction,Plated,PTH,ComponentDrill
T5C0.0906
; #@! TA.AperFunction,Plated,PTH,ComponentDrill
T6C0.0984
; #@! TA.AperFunction,Plated,PTH,ComponentDrill
T7C0.1181
%
G90
G05
T1
X5.9854Y-2.6931
X6.2752Y-2.2737
X6.2825Y-2.1116
X6.2939Y-2.4355
X6.311Y-2.9717
X6.3304Y-2.3133
X6.3596Y-2.8948
X6.3715Y-2.6247
X6.3787Y-2.0219
X6.3828Y-3.9732
X6.3965Y-3.156
X6.4975Y-3.8949
X6.5039Y-2.2463
X6.51Y-1.9172
X6.7813Y-3.7406
X6.7962Y-1.8925
X6.9577Y-2.698
X7.2292Y-2.5293
T2
X5.4429Y-3.025
X5.4463Y-2.0
X5.4463Y-2.1
X5.4463Y-2.2
X5.4463Y-2.3
X5.4463Y-2.4
X5.4463Y-2.5
X5.4463Y-2.6
X5.4463Y-2.7
X5.4463Y-2.8
X5.4463Y-2.9
X5.5413Y-3.025
X5.7463Y-2.0
X5.7463Y-2.1
X5.7463Y-2.2
X5.7463Y-2.3
X5.7463Y-2.4
X5.7463Y-2.5
X5.7463Y-2.6
X5.7463Y-2.7
X5.7463Y-2.8
X5.7463Y-2.9
X6.1481Y-3.0149
X6.15Y-1.9911
X6.15Y-2.0911
X6.15Y-2.1911
X6.15Y-2.2911
X6.15Y-2.3911
X6.15Y-2.4911
X6.15Y-2.5911
X6.15Y-2.6911
X6.15Y-2.7911
X6.15Y-2.8911
X6.1516Y-3.3449
X6.1516Y-3.4449
X6.1516Y-3.5449
X6.1516Y-3.6449
X6.1516Y-3.7449
X6.1516Y-3.8449
X6.1516Y-3.9449
X6.1516Y-4.0449
X6.1516Y-4.1449
X6.1516Y-4.2449
X6.2466Y-3.0149
X6.3531Y-3.2199
X6.45Y-1.9911
X6.45Y-2.0911
X6.45Y-2.1911
X6.45Y-2.2911
X6.45Y-2.3911
X6.45Y-2.4911
X6.45Y-2.5911
X6.45Y-2.6911
X6.45Y-2.7911
X6.45Y-2.8911
X6.4516Y-3.2199
X6.4516Y-3.3449
X6.4516Y-3.4449
X6.4516Y-3.5449
X6.4516Y-3.6449
X6.4516Y-3.7449
X6.4516Y-3.8449
X6.4516Y-3.9449
X6.4516Y-4.0449
X6.4516Y-4.1449
X6.4516Y-4.2449
X6.6455Y-4.2717
X6.7087Y-3.9764
X6.7087Y-4.0748
X6.7439Y-4.2717
X6.877Y-3.8681
X6.877Y-3.9681
X6.877Y-4.0681
X6.877Y-4.1681
X6.878Y-3.0394
X6.878Y-3.1394
X6.878Y-3.2394
X6.878Y-3.3394
X6.8799Y-4.3012
X6.9783Y-4.3012
X7.177Y-3.8681
X7.177Y-3.9681
X7.177Y-4.0681
X7.177Y-4.1681
X7.178Y-3.0394
X7.178Y-3.1394
X7.178Y-3.2394
X7.178Y-3.3394
T3
X6.9291Y-3.5335
X6.9291Y-3.7303
X7.126Y-3.6319
T4
X5.7087Y-3.6205
X5.7087Y-3.7205
X5.9055Y-1.8921
X5.9055Y-1.9921
X5.9055Y-2.0921
X5.9055Y-2.1921
X5.9055Y-2.2921
X5.9055Y-2.3921
X5.9055Y-2.4921
X5.9055Y-2.5921
X5.9055Y-2.6921
X5.9055Y-2.7921
X5.9055Y-2.8921
X5.9055Y-2.9921
X5.9055Y-3.0921
X5.9055Y-3.1921
X5.9055Y-3.2921
X5.9055Y-3.3921
X5.9055Y-3.4921
X5.9055Y-3.5921
X5.9055Y-3.6921
X5.9055Y-3.7921
X6.7055Y-1.8921
X6.7055Y-1.9921
X6.7055Y-2.0921
X6.7055Y-2.1921
X6.7055Y-2.2921
X6.7055Y-2.3921
X6.7055Y-2.4921
X6.7055Y-2.5921
X6.7055Y-2.6921
X6.7055Y-2.7921
X6.7055Y-2.8921
X6.7055Y-2.9921
X6.7055Y-3.0921
X6.7055Y-3.1921
X6.7055Y-3.2921
X6.7055Y-3.3921
X6.7055Y-3.4921
X6.7055Y-3.5921
X6.7055Y-3.6921
X6.7055Y-3.7921
X7.0565Y-1.9031
X7.0565Y-2.0031
X7.0565Y-2.1031
X7.0565Y-2.2031
X7.0565Y-2.3031
X7.0565Y-2.4031
X7.0565Y-2.5031
X7.0565Y-2.6031
X7.0565Y-2.7031
X7.0565Y-2.8031
X7.1565Y-1.9031
X7.1565Y-2.0031
X7.1565Y-2.1031
X7.1565Y-2.2031
X7.1565Y-2.3031
X7.1565Y-2.4031
X7.1565Y-2.5031
X7.1565Y-2.6031
X7.1565Y-2.7031
X7.1565Y-2.8031
T5
X5.689Y-4.1535
T6
X5.7283Y-3.9764
X5.7283Y-4.3307
T7
X5.4528Y-4.1535
T0
M30
