%TF.GenerationSoftware,KiCad,Pcbnew,7.0.1*%
%TF.CreationDate,2023-07-01T13:19:20-07:00*%
%TF.ProjectId,tn_vdp_v3_board,746e5f76-6470-45f7-9633-5f626f617264,rev?*%
%TF.SameCoordinates,Original*%
%TF.FileFunction,Copper,L1,Top*%
%TF.FilePolarity,Positive*%
%FSLAX46Y46*%
G04 Gerber Fmt 4.6, Leading zero omitted, Abs format (unit mm)*
G04 Created by KiCad (PCBNEW 7.0.1) date 2023-07-01 13:19:20*
%MOMM*%
%LPD*%
G01*
G04 APERTURE LIST*
%TA.AperFunction,ComponentPad*%
%ADD10R,2.400000X1.600000*%
%TD*%
%TA.AperFunction,ComponentPad*%
%ADD11O,2.400000X1.600000*%
%TD*%
%TA.AperFunction,ComponentPad*%
%ADD12R,1.700000X1.700000*%
%TD*%
%TA.AperFunction,ComponentPad*%
%ADD13O,1.700000X1.700000*%
%TD*%
%TA.AperFunction,ComponentPad*%
%ADD14C,1.600000*%
%TD*%
%TA.AperFunction,ComponentPad*%
%ADD15C,3.500000*%
%TD*%
%TA.AperFunction,ComponentPad*%
%ADD16C,1.620000*%
%TD*%
%TA.AperFunction,ComponentPad*%
%ADD17R,1.600000X1.600000*%
%TD*%
%TA.AperFunction,ComponentPad*%
%ADD18O,1.600000X1.600000*%
%TD*%
%TA.AperFunction,ViaPad*%
%ADD19C,0.800000*%
%TD*%
%TA.AperFunction,Conductor*%
%ADD20C,0.250000*%
%TD*%
G04 APERTURE END LIST*
D10*
%TO.P,U3,1,DIR*%
%TO.N,VCC*%
X138337000Y-50800000D03*
D11*
%TO.P,U3,2,A0*%
%TO.N,~{RESET}*%
X138337000Y-53340000D03*
%TO.P,U3,3,A1*%
%TO.N,~{INT_3V3}*%
X138337000Y-55880000D03*
%TO.P,U3,4,A2*%
%TO.N,~{CSW}*%
X138337000Y-58420000D03*
%TO.P,U3,5,A3*%
%TO.N,~{CSR}*%
X138337000Y-60960000D03*
%TO.P,U3,6,A4*%
%TO.N,MODE*%
X138337000Y-63500000D03*
%TO.P,U3,7,A5*%
%TO.N,CPUCLK_3V3*%
X138337000Y-66040000D03*
%TO.P,U3,8,A6*%
%TO.N,GROMCLK_3V3*%
X138337000Y-68580000D03*
%TO.P,U3,9,A7*%
%TO.N,MODE1*%
X138337000Y-71120000D03*
%TO.P,U3,10,GND*%
%TO.N,GND*%
X138337000Y-73660000D03*
%TO.P,U3,11,B7*%
%TO.N,MODE1_3V3*%
X145957000Y-73660000D03*
%TO.P,U3,12,B6*%
%TO.N,GROMCLK*%
X145957000Y-71120000D03*
%TO.P,U3,13,B5*%
%TO.N,CPUCLK*%
X145957000Y-68580000D03*
%TO.P,U3,14,B4*%
%TO.N,MODE_3V3*%
X145957000Y-66040000D03*
%TO.P,U3,15,B3*%
%TO.N,~{CSR_3V3}*%
X145957000Y-63500000D03*
%TO.P,U3,16,B2*%
%TO.N,~{CSW_3V3}*%
X145957000Y-60960000D03*
%TO.P,U3,17,B1*%
%TO.N,~{INT}*%
X145957000Y-58420000D03*
%TO.P,U3,18,B0*%
%TO.N,~{RESET_3V3}*%
X145957000Y-55880000D03*
%TO.P,U3,19,~{0E}*%
%TO.N,GND*%
X145957000Y-53340000D03*
%TO.P,U3,20,VCC*%
%TO.N,VCC_3V3*%
X145957000Y-50800000D03*
%TD*%
D12*
%TO.P,J2,1,Pin_1*%
%TO.N,GND*%
X181000000Y-73660000D03*
D13*
%TO.P,J2,2,Pin_2*%
%TO.N,VCC*%
X178460000Y-73660000D03*
%TO.P,J2,3,Pin_3*%
%TO.N,GND*%
X181000000Y-71120000D03*
%TO.P,J2,4,Pin_4*%
%TO.N,CPUCLK*%
X178460000Y-71120000D03*
%TO.P,J2,5,Pin_5*%
%TO.N,CD0*%
X181000000Y-68580000D03*
%TO.P,J2,6,Pin_6*%
%TO.N,GROMCLK*%
X178460000Y-68580000D03*
%TO.P,J2,7,Pin_7*%
%TO.N,CD1*%
X181000000Y-66040000D03*
%TO.P,J2,8,Pin_8*%
%TO.N,AUDIO*%
X178460000Y-66040000D03*
%TO.P,J2,9,Pin_9*%
%TO.N,CD2*%
X181000000Y-63500000D03*
%TO.P,J2,10,Pin_10*%
%TO.N,MODE1*%
X178460000Y-63500000D03*
%TO.P,J2,11,Pin_11*%
%TO.N,CD3*%
X181000000Y-60960000D03*
%TO.P,J2,12,Pin_12*%
%TO.N,~{RESET}*%
X178460000Y-60960000D03*
%TO.P,J2,13,Pin_13*%
%TO.N,CD4*%
X181000000Y-58420000D03*
%TO.P,J2,14,Pin_14*%
%TO.N,MODE*%
X178460000Y-58420000D03*
%TO.P,J2,15,Pin_15*%
%TO.N,CD5*%
X181000000Y-55880000D03*
%TO.P,J2,16,Pin_16*%
%TO.N,~{CSW}*%
X178460000Y-55880000D03*
%TO.P,J2,17,Pin_17*%
%TO.N,CD6*%
X181000000Y-53340000D03*
%TO.P,J2,18,Pin_18*%
%TO.N,~{CSR}*%
X178460000Y-53340000D03*
%TO.P,J2,19,Pin_19*%
%TO.N,CD7*%
X181000000Y-50800000D03*
%TO.P,J2,20,Pin_20*%
%TO.N,~{INT}*%
X178460000Y-50800000D03*
%TD*%
D12*
%TO.P,J3,1,Pin_1*%
%TO.N,unconnected-(J3-Pin_1-Pad1)*%
X150000000Y-50000000D03*
D13*
%TO.P,J3,2,Pin_2*%
%TO.N,unconnected-(J3-Pin_2-Pad2)*%
X150000000Y-52540000D03*
%TO.P,J3,3,Pin_3*%
%TO.N,unconnected-(J3-Pin_3-Pad3)*%
X150000000Y-55080000D03*
%TO.P,J3,4,Pin_4*%
%TO.N,unconnected-(J3-Pin_4-Pad4)*%
X150000000Y-57620000D03*
%TO.P,J3,5,Pin_5*%
%TO.N,unconnected-(J3-Pin_5-Pad5)*%
X150000000Y-60160000D03*
%TO.P,J3,6,Pin_6*%
%TO.N,unconnected-(J3-Pin_6-Pad6)*%
X150000000Y-62700000D03*
%TO.P,J3,7,Pin_7*%
%TO.N,unconnected-(J3-Pin_7-Pad7)*%
X150000000Y-65240000D03*
%TO.P,J3,8,Pin_8*%
%TO.N,MODE_3V3*%
X150000000Y-67780000D03*
%TO.P,J3,9,Pin_9*%
%TO.N,~{CSW_3V3}*%
X150000000Y-70320000D03*
%TO.P,J3,10,Pin_10*%
%TO.N,~{CSR_3V3}*%
X150000000Y-72860000D03*
%TO.P,J3,11,Pin_11*%
%TO.N,~{INT_3V3}*%
X150000000Y-75400000D03*
%TO.P,J3,12,Pin_12*%
%TO.N,CPUCLK_3V3*%
X150000000Y-77940000D03*
%TO.P,J3,13,Pin_13*%
%TO.N,GROMCLK_3V3*%
X150000000Y-80480000D03*
%TO.P,J3,14,Pin_14*%
%TO.N,~{RESET_3V3}*%
X150000000Y-83020000D03*
%TO.P,J3,15,Pin_15*%
%TO.N,USR1_1V8*%
X150000000Y-85560000D03*
%TO.P,J3,16,Pin_16*%
%TO.N,USR2_1V8*%
X150000000Y-88100000D03*
%TO.P,J3,17,Pin_17*%
%TO.N,USR3_1V8*%
X150000000Y-90640000D03*
%TO.P,J3,18,Pin_18*%
%TO.N,USR4_1V8*%
X150000000Y-93180000D03*
%TO.P,J3,19,Pin_19*%
%TO.N,VCC_3V3*%
X150000000Y-95720000D03*
%TO.P,J3,20,Pin_20*%
%TO.N,GND*%
X150000000Y-98260000D03*
%TD*%
D14*
%TO.P,C2,1*%
%TO.N,VCC_3V3*%
X158663000Y-76578000D03*
%TO.P,C2,2*%
%TO.N,GND*%
X156163000Y-76578000D03*
%TD*%
D15*
%TO.P,H1,1*%
%TO.N,N/C*%
X137668000Y-46990000D03*
%TD*%
D14*
%TO.P,C4,1*%
%TO.N,VREF*%
X177250000Y-109250000D03*
%TO.P,C4,2*%
%TO.N,GND*%
X174750000Y-109250000D03*
%TD*%
D12*
%TO.P,J6,1,Pin_1*%
%TO.N,VCC*%
X170320000Y-50000000D03*
D13*
%TO.P,J6,2,Pin_2*%
%TO.N,GND*%
X170320000Y-52540000D03*
%TO.P,J6,3,Pin_3*%
%TO.N,unconnected-(J6-Pin_3-Pad3)*%
X170320000Y-55080000D03*
%TO.P,J6,4,Pin_4*%
%TO.N,unconnected-(J6-Pin_4-Pad4)*%
X170320000Y-57620000D03*
%TO.P,J6,5,Pin_5*%
%TO.N,CD0_3V3*%
X170320000Y-60160000D03*
%TO.P,J6,6,Pin_6*%
%TO.N,CD1_3V3*%
X170320000Y-62700000D03*
%TO.P,J6,7,Pin_7*%
%TO.N,CD2_3V3*%
X170320000Y-65240000D03*
%TO.P,J6,8,Pin_8*%
%TO.N,CD3_3V3*%
X170320000Y-67780000D03*
%TO.P,J6,9,Pin_9*%
%TO.N,CD4_3V3*%
X170320000Y-70320000D03*
%TO.P,J6,10,Pin_10*%
%TO.N,CD5_3V3*%
X170320000Y-72860000D03*
%TO.P,J6,11,Pin_11*%
%TO.N,CD6_3V3*%
X170320000Y-75400000D03*
%TO.P,J6,12,Pin_12*%
%TO.N,CD7_3V3*%
X170320000Y-77940000D03*
%TO.P,J6,13,Pin_13*%
%TO.N,MODE1_3V3*%
X170320000Y-80480000D03*
%TO.P,J6,14,Pin_14*%
%TO.N,unconnected-(J6-Pin_14-Pad14)*%
X170320000Y-83020000D03*
%TO.P,J6,15,Pin_15*%
%TO.N,GND*%
X170320000Y-85560000D03*
%TO.P,J6,16,Pin_16*%
%TO.N,VCC_3V3*%
X170320000Y-88100000D03*
%TO.P,J6,17,Pin_17*%
%TO.N,ADC_CLK*%
X170320000Y-90640000D03*
%TO.P,J6,18,Pin_18*%
%TO.N,ADC_CS*%
X170320000Y-93180000D03*
%TO.P,J6,19,Pin_19*%
%TO.N,ADC_MISO*%
X170320000Y-95720000D03*
%TO.P,J6,20,Pin_20*%
%TO.N,ADC_MOSI*%
X170320000Y-98260000D03*
%TD*%
D14*
%TO.P,C1,1*%
%TO.N,VCC_3V3*%
X140750000Y-76835000D03*
%TO.P,C1,2*%
%TO.N,GND*%
X138250000Y-76835000D03*
%TD*%
D10*
%TO.P,U4,1,~{CS}/SHDN*%
%TO.N,ADC_CS*%
X174675000Y-98250000D03*
D11*
%TO.P,U4,2,CH0*%
%TO.N,AUDIO*%
X174675000Y-100790000D03*
%TO.P,U4,3,CH1*%
X174675000Y-103330000D03*
%TO.P,U4,4,VSS*%
%TO.N,GND*%
X174675000Y-105870000D03*
%TO.P,U4,5,DIN*%
%TO.N,ADC_MOSI*%
X182295000Y-105870000D03*
%TO.P,U4,6,DOUT*%
%TO.N,ADC_MISO*%
X182295000Y-103330000D03*
%TO.P,U4,7,CLK*%
%TO.N,ADC_CLK*%
X182295000Y-100790000D03*
%TO.P,U4,8,VDD/VREF*%
%TO.N,VREF*%
X182295000Y-98250000D03*
%TD*%
D14*
%TO.P,C3,1*%
%TO.N,VCC_3V3*%
X163870000Y-81785000D03*
%TO.P,C3,2*%
%TO.N,GND*%
X161370000Y-81785000D03*
%TD*%
D16*
%TO.P,RV1,1,1*%
%TO.N,VCC*%
X176000000Y-94750000D03*
%TO.P,RV1,2,2*%
%TO.N,VREF*%
X181000000Y-92250000D03*
%TO.P,RV1,3,3*%
%TO.N,GND*%
X176000000Y-89750000D03*
%TD*%
D15*
%TO.P,H3,1*%
%TO.N,N/C*%
X137668000Y-110744000D03*
%TD*%
%TO.P,H4,1*%
%TO.N,N/C*%
X183000000Y-110744000D03*
%TD*%
D17*
%TO.P,J4,1,Pin_1*%
%TO.N,USR1_1V8*%
X174675000Y-78450000D03*
D18*
%TO.P,J4,2,Pin_2*%
%TO.N,USR2_1V8*%
X174675000Y-80990000D03*
%TO.P,J4,3,Pin_3*%
%TO.N,USR3_1V8*%
X174675000Y-83530000D03*
%TO.P,J4,4,Pin_4*%
%TO.N,USR4_1V8*%
X174675000Y-86070000D03*
%TO.P,J4,5,Pin_5*%
%TO.N,GND*%
X182295000Y-86070000D03*
%TO.P,J4,6,Pin_6*%
X182295000Y-83530000D03*
%TO.P,J4,7,Pin_7*%
X182295000Y-80990000D03*
%TO.P,J4,8,Pin_8*%
X182295000Y-78450000D03*
%TD*%
D10*
%TO.P,U2,1,DIR*%
%TO.N,VCC*%
X156209200Y-50573400D03*
D11*
%TO.P,U2,2,A0*%
%TO.N,CD0*%
X156209200Y-53113400D03*
%TO.P,U2,3,A1*%
%TO.N,CD1*%
X156209200Y-55653400D03*
%TO.P,U2,4,A2*%
%TO.N,CD2*%
X156209200Y-58193400D03*
%TO.P,U2,5,A3*%
%TO.N,CD3*%
X156209200Y-60733400D03*
%TO.P,U2,6,A4*%
%TO.N,CD4*%
X156209200Y-63273400D03*
%TO.P,U2,7,A5*%
%TO.N,CD5*%
X156209200Y-65813400D03*
%TO.P,U2,8,A6*%
%TO.N,CD6*%
X156209200Y-68353400D03*
%TO.P,U2,9,A7*%
%TO.N,CD7*%
X156209200Y-70893400D03*
%TO.P,U2,10,GND*%
%TO.N,GND*%
X156209200Y-73433400D03*
%TO.P,U2,11,B7*%
%TO.N,CD7_3V3*%
X163829200Y-73433400D03*
%TO.P,U2,12,B6*%
%TO.N,CD6_3V3*%
X163829200Y-70893400D03*
%TO.P,U2,13,B5*%
%TO.N,CD5_3V3*%
X163829200Y-68353400D03*
%TO.P,U2,14,B4*%
%TO.N,CD4_3V3*%
X163829200Y-65813400D03*
%TO.P,U2,15,B3*%
%TO.N,CD3_3V3*%
X163829200Y-63273400D03*
%TO.P,U2,16,B2*%
%TO.N,CD2_3V3*%
X163829200Y-60733400D03*
%TO.P,U2,17,B1*%
%TO.N,CD1_3V3*%
X163829200Y-58193400D03*
%TO.P,U2,18,B0*%
%TO.N,CD0_3V3*%
X163829200Y-55653400D03*
%TO.P,U2,19,~{0E}*%
%TO.N,~{CSW}*%
X163829200Y-53113400D03*
%TO.P,U2,20,VCC*%
%TO.N,VCC_3V3*%
X163829200Y-50573400D03*
%TD*%
D15*
%TO.P,H2,1*%
%TO.N,N/C*%
X183000000Y-46990000D03*
%TD*%
D10*
%TO.P,U1,1,DIR*%
%TO.N,GND*%
X156250000Y-84960000D03*
D11*
%TO.P,U1,2,A0*%
%TO.N,CD0*%
X156250000Y-87500000D03*
%TO.P,U1,3,A1*%
%TO.N,CD1*%
X156250000Y-90040000D03*
%TO.P,U1,4,A2*%
%TO.N,CD2*%
X156250000Y-92580000D03*
%TO.P,U1,5,A3*%
%TO.N,CD3*%
X156250000Y-95120000D03*
%TO.P,U1,6,A4*%
%TO.N,CD4*%
X156250000Y-97660000D03*
%TO.P,U1,7,A5*%
%TO.N,CD5*%
X156250000Y-100200000D03*
%TO.P,U1,8,A6*%
%TO.N,CD6*%
X156250000Y-102740000D03*
%TO.P,U1,9,A7*%
%TO.N,CD7*%
X156250000Y-105280000D03*
%TO.P,U1,10,GND*%
%TO.N,GND*%
X156250000Y-107820000D03*
%TO.P,U1,11,B7*%
%TO.N,CD7_3V3*%
X163870000Y-107820000D03*
%TO.P,U1,12,B6*%
%TO.N,CD6_3V3*%
X163870000Y-105280000D03*
%TO.P,U1,13,B5*%
%TO.N,CD5_3V3*%
X163870000Y-102740000D03*
%TO.P,U1,14,B4*%
%TO.N,CD4_3V3*%
X163870000Y-100200000D03*
%TO.P,U1,15,B3*%
%TO.N,CD3_3V3*%
X163870000Y-97660000D03*
%TO.P,U1,16,B2*%
%TO.N,CD2_3V3*%
X163870000Y-95120000D03*
%TO.P,U1,17,B1*%
%TO.N,CD1_3V3*%
X163870000Y-92580000D03*
%TO.P,U1,18,B0*%
%TO.N,CD0_3V3*%
X163870000Y-90040000D03*
%TO.P,U1,19,~{0E}*%
%TO.N,~{CSR}*%
X163870000Y-87500000D03*
%TO.P,U1,20,VCC*%
%TO.N,VCC_3V3*%
X163870000Y-84960000D03*
%TD*%
D12*
%TO.P,J1,1,Pin_1*%
%TO.N,GND*%
X139460000Y-83540000D03*
D13*
%TO.P,J1,2,Pin_2*%
%TO.N,VCC*%
X142000000Y-83540000D03*
%TO.P,J1,3,Pin_3*%
%TO.N,GND*%
X139460000Y-86080000D03*
%TO.P,J1,4,Pin_4*%
%TO.N,CPUCLK*%
X142000000Y-86080000D03*
%TO.P,J1,5,Pin_5*%
%TO.N,CD0*%
X139460000Y-88620000D03*
%TO.P,J1,6,Pin_6*%
%TO.N,GROMCLK*%
X142000000Y-88620000D03*
%TO.P,J1,7,Pin_7*%
%TO.N,CD1*%
X139460000Y-91160000D03*
%TO.P,J1,8,Pin_8*%
%TO.N,AUDIO*%
X142000000Y-91160000D03*
%TO.P,J1,9,Pin_9*%
%TO.N,CD2*%
X139460000Y-93700000D03*
%TO.P,J1,10,Pin_10*%
%TO.N,MODE1*%
X142000000Y-93700000D03*
%TO.P,J1,11,Pin_11*%
%TO.N,CD3*%
X139460000Y-96240000D03*
%TO.P,J1,12,Pin_12*%
%TO.N,~{RESET}*%
X142000000Y-96240000D03*
%TO.P,J1,13,Pin_13*%
%TO.N,CD4*%
X139460000Y-98780000D03*
%TO.P,J1,14,Pin_14*%
%TO.N,MODE*%
X142000000Y-98780000D03*
%TO.P,J1,15,Pin_15*%
%TO.N,CD5*%
X139460000Y-101320000D03*
%TO.P,J1,16,Pin_16*%
%TO.N,~{CSW}*%
X142000000Y-101320000D03*
%TO.P,J1,17,Pin_17*%
%TO.N,CD6*%
X139460000Y-103860000D03*
%TO.P,J1,18,Pin_18*%
%TO.N,~{CSR}*%
X142000000Y-103860000D03*
%TO.P,J1,19,Pin_19*%
%TO.N,CD7*%
X139460000Y-106400000D03*
%TO.P,J1,20,Pin_20*%
%TO.N,~{INT}*%
X142000000Y-106400000D03*
%TD*%
D19*
%TO.N,CD0*%
X173070400Y-54580800D03*
X148524600Y-86906800D03*
%TO.N,CD1*%
X152023500Y-90121800D03*
X151923900Y-79491900D03*
%TO.N,CD3*%
X159389500Y-60925600D03*
%TO.N,CD5*%
X159886600Y-59509700D03*
%TO.N,~{INT}*%
X159739200Y-52990700D03*
X172195300Y-46754400D03*
%TO.N,~{CSW}*%
X145765500Y-75770500D03*
X143959200Y-60632100D03*
X143959200Y-58122500D03*
%TO.N,MODE*%
X179730000Y-54137500D03*
%TO.N,CPUCLK_3V3*%
X142765900Y-77800400D03*
%TO.N,MODE1_3V3*%
X159942700Y-79883200D03*
X157500900Y-75696700D03*
%TO.N,MODE1*%
X141951800Y-78847400D03*
%TO.N,USR4_1V8*%
X169560100Y-104785000D03*
X153408600Y-105834700D03*
%TO.N,USR2_1V8*%
X152698700Y-108270400D03*
X150918500Y-106632500D03*
%TO.N,VCC_3V3*%
X160028600Y-92092600D03*
%TD*%
D20*
%TO.N,VREF*%
X180769900Y-92480100D02*
X181000000Y-92250000D01*
X180769900Y-98250000D02*
X180769900Y-92480100D01*
X182295000Y-98250000D02*
X180769900Y-98250000D01*
%TO.N,CPUCLK*%
X143941100Y-69070800D02*
X144431900Y-68580000D01*
X143941100Y-83331000D02*
X143941100Y-69070800D01*
X142367200Y-84904900D02*
X143941100Y-83331000D01*
X142000000Y-84904900D02*
X142367200Y-84904900D01*
X142000000Y-86080000D02*
X142000000Y-84904900D01*
X145957000Y-68580000D02*
X144431900Y-68580000D01*
%TO.N,GROMCLK*%
X142365200Y-87444900D02*
X142000000Y-87444900D01*
X144431900Y-85378200D02*
X142365200Y-87444900D01*
X144431900Y-71120000D02*
X144431900Y-85378200D01*
X145957000Y-71120000D02*
X144431900Y-71120000D01*
X142000000Y-88620000D02*
X142000000Y-87444900D01*
%TO.N,~{RESET}*%
X142000000Y-96240000D02*
X142000000Y-95064900D01*
X138337000Y-53340000D02*
X136811900Y-53340000D01*
X142367200Y-95064900D02*
X142000000Y-95064900D01*
X143218600Y-94213500D02*
X142367200Y-95064900D01*
X143218600Y-90684000D02*
X143218600Y-94213500D01*
X142355800Y-89821200D02*
X143218600Y-90684000D01*
X141493100Y-89821200D02*
X142355800Y-89821200D01*
X140796100Y-89124200D02*
X141493100Y-89821200D01*
X140796100Y-81028600D02*
X140796100Y-89124200D01*
X143491000Y-78333700D02*
X140796100Y-81028600D01*
X143491000Y-66600600D02*
X143491000Y-78333700D01*
X139120400Y-62230000D02*
X143491000Y-66600600D01*
X137613100Y-62230000D02*
X139120400Y-62230000D01*
X136811900Y-61428800D02*
X137613100Y-62230000D01*
X136811900Y-53340000D02*
X136811900Y-61428800D01*
%TO.N,CD0*%
X180634700Y-67404900D02*
X181000000Y-67404900D01*
X179635200Y-66405400D02*
X180634700Y-67404900D01*
X179635200Y-65490800D02*
X179635200Y-66405400D01*
X178956400Y-64812000D02*
X179635200Y-65490800D01*
X178107500Y-64812000D02*
X178956400Y-64812000D01*
X173070400Y-59774900D02*
X178107500Y-64812000D01*
X173070400Y-54580800D02*
X173070400Y-59774900D01*
X181000000Y-68580000D02*
X181000000Y-67404900D01*
X156209200Y-53113400D02*
X154684100Y-53113400D01*
X148524600Y-85351600D02*
X148524600Y-86906800D01*
X149491400Y-84384800D02*
X148524600Y-85351600D01*
X150312000Y-84384800D02*
X149491400Y-84384800D01*
X151175100Y-83521700D02*
X150312000Y-84384800D01*
X151175100Y-61278700D02*
X151175100Y-83521700D01*
X153842800Y-58611000D02*
X151175100Y-61278700D01*
X153842800Y-53954700D02*
X153842800Y-58611000D01*
X154684100Y-53113400D02*
X153842800Y-53954700D01*
%TO.N,CD1*%
X156209200Y-55653400D02*
X157734300Y-55653400D01*
X151923900Y-90022200D02*
X151923900Y-79491900D01*
X152023500Y-90121800D02*
X151923900Y-90022200D01*
X151923900Y-62973700D02*
X151923900Y-79491900D01*
X155434200Y-59463400D02*
X151923900Y-62973700D01*
X156930800Y-59463400D02*
X155434200Y-59463400D01*
X157734300Y-58659900D02*
X156930800Y-59463400D01*
X157734300Y-55653400D02*
X157734300Y-58659900D01*
%TO.N,CD2*%
X156209200Y-58193400D02*
X154684100Y-58193400D01*
X155387200Y-54483800D02*
X160615700Y-54483800D01*
X154684100Y-55186900D02*
X155387200Y-54483800D01*
X154684100Y-58193400D02*
X154684100Y-55186900D01*
X160615700Y-63499900D02*
X160615700Y-54483800D01*
X156958300Y-67157300D02*
X160615700Y-63499900D01*
X155319900Y-67157300D02*
X156958300Y-67157300D01*
X153746400Y-68730800D02*
X155319900Y-67157300D01*
X153746400Y-78228900D02*
X153746400Y-68730800D01*
X154181300Y-78663800D02*
X153746400Y-78228900D01*
X154181300Y-90511300D02*
X154181300Y-78663800D01*
X156250000Y-92580000D02*
X154181300Y-90511300D01*
X181000000Y-63500000D02*
X181000000Y-62324900D01*
X181365200Y-62324900D02*
X181000000Y-62324900D01*
X182698500Y-60991600D02*
X181365200Y-62324900D01*
X182698500Y-50130700D02*
X182698500Y-60991600D01*
X180047300Y-47479500D02*
X182698500Y-50130700D01*
X171895000Y-47479500D02*
X180047300Y-47479500D01*
X171882300Y-47466800D02*
X171895000Y-47479500D01*
X168624200Y-47466800D02*
X171882300Y-47466800D01*
X165683000Y-50408000D02*
X168624200Y-47466800D01*
X165683000Y-50764900D02*
X165683000Y-50408000D01*
X164522700Y-51925200D02*
X165683000Y-50764900D01*
X162995900Y-51925200D02*
X164522700Y-51925200D01*
X160615700Y-54305400D02*
X162995900Y-51925200D01*
X160615700Y-54483800D02*
X160615700Y-54305400D01*
%TO.N,CD3*%
X156209200Y-60733400D02*
X157734300Y-60733400D01*
X156250000Y-95120000D02*
X154724900Y-95120000D01*
X159389500Y-60925600D02*
X157926500Y-60925600D01*
X157926500Y-60925600D02*
X157734300Y-60733400D01*
X153224800Y-93619900D02*
X154724900Y-95120000D01*
X153224800Y-78980500D02*
X153224800Y-93619900D01*
X152846200Y-78601900D02*
X153224800Y-78980500D01*
X152846200Y-67173900D02*
X152846200Y-78601900D01*
X155621500Y-64398600D02*
X152846200Y-67173900D01*
X157114400Y-64398600D02*
X155621500Y-64398600D01*
X157926500Y-63586500D02*
X157114400Y-64398600D01*
X157926500Y-60925600D02*
X157926500Y-63586500D01*
%TO.N,CD4*%
X180634700Y-59595100D02*
X181000000Y-59595100D01*
X179730000Y-60499800D02*
X180634700Y-59595100D01*
X179730000Y-63979400D02*
X179730000Y-60499800D01*
X180502800Y-64752200D02*
X179730000Y-63979400D01*
X181374500Y-64752200D02*
X180502800Y-64752200D01*
X183864300Y-67242000D02*
X181374500Y-64752200D01*
X183864300Y-106292000D02*
X183864300Y-67242000D01*
X179761700Y-110394600D02*
X183864300Y-106292000D01*
X141705000Y-110394600D02*
X179761700Y-110394600D01*
X138278000Y-106967600D02*
X141705000Y-110394600D01*
X138278000Y-100769900D02*
X138278000Y-106967600D01*
X139092800Y-99955100D02*
X138278000Y-100769900D01*
X139460000Y-99955100D02*
X139092800Y-99955100D01*
X139460000Y-98780000D02*
X139460000Y-99955100D01*
X181000000Y-58420000D02*
X181000000Y-59595100D01*
X156250000Y-97660000D02*
X154724900Y-97660000D01*
X156209200Y-63273400D02*
X154684100Y-63273400D01*
X152773900Y-95709000D02*
X154724900Y-97660000D01*
X152773900Y-79166200D02*
X152773900Y-95709000D01*
X152396100Y-78788400D02*
X152773900Y-79166200D01*
X152396100Y-65561400D02*
X152396100Y-78788400D01*
X154684100Y-63273400D02*
X152396100Y-65561400D01*
%TO.N,CD5*%
X156250000Y-100200000D02*
X157775100Y-100200000D01*
X160116000Y-59739100D02*
X159886600Y-59509700D01*
X160116000Y-62097200D02*
X160116000Y-59739100D01*
X156399800Y-65813400D02*
X160116000Y-62097200D01*
X156209200Y-65813400D02*
X156399800Y-65813400D01*
X157775100Y-94627000D02*
X157775100Y-100200000D01*
X156998100Y-93850000D02*
X157775100Y-94627000D01*
X155479300Y-93850000D02*
X156998100Y-93850000D01*
X153731100Y-92101800D02*
X155479300Y-93850000D01*
X153731100Y-78850200D02*
X153731100Y-92101800D01*
X153296300Y-78415400D02*
X153731100Y-78850200D01*
X153296300Y-68534900D02*
X153296300Y-78415400D01*
X156017800Y-65813400D02*
X153296300Y-68534900D01*
X156209200Y-65813400D02*
X156017800Y-65813400D01*
%TO.N,CD6*%
X156250000Y-102740000D02*
X157775100Y-102740000D01*
X181000000Y-53340000D02*
X181000000Y-52164900D01*
X158246300Y-102268800D02*
X157775100Y-102740000D01*
X158246300Y-82092100D02*
X158246300Y-102268800D01*
X154196500Y-78042300D02*
X158246300Y-82092100D01*
X154196500Y-70366100D02*
X154196500Y-78042300D01*
X156209200Y-68353400D02*
X154196500Y-70366100D01*
X156209200Y-68353400D02*
X157734300Y-68353400D01*
X181365200Y-52164900D02*
X181000000Y-52164900D01*
X182214600Y-51315500D02*
X181365200Y-52164900D01*
X182214600Y-50328700D02*
X182214600Y-51315500D01*
X179815500Y-47929600D02*
X182214600Y-50328700D01*
X171708500Y-47929600D02*
X179815500Y-47929600D01*
X171695800Y-47916900D02*
X171708500Y-47929600D01*
X168875700Y-47916900D02*
X171695800Y-47916900D01*
X166292300Y-50500300D02*
X168875700Y-47916900D01*
X166292300Y-55207600D02*
X166292300Y-50500300D01*
X164576500Y-56923400D02*
X166292300Y-55207600D01*
X163091200Y-56923400D02*
X164576500Y-56923400D01*
X161378000Y-58636600D02*
X163091200Y-56923400D01*
X161378000Y-64709700D02*
X161378000Y-58636600D01*
X157734300Y-68353400D02*
X161378000Y-64709700D01*
%TO.N,CD7*%
X156209200Y-70893400D02*
X155860900Y-70893400D01*
X181000000Y-50800000D02*
X179824900Y-50800000D01*
X154646700Y-72107600D02*
X155860900Y-70893400D01*
X154646700Y-77477600D02*
X154646700Y-72107600D01*
X158698300Y-81529200D02*
X154646700Y-77477600D01*
X158698300Y-104356800D02*
X158698300Y-81529200D01*
X157775100Y-105280000D02*
X158698300Y-104356800D01*
X156250000Y-105280000D02*
X157775100Y-105280000D01*
X179824900Y-50434800D02*
X179824900Y-50800000D01*
X177769800Y-48379700D02*
X179824900Y-50434800D01*
X171522000Y-48379700D02*
X177769800Y-48379700D01*
X171509300Y-48367000D02*
X171522000Y-48379700D01*
X169073200Y-48367000D02*
X171509300Y-48367000D01*
X166742400Y-50697800D02*
X169073200Y-48367000D01*
X166742400Y-56172000D02*
X166742400Y-50697800D01*
X165354400Y-57560000D02*
X166742400Y-56172000D01*
X165354400Y-61212400D02*
X165354400Y-57560000D01*
X164563400Y-62003400D02*
X165354400Y-61212400D01*
X163053100Y-62003400D02*
X164563400Y-62003400D01*
X161920400Y-63136100D02*
X163053100Y-62003400D01*
X161920400Y-64833900D02*
X161920400Y-63136100D01*
X155860900Y-70893400D02*
X161920400Y-64833900D01*
%TO.N,~{INT}*%
X142000000Y-106400000D02*
X142000000Y-105224900D01*
X145957000Y-58420000D02*
X147482100Y-58420000D01*
X147482100Y-100110000D02*
X147482100Y-58420000D01*
X142367200Y-105224900D02*
X147482100Y-100110000D01*
X142000000Y-105224900D02*
X142367200Y-105224900D01*
X165554000Y-46754400D02*
X172195300Y-46754400D01*
X159739200Y-52569200D02*
X165554000Y-46754400D01*
X159739200Y-52990700D02*
X159739200Y-52569200D01*
%TO.N,~{CSR}*%
X162344900Y-101357600D02*
X162344900Y-87500000D01*
X157007700Y-106694800D02*
X162344900Y-101357600D01*
X152494100Y-106694800D02*
X157007700Y-106694800D01*
X151592800Y-107596100D02*
X152494100Y-106694800D01*
X141479600Y-107596100D02*
X151592800Y-107596100D01*
X140820600Y-106937100D02*
X141479600Y-107596100D01*
X140820600Y-105039400D02*
X140820600Y-106937100D01*
X142000000Y-103860000D02*
X140820600Y-105039400D01*
X163870000Y-87500000D02*
X162344900Y-87500000D01*
X178460000Y-53340000D02*
X177284900Y-53340000D01*
X175845700Y-53340000D02*
X177284900Y-53340000D01*
X171330500Y-48824800D02*
X175845700Y-53340000D01*
X169294800Y-48824800D02*
X171330500Y-48824800D01*
X167192500Y-50927100D02*
X169294800Y-48824800D01*
X167192500Y-56358500D02*
X167192500Y-50927100D01*
X166070100Y-57480900D02*
X167192500Y-56358500D01*
X166070100Y-67640200D02*
X166070100Y-57480900D01*
X165620100Y-68090200D02*
X166070100Y-67640200D01*
X165620100Y-85410000D02*
X165620100Y-68090200D01*
X163870000Y-87160100D02*
X165620100Y-85410000D01*
X163870000Y-87500000D02*
X163870000Y-87160100D01*
%TO.N,~{CSW}*%
X138337000Y-58420000D02*
X139862100Y-58420000D01*
X145765500Y-96746600D02*
X145765500Y-75770500D01*
X142367200Y-100144900D02*
X145765500Y-96746600D01*
X142000000Y-100144900D02*
X142367200Y-100144900D01*
X142000000Y-101320000D02*
X142000000Y-100144900D01*
X143661700Y-58420000D02*
X143959200Y-58122500D01*
X139862100Y-58420000D02*
X143661700Y-58420000D01*
X143959200Y-58717500D02*
X143959200Y-60632100D01*
X143661700Y-58420000D02*
X143959200Y-58717500D01*
%TO.N,MODE*%
X178460000Y-58420000D02*
X178460000Y-57244900D01*
X179730000Y-56340100D02*
X179730000Y-54137500D01*
X178825200Y-57244900D02*
X179730000Y-56340100D01*
X178460000Y-57244900D02*
X178825200Y-57244900D01*
X136318500Y-63993400D02*
X136811900Y-63500000D01*
X136318500Y-92300300D02*
X136318500Y-63993400D01*
X138988200Y-94970000D02*
X136318500Y-92300300D01*
X139890900Y-94970000D02*
X138988200Y-94970000D01*
X140824900Y-95904000D02*
X139890900Y-94970000D01*
X140824900Y-96797100D02*
X140824900Y-95904000D01*
X141632700Y-97604900D02*
X140824900Y-96797100D01*
X142000000Y-97604900D02*
X141632700Y-97604900D01*
X142000000Y-98780000D02*
X142000000Y-97604900D01*
X138337000Y-63500000D02*
X136811900Y-63500000D01*
%TO.N,ADC_MOSI*%
X172610300Y-99375200D02*
X171495100Y-98260000D01*
X175323600Y-99375200D02*
X172610300Y-99375200D01*
X180769900Y-104821500D02*
X175323600Y-99375200D01*
X180769900Y-105870000D02*
X180769900Y-104821500D01*
X182295000Y-105870000D02*
X180769900Y-105870000D01*
X170320000Y-98260000D02*
X171495100Y-98260000D01*
%TO.N,ADC_MISO*%
X182295000Y-103330000D02*
X180769900Y-103330000D01*
X180769900Y-101804900D02*
X180769900Y-103330000D01*
X174685000Y-95720000D02*
X180769900Y-101804900D01*
X170320000Y-95720000D02*
X174685000Y-95720000D01*
%TO.N,CD7_3V3*%
X170320000Y-77940000D02*
X170320000Y-79115100D01*
X163870000Y-107820000D02*
X165395100Y-107820000D01*
X167344600Y-105870500D02*
X165395100Y-107820000D01*
X167344600Y-94023700D02*
X167344600Y-105870500D01*
X168244700Y-93123600D02*
X167344600Y-94023700D01*
X168244700Y-87723500D02*
X168244700Y-93123600D01*
X168995900Y-86972300D02*
X168244700Y-87723500D01*
X168995900Y-80071900D02*
X168995900Y-86972300D01*
X169952700Y-79115100D02*
X168995900Y-80071900D01*
X170320000Y-79115100D02*
X169952700Y-79115100D01*
%TO.N,CD6_3V3*%
X163870000Y-105280000D02*
X165395100Y-105280000D01*
X170320000Y-75400000D02*
X170320000Y-76575100D01*
X166894400Y-103780700D02*
X165395100Y-105280000D01*
X166894400Y-93837300D02*
X166894400Y-103780700D01*
X167794600Y-92937100D02*
X166894400Y-93837300D01*
X167794600Y-87218900D02*
X167794600Y-92937100D01*
X168545800Y-86467700D02*
X167794600Y-87218900D01*
X168545800Y-77997500D02*
X168545800Y-86467700D01*
X169968200Y-76575100D02*
X168545800Y-77997500D01*
X170320000Y-76575100D02*
X169968200Y-76575100D01*
%TO.N,CD5_3V3*%
X163870000Y-102740000D02*
X165395100Y-102740000D01*
X170320000Y-72860000D02*
X170320000Y-74035100D01*
X166444300Y-101690800D02*
X165395100Y-102740000D01*
X166444300Y-93650800D02*
X166444300Y-101690800D01*
X167344500Y-92750600D02*
X166444300Y-93650800D01*
X167344500Y-87032400D02*
X167344500Y-92750600D01*
X168095700Y-86281200D02*
X167344500Y-87032400D01*
X168095700Y-75907600D02*
X168095700Y-86281200D01*
X169968200Y-74035100D02*
X168095700Y-75907600D01*
X170320000Y-74035100D02*
X169968200Y-74035100D01*
%TO.N,CD4_3V3*%
X163870000Y-100200000D02*
X165395100Y-100200000D01*
X170320000Y-70320000D02*
X170320000Y-71495100D01*
X165994200Y-99600900D02*
X165395100Y-100200000D01*
X165994200Y-93464300D02*
X165994200Y-99600900D01*
X166894400Y-92564100D02*
X165994200Y-93464300D01*
X166894400Y-86845900D02*
X166894400Y-92564100D01*
X167645600Y-86094700D02*
X166894400Y-86845900D01*
X167645600Y-73817700D02*
X167645600Y-86094700D01*
X169968200Y-71495100D02*
X167645600Y-73817700D01*
X170320000Y-71495100D02*
X169968200Y-71495100D01*
%TO.N,CD2_3V3*%
X163870000Y-95120000D02*
X165395100Y-95120000D01*
X170320000Y-65240000D02*
X170320000Y-66415100D01*
X165395100Y-93426800D02*
X165395100Y-95120000D01*
X166444300Y-92377600D02*
X165395100Y-93426800D01*
X166444300Y-86659400D02*
X166444300Y-92377600D01*
X167195500Y-85908200D02*
X166444300Y-86659400D01*
X167195500Y-69174300D02*
X167195500Y-85908200D01*
X169954700Y-66415100D02*
X167195500Y-69174300D01*
X170320000Y-66415100D02*
X169954700Y-66415100D01*
%TO.N,CD1_3V3*%
X163870000Y-92580000D02*
X165395100Y-92580000D01*
X170320000Y-62700000D02*
X170320000Y-63875100D01*
X169954700Y-63875100D02*
X170320000Y-63875100D01*
X166970400Y-66859400D02*
X169954700Y-63875100D01*
X166970400Y-68013100D02*
X166970400Y-66859400D01*
X166745300Y-68238200D02*
X166970400Y-68013100D01*
X166745300Y-85721800D02*
X166745300Y-68238200D01*
X165994200Y-86472900D02*
X166745300Y-85721800D01*
X165994200Y-91980900D02*
X165994200Y-86472900D01*
X165395100Y-92580000D02*
X165994200Y-91980900D01*
%TO.N,CD0_3V3*%
X170320000Y-60160000D02*
X170320000Y-61335100D01*
X163870000Y-90040000D02*
X165395100Y-90040000D01*
X169952800Y-61335100D02*
X170320000Y-61335100D01*
X166520300Y-64767600D02*
X169952800Y-61335100D01*
X166520300Y-67826600D02*
X166520300Y-64767600D01*
X166070300Y-68276600D02*
X166520300Y-67826600D01*
X166070300Y-85760200D02*
X166070300Y-68276600D01*
X165395100Y-86435400D02*
X166070300Y-85760200D01*
X165395100Y-90040000D02*
X165395100Y-86435400D01*
%TO.N,~{RESET_3V3}*%
X150000000Y-83020000D02*
X150000000Y-81844900D01*
X148340800Y-58263800D02*
X145957000Y-55880000D01*
X148340800Y-80552900D02*
X148340800Y-58263800D01*
X149632800Y-81844900D02*
X148340800Y-80552900D01*
X150000000Y-81844900D02*
X149632800Y-81844900D01*
%TO.N,CPUCLK_3V3*%
X138337000Y-66040000D02*
X139862100Y-66040000D01*
X142765900Y-68943800D02*
X142765900Y-77800400D01*
X139862100Y-66040000D02*
X142765900Y-68943800D01*
%TO.N,~{INT_3V3}*%
X141052600Y-54689500D02*
X139862100Y-55880000D01*
X146761900Y-54689500D02*
X141052600Y-54689500D01*
X148824900Y-56752500D02*
X146761900Y-54689500D01*
X148824900Y-73417100D02*
X148824900Y-56752500D01*
X149632700Y-74224900D02*
X148824900Y-73417100D01*
X150000000Y-74224900D02*
X149632700Y-74224900D01*
X150000000Y-75400000D02*
X150000000Y-74224900D01*
X138337000Y-55880000D02*
X139862100Y-55880000D01*
%TO.N,VCC*%
X154082300Y-51175200D02*
X154684100Y-50573400D01*
X149464800Y-51175200D02*
X154082300Y-51175200D01*
X148714900Y-51925100D02*
X149464800Y-51175200D01*
X140987200Y-51925100D02*
X148714900Y-51925100D01*
X139862100Y-50800000D02*
X140987200Y-51925100D01*
X138337000Y-50800000D02*
X139862100Y-50800000D01*
X156209200Y-50573400D02*
X154684100Y-50573400D01*
X170320000Y-50000000D02*
X170320000Y-51175100D01*
X178460000Y-73660000D02*
X177284900Y-73660000D01*
X172345300Y-68720400D02*
X177284900Y-73660000D01*
X172345300Y-52877800D02*
X172345300Y-68720400D01*
X170642600Y-51175100D02*
X172345300Y-52877800D01*
X170320000Y-51175100D02*
X170642600Y-51175100D01*
X177284900Y-93465100D02*
X176000000Y-94750000D01*
X177284900Y-73660000D02*
X177284900Y-93465100D01*
%TO.N,MODE1_3V3*%
X157500900Y-77441400D02*
X159942700Y-79883200D01*
X157500900Y-75696700D02*
X157500900Y-77441400D01*
%TO.N,MODE1*%
X141951800Y-73209700D02*
X141951800Y-78847400D01*
X139862100Y-71120000D02*
X141951800Y-73209700D01*
X136811900Y-87730600D02*
X136811900Y-71120000D01*
X138971300Y-89890000D02*
X136811900Y-87730600D01*
X139854100Y-89890000D02*
X138971300Y-89890000D01*
X140824900Y-90860800D02*
X139854100Y-89890000D01*
X140824900Y-91717100D02*
X140824900Y-90860800D01*
X141632700Y-92524900D02*
X140824900Y-91717100D01*
X142000000Y-92524900D02*
X141632700Y-92524900D01*
X142000000Y-93700000D02*
X142000000Y-92524900D01*
X138337000Y-71120000D02*
X136811900Y-71120000D01*
X138337000Y-71120000D02*
X139862100Y-71120000D01*
%TO.N,USR4_1V8*%
X149634700Y-94355100D02*
X150000000Y-94355100D01*
X148805800Y-95184000D02*
X149634700Y-94355100D01*
X148805800Y-101231900D02*
X148805800Y-95184000D01*
X153408600Y-105834700D02*
X148805800Y-101231900D01*
X150000000Y-93180000D02*
X150000000Y-94355100D01*
X168694800Y-103919700D02*
X169560100Y-104785000D01*
X168694800Y-94199100D02*
X168694800Y-103919700D01*
X169144900Y-93749000D02*
X168694800Y-94199100D01*
X169144900Y-92595700D02*
X169144900Y-93749000D01*
X169830600Y-91910000D02*
X169144900Y-92595700D01*
X170712300Y-91910000D02*
X169830600Y-91910000D01*
X174675000Y-87947300D02*
X170712300Y-91910000D01*
X174675000Y-86070000D02*
X174675000Y-87947300D01*
%TO.N,USR2_1V8*%
X150000000Y-88100000D02*
X150000000Y-89275100D01*
X174675000Y-80990000D02*
X174675000Y-82115100D01*
X148355700Y-104069700D02*
X150918500Y-106632500D01*
X148355700Y-90554100D02*
X148355700Y-104069700D01*
X149634700Y-89275100D02*
X148355700Y-90554100D01*
X150000000Y-89275100D02*
X149634700Y-89275100D01*
X153373500Y-108945200D02*
X152698700Y-108270400D01*
X164955800Y-108945200D02*
X153373500Y-108945200D01*
X168244700Y-105656300D02*
X164955800Y-108945200D01*
X168244700Y-93760200D02*
X168244700Y-105656300D01*
X168694800Y-93310100D02*
X168244700Y-93760200D01*
X168694800Y-88063200D02*
X168694800Y-93310100D01*
X169928000Y-86830000D02*
X168694800Y-88063200D01*
X170720800Y-86830000D02*
X169928000Y-86830000D01*
X173549900Y-84000900D02*
X170720800Y-86830000D01*
X173549900Y-82958800D02*
X173549900Y-84000900D01*
X174393600Y-82115100D02*
X173549900Y-82958800D01*
X174675000Y-82115100D02*
X174393600Y-82115100D01*
%TO.N,AUDIO*%
X178825200Y-67215100D02*
X178460000Y-67215100D01*
X179664800Y-68054700D02*
X178825200Y-67215100D01*
X179664800Y-92690800D02*
X179664800Y-68054700D01*
X176466900Y-95888700D02*
X179664800Y-92690800D01*
X175490400Y-95888700D02*
X176466900Y-95888700D01*
X174051700Y-94450000D02*
X175490400Y-95888700D01*
X169925800Y-94450000D02*
X174051700Y-94450000D01*
X169144900Y-95230900D02*
X169925800Y-94450000D01*
X169144900Y-98778500D02*
X169144900Y-95230900D01*
X171156400Y-100790000D02*
X169144900Y-98778500D01*
X174675000Y-100790000D02*
X171156400Y-100790000D01*
X178460000Y-66040000D02*
X178460000Y-67215100D01*
%TO.N,GND*%
X138250000Y-81154900D02*
X139460000Y-82364900D01*
X138250000Y-76835000D02*
X138250000Y-81154900D01*
X139460000Y-83540000D02*
X139460000Y-82364900D01*
X182295000Y-80990000D02*
X182295000Y-83530000D01*
X182295000Y-83530000D02*
X182295000Y-86070000D01*
X139460000Y-86080000D02*
X139460000Y-83540000D01*
X170685200Y-53715100D02*
X170320000Y-53715100D01*
X171514200Y-54544100D02*
X170685200Y-53715100D01*
X171514200Y-83557900D02*
X171514200Y-54544100D01*
X170687200Y-84384900D02*
X171514200Y-83557900D01*
X170320000Y-84384900D02*
X170687200Y-84384900D01*
X170320000Y-85560000D02*
X170320000Y-84384900D01*
X170320000Y-52540000D02*
X170320000Y-53715100D01*
X182295000Y-78450000D02*
X182295000Y-80990000D01*
X182295000Y-78450000D02*
X182295000Y-77324900D01*
X156186100Y-73456500D02*
X156209200Y-73433400D01*
X156186000Y-73456500D02*
X156186100Y-73456500D01*
X156163000Y-77134000D02*
X156163000Y-76578000D01*
X160814000Y-81785000D02*
X156163000Y-77134000D01*
X161370000Y-81785000D02*
X160814000Y-81785000D01*
X181000000Y-76029900D02*
X181000000Y-73660000D01*
X182295000Y-77324900D02*
X181000000Y-76029900D01*
X181000000Y-73660000D02*
X181000000Y-71120000D01*
%TO.N,VCC_3V3*%
X158663000Y-76578000D02*
X163870000Y-81785000D01*
X160028600Y-87663900D02*
X160028600Y-92092600D01*
X163870000Y-83822500D02*
X160028600Y-87663900D01*
X163870000Y-81785000D02*
X163870000Y-84960000D01*
%TO.N,GND*%
X138250000Y-73747000D02*
X138337000Y-73660000D01*
X156163000Y-73479600D02*
X156209200Y-73433400D01*
X156163000Y-76578000D02*
X156163000Y-73479600D01*
X138250000Y-76835000D02*
X138250000Y-73747000D01*
X174750000Y-105945000D02*
X174675000Y-105870000D01*
X174750000Y-109250000D02*
X174750000Y-105945000D01*
%TD*%
M02*
