M48
; DRILL file {KiCad 7.0.1} date Sat Jul  1 13:19:18 2023
; FORMAT={-:-/ absolute / inch / decimal}
; #@! TF.CreationDate,2023-07-01T13:19:18-07:00
; #@! TF.GenerationSoftware,Kicad,Pcbnew,7.0.1
; #@! TF.FileFunction,Plated,1,2,PTH
FMAT,2
INCH
; #@! TA.AperFunction,Plated,PTH,ViaDrill
T1C0.0157
; #@! TA.AperFunction,Plated,PTH,ComponentDrill
T2C0.0315
; #@! TA.AperFunction,Plated,PTH,ComponentDrill
T3C0.0354
; #@! TA.AperFunction,Plated,PTH,ComponentDrill
T4C0.0394
; #@! TA.AperFunction,Plated,PTH,ComponentDrill
T5C0.0866
%
G90
G05
T1
X5.5887Y-3.1042
X5.6207Y-3.063
X5.6677Y-2.2883
X5.6677Y-2.3871
X5.7388Y-2.9831
X5.8474Y-3.4215
X5.9417Y-4.1981
X5.9813Y-3.1296
X5.9852Y-3.5481
X6.0118Y-4.2626
X6.0397Y-4.1667
X6.2008Y-2.9802
X6.2752Y-2.3986
X6.2889Y-2.0862
X6.2947Y-2.3429
X6.297Y-3.145
X6.3003Y-3.6257
X6.6756Y-4.1254
X6.7793Y-1.8407
X6.8138Y-2.1489
X7.076Y-2.1314
T2
X5.4429Y-3.025
X5.4463Y-2.0
X5.4463Y-2.1
X5.4463Y-2.2
X5.4463Y-2.3
X5.4463Y-2.4
X5.4463Y-2.5
X5.4463Y-2.6
X5.4463Y-2.7
X5.4463Y-2.8
X5.4463Y-2.9
X5.5413Y-3.025
X5.7463Y-2.0
X5.7463Y-2.1
X5.7463Y-2.2
X5.7463Y-2.3
X5.7463Y-2.4
X5.7463Y-2.5
X5.7463Y-2.6
X5.7463Y-2.7
X5.7463Y-2.8
X5.7463Y-2.9
X6.1481Y-3.0149
X6.15Y-1.9911
X6.15Y-2.0911
X6.15Y-2.1911
X6.15Y-2.2911
X6.15Y-2.3911
X6.15Y-2.4911
X6.15Y-2.5911
X6.15Y-2.6911
X6.15Y-2.7911
X6.15Y-2.8911
X6.1516Y-3.3449
X6.1516Y-3.4449
X6.1516Y-3.5449
X6.1516Y-3.6449
X6.1516Y-3.7449
X6.1516Y-3.8449
X6.1516Y-3.9449
X6.1516Y-4.0449
X6.1516Y-4.1449
X6.1516Y-4.2449
X6.2466Y-3.0149
X6.3531Y-3.2199
X6.45Y-1.9911
X6.45Y-2.0911
X6.45Y-2.1911
X6.45Y-2.2911
X6.45Y-2.3911
X6.45Y-2.4911
X6.45Y-2.5911
X6.45Y-2.6911
X6.45Y-2.7911
X6.45Y-2.8911
X6.4516Y-3.2199
X6.4516Y-3.3449
X6.4516Y-3.4449
X6.4516Y-3.5449
X6.4516Y-3.6449
X6.4516Y-3.7449
X6.4516Y-3.8449
X6.4516Y-3.9449
X6.4516Y-4.0449
X6.4516Y-4.1449
X6.4516Y-4.2449
X6.877Y-3.0886
X6.877Y-3.1886
X6.877Y-3.2886
X6.877Y-3.3886
X6.877Y-3.8681
X6.877Y-3.9681
X6.877Y-4.0681
X6.877Y-4.1681
X6.8799Y-4.3012
X6.9783Y-4.3012
X7.177Y-3.0886
X7.177Y-3.1886
X7.177Y-3.2886
X7.177Y-3.3886
X7.177Y-3.8681
X7.177Y-3.9681
X7.177Y-4.0681
X7.177Y-4.1681
T3
X6.9291Y-3.5335
X6.9291Y-3.7303
X7.126Y-3.6319
T4
X5.4906Y-3.289
X5.4906Y-3.389
X5.4906Y-3.489
X5.4906Y-3.589
X5.4906Y-3.689
X5.4906Y-3.789
X5.4906Y-3.889
X5.4906Y-3.989
X5.4906Y-4.089
X5.4906Y-4.189
X5.5906Y-3.289
X5.5906Y-3.389
X5.5906Y-3.489
X5.5906Y-3.589
X5.5906Y-3.689
X5.5906Y-3.789
X5.5906Y-3.889
X5.5906Y-3.989
X5.5906Y-4.089
X5.5906Y-4.189
X5.9055Y-1.9685
X5.9055Y-2.0685
X5.9055Y-2.1685
X5.9055Y-2.2685
X5.9055Y-2.3685
X5.9055Y-2.4685
X5.9055Y-2.5685
X5.9055Y-2.6685
X5.9055Y-2.7685
X5.9055Y-2.8685
X5.9055Y-2.9685
X5.9055Y-3.0685
X5.9055Y-3.1685
X5.9055Y-3.2685
X5.9055Y-3.3685
X5.9055Y-3.4685
X5.9055Y-3.5685
X5.9055Y-3.6685
X5.9055Y-3.7685
X5.9055Y-3.8685
X6.7055Y-1.9685
X6.7055Y-2.0685
X6.7055Y-2.1685
X6.7055Y-2.2685
X6.7055Y-2.3685
X6.7055Y-2.4685
X6.7055Y-2.5685
X6.7055Y-2.6685
X6.7055Y-2.7685
X6.7055Y-2.8685
X6.7055Y-2.9685
X6.7055Y-3.0685
X6.7055Y-3.1685
X6.7055Y-3.2685
X6.7055Y-3.3685
X6.7055Y-3.4685
X6.7055Y-3.5685
X6.7055Y-3.6685
X6.7055Y-3.7685
X6.7055Y-3.8685
X7.026Y-2.0
X7.026Y-2.1
X7.026Y-2.2
X7.026Y-2.3
X7.026Y-2.4
X7.026Y-2.5
X7.026Y-2.6
X7.026Y-2.7
X7.026Y-2.8
X7.026Y-2.9
X7.126Y-2.0
X7.126Y-2.1
X7.126Y-2.2
X7.126Y-2.3
X7.126Y-2.4
X7.126Y-2.5
X7.126Y-2.6
X7.126Y-2.7
X7.126Y-2.8
X7.126Y-2.9
T5
X5.42Y-1.85
X5.42Y-4.36
X7.2047Y-1.85
X7.2047Y-4.36
T0
M30
