%TF.GenerationSoftware,KiCad,Pcbnew,7.0.1*%
%TF.CreationDate,2023-07-01T13:19:20-07:00*%
%TF.ProjectId,tn_vdp_v3_board,746e5f76-6470-45f7-9633-5f626f617264,rev?*%
%TF.SameCoordinates,Original*%
%TF.FileFunction,Soldermask,Top*%
%TF.FilePolarity,Negative*%
%FSLAX46Y46*%
G04 Gerber Fmt 4.6, Leading zero omitted, Abs format (unit mm)*
G04 Created by KiCad (PCBNEW 7.0.1) date 2023-07-01 13:19:20*
%MOMM*%
%LPD*%
G01*
G04 APERTURE LIST*
%ADD10R,2.400000X1.600000*%
%ADD11O,2.400000X1.600000*%
%ADD12R,1.700000X1.700000*%
%ADD13O,1.700000X1.700000*%
%ADD14C,1.600000*%
%ADD15C,3.500000*%
%ADD16C,1.620000*%
%ADD17R,1.600000X1.600000*%
%ADD18O,1.600000X1.600000*%
G04 APERTURE END LIST*
D10*
%TO.C,U3*%
X138337000Y-50800000D03*
D11*
X138337000Y-53340000D03*
X138337000Y-55880000D03*
X138337000Y-58420000D03*
X138337000Y-60960000D03*
X138337000Y-63500000D03*
X138337000Y-66040000D03*
X138337000Y-68580000D03*
X138337000Y-71120000D03*
X138337000Y-73660000D03*
X145957000Y-73660000D03*
X145957000Y-71120000D03*
X145957000Y-68580000D03*
X145957000Y-66040000D03*
X145957000Y-63500000D03*
X145957000Y-60960000D03*
X145957000Y-58420000D03*
X145957000Y-55880000D03*
X145957000Y-53340000D03*
X145957000Y-50800000D03*
%TD*%
D12*
%TO.C,J2*%
X181000000Y-73660000D03*
D13*
X178460000Y-73660000D03*
X181000000Y-71120000D03*
X178460000Y-71120000D03*
X181000000Y-68580000D03*
X178460000Y-68580000D03*
X181000000Y-66040000D03*
X178460000Y-66040000D03*
X181000000Y-63500000D03*
X178460000Y-63500000D03*
X181000000Y-60960000D03*
X178460000Y-60960000D03*
X181000000Y-58420000D03*
X178460000Y-58420000D03*
X181000000Y-55880000D03*
X178460000Y-55880000D03*
X181000000Y-53340000D03*
X178460000Y-53340000D03*
X181000000Y-50800000D03*
X178460000Y-50800000D03*
%TD*%
D12*
%TO.C,J3*%
X150000000Y-50000000D03*
D13*
X150000000Y-52540000D03*
X150000000Y-55080000D03*
X150000000Y-57620000D03*
X150000000Y-60160000D03*
X150000000Y-62700000D03*
X150000000Y-65240000D03*
X150000000Y-67780000D03*
X150000000Y-70320000D03*
X150000000Y-72860000D03*
X150000000Y-75400000D03*
X150000000Y-77940000D03*
X150000000Y-80480000D03*
X150000000Y-83020000D03*
X150000000Y-85560000D03*
X150000000Y-88100000D03*
X150000000Y-90640000D03*
X150000000Y-93180000D03*
X150000000Y-95720000D03*
X150000000Y-98260000D03*
%TD*%
D14*
%TO.C,C2*%
X158663000Y-76578000D03*
X156163000Y-76578000D03*
%TD*%
D15*
%TO.C,H1*%
X137668000Y-46990000D03*
%TD*%
D14*
%TO.C,C4*%
X177250000Y-109250000D03*
X174750000Y-109250000D03*
%TD*%
D12*
%TO.C,J6*%
X170320000Y-50000000D03*
D13*
X170320000Y-52540000D03*
X170320000Y-55080000D03*
X170320000Y-57620000D03*
X170320000Y-60160000D03*
X170320000Y-62700000D03*
X170320000Y-65240000D03*
X170320000Y-67780000D03*
X170320000Y-70320000D03*
X170320000Y-72860000D03*
X170320000Y-75400000D03*
X170320000Y-77940000D03*
X170320000Y-80480000D03*
X170320000Y-83020000D03*
X170320000Y-85560000D03*
X170320000Y-88100000D03*
X170320000Y-90640000D03*
X170320000Y-93180000D03*
X170320000Y-95720000D03*
X170320000Y-98260000D03*
%TD*%
D14*
%TO.C,C1*%
X140750000Y-76835000D03*
X138250000Y-76835000D03*
%TD*%
D10*
%TO.C,U4*%
X174675000Y-98250000D03*
D11*
X174675000Y-100790000D03*
X174675000Y-103330000D03*
X174675000Y-105870000D03*
X182295000Y-105870000D03*
X182295000Y-103330000D03*
X182295000Y-100790000D03*
X182295000Y-98250000D03*
%TD*%
D14*
%TO.C,C3*%
X163870000Y-81785000D03*
X161370000Y-81785000D03*
%TD*%
D16*
%TO.C,RV1*%
X176000000Y-94750000D03*
X181000000Y-92250000D03*
X176000000Y-89750000D03*
%TD*%
D15*
%TO.C,H3*%
X137668000Y-110744000D03*
%TD*%
%TO.C,H4*%
X183000000Y-110744000D03*
%TD*%
D17*
%TO.C,J4*%
X174675000Y-78450000D03*
D18*
X174675000Y-80990000D03*
X174675000Y-83530000D03*
X174675000Y-86070000D03*
X182295000Y-86070000D03*
X182295000Y-83530000D03*
X182295000Y-80990000D03*
X182295000Y-78450000D03*
%TD*%
D10*
%TO.C,U2*%
X156209200Y-50573400D03*
D11*
X156209200Y-53113400D03*
X156209200Y-55653400D03*
X156209200Y-58193400D03*
X156209200Y-60733400D03*
X156209200Y-63273400D03*
X156209200Y-65813400D03*
X156209200Y-68353400D03*
X156209200Y-70893400D03*
X156209200Y-73433400D03*
X163829200Y-73433400D03*
X163829200Y-70893400D03*
X163829200Y-68353400D03*
X163829200Y-65813400D03*
X163829200Y-63273400D03*
X163829200Y-60733400D03*
X163829200Y-58193400D03*
X163829200Y-55653400D03*
X163829200Y-53113400D03*
X163829200Y-50573400D03*
%TD*%
D15*
%TO.C,H2*%
X183000000Y-46990000D03*
%TD*%
D10*
%TO.C,U1*%
X156250000Y-84960000D03*
D11*
X156250000Y-87500000D03*
X156250000Y-90040000D03*
X156250000Y-92580000D03*
X156250000Y-95120000D03*
X156250000Y-97660000D03*
X156250000Y-100200000D03*
X156250000Y-102740000D03*
X156250000Y-105280000D03*
X156250000Y-107820000D03*
X163870000Y-107820000D03*
X163870000Y-105280000D03*
X163870000Y-102740000D03*
X163870000Y-100200000D03*
X163870000Y-97660000D03*
X163870000Y-95120000D03*
X163870000Y-92580000D03*
X163870000Y-90040000D03*
X163870000Y-87500000D03*
X163870000Y-84960000D03*
%TD*%
D12*
%TO.C,J1*%
X139460000Y-83540000D03*
D13*
X142000000Y-83540000D03*
X139460000Y-86080000D03*
X142000000Y-86080000D03*
X139460000Y-88620000D03*
X142000000Y-88620000D03*
X139460000Y-91160000D03*
X142000000Y-91160000D03*
X139460000Y-93700000D03*
X142000000Y-93700000D03*
X139460000Y-96240000D03*
X142000000Y-96240000D03*
X139460000Y-98780000D03*
X142000000Y-98780000D03*
X139460000Y-101320000D03*
X142000000Y-101320000D03*
X139460000Y-103860000D03*
X142000000Y-103860000D03*
X139460000Y-106400000D03*
X142000000Y-106400000D03*
%TD*%
M02*
