%TF.GenerationSoftware,KiCad,Pcbnew,7.0.1*%
%TF.CreationDate,2023-07-20T10:40:34-07:00*%
%TF.ProjectId,tn_vdp_v3_board,746e5f76-6470-45f7-9633-5f626f617264,rev?*%
%TF.SameCoordinates,Original*%
%TF.FileFunction,Legend,Top*%
%TF.FilePolarity,Positive*%
%FSLAX46Y46*%
G04 Gerber Fmt 4.6, Leading zero omitted, Abs format (unit mm)*
G04 Created by KiCad (PCBNEW 7.0.1) date 2023-07-20 10:40:34*
%MOMM*%
%LPD*%
G01*
G04 APERTURE LIST*
%ADD10C,0.187500*%
%ADD11C,0.150000*%
%ADD12C,0.120000*%
G04 APERTURE END LIST*
D10*
X139571428Y-83263214D02*
X139142857Y-83263214D01*
X139357142Y-83263214D02*
X139357142Y-82513214D01*
X139357142Y-82513214D02*
X139285714Y-82620357D01*
X139285714Y-82620357D02*
X139214285Y-82691785D01*
X139214285Y-82691785D02*
X139142857Y-82727500D01*
X139892857Y-83191785D02*
X139928571Y-83227500D01*
X139928571Y-83227500D02*
X139892857Y-83263214D01*
X139892857Y-83263214D02*
X139857143Y-83227500D01*
X139857143Y-83227500D02*
X139892857Y-83191785D01*
X139892857Y-83191785D02*
X139892857Y-83263214D01*
X139892857Y-82798928D02*
X139928571Y-82834642D01*
X139928571Y-82834642D02*
X139892857Y-82870357D01*
X139892857Y-82870357D02*
X139857143Y-82834642D01*
X139857143Y-82834642D02*
X139892857Y-82798928D01*
X139892857Y-82798928D02*
X139892857Y-82870357D01*
X140250000Y-83263214D02*
X140250000Y-82513214D01*
X140250000Y-82513214D02*
X140500000Y-83048928D01*
X140500000Y-83048928D02*
X140750000Y-82513214D01*
X140750000Y-82513214D02*
X140750000Y-83263214D01*
X141071429Y-83048928D02*
X141428572Y-83048928D01*
X141000000Y-83263214D02*
X141250000Y-82513214D01*
X141250000Y-82513214D02*
X141500000Y-83263214D01*
X141678571Y-82513214D02*
X142178571Y-83263214D01*
X142178571Y-82513214D02*
X141678571Y-83263214D01*
X143000001Y-83227500D02*
X143107144Y-83263214D01*
X143107144Y-83263214D02*
X143285715Y-83263214D01*
X143285715Y-83263214D02*
X143357144Y-83227500D01*
X143357144Y-83227500D02*
X143392858Y-83191785D01*
X143392858Y-83191785D02*
X143428572Y-83120357D01*
X143428572Y-83120357D02*
X143428572Y-83048928D01*
X143428572Y-83048928D02*
X143392858Y-82977500D01*
X143392858Y-82977500D02*
X143357144Y-82941785D01*
X143357144Y-82941785D02*
X143285715Y-82906071D01*
X143285715Y-82906071D02*
X143142858Y-82870357D01*
X143142858Y-82870357D02*
X143071429Y-82834642D01*
X143071429Y-82834642D02*
X143035715Y-82798928D01*
X143035715Y-82798928D02*
X143000001Y-82727500D01*
X143000001Y-82727500D02*
X143000001Y-82656071D01*
X143000001Y-82656071D02*
X143035715Y-82584642D01*
X143035715Y-82584642D02*
X143071429Y-82548928D01*
X143071429Y-82548928D02*
X143142858Y-82513214D01*
X143142858Y-82513214D02*
X143321429Y-82513214D01*
X143321429Y-82513214D02*
X143428572Y-82548928D01*
X143750001Y-83263214D02*
X143750001Y-82513214D01*
X143750001Y-82513214D02*
X144035715Y-82513214D01*
X144035715Y-82513214D02*
X144107144Y-82548928D01*
X144107144Y-82548928D02*
X144142858Y-82584642D01*
X144142858Y-82584642D02*
X144178572Y-82656071D01*
X144178572Y-82656071D02*
X144178572Y-82763214D01*
X144178572Y-82763214D02*
X144142858Y-82834642D01*
X144142858Y-82834642D02*
X144107144Y-82870357D01*
X144107144Y-82870357D02*
X144035715Y-82906071D01*
X144035715Y-82906071D02*
X143750001Y-82906071D01*
X144928572Y-83263214D02*
X144678572Y-82906071D01*
X144500001Y-83263214D02*
X144500001Y-82513214D01*
X144500001Y-82513214D02*
X144785715Y-82513214D01*
X144785715Y-82513214D02*
X144857144Y-82548928D01*
X144857144Y-82548928D02*
X144892858Y-82584642D01*
X144892858Y-82584642D02*
X144928572Y-82656071D01*
X144928572Y-82656071D02*
X144928572Y-82763214D01*
X144928572Y-82763214D02*
X144892858Y-82834642D01*
X144892858Y-82834642D02*
X144857144Y-82870357D01*
X144857144Y-82870357D02*
X144785715Y-82906071D01*
X144785715Y-82906071D02*
X144500001Y-82906071D01*
X139142857Y-83799642D02*
X139178571Y-83763928D01*
X139178571Y-83763928D02*
X139250000Y-83728214D01*
X139250000Y-83728214D02*
X139428571Y-83728214D01*
X139428571Y-83728214D02*
X139500000Y-83763928D01*
X139500000Y-83763928D02*
X139535714Y-83799642D01*
X139535714Y-83799642D02*
X139571428Y-83871071D01*
X139571428Y-83871071D02*
X139571428Y-83942500D01*
X139571428Y-83942500D02*
X139535714Y-84049642D01*
X139535714Y-84049642D02*
X139107142Y-84478214D01*
X139107142Y-84478214D02*
X139571428Y-84478214D01*
X139892857Y-84406785D02*
X139928571Y-84442500D01*
X139928571Y-84442500D02*
X139892857Y-84478214D01*
X139892857Y-84478214D02*
X139857143Y-84442500D01*
X139857143Y-84442500D02*
X139892857Y-84406785D01*
X139892857Y-84406785D02*
X139892857Y-84478214D01*
X139892857Y-84013928D02*
X139928571Y-84049642D01*
X139928571Y-84049642D02*
X139892857Y-84085357D01*
X139892857Y-84085357D02*
X139857143Y-84049642D01*
X139857143Y-84049642D02*
X139892857Y-84013928D01*
X139892857Y-84013928D02*
X139892857Y-84085357D01*
X140214286Y-84442500D02*
X140321429Y-84478214D01*
X140321429Y-84478214D02*
X140500000Y-84478214D01*
X140500000Y-84478214D02*
X140571429Y-84442500D01*
X140571429Y-84442500D02*
X140607143Y-84406785D01*
X140607143Y-84406785D02*
X140642857Y-84335357D01*
X140642857Y-84335357D02*
X140642857Y-84263928D01*
X140642857Y-84263928D02*
X140607143Y-84192500D01*
X140607143Y-84192500D02*
X140571429Y-84156785D01*
X140571429Y-84156785D02*
X140500000Y-84121071D01*
X140500000Y-84121071D02*
X140357143Y-84085357D01*
X140357143Y-84085357D02*
X140285714Y-84049642D01*
X140285714Y-84049642D02*
X140250000Y-84013928D01*
X140250000Y-84013928D02*
X140214286Y-83942500D01*
X140214286Y-83942500D02*
X140214286Y-83871071D01*
X140214286Y-83871071D02*
X140250000Y-83799642D01*
X140250000Y-83799642D02*
X140285714Y-83763928D01*
X140285714Y-83763928D02*
X140357143Y-83728214D01*
X140357143Y-83728214D02*
X140535714Y-83728214D01*
X140535714Y-83728214D02*
X140642857Y-83763928D01*
X141392857Y-84406785D02*
X141357143Y-84442500D01*
X141357143Y-84442500D02*
X141250000Y-84478214D01*
X141250000Y-84478214D02*
X141178572Y-84478214D01*
X141178572Y-84478214D02*
X141071429Y-84442500D01*
X141071429Y-84442500D02*
X141000000Y-84371071D01*
X141000000Y-84371071D02*
X140964286Y-84299642D01*
X140964286Y-84299642D02*
X140928572Y-84156785D01*
X140928572Y-84156785D02*
X140928572Y-84049642D01*
X140928572Y-84049642D02*
X140964286Y-83906785D01*
X140964286Y-83906785D02*
X141000000Y-83835357D01*
X141000000Y-83835357D02*
X141071429Y-83763928D01*
X141071429Y-83763928D02*
X141178572Y-83728214D01*
X141178572Y-83728214D02*
X141250000Y-83728214D01*
X141250000Y-83728214D02*
X141357143Y-83763928D01*
X141357143Y-83763928D02*
X141392857Y-83799642D01*
X141678572Y-84263928D02*
X142035715Y-84263928D01*
X141607143Y-84478214D02*
X141857143Y-83728214D01*
X141857143Y-83728214D02*
X142107143Y-84478214D01*
X142357143Y-84478214D02*
X142357143Y-83728214D01*
X142357143Y-83728214D02*
X142785714Y-84478214D01*
X142785714Y-84478214D02*
X142785714Y-83728214D01*
X143500000Y-84478214D02*
X143142857Y-84478214D01*
X143142857Y-84478214D02*
X143142857Y-83728214D01*
X143750000Y-84478214D02*
X143750000Y-83728214D01*
X144107143Y-84478214D02*
X144107143Y-83728214D01*
X144107143Y-83728214D02*
X144535714Y-84478214D01*
X144535714Y-84478214D02*
X144535714Y-83728214D01*
X144892857Y-84085357D02*
X145142857Y-84085357D01*
X145250000Y-84478214D02*
X144892857Y-84478214D01*
X144892857Y-84478214D02*
X144892857Y-83728214D01*
X144892857Y-83728214D02*
X145250000Y-83728214D01*
X139107142Y-84943214D02*
X139571428Y-84943214D01*
X139571428Y-84943214D02*
X139321428Y-85228928D01*
X139321428Y-85228928D02*
X139428571Y-85228928D01*
X139428571Y-85228928D02*
X139500000Y-85264642D01*
X139500000Y-85264642D02*
X139535714Y-85300357D01*
X139535714Y-85300357D02*
X139571428Y-85371785D01*
X139571428Y-85371785D02*
X139571428Y-85550357D01*
X139571428Y-85550357D02*
X139535714Y-85621785D01*
X139535714Y-85621785D02*
X139500000Y-85657500D01*
X139500000Y-85657500D02*
X139428571Y-85693214D01*
X139428571Y-85693214D02*
X139214285Y-85693214D01*
X139214285Y-85693214D02*
X139142857Y-85657500D01*
X139142857Y-85657500D02*
X139107142Y-85621785D01*
X139892857Y-85621785D02*
X139928571Y-85657500D01*
X139928571Y-85657500D02*
X139892857Y-85693214D01*
X139892857Y-85693214D02*
X139857143Y-85657500D01*
X139857143Y-85657500D02*
X139892857Y-85621785D01*
X139892857Y-85621785D02*
X139892857Y-85693214D01*
X139892857Y-85228928D02*
X139928571Y-85264642D01*
X139928571Y-85264642D02*
X139892857Y-85300357D01*
X139892857Y-85300357D02*
X139857143Y-85264642D01*
X139857143Y-85264642D02*
X139892857Y-85228928D01*
X139892857Y-85228928D02*
X139892857Y-85300357D01*
X140642857Y-84978928D02*
X140571429Y-84943214D01*
X140571429Y-84943214D02*
X140464286Y-84943214D01*
X140464286Y-84943214D02*
X140357143Y-84978928D01*
X140357143Y-84978928D02*
X140285714Y-85050357D01*
X140285714Y-85050357D02*
X140250000Y-85121785D01*
X140250000Y-85121785D02*
X140214286Y-85264642D01*
X140214286Y-85264642D02*
X140214286Y-85371785D01*
X140214286Y-85371785D02*
X140250000Y-85514642D01*
X140250000Y-85514642D02*
X140285714Y-85586071D01*
X140285714Y-85586071D02*
X140357143Y-85657500D01*
X140357143Y-85657500D02*
X140464286Y-85693214D01*
X140464286Y-85693214D02*
X140535714Y-85693214D01*
X140535714Y-85693214D02*
X140642857Y-85657500D01*
X140642857Y-85657500D02*
X140678571Y-85621785D01*
X140678571Y-85621785D02*
X140678571Y-85371785D01*
X140678571Y-85371785D02*
X140535714Y-85371785D01*
X141428571Y-85693214D02*
X141178571Y-85336071D01*
X141000000Y-85693214D02*
X141000000Y-84943214D01*
X141000000Y-84943214D02*
X141285714Y-84943214D01*
X141285714Y-84943214D02*
X141357143Y-84978928D01*
X141357143Y-84978928D02*
X141392857Y-85014642D01*
X141392857Y-85014642D02*
X141428571Y-85086071D01*
X141428571Y-85086071D02*
X141428571Y-85193214D01*
X141428571Y-85193214D02*
X141392857Y-85264642D01*
X141392857Y-85264642D02*
X141357143Y-85300357D01*
X141357143Y-85300357D02*
X141285714Y-85336071D01*
X141285714Y-85336071D02*
X141000000Y-85336071D01*
X141892857Y-84943214D02*
X142035714Y-84943214D01*
X142035714Y-84943214D02*
X142107143Y-84978928D01*
X142107143Y-84978928D02*
X142178571Y-85050357D01*
X142178571Y-85050357D02*
X142214286Y-85193214D01*
X142214286Y-85193214D02*
X142214286Y-85443214D01*
X142214286Y-85443214D02*
X142178571Y-85586071D01*
X142178571Y-85586071D02*
X142107143Y-85657500D01*
X142107143Y-85657500D02*
X142035714Y-85693214D01*
X142035714Y-85693214D02*
X141892857Y-85693214D01*
X141892857Y-85693214D02*
X141821429Y-85657500D01*
X141821429Y-85657500D02*
X141750000Y-85586071D01*
X141750000Y-85586071D02*
X141714286Y-85443214D01*
X141714286Y-85443214D02*
X141714286Y-85193214D01*
X141714286Y-85193214D02*
X141750000Y-85050357D01*
X141750000Y-85050357D02*
X141821429Y-84978928D01*
X141821429Y-84978928D02*
X141892857Y-84943214D01*
X142535714Y-85693214D02*
X142535714Y-84943214D01*
X142535714Y-84943214D02*
X142785714Y-85478928D01*
X142785714Y-85478928D02*
X143035714Y-84943214D01*
X143035714Y-84943214D02*
X143035714Y-85693214D01*
X143821428Y-85621785D02*
X143785714Y-85657500D01*
X143785714Y-85657500D02*
X143678571Y-85693214D01*
X143678571Y-85693214D02*
X143607143Y-85693214D01*
X143607143Y-85693214D02*
X143500000Y-85657500D01*
X143500000Y-85657500D02*
X143428571Y-85586071D01*
X143428571Y-85586071D02*
X143392857Y-85514642D01*
X143392857Y-85514642D02*
X143357143Y-85371785D01*
X143357143Y-85371785D02*
X143357143Y-85264642D01*
X143357143Y-85264642D02*
X143392857Y-85121785D01*
X143392857Y-85121785D02*
X143428571Y-85050357D01*
X143428571Y-85050357D02*
X143500000Y-84978928D01*
X143500000Y-84978928D02*
X143607143Y-84943214D01*
X143607143Y-84943214D02*
X143678571Y-84943214D01*
X143678571Y-84943214D02*
X143785714Y-84978928D01*
X143785714Y-84978928D02*
X143821428Y-85014642D01*
X144500000Y-85693214D02*
X144142857Y-85693214D01*
X144142857Y-85693214D02*
X144142857Y-84943214D01*
X144750000Y-85693214D02*
X144750000Y-84943214D01*
X145178571Y-85693214D02*
X144857143Y-85264642D01*
X145178571Y-84943214D02*
X144750000Y-85371785D01*
X139500000Y-86408214D02*
X139500000Y-86908214D01*
X139321428Y-86122500D02*
X139142857Y-86658214D01*
X139142857Y-86658214D02*
X139607142Y-86658214D01*
X139892857Y-86836785D02*
X139928571Y-86872500D01*
X139928571Y-86872500D02*
X139892857Y-86908214D01*
X139892857Y-86908214D02*
X139857143Y-86872500D01*
X139857143Y-86872500D02*
X139892857Y-86836785D01*
X139892857Y-86836785D02*
X139892857Y-86908214D01*
X139892857Y-86443928D02*
X139928571Y-86479642D01*
X139928571Y-86479642D02*
X139892857Y-86515357D01*
X139892857Y-86515357D02*
X139857143Y-86479642D01*
X139857143Y-86479642D02*
X139892857Y-86443928D01*
X139892857Y-86443928D02*
X139892857Y-86515357D01*
X140678571Y-86836785D02*
X140642857Y-86872500D01*
X140642857Y-86872500D02*
X140535714Y-86908214D01*
X140535714Y-86908214D02*
X140464286Y-86908214D01*
X140464286Y-86908214D02*
X140357143Y-86872500D01*
X140357143Y-86872500D02*
X140285714Y-86801071D01*
X140285714Y-86801071D02*
X140250000Y-86729642D01*
X140250000Y-86729642D02*
X140214286Y-86586785D01*
X140214286Y-86586785D02*
X140214286Y-86479642D01*
X140214286Y-86479642D02*
X140250000Y-86336785D01*
X140250000Y-86336785D02*
X140285714Y-86265357D01*
X140285714Y-86265357D02*
X140357143Y-86193928D01*
X140357143Y-86193928D02*
X140464286Y-86158214D01*
X140464286Y-86158214D02*
X140535714Y-86158214D01*
X140535714Y-86158214D02*
X140642857Y-86193928D01*
X140642857Y-86193928D02*
X140678571Y-86229642D01*
X141000000Y-86908214D02*
X141000000Y-86158214D01*
X141000000Y-86158214D02*
X141285714Y-86158214D01*
X141285714Y-86158214D02*
X141357143Y-86193928D01*
X141357143Y-86193928D02*
X141392857Y-86229642D01*
X141392857Y-86229642D02*
X141428571Y-86301071D01*
X141428571Y-86301071D02*
X141428571Y-86408214D01*
X141428571Y-86408214D02*
X141392857Y-86479642D01*
X141392857Y-86479642D02*
X141357143Y-86515357D01*
X141357143Y-86515357D02*
X141285714Y-86551071D01*
X141285714Y-86551071D02*
X141000000Y-86551071D01*
X141750000Y-86158214D02*
X141750000Y-86765357D01*
X141750000Y-86765357D02*
X141785714Y-86836785D01*
X141785714Y-86836785D02*
X141821429Y-86872500D01*
X141821429Y-86872500D02*
X141892857Y-86908214D01*
X141892857Y-86908214D02*
X142035714Y-86908214D01*
X142035714Y-86908214D02*
X142107143Y-86872500D01*
X142107143Y-86872500D02*
X142142857Y-86836785D01*
X142142857Y-86836785D02*
X142178571Y-86765357D01*
X142178571Y-86765357D02*
X142178571Y-86158214D01*
X142964285Y-86836785D02*
X142928571Y-86872500D01*
X142928571Y-86872500D02*
X142821428Y-86908214D01*
X142821428Y-86908214D02*
X142750000Y-86908214D01*
X142750000Y-86908214D02*
X142642857Y-86872500D01*
X142642857Y-86872500D02*
X142571428Y-86801071D01*
X142571428Y-86801071D02*
X142535714Y-86729642D01*
X142535714Y-86729642D02*
X142500000Y-86586785D01*
X142500000Y-86586785D02*
X142500000Y-86479642D01*
X142500000Y-86479642D02*
X142535714Y-86336785D01*
X142535714Y-86336785D02*
X142571428Y-86265357D01*
X142571428Y-86265357D02*
X142642857Y-86193928D01*
X142642857Y-86193928D02*
X142750000Y-86158214D01*
X142750000Y-86158214D02*
X142821428Y-86158214D01*
X142821428Y-86158214D02*
X142928571Y-86193928D01*
X142928571Y-86193928D02*
X142964285Y-86229642D01*
X143642857Y-86908214D02*
X143285714Y-86908214D01*
X143285714Y-86908214D02*
X143285714Y-86158214D01*
X143892857Y-86908214D02*
X143892857Y-86158214D01*
X144321428Y-86908214D02*
X144000000Y-86479642D01*
X144321428Y-86158214D02*
X143892857Y-86586785D01*
X143160712Y-45658214D02*
X143589284Y-45658214D01*
X143374998Y-46408214D02*
X143374998Y-45658214D01*
X143839284Y-46408214D02*
X143839284Y-45658214D01*
X143839284Y-45658214D02*
X144267855Y-46408214D01*
X144267855Y-46408214D02*
X144267855Y-45658214D01*
X144624998Y-46122500D02*
X145196427Y-46122500D01*
X145446426Y-45658214D02*
X145696426Y-46408214D01*
X145696426Y-46408214D02*
X145946426Y-45658214D01*
X146196426Y-46408214D02*
X146196426Y-45658214D01*
X146196426Y-45658214D02*
X146374997Y-45658214D01*
X146374997Y-45658214D02*
X146482140Y-45693928D01*
X146482140Y-45693928D02*
X146553569Y-45765357D01*
X146553569Y-45765357D02*
X146589283Y-45836785D01*
X146589283Y-45836785D02*
X146624997Y-45979642D01*
X146624997Y-45979642D02*
X146624997Y-46086785D01*
X146624997Y-46086785D02*
X146589283Y-46229642D01*
X146589283Y-46229642D02*
X146553569Y-46301071D01*
X146553569Y-46301071D02*
X146482140Y-46372500D01*
X146482140Y-46372500D02*
X146374997Y-46408214D01*
X146374997Y-46408214D02*
X146196426Y-46408214D01*
X146946426Y-46408214D02*
X146946426Y-45658214D01*
X146946426Y-45658214D02*
X147232140Y-45658214D01*
X147232140Y-45658214D02*
X147303569Y-45693928D01*
X147303569Y-45693928D02*
X147339283Y-45729642D01*
X147339283Y-45729642D02*
X147374997Y-45801071D01*
X147374997Y-45801071D02*
X147374997Y-45908214D01*
X147374997Y-45908214D02*
X147339283Y-45979642D01*
X147339283Y-45979642D02*
X147303569Y-46015357D01*
X147303569Y-46015357D02*
X147232140Y-46051071D01*
X147232140Y-46051071D02*
X146946426Y-46051071D01*
X148232141Y-45729642D02*
X148267855Y-45693928D01*
X148267855Y-45693928D02*
X148339284Y-45658214D01*
X148339284Y-45658214D02*
X148517855Y-45658214D01*
X148517855Y-45658214D02*
X148589284Y-45693928D01*
X148589284Y-45693928D02*
X148624998Y-45729642D01*
X148624998Y-45729642D02*
X148660712Y-45801071D01*
X148660712Y-45801071D02*
X148660712Y-45872500D01*
X148660712Y-45872500D02*
X148624998Y-45979642D01*
X148624998Y-45979642D02*
X148196426Y-46408214D01*
X148196426Y-46408214D02*
X148660712Y-46408214D01*
X149124998Y-45658214D02*
X149196427Y-45658214D01*
X149196427Y-45658214D02*
X149267855Y-45693928D01*
X149267855Y-45693928D02*
X149303570Y-45729642D01*
X149303570Y-45729642D02*
X149339284Y-45801071D01*
X149339284Y-45801071D02*
X149374998Y-45943928D01*
X149374998Y-45943928D02*
X149374998Y-46122500D01*
X149374998Y-46122500D02*
X149339284Y-46265357D01*
X149339284Y-46265357D02*
X149303570Y-46336785D01*
X149303570Y-46336785D02*
X149267855Y-46372500D01*
X149267855Y-46372500D02*
X149196427Y-46408214D01*
X149196427Y-46408214D02*
X149124998Y-46408214D01*
X149124998Y-46408214D02*
X149053570Y-46372500D01*
X149053570Y-46372500D02*
X149017855Y-46336785D01*
X149017855Y-46336785D02*
X148982141Y-46265357D01*
X148982141Y-46265357D02*
X148946427Y-46122500D01*
X148946427Y-46122500D02*
X148946427Y-45943928D01*
X148946427Y-45943928D02*
X148982141Y-45801071D01*
X148982141Y-45801071D02*
X149017855Y-45729642D01*
X149017855Y-45729642D02*
X149053570Y-45693928D01*
X149053570Y-45693928D02*
X149124998Y-45658214D01*
X149696427Y-46408214D02*
X149696427Y-45658214D01*
X150124998Y-46408214D02*
X149803570Y-45979642D01*
X150124998Y-45658214D02*
X149696427Y-46086785D01*
X150946427Y-45908214D02*
X151124999Y-46408214D01*
X151124999Y-46408214D02*
X151303570Y-45908214D01*
X151553571Y-45729642D02*
X151589285Y-45693928D01*
X151589285Y-45693928D02*
X151660714Y-45658214D01*
X151660714Y-45658214D02*
X151839285Y-45658214D01*
X151839285Y-45658214D02*
X151910714Y-45693928D01*
X151910714Y-45693928D02*
X151946428Y-45729642D01*
X151946428Y-45729642D02*
X151982142Y-45801071D01*
X151982142Y-45801071D02*
X151982142Y-45872500D01*
X151982142Y-45872500D02*
X151946428Y-45979642D01*
X151946428Y-45979642D02*
X151517856Y-46408214D01*
X151517856Y-46408214D02*
X151982142Y-46408214D01*
X152303571Y-46336785D02*
X152339285Y-46372500D01*
X152339285Y-46372500D02*
X152303571Y-46408214D01*
X152303571Y-46408214D02*
X152267857Y-46372500D01*
X152267857Y-46372500D02*
X152303571Y-46336785D01*
X152303571Y-46336785D02*
X152303571Y-46408214D01*
X152803571Y-45658214D02*
X152875000Y-45658214D01*
X152875000Y-45658214D02*
X152946428Y-45693928D01*
X152946428Y-45693928D02*
X152982143Y-45729642D01*
X152982143Y-45729642D02*
X153017857Y-45801071D01*
X153017857Y-45801071D02*
X153053571Y-45943928D01*
X153053571Y-45943928D02*
X153053571Y-46122500D01*
X153053571Y-46122500D02*
X153017857Y-46265357D01*
X153017857Y-46265357D02*
X152982143Y-46336785D01*
X152982143Y-46336785D02*
X152946428Y-46372500D01*
X152946428Y-46372500D02*
X152875000Y-46408214D01*
X152875000Y-46408214D02*
X152803571Y-46408214D01*
X152803571Y-46408214D02*
X152732143Y-46372500D01*
X152732143Y-46372500D02*
X152696428Y-46336785D01*
X152696428Y-46336785D02*
X152660714Y-46265357D01*
X152660714Y-46265357D02*
X152625000Y-46122500D01*
X152625000Y-46122500D02*
X152625000Y-45943928D01*
X152625000Y-45943928D02*
X152660714Y-45801071D01*
X152660714Y-45801071D02*
X152696428Y-45729642D01*
X152696428Y-45729642D02*
X152732143Y-45693928D01*
X152732143Y-45693928D02*
X152803571Y-45658214D01*
X153767857Y-46408214D02*
X153339286Y-46408214D01*
X153553571Y-46408214D02*
X153553571Y-45658214D01*
X153553571Y-45658214D02*
X153482143Y-45765357D01*
X153482143Y-45765357D02*
X153410714Y-45836785D01*
X153410714Y-45836785D02*
X153339286Y-45872500D01*
X154660715Y-46122500D02*
X155232144Y-46122500D01*
X156125001Y-45729642D02*
X156160715Y-45693928D01*
X156160715Y-45693928D02*
X156232144Y-45658214D01*
X156232144Y-45658214D02*
X156410715Y-45658214D01*
X156410715Y-45658214D02*
X156482144Y-45693928D01*
X156482144Y-45693928D02*
X156517858Y-45729642D01*
X156517858Y-45729642D02*
X156553572Y-45801071D01*
X156553572Y-45801071D02*
X156553572Y-45872500D01*
X156553572Y-45872500D02*
X156517858Y-45979642D01*
X156517858Y-45979642D02*
X156089286Y-46408214D01*
X156089286Y-46408214D02*
X156553572Y-46408214D01*
X157017858Y-45658214D02*
X157089287Y-45658214D01*
X157089287Y-45658214D02*
X157160715Y-45693928D01*
X157160715Y-45693928D02*
X157196430Y-45729642D01*
X157196430Y-45729642D02*
X157232144Y-45801071D01*
X157232144Y-45801071D02*
X157267858Y-45943928D01*
X157267858Y-45943928D02*
X157267858Y-46122500D01*
X157267858Y-46122500D02*
X157232144Y-46265357D01*
X157232144Y-46265357D02*
X157196430Y-46336785D01*
X157196430Y-46336785D02*
X157160715Y-46372500D01*
X157160715Y-46372500D02*
X157089287Y-46408214D01*
X157089287Y-46408214D02*
X157017858Y-46408214D01*
X157017858Y-46408214D02*
X156946430Y-46372500D01*
X156946430Y-46372500D02*
X156910715Y-46336785D01*
X156910715Y-46336785D02*
X156875001Y-46265357D01*
X156875001Y-46265357D02*
X156839287Y-46122500D01*
X156839287Y-46122500D02*
X156839287Y-45943928D01*
X156839287Y-45943928D02*
X156875001Y-45801071D01*
X156875001Y-45801071D02*
X156910715Y-45729642D01*
X156910715Y-45729642D02*
X156946430Y-45693928D01*
X156946430Y-45693928D02*
X157017858Y-45658214D01*
X157553573Y-45729642D02*
X157589287Y-45693928D01*
X157589287Y-45693928D02*
X157660716Y-45658214D01*
X157660716Y-45658214D02*
X157839287Y-45658214D01*
X157839287Y-45658214D02*
X157910716Y-45693928D01*
X157910716Y-45693928D02*
X157946430Y-45729642D01*
X157946430Y-45729642D02*
X157982144Y-45801071D01*
X157982144Y-45801071D02*
X157982144Y-45872500D01*
X157982144Y-45872500D02*
X157946430Y-45979642D01*
X157946430Y-45979642D02*
X157517858Y-46408214D01*
X157517858Y-46408214D02*
X157982144Y-46408214D01*
X158232144Y-45658214D02*
X158696430Y-45658214D01*
X158696430Y-45658214D02*
X158446430Y-45943928D01*
X158446430Y-45943928D02*
X158553573Y-45943928D01*
X158553573Y-45943928D02*
X158625002Y-45979642D01*
X158625002Y-45979642D02*
X158660716Y-46015357D01*
X158660716Y-46015357D02*
X158696430Y-46086785D01*
X158696430Y-46086785D02*
X158696430Y-46265357D01*
X158696430Y-46265357D02*
X158660716Y-46336785D01*
X158660716Y-46336785D02*
X158625002Y-46372500D01*
X158625002Y-46372500D02*
X158553573Y-46408214D01*
X158553573Y-46408214D02*
X158339287Y-46408214D01*
X158339287Y-46408214D02*
X158267859Y-46372500D01*
X158267859Y-46372500D02*
X158232144Y-46336785D01*
X160017859Y-46408214D02*
X159767859Y-46051071D01*
X159589288Y-46408214D02*
X159589288Y-45658214D01*
X159589288Y-45658214D02*
X159875002Y-45658214D01*
X159875002Y-45658214D02*
X159946431Y-45693928D01*
X159946431Y-45693928D02*
X159982145Y-45729642D01*
X159982145Y-45729642D02*
X160017859Y-45801071D01*
X160017859Y-45801071D02*
X160017859Y-45908214D01*
X160017859Y-45908214D02*
X159982145Y-45979642D01*
X159982145Y-45979642D02*
X159946431Y-46015357D01*
X159946431Y-46015357D02*
X159875002Y-46051071D01*
X159875002Y-46051071D02*
X159589288Y-46051071D01*
X160339288Y-46015357D02*
X160589288Y-46015357D01*
X160696431Y-46408214D02*
X160339288Y-46408214D01*
X160339288Y-46408214D02*
X160339288Y-45658214D01*
X160339288Y-45658214D02*
X160696431Y-45658214D01*
X161017859Y-46408214D02*
X161017859Y-45658214D01*
X161017859Y-45658214D02*
X161446430Y-46408214D01*
X161446430Y-46408214D02*
X161446430Y-45658214D01*
X161803573Y-46408214D02*
X161803573Y-45658214D01*
X161803573Y-45658214D02*
X161982144Y-45658214D01*
X161982144Y-45658214D02*
X162089287Y-45693928D01*
X162089287Y-45693928D02*
X162160716Y-45765357D01*
X162160716Y-45765357D02*
X162196430Y-45836785D01*
X162196430Y-45836785D02*
X162232144Y-45979642D01*
X162232144Y-45979642D02*
X162232144Y-46086785D01*
X162232144Y-46086785D02*
X162196430Y-46229642D01*
X162196430Y-46229642D02*
X162160716Y-46301071D01*
X162160716Y-46301071D02*
X162089287Y-46372500D01*
X162089287Y-46372500D02*
X161982144Y-46408214D01*
X161982144Y-46408214D02*
X161803573Y-46408214D01*
X162553573Y-46015357D02*
X162803573Y-46015357D01*
X162910716Y-46408214D02*
X162553573Y-46408214D01*
X162553573Y-46408214D02*
X162553573Y-45658214D01*
X162553573Y-45658214D02*
X162910716Y-45658214D01*
X163660715Y-46408214D02*
X163410715Y-46051071D01*
X163232144Y-46408214D02*
X163232144Y-45658214D01*
X163232144Y-45658214D02*
X163517858Y-45658214D01*
X163517858Y-45658214D02*
X163589287Y-45693928D01*
X163589287Y-45693928D02*
X163625001Y-45729642D01*
X163625001Y-45729642D02*
X163660715Y-45801071D01*
X163660715Y-45801071D02*
X163660715Y-45908214D01*
X163660715Y-45908214D02*
X163625001Y-45979642D01*
X163625001Y-45979642D02*
X163589287Y-46015357D01*
X163589287Y-46015357D02*
X163517858Y-46051071D01*
X163517858Y-46051071D02*
X163232144Y-46051071D01*
X163982144Y-46015357D02*
X164232144Y-46015357D01*
X164339287Y-46408214D02*
X163982144Y-46408214D01*
X163982144Y-46408214D02*
X163982144Y-45658214D01*
X163982144Y-45658214D02*
X164339287Y-45658214D01*
X164660715Y-46408214D02*
X164660715Y-45658214D01*
X164660715Y-45658214D02*
X165089286Y-46408214D01*
X165089286Y-46408214D02*
X165089286Y-45658214D01*
X165839286Y-45693928D02*
X165767858Y-45658214D01*
X165767858Y-45658214D02*
X165660715Y-45658214D01*
X165660715Y-45658214D02*
X165553572Y-45693928D01*
X165553572Y-45693928D02*
X165482143Y-45765357D01*
X165482143Y-45765357D02*
X165446429Y-45836785D01*
X165446429Y-45836785D02*
X165410715Y-45979642D01*
X165410715Y-45979642D02*
X165410715Y-46086785D01*
X165410715Y-46086785D02*
X165446429Y-46229642D01*
X165446429Y-46229642D02*
X165482143Y-46301071D01*
X165482143Y-46301071D02*
X165553572Y-46372500D01*
X165553572Y-46372500D02*
X165660715Y-46408214D01*
X165660715Y-46408214D02*
X165732143Y-46408214D01*
X165732143Y-46408214D02*
X165839286Y-46372500D01*
X165839286Y-46372500D02*
X165875000Y-46336785D01*
X165875000Y-46336785D02*
X165875000Y-46086785D01*
X165875000Y-46086785D02*
X165732143Y-46086785D01*
X166767858Y-46122500D02*
X167339287Y-46122500D01*
X168625001Y-46408214D02*
X168267858Y-46408214D01*
X168267858Y-46408214D02*
X168267858Y-45658214D01*
X168875001Y-45658214D02*
X168875001Y-46265357D01*
X168875001Y-46265357D02*
X168910715Y-46336785D01*
X168910715Y-46336785D02*
X168946430Y-46372500D01*
X168946430Y-46372500D02*
X169017858Y-46408214D01*
X169017858Y-46408214D02*
X169160715Y-46408214D01*
X169160715Y-46408214D02*
X169232144Y-46372500D01*
X169232144Y-46372500D02*
X169267858Y-46336785D01*
X169267858Y-46336785D02*
X169303572Y-46265357D01*
X169303572Y-46265357D02*
X169303572Y-45658214D01*
X169660715Y-46408214D02*
X169660715Y-45658214D01*
X169982144Y-46372500D02*
X170089287Y-46408214D01*
X170089287Y-46408214D02*
X170267858Y-46408214D01*
X170267858Y-46408214D02*
X170339287Y-46372500D01*
X170339287Y-46372500D02*
X170375001Y-46336785D01*
X170375001Y-46336785D02*
X170410715Y-46265357D01*
X170410715Y-46265357D02*
X170410715Y-46193928D01*
X170410715Y-46193928D02*
X170375001Y-46122500D01*
X170375001Y-46122500D02*
X170339287Y-46086785D01*
X170339287Y-46086785D02*
X170267858Y-46051071D01*
X170267858Y-46051071D02*
X170125001Y-46015357D01*
X170125001Y-46015357D02*
X170053572Y-45979642D01*
X170053572Y-45979642D02*
X170017858Y-45943928D01*
X170017858Y-45943928D02*
X169982144Y-45872500D01*
X169982144Y-45872500D02*
X169982144Y-45801071D01*
X169982144Y-45801071D02*
X170017858Y-45729642D01*
X170017858Y-45729642D02*
X170053572Y-45693928D01*
X170053572Y-45693928D02*
X170125001Y-45658214D01*
X170125001Y-45658214D02*
X170303572Y-45658214D01*
X170303572Y-45658214D02*
X170410715Y-45693928D01*
X171267859Y-46193928D02*
X171625002Y-46193928D01*
X171196430Y-46408214D02*
X171446430Y-45658214D01*
X171446430Y-45658214D02*
X171696430Y-46408214D01*
X171946430Y-46408214D02*
X171946430Y-45658214D01*
X171946430Y-45658214D02*
X172375001Y-46408214D01*
X172375001Y-46408214D02*
X172375001Y-45658214D01*
X172625001Y-45658214D02*
X173053573Y-45658214D01*
X172839287Y-46408214D02*
X172839287Y-45658214D01*
X173446430Y-45658214D02*
X173589287Y-45658214D01*
X173589287Y-45658214D02*
X173660716Y-45693928D01*
X173660716Y-45693928D02*
X173732144Y-45765357D01*
X173732144Y-45765357D02*
X173767859Y-45908214D01*
X173767859Y-45908214D02*
X173767859Y-46158214D01*
X173767859Y-46158214D02*
X173732144Y-46301071D01*
X173732144Y-46301071D02*
X173660716Y-46372500D01*
X173660716Y-46372500D02*
X173589287Y-46408214D01*
X173589287Y-46408214D02*
X173446430Y-46408214D01*
X173446430Y-46408214D02*
X173375002Y-46372500D01*
X173375002Y-46372500D02*
X173303573Y-46301071D01*
X173303573Y-46301071D02*
X173267859Y-46158214D01*
X173267859Y-46158214D02*
X173267859Y-45908214D01*
X173267859Y-45908214D02*
X173303573Y-45765357D01*
X173303573Y-45765357D02*
X173375002Y-45693928D01*
X173375002Y-45693928D02*
X173446430Y-45658214D01*
X174089287Y-46408214D02*
X174089287Y-45658214D01*
X174089287Y-45658214D02*
X174517858Y-46408214D01*
X174517858Y-46408214D02*
X174517858Y-45658214D01*
X174875001Y-46408214D02*
X174875001Y-45658214D01*
X175375001Y-45658214D02*
X175517858Y-45658214D01*
X175517858Y-45658214D02*
X175589287Y-45693928D01*
X175589287Y-45693928D02*
X175660715Y-45765357D01*
X175660715Y-45765357D02*
X175696430Y-45908214D01*
X175696430Y-45908214D02*
X175696430Y-46158214D01*
X175696430Y-46158214D02*
X175660715Y-46301071D01*
X175660715Y-46301071D02*
X175589287Y-46372500D01*
X175589287Y-46372500D02*
X175517858Y-46408214D01*
X175517858Y-46408214D02*
X175375001Y-46408214D01*
X175375001Y-46408214D02*
X175303573Y-46372500D01*
X175303573Y-46372500D02*
X175232144Y-46301071D01*
X175232144Y-46301071D02*
X175196430Y-46158214D01*
X175196430Y-46158214D02*
X175196430Y-45908214D01*
X175196430Y-45908214D02*
X175232144Y-45765357D01*
X175232144Y-45765357D02*
X175303573Y-45693928D01*
X175303573Y-45693928D02*
X175375001Y-45658214D01*
X175982144Y-46372500D02*
X176089287Y-46408214D01*
X176089287Y-46408214D02*
X176267858Y-46408214D01*
X176267858Y-46408214D02*
X176339287Y-46372500D01*
X176339287Y-46372500D02*
X176375001Y-46336785D01*
X176375001Y-46336785D02*
X176410715Y-46265357D01*
X176410715Y-46265357D02*
X176410715Y-46193928D01*
X176410715Y-46193928D02*
X176375001Y-46122500D01*
X176375001Y-46122500D02*
X176339287Y-46086785D01*
X176339287Y-46086785D02*
X176267858Y-46051071D01*
X176267858Y-46051071D02*
X176125001Y-46015357D01*
X176125001Y-46015357D02*
X176053572Y-45979642D01*
X176053572Y-45979642D02*
X176017858Y-45943928D01*
X176017858Y-45943928D02*
X175982144Y-45872500D01*
X175982144Y-45872500D02*
X175982144Y-45801071D01*
X175982144Y-45801071D02*
X176017858Y-45729642D01*
X176017858Y-45729642D02*
X176053572Y-45693928D01*
X176053572Y-45693928D02*
X176125001Y-45658214D01*
X176125001Y-45658214D02*
X176303572Y-45658214D01*
X176303572Y-45658214D02*
X176410715Y-45693928D01*
X176732144Y-46408214D02*
X176732144Y-45658214D01*
X156571428Y-47658214D02*
X157000000Y-47658214D01*
X156785714Y-48408214D02*
X156785714Y-47658214D01*
X157250000Y-48408214D02*
X157250000Y-47658214D01*
X157250000Y-47658214D02*
X157678571Y-48408214D01*
X157678571Y-48408214D02*
X157678571Y-47658214D01*
X158000000Y-47729642D02*
X158035714Y-47693928D01*
X158035714Y-47693928D02*
X158107143Y-47658214D01*
X158107143Y-47658214D02*
X158285714Y-47658214D01*
X158285714Y-47658214D02*
X158357143Y-47693928D01*
X158357143Y-47693928D02*
X158392857Y-47729642D01*
X158392857Y-47729642D02*
X158428571Y-47801071D01*
X158428571Y-47801071D02*
X158428571Y-47872500D01*
X158428571Y-47872500D02*
X158392857Y-47979642D01*
X158392857Y-47979642D02*
X157964285Y-48408214D01*
X157964285Y-48408214D02*
X158428571Y-48408214D01*
X158892857Y-47658214D02*
X158964286Y-47658214D01*
X158964286Y-47658214D02*
X159035714Y-47693928D01*
X159035714Y-47693928D02*
X159071429Y-47729642D01*
X159071429Y-47729642D02*
X159107143Y-47801071D01*
X159107143Y-47801071D02*
X159142857Y-47943928D01*
X159142857Y-47943928D02*
X159142857Y-48122500D01*
X159142857Y-48122500D02*
X159107143Y-48265357D01*
X159107143Y-48265357D02*
X159071429Y-48336785D01*
X159071429Y-48336785D02*
X159035714Y-48372500D01*
X159035714Y-48372500D02*
X158964286Y-48408214D01*
X158964286Y-48408214D02*
X158892857Y-48408214D01*
X158892857Y-48408214D02*
X158821429Y-48372500D01*
X158821429Y-48372500D02*
X158785714Y-48336785D01*
X158785714Y-48336785D02*
X158750000Y-48265357D01*
X158750000Y-48265357D02*
X158714286Y-48122500D01*
X158714286Y-48122500D02*
X158714286Y-47943928D01*
X158714286Y-47943928D02*
X158750000Y-47801071D01*
X158750000Y-47801071D02*
X158785714Y-47729642D01*
X158785714Y-47729642D02*
X158821429Y-47693928D01*
X158821429Y-47693928D02*
X158892857Y-47658214D01*
X159464286Y-48408214D02*
X159464286Y-47658214D01*
X159892857Y-48408214D02*
X159571429Y-47979642D01*
X159892857Y-47658214D02*
X159464286Y-48086785D01*
X160785715Y-47658214D02*
X160785715Y-48265357D01*
X160785715Y-48265357D02*
X160821429Y-48336785D01*
X160821429Y-48336785D02*
X160857144Y-48372500D01*
X160857144Y-48372500D02*
X160928572Y-48408214D01*
X160928572Y-48408214D02*
X161071429Y-48408214D01*
X161071429Y-48408214D02*
X161142858Y-48372500D01*
X161142858Y-48372500D02*
X161178572Y-48336785D01*
X161178572Y-48336785D02*
X161214286Y-48265357D01*
X161214286Y-48265357D02*
X161214286Y-47658214D01*
X161535715Y-48372500D02*
X161642858Y-48408214D01*
X161642858Y-48408214D02*
X161821429Y-48408214D01*
X161821429Y-48408214D02*
X161892858Y-48372500D01*
X161892858Y-48372500D02*
X161928572Y-48336785D01*
X161928572Y-48336785D02*
X161964286Y-48265357D01*
X161964286Y-48265357D02*
X161964286Y-48193928D01*
X161964286Y-48193928D02*
X161928572Y-48122500D01*
X161928572Y-48122500D02*
X161892858Y-48086785D01*
X161892858Y-48086785D02*
X161821429Y-48051071D01*
X161821429Y-48051071D02*
X161678572Y-48015357D01*
X161678572Y-48015357D02*
X161607143Y-47979642D01*
X161607143Y-47979642D02*
X161571429Y-47943928D01*
X161571429Y-47943928D02*
X161535715Y-47872500D01*
X161535715Y-47872500D02*
X161535715Y-47801071D01*
X161535715Y-47801071D02*
X161571429Y-47729642D01*
X161571429Y-47729642D02*
X161607143Y-47693928D01*
X161607143Y-47693928D02*
X161678572Y-47658214D01*
X161678572Y-47658214D02*
X161857143Y-47658214D01*
X161857143Y-47658214D02*
X161964286Y-47693928D01*
X162535715Y-48015357D02*
X162642858Y-48051071D01*
X162642858Y-48051071D02*
X162678572Y-48086785D01*
X162678572Y-48086785D02*
X162714286Y-48158214D01*
X162714286Y-48158214D02*
X162714286Y-48265357D01*
X162714286Y-48265357D02*
X162678572Y-48336785D01*
X162678572Y-48336785D02*
X162642858Y-48372500D01*
X162642858Y-48372500D02*
X162571429Y-48408214D01*
X162571429Y-48408214D02*
X162285715Y-48408214D01*
X162285715Y-48408214D02*
X162285715Y-47658214D01*
X162285715Y-47658214D02*
X162535715Y-47658214D01*
X162535715Y-47658214D02*
X162607144Y-47693928D01*
X162607144Y-47693928D02*
X162642858Y-47729642D01*
X162642858Y-47729642D02*
X162678572Y-47801071D01*
X162678572Y-47801071D02*
X162678572Y-47872500D01*
X162678572Y-47872500D02*
X162642858Y-47943928D01*
X162642858Y-47943928D02*
X162607144Y-47979642D01*
X162607144Y-47979642D02*
X162535715Y-48015357D01*
X162535715Y-48015357D02*
X162285715Y-48015357D01*
X163035715Y-48122500D02*
X163607144Y-48122500D01*
X164392857Y-48336785D02*
X164357143Y-48372500D01*
X164357143Y-48372500D02*
X164250000Y-48408214D01*
X164250000Y-48408214D02*
X164178572Y-48408214D01*
X164178572Y-48408214D02*
X164071429Y-48372500D01*
X164071429Y-48372500D02*
X164000000Y-48301071D01*
X164000000Y-48301071D02*
X163964286Y-48229642D01*
X163964286Y-48229642D02*
X163928572Y-48086785D01*
X163928572Y-48086785D02*
X163928572Y-47979642D01*
X163928572Y-47979642D02*
X163964286Y-47836785D01*
X163964286Y-47836785D02*
X164000000Y-47765357D01*
X164000000Y-47765357D02*
X164071429Y-47693928D01*
X164071429Y-47693928D02*
X164178572Y-47658214D01*
X164178572Y-47658214D02*
X164250000Y-47658214D01*
X164250000Y-47658214D02*
X164357143Y-47693928D01*
X164357143Y-47693928D02*
X164392857Y-47729642D01*
X165250001Y-48372500D02*
X165357144Y-48408214D01*
X165357144Y-48408214D02*
X165535715Y-48408214D01*
X165535715Y-48408214D02*
X165607144Y-48372500D01*
X165607144Y-48372500D02*
X165642858Y-48336785D01*
X165642858Y-48336785D02*
X165678572Y-48265357D01*
X165678572Y-48265357D02*
X165678572Y-48193928D01*
X165678572Y-48193928D02*
X165642858Y-48122500D01*
X165642858Y-48122500D02*
X165607144Y-48086785D01*
X165607144Y-48086785D02*
X165535715Y-48051071D01*
X165535715Y-48051071D02*
X165392858Y-48015357D01*
X165392858Y-48015357D02*
X165321429Y-47979642D01*
X165321429Y-47979642D02*
X165285715Y-47943928D01*
X165285715Y-47943928D02*
X165250001Y-47872500D01*
X165250001Y-47872500D02*
X165250001Y-47801071D01*
X165250001Y-47801071D02*
X165285715Y-47729642D01*
X165285715Y-47729642D02*
X165321429Y-47693928D01*
X165321429Y-47693928D02*
X165392858Y-47658214D01*
X165392858Y-47658214D02*
X165571429Y-47658214D01*
X165571429Y-47658214D02*
X165678572Y-47693928D01*
X166000001Y-48408214D02*
X166000001Y-47658214D01*
X166357144Y-48408214D02*
X166357144Y-47658214D01*
X166357144Y-47658214D02*
X166535715Y-47658214D01*
X166535715Y-47658214D02*
X166642858Y-47693928D01*
X166642858Y-47693928D02*
X166714287Y-47765357D01*
X166714287Y-47765357D02*
X166750001Y-47836785D01*
X166750001Y-47836785D02*
X166785715Y-47979642D01*
X166785715Y-47979642D02*
X166785715Y-48086785D01*
X166785715Y-48086785D02*
X166750001Y-48229642D01*
X166750001Y-48229642D02*
X166714287Y-48301071D01*
X166714287Y-48301071D02*
X166642858Y-48372500D01*
X166642858Y-48372500D02*
X166535715Y-48408214D01*
X166535715Y-48408214D02*
X166357144Y-48408214D01*
X167107144Y-48015357D02*
X167357144Y-48015357D01*
X167464287Y-48408214D02*
X167107144Y-48408214D01*
X167107144Y-48408214D02*
X167107144Y-47658214D01*
X167107144Y-47658214D02*
X167464287Y-47658214D01*
X155571428Y-110658214D02*
X156000000Y-110658214D01*
X155785714Y-111408214D02*
X155785714Y-110658214D01*
X156250000Y-111408214D02*
X156250000Y-110658214D01*
X156250000Y-110658214D02*
X156678571Y-111408214D01*
X156678571Y-111408214D02*
X156678571Y-110658214D01*
X157000000Y-110729642D02*
X157035714Y-110693928D01*
X157035714Y-110693928D02*
X157107143Y-110658214D01*
X157107143Y-110658214D02*
X157285714Y-110658214D01*
X157285714Y-110658214D02*
X157357143Y-110693928D01*
X157357143Y-110693928D02*
X157392857Y-110729642D01*
X157392857Y-110729642D02*
X157428571Y-110801071D01*
X157428571Y-110801071D02*
X157428571Y-110872500D01*
X157428571Y-110872500D02*
X157392857Y-110979642D01*
X157392857Y-110979642D02*
X156964285Y-111408214D01*
X156964285Y-111408214D02*
X157428571Y-111408214D01*
X157892857Y-110658214D02*
X157964286Y-110658214D01*
X157964286Y-110658214D02*
X158035714Y-110693928D01*
X158035714Y-110693928D02*
X158071429Y-110729642D01*
X158071429Y-110729642D02*
X158107143Y-110801071D01*
X158107143Y-110801071D02*
X158142857Y-110943928D01*
X158142857Y-110943928D02*
X158142857Y-111122500D01*
X158142857Y-111122500D02*
X158107143Y-111265357D01*
X158107143Y-111265357D02*
X158071429Y-111336785D01*
X158071429Y-111336785D02*
X158035714Y-111372500D01*
X158035714Y-111372500D02*
X157964286Y-111408214D01*
X157964286Y-111408214D02*
X157892857Y-111408214D01*
X157892857Y-111408214D02*
X157821429Y-111372500D01*
X157821429Y-111372500D02*
X157785714Y-111336785D01*
X157785714Y-111336785D02*
X157750000Y-111265357D01*
X157750000Y-111265357D02*
X157714286Y-111122500D01*
X157714286Y-111122500D02*
X157714286Y-110943928D01*
X157714286Y-110943928D02*
X157750000Y-110801071D01*
X157750000Y-110801071D02*
X157785714Y-110729642D01*
X157785714Y-110729642D02*
X157821429Y-110693928D01*
X157821429Y-110693928D02*
X157892857Y-110658214D01*
X158464286Y-111408214D02*
X158464286Y-110658214D01*
X158892857Y-111408214D02*
X158571429Y-110979642D01*
X158892857Y-110658214D02*
X158464286Y-111086785D01*
X159785715Y-111408214D02*
X159785715Y-110658214D01*
X159785715Y-111015357D02*
X160214286Y-111015357D01*
X160214286Y-111408214D02*
X160214286Y-110658214D01*
X160571429Y-111408214D02*
X160571429Y-110658214D01*
X160571429Y-110658214D02*
X160750000Y-110658214D01*
X160750000Y-110658214D02*
X160857143Y-110693928D01*
X160857143Y-110693928D02*
X160928572Y-110765357D01*
X160928572Y-110765357D02*
X160964286Y-110836785D01*
X160964286Y-110836785D02*
X161000000Y-110979642D01*
X161000000Y-110979642D02*
X161000000Y-111086785D01*
X161000000Y-111086785D02*
X160964286Y-111229642D01*
X160964286Y-111229642D02*
X160928572Y-111301071D01*
X160928572Y-111301071D02*
X160857143Y-111372500D01*
X160857143Y-111372500D02*
X160750000Y-111408214D01*
X160750000Y-111408214D02*
X160571429Y-111408214D01*
X161321429Y-111408214D02*
X161321429Y-110658214D01*
X161321429Y-110658214D02*
X161571429Y-111193928D01*
X161571429Y-111193928D02*
X161821429Y-110658214D01*
X161821429Y-110658214D02*
X161821429Y-111408214D01*
X162178572Y-111408214D02*
X162178572Y-110658214D01*
X163071430Y-111372500D02*
X163178573Y-111408214D01*
X163178573Y-111408214D02*
X163357144Y-111408214D01*
X163357144Y-111408214D02*
X163428573Y-111372500D01*
X163428573Y-111372500D02*
X163464287Y-111336785D01*
X163464287Y-111336785D02*
X163500001Y-111265357D01*
X163500001Y-111265357D02*
X163500001Y-111193928D01*
X163500001Y-111193928D02*
X163464287Y-111122500D01*
X163464287Y-111122500D02*
X163428573Y-111086785D01*
X163428573Y-111086785D02*
X163357144Y-111051071D01*
X163357144Y-111051071D02*
X163214287Y-111015357D01*
X163214287Y-111015357D02*
X163142858Y-110979642D01*
X163142858Y-110979642D02*
X163107144Y-110943928D01*
X163107144Y-110943928D02*
X163071430Y-110872500D01*
X163071430Y-110872500D02*
X163071430Y-110801071D01*
X163071430Y-110801071D02*
X163107144Y-110729642D01*
X163107144Y-110729642D02*
X163142858Y-110693928D01*
X163142858Y-110693928D02*
X163214287Y-110658214D01*
X163214287Y-110658214D02*
X163392858Y-110658214D01*
X163392858Y-110658214D02*
X163500001Y-110693928D01*
X163821430Y-111408214D02*
X163821430Y-110658214D01*
X164178573Y-111408214D02*
X164178573Y-110658214D01*
X164178573Y-110658214D02*
X164357144Y-110658214D01*
X164357144Y-110658214D02*
X164464287Y-110693928D01*
X164464287Y-110693928D02*
X164535716Y-110765357D01*
X164535716Y-110765357D02*
X164571430Y-110836785D01*
X164571430Y-110836785D02*
X164607144Y-110979642D01*
X164607144Y-110979642D02*
X164607144Y-111086785D01*
X164607144Y-111086785D02*
X164571430Y-111229642D01*
X164571430Y-111229642D02*
X164535716Y-111301071D01*
X164535716Y-111301071D02*
X164464287Y-111372500D01*
X164464287Y-111372500D02*
X164357144Y-111408214D01*
X164357144Y-111408214D02*
X164178573Y-111408214D01*
X164928573Y-111015357D02*
X165178573Y-111015357D01*
X165285716Y-111408214D02*
X164928573Y-111408214D01*
X164928573Y-111408214D02*
X164928573Y-110658214D01*
X164928573Y-110658214D02*
X165285716Y-110658214D01*
D11*
%TO.C,U3*%
X141736619Y-66182428D02*
X141736619Y-65515762D01*
X141736619Y-65515762D02*
X142736619Y-65944333D01*
X142069952Y-64706238D02*
X142736619Y-64706238D01*
X141689000Y-64944333D02*
X142403285Y-65182428D01*
X142403285Y-65182428D02*
X142403285Y-64563381D01*
X142736619Y-63706238D02*
X142736619Y-64182428D01*
X142736619Y-64182428D02*
X141736619Y-64182428D01*
X141736619Y-63515761D02*
X142736619Y-63182428D01*
X142736619Y-63182428D02*
X141736619Y-62849095D01*
X142641380Y-61944333D02*
X142689000Y-61991952D01*
X142689000Y-61991952D02*
X142736619Y-62134809D01*
X142736619Y-62134809D02*
X142736619Y-62230047D01*
X142736619Y-62230047D02*
X142689000Y-62372904D01*
X142689000Y-62372904D02*
X142593761Y-62468142D01*
X142593761Y-62468142D02*
X142498523Y-62515761D01*
X142498523Y-62515761D02*
X142308047Y-62563380D01*
X142308047Y-62563380D02*
X142165190Y-62563380D01*
X142165190Y-62563380D02*
X141974714Y-62515761D01*
X141974714Y-62515761D02*
X141879476Y-62468142D01*
X141879476Y-62468142D02*
X141784238Y-62372904D01*
X141784238Y-62372904D02*
X141736619Y-62230047D01*
X141736619Y-62230047D02*
X141736619Y-62134809D01*
X141736619Y-62134809D02*
X141784238Y-61991952D01*
X141784238Y-61991952D02*
X141831857Y-61944333D01*
X141831857Y-61563380D02*
X141784238Y-61515761D01*
X141784238Y-61515761D02*
X141736619Y-61420523D01*
X141736619Y-61420523D02*
X141736619Y-61182428D01*
X141736619Y-61182428D02*
X141784238Y-61087190D01*
X141784238Y-61087190D02*
X141831857Y-61039571D01*
X141831857Y-61039571D02*
X141927095Y-60991952D01*
X141927095Y-60991952D02*
X142022333Y-60991952D01*
X142022333Y-60991952D02*
X142165190Y-61039571D01*
X142165190Y-61039571D02*
X142736619Y-61610999D01*
X142736619Y-61610999D02*
X142736619Y-60991952D01*
X142069952Y-60134809D02*
X142736619Y-60134809D01*
X141689000Y-60372904D02*
X142403285Y-60610999D01*
X142403285Y-60610999D02*
X142403285Y-59991952D01*
X141736619Y-59134809D02*
X141736619Y-59610999D01*
X141736619Y-59610999D02*
X142212809Y-59658618D01*
X142212809Y-59658618D02*
X142165190Y-59610999D01*
X142165190Y-59610999D02*
X142117571Y-59515761D01*
X142117571Y-59515761D02*
X142117571Y-59277666D01*
X142117571Y-59277666D02*
X142165190Y-59182428D01*
X142165190Y-59182428D02*
X142212809Y-59134809D01*
X142212809Y-59134809D02*
X142308047Y-59087190D01*
X142308047Y-59087190D02*
X142546142Y-59087190D01*
X142546142Y-59087190D02*
X142641380Y-59134809D01*
X142641380Y-59134809D02*
X142689000Y-59182428D01*
X142689000Y-59182428D02*
X142736619Y-59277666D01*
X142736619Y-59277666D02*
X142736619Y-59515761D01*
X142736619Y-59515761D02*
X142689000Y-59610999D01*
X142689000Y-59610999D02*
X142641380Y-59658618D01*
%TO.C,J2*%
X183683364Y-59491429D02*
X183683364Y-59062858D01*
X184433364Y-59277143D02*
X183683364Y-59277143D01*
X184433364Y-58812857D02*
X183683364Y-58812857D01*
X183683364Y-58812857D02*
X184219078Y-58562857D01*
X184219078Y-58562857D02*
X183683364Y-58312857D01*
X183683364Y-58312857D02*
X184433364Y-58312857D01*
X184397650Y-57991428D02*
X184433364Y-57884286D01*
X184433364Y-57884286D02*
X184433364Y-57705714D01*
X184433364Y-57705714D02*
X184397650Y-57634286D01*
X184397650Y-57634286D02*
X184361935Y-57598571D01*
X184361935Y-57598571D02*
X184290507Y-57562857D01*
X184290507Y-57562857D02*
X184219078Y-57562857D01*
X184219078Y-57562857D02*
X184147650Y-57598571D01*
X184147650Y-57598571D02*
X184111935Y-57634286D01*
X184111935Y-57634286D02*
X184076221Y-57705714D01*
X184076221Y-57705714D02*
X184040507Y-57848571D01*
X184040507Y-57848571D02*
X184004792Y-57920000D01*
X184004792Y-57920000D02*
X183969078Y-57955714D01*
X183969078Y-57955714D02*
X183897650Y-57991428D01*
X183897650Y-57991428D02*
X183826221Y-57991428D01*
X183826221Y-57991428D02*
X183754792Y-57955714D01*
X183754792Y-57955714D02*
X183719078Y-57920000D01*
X183719078Y-57920000D02*
X183683364Y-57848571D01*
X183683364Y-57848571D02*
X183683364Y-57670000D01*
X183683364Y-57670000D02*
X183719078Y-57562857D01*
X184433364Y-57205714D02*
X184433364Y-57062857D01*
X184433364Y-57062857D02*
X184397650Y-56991428D01*
X184397650Y-56991428D02*
X184361935Y-56955714D01*
X184361935Y-56955714D02*
X184254792Y-56884285D01*
X184254792Y-56884285D02*
X184111935Y-56848571D01*
X184111935Y-56848571D02*
X183826221Y-56848571D01*
X183826221Y-56848571D02*
X183754792Y-56884285D01*
X183754792Y-56884285D02*
X183719078Y-56920000D01*
X183719078Y-56920000D02*
X183683364Y-56991428D01*
X183683364Y-56991428D02*
X183683364Y-57134285D01*
X183683364Y-57134285D02*
X183719078Y-57205714D01*
X183719078Y-57205714D02*
X183754792Y-57241428D01*
X183754792Y-57241428D02*
X183826221Y-57277142D01*
X183826221Y-57277142D02*
X184004792Y-57277142D01*
X184004792Y-57277142D02*
X184076221Y-57241428D01*
X184076221Y-57241428D02*
X184111935Y-57205714D01*
X184111935Y-57205714D02*
X184147650Y-57134285D01*
X184147650Y-57134285D02*
X184147650Y-56991428D01*
X184147650Y-56991428D02*
X184111935Y-56920000D01*
X184111935Y-56920000D02*
X184076221Y-56884285D01*
X184076221Y-56884285D02*
X184004792Y-56848571D01*
X184433364Y-56598571D02*
X183933364Y-56205714D01*
X183933364Y-56598571D02*
X184433364Y-56205714D01*
X184433364Y-55991428D02*
X183933364Y-55598571D01*
X183933364Y-55991428D02*
X184433364Y-55598571D01*
X184004792Y-55205713D02*
X183969078Y-55277142D01*
X183969078Y-55277142D02*
X183933364Y-55312856D01*
X183933364Y-55312856D02*
X183861935Y-55348570D01*
X183861935Y-55348570D02*
X183826221Y-55348570D01*
X183826221Y-55348570D02*
X183754792Y-55312856D01*
X183754792Y-55312856D02*
X183719078Y-55277142D01*
X183719078Y-55277142D02*
X183683364Y-55205713D01*
X183683364Y-55205713D02*
X183683364Y-55062856D01*
X183683364Y-55062856D02*
X183719078Y-54991428D01*
X183719078Y-54991428D02*
X183754792Y-54955713D01*
X183754792Y-54955713D02*
X183826221Y-54919999D01*
X183826221Y-54919999D02*
X183861935Y-54919999D01*
X183861935Y-54919999D02*
X183933364Y-54955713D01*
X183933364Y-54955713D02*
X183969078Y-54991428D01*
X183969078Y-54991428D02*
X184004792Y-55062856D01*
X184004792Y-55062856D02*
X184004792Y-55205713D01*
X184004792Y-55205713D02*
X184040507Y-55277142D01*
X184040507Y-55277142D02*
X184076221Y-55312856D01*
X184076221Y-55312856D02*
X184147650Y-55348570D01*
X184147650Y-55348570D02*
X184290507Y-55348570D01*
X184290507Y-55348570D02*
X184361935Y-55312856D01*
X184361935Y-55312856D02*
X184397650Y-55277142D01*
X184397650Y-55277142D02*
X184433364Y-55205713D01*
X184433364Y-55205713D02*
X184433364Y-55062856D01*
X184433364Y-55062856D02*
X184397650Y-54991428D01*
X184397650Y-54991428D02*
X184361935Y-54955713D01*
X184361935Y-54955713D02*
X184290507Y-54919999D01*
X184290507Y-54919999D02*
X184147650Y-54919999D01*
X184147650Y-54919999D02*
X184076221Y-54955713D01*
X184076221Y-54955713D02*
X184040507Y-54991428D01*
X184040507Y-54991428D02*
X184004792Y-55062856D01*
X183647650Y-54062856D02*
X184611935Y-54705713D01*
X184433364Y-53777142D02*
X184433364Y-53634285D01*
X184433364Y-53634285D02*
X184397650Y-53562856D01*
X184397650Y-53562856D02*
X184361935Y-53527142D01*
X184361935Y-53527142D02*
X184254792Y-53455713D01*
X184254792Y-53455713D02*
X184111935Y-53419999D01*
X184111935Y-53419999D02*
X183826221Y-53419999D01*
X183826221Y-53419999D02*
X183754792Y-53455713D01*
X183754792Y-53455713D02*
X183719078Y-53491428D01*
X183719078Y-53491428D02*
X183683364Y-53562856D01*
X183683364Y-53562856D02*
X183683364Y-53705713D01*
X183683364Y-53705713D02*
X183719078Y-53777142D01*
X183719078Y-53777142D02*
X183754792Y-53812856D01*
X183754792Y-53812856D02*
X183826221Y-53848570D01*
X183826221Y-53848570D02*
X184004792Y-53848570D01*
X184004792Y-53848570D02*
X184076221Y-53812856D01*
X184076221Y-53812856D02*
X184111935Y-53777142D01*
X184111935Y-53777142D02*
X184147650Y-53705713D01*
X184147650Y-53705713D02*
X184147650Y-53562856D01*
X184147650Y-53562856D02*
X184111935Y-53491428D01*
X184111935Y-53491428D02*
X184076221Y-53455713D01*
X184076221Y-53455713D02*
X184004792Y-53419999D01*
X184219078Y-53134284D02*
X184219078Y-52777142D01*
X184433364Y-53205713D02*
X183683364Y-52955713D01*
X183683364Y-52955713D02*
X184433364Y-52705713D01*
X184219078Y-51919998D02*
X184219078Y-51562856D01*
X184433364Y-51991427D02*
X183683364Y-51741427D01*
X183683364Y-51741427D02*
X184433364Y-51491427D01*
X184433364Y-51241427D02*
X183683364Y-51241427D01*
X183683364Y-51241427D02*
X183683364Y-51062856D01*
X183683364Y-51062856D02*
X183719078Y-50955713D01*
X183719078Y-50955713D02*
X183790507Y-50884284D01*
X183790507Y-50884284D02*
X183861935Y-50848570D01*
X183861935Y-50848570D02*
X184004792Y-50812856D01*
X184004792Y-50812856D02*
X184111935Y-50812856D01*
X184111935Y-50812856D02*
X184254792Y-50848570D01*
X184254792Y-50848570D02*
X184326221Y-50884284D01*
X184326221Y-50884284D02*
X184397650Y-50955713D01*
X184397650Y-50955713D02*
X184433364Y-51062856D01*
X184433364Y-51062856D02*
X184433364Y-51241427D01*
X184219078Y-50527141D02*
X184219078Y-50169999D01*
X184433364Y-50598570D02*
X183683364Y-50348570D01*
X183683364Y-50348570D02*
X184433364Y-50098570D01*
X184433364Y-49848570D02*
X183683364Y-49848570D01*
X183683364Y-49848570D02*
X183683364Y-49562856D01*
X183683364Y-49562856D02*
X183719078Y-49491427D01*
X183719078Y-49491427D02*
X183754792Y-49455713D01*
X183754792Y-49455713D02*
X183826221Y-49419999D01*
X183826221Y-49419999D02*
X183933364Y-49419999D01*
X183933364Y-49419999D02*
X184004792Y-49455713D01*
X184004792Y-49455713D02*
X184040507Y-49491427D01*
X184040507Y-49491427D02*
X184076221Y-49562856D01*
X184076221Y-49562856D02*
X184076221Y-49848570D01*
X183683364Y-49205713D02*
X183683364Y-48777142D01*
X184433364Y-48991427D02*
X183683364Y-48991427D01*
X184040507Y-48527141D02*
X184040507Y-48277141D01*
X184433364Y-48169998D02*
X184433364Y-48527141D01*
X184433364Y-48527141D02*
X183683364Y-48527141D01*
X183683364Y-48527141D02*
X183683364Y-48169998D01*
X184433364Y-47419999D02*
X184076221Y-47669999D01*
X184433364Y-47848570D02*
X183683364Y-47848570D01*
X183683364Y-47848570D02*
X183683364Y-47562856D01*
X183683364Y-47562856D02*
X183719078Y-47491427D01*
X183719078Y-47491427D02*
X183754792Y-47455713D01*
X183754792Y-47455713D02*
X183826221Y-47419999D01*
X183826221Y-47419999D02*
X183933364Y-47419999D01*
X183933364Y-47419999D02*
X184004792Y-47455713D01*
X184004792Y-47455713D02*
X184040507Y-47491427D01*
X184040507Y-47491427D02*
X184076221Y-47562856D01*
X184076221Y-47562856D02*
X184076221Y-47848570D01*
X184199285Y-71636964D02*
X183770714Y-71636964D01*
X183984999Y-71636964D02*
X183984999Y-70886964D01*
X183984999Y-70886964D02*
X183913571Y-70994107D01*
X183913571Y-70994107D02*
X183842142Y-71065535D01*
X183842142Y-71065535D02*
X183770714Y-71101250D01*
X176163571Y-47958392D02*
X176199285Y-47922678D01*
X176199285Y-47922678D02*
X176270714Y-47886964D01*
X176270714Y-47886964D02*
X176449285Y-47886964D01*
X176449285Y-47886964D02*
X176520714Y-47922678D01*
X176520714Y-47922678D02*
X176556428Y-47958392D01*
X176556428Y-47958392D02*
X176592142Y-48029821D01*
X176592142Y-48029821D02*
X176592142Y-48101250D01*
X176592142Y-48101250D02*
X176556428Y-48208392D01*
X176556428Y-48208392D02*
X176127856Y-48636964D01*
X176127856Y-48636964D02*
X176592142Y-48636964D01*
X177056428Y-47886964D02*
X177127857Y-47886964D01*
X177127857Y-47886964D02*
X177199285Y-47922678D01*
X177199285Y-47922678D02*
X177235000Y-47958392D01*
X177235000Y-47958392D02*
X177270714Y-48029821D01*
X177270714Y-48029821D02*
X177306428Y-48172678D01*
X177306428Y-48172678D02*
X177306428Y-48351250D01*
X177306428Y-48351250D02*
X177270714Y-48494107D01*
X177270714Y-48494107D02*
X177235000Y-48565535D01*
X177235000Y-48565535D02*
X177199285Y-48601250D01*
X177199285Y-48601250D02*
X177127857Y-48636964D01*
X177127857Y-48636964D02*
X177056428Y-48636964D01*
X177056428Y-48636964D02*
X176985000Y-48601250D01*
X176985000Y-48601250D02*
X176949285Y-48565535D01*
X176949285Y-48565535D02*
X176913571Y-48494107D01*
X176913571Y-48494107D02*
X176877857Y-48351250D01*
X176877857Y-48351250D02*
X176877857Y-48172678D01*
X176877857Y-48172678D02*
X176913571Y-48029821D01*
X176913571Y-48029821D02*
X176949285Y-47958392D01*
X176949285Y-47958392D02*
X176985000Y-47922678D01*
X176985000Y-47922678D02*
X177056428Y-47886964D01*
%TO.C,C6*%
X168537619Y-102841666D02*
X168537619Y-103413094D01*
X168537619Y-103127380D02*
X167537619Y-103127380D01*
X167537619Y-103127380D02*
X167680476Y-103222618D01*
X167680476Y-103222618D02*
X167775714Y-103317856D01*
X167775714Y-103317856D02*
X167823333Y-103413094D01*
X167537619Y-102222618D02*
X167537619Y-102127380D01*
X167537619Y-102127380D02*
X167585238Y-102032142D01*
X167585238Y-102032142D02*
X167632857Y-101984523D01*
X167632857Y-101984523D02*
X167728095Y-101936904D01*
X167728095Y-101936904D02*
X167918571Y-101889285D01*
X167918571Y-101889285D02*
X168156666Y-101889285D01*
X168156666Y-101889285D02*
X168347142Y-101936904D01*
X168347142Y-101936904D02*
X168442380Y-101984523D01*
X168442380Y-101984523D02*
X168490000Y-102032142D01*
X168490000Y-102032142D02*
X168537619Y-102127380D01*
X168537619Y-102127380D02*
X168537619Y-102222618D01*
X168537619Y-102222618D02*
X168490000Y-102317856D01*
X168490000Y-102317856D02*
X168442380Y-102365475D01*
X168442380Y-102365475D02*
X168347142Y-102413094D01*
X168347142Y-102413094D02*
X168156666Y-102460713D01*
X168156666Y-102460713D02*
X167918571Y-102460713D01*
X167918571Y-102460713D02*
X167728095Y-102413094D01*
X167728095Y-102413094D02*
X167632857Y-102365475D01*
X167632857Y-102365475D02*
X167585238Y-102317856D01*
X167585238Y-102317856D02*
X167537619Y-102222618D01*
X167632857Y-101508332D02*
X167585238Y-101460713D01*
X167585238Y-101460713D02*
X167537619Y-101365475D01*
X167537619Y-101365475D02*
X167537619Y-101127380D01*
X167537619Y-101127380D02*
X167585238Y-101032142D01*
X167585238Y-101032142D02*
X167632857Y-100984523D01*
X167632857Y-100984523D02*
X167728095Y-100936904D01*
X167728095Y-100936904D02*
X167823333Y-100936904D01*
X167823333Y-100936904D02*
X167966190Y-100984523D01*
X167966190Y-100984523D02*
X168537619Y-101555951D01*
X168537619Y-101555951D02*
X168537619Y-100936904D01*
%TO.C,C2*%
X156892999Y-79210964D02*
X156464428Y-79210964D01*
X156678713Y-79210964D02*
X156678713Y-78460964D01*
X156678713Y-78460964D02*
X156607285Y-78568107D01*
X156607285Y-78568107D02*
X156535856Y-78639535D01*
X156535856Y-78639535D02*
X156464428Y-78675250D01*
X157357285Y-78460964D02*
X157428714Y-78460964D01*
X157428714Y-78460964D02*
X157500142Y-78496678D01*
X157500142Y-78496678D02*
X157535857Y-78532392D01*
X157535857Y-78532392D02*
X157571571Y-78603821D01*
X157571571Y-78603821D02*
X157607285Y-78746678D01*
X157607285Y-78746678D02*
X157607285Y-78925250D01*
X157607285Y-78925250D02*
X157571571Y-79068107D01*
X157571571Y-79068107D02*
X157535857Y-79139535D01*
X157535857Y-79139535D02*
X157500142Y-79175250D01*
X157500142Y-79175250D02*
X157428714Y-79210964D01*
X157428714Y-79210964D02*
X157357285Y-79210964D01*
X157357285Y-79210964D02*
X157285857Y-79175250D01*
X157285857Y-79175250D02*
X157250142Y-79139535D01*
X157250142Y-79139535D02*
X157214428Y-79068107D01*
X157214428Y-79068107D02*
X157178714Y-78925250D01*
X157178714Y-78925250D02*
X157178714Y-78746678D01*
X157178714Y-78746678D02*
X157214428Y-78603821D01*
X157214428Y-78603821D02*
X157250142Y-78532392D01*
X157250142Y-78532392D02*
X157285857Y-78496678D01*
X157285857Y-78496678D02*
X157357285Y-78460964D01*
X158250143Y-78710964D02*
X158250143Y-79210964D01*
X158071571Y-78425250D02*
X157893000Y-78960964D01*
X157893000Y-78960964D02*
X158357285Y-78960964D01*
%TO.C,C4*%
X175511666Y-112120095D02*
X175054523Y-112120095D01*
X175283095Y-112120095D02*
X175283095Y-111320095D01*
X175283095Y-111320095D02*
X175206904Y-111434380D01*
X175206904Y-111434380D02*
X175130714Y-111510571D01*
X175130714Y-111510571D02*
X175054523Y-111548666D01*
X176006905Y-111320095D02*
X176083095Y-111320095D01*
X176083095Y-111320095D02*
X176159286Y-111358190D01*
X176159286Y-111358190D02*
X176197381Y-111396285D01*
X176197381Y-111396285D02*
X176235476Y-111472476D01*
X176235476Y-111472476D02*
X176273571Y-111624857D01*
X176273571Y-111624857D02*
X176273571Y-111815333D01*
X176273571Y-111815333D02*
X176235476Y-111967714D01*
X176235476Y-111967714D02*
X176197381Y-112043904D01*
X176197381Y-112043904D02*
X176159286Y-112082000D01*
X176159286Y-112082000D02*
X176083095Y-112120095D01*
X176083095Y-112120095D02*
X176006905Y-112120095D01*
X176006905Y-112120095D02*
X175930714Y-112082000D01*
X175930714Y-112082000D02*
X175892619Y-112043904D01*
X175892619Y-112043904D02*
X175854524Y-111967714D01*
X175854524Y-111967714D02*
X175816428Y-111815333D01*
X175816428Y-111815333D02*
X175816428Y-111624857D01*
X175816428Y-111624857D02*
X175854524Y-111472476D01*
X175854524Y-111472476D02*
X175892619Y-111396285D01*
X175892619Y-111396285D02*
X175930714Y-111358190D01*
X175930714Y-111358190D02*
X176006905Y-111320095D01*
X176959286Y-111586761D02*
X176959286Y-112120095D01*
X176768810Y-111282000D02*
X176578333Y-111853428D01*
X176578333Y-111853428D02*
X177073572Y-111853428D01*
%TO.C,C1*%
X139106999Y-79467964D02*
X138678428Y-79467964D01*
X138892713Y-79467964D02*
X138892713Y-78717964D01*
X138892713Y-78717964D02*
X138821285Y-78825107D01*
X138821285Y-78825107D02*
X138749856Y-78896535D01*
X138749856Y-78896535D02*
X138678428Y-78932250D01*
X139571285Y-78717964D02*
X139642714Y-78717964D01*
X139642714Y-78717964D02*
X139714142Y-78753678D01*
X139714142Y-78753678D02*
X139749857Y-78789392D01*
X139749857Y-78789392D02*
X139785571Y-78860821D01*
X139785571Y-78860821D02*
X139821285Y-79003678D01*
X139821285Y-79003678D02*
X139821285Y-79182250D01*
X139821285Y-79182250D02*
X139785571Y-79325107D01*
X139785571Y-79325107D02*
X139749857Y-79396535D01*
X139749857Y-79396535D02*
X139714142Y-79432250D01*
X139714142Y-79432250D02*
X139642714Y-79467964D01*
X139642714Y-79467964D02*
X139571285Y-79467964D01*
X139571285Y-79467964D02*
X139499857Y-79432250D01*
X139499857Y-79432250D02*
X139464142Y-79396535D01*
X139464142Y-79396535D02*
X139428428Y-79325107D01*
X139428428Y-79325107D02*
X139392714Y-79182250D01*
X139392714Y-79182250D02*
X139392714Y-79003678D01*
X139392714Y-79003678D02*
X139428428Y-78860821D01*
X139428428Y-78860821D02*
X139464142Y-78789392D01*
X139464142Y-78789392D02*
X139499857Y-78753678D01*
X139499857Y-78753678D02*
X139571285Y-78717964D01*
X140464143Y-78967964D02*
X140464143Y-79467964D01*
X140285571Y-78682250D02*
X140107000Y-79217964D01*
X140107000Y-79217964D02*
X140571285Y-79217964D01*
%TO.C,U4*%
X178947619Y-106108094D02*
X177947619Y-106108094D01*
X177947619Y-106108094D02*
X178661904Y-105774761D01*
X178661904Y-105774761D02*
X177947619Y-105441428D01*
X177947619Y-105441428D02*
X178947619Y-105441428D01*
X178852380Y-104393809D02*
X178900000Y-104441428D01*
X178900000Y-104441428D02*
X178947619Y-104584285D01*
X178947619Y-104584285D02*
X178947619Y-104679523D01*
X178947619Y-104679523D02*
X178900000Y-104822380D01*
X178900000Y-104822380D02*
X178804761Y-104917618D01*
X178804761Y-104917618D02*
X178709523Y-104965237D01*
X178709523Y-104965237D02*
X178519047Y-105012856D01*
X178519047Y-105012856D02*
X178376190Y-105012856D01*
X178376190Y-105012856D02*
X178185714Y-104965237D01*
X178185714Y-104965237D02*
X178090476Y-104917618D01*
X178090476Y-104917618D02*
X177995238Y-104822380D01*
X177995238Y-104822380D02*
X177947619Y-104679523D01*
X177947619Y-104679523D02*
X177947619Y-104584285D01*
X177947619Y-104584285D02*
X177995238Y-104441428D01*
X177995238Y-104441428D02*
X178042857Y-104393809D01*
X178947619Y-103965237D02*
X177947619Y-103965237D01*
X177947619Y-103965237D02*
X177947619Y-103584285D01*
X177947619Y-103584285D02*
X177995238Y-103489047D01*
X177995238Y-103489047D02*
X178042857Y-103441428D01*
X178042857Y-103441428D02*
X178138095Y-103393809D01*
X178138095Y-103393809D02*
X178280952Y-103393809D01*
X178280952Y-103393809D02*
X178376190Y-103441428D01*
X178376190Y-103441428D02*
X178423809Y-103489047D01*
X178423809Y-103489047D02*
X178471428Y-103584285D01*
X178471428Y-103584285D02*
X178471428Y-103965237D01*
X177947619Y-103060475D02*
X177947619Y-102441428D01*
X177947619Y-102441428D02*
X178328571Y-102774761D01*
X178328571Y-102774761D02*
X178328571Y-102631904D01*
X178328571Y-102631904D02*
X178376190Y-102536666D01*
X178376190Y-102536666D02*
X178423809Y-102489047D01*
X178423809Y-102489047D02*
X178519047Y-102441428D01*
X178519047Y-102441428D02*
X178757142Y-102441428D01*
X178757142Y-102441428D02*
X178852380Y-102489047D01*
X178852380Y-102489047D02*
X178900000Y-102536666D01*
X178900000Y-102536666D02*
X178947619Y-102631904D01*
X178947619Y-102631904D02*
X178947619Y-102917618D01*
X178947619Y-102917618D02*
X178900000Y-103012856D01*
X178900000Y-103012856D02*
X178852380Y-103060475D01*
X178042857Y-102060475D02*
X177995238Y-102012856D01*
X177995238Y-102012856D02*
X177947619Y-101917618D01*
X177947619Y-101917618D02*
X177947619Y-101679523D01*
X177947619Y-101679523D02*
X177995238Y-101584285D01*
X177995238Y-101584285D02*
X178042857Y-101536666D01*
X178042857Y-101536666D02*
X178138095Y-101489047D01*
X178138095Y-101489047D02*
X178233333Y-101489047D01*
X178233333Y-101489047D02*
X178376190Y-101536666D01*
X178376190Y-101536666D02*
X178947619Y-102108094D01*
X178947619Y-102108094D02*
X178947619Y-101489047D01*
X177947619Y-100869999D02*
X177947619Y-100774761D01*
X177947619Y-100774761D02*
X177995238Y-100679523D01*
X177995238Y-100679523D02*
X178042857Y-100631904D01*
X178042857Y-100631904D02*
X178138095Y-100584285D01*
X178138095Y-100584285D02*
X178328571Y-100536666D01*
X178328571Y-100536666D02*
X178566666Y-100536666D01*
X178566666Y-100536666D02*
X178757142Y-100584285D01*
X178757142Y-100584285D02*
X178852380Y-100631904D01*
X178852380Y-100631904D02*
X178900000Y-100679523D01*
X178900000Y-100679523D02*
X178947619Y-100774761D01*
X178947619Y-100774761D02*
X178947619Y-100869999D01*
X178947619Y-100869999D02*
X178900000Y-100965237D01*
X178900000Y-100965237D02*
X178852380Y-101012856D01*
X178852380Y-101012856D02*
X178757142Y-101060475D01*
X178757142Y-101060475D02*
X178566666Y-101108094D01*
X178566666Y-101108094D02*
X178328571Y-101108094D01*
X178328571Y-101108094D02*
X178138095Y-101060475D01*
X178138095Y-101060475D02*
X178042857Y-101012856D01*
X178042857Y-101012856D02*
X177995238Y-100965237D01*
X177995238Y-100965237D02*
X177947619Y-100869999D01*
X178042857Y-100155713D02*
X177995238Y-100108094D01*
X177995238Y-100108094D02*
X177947619Y-100012856D01*
X177947619Y-100012856D02*
X177947619Y-99774761D01*
X177947619Y-99774761D02*
X177995238Y-99679523D01*
X177995238Y-99679523D02*
X178042857Y-99631904D01*
X178042857Y-99631904D02*
X178138095Y-99584285D01*
X178138095Y-99584285D02*
X178233333Y-99584285D01*
X178233333Y-99584285D02*
X178376190Y-99631904D01*
X178376190Y-99631904D02*
X178947619Y-100203332D01*
X178947619Y-100203332D02*
X178947619Y-99584285D01*
%TO.C,C3*%
X162226999Y-79845964D02*
X161798428Y-79845964D01*
X162012713Y-79845964D02*
X162012713Y-79095964D01*
X162012713Y-79095964D02*
X161941285Y-79203107D01*
X161941285Y-79203107D02*
X161869856Y-79274535D01*
X161869856Y-79274535D02*
X161798428Y-79310250D01*
X162691285Y-79095964D02*
X162762714Y-79095964D01*
X162762714Y-79095964D02*
X162834142Y-79131678D01*
X162834142Y-79131678D02*
X162869857Y-79167392D01*
X162869857Y-79167392D02*
X162905571Y-79238821D01*
X162905571Y-79238821D02*
X162941285Y-79381678D01*
X162941285Y-79381678D02*
X162941285Y-79560250D01*
X162941285Y-79560250D02*
X162905571Y-79703107D01*
X162905571Y-79703107D02*
X162869857Y-79774535D01*
X162869857Y-79774535D02*
X162834142Y-79810250D01*
X162834142Y-79810250D02*
X162762714Y-79845964D01*
X162762714Y-79845964D02*
X162691285Y-79845964D01*
X162691285Y-79845964D02*
X162619857Y-79810250D01*
X162619857Y-79810250D02*
X162584142Y-79774535D01*
X162584142Y-79774535D02*
X162548428Y-79703107D01*
X162548428Y-79703107D02*
X162512714Y-79560250D01*
X162512714Y-79560250D02*
X162512714Y-79381678D01*
X162512714Y-79381678D02*
X162548428Y-79238821D01*
X162548428Y-79238821D02*
X162584142Y-79167392D01*
X162584142Y-79167392D02*
X162619857Y-79131678D01*
X162619857Y-79131678D02*
X162691285Y-79095964D01*
X163584143Y-79345964D02*
X163584143Y-79845964D01*
X163405571Y-79060250D02*
X163227000Y-79595964D01*
X163227000Y-79595964D02*
X163691285Y-79595964D01*
%TO.C,RV1*%
X178238095Y-91712619D02*
X177761905Y-91712619D01*
X177761905Y-91712619D02*
X177714286Y-92188809D01*
X177714286Y-92188809D02*
X177761905Y-92141190D01*
X177761905Y-92141190D02*
X177857143Y-92093571D01*
X177857143Y-92093571D02*
X178095238Y-92093571D01*
X178095238Y-92093571D02*
X178190476Y-92141190D01*
X178190476Y-92141190D02*
X178238095Y-92188809D01*
X178238095Y-92188809D02*
X178285714Y-92284047D01*
X178285714Y-92284047D02*
X178285714Y-92522142D01*
X178285714Y-92522142D02*
X178238095Y-92617380D01*
X178238095Y-92617380D02*
X178190476Y-92665000D01*
X178190476Y-92665000D02*
X178095238Y-92712619D01*
X178095238Y-92712619D02*
X177857143Y-92712619D01*
X177857143Y-92712619D02*
X177761905Y-92665000D01*
X177761905Y-92665000D02*
X177714286Y-92617380D01*
X178714286Y-92712619D02*
X178714286Y-91712619D01*
X179285714Y-92712619D02*
X178857143Y-92141190D01*
X179285714Y-91712619D02*
X178714286Y-92284047D01*
%TO.C,J4*%
X178176666Y-73552619D02*
X178176666Y-74266904D01*
X178176666Y-74266904D02*
X178129047Y-74409761D01*
X178129047Y-74409761D02*
X178033809Y-74505000D01*
X178033809Y-74505000D02*
X177890952Y-74552619D01*
X177890952Y-74552619D02*
X177795714Y-74552619D01*
X179081428Y-73885952D02*
X179081428Y-74552619D01*
X178843333Y-73505000D02*
X178605238Y-74219285D01*
X178605238Y-74219285D02*
X179224285Y-74219285D01*
%TO.C,U2*%
X159522619Y-65798428D02*
X159522619Y-65131762D01*
X159522619Y-65131762D02*
X160522619Y-65560333D01*
X159855952Y-64322238D02*
X160522619Y-64322238D01*
X159475000Y-64560333D02*
X160189285Y-64798428D01*
X160189285Y-64798428D02*
X160189285Y-64179381D01*
X160522619Y-63322238D02*
X160522619Y-63798428D01*
X160522619Y-63798428D02*
X159522619Y-63798428D01*
X159522619Y-63131761D02*
X160522619Y-62798428D01*
X160522619Y-62798428D02*
X159522619Y-62465095D01*
X160427380Y-61560333D02*
X160475000Y-61607952D01*
X160475000Y-61607952D02*
X160522619Y-61750809D01*
X160522619Y-61750809D02*
X160522619Y-61846047D01*
X160522619Y-61846047D02*
X160475000Y-61988904D01*
X160475000Y-61988904D02*
X160379761Y-62084142D01*
X160379761Y-62084142D02*
X160284523Y-62131761D01*
X160284523Y-62131761D02*
X160094047Y-62179380D01*
X160094047Y-62179380D02*
X159951190Y-62179380D01*
X159951190Y-62179380D02*
X159760714Y-62131761D01*
X159760714Y-62131761D02*
X159665476Y-62084142D01*
X159665476Y-62084142D02*
X159570238Y-61988904D01*
X159570238Y-61988904D02*
X159522619Y-61846047D01*
X159522619Y-61846047D02*
X159522619Y-61750809D01*
X159522619Y-61750809D02*
X159570238Y-61607952D01*
X159570238Y-61607952D02*
X159617857Y-61560333D01*
X159617857Y-61179380D02*
X159570238Y-61131761D01*
X159570238Y-61131761D02*
X159522619Y-61036523D01*
X159522619Y-61036523D02*
X159522619Y-60798428D01*
X159522619Y-60798428D02*
X159570238Y-60703190D01*
X159570238Y-60703190D02*
X159617857Y-60655571D01*
X159617857Y-60655571D02*
X159713095Y-60607952D01*
X159713095Y-60607952D02*
X159808333Y-60607952D01*
X159808333Y-60607952D02*
X159951190Y-60655571D01*
X159951190Y-60655571D02*
X160522619Y-61226999D01*
X160522619Y-61226999D02*
X160522619Y-60607952D01*
X159855952Y-59750809D02*
X160522619Y-59750809D01*
X159475000Y-59988904D02*
X160189285Y-60226999D01*
X160189285Y-60226999D02*
X160189285Y-59607952D01*
X159522619Y-58750809D02*
X159522619Y-59226999D01*
X159522619Y-59226999D02*
X159998809Y-59274618D01*
X159998809Y-59274618D02*
X159951190Y-59226999D01*
X159951190Y-59226999D02*
X159903571Y-59131761D01*
X159903571Y-59131761D02*
X159903571Y-58893666D01*
X159903571Y-58893666D02*
X159951190Y-58798428D01*
X159951190Y-58798428D02*
X159998809Y-58750809D01*
X159998809Y-58750809D02*
X160094047Y-58703190D01*
X160094047Y-58703190D02*
X160332142Y-58703190D01*
X160332142Y-58703190D02*
X160427380Y-58750809D01*
X160427380Y-58750809D02*
X160475000Y-58798428D01*
X160475000Y-58798428D02*
X160522619Y-58893666D01*
X160522619Y-58893666D02*
X160522619Y-59131761D01*
X160522619Y-59131761D02*
X160475000Y-59226999D01*
X160475000Y-59226999D02*
X160427380Y-59274618D01*
%TO.C,J5*%
X147201904Y-97883808D02*
X147201904Y-97407618D01*
X147487619Y-97979046D02*
X146487619Y-97645713D01*
X146487619Y-97645713D02*
X147487619Y-97312380D01*
X146487619Y-96979046D02*
X147297142Y-96979046D01*
X147297142Y-96979046D02*
X147392380Y-96931427D01*
X147392380Y-96931427D02*
X147440000Y-96883808D01*
X147440000Y-96883808D02*
X147487619Y-96788570D01*
X147487619Y-96788570D02*
X147487619Y-96598094D01*
X147487619Y-96598094D02*
X147440000Y-96502856D01*
X147440000Y-96502856D02*
X147392380Y-96455237D01*
X147392380Y-96455237D02*
X147297142Y-96407618D01*
X147297142Y-96407618D02*
X146487619Y-96407618D01*
X147487619Y-95931427D02*
X146487619Y-95931427D01*
X146487619Y-95931427D02*
X146487619Y-95693332D01*
X146487619Y-95693332D02*
X146535238Y-95550475D01*
X146535238Y-95550475D02*
X146630476Y-95455237D01*
X146630476Y-95455237D02*
X146725714Y-95407618D01*
X146725714Y-95407618D02*
X146916190Y-95359999D01*
X146916190Y-95359999D02*
X147059047Y-95359999D01*
X147059047Y-95359999D02*
X147249523Y-95407618D01*
X147249523Y-95407618D02*
X147344761Y-95455237D01*
X147344761Y-95455237D02*
X147440000Y-95550475D01*
X147440000Y-95550475D02*
X147487619Y-95693332D01*
X147487619Y-95693332D02*
X147487619Y-95931427D01*
X147487619Y-94931427D02*
X146487619Y-94931427D01*
X146487619Y-94264761D02*
X146487619Y-94074285D01*
X146487619Y-94074285D02*
X146535238Y-93979047D01*
X146535238Y-93979047D02*
X146630476Y-93883809D01*
X146630476Y-93883809D02*
X146820952Y-93836190D01*
X146820952Y-93836190D02*
X147154285Y-93836190D01*
X147154285Y-93836190D02*
X147344761Y-93883809D01*
X147344761Y-93883809D02*
X147440000Y-93979047D01*
X147440000Y-93979047D02*
X147487619Y-94074285D01*
X147487619Y-94074285D02*
X147487619Y-94264761D01*
X147487619Y-94264761D02*
X147440000Y-94359999D01*
X147440000Y-94359999D02*
X147344761Y-94455237D01*
X147344761Y-94455237D02*
X147154285Y-94502856D01*
X147154285Y-94502856D02*
X146820952Y-94502856D01*
X146820952Y-94502856D02*
X146630476Y-94455237D01*
X146630476Y-94455237D02*
X146535238Y-94359999D01*
X146535238Y-94359999D02*
X146487619Y-94264761D01*
X146510238Y-92571904D02*
X146462619Y-92667142D01*
X146462619Y-92667142D02*
X146462619Y-92809999D01*
X146462619Y-92809999D02*
X146510238Y-92952856D01*
X146510238Y-92952856D02*
X146605476Y-93048094D01*
X146605476Y-93048094D02*
X146700714Y-93095713D01*
X146700714Y-93095713D02*
X146891190Y-93143332D01*
X146891190Y-93143332D02*
X147034047Y-93143332D01*
X147034047Y-93143332D02*
X147224523Y-93095713D01*
X147224523Y-93095713D02*
X147319761Y-93048094D01*
X147319761Y-93048094D02*
X147415000Y-92952856D01*
X147415000Y-92952856D02*
X147462619Y-92809999D01*
X147462619Y-92809999D02*
X147462619Y-92714761D01*
X147462619Y-92714761D02*
X147415000Y-92571904D01*
X147415000Y-92571904D02*
X147367380Y-92524285D01*
X147367380Y-92524285D02*
X147034047Y-92524285D01*
X147034047Y-92524285D02*
X147034047Y-92714761D01*
X147462619Y-92095713D02*
X146462619Y-92095713D01*
X146462619Y-92095713D02*
X147462619Y-91524285D01*
X147462619Y-91524285D02*
X146462619Y-91524285D01*
X147462619Y-91048094D02*
X146462619Y-91048094D01*
X146462619Y-91048094D02*
X146462619Y-90809999D01*
X146462619Y-90809999D02*
X146510238Y-90667142D01*
X146510238Y-90667142D02*
X146605476Y-90571904D01*
X146605476Y-90571904D02*
X146700714Y-90524285D01*
X146700714Y-90524285D02*
X146891190Y-90476666D01*
X146891190Y-90476666D02*
X147034047Y-90476666D01*
X147034047Y-90476666D02*
X147224523Y-90524285D01*
X147224523Y-90524285D02*
X147319761Y-90571904D01*
X147319761Y-90571904D02*
X147415000Y-90667142D01*
X147415000Y-90667142D02*
X147462619Y-90809999D01*
X147462619Y-90809999D02*
X147462619Y-91048094D01*
%TO.C,C5*%
X169142868Y-112370095D02*
X168685725Y-112370095D01*
X168914297Y-112370095D02*
X168914297Y-111570095D01*
X168914297Y-111570095D02*
X168838106Y-111684380D01*
X168838106Y-111684380D02*
X168761916Y-111760571D01*
X168761916Y-111760571D02*
X168685725Y-111798666D01*
X169638107Y-111570095D02*
X169714297Y-111570095D01*
X169714297Y-111570095D02*
X169790488Y-111608190D01*
X169790488Y-111608190D02*
X169828583Y-111646285D01*
X169828583Y-111646285D02*
X169866678Y-111722476D01*
X169866678Y-111722476D02*
X169904773Y-111874857D01*
X169904773Y-111874857D02*
X169904773Y-112065333D01*
X169904773Y-112065333D02*
X169866678Y-112217714D01*
X169866678Y-112217714D02*
X169828583Y-112293904D01*
X169828583Y-112293904D02*
X169790488Y-112332000D01*
X169790488Y-112332000D02*
X169714297Y-112370095D01*
X169714297Y-112370095D02*
X169638107Y-112370095D01*
X169638107Y-112370095D02*
X169561916Y-112332000D01*
X169561916Y-112332000D02*
X169523821Y-112293904D01*
X169523821Y-112293904D02*
X169485726Y-112217714D01*
X169485726Y-112217714D02*
X169447630Y-112065333D01*
X169447630Y-112065333D02*
X169447630Y-111874857D01*
X169447630Y-111874857D02*
X169485726Y-111722476D01*
X169485726Y-111722476D02*
X169523821Y-111646285D01*
X169523821Y-111646285D02*
X169561916Y-111608190D01*
X169561916Y-111608190D02*
X169638107Y-111570095D01*
X170590488Y-111836761D02*
X170590488Y-112370095D01*
X170247631Y-111836761D02*
X170247631Y-112255809D01*
X170247631Y-112255809D02*
X170285726Y-112332000D01*
X170285726Y-112332000D02*
X170361916Y-112370095D01*
X170361916Y-112370095D02*
X170476202Y-112370095D01*
X170476202Y-112370095D02*
X170552393Y-112332000D01*
X170552393Y-112332000D02*
X170590488Y-112293904D01*
X171238107Y-111951047D02*
X170971441Y-111951047D01*
X170971441Y-112370095D02*
X170971441Y-111570095D01*
X170971441Y-111570095D02*
X171352393Y-111570095D01*
%TO.C,U1*%
X159395619Y-100215428D02*
X159395619Y-99548762D01*
X159395619Y-99548762D02*
X160395619Y-99977333D01*
X159728952Y-98739238D02*
X160395619Y-98739238D01*
X159348000Y-98977333D02*
X160062285Y-99215428D01*
X160062285Y-99215428D02*
X160062285Y-98596381D01*
X160395619Y-97739238D02*
X160395619Y-98215428D01*
X160395619Y-98215428D02*
X159395619Y-98215428D01*
X159395619Y-97548761D02*
X160395619Y-97215428D01*
X160395619Y-97215428D02*
X159395619Y-96882095D01*
X160300380Y-95977333D02*
X160348000Y-96024952D01*
X160348000Y-96024952D02*
X160395619Y-96167809D01*
X160395619Y-96167809D02*
X160395619Y-96263047D01*
X160395619Y-96263047D02*
X160348000Y-96405904D01*
X160348000Y-96405904D02*
X160252761Y-96501142D01*
X160252761Y-96501142D02*
X160157523Y-96548761D01*
X160157523Y-96548761D02*
X159967047Y-96596380D01*
X159967047Y-96596380D02*
X159824190Y-96596380D01*
X159824190Y-96596380D02*
X159633714Y-96548761D01*
X159633714Y-96548761D02*
X159538476Y-96501142D01*
X159538476Y-96501142D02*
X159443238Y-96405904D01*
X159443238Y-96405904D02*
X159395619Y-96263047D01*
X159395619Y-96263047D02*
X159395619Y-96167809D01*
X159395619Y-96167809D02*
X159443238Y-96024952D01*
X159443238Y-96024952D02*
X159490857Y-95977333D01*
X159490857Y-95596380D02*
X159443238Y-95548761D01*
X159443238Y-95548761D02*
X159395619Y-95453523D01*
X159395619Y-95453523D02*
X159395619Y-95215428D01*
X159395619Y-95215428D02*
X159443238Y-95120190D01*
X159443238Y-95120190D02*
X159490857Y-95072571D01*
X159490857Y-95072571D02*
X159586095Y-95024952D01*
X159586095Y-95024952D02*
X159681333Y-95024952D01*
X159681333Y-95024952D02*
X159824190Y-95072571D01*
X159824190Y-95072571D02*
X160395619Y-95643999D01*
X160395619Y-95643999D02*
X160395619Y-95024952D01*
X159728952Y-94167809D02*
X160395619Y-94167809D01*
X159348000Y-94405904D02*
X160062285Y-94643999D01*
X160062285Y-94643999D02*
X160062285Y-94024952D01*
X159395619Y-93167809D02*
X159395619Y-93643999D01*
X159395619Y-93643999D02*
X159871809Y-93691618D01*
X159871809Y-93691618D02*
X159824190Y-93643999D01*
X159824190Y-93643999D02*
X159776571Y-93548761D01*
X159776571Y-93548761D02*
X159776571Y-93310666D01*
X159776571Y-93310666D02*
X159824190Y-93215428D01*
X159824190Y-93215428D02*
X159871809Y-93167809D01*
X159871809Y-93167809D02*
X159967047Y-93120190D01*
X159967047Y-93120190D02*
X160205142Y-93120190D01*
X160205142Y-93120190D02*
X160300380Y-93167809D01*
X160300380Y-93167809D02*
X160348000Y-93215428D01*
X160348000Y-93215428D02*
X160395619Y-93310666D01*
X160395619Y-93310666D02*
X160395619Y-93548761D01*
X160395619Y-93548761D02*
X160348000Y-93643999D01*
X160348000Y-93643999D02*
X160300380Y-93691618D01*
%TO.C,J7*%
X152176904Y-107523808D02*
X152176904Y-107047618D01*
X152462619Y-107619046D02*
X151462619Y-107285713D01*
X151462619Y-107285713D02*
X152462619Y-106952380D01*
X151462619Y-106619046D02*
X152272142Y-106619046D01*
X152272142Y-106619046D02*
X152367380Y-106571427D01*
X152367380Y-106571427D02*
X152415000Y-106523808D01*
X152415000Y-106523808D02*
X152462619Y-106428570D01*
X152462619Y-106428570D02*
X152462619Y-106238094D01*
X152462619Y-106238094D02*
X152415000Y-106142856D01*
X152415000Y-106142856D02*
X152367380Y-106095237D01*
X152367380Y-106095237D02*
X152272142Y-106047618D01*
X152272142Y-106047618D02*
X151462619Y-106047618D01*
X152462619Y-105571427D02*
X151462619Y-105571427D01*
X151462619Y-105571427D02*
X151462619Y-105333332D01*
X151462619Y-105333332D02*
X151510238Y-105190475D01*
X151510238Y-105190475D02*
X151605476Y-105095237D01*
X151605476Y-105095237D02*
X151700714Y-105047618D01*
X151700714Y-105047618D02*
X151891190Y-104999999D01*
X151891190Y-104999999D02*
X152034047Y-104999999D01*
X152034047Y-104999999D02*
X152224523Y-105047618D01*
X152224523Y-105047618D02*
X152319761Y-105095237D01*
X152319761Y-105095237D02*
X152415000Y-105190475D01*
X152415000Y-105190475D02*
X152462619Y-105333332D01*
X152462619Y-105333332D02*
X152462619Y-105571427D01*
X152462619Y-104571427D02*
X151462619Y-104571427D01*
X151462619Y-103904761D02*
X151462619Y-103714285D01*
X151462619Y-103714285D02*
X151510238Y-103619047D01*
X151510238Y-103619047D02*
X151605476Y-103523809D01*
X151605476Y-103523809D02*
X151795952Y-103476190D01*
X151795952Y-103476190D02*
X152129285Y-103476190D01*
X152129285Y-103476190D02*
X152319761Y-103523809D01*
X152319761Y-103523809D02*
X152415000Y-103619047D01*
X152415000Y-103619047D02*
X152462619Y-103714285D01*
X152462619Y-103714285D02*
X152462619Y-103904761D01*
X152462619Y-103904761D02*
X152415000Y-103999999D01*
X152415000Y-103999999D02*
X152319761Y-104095237D01*
X152319761Y-104095237D02*
X152129285Y-104142856D01*
X152129285Y-104142856D02*
X151795952Y-104142856D01*
X151795952Y-104142856D02*
X151605476Y-104095237D01*
X151605476Y-104095237D02*
X151510238Y-103999999D01*
X151510238Y-103999999D02*
X151462619Y-103904761D01*
D12*
%TO.C,U3*%
X136897000Y-49410000D02*
X136897000Y-75050000D01*
X136897000Y-75050000D02*
X147397000Y-75050000D01*
X139897000Y-49470000D02*
X139897000Y-74990000D01*
X139897000Y-74990000D02*
X144397000Y-74990000D01*
X141147000Y-49470000D02*
X139897000Y-49470000D01*
X144397000Y-49470000D02*
X143147000Y-49470000D01*
X144397000Y-74990000D02*
X144397000Y-49470000D01*
X147397000Y-49410000D02*
X136897000Y-49410000D01*
X147397000Y-75050000D02*
X147397000Y-49410000D01*
X141147000Y-49470000D02*
G75*
G03*
X143147000Y-49470000I1000000J0D01*
G01*
%TO.C,J2*%
X183105000Y-72530000D02*
X181775000Y-72530000D01*
X183105000Y-71200000D02*
X183105000Y-72530000D01*
X183105000Y-69930000D02*
X183105000Y-47010000D01*
X183105000Y-69930000D02*
X180505000Y-69930000D01*
X183105000Y-47010000D02*
X177905000Y-47010000D01*
X180505000Y-72530000D02*
X177905000Y-72530000D01*
X180505000Y-69930000D02*
X180505000Y-72530000D01*
X177905000Y-72530000D02*
X177905000Y-47010000D01*
%TO.C,J3*%
X148670000Y-46730000D02*
X150000000Y-46730000D01*
X148670000Y-48060000D02*
X148670000Y-46730000D01*
X148670000Y-49330000D02*
X148670000Y-97650000D01*
X148670000Y-49330000D02*
X151330000Y-49330000D01*
X148670000Y-97650000D02*
X151330000Y-97650000D01*
X151330000Y-49330000D02*
X151330000Y-97650000D01*
%TO.C,C6*%
X171770000Y-99630000D02*
X169030000Y-99630000D01*
X171770000Y-99630000D02*
X171770000Y-104870000D01*
X169030000Y-99630000D02*
X169030000Y-104870000D01*
X171770000Y-104870000D02*
X169030000Y-104870000D01*
%TO.C,C2*%
X160033000Y-77948000D02*
X160033000Y-75208000D01*
X160033000Y-77948000D02*
X154793000Y-77948000D01*
X160033000Y-75208000D02*
X154793000Y-75208000D01*
X154793000Y-77948000D02*
X154793000Y-75208000D01*
%TO.C,C4*%
X178620000Y-110620000D02*
X178620000Y-107880000D01*
X178620000Y-110620000D02*
X173380000Y-110620000D01*
X178620000Y-107880000D02*
X173380000Y-107880000D01*
X173380000Y-110620000D02*
X173380000Y-107880000D01*
%TO.C,J6*%
X168990000Y-46730000D02*
X170320000Y-46730000D01*
X168990000Y-48060000D02*
X168990000Y-46730000D01*
X168990000Y-49330000D02*
X168990000Y-97650000D01*
X168990000Y-49330000D02*
X171650000Y-49330000D01*
X168990000Y-97650000D02*
X171650000Y-97650000D01*
X171650000Y-49330000D02*
X171650000Y-97650000D01*
%TO.C,C1*%
X142120000Y-78205000D02*
X142120000Y-75465000D01*
X142120000Y-78205000D02*
X136880000Y-78205000D01*
X142120000Y-75465000D02*
X136880000Y-75465000D01*
X136880000Y-78205000D02*
X136880000Y-75465000D01*
%TO.C,U4*%
X176235000Y-96920000D02*
X176235000Y-107200000D01*
X176235000Y-107200000D02*
X180735000Y-107200000D01*
X177485000Y-96920000D02*
X176235000Y-96920000D01*
X180735000Y-96920000D02*
X179485000Y-96920000D01*
X180735000Y-107200000D02*
X180735000Y-96920000D01*
X177485000Y-96920000D02*
G75*
G03*
X179485000Y-96920000I1000000J0D01*
G01*
%TO.C,C3*%
X165240000Y-83155000D02*
X165240000Y-80415000D01*
X165240000Y-83155000D02*
X160000000Y-83155000D01*
X165240000Y-80415000D02*
X160000000Y-80415000D01*
X160000000Y-83155000D02*
X160000000Y-80415000D01*
%TO.C,RV1*%
X175586001Y-90766000D02*
G75*
G03*
X175586613Y-93735202I2913999J-1484000D01*
G01*
X181592000Y-91186000D02*
G75*
G03*
X177016032Y-89336171I-3092000J-1064000D01*
G01*
X177015000Y-95164000D02*
G75*
G03*
X178556863Y-95520075I1485000J2914000D01*
G01*
X178500000Y-95520000D02*
G75*
G03*
X181591846Y-93314608I0J3270000D01*
G01*
%TO.C,J4*%
X174860000Y-74850000D02*
X174860000Y-76160000D01*
X174860000Y-74850000D02*
X176243000Y-74850000D01*
X175100000Y-75090000D02*
X175100000Y-76160000D01*
X175100000Y-75090000D02*
X181921000Y-75090000D01*
X175100000Y-78240000D02*
X175100000Y-78751000D01*
X175100000Y-80730000D02*
X175100000Y-81291000D01*
X175100000Y-83270000D02*
X175100000Y-83831000D01*
X175100000Y-85810000D02*
X175100000Y-86930000D01*
X175100000Y-86930000D02*
X181921000Y-86930000D01*
X176700000Y-76565000D02*
X176700000Y-77835000D01*
X176700000Y-76685000D02*
X177906667Y-76685000D01*
X176700000Y-76805000D02*
X177906667Y-76805000D01*
X176700000Y-76925000D02*
X177906667Y-76925000D01*
X176700000Y-77045000D02*
X177906667Y-77045000D01*
X176700000Y-77165000D02*
X177906667Y-77165000D01*
X176700000Y-77285000D02*
X177906667Y-77285000D01*
X176700000Y-77405000D02*
X177906667Y-77405000D01*
X176700000Y-77525000D02*
X177906667Y-77525000D01*
X176700000Y-77645000D02*
X177906667Y-77645000D01*
X176700000Y-77765000D02*
X177906667Y-77765000D01*
X176700000Y-77835000D02*
X180320000Y-77835000D01*
X176700000Y-79105000D02*
X176700000Y-80375000D01*
X176700000Y-79225000D02*
X177906667Y-79225000D01*
X176700000Y-79345000D02*
X177906667Y-79345000D01*
X176700000Y-79465000D02*
X177906667Y-79465000D01*
X176700000Y-79585000D02*
X177906667Y-79585000D01*
X176700000Y-79705000D02*
X177906667Y-79705000D01*
X176700000Y-79825000D02*
X177906667Y-79825000D01*
X176700000Y-79945000D02*
X177906667Y-79945000D01*
X176700000Y-80065000D02*
X177906667Y-80065000D01*
X176700000Y-80185000D02*
X177906667Y-80185000D01*
X176700000Y-80305000D02*
X177906667Y-80305000D01*
X176700000Y-80375000D02*
X180320000Y-80375000D01*
X176700000Y-81645000D02*
X176700000Y-82915000D01*
X176700000Y-81765000D02*
X177906667Y-81765000D01*
X176700000Y-81885000D02*
X177906667Y-81885000D01*
X176700000Y-82005000D02*
X177906667Y-82005000D01*
X176700000Y-82125000D02*
X177906667Y-82125000D01*
X176700000Y-82245000D02*
X177906667Y-82245000D01*
X176700000Y-82365000D02*
X177906667Y-82365000D01*
X176700000Y-82485000D02*
X177906667Y-82485000D01*
X176700000Y-82605000D02*
X177906667Y-82605000D01*
X176700000Y-82725000D02*
X177906667Y-82725000D01*
X176700000Y-82845000D02*
X177906667Y-82845000D01*
X176700000Y-82915000D02*
X180320000Y-82915000D01*
X176700000Y-84185000D02*
X176700000Y-85455000D01*
X176700000Y-84305000D02*
X177906667Y-84305000D01*
X176700000Y-84425000D02*
X177906667Y-84425000D01*
X176700000Y-84545000D02*
X177906667Y-84545000D01*
X176700000Y-84665000D02*
X177906667Y-84665000D01*
X176700000Y-84785000D02*
X177906667Y-84785000D01*
X176700000Y-84905000D02*
X177906667Y-84905000D01*
X176700000Y-85025000D02*
X177906667Y-85025000D01*
X176700000Y-85145000D02*
X177906667Y-85145000D01*
X176700000Y-85265000D02*
X177906667Y-85265000D01*
X176700000Y-85385000D02*
X177906667Y-85385000D01*
X176700000Y-85455000D02*
X180320000Y-85455000D01*
X177906667Y-76565000D02*
X177906667Y-77835000D01*
X177906667Y-79105000D02*
X177906667Y-80375000D01*
X177906667Y-81645000D02*
X177906667Y-82915000D01*
X177906667Y-84185000D02*
X177906667Y-85455000D01*
X180320000Y-76565000D02*
X176700000Y-76565000D01*
X180320000Y-77835000D02*
X180320000Y-76565000D01*
X180320000Y-79105000D02*
X176700000Y-79105000D01*
X180320000Y-80375000D02*
X180320000Y-79105000D01*
X180320000Y-81645000D02*
X176700000Y-81645000D01*
X180320000Y-82915000D02*
X180320000Y-81645000D01*
X180320000Y-84185000D02*
X176700000Y-84185000D01*
X180320000Y-85455000D02*
X180320000Y-84185000D01*
X181921000Y-75090000D02*
X181921000Y-76210000D01*
X181921000Y-78190000D02*
X181921000Y-78751000D01*
X181921000Y-80730000D02*
X181921000Y-81291000D01*
X181921000Y-83270000D02*
X181921000Y-83831000D01*
X181921000Y-85810000D02*
X181921000Y-86930000D01*
%TO.C,U2*%
X154769200Y-49183400D02*
X154769200Y-74823400D01*
X154769200Y-74823400D02*
X165269200Y-74823400D01*
X157769200Y-49243400D02*
X157769200Y-74763400D01*
X157769200Y-74763400D02*
X162269200Y-74763400D01*
X159019200Y-49243400D02*
X157769200Y-49243400D01*
X162269200Y-49243400D02*
X161019200Y-49243400D01*
X162269200Y-74763400D02*
X162269200Y-49243400D01*
X165269200Y-49183400D02*
X154769200Y-49183400D01*
X165269200Y-74823400D02*
X165269200Y-49183400D01*
X159019200Y-49243400D02*
G75*
G03*
X161019200Y-49243400I1000000J0D01*
G01*
%TO.C,J5*%
X146270000Y-95770000D02*
X145000000Y-95770000D01*
X146270000Y-94500000D02*
X146270000Y-95770000D01*
X143957071Y-92340000D02*
X143560000Y-92340000D01*
X143957071Y-91580000D02*
X143560000Y-91580000D01*
X143890000Y-94880000D02*
X143560000Y-94880000D01*
X143890000Y-94120000D02*
X143560000Y-94120000D01*
X143560000Y-95830000D02*
X143560000Y-90630000D01*
X143560000Y-93230000D02*
X140900000Y-93230000D01*
X143560000Y-90630000D02*
X140900000Y-90630000D01*
X140900000Y-95830000D02*
X143560000Y-95830000D01*
X140900000Y-94880000D02*
X134900000Y-94880000D01*
X140900000Y-94820000D02*
X134900000Y-94820000D01*
X140900000Y-94700000D02*
X134900000Y-94700000D01*
X140900000Y-94580000D02*
X134900000Y-94580000D01*
X140900000Y-94460000D02*
X134900000Y-94460000D01*
X140900000Y-94340000D02*
X134900000Y-94340000D01*
X140900000Y-94220000D02*
X134900000Y-94220000D01*
X140900000Y-92340000D02*
X134900000Y-92340000D01*
X140900000Y-90630000D02*
X140900000Y-95830000D01*
X134900000Y-94880000D02*
X134900000Y-94120000D01*
X134900000Y-94120000D02*
X140900000Y-94120000D01*
X134900000Y-92340000D02*
X134900000Y-91580000D01*
X134900000Y-91580000D02*
X140900000Y-91580000D01*
%TO.C,C5*%
X167240125Y-107025000D02*
X167740125Y-107025000D01*
X167490125Y-106775000D02*
X167490125Y-107275000D01*
X170044900Y-105920000D02*
X170044900Y-111080000D01*
X170084900Y-105920000D02*
X170084900Y-111080000D01*
X170124900Y-105921000D02*
X170124900Y-111079000D01*
X170164900Y-105922000D02*
X170164900Y-111078000D01*
X170204900Y-105924000D02*
X170204900Y-111076000D01*
X170244900Y-105927000D02*
X170244900Y-111073000D01*
X170284900Y-105931000D02*
X170284900Y-107460000D01*
X170284900Y-109540000D02*
X170284900Y-111069000D01*
X170324900Y-105935000D02*
X170324900Y-107460000D01*
X170324900Y-109540000D02*
X170324900Y-111065000D01*
X170364900Y-105939000D02*
X170364900Y-107460000D01*
X170364900Y-109540000D02*
X170364900Y-111061000D01*
X170404900Y-105944000D02*
X170404900Y-107460000D01*
X170404900Y-109540000D02*
X170404900Y-111056000D01*
X170444900Y-105950000D02*
X170444900Y-107460000D01*
X170444900Y-109540000D02*
X170444900Y-111050000D01*
X170484900Y-105957000D02*
X170484900Y-107460000D01*
X170484900Y-109540000D02*
X170484900Y-111043000D01*
X170524900Y-105964000D02*
X170524900Y-107460000D01*
X170524900Y-109540000D02*
X170524900Y-111036000D01*
X170564900Y-105972000D02*
X170564900Y-107460000D01*
X170564900Y-109540000D02*
X170564900Y-111028000D01*
X170604900Y-105980000D02*
X170604900Y-107460000D01*
X170604900Y-109540000D02*
X170604900Y-111020000D01*
X170644900Y-105989000D02*
X170644900Y-107460000D01*
X170644900Y-109540000D02*
X170644900Y-111011000D01*
X170684900Y-105999000D02*
X170684900Y-107460000D01*
X170684900Y-109540000D02*
X170684900Y-111001000D01*
X170724900Y-106009000D02*
X170724900Y-107460000D01*
X170724900Y-109540000D02*
X170724900Y-110991000D01*
X170765900Y-106020000D02*
X170765900Y-107460000D01*
X170765900Y-109540000D02*
X170765900Y-110980000D01*
X170805900Y-106032000D02*
X170805900Y-107460000D01*
X170805900Y-109540000D02*
X170805900Y-110968000D01*
X170845900Y-106045000D02*
X170845900Y-107460000D01*
X170845900Y-109540000D02*
X170845900Y-110955000D01*
X170885900Y-106058000D02*
X170885900Y-107460000D01*
X170885900Y-109540000D02*
X170885900Y-110942000D01*
X170925900Y-106072000D02*
X170925900Y-107460000D01*
X170925900Y-109540000D02*
X170925900Y-110928000D01*
X170965900Y-106086000D02*
X170965900Y-107460000D01*
X170965900Y-109540000D02*
X170965900Y-110914000D01*
X171005900Y-106102000D02*
X171005900Y-107460000D01*
X171005900Y-109540000D02*
X171005900Y-110898000D01*
X171045900Y-106118000D02*
X171045900Y-107460000D01*
X171045900Y-109540000D02*
X171045900Y-110882000D01*
X171085900Y-106135000D02*
X171085900Y-107460000D01*
X171085900Y-109540000D02*
X171085900Y-110865000D01*
X171125900Y-106152000D02*
X171125900Y-107460000D01*
X171125900Y-109540000D02*
X171125900Y-110848000D01*
X171165900Y-106171000D02*
X171165900Y-107460000D01*
X171165900Y-109540000D02*
X171165900Y-110829000D01*
X171205900Y-106190000D02*
X171205900Y-107460000D01*
X171205900Y-109540000D02*
X171205900Y-110810000D01*
X171245900Y-106210000D02*
X171245900Y-107460000D01*
X171245900Y-109540000D02*
X171245900Y-110790000D01*
X171285900Y-106232000D02*
X171285900Y-107460000D01*
X171285900Y-109540000D02*
X171285900Y-110768000D01*
X171325900Y-106253000D02*
X171325900Y-107460000D01*
X171325900Y-109540000D02*
X171325900Y-110747000D01*
X171365900Y-106276000D02*
X171365900Y-107460000D01*
X171365900Y-109540000D02*
X171365900Y-110724000D01*
X171405900Y-106300000D02*
X171405900Y-107460000D01*
X171405900Y-109540000D02*
X171405900Y-110700000D01*
X171445900Y-106325000D02*
X171445900Y-107460000D01*
X171445900Y-109540000D02*
X171445900Y-110675000D01*
X171485900Y-106351000D02*
X171485900Y-107460000D01*
X171485900Y-109540000D02*
X171485900Y-110649000D01*
X171525900Y-106378000D02*
X171525900Y-107460000D01*
X171525900Y-109540000D02*
X171525900Y-110622000D01*
X171565900Y-106405000D02*
X171565900Y-107460000D01*
X171565900Y-109540000D02*
X171565900Y-110595000D01*
X171605900Y-106435000D02*
X171605900Y-107460000D01*
X171605900Y-109540000D02*
X171605900Y-110565000D01*
X171645900Y-106465000D02*
X171645900Y-107460000D01*
X171645900Y-109540000D02*
X171645900Y-110535000D01*
X171685900Y-106496000D02*
X171685900Y-107460000D01*
X171685900Y-109540000D02*
X171685900Y-110504000D01*
X171725900Y-106529000D02*
X171725900Y-107460000D01*
X171725900Y-109540000D02*
X171725900Y-110471000D01*
X171765900Y-106563000D02*
X171765900Y-107460000D01*
X171765900Y-109540000D02*
X171765900Y-110437000D01*
X171805900Y-106599000D02*
X171805900Y-107460000D01*
X171805900Y-109540000D02*
X171805900Y-110401000D01*
X171845900Y-106636000D02*
X171845900Y-107460000D01*
X171845900Y-109540000D02*
X171845900Y-110364000D01*
X171885900Y-106674000D02*
X171885900Y-107460000D01*
X171885900Y-109540000D02*
X171885900Y-110326000D01*
X171925900Y-106715000D02*
X171925900Y-107460000D01*
X171925900Y-109540000D02*
X171925900Y-110285000D01*
X171965900Y-106757000D02*
X171965900Y-107460000D01*
X171965900Y-109540000D02*
X171965900Y-110243000D01*
X172005900Y-106801000D02*
X172005900Y-107460000D01*
X172005900Y-109540000D02*
X172005900Y-110199000D01*
X172045900Y-106847000D02*
X172045900Y-107460000D01*
X172045900Y-109540000D02*
X172045900Y-110153000D01*
X172085900Y-106895000D02*
X172085900Y-107460000D01*
X172085900Y-109540000D02*
X172085900Y-110105000D01*
X172125900Y-106946000D02*
X172125900Y-107460000D01*
X172125900Y-109540000D02*
X172125900Y-110054000D01*
X172165900Y-107000000D02*
X172165900Y-107460000D01*
X172165900Y-109540000D02*
X172165900Y-110000000D01*
X172205900Y-107057000D02*
X172205900Y-107460000D01*
X172205900Y-109540000D02*
X172205900Y-109943000D01*
X172245900Y-107117000D02*
X172245900Y-107460000D01*
X172245900Y-109540000D02*
X172245900Y-109883000D01*
X172285900Y-107181000D02*
X172285900Y-107460000D01*
X172285900Y-109540000D02*
X172285900Y-109819000D01*
X172325900Y-107249000D02*
X172325900Y-107460000D01*
X172325900Y-109540000D02*
X172325900Y-109751000D01*
X172365900Y-107322000D02*
X172365900Y-109678000D01*
X172405900Y-107402000D02*
X172405900Y-109598000D01*
X172445900Y-107489000D02*
X172445900Y-109511000D01*
X172485900Y-107585000D02*
X172485900Y-109415000D01*
X172525900Y-107695000D02*
X172525900Y-109305000D01*
X172565900Y-107823000D02*
X172565900Y-109177000D01*
X172605900Y-107982000D02*
X172605900Y-109018000D01*
X172645900Y-108216000D02*
X172645900Y-108784000D01*
X172664900Y-108500000D02*
G75*
G03*
X172664900Y-108500000I-2620000J0D01*
G01*
%TO.C,U1*%
X154810000Y-83570000D02*
X154810000Y-109210000D01*
X154810000Y-109210000D02*
X165310000Y-109210000D01*
X157810000Y-83630000D02*
X157810000Y-109150000D01*
X157810000Y-109150000D02*
X162310000Y-109150000D01*
X159060000Y-83630000D02*
X157810000Y-83630000D01*
X162310000Y-83630000D02*
X161060000Y-83630000D01*
X162310000Y-109150000D02*
X162310000Y-83630000D01*
X165310000Y-83570000D02*
X154810000Y-83570000D01*
X165310000Y-109210000D02*
X165310000Y-83570000D01*
X159060000Y-83630000D02*
G75*
G03*
X161060000Y-83630000I1000000J0D01*
G01*
%TO.C,J7*%
X137390000Y-110610000D02*
X137390000Y-107800000D01*
X143450000Y-110610000D02*
X137390000Y-110610000D01*
X150610000Y-110610000D02*
X147550000Y-110610000D01*
X136200000Y-106500000D02*
X136200000Y-104500000D01*
X137390000Y-103200000D02*
X137390000Y-100390000D01*
X137390000Y-100390000D02*
X143450000Y-100390000D01*
X147550000Y-100390000D02*
X150610000Y-100390000D01*
X150610000Y-100390000D02*
X150610000Y-110610000D01*
%TD*%
M02*
