%TF.GenerationSoftware,KiCad,Pcbnew,7.0.1*%
%TF.CreationDate,2023-05-30T14:27:45-07:00*%
%TF.ProjectId,tn_vdp_v1_vga,746e5f76-6470-45f7-9631-5f7667612e6b,rev?*%
%TF.SameCoordinates,Original*%
%TF.FileFunction,Copper,L2,Bot*%
%TF.FilePolarity,Positive*%
%FSLAX46Y46*%
G04 Gerber Fmt 4.6, Leading zero omitted, Abs format (unit mm)*
G04 Created by KiCad (PCBNEW 7.0.1) date 2023-05-30 14:27:45*
%MOMM*%
%LPD*%
G01*
G04 APERTURE LIST*
%TA.AperFunction,ComponentPad*%
%ADD10C,1.600000*%
%TD*%
%TA.AperFunction,ComponentPad*%
%ADD11O,1.600000X1.600000*%
%TD*%
%TA.AperFunction,ComponentPad*%
%ADD12C,4.000000*%
%TD*%
%TA.AperFunction,ComponentPad*%
%ADD13R,1.600000X1.600000*%
%TD*%
%TA.AperFunction,ComponentPad*%
%ADD14R,1.700000X1.700000*%
%TD*%
%TA.AperFunction,ComponentPad*%
%ADD15O,1.700000X1.700000*%
%TD*%
%TA.AperFunction,ViaPad*%
%ADD16C,0.800000*%
%TD*%
%TA.AperFunction,Conductor*%
%ADD17C,0.250000*%
%TD*%
%TA.AperFunction,Conductor*%
%ADD18C,0.500000*%
%TD*%
G04 APERTURE END LIST*
D10*
%TO.P,R14,1*%
%TO.N,VSYNC*%
X180975000Y-69215000D03*
D11*
%TO.P,R14,2*%
%TO.N,VS_3V3*%
X180975000Y-79375000D03*
%TD*%
D10*
%TO.P,R8,1*%
%TO.N,GREEN*%
X156675000Y-69215000D03*
D11*
%TO.P,R8,2*%
%TO.N,G3_3V3*%
X156675000Y-79375000D03*
%TD*%
D10*
%TO.P,R13,1*%
%TO.N,HSYNC*%
X176925000Y-69215000D03*
D11*
%TO.P,R13,2*%
%TO.N,HS_3V3*%
X176925000Y-79375000D03*
%TD*%
D10*
%TO.P,R1,1*%
%TO.N,RED*%
X156675000Y-56515000D03*
D11*
%TO.P,R1,2*%
%TO.N,R0_3V3*%
X156675000Y-66675000D03*
%TD*%
D12*
%TO.P,J2,0*%
%TO.N,GND*%
X181272000Y-49893000D03*
X156272000Y-49893000D03*
D13*
%TO.P,J2,1*%
%TO.N,RED*%
X164457000Y-51943000D03*
D10*
%TO.P,J2,2*%
%TO.N,GREEN*%
X166747000Y-51943000D03*
%TO.P,J2,3*%
%TO.N,BLUE*%
X169037000Y-51943000D03*
%TO.P,J2,4*%
%TO.N,unconnected-(J2-Pad4)*%
X171327000Y-51943000D03*
%TO.P,J2,5*%
%TO.N,GND*%
X173617000Y-51943000D03*
%TO.P,J2,6*%
X163312000Y-49963000D03*
%TO.P,J2,7*%
X165602000Y-49963000D03*
%TO.P,J2,8*%
X167892000Y-49963000D03*
%TO.P,J2,9*%
%TO.N,unconnected-(J2-Pad9)*%
X170182000Y-49963000D03*
%TO.P,J2,10*%
%TO.N,GND*%
X172472000Y-49963000D03*
%TO.P,J2,11*%
%TO.N,unconnected-(J2-Pad11)*%
X164457000Y-47983000D03*
%TO.P,J2,12*%
%TO.N,unconnected-(J2-Pad12)*%
X166747000Y-47983000D03*
%TO.P,J2,13*%
%TO.N,HSYNC*%
X169037000Y-47983000D03*
%TO.P,J2,14*%
%TO.N,VSYNC*%
X171327000Y-47983000D03*
%TO.P,J2,15*%
%TO.N,unconnected-(J2-Pad15)*%
X173617000Y-47983000D03*
%TD*%
%TO.P,R4,1*%
%TO.N,RED*%
X168825000Y-56515000D03*
D11*
%TO.P,R4,2*%
%TO.N,R3_3V3*%
X168825000Y-66675000D03*
%TD*%
D10*
%TO.P,R10,1*%
%TO.N,BLUE*%
X164775000Y-69215000D03*
D11*
%TO.P,R10,2*%
%TO.N,B1_3V3*%
X164775000Y-79375000D03*
%TD*%
D10*
%TO.P,R7,1*%
%TO.N,GREEN*%
X180975000Y-56515000D03*
D11*
%TO.P,R7,2*%
%TO.N,G2_3V3*%
X180975000Y-66675000D03*
%TD*%
D10*
%TO.P,R11,1*%
%TO.N,BLUE*%
X168825000Y-69215000D03*
D11*
%TO.P,R11,2*%
%TO.N,B2_3V3*%
X168825000Y-79375000D03*
%TD*%
D10*
%TO.P,R3,1*%
%TO.N,RED*%
X164775000Y-56515000D03*
D11*
%TO.P,R3,2*%
%TO.N,R2_3V3*%
X164775000Y-66675000D03*
%TD*%
D14*
%TO.P,J1,1,Pin_1*%
%TO.N,R0_3V3*%
X159639000Y-86360000D03*
D15*
%TO.P,J1,2,Pin_2*%
%TO.N,R1_3V3*%
X159639000Y-83820000D03*
%TO.P,J1,3,Pin_3*%
%TO.N,R2_3V3*%
X162179000Y-86360000D03*
%TO.P,J1,4,Pin_4*%
%TO.N,R3_3V3*%
X162179000Y-83820000D03*
%TO.P,J1,5,Pin_5*%
%TO.N,G0_3V3*%
X164719000Y-86360000D03*
%TO.P,J1,6,Pin_6*%
%TO.N,G1_3V3*%
X164719000Y-83820000D03*
%TO.P,J1,7,Pin_7*%
%TO.N,G2_3V3*%
X167259000Y-86360000D03*
%TO.P,J1,8,Pin_8*%
%TO.N,G3_3V3*%
X167259000Y-83820000D03*
%TO.P,J1,9,Pin_9*%
%TO.N,B0_3V3*%
X169799000Y-86360000D03*
%TO.P,J1,10,Pin_10*%
%TO.N,B1_3V3*%
X169799000Y-83820000D03*
%TO.P,J1,11,Pin_11*%
%TO.N,B2_3V3*%
X172339000Y-86360000D03*
%TO.P,J1,12,Pin_12*%
%TO.N,B3_3V3*%
X172339000Y-83820000D03*
%TO.P,J1,13,Pin_13*%
%TO.N,HS_3V3*%
X174879000Y-86360000D03*
%TO.P,J1,14,Pin_14*%
%TO.N,VS_3V3*%
X174879000Y-83820000D03*
%TO.P,J1,15,Pin_15*%
%TO.N,GND*%
X177419000Y-86360000D03*
%TO.P,J1,16,Pin_16*%
%TO.N,VCC*%
X177419000Y-83820000D03*
%TD*%
D10*
%TO.P,R9,1*%
%TO.N,BLUE*%
X160725000Y-69215000D03*
D11*
%TO.P,R9,2*%
%TO.N,B0_3V3*%
X160725000Y-79375000D03*
%TD*%
D10*
%TO.P,R5,1*%
%TO.N,GREEN*%
X172875000Y-56515000D03*
D11*
%TO.P,R5,2*%
%TO.N,G0_3V3*%
X172875000Y-66675000D03*
%TD*%
D10*
%TO.P,R6,1*%
%TO.N,GREEN*%
X176925000Y-56515000D03*
D11*
%TO.P,R6,2*%
%TO.N,G1_3V3*%
X176925000Y-66675000D03*
%TD*%
D10*
%TO.P,R2,1*%
%TO.N,RED*%
X160725000Y-56515000D03*
D11*
%TO.P,R2,2*%
%TO.N,R1_3V3*%
X160725000Y-66675000D03*
%TD*%
D10*
%TO.P,R12,1*%
%TO.N,BLUE*%
X172875000Y-69215000D03*
D11*
%TO.P,R12,2*%
%TO.N,B3_3V3*%
X172875000Y-79375000D03*
%TD*%
D16*
%TO.N,HSYNC*%
X180049100Y-63837700D03*
%TD*%
D17*
%TO.N,RED*%
X156675000Y-56515000D02*
X160725000Y-56515000D01*
X164775000Y-56515000D02*
X168825000Y-56515000D01*
D18*
%TO.N,GND*%
X172472000Y-49963000D02*
X173044500Y-50535500D01*
X173617000Y-50535500D02*
X174275500Y-50535500D01*
X174148900Y-46729800D02*
X163898800Y-46729800D01*
X174918000Y-49893000D02*
X174918000Y-47498900D01*
X165602000Y-49963000D02*
X163312000Y-49963000D01*
X181272000Y-49893000D02*
X174918000Y-49893000D01*
X167892000Y-49963000D02*
X165602000Y-49963000D01*
X174275500Y-50535500D02*
X174918000Y-49893000D01*
X163129500Y-47499100D02*
X163129500Y-49780500D01*
X163129500Y-49780500D02*
X163312000Y-49963000D01*
X163898800Y-46729800D02*
X163129500Y-47499100D01*
X156384500Y-49780500D02*
X156272000Y-49893000D01*
X163129500Y-49780500D02*
X156384500Y-49780500D01*
X174918000Y-47498900D02*
X174148900Y-46729800D01*
X173617000Y-51943000D02*
X173617000Y-50535500D01*
X173044500Y-50535500D02*
X173617000Y-50535500D01*
D17*
%TO.N,VS_3V3*%
X180975000Y-79375000D02*
X179849900Y-79375000D01*
X176054100Y-83170800D02*
X179849900Y-79375000D01*
X176054100Y-83820000D02*
X176054100Y-83170800D01*
X174879000Y-83820000D02*
X176054100Y-83820000D01*
%TO.N,GREEN*%
X158089900Y-67800200D02*
X158089800Y-67800200D01*
X158089900Y-67715500D02*
X158089900Y-67800200D01*
X172875000Y-56515000D02*
X176925000Y-56515000D01*
X160621400Y-65184000D02*
X158089900Y-67715500D01*
X166747000Y-51943000D02*
X170875300Y-56071200D01*
X170875300Y-56071200D02*
X171319000Y-56515000D01*
X171319000Y-56515000D02*
X172875000Y-56515000D01*
X170875300Y-56071200D02*
X161762500Y-65184000D01*
X161762500Y-65184000D02*
X160621400Y-65184000D01*
X158089800Y-67800200D02*
X156675000Y-69215000D01*
X176925000Y-56515000D02*
X180975000Y-56515000D01*
%TO.N,BLUE*%
X168825000Y-69215000D02*
X172875000Y-69215000D01*
X164775000Y-69215000D02*
X168825000Y-69215000D01*
X160725000Y-69215000D02*
X164775000Y-69215000D01*
%TO.N,HSYNC*%
X178339800Y-65547000D02*
X180049100Y-63837700D01*
X176925000Y-69215000D02*
X178339800Y-67800200D01*
X178339800Y-67800200D02*
X178339800Y-65547000D01*
%TO.N,B0_3V3*%
X168623900Y-86360000D02*
X168623900Y-85992700D01*
X166923000Y-85184900D02*
X165989000Y-84250900D01*
X165989000Y-83395900D02*
X161968100Y-79375000D01*
X165989000Y-84250900D02*
X165989000Y-83395900D01*
X167816100Y-85184900D02*
X166923000Y-85184900D01*
X161968100Y-79375000D02*
X160725000Y-79375000D01*
X168623900Y-85992700D02*
X167816100Y-85184900D01*
X169799000Y-86360000D02*
X168623900Y-86360000D01*
%TO.N,B1_3V3*%
X165602000Y-80500100D02*
X164775000Y-80500100D01*
X164775000Y-79375000D02*
X164775000Y-80500100D01*
X168623900Y-83522000D02*
X165602000Y-80500100D01*
X169799000Y-83820000D02*
X168623900Y-83820000D01*
X168623900Y-83820000D02*
X168623900Y-83522000D01*
%TO.N,G2_3V3*%
X171014100Y-77584700D02*
X180798700Y-67800100D01*
X168458200Y-87559200D02*
X170357000Y-87559200D01*
X170357000Y-87559200D02*
X171014100Y-86902100D01*
X167259000Y-86360000D02*
X168458200Y-87559200D01*
X180798700Y-67800100D02*
X180975000Y-67800100D01*
X180975000Y-66675000D02*
X180975000Y-67800100D01*
X171014100Y-86902100D02*
X171014100Y-77584700D01*
%TO.N,G3_3V3*%
X167259000Y-83820000D02*
X161675000Y-78236000D01*
X161675000Y-78236000D02*
X158939100Y-78236000D01*
X156675000Y-79375000D02*
X157800100Y-79375000D01*
X158939100Y-78236000D02*
X157800100Y-79375000D01*
%TD*%
M02*
