%TF.GenerationSoftware,KiCad,Pcbnew,7.0.1*%
%TF.CreationDate,2023-05-30T14:27:45-07:00*%
%TF.ProjectId,tn_vdp_v1_vga,746e5f76-6470-45f7-9631-5f7667612e6b,rev?*%
%TF.SameCoordinates,Original*%
%TF.FileFunction,Legend,Top*%
%TF.FilePolarity,Positive*%
%FSLAX46Y46*%
G04 Gerber Fmt 4.6, Leading zero omitted, Abs format (unit mm)*
G04 Created by KiCad (PCBNEW 7.0.1) date 2023-05-30 14:27:45*
%MOMM*%
%LPD*%
G01*
G04 APERTURE LIST*
%ADD10C,0.150000*%
%ADD11C,0.120000*%
G04 APERTURE END LIST*
D10*
X156513952Y-62999809D02*
X157180619Y-62999809D01*
X156133000Y-63237904D02*
X156847285Y-63475999D01*
X156847285Y-63475999D02*
X156847285Y-62856952D01*
X157085380Y-62475999D02*
X157133000Y-62428380D01*
X157133000Y-62428380D02*
X157180619Y-62475999D01*
X157180619Y-62475999D02*
X157133000Y-62523618D01*
X157133000Y-62523618D02*
X157085380Y-62475999D01*
X157085380Y-62475999D02*
X157180619Y-62475999D01*
X156180619Y-62095047D02*
X156180619Y-61428381D01*
X156180619Y-61428381D02*
X157180619Y-61856952D01*
X157180619Y-61047428D02*
X156180619Y-61047428D01*
X157180619Y-60476000D02*
X156609190Y-60904571D01*
X156180619Y-60476000D02*
X156752047Y-61047428D01*
X165308619Y-62190285D02*
X165308619Y-62761713D01*
X165308619Y-62475999D02*
X164308619Y-62475999D01*
X164308619Y-62475999D02*
X164451476Y-62571237D01*
X164451476Y-62571237D02*
X164546714Y-62666475D01*
X164546714Y-62666475D02*
X164594333Y-62761713D01*
X165308619Y-61761713D02*
X164308619Y-61761713D01*
X165308619Y-61190285D02*
X164737190Y-61618856D01*
X164308619Y-61190285D02*
X164880047Y-61761713D01*
X156513952Y-75437904D02*
X157180619Y-75437904D01*
X156133000Y-75675999D02*
X156847285Y-75914094D01*
X156847285Y-75914094D02*
X156847285Y-75295047D01*
X156180619Y-75009332D02*
X156180619Y-74342666D01*
X156180619Y-74342666D02*
X157180619Y-74771237D01*
X156180619Y-73771237D02*
X156180619Y-73675999D01*
X156180619Y-73675999D02*
X156228238Y-73580761D01*
X156228238Y-73580761D02*
X156275857Y-73533142D01*
X156275857Y-73533142D02*
X156371095Y-73485523D01*
X156371095Y-73485523D02*
X156561571Y-73437904D01*
X156561571Y-73437904D02*
X156799666Y-73437904D01*
X156799666Y-73437904D02*
X156990142Y-73485523D01*
X156990142Y-73485523D02*
X157085380Y-73533142D01*
X157085380Y-73533142D02*
X157133000Y-73580761D01*
X157133000Y-73580761D02*
X157180619Y-73675999D01*
X157180619Y-73675999D02*
X157180619Y-73771237D01*
X157180619Y-73771237D02*
X157133000Y-73866475D01*
X157133000Y-73866475D02*
X157085380Y-73914094D01*
X157085380Y-73914094D02*
X156990142Y-73961713D01*
X156990142Y-73961713D02*
X156799666Y-74009332D01*
X156799666Y-74009332D02*
X156561571Y-74009332D01*
X156561571Y-74009332D02*
X156371095Y-73961713D01*
X156371095Y-73961713D02*
X156275857Y-73914094D01*
X156275857Y-73914094D02*
X156228238Y-73866475D01*
X156228238Y-73866475D02*
X156180619Y-73771237D01*
X180897952Y-74707714D02*
X181564619Y-74707714D01*
X180517000Y-74945809D02*
X181231285Y-75183904D01*
X181231285Y-75183904D02*
X181231285Y-74564857D01*
X180564619Y-74279142D02*
X180564619Y-73612476D01*
X180564619Y-73612476D02*
X181564619Y-74041047D01*
X181564619Y-62190285D02*
X181564619Y-62761713D01*
X181564619Y-62475999D02*
X180564619Y-62475999D01*
X180564619Y-62475999D02*
X180707476Y-62571237D01*
X180707476Y-62571237D02*
X180802714Y-62666475D01*
X180802714Y-62666475D02*
X180850333Y-62761713D01*
X181564619Y-61761713D02*
X180564619Y-61761713D01*
X181564619Y-61190285D02*
X180993190Y-61618856D01*
X180564619Y-61190285D02*
X181136047Y-61761713D01*
X176833952Y-74707714D02*
X177500619Y-74707714D01*
X176453000Y-74945809D02*
X177167285Y-75183904D01*
X177167285Y-75183904D02*
X177167285Y-74564857D01*
X176500619Y-74279142D02*
X176500619Y-73612476D01*
X176500619Y-73612476D02*
X177500619Y-74041047D01*
X172769952Y-75437904D02*
X173436619Y-75437904D01*
X172389000Y-75675999D02*
X173103285Y-75914094D01*
X173103285Y-75914094D02*
X173103285Y-75295047D01*
X172436619Y-75009332D02*
X172436619Y-74342666D01*
X172436619Y-74342666D02*
X173436619Y-74771237D01*
X172436619Y-73771237D02*
X172436619Y-73675999D01*
X172436619Y-73675999D02*
X172484238Y-73580761D01*
X172484238Y-73580761D02*
X172531857Y-73533142D01*
X172531857Y-73533142D02*
X172627095Y-73485523D01*
X172627095Y-73485523D02*
X172817571Y-73437904D01*
X172817571Y-73437904D02*
X173055666Y-73437904D01*
X173055666Y-73437904D02*
X173246142Y-73485523D01*
X173246142Y-73485523D02*
X173341380Y-73533142D01*
X173341380Y-73533142D02*
X173389000Y-73580761D01*
X173389000Y-73580761D02*
X173436619Y-73675999D01*
X173436619Y-73675999D02*
X173436619Y-73771237D01*
X173436619Y-73771237D02*
X173389000Y-73866475D01*
X173389000Y-73866475D02*
X173341380Y-73914094D01*
X173341380Y-73914094D02*
X173246142Y-73961713D01*
X173246142Y-73961713D02*
X173055666Y-74009332D01*
X173055666Y-74009332D02*
X172817571Y-74009332D01*
X172817571Y-74009332D02*
X172627095Y-73961713D01*
X172627095Y-73961713D02*
X172531857Y-73914094D01*
X172531857Y-73914094D02*
X172484238Y-73866475D01*
X172484238Y-73866475D02*
X172436619Y-73771237D01*
X182042619Y-88169761D02*
X182042619Y-87598333D01*
X183042619Y-87884047D02*
X182042619Y-87884047D01*
X183042619Y-87264999D02*
X182042619Y-87264999D01*
X182042619Y-87264999D02*
X183042619Y-86693571D01*
X183042619Y-86693571D02*
X182042619Y-86693571D01*
X182042619Y-85598332D02*
X183042619Y-85264999D01*
X183042619Y-85264999D02*
X182042619Y-84931666D01*
X183042619Y-84598332D02*
X182042619Y-84598332D01*
X182042619Y-84598332D02*
X182042619Y-84360237D01*
X182042619Y-84360237D02*
X182090238Y-84217380D01*
X182090238Y-84217380D02*
X182185476Y-84122142D01*
X182185476Y-84122142D02*
X182280714Y-84074523D01*
X182280714Y-84074523D02*
X182471190Y-84026904D01*
X182471190Y-84026904D02*
X182614047Y-84026904D01*
X182614047Y-84026904D02*
X182804523Y-84074523D01*
X182804523Y-84074523D02*
X182899761Y-84122142D01*
X182899761Y-84122142D02*
X182995000Y-84217380D01*
X182995000Y-84217380D02*
X183042619Y-84360237D01*
X183042619Y-84360237D02*
X183042619Y-84598332D01*
X183042619Y-83598332D02*
X182042619Y-83598332D01*
X182042619Y-83598332D02*
X182042619Y-83217380D01*
X182042619Y-83217380D02*
X182090238Y-83122142D01*
X182090238Y-83122142D02*
X182137857Y-83074523D01*
X182137857Y-83074523D02*
X182233095Y-83026904D01*
X182233095Y-83026904D02*
X182375952Y-83026904D01*
X182375952Y-83026904D02*
X182471190Y-83074523D01*
X182471190Y-83074523D02*
X182518809Y-83122142D01*
X182518809Y-83122142D02*
X182566428Y-83217380D01*
X182566428Y-83217380D02*
X182566428Y-83598332D01*
X182042619Y-81979284D02*
X183042619Y-81645951D01*
X183042619Y-81645951D02*
X182042619Y-81312618D01*
X182090238Y-80455475D02*
X182042619Y-80550713D01*
X182042619Y-80550713D02*
X182042619Y-80693570D01*
X182042619Y-80693570D02*
X182090238Y-80836427D01*
X182090238Y-80836427D02*
X182185476Y-80931665D01*
X182185476Y-80931665D02*
X182280714Y-80979284D01*
X182280714Y-80979284D02*
X182471190Y-81026903D01*
X182471190Y-81026903D02*
X182614047Y-81026903D01*
X182614047Y-81026903D02*
X182804523Y-80979284D01*
X182804523Y-80979284D02*
X182899761Y-80931665D01*
X182899761Y-80931665D02*
X182995000Y-80836427D01*
X182995000Y-80836427D02*
X183042619Y-80693570D01*
X183042619Y-80693570D02*
X183042619Y-80598332D01*
X183042619Y-80598332D02*
X182995000Y-80455475D01*
X182995000Y-80455475D02*
X182947380Y-80407856D01*
X182947380Y-80407856D02*
X182614047Y-80407856D01*
X182614047Y-80407856D02*
X182614047Y-80598332D01*
X182756904Y-80026903D02*
X182756904Y-79550713D01*
X183042619Y-80122141D02*
X182042619Y-79788808D01*
X182042619Y-79788808D02*
X183042619Y-79455475D01*
X183662619Y-88169761D02*
X184662619Y-87836428D01*
X184662619Y-87836428D02*
X183662619Y-87503095D01*
X183710238Y-86645952D02*
X183662619Y-86741190D01*
X183662619Y-86741190D02*
X183662619Y-86884047D01*
X183662619Y-86884047D02*
X183710238Y-87026904D01*
X183710238Y-87026904D02*
X183805476Y-87122142D01*
X183805476Y-87122142D02*
X183900714Y-87169761D01*
X183900714Y-87169761D02*
X184091190Y-87217380D01*
X184091190Y-87217380D02*
X184234047Y-87217380D01*
X184234047Y-87217380D02*
X184424523Y-87169761D01*
X184424523Y-87169761D02*
X184519761Y-87122142D01*
X184519761Y-87122142D02*
X184615000Y-87026904D01*
X184615000Y-87026904D02*
X184662619Y-86884047D01*
X184662619Y-86884047D02*
X184662619Y-86788809D01*
X184662619Y-86788809D02*
X184615000Y-86645952D01*
X184615000Y-86645952D02*
X184567380Y-86598333D01*
X184567380Y-86598333D02*
X184234047Y-86598333D01*
X184234047Y-86598333D02*
X184234047Y-86788809D01*
X184376904Y-86217380D02*
X184376904Y-85741190D01*
X184662619Y-86312618D02*
X183662619Y-85979285D01*
X183662619Y-85979285D02*
X184662619Y-85645952D01*
X184662619Y-84550713D02*
X183662619Y-84550713D01*
X183662619Y-84550713D02*
X184376904Y-84217380D01*
X184376904Y-84217380D02*
X183662619Y-83884047D01*
X183662619Y-83884047D02*
X184662619Y-83884047D01*
X183662619Y-83217380D02*
X183662619Y-83026904D01*
X183662619Y-83026904D02*
X183710238Y-82931666D01*
X183710238Y-82931666D02*
X183805476Y-82836428D01*
X183805476Y-82836428D02*
X183995952Y-82788809D01*
X183995952Y-82788809D02*
X184329285Y-82788809D01*
X184329285Y-82788809D02*
X184519761Y-82836428D01*
X184519761Y-82836428D02*
X184615000Y-82931666D01*
X184615000Y-82931666D02*
X184662619Y-83026904D01*
X184662619Y-83026904D02*
X184662619Y-83217380D01*
X184662619Y-83217380D02*
X184615000Y-83312618D01*
X184615000Y-83312618D02*
X184519761Y-83407856D01*
X184519761Y-83407856D02*
X184329285Y-83455475D01*
X184329285Y-83455475D02*
X183995952Y-83455475D01*
X183995952Y-83455475D02*
X183805476Y-83407856D01*
X183805476Y-83407856D02*
X183710238Y-83312618D01*
X183710238Y-83312618D02*
X183662619Y-83217380D01*
X184662619Y-82360237D02*
X183662619Y-82360237D01*
X183662619Y-82360237D02*
X183662619Y-82122142D01*
X183662619Y-82122142D02*
X183710238Y-81979285D01*
X183710238Y-81979285D02*
X183805476Y-81884047D01*
X183805476Y-81884047D02*
X183900714Y-81836428D01*
X183900714Y-81836428D02*
X184091190Y-81788809D01*
X184091190Y-81788809D02*
X184234047Y-81788809D01*
X184234047Y-81788809D02*
X184424523Y-81836428D01*
X184424523Y-81836428D02*
X184519761Y-81884047D01*
X184519761Y-81884047D02*
X184615000Y-81979285D01*
X184615000Y-81979285D02*
X184662619Y-82122142D01*
X184662619Y-82122142D02*
X184662619Y-82360237D01*
X183662619Y-81360237D02*
X184472142Y-81360237D01*
X184472142Y-81360237D02*
X184567380Y-81312618D01*
X184567380Y-81312618D02*
X184615000Y-81264999D01*
X184615000Y-81264999D02*
X184662619Y-81169761D01*
X184662619Y-81169761D02*
X184662619Y-80979285D01*
X184662619Y-80979285D02*
X184615000Y-80884047D01*
X184615000Y-80884047D02*
X184567380Y-80836428D01*
X184567380Y-80836428D02*
X184472142Y-80788809D01*
X184472142Y-80788809D02*
X183662619Y-80788809D01*
X184662619Y-79836428D02*
X184662619Y-80312618D01*
X184662619Y-80312618D02*
X183662619Y-80312618D01*
X184138809Y-79503094D02*
X184138809Y-79169761D01*
X184662619Y-79026904D02*
X184662619Y-79503094D01*
X184662619Y-79503094D02*
X183662619Y-79503094D01*
X183662619Y-79503094D02*
X183662619Y-79026904D01*
X169372619Y-74890285D02*
X169372619Y-75461713D01*
X169372619Y-75175999D02*
X168372619Y-75175999D01*
X168372619Y-75175999D02*
X168515476Y-75271237D01*
X168515476Y-75271237D02*
X168610714Y-75366475D01*
X168610714Y-75366475D02*
X168658333Y-75461713D01*
X169372619Y-74461713D02*
X168372619Y-74461713D01*
X169372619Y-73890285D02*
X168801190Y-74318856D01*
X168372619Y-73890285D02*
X168944047Y-74461713D01*
X168705952Y-62483904D02*
X169372619Y-62483904D01*
X168325000Y-62721999D02*
X169039285Y-62960094D01*
X169039285Y-62960094D02*
X169039285Y-62341047D01*
X168372619Y-62055332D02*
X168372619Y-61388666D01*
X168372619Y-61388666D02*
X169372619Y-61817237D01*
X168372619Y-60817237D02*
X168372619Y-60721999D01*
X168372619Y-60721999D02*
X168420238Y-60626761D01*
X168420238Y-60626761D02*
X168467857Y-60579142D01*
X168467857Y-60579142D02*
X168563095Y-60531523D01*
X168563095Y-60531523D02*
X168753571Y-60483904D01*
X168753571Y-60483904D02*
X168991666Y-60483904D01*
X168991666Y-60483904D02*
X169182142Y-60531523D01*
X169182142Y-60531523D02*
X169277380Y-60579142D01*
X169277380Y-60579142D02*
X169325000Y-60626761D01*
X169325000Y-60626761D02*
X169372619Y-60721999D01*
X169372619Y-60721999D02*
X169372619Y-60817237D01*
X169372619Y-60817237D02*
X169325000Y-60912475D01*
X169325000Y-60912475D02*
X169277380Y-60960094D01*
X169277380Y-60960094D02*
X169182142Y-61007713D01*
X169182142Y-61007713D02*
X168991666Y-61055332D01*
X168991666Y-61055332D02*
X168753571Y-61055332D01*
X168753571Y-61055332D02*
X168563095Y-61007713D01*
X168563095Y-61007713D02*
X168467857Y-60960094D01*
X168467857Y-60960094D02*
X168420238Y-60912475D01*
X168420238Y-60912475D02*
X168372619Y-60817237D01*
X164403857Y-75921999D02*
X164356238Y-75874380D01*
X164356238Y-75874380D02*
X164308619Y-75779142D01*
X164308619Y-75779142D02*
X164308619Y-75541047D01*
X164308619Y-75541047D02*
X164356238Y-75445809D01*
X164356238Y-75445809D02*
X164403857Y-75398190D01*
X164403857Y-75398190D02*
X164499095Y-75350571D01*
X164499095Y-75350571D02*
X164594333Y-75350571D01*
X164594333Y-75350571D02*
X164737190Y-75398190D01*
X164737190Y-75398190D02*
X165308619Y-75969618D01*
X165308619Y-75969618D02*
X165308619Y-75350571D01*
X165213380Y-74921999D02*
X165261000Y-74874380D01*
X165261000Y-74874380D02*
X165308619Y-74921999D01*
X165308619Y-74921999D02*
X165261000Y-74969618D01*
X165261000Y-74969618D02*
X165213380Y-74921999D01*
X165213380Y-74921999D02*
X165308619Y-74921999D01*
X164403857Y-74493428D02*
X164356238Y-74445809D01*
X164356238Y-74445809D02*
X164308619Y-74350571D01*
X164308619Y-74350571D02*
X164308619Y-74112476D01*
X164308619Y-74112476D02*
X164356238Y-74017238D01*
X164356238Y-74017238D02*
X164403857Y-73969619D01*
X164403857Y-73969619D02*
X164499095Y-73922000D01*
X164499095Y-73922000D02*
X164594333Y-73922000D01*
X164594333Y-73922000D02*
X164737190Y-73969619D01*
X164737190Y-73969619D02*
X165308619Y-74541047D01*
X165308619Y-74541047D02*
X165308619Y-73922000D01*
X165308619Y-73493428D02*
X164308619Y-73493428D01*
X165308619Y-72922000D02*
X164737190Y-73350571D01*
X164308619Y-72922000D02*
X164880047Y-73493428D01*
X160577952Y-75445809D02*
X161244619Y-75445809D01*
X160197000Y-75683904D02*
X160911285Y-75921999D01*
X160911285Y-75921999D02*
X160911285Y-75302952D01*
X161149380Y-74921999D02*
X161197000Y-74874380D01*
X161197000Y-74874380D02*
X161244619Y-74921999D01*
X161244619Y-74921999D02*
X161197000Y-74969618D01*
X161197000Y-74969618D02*
X161149380Y-74921999D01*
X161149380Y-74921999D02*
X161244619Y-74921999D01*
X160244619Y-74541047D02*
X160244619Y-73874381D01*
X160244619Y-73874381D02*
X161244619Y-74302952D01*
X161244619Y-73493428D02*
X160244619Y-73493428D01*
X161244619Y-72922000D02*
X160673190Y-73350571D01*
X160244619Y-72922000D02*
X160816047Y-73493428D01*
X160339857Y-63475999D02*
X160292238Y-63428380D01*
X160292238Y-63428380D02*
X160244619Y-63333142D01*
X160244619Y-63333142D02*
X160244619Y-63095047D01*
X160244619Y-63095047D02*
X160292238Y-62999809D01*
X160292238Y-62999809D02*
X160339857Y-62952190D01*
X160339857Y-62952190D02*
X160435095Y-62904571D01*
X160435095Y-62904571D02*
X160530333Y-62904571D01*
X160530333Y-62904571D02*
X160673190Y-62952190D01*
X160673190Y-62952190D02*
X161244619Y-63523618D01*
X161244619Y-63523618D02*
X161244619Y-62904571D01*
X161149380Y-62475999D02*
X161197000Y-62428380D01*
X161197000Y-62428380D02*
X161244619Y-62475999D01*
X161244619Y-62475999D02*
X161197000Y-62523618D01*
X161197000Y-62523618D02*
X161149380Y-62475999D01*
X161149380Y-62475999D02*
X161244619Y-62475999D01*
X160339857Y-62047428D02*
X160292238Y-61999809D01*
X160292238Y-61999809D02*
X160244619Y-61904571D01*
X160244619Y-61904571D02*
X160244619Y-61666476D01*
X160244619Y-61666476D02*
X160292238Y-61571238D01*
X160292238Y-61571238D02*
X160339857Y-61523619D01*
X160339857Y-61523619D02*
X160435095Y-61476000D01*
X160435095Y-61476000D02*
X160530333Y-61476000D01*
X160530333Y-61476000D02*
X160673190Y-61523619D01*
X160673190Y-61523619D02*
X161244619Y-62095047D01*
X161244619Y-62095047D02*
X161244619Y-61476000D01*
X161244619Y-61047428D02*
X160244619Y-61047428D01*
X161244619Y-60476000D02*
X160673190Y-60904571D01*
X160244619Y-60476000D02*
X160816047Y-61047428D01*
X172769952Y-62745809D02*
X173436619Y-62745809D01*
X172389000Y-62983904D02*
X173103285Y-63221999D01*
X173103285Y-63221999D02*
X173103285Y-62602952D01*
X173341380Y-62221999D02*
X173389000Y-62174380D01*
X173389000Y-62174380D02*
X173436619Y-62221999D01*
X173436619Y-62221999D02*
X173389000Y-62269618D01*
X173389000Y-62269618D02*
X173341380Y-62221999D01*
X173341380Y-62221999D02*
X173436619Y-62221999D01*
X172436619Y-61841047D02*
X172436619Y-61174381D01*
X172436619Y-61174381D02*
X173436619Y-61602952D01*
X173436619Y-60793428D02*
X172436619Y-60793428D01*
X173436619Y-60222000D02*
X172865190Y-60650571D01*
X172436619Y-60222000D02*
X173008047Y-60793428D01*
X176595857Y-63221999D02*
X176548238Y-63174380D01*
X176548238Y-63174380D02*
X176500619Y-63079142D01*
X176500619Y-63079142D02*
X176500619Y-62841047D01*
X176500619Y-62841047D02*
X176548238Y-62745809D01*
X176548238Y-62745809D02*
X176595857Y-62698190D01*
X176595857Y-62698190D02*
X176691095Y-62650571D01*
X176691095Y-62650571D02*
X176786333Y-62650571D01*
X176786333Y-62650571D02*
X176929190Y-62698190D01*
X176929190Y-62698190D02*
X177500619Y-63269618D01*
X177500619Y-63269618D02*
X177500619Y-62650571D01*
X177405380Y-62221999D02*
X177453000Y-62174380D01*
X177453000Y-62174380D02*
X177500619Y-62221999D01*
X177500619Y-62221999D02*
X177453000Y-62269618D01*
X177453000Y-62269618D02*
X177405380Y-62221999D01*
X177405380Y-62221999D02*
X177500619Y-62221999D01*
X176595857Y-61793428D02*
X176548238Y-61745809D01*
X176548238Y-61745809D02*
X176500619Y-61650571D01*
X176500619Y-61650571D02*
X176500619Y-61412476D01*
X176500619Y-61412476D02*
X176548238Y-61317238D01*
X176548238Y-61317238D02*
X176595857Y-61269619D01*
X176595857Y-61269619D02*
X176691095Y-61222000D01*
X176691095Y-61222000D02*
X176786333Y-61222000D01*
X176786333Y-61222000D02*
X176929190Y-61269619D01*
X176929190Y-61269619D02*
X177500619Y-61841047D01*
X177500619Y-61841047D02*
X177500619Y-61222000D01*
X177500619Y-60793428D02*
X176500619Y-60793428D01*
X177500619Y-60222000D02*
X176929190Y-60650571D01*
X176500619Y-60222000D02*
X177072047Y-60793428D01*
%TO.C,R14*%
X179278619Y-79890857D02*
X178802428Y-80224190D01*
X179278619Y-80462285D02*
X178278619Y-80462285D01*
X178278619Y-80462285D02*
X178278619Y-80081333D01*
X178278619Y-80081333D02*
X178326238Y-79986095D01*
X178326238Y-79986095D02*
X178373857Y-79938476D01*
X178373857Y-79938476D02*
X178469095Y-79890857D01*
X178469095Y-79890857D02*
X178611952Y-79890857D01*
X178611952Y-79890857D02*
X178707190Y-79938476D01*
X178707190Y-79938476D02*
X178754809Y-79986095D01*
X178754809Y-79986095D02*
X178802428Y-80081333D01*
X178802428Y-80081333D02*
X178802428Y-80462285D01*
X179278619Y-78938476D02*
X179278619Y-79509904D01*
X179278619Y-79224190D02*
X178278619Y-79224190D01*
X178278619Y-79224190D02*
X178421476Y-79319428D01*
X178421476Y-79319428D02*
X178516714Y-79414666D01*
X178516714Y-79414666D02*
X178564333Y-79509904D01*
X178611952Y-78081333D02*
X179278619Y-78081333D01*
X178231000Y-78319428D02*
X178945285Y-78557523D01*
X178945285Y-78557523D02*
X178945285Y-77938476D01*
%TO.C,R8*%
X154978619Y-79414666D02*
X154502428Y-79747999D01*
X154978619Y-79986094D02*
X153978619Y-79986094D01*
X153978619Y-79986094D02*
X153978619Y-79605142D01*
X153978619Y-79605142D02*
X154026238Y-79509904D01*
X154026238Y-79509904D02*
X154073857Y-79462285D01*
X154073857Y-79462285D02*
X154169095Y-79414666D01*
X154169095Y-79414666D02*
X154311952Y-79414666D01*
X154311952Y-79414666D02*
X154407190Y-79462285D01*
X154407190Y-79462285D02*
X154454809Y-79509904D01*
X154454809Y-79509904D02*
X154502428Y-79605142D01*
X154502428Y-79605142D02*
X154502428Y-79986094D01*
X154407190Y-78843237D02*
X154359571Y-78938475D01*
X154359571Y-78938475D02*
X154311952Y-78986094D01*
X154311952Y-78986094D02*
X154216714Y-79033713D01*
X154216714Y-79033713D02*
X154169095Y-79033713D01*
X154169095Y-79033713D02*
X154073857Y-78986094D01*
X154073857Y-78986094D02*
X154026238Y-78938475D01*
X154026238Y-78938475D02*
X153978619Y-78843237D01*
X153978619Y-78843237D02*
X153978619Y-78652761D01*
X153978619Y-78652761D02*
X154026238Y-78557523D01*
X154026238Y-78557523D02*
X154073857Y-78509904D01*
X154073857Y-78509904D02*
X154169095Y-78462285D01*
X154169095Y-78462285D02*
X154216714Y-78462285D01*
X154216714Y-78462285D02*
X154311952Y-78509904D01*
X154311952Y-78509904D02*
X154359571Y-78557523D01*
X154359571Y-78557523D02*
X154407190Y-78652761D01*
X154407190Y-78652761D02*
X154407190Y-78843237D01*
X154407190Y-78843237D02*
X154454809Y-78938475D01*
X154454809Y-78938475D02*
X154502428Y-78986094D01*
X154502428Y-78986094D02*
X154597666Y-79033713D01*
X154597666Y-79033713D02*
X154788142Y-79033713D01*
X154788142Y-79033713D02*
X154883380Y-78986094D01*
X154883380Y-78986094D02*
X154931000Y-78938475D01*
X154931000Y-78938475D02*
X154978619Y-78843237D01*
X154978619Y-78843237D02*
X154978619Y-78652761D01*
X154978619Y-78652761D02*
X154931000Y-78557523D01*
X154931000Y-78557523D02*
X154883380Y-78509904D01*
X154883380Y-78509904D02*
X154788142Y-78462285D01*
X154788142Y-78462285D02*
X154597666Y-78462285D01*
X154597666Y-78462285D02*
X154502428Y-78509904D01*
X154502428Y-78509904D02*
X154454809Y-78557523D01*
X154454809Y-78557523D02*
X154407190Y-78652761D01*
%TO.C,R13*%
X175228619Y-79890857D02*
X174752428Y-80224190D01*
X175228619Y-80462285D02*
X174228619Y-80462285D01*
X174228619Y-80462285D02*
X174228619Y-80081333D01*
X174228619Y-80081333D02*
X174276238Y-79986095D01*
X174276238Y-79986095D02*
X174323857Y-79938476D01*
X174323857Y-79938476D02*
X174419095Y-79890857D01*
X174419095Y-79890857D02*
X174561952Y-79890857D01*
X174561952Y-79890857D02*
X174657190Y-79938476D01*
X174657190Y-79938476D02*
X174704809Y-79986095D01*
X174704809Y-79986095D02*
X174752428Y-80081333D01*
X174752428Y-80081333D02*
X174752428Y-80462285D01*
X175228619Y-78938476D02*
X175228619Y-79509904D01*
X175228619Y-79224190D02*
X174228619Y-79224190D01*
X174228619Y-79224190D02*
X174371476Y-79319428D01*
X174371476Y-79319428D02*
X174466714Y-79414666D01*
X174466714Y-79414666D02*
X174514333Y-79509904D01*
X174228619Y-78605142D02*
X174228619Y-77986095D01*
X174228619Y-77986095D02*
X174609571Y-78319428D01*
X174609571Y-78319428D02*
X174609571Y-78176571D01*
X174609571Y-78176571D02*
X174657190Y-78081333D01*
X174657190Y-78081333D02*
X174704809Y-78033714D01*
X174704809Y-78033714D02*
X174800047Y-77986095D01*
X174800047Y-77986095D02*
X175038142Y-77986095D01*
X175038142Y-77986095D02*
X175133380Y-78033714D01*
X175133380Y-78033714D02*
X175181000Y-78081333D01*
X175181000Y-78081333D02*
X175228619Y-78176571D01*
X175228619Y-78176571D02*
X175228619Y-78462285D01*
X175228619Y-78462285D02*
X175181000Y-78557523D01*
X175181000Y-78557523D02*
X175133380Y-78605142D01*
%TO.C,R1*%
X155232619Y-66714666D02*
X154756428Y-67047999D01*
X155232619Y-67286094D02*
X154232619Y-67286094D01*
X154232619Y-67286094D02*
X154232619Y-66905142D01*
X154232619Y-66905142D02*
X154280238Y-66809904D01*
X154280238Y-66809904D02*
X154327857Y-66762285D01*
X154327857Y-66762285D02*
X154423095Y-66714666D01*
X154423095Y-66714666D02*
X154565952Y-66714666D01*
X154565952Y-66714666D02*
X154661190Y-66762285D01*
X154661190Y-66762285D02*
X154708809Y-66809904D01*
X154708809Y-66809904D02*
X154756428Y-66905142D01*
X154756428Y-66905142D02*
X154756428Y-67286094D01*
X155232619Y-65762285D02*
X155232619Y-66333713D01*
X155232619Y-66047999D02*
X154232619Y-66047999D01*
X154232619Y-66047999D02*
X154375476Y-66143237D01*
X154375476Y-66143237D02*
X154470714Y-66238475D01*
X154470714Y-66238475D02*
X154518333Y-66333713D01*
%TO.C,J2*%
X168438666Y-54015619D02*
X168438666Y-54729904D01*
X168438666Y-54729904D02*
X168391047Y-54872761D01*
X168391047Y-54872761D02*
X168295809Y-54968000D01*
X168295809Y-54968000D02*
X168152952Y-55015619D01*
X168152952Y-55015619D02*
X168057714Y-55015619D01*
X168867238Y-54110857D02*
X168914857Y-54063238D01*
X168914857Y-54063238D02*
X169010095Y-54015619D01*
X169010095Y-54015619D02*
X169248190Y-54015619D01*
X169248190Y-54015619D02*
X169343428Y-54063238D01*
X169343428Y-54063238D02*
X169391047Y-54110857D01*
X169391047Y-54110857D02*
X169438666Y-54206095D01*
X169438666Y-54206095D02*
X169438666Y-54301333D01*
X169438666Y-54301333D02*
X169391047Y-54444190D01*
X169391047Y-54444190D02*
X168819619Y-55015619D01*
X168819619Y-55015619D02*
X169438666Y-55015619D01*
%TO.C,R4*%
X167382619Y-66714666D02*
X166906428Y-67047999D01*
X167382619Y-67286094D02*
X166382619Y-67286094D01*
X166382619Y-67286094D02*
X166382619Y-66905142D01*
X166382619Y-66905142D02*
X166430238Y-66809904D01*
X166430238Y-66809904D02*
X166477857Y-66762285D01*
X166477857Y-66762285D02*
X166573095Y-66714666D01*
X166573095Y-66714666D02*
X166715952Y-66714666D01*
X166715952Y-66714666D02*
X166811190Y-66762285D01*
X166811190Y-66762285D02*
X166858809Y-66809904D01*
X166858809Y-66809904D02*
X166906428Y-66905142D01*
X166906428Y-66905142D02*
X166906428Y-67286094D01*
X166715952Y-65857523D02*
X167382619Y-65857523D01*
X166335000Y-66095618D02*
X167049285Y-66333713D01*
X167049285Y-66333713D02*
X167049285Y-65714666D01*
%TO.C,R10*%
X163078619Y-79890857D02*
X162602428Y-80224190D01*
X163078619Y-80462285D02*
X162078619Y-80462285D01*
X162078619Y-80462285D02*
X162078619Y-80081333D01*
X162078619Y-80081333D02*
X162126238Y-79986095D01*
X162126238Y-79986095D02*
X162173857Y-79938476D01*
X162173857Y-79938476D02*
X162269095Y-79890857D01*
X162269095Y-79890857D02*
X162411952Y-79890857D01*
X162411952Y-79890857D02*
X162507190Y-79938476D01*
X162507190Y-79938476D02*
X162554809Y-79986095D01*
X162554809Y-79986095D02*
X162602428Y-80081333D01*
X162602428Y-80081333D02*
X162602428Y-80462285D01*
X163078619Y-78938476D02*
X163078619Y-79509904D01*
X163078619Y-79224190D02*
X162078619Y-79224190D01*
X162078619Y-79224190D02*
X162221476Y-79319428D01*
X162221476Y-79319428D02*
X162316714Y-79414666D01*
X162316714Y-79414666D02*
X162364333Y-79509904D01*
X162078619Y-78319428D02*
X162078619Y-78224190D01*
X162078619Y-78224190D02*
X162126238Y-78128952D01*
X162126238Y-78128952D02*
X162173857Y-78081333D01*
X162173857Y-78081333D02*
X162269095Y-78033714D01*
X162269095Y-78033714D02*
X162459571Y-77986095D01*
X162459571Y-77986095D02*
X162697666Y-77986095D01*
X162697666Y-77986095D02*
X162888142Y-78033714D01*
X162888142Y-78033714D02*
X162983380Y-78081333D01*
X162983380Y-78081333D02*
X163031000Y-78128952D01*
X163031000Y-78128952D02*
X163078619Y-78224190D01*
X163078619Y-78224190D02*
X163078619Y-78319428D01*
X163078619Y-78319428D02*
X163031000Y-78414666D01*
X163031000Y-78414666D02*
X162983380Y-78462285D01*
X162983380Y-78462285D02*
X162888142Y-78509904D01*
X162888142Y-78509904D02*
X162697666Y-78557523D01*
X162697666Y-78557523D02*
X162459571Y-78557523D01*
X162459571Y-78557523D02*
X162269095Y-78509904D01*
X162269095Y-78509904D02*
X162173857Y-78462285D01*
X162173857Y-78462285D02*
X162126238Y-78414666D01*
X162126238Y-78414666D02*
X162078619Y-78319428D01*
%TO.C,R7*%
X179532619Y-66714666D02*
X179056428Y-67047999D01*
X179532619Y-67286094D02*
X178532619Y-67286094D01*
X178532619Y-67286094D02*
X178532619Y-66905142D01*
X178532619Y-66905142D02*
X178580238Y-66809904D01*
X178580238Y-66809904D02*
X178627857Y-66762285D01*
X178627857Y-66762285D02*
X178723095Y-66714666D01*
X178723095Y-66714666D02*
X178865952Y-66714666D01*
X178865952Y-66714666D02*
X178961190Y-66762285D01*
X178961190Y-66762285D02*
X179008809Y-66809904D01*
X179008809Y-66809904D02*
X179056428Y-66905142D01*
X179056428Y-66905142D02*
X179056428Y-67286094D01*
X178532619Y-66381332D02*
X178532619Y-65714666D01*
X178532619Y-65714666D02*
X179532619Y-66143237D01*
%TO.C,R11*%
X167128619Y-79890857D02*
X166652428Y-80224190D01*
X167128619Y-80462285D02*
X166128619Y-80462285D01*
X166128619Y-80462285D02*
X166128619Y-80081333D01*
X166128619Y-80081333D02*
X166176238Y-79986095D01*
X166176238Y-79986095D02*
X166223857Y-79938476D01*
X166223857Y-79938476D02*
X166319095Y-79890857D01*
X166319095Y-79890857D02*
X166461952Y-79890857D01*
X166461952Y-79890857D02*
X166557190Y-79938476D01*
X166557190Y-79938476D02*
X166604809Y-79986095D01*
X166604809Y-79986095D02*
X166652428Y-80081333D01*
X166652428Y-80081333D02*
X166652428Y-80462285D01*
X167128619Y-78938476D02*
X167128619Y-79509904D01*
X167128619Y-79224190D02*
X166128619Y-79224190D01*
X166128619Y-79224190D02*
X166271476Y-79319428D01*
X166271476Y-79319428D02*
X166366714Y-79414666D01*
X166366714Y-79414666D02*
X166414333Y-79509904D01*
X167128619Y-77986095D02*
X167128619Y-78557523D01*
X167128619Y-78271809D02*
X166128619Y-78271809D01*
X166128619Y-78271809D02*
X166271476Y-78367047D01*
X166271476Y-78367047D02*
X166366714Y-78462285D01*
X166366714Y-78462285D02*
X166414333Y-78557523D01*
%TO.C,R3*%
X163332619Y-66714666D02*
X162856428Y-67047999D01*
X163332619Y-67286094D02*
X162332619Y-67286094D01*
X162332619Y-67286094D02*
X162332619Y-66905142D01*
X162332619Y-66905142D02*
X162380238Y-66809904D01*
X162380238Y-66809904D02*
X162427857Y-66762285D01*
X162427857Y-66762285D02*
X162523095Y-66714666D01*
X162523095Y-66714666D02*
X162665952Y-66714666D01*
X162665952Y-66714666D02*
X162761190Y-66762285D01*
X162761190Y-66762285D02*
X162808809Y-66809904D01*
X162808809Y-66809904D02*
X162856428Y-66905142D01*
X162856428Y-66905142D02*
X162856428Y-67286094D01*
X162332619Y-66381332D02*
X162332619Y-65762285D01*
X162332619Y-65762285D02*
X162713571Y-66095618D01*
X162713571Y-66095618D02*
X162713571Y-65952761D01*
X162713571Y-65952761D02*
X162761190Y-65857523D01*
X162761190Y-65857523D02*
X162808809Y-65809904D01*
X162808809Y-65809904D02*
X162904047Y-65762285D01*
X162904047Y-65762285D02*
X163142142Y-65762285D01*
X163142142Y-65762285D02*
X163237380Y-65809904D01*
X163237380Y-65809904D02*
X163285000Y-65857523D01*
X163285000Y-65857523D02*
X163332619Y-65952761D01*
X163332619Y-65952761D02*
X163332619Y-66238475D01*
X163332619Y-66238475D02*
X163285000Y-66333713D01*
X163285000Y-66333713D02*
X163237380Y-66381332D01*
%TO.C,J1*%
X156771619Y-85423333D02*
X157485904Y-85423333D01*
X157485904Y-85423333D02*
X157628761Y-85470952D01*
X157628761Y-85470952D02*
X157724000Y-85566190D01*
X157724000Y-85566190D02*
X157771619Y-85709047D01*
X157771619Y-85709047D02*
X157771619Y-85804285D01*
X157771619Y-84423333D02*
X157771619Y-84994761D01*
X157771619Y-84709047D02*
X156771619Y-84709047D01*
X156771619Y-84709047D02*
X156914476Y-84804285D01*
X156914476Y-84804285D02*
X157009714Y-84899523D01*
X157009714Y-84899523D02*
X157057333Y-84994761D01*
%TO.C,R9*%
X159028619Y-79414666D02*
X158552428Y-79747999D01*
X159028619Y-79986094D02*
X158028619Y-79986094D01*
X158028619Y-79986094D02*
X158028619Y-79605142D01*
X158028619Y-79605142D02*
X158076238Y-79509904D01*
X158076238Y-79509904D02*
X158123857Y-79462285D01*
X158123857Y-79462285D02*
X158219095Y-79414666D01*
X158219095Y-79414666D02*
X158361952Y-79414666D01*
X158361952Y-79414666D02*
X158457190Y-79462285D01*
X158457190Y-79462285D02*
X158504809Y-79509904D01*
X158504809Y-79509904D02*
X158552428Y-79605142D01*
X158552428Y-79605142D02*
X158552428Y-79986094D01*
X159028619Y-78938475D02*
X159028619Y-78747999D01*
X159028619Y-78747999D02*
X158981000Y-78652761D01*
X158981000Y-78652761D02*
X158933380Y-78605142D01*
X158933380Y-78605142D02*
X158790523Y-78509904D01*
X158790523Y-78509904D02*
X158600047Y-78462285D01*
X158600047Y-78462285D02*
X158219095Y-78462285D01*
X158219095Y-78462285D02*
X158123857Y-78509904D01*
X158123857Y-78509904D02*
X158076238Y-78557523D01*
X158076238Y-78557523D02*
X158028619Y-78652761D01*
X158028619Y-78652761D02*
X158028619Y-78843237D01*
X158028619Y-78843237D02*
X158076238Y-78938475D01*
X158076238Y-78938475D02*
X158123857Y-78986094D01*
X158123857Y-78986094D02*
X158219095Y-79033713D01*
X158219095Y-79033713D02*
X158457190Y-79033713D01*
X158457190Y-79033713D02*
X158552428Y-78986094D01*
X158552428Y-78986094D02*
X158600047Y-78938475D01*
X158600047Y-78938475D02*
X158647666Y-78843237D01*
X158647666Y-78843237D02*
X158647666Y-78652761D01*
X158647666Y-78652761D02*
X158600047Y-78557523D01*
X158600047Y-78557523D02*
X158552428Y-78509904D01*
X158552428Y-78509904D02*
X158457190Y-78462285D01*
%TO.C,R5*%
X171432619Y-66714666D02*
X170956428Y-67047999D01*
X171432619Y-67286094D02*
X170432619Y-67286094D01*
X170432619Y-67286094D02*
X170432619Y-66905142D01*
X170432619Y-66905142D02*
X170480238Y-66809904D01*
X170480238Y-66809904D02*
X170527857Y-66762285D01*
X170527857Y-66762285D02*
X170623095Y-66714666D01*
X170623095Y-66714666D02*
X170765952Y-66714666D01*
X170765952Y-66714666D02*
X170861190Y-66762285D01*
X170861190Y-66762285D02*
X170908809Y-66809904D01*
X170908809Y-66809904D02*
X170956428Y-66905142D01*
X170956428Y-66905142D02*
X170956428Y-67286094D01*
X170432619Y-65809904D02*
X170432619Y-66286094D01*
X170432619Y-66286094D02*
X170908809Y-66333713D01*
X170908809Y-66333713D02*
X170861190Y-66286094D01*
X170861190Y-66286094D02*
X170813571Y-66190856D01*
X170813571Y-66190856D02*
X170813571Y-65952761D01*
X170813571Y-65952761D02*
X170861190Y-65857523D01*
X170861190Y-65857523D02*
X170908809Y-65809904D01*
X170908809Y-65809904D02*
X171004047Y-65762285D01*
X171004047Y-65762285D02*
X171242142Y-65762285D01*
X171242142Y-65762285D02*
X171337380Y-65809904D01*
X171337380Y-65809904D02*
X171385000Y-65857523D01*
X171385000Y-65857523D02*
X171432619Y-65952761D01*
X171432619Y-65952761D02*
X171432619Y-66190856D01*
X171432619Y-66190856D02*
X171385000Y-66286094D01*
X171385000Y-66286094D02*
X171337380Y-66333713D01*
%TO.C,R6*%
X175482619Y-66714666D02*
X175006428Y-67047999D01*
X175482619Y-67286094D02*
X174482619Y-67286094D01*
X174482619Y-67286094D02*
X174482619Y-66905142D01*
X174482619Y-66905142D02*
X174530238Y-66809904D01*
X174530238Y-66809904D02*
X174577857Y-66762285D01*
X174577857Y-66762285D02*
X174673095Y-66714666D01*
X174673095Y-66714666D02*
X174815952Y-66714666D01*
X174815952Y-66714666D02*
X174911190Y-66762285D01*
X174911190Y-66762285D02*
X174958809Y-66809904D01*
X174958809Y-66809904D02*
X175006428Y-66905142D01*
X175006428Y-66905142D02*
X175006428Y-67286094D01*
X174482619Y-65857523D02*
X174482619Y-66047999D01*
X174482619Y-66047999D02*
X174530238Y-66143237D01*
X174530238Y-66143237D02*
X174577857Y-66190856D01*
X174577857Y-66190856D02*
X174720714Y-66286094D01*
X174720714Y-66286094D02*
X174911190Y-66333713D01*
X174911190Y-66333713D02*
X175292142Y-66333713D01*
X175292142Y-66333713D02*
X175387380Y-66286094D01*
X175387380Y-66286094D02*
X175435000Y-66238475D01*
X175435000Y-66238475D02*
X175482619Y-66143237D01*
X175482619Y-66143237D02*
X175482619Y-65952761D01*
X175482619Y-65952761D02*
X175435000Y-65857523D01*
X175435000Y-65857523D02*
X175387380Y-65809904D01*
X175387380Y-65809904D02*
X175292142Y-65762285D01*
X175292142Y-65762285D02*
X175054047Y-65762285D01*
X175054047Y-65762285D02*
X174958809Y-65809904D01*
X174958809Y-65809904D02*
X174911190Y-65857523D01*
X174911190Y-65857523D02*
X174863571Y-65952761D01*
X174863571Y-65952761D02*
X174863571Y-66143237D01*
X174863571Y-66143237D02*
X174911190Y-66238475D01*
X174911190Y-66238475D02*
X174958809Y-66286094D01*
X174958809Y-66286094D02*
X175054047Y-66333713D01*
%TO.C,R2*%
X159282619Y-66714666D02*
X158806428Y-67047999D01*
X159282619Y-67286094D02*
X158282619Y-67286094D01*
X158282619Y-67286094D02*
X158282619Y-66905142D01*
X158282619Y-66905142D02*
X158330238Y-66809904D01*
X158330238Y-66809904D02*
X158377857Y-66762285D01*
X158377857Y-66762285D02*
X158473095Y-66714666D01*
X158473095Y-66714666D02*
X158615952Y-66714666D01*
X158615952Y-66714666D02*
X158711190Y-66762285D01*
X158711190Y-66762285D02*
X158758809Y-66809904D01*
X158758809Y-66809904D02*
X158806428Y-66905142D01*
X158806428Y-66905142D02*
X158806428Y-67286094D01*
X158377857Y-66333713D02*
X158330238Y-66286094D01*
X158330238Y-66286094D02*
X158282619Y-66190856D01*
X158282619Y-66190856D02*
X158282619Y-65952761D01*
X158282619Y-65952761D02*
X158330238Y-65857523D01*
X158330238Y-65857523D02*
X158377857Y-65809904D01*
X158377857Y-65809904D02*
X158473095Y-65762285D01*
X158473095Y-65762285D02*
X158568333Y-65762285D01*
X158568333Y-65762285D02*
X158711190Y-65809904D01*
X158711190Y-65809904D02*
X159282619Y-66381332D01*
X159282619Y-66381332D02*
X159282619Y-65762285D01*
%TO.C,R12*%
X171178619Y-79890857D02*
X170702428Y-80224190D01*
X171178619Y-80462285D02*
X170178619Y-80462285D01*
X170178619Y-80462285D02*
X170178619Y-80081333D01*
X170178619Y-80081333D02*
X170226238Y-79986095D01*
X170226238Y-79986095D02*
X170273857Y-79938476D01*
X170273857Y-79938476D02*
X170369095Y-79890857D01*
X170369095Y-79890857D02*
X170511952Y-79890857D01*
X170511952Y-79890857D02*
X170607190Y-79938476D01*
X170607190Y-79938476D02*
X170654809Y-79986095D01*
X170654809Y-79986095D02*
X170702428Y-80081333D01*
X170702428Y-80081333D02*
X170702428Y-80462285D01*
X171178619Y-78938476D02*
X171178619Y-79509904D01*
X171178619Y-79224190D02*
X170178619Y-79224190D01*
X170178619Y-79224190D02*
X170321476Y-79319428D01*
X170321476Y-79319428D02*
X170416714Y-79414666D01*
X170416714Y-79414666D02*
X170464333Y-79509904D01*
X170273857Y-78557523D02*
X170226238Y-78509904D01*
X170226238Y-78509904D02*
X170178619Y-78414666D01*
X170178619Y-78414666D02*
X170178619Y-78176571D01*
X170178619Y-78176571D02*
X170226238Y-78081333D01*
X170226238Y-78081333D02*
X170273857Y-78033714D01*
X170273857Y-78033714D02*
X170369095Y-77986095D01*
X170369095Y-77986095D02*
X170464333Y-77986095D01*
X170464333Y-77986095D02*
X170607190Y-78033714D01*
X170607190Y-78033714D02*
X171178619Y-78605142D01*
X171178619Y-78605142D02*
X171178619Y-77986095D01*
D11*
%TO.C,R14*%
X180975000Y-70255000D02*
X180975000Y-71025000D01*
X182345000Y-71025000D02*
X179605000Y-71025000D01*
X179605000Y-71025000D02*
X179605000Y-77565000D01*
X182345000Y-77565000D02*
X182345000Y-71025000D01*
X179605000Y-77565000D02*
X182345000Y-77565000D01*
X180975000Y-78335000D02*
X180975000Y-77565000D01*
%TO.C,R8*%
X156675000Y-70255000D02*
X156675000Y-71025000D01*
X158045000Y-71025000D02*
X155305000Y-71025000D01*
X155305000Y-71025000D02*
X155305000Y-77565000D01*
X158045000Y-77565000D02*
X158045000Y-71025000D01*
X155305000Y-77565000D02*
X158045000Y-77565000D01*
X156675000Y-78335000D02*
X156675000Y-77565000D01*
%TO.C,R13*%
X176925000Y-70255000D02*
X176925000Y-71025000D01*
X178295000Y-71025000D02*
X175555000Y-71025000D01*
X175555000Y-71025000D02*
X175555000Y-77565000D01*
X178295000Y-77565000D02*
X178295000Y-71025000D01*
X175555000Y-77565000D02*
X178295000Y-77565000D01*
X176925000Y-78335000D02*
X176925000Y-77565000D01*
%TO.C,R1*%
X156675000Y-57555000D02*
X156675000Y-58325000D01*
X158045000Y-58325000D02*
X155305000Y-58325000D01*
X155305000Y-58325000D02*
X155305000Y-64865000D01*
X158045000Y-64865000D02*
X158045000Y-58325000D01*
X155305000Y-64865000D02*
X158045000Y-64865000D01*
X156675000Y-65635000D02*
X156675000Y-64865000D01*
%TO.C,J2*%
X184257000Y-53613000D02*
X153287000Y-53613000D01*
X184257000Y-45013000D02*
X184257000Y-53613000D01*
X164707000Y-54507338D02*
X164207000Y-54507338D01*
X164457000Y-54074325D02*
X164707000Y-54507338D01*
X164207000Y-54507338D02*
X164457000Y-54074325D01*
X153287000Y-53613000D02*
X153287000Y-45013000D01*
%TO.C,R4*%
X168825000Y-57555000D02*
X168825000Y-58325000D01*
X170195000Y-58325000D02*
X167455000Y-58325000D01*
X167455000Y-58325000D02*
X167455000Y-64865000D01*
X170195000Y-64865000D02*
X170195000Y-58325000D01*
X167455000Y-64865000D02*
X170195000Y-64865000D01*
X168825000Y-65635000D02*
X168825000Y-64865000D01*
%TO.C,R10*%
X164775000Y-70255000D02*
X164775000Y-71025000D01*
X166145000Y-71025000D02*
X163405000Y-71025000D01*
X163405000Y-71025000D02*
X163405000Y-77565000D01*
X166145000Y-77565000D02*
X166145000Y-71025000D01*
X163405000Y-77565000D02*
X166145000Y-77565000D01*
X164775000Y-78335000D02*
X164775000Y-77565000D01*
%TO.C,R7*%
X180975000Y-57555000D02*
X180975000Y-58325000D01*
X182345000Y-58325000D02*
X179605000Y-58325000D01*
X179605000Y-58325000D02*
X179605000Y-64865000D01*
X182345000Y-64865000D02*
X182345000Y-58325000D01*
X179605000Y-64865000D02*
X182345000Y-64865000D01*
X180975000Y-65635000D02*
X180975000Y-64865000D01*
%TO.C,R11*%
X168825000Y-70255000D02*
X168825000Y-71025000D01*
X170195000Y-71025000D02*
X167455000Y-71025000D01*
X167455000Y-71025000D02*
X167455000Y-77565000D01*
X170195000Y-77565000D02*
X170195000Y-71025000D01*
X167455000Y-77565000D02*
X170195000Y-77565000D01*
X168825000Y-78335000D02*
X168825000Y-77565000D01*
%TO.C,R3*%
X164775000Y-57555000D02*
X164775000Y-58325000D01*
X166145000Y-58325000D02*
X163405000Y-58325000D01*
X163405000Y-58325000D02*
X163405000Y-64865000D01*
X166145000Y-64865000D02*
X166145000Y-58325000D01*
X163405000Y-64865000D02*
X166145000Y-64865000D01*
X164775000Y-65635000D02*
X164775000Y-64865000D01*
%TO.C,J1*%
X158309000Y-87690000D02*
X158309000Y-86360000D01*
X159639000Y-87690000D02*
X158309000Y-87690000D01*
X160909000Y-87690000D02*
X178749000Y-87690000D01*
X160909000Y-87690000D02*
X160909000Y-85090000D01*
X178749000Y-87690000D02*
X178749000Y-82490000D01*
X158309000Y-85090000D02*
X158309000Y-82490000D01*
X160909000Y-85090000D02*
X158309000Y-85090000D01*
X158309000Y-82490000D02*
X178749000Y-82490000D01*
%TO.C,R9*%
X160725000Y-70255000D02*
X160725000Y-71025000D01*
X162095000Y-71025000D02*
X159355000Y-71025000D01*
X159355000Y-71025000D02*
X159355000Y-77565000D01*
X162095000Y-77565000D02*
X162095000Y-71025000D01*
X159355000Y-77565000D02*
X162095000Y-77565000D01*
X160725000Y-78335000D02*
X160725000Y-77565000D01*
%TO.C,R5*%
X172875000Y-57555000D02*
X172875000Y-58325000D01*
X174245000Y-58325000D02*
X171505000Y-58325000D01*
X171505000Y-58325000D02*
X171505000Y-64865000D01*
X174245000Y-64865000D02*
X174245000Y-58325000D01*
X171505000Y-64865000D02*
X174245000Y-64865000D01*
X172875000Y-65635000D02*
X172875000Y-64865000D01*
%TO.C,R6*%
X176925000Y-57555000D02*
X176925000Y-58325000D01*
X178295000Y-58325000D02*
X175555000Y-58325000D01*
X175555000Y-58325000D02*
X175555000Y-64865000D01*
X178295000Y-64865000D02*
X178295000Y-58325000D01*
X175555000Y-64865000D02*
X178295000Y-64865000D01*
X176925000Y-65635000D02*
X176925000Y-64865000D01*
%TO.C,R2*%
X160725000Y-57555000D02*
X160725000Y-58325000D01*
X162095000Y-58325000D02*
X159355000Y-58325000D01*
X159355000Y-58325000D02*
X159355000Y-64865000D01*
X162095000Y-64865000D02*
X162095000Y-58325000D01*
X159355000Y-64865000D02*
X162095000Y-64865000D01*
X160725000Y-65635000D02*
X160725000Y-64865000D01*
%TO.C,R12*%
X172875000Y-70255000D02*
X172875000Y-71025000D01*
X174245000Y-71025000D02*
X171505000Y-71025000D01*
X171505000Y-71025000D02*
X171505000Y-77565000D01*
X174245000Y-77565000D02*
X174245000Y-71025000D01*
X171505000Y-77565000D02*
X174245000Y-77565000D01*
X172875000Y-78335000D02*
X172875000Y-77565000D01*
%TD*%
M02*
