%TF.GenerationSoftware,KiCad,Pcbnew,7.0.1*%
%TF.CreationDate,2023-06-01T10:42:52-07:00*%
%TF.ProjectId,tn_vdp_v2_board,746e5f76-6470-45f7-9632-5f626f617264,rev?*%
%TF.SameCoordinates,Original*%
%TF.FileFunction,Legend,Top*%
%TF.FilePolarity,Positive*%
%FSLAX46Y46*%
G04 Gerber Fmt 4.6, Leading zero omitted, Abs format (unit mm)*
G04 Created by KiCad (PCBNEW 7.0.1) date 2023-06-01 10:42:52*
%MOMM*%
%LPD*%
G01*
G04 APERTURE LIST*
%ADD10C,0.187500*%
%ADD11C,0.150000*%
%ADD12C,0.120000*%
G04 APERTURE END LIST*
D10*
X180321428Y-78013214D02*
X179892857Y-78013214D01*
X180107142Y-78013214D02*
X180107142Y-77263214D01*
X180107142Y-77263214D02*
X180035714Y-77370357D01*
X180035714Y-77370357D02*
X179964285Y-77441785D01*
X179964285Y-77441785D02*
X179892857Y-77477500D01*
X180642857Y-77941785D02*
X180678571Y-77977500D01*
X180678571Y-77977500D02*
X180642857Y-78013214D01*
X180642857Y-78013214D02*
X180607143Y-77977500D01*
X180607143Y-77977500D02*
X180642857Y-77941785D01*
X180642857Y-77941785D02*
X180642857Y-78013214D01*
X180642857Y-77548928D02*
X180678571Y-77584642D01*
X180678571Y-77584642D02*
X180642857Y-77620357D01*
X180642857Y-77620357D02*
X180607143Y-77584642D01*
X180607143Y-77584642D02*
X180642857Y-77548928D01*
X180642857Y-77548928D02*
X180642857Y-77620357D01*
X181000000Y-78013214D02*
X181000000Y-77263214D01*
X181000000Y-77263214D02*
X181250000Y-77798928D01*
X181250000Y-77798928D02*
X181500000Y-77263214D01*
X181500000Y-77263214D02*
X181500000Y-78013214D01*
X181821429Y-77798928D02*
X182178572Y-77798928D01*
X181750000Y-78013214D02*
X182000000Y-77263214D01*
X182000000Y-77263214D02*
X182250000Y-78013214D01*
X182428571Y-77263214D02*
X182928571Y-78013214D01*
X182928571Y-77263214D02*
X182428571Y-78013214D01*
X183750001Y-77977500D02*
X183857144Y-78013214D01*
X183857144Y-78013214D02*
X184035715Y-78013214D01*
X184035715Y-78013214D02*
X184107144Y-77977500D01*
X184107144Y-77977500D02*
X184142858Y-77941785D01*
X184142858Y-77941785D02*
X184178572Y-77870357D01*
X184178572Y-77870357D02*
X184178572Y-77798928D01*
X184178572Y-77798928D02*
X184142858Y-77727500D01*
X184142858Y-77727500D02*
X184107144Y-77691785D01*
X184107144Y-77691785D02*
X184035715Y-77656071D01*
X184035715Y-77656071D02*
X183892858Y-77620357D01*
X183892858Y-77620357D02*
X183821429Y-77584642D01*
X183821429Y-77584642D02*
X183785715Y-77548928D01*
X183785715Y-77548928D02*
X183750001Y-77477500D01*
X183750001Y-77477500D02*
X183750001Y-77406071D01*
X183750001Y-77406071D02*
X183785715Y-77334642D01*
X183785715Y-77334642D02*
X183821429Y-77298928D01*
X183821429Y-77298928D02*
X183892858Y-77263214D01*
X183892858Y-77263214D02*
X184071429Y-77263214D01*
X184071429Y-77263214D02*
X184178572Y-77298928D01*
X184500001Y-78013214D02*
X184500001Y-77263214D01*
X184500001Y-77263214D02*
X184785715Y-77263214D01*
X184785715Y-77263214D02*
X184857144Y-77298928D01*
X184857144Y-77298928D02*
X184892858Y-77334642D01*
X184892858Y-77334642D02*
X184928572Y-77406071D01*
X184928572Y-77406071D02*
X184928572Y-77513214D01*
X184928572Y-77513214D02*
X184892858Y-77584642D01*
X184892858Y-77584642D02*
X184857144Y-77620357D01*
X184857144Y-77620357D02*
X184785715Y-77656071D01*
X184785715Y-77656071D02*
X184500001Y-77656071D01*
X185678572Y-78013214D02*
X185428572Y-77656071D01*
X185250001Y-78013214D02*
X185250001Y-77263214D01*
X185250001Y-77263214D02*
X185535715Y-77263214D01*
X185535715Y-77263214D02*
X185607144Y-77298928D01*
X185607144Y-77298928D02*
X185642858Y-77334642D01*
X185642858Y-77334642D02*
X185678572Y-77406071D01*
X185678572Y-77406071D02*
X185678572Y-77513214D01*
X185678572Y-77513214D02*
X185642858Y-77584642D01*
X185642858Y-77584642D02*
X185607144Y-77620357D01*
X185607144Y-77620357D02*
X185535715Y-77656071D01*
X185535715Y-77656071D02*
X185250001Y-77656071D01*
X179892857Y-78549642D02*
X179928571Y-78513928D01*
X179928571Y-78513928D02*
X180000000Y-78478214D01*
X180000000Y-78478214D02*
X180178571Y-78478214D01*
X180178571Y-78478214D02*
X180250000Y-78513928D01*
X180250000Y-78513928D02*
X180285714Y-78549642D01*
X180285714Y-78549642D02*
X180321428Y-78621071D01*
X180321428Y-78621071D02*
X180321428Y-78692500D01*
X180321428Y-78692500D02*
X180285714Y-78799642D01*
X180285714Y-78799642D02*
X179857142Y-79228214D01*
X179857142Y-79228214D02*
X180321428Y-79228214D01*
X180642857Y-79156785D02*
X180678571Y-79192500D01*
X180678571Y-79192500D02*
X180642857Y-79228214D01*
X180642857Y-79228214D02*
X180607143Y-79192500D01*
X180607143Y-79192500D02*
X180642857Y-79156785D01*
X180642857Y-79156785D02*
X180642857Y-79228214D01*
X180642857Y-78763928D02*
X180678571Y-78799642D01*
X180678571Y-78799642D02*
X180642857Y-78835357D01*
X180642857Y-78835357D02*
X180607143Y-78799642D01*
X180607143Y-78799642D02*
X180642857Y-78763928D01*
X180642857Y-78763928D02*
X180642857Y-78835357D01*
X180964286Y-79192500D02*
X181071429Y-79228214D01*
X181071429Y-79228214D02*
X181250000Y-79228214D01*
X181250000Y-79228214D02*
X181321429Y-79192500D01*
X181321429Y-79192500D02*
X181357143Y-79156785D01*
X181357143Y-79156785D02*
X181392857Y-79085357D01*
X181392857Y-79085357D02*
X181392857Y-79013928D01*
X181392857Y-79013928D02*
X181357143Y-78942500D01*
X181357143Y-78942500D02*
X181321429Y-78906785D01*
X181321429Y-78906785D02*
X181250000Y-78871071D01*
X181250000Y-78871071D02*
X181107143Y-78835357D01*
X181107143Y-78835357D02*
X181035714Y-78799642D01*
X181035714Y-78799642D02*
X181000000Y-78763928D01*
X181000000Y-78763928D02*
X180964286Y-78692500D01*
X180964286Y-78692500D02*
X180964286Y-78621071D01*
X180964286Y-78621071D02*
X181000000Y-78549642D01*
X181000000Y-78549642D02*
X181035714Y-78513928D01*
X181035714Y-78513928D02*
X181107143Y-78478214D01*
X181107143Y-78478214D02*
X181285714Y-78478214D01*
X181285714Y-78478214D02*
X181392857Y-78513928D01*
X182142857Y-79156785D02*
X182107143Y-79192500D01*
X182107143Y-79192500D02*
X182000000Y-79228214D01*
X182000000Y-79228214D02*
X181928572Y-79228214D01*
X181928572Y-79228214D02*
X181821429Y-79192500D01*
X181821429Y-79192500D02*
X181750000Y-79121071D01*
X181750000Y-79121071D02*
X181714286Y-79049642D01*
X181714286Y-79049642D02*
X181678572Y-78906785D01*
X181678572Y-78906785D02*
X181678572Y-78799642D01*
X181678572Y-78799642D02*
X181714286Y-78656785D01*
X181714286Y-78656785D02*
X181750000Y-78585357D01*
X181750000Y-78585357D02*
X181821429Y-78513928D01*
X181821429Y-78513928D02*
X181928572Y-78478214D01*
X181928572Y-78478214D02*
X182000000Y-78478214D01*
X182000000Y-78478214D02*
X182107143Y-78513928D01*
X182107143Y-78513928D02*
X182142857Y-78549642D01*
X182428572Y-79013928D02*
X182785715Y-79013928D01*
X182357143Y-79228214D02*
X182607143Y-78478214D01*
X182607143Y-78478214D02*
X182857143Y-79228214D01*
X183107143Y-79228214D02*
X183107143Y-78478214D01*
X183107143Y-78478214D02*
X183535714Y-79228214D01*
X183535714Y-79228214D02*
X183535714Y-78478214D01*
X184250000Y-79228214D02*
X183892857Y-79228214D01*
X183892857Y-79228214D02*
X183892857Y-78478214D01*
X184500000Y-79228214D02*
X184500000Y-78478214D01*
X184857143Y-79228214D02*
X184857143Y-78478214D01*
X184857143Y-78478214D02*
X185285714Y-79228214D01*
X185285714Y-79228214D02*
X185285714Y-78478214D01*
X185642857Y-78835357D02*
X185892857Y-78835357D01*
X186000000Y-79228214D02*
X185642857Y-79228214D01*
X185642857Y-79228214D02*
X185642857Y-78478214D01*
X185642857Y-78478214D02*
X186000000Y-78478214D01*
X179857142Y-79693214D02*
X180321428Y-79693214D01*
X180321428Y-79693214D02*
X180071428Y-79978928D01*
X180071428Y-79978928D02*
X180178571Y-79978928D01*
X180178571Y-79978928D02*
X180250000Y-80014642D01*
X180250000Y-80014642D02*
X180285714Y-80050357D01*
X180285714Y-80050357D02*
X180321428Y-80121785D01*
X180321428Y-80121785D02*
X180321428Y-80300357D01*
X180321428Y-80300357D02*
X180285714Y-80371785D01*
X180285714Y-80371785D02*
X180250000Y-80407500D01*
X180250000Y-80407500D02*
X180178571Y-80443214D01*
X180178571Y-80443214D02*
X179964285Y-80443214D01*
X179964285Y-80443214D02*
X179892857Y-80407500D01*
X179892857Y-80407500D02*
X179857142Y-80371785D01*
X180642857Y-80371785D02*
X180678571Y-80407500D01*
X180678571Y-80407500D02*
X180642857Y-80443214D01*
X180642857Y-80443214D02*
X180607143Y-80407500D01*
X180607143Y-80407500D02*
X180642857Y-80371785D01*
X180642857Y-80371785D02*
X180642857Y-80443214D01*
X180642857Y-79978928D02*
X180678571Y-80014642D01*
X180678571Y-80014642D02*
X180642857Y-80050357D01*
X180642857Y-80050357D02*
X180607143Y-80014642D01*
X180607143Y-80014642D02*
X180642857Y-79978928D01*
X180642857Y-79978928D02*
X180642857Y-80050357D01*
X181392857Y-79728928D02*
X181321429Y-79693214D01*
X181321429Y-79693214D02*
X181214286Y-79693214D01*
X181214286Y-79693214D02*
X181107143Y-79728928D01*
X181107143Y-79728928D02*
X181035714Y-79800357D01*
X181035714Y-79800357D02*
X181000000Y-79871785D01*
X181000000Y-79871785D02*
X180964286Y-80014642D01*
X180964286Y-80014642D02*
X180964286Y-80121785D01*
X180964286Y-80121785D02*
X181000000Y-80264642D01*
X181000000Y-80264642D02*
X181035714Y-80336071D01*
X181035714Y-80336071D02*
X181107143Y-80407500D01*
X181107143Y-80407500D02*
X181214286Y-80443214D01*
X181214286Y-80443214D02*
X181285714Y-80443214D01*
X181285714Y-80443214D02*
X181392857Y-80407500D01*
X181392857Y-80407500D02*
X181428571Y-80371785D01*
X181428571Y-80371785D02*
X181428571Y-80121785D01*
X181428571Y-80121785D02*
X181285714Y-80121785D01*
X182178571Y-80443214D02*
X181928571Y-80086071D01*
X181750000Y-80443214D02*
X181750000Y-79693214D01*
X181750000Y-79693214D02*
X182035714Y-79693214D01*
X182035714Y-79693214D02*
X182107143Y-79728928D01*
X182107143Y-79728928D02*
X182142857Y-79764642D01*
X182142857Y-79764642D02*
X182178571Y-79836071D01*
X182178571Y-79836071D02*
X182178571Y-79943214D01*
X182178571Y-79943214D02*
X182142857Y-80014642D01*
X182142857Y-80014642D02*
X182107143Y-80050357D01*
X182107143Y-80050357D02*
X182035714Y-80086071D01*
X182035714Y-80086071D02*
X181750000Y-80086071D01*
X182642857Y-79693214D02*
X182785714Y-79693214D01*
X182785714Y-79693214D02*
X182857143Y-79728928D01*
X182857143Y-79728928D02*
X182928571Y-79800357D01*
X182928571Y-79800357D02*
X182964286Y-79943214D01*
X182964286Y-79943214D02*
X182964286Y-80193214D01*
X182964286Y-80193214D02*
X182928571Y-80336071D01*
X182928571Y-80336071D02*
X182857143Y-80407500D01*
X182857143Y-80407500D02*
X182785714Y-80443214D01*
X182785714Y-80443214D02*
X182642857Y-80443214D01*
X182642857Y-80443214D02*
X182571429Y-80407500D01*
X182571429Y-80407500D02*
X182500000Y-80336071D01*
X182500000Y-80336071D02*
X182464286Y-80193214D01*
X182464286Y-80193214D02*
X182464286Y-79943214D01*
X182464286Y-79943214D02*
X182500000Y-79800357D01*
X182500000Y-79800357D02*
X182571429Y-79728928D01*
X182571429Y-79728928D02*
X182642857Y-79693214D01*
X183285714Y-80443214D02*
X183285714Y-79693214D01*
X183285714Y-79693214D02*
X183535714Y-80228928D01*
X183535714Y-80228928D02*
X183785714Y-79693214D01*
X183785714Y-79693214D02*
X183785714Y-80443214D01*
X184571428Y-80371785D02*
X184535714Y-80407500D01*
X184535714Y-80407500D02*
X184428571Y-80443214D01*
X184428571Y-80443214D02*
X184357143Y-80443214D01*
X184357143Y-80443214D02*
X184250000Y-80407500D01*
X184250000Y-80407500D02*
X184178571Y-80336071D01*
X184178571Y-80336071D02*
X184142857Y-80264642D01*
X184142857Y-80264642D02*
X184107143Y-80121785D01*
X184107143Y-80121785D02*
X184107143Y-80014642D01*
X184107143Y-80014642D02*
X184142857Y-79871785D01*
X184142857Y-79871785D02*
X184178571Y-79800357D01*
X184178571Y-79800357D02*
X184250000Y-79728928D01*
X184250000Y-79728928D02*
X184357143Y-79693214D01*
X184357143Y-79693214D02*
X184428571Y-79693214D01*
X184428571Y-79693214D02*
X184535714Y-79728928D01*
X184535714Y-79728928D02*
X184571428Y-79764642D01*
X185250000Y-80443214D02*
X184892857Y-80443214D01*
X184892857Y-80443214D02*
X184892857Y-79693214D01*
X185500000Y-80443214D02*
X185500000Y-79693214D01*
X185928571Y-80443214D02*
X185607143Y-80014642D01*
X185928571Y-79693214D02*
X185500000Y-80121785D01*
X180250000Y-81158214D02*
X180250000Y-81658214D01*
X180071428Y-80872500D02*
X179892857Y-81408214D01*
X179892857Y-81408214D02*
X180357142Y-81408214D01*
X180642857Y-81586785D02*
X180678571Y-81622500D01*
X180678571Y-81622500D02*
X180642857Y-81658214D01*
X180642857Y-81658214D02*
X180607143Y-81622500D01*
X180607143Y-81622500D02*
X180642857Y-81586785D01*
X180642857Y-81586785D02*
X180642857Y-81658214D01*
X180642857Y-81193928D02*
X180678571Y-81229642D01*
X180678571Y-81229642D02*
X180642857Y-81265357D01*
X180642857Y-81265357D02*
X180607143Y-81229642D01*
X180607143Y-81229642D02*
X180642857Y-81193928D01*
X180642857Y-81193928D02*
X180642857Y-81265357D01*
X181428571Y-81586785D02*
X181392857Y-81622500D01*
X181392857Y-81622500D02*
X181285714Y-81658214D01*
X181285714Y-81658214D02*
X181214286Y-81658214D01*
X181214286Y-81658214D02*
X181107143Y-81622500D01*
X181107143Y-81622500D02*
X181035714Y-81551071D01*
X181035714Y-81551071D02*
X181000000Y-81479642D01*
X181000000Y-81479642D02*
X180964286Y-81336785D01*
X180964286Y-81336785D02*
X180964286Y-81229642D01*
X180964286Y-81229642D02*
X181000000Y-81086785D01*
X181000000Y-81086785D02*
X181035714Y-81015357D01*
X181035714Y-81015357D02*
X181107143Y-80943928D01*
X181107143Y-80943928D02*
X181214286Y-80908214D01*
X181214286Y-80908214D02*
X181285714Y-80908214D01*
X181285714Y-80908214D02*
X181392857Y-80943928D01*
X181392857Y-80943928D02*
X181428571Y-80979642D01*
X181750000Y-81658214D02*
X181750000Y-80908214D01*
X181750000Y-80908214D02*
X182035714Y-80908214D01*
X182035714Y-80908214D02*
X182107143Y-80943928D01*
X182107143Y-80943928D02*
X182142857Y-80979642D01*
X182142857Y-80979642D02*
X182178571Y-81051071D01*
X182178571Y-81051071D02*
X182178571Y-81158214D01*
X182178571Y-81158214D02*
X182142857Y-81229642D01*
X182142857Y-81229642D02*
X182107143Y-81265357D01*
X182107143Y-81265357D02*
X182035714Y-81301071D01*
X182035714Y-81301071D02*
X181750000Y-81301071D01*
X182500000Y-80908214D02*
X182500000Y-81515357D01*
X182500000Y-81515357D02*
X182535714Y-81586785D01*
X182535714Y-81586785D02*
X182571429Y-81622500D01*
X182571429Y-81622500D02*
X182642857Y-81658214D01*
X182642857Y-81658214D02*
X182785714Y-81658214D01*
X182785714Y-81658214D02*
X182857143Y-81622500D01*
X182857143Y-81622500D02*
X182892857Y-81586785D01*
X182892857Y-81586785D02*
X182928571Y-81515357D01*
X182928571Y-81515357D02*
X182928571Y-80908214D01*
X183714285Y-81586785D02*
X183678571Y-81622500D01*
X183678571Y-81622500D02*
X183571428Y-81658214D01*
X183571428Y-81658214D02*
X183500000Y-81658214D01*
X183500000Y-81658214D02*
X183392857Y-81622500D01*
X183392857Y-81622500D02*
X183321428Y-81551071D01*
X183321428Y-81551071D02*
X183285714Y-81479642D01*
X183285714Y-81479642D02*
X183250000Y-81336785D01*
X183250000Y-81336785D02*
X183250000Y-81229642D01*
X183250000Y-81229642D02*
X183285714Y-81086785D01*
X183285714Y-81086785D02*
X183321428Y-81015357D01*
X183321428Y-81015357D02*
X183392857Y-80943928D01*
X183392857Y-80943928D02*
X183500000Y-80908214D01*
X183500000Y-80908214D02*
X183571428Y-80908214D01*
X183571428Y-80908214D02*
X183678571Y-80943928D01*
X183678571Y-80943928D02*
X183714285Y-80979642D01*
X184392857Y-81658214D02*
X184035714Y-81658214D01*
X184035714Y-81658214D02*
X184035714Y-80908214D01*
X184642857Y-81658214D02*
X184642857Y-80908214D01*
X185071428Y-81658214D02*
X184750000Y-81229642D01*
X185071428Y-80908214D02*
X184642857Y-81336785D01*
X145303570Y-45658214D02*
X145732142Y-45658214D01*
X145517856Y-46408214D02*
X145517856Y-45658214D01*
X145982142Y-46408214D02*
X145982142Y-45658214D01*
X145982142Y-45658214D02*
X146410713Y-46408214D01*
X146410713Y-46408214D02*
X146410713Y-45658214D01*
X146767856Y-46122500D02*
X147339285Y-46122500D01*
X147589284Y-45658214D02*
X147839284Y-46408214D01*
X147839284Y-46408214D02*
X148089284Y-45658214D01*
X148339284Y-46408214D02*
X148339284Y-45658214D01*
X148339284Y-45658214D02*
X148517855Y-45658214D01*
X148517855Y-45658214D02*
X148624998Y-45693928D01*
X148624998Y-45693928D02*
X148696427Y-45765357D01*
X148696427Y-45765357D02*
X148732141Y-45836785D01*
X148732141Y-45836785D02*
X148767855Y-45979642D01*
X148767855Y-45979642D02*
X148767855Y-46086785D01*
X148767855Y-46086785D02*
X148732141Y-46229642D01*
X148732141Y-46229642D02*
X148696427Y-46301071D01*
X148696427Y-46301071D02*
X148624998Y-46372500D01*
X148624998Y-46372500D02*
X148517855Y-46408214D01*
X148517855Y-46408214D02*
X148339284Y-46408214D01*
X149089284Y-46408214D02*
X149089284Y-45658214D01*
X149089284Y-45658214D02*
X149374998Y-45658214D01*
X149374998Y-45658214D02*
X149446427Y-45693928D01*
X149446427Y-45693928D02*
X149482141Y-45729642D01*
X149482141Y-45729642D02*
X149517855Y-45801071D01*
X149517855Y-45801071D02*
X149517855Y-45908214D01*
X149517855Y-45908214D02*
X149482141Y-45979642D01*
X149482141Y-45979642D02*
X149446427Y-46015357D01*
X149446427Y-46015357D02*
X149374998Y-46051071D01*
X149374998Y-46051071D02*
X149089284Y-46051071D01*
X150339284Y-45908214D02*
X150517856Y-46408214D01*
X150517856Y-46408214D02*
X150696427Y-45908214D01*
X150946428Y-45729642D02*
X150982142Y-45693928D01*
X150982142Y-45693928D02*
X151053571Y-45658214D01*
X151053571Y-45658214D02*
X151232142Y-45658214D01*
X151232142Y-45658214D02*
X151303571Y-45693928D01*
X151303571Y-45693928D02*
X151339285Y-45729642D01*
X151339285Y-45729642D02*
X151374999Y-45801071D01*
X151374999Y-45801071D02*
X151374999Y-45872500D01*
X151374999Y-45872500D02*
X151339285Y-45979642D01*
X151339285Y-45979642D02*
X150910713Y-46408214D01*
X150910713Y-46408214D02*
X151374999Y-46408214D01*
X151696428Y-46336785D02*
X151732142Y-46372500D01*
X151732142Y-46372500D02*
X151696428Y-46408214D01*
X151696428Y-46408214D02*
X151660714Y-46372500D01*
X151660714Y-46372500D02*
X151696428Y-46336785D01*
X151696428Y-46336785D02*
X151696428Y-46408214D01*
X152196428Y-45658214D02*
X152267857Y-45658214D01*
X152267857Y-45658214D02*
X152339285Y-45693928D01*
X152339285Y-45693928D02*
X152375000Y-45729642D01*
X152375000Y-45729642D02*
X152410714Y-45801071D01*
X152410714Y-45801071D02*
X152446428Y-45943928D01*
X152446428Y-45943928D02*
X152446428Y-46122500D01*
X152446428Y-46122500D02*
X152410714Y-46265357D01*
X152410714Y-46265357D02*
X152375000Y-46336785D01*
X152375000Y-46336785D02*
X152339285Y-46372500D01*
X152339285Y-46372500D02*
X152267857Y-46408214D01*
X152267857Y-46408214D02*
X152196428Y-46408214D01*
X152196428Y-46408214D02*
X152125000Y-46372500D01*
X152125000Y-46372500D02*
X152089285Y-46336785D01*
X152089285Y-46336785D02*
X152053571Y-46265357D01*
X152053571Y-46265357D02*
X152017857Y-46122500D01*
X152017857Y-46122500D02*
X152017857Y-45943928D01*
X152017857Y-45943928D02*
X152053571Y-45801071D01*
X152053571Y-45801071D02*
X152089285Y-45729642D01*
X152089285Y-45729642D02*
X152125000Y-45693928D01*
X152125000Y-45693928D02*
X152196428Y-45658214D01*
X153089286Y-45908214D02*
X153089286Y-46408214D01*
X152767857Y-45908214D02*
X152767857Y-46301071D01*
X152767857Y-46301071D02*
X152803571Y-46372500D01*
X152803571Y-46372500D02*
X152875000Y-46408214D01*
X152875000Y-46408214D02*
X152982143Y-46408214D01*
X152982143Y-46408214D02*
X153053571Y-46372500D01*
X153053571Y-46372500D02*
X153089286Y-46336785D01*
X154017857Y-46122500D02*
X154589286Y-46122500D01*
X155482143Y-45729642D02*
X155517857Y-45693928D01*
X155517857Y-45693928D02*
X155589286Y-45658214D01*
X155589286Y-45658214D02*
X155767857Y-45658214D01*
X155767857Y-45658214D02*
X155839286Y-45693928D01*
X155839286Y-45693928D02*
X155875000Y-45729642D01*
X155875000Y-45729642D02*
X155910714Y-45801071D01*
X155910714Y-45801071D02*
X155910714Y-45872500D01*
X155910714Y-45872500D02*
X155875000Y-45979642D01*
X155875000Y-45979642D02*
X155446428Y-46408214D01*
X155446428Y-46408214D02*
X155910714Y-46408214D01*
X156375000Y-45658214D02*
X156446429Y-45658214D01*
X156446429Y-45658214D02*
X156517857Y-45693928D01*
X156517857Y-45693928D02*
X156553572Y-45729642D01*
X156553572Y-45729642D02*
X156589286Y-45801071D01*
X156589286Y-45801071D02*
X156625000Y-45943928D01*
X156625000Y-45943928D02*
X156625000Y-46122500D01*
X156625000Y-46122500D02*
X156589286Y-46265357D01*
X156589286Y-46265357D02*
X156553572Y-46336785D01*
X156553572Y-46336785D02*
X156517857Y-46372500D01*
X156517857Y-46372500D02*
X156446429Y-46408214D01*
X156446429Y-46408214D02*
X156375000Y-46408214D01*
X156375000Y-46408214D02*
X156303572Y-46372500D01*
X156303572Y-46372500D02*
X156267857Y-46336785D01*
X156267857Y-46336785D02*
X156232143Y-46265357D01*
X156232143Y-46265357D02*
X156196429Y-46122500D01*
X156196429Y-46122500D02*
X156196429Y-45943928D01*
X156196429Y-45943928D02*
X156232143Y-45801071D01*
X156232143Y-45801071D02*
X156267857Y-45729642D01*
X156267857Y-45729642D02*
X156303572Y-45693928D01*
X156303572Y-45693928D02*
X156375000Y-45658214D01*
X156910715Y-45729642D02*
X156946429Y-45693928D01*
X156946429Y-45693928D02*
X157017858Y-45658214D01*
X157017858Y-45658214D02*
X157196429Y-45658214D01*
X157196429Y-45658214D02*
X157267858Y-45693928D01*
X157267858Y-45693928D02*
X157303572Y-45729642D01*
X157303572Y-45729642D02*
X157339286Y-45801071D01*
X157339286Y-45801071D02*
X157339286Y-45872500D01*
X157339286Y-45872500D02*
X157303572Y-45979642D01*
X157303572Y-45979642D02*
X156875000Y-46408214D01*
X156875000Y-46408214D02*
X157339286Y-46408214D01*
X157589286Y-45658214D02*
X158053572Y-45658214D01*
X158053572Y-45658214D02*
X157803572Y-45943928D01*
X157803572Y-45943928D02*
X157910715Y-45943928D01*
X157910715Y-45943928D02*
X157982144Y-45979642D01*
X157982144Y-45979642D02*
X158017858Y-46015357D01*
X158017858Y-46015357D02*
X158053572Y-46086785D01*
X158053572Y-46086785D02*
X158053572Y-46265357D01*
X158053572Y-46265357D02*
X158017858Y-46336785D01*
X158017858Y-46336785D02*
X157982144Y-46372500D01*
X157982144Y-46372500D02*
X157910715Y-46408214D01*
X157910715Y-46408214D02*
X157696429Y-46408214D01*
X157696429Y-46408214D02*
X157625001Y-46372500D01*
X157625001Y-46372500D02*
X157589286Y-46336785D01*
X159375001Y-46408214D02*
X159125001Y-46051071D01*
X158946430Y-46408214D02*
X158946430Y-45658214D01*
X158946430Y-45658214D02*
X159232144Y-45658214D01*
X159232144Y-45658214D02*
X159303573Y-45693928D01*
X159303573Y-45693928D02*
X159339287Y-45729642D01*
X159339287Y-45729642D02*
X159375001Y-45801071D01*
X159375001Y-45801071D02*
X159375001Y-45908214D01*
X159375001Y-45908214D02*
X159339287Y-45979642D01*
X159339287Y-45979642D02*
X159303573Y-46015357D01*
X159303573Y-46015357D02*
X159232144Y-46051071D01*
X159232144Y-46051071D02*
X158946430Y-46051071D01*
X159696430Y-46015357D02*
X159946430Y-46015357D01*
X160053573Y-46408214D02*
X159696430Y-46408214D01*
X159696430Y-46408214D02*
X159696430Y-45658214D01*
X159696430Y-45658214D02*
X160053573Y-45658214D01*
X160375001Y-46408214D02*
X160375001Y-45658214D01*
X160375001Y-45658214D02*
X160803572Y-46408214D01*
X160803572Y-46408214D02*
X160803572Y-45658214D01*
X161160715Y-46408214D02*
X161160715Y-45658214D01*
X161160715Y-45658214D02*
X161339286Y-45658214D01*
X161339286Y-45658214D02*
X161446429Y-45693928D01*
X161446429Y-45693928D02*
X161517858Y-45765357D01*
X161517858Y-45765357D02*
X161553572Y-45836785D01*
X161553572Y-45836785D02*
X161589286Y-45979642D01*
X161589286Y-45979642D02*
X161589286Y-46086785D01*
X161589286Y-46086785D02*
X161553572Y-46229642D01*
X161553572Y-46229642D02*
X161517858Y-46301071D01*
X161517858Y-46301071D02*
X161446429Y-46372500D01*
X161446429Y-46372500D02*
X161339286Y-46408214D01*
X161339286Y-46408214D02*
X161160715Y-46408214D01*
X161910715Y-46015357D02*
X162160715Y-46015357D01*
X162267858Y-46408214D02*
X161910715Y-46408214D01*
X161910715Y-46408214D02*
X161910715Y-45658214D01*
X161910715Y-45658214D02*
X162267858Y-45658214D01*
X163017857Y-46408214D02*
X162767857Y-46051071D01*
X162589286Y-46408214D02*
X162589286Y-45658214D01*
X162589286Y-45658214D02*
X162875000Y-45658214D01*
X162875000Y-45658214D02*
X162946429Y-45693928D01*
X162946429Y-45693928D02*
X162982143Y-45729642D01*
X162982143Y-45729642D02*
X163017857Y-45801071D01*
X163017857Y-45801071D02*
X163017857Y-45908214D01*
X163017857Y-45908214D02*
X162982143Y-45979642D01*
X162982143Y-45979642D02*
X162946429Y-46015357D01*
X162946429Y-46015357D02*
X162875000Y-46051071D01*
X162875000Y-46051071D02*
X162589286Y-46051071D01*
X163339286Y-46015357D02*
X163589286Y-46015357D01*
X163696429Y-46408214D02*
X163339286Y-46408214D01*
X163339286Y-46408214D02*
X163339286Y-45658214D01*
X163339286Y-45658214D02*
X163696429Y-45658214D01*
X164017857Y-46408214D02*
X164017857Y-45658214D01*
X164017857Y-45658214D02*
X164446428Y-46408214D01*
X164446428Y-46408214D02*
X164446428Y-45658214D01*
X165196428Y-45693928D02*
X165125000Y-45658214D01*
X165125000Y-45658214D02*
X165017857Y-45658214D01*
X165017857Y-45658214D02*
X164910714Y-45693928D01*
X164910714Y-45693928D02*
X164839285Y-45765357D01*
X164839285Y-45765357D02*
X164803571Y-45836785D01*
X164803571Y-45836785D02*
X164767857Y-45979642D01*
X164767857Y-45979642D02*
X164767857Y-46086785D01*
X164767857Y-46086785D02*
X164803571Y-46229642D01*
X164803571Y-46229642D02*
X164839285Y-46301071D01*
X164839285Y-46301071D02*
X164910714Y-46372500D01*
X164910714Y-46372500D02*
X165017857Y-46408214D01*
X165017857Y-46408214D02*
X165089285Y-46408214D01*
X165089285Y-46408214D02*
X165196428Y-46372500D01*
X165196428Y-46372500D02*
X165232142Y-46336785D01*
X165232142Y-46336785D02*
X165232142Y-46086785D01*
X165232142Y-46086785D02*
X165089285Y-46086785D01*
X166125000Y-46122500D02*
X166696429Y-46122500D01*
X167982143Y-46408214D02*
X167625000Y-46408214D01*
X167625000Y-46408214D02*
X167625000Y-45658214D01*
X168232143Y-45658214D02*
X168232143Y-46265357D01*
X168232143Y-46265357D02*
X168267857Y-46336785D01*
X168267857Y-46336785D02*
X168303572Y-46372500D01*
X168303572Y-46372500D02*
X168375000Y-46408214D01*
X168375000Y-46408214D02*
X168517857Y-46408214D01*
X168517857Y-46408214D02*
X168589286Y-46372500D01*
X168589286Y-46372500D02*
X168625000Y-46336785D01*
X168625000Y-46336785D02*
X168660714Y-46265357D01*
X168660714Y-46265357D02*
X168660714Y-45658214D01*
X169017857Y-46408214D02*
X169017857Y-45658214D01*
X169339286Y-46372500D02*
X169446429Y-46408214D01*
X169446429Y-46408214D02*
X169625000Y-46408214D01*
X169625000Y-46408214D02*
X169696429Y-46372500D01*
X169696429Y-46372500D02*
X169732143Y-46336785D01*
X169732143Y-46336785D02*
X169767857Y-46265357D01*
X169767857Y-46265357D02*
X169767857Y-46193928D01*
X169767857Y-46193928D02*
X169732143Y-46122500D01*
X169732143Y-46122500D02*
X169696429Y-46086785D01*
X169696429Y-46086785D02*
X169625000Y-46051071D01*
X169625000Y-46051071D02*
X169482143Y-46015357D01*
X169482143Y-46015357D02*
X169410714Y-45979642D01*
X169410714Y-45979642D02*
X169375000Y-45943928D01*
X169375000Y-45943928D02*
X169339286Y-45872500D01*
X169339286Y-45872500D02*
X169339286Y-45801071D01*
X169339286Y-45801071D02*
X169375000Y-45729642D01*
X169375000Y-45729642D02*
X169410714Y-45693928D01*
X169410714Y-45693928D02*
X169482143Y-45658214D01*
X169482143Y-45658214D02*
X169660714Y-45658214D01*
X169660714Y-45658214D02*
X169767857Y-45693928D01*
X170625001Y-46193928D02*
X170982144Y-46193928D01*
X170553572Y-46408214D02*
X170803572Y-45658214D01*
X170803572Y-45658214D02*
X171053572Y-46408214D01*
X171303572Y-46408214D02*
X171303572Y-45658214D01*
X171303572Y-45658214D02*
X171732143Y-46408214D01*
X171732143Y-46408214D02*
X171732143Y-45658214D01*
X171982143Y-45658214D02*
X172410715Y-45658214D01*
X172196429Y-46408214D02*
X172196429Y-45658214D01*
X172803572Y-45658214D02*
X172946429Y-45658214D01*
X172946429Y-45658214D02*
X173017858Y-45693928D01*
X173017858Y-45693928D02*
X173089286Y-45765357D01*
X173089286Y-45765357D02*
X173125001Y-45908214D01*
X173125001Y-45908214D02*
X173125001Y-46158214D01*
X173125001Y-46158214D02*
X173089286Y-46301071D01*
X173089286Y-46301071D02*
X173017858Y-46372500D01*
X173017858Y-46372500D02*
X172946429Y-46408214D01*
X172946429Y-46408214D02*
X172803572Y-46408214D01*
X172803572Y-46408214D02*
X172732144Y-46372500D01*
X172732144Y-46372500D02*
X172660715Y-46301071D01*
X172660715Y-46301071D02*
X172625001Y-46158214D01*
X172625001Y-46158214D02*
X172625001Y-45908214D01*
X172625001Y-45908214D02*
X172660715Y-45765357D01*
X172660715Y-45765357D02*
X172732144Y-45693928D01*
X172732144Y-45693928D02*
X172803572Y-45658214D01*
X173446429Y-46408214D02*
X173446429Y-45658214D01*
X173446429Y-45658214D02*
X173875000Y-46408214D01*
X173875000Y-46408214D02*
X173875000Y-45658214D01*
X174232143Y-46408214D02*
X174232143Y-45658214D01*
X174732143Y-45658214D02*
X174875000Y-45658214D01*
X174875000Y-45658214D02*
X174946429Y-45693928D01*
X174946429Y-45693928D02*
X175017857Y-45765357D01*
X175017857Y-45765357D02*
X175053572Y-45908214D01*
X175053572Y-45908214D02*
X175053572Y-46158214D01*
X175053572Y-46158214D02*
X175017857Y-46301071D01*
X175017857Y-46301071D02*
X174946429Y-46372500D01*
X174946429Y-46372500D02*
X174875000Y-46408214D01*
X174875000Y-46408214D02*
X174732143Y-46408214D01*
X174732143Y-46408214D02*
X174660715Y-46372500D01*
X174660715Y-46372500D02*
X174589286Y-46301071D01*
X174589286Y-46301071D02*
X174553572Y-46158214D01*
X174553572Y-46158214D02*
X174553572Y-45908214D01*
X174553572Y-45908214D02*
X174589286Y-45765357D01*
X174589286Y-45765357D02*
X174660715Y-45693928D01*
X174660715Y-45693928D02*
X174732143Y-45658214D01*
X175339286Y-46372500D02*
X175446429Y-46408214D01*
X175446429Y-46408214D02*
X175625000Y-46408214D01*
X175625000Y-46408214D02*
X175696429Y-46372500D01*
X175696429Y-46372500D02*
X175732143Y-46336785D01*
X175732143Y-46336785D02*
X175767857Y-46265357D01*
X175767857Y-46265357D02*
X175767857Y-46193928D01*
X175767857Y-46193928D02*
X175732143Y-46122500D01*
X175732143Y-46122500D02*
X175696429Y-46086785D01*
X175696429Y-46086785D02*
X175625000Y-46051071D01*
X175625000Y-46051071D02*
X175482143Y-46015357D01*
X175482143Y-46015357D02*
X175410714Y-45979642D01*
X175410714Y-45979642D02*
X175375000Y-45943928D01*
X175375000Y-45943928D02*
X175339286Y-45872500D01*
X175339286Y-45872500D02*
X175339286Y-45801071D01*
X175339286Y-45801071D02*
X175375000Y-45729642D01*
X175375000Y-45729642D02*
X175410714Y-45693928D01*
X175410714Y-45693928D02*
X175482143Y-45658214D01*
X175482143Y-45658214D02*
X175660714Y-45658214D01*
X175660714Y-45658214D02*
X175767857Y-45693928D01*
X176089286Y-46408214D02*
X176089286Y-45658214D01*
X156571428Y-47658214D02*
X157000000Y-47658214D01*
X156785714Y-48408214D02*
X156785714Y-47658214D01*
X157250000Y-48408214D02*
X157250000Y-47658214D01*
X157250000Y-47658214D02*
X157678571Y-48408214D01*
X157678571Y-48408214D02*
X157678571Y-47658214D01*
X158071428Y-48408214D02*
X158214285Y-48408214D01*
X158214285Y-48408214D02*
X158285714Y-48372500D01*
X158285714Y-48372500D02*
X158321428Y-48336785D01*
X158321428Y-48336785D02*
X158392857Y-48229642D01*
X158392857Y-48229642D02*
X158428571Y-48086785D01*
X158428571Y-48086785D02*
X158428571Y-47801071D01*
X158428571Y-47801071D02*
X158392857Y-47729642D01*
X158392857Y-47729642D02*
X158357143Y-47693928D01*
X158357143Y-47693928D02*
X158285714Y-47658214D01*
X158285714Y-47658214D02*
X158142857Y-47658214D01*
X158142857Y-47658214D02*
X158071428Y-47693928D01*
X158071428Y-47693928D02*
X158035714Y-47729642D01*
X158035714Y-47729642D02*
X158000000Y-47801071D01*
X158000000Y-47801071D02*
X158000000Y-47979642D01*
X158000000Y-47979642D02*
X158035714Y-48051071D01*
X158035714Y-48051071D02*
X158071428Y-48086785D01*
X158071428Y-48086785D02*
X158142857Y-48122500D01*
X158142857Y-48122500D02*
X158285714Y-48122500D01*
X158285714Y-48122500D02*
X158357143Y-48086785D01*
X158357143Y-48086785D02*
X158392857Y-48051071D01*
X158392857Y-48051071D02*
X158428571Y-47979642D01*
X158750000Y-48408214D02*
X158750000Y-47658214D01*
X159178571Y-48408214D02*
X158857143Y-47979642D01*
X159178571Y-47658214D02*
X158750000Y-48086785D01*
X160071429Y-47658214D02*
X160071429Y-48265357D01*
X160071429Y-48265357D02*
X160107143Y-48336785D01*
X160107143Y-48336785D02*
X160142858Y-48372500D01*
X160142858Y-48372500D02*
X160214286Y-48408214D01*
X160214286Y-48408214D02*
X160357143Y-48408214D01*
X160357143Y-48408214D02*
X160428572Y-48372500D01*
X160428572Y-48372500D02*
X160464286Y-48336785D01*
X160464286Y-48336785D02*
X160500000Y-48265357D01*
X160500000Y-48265357D02*
X160500000Y-47658214D01*
X160821429Y-48372500D02*
X160928572Y-48408214D01*
X160928572Y-48408214D02*
X161107143Y-48408214D01*
X161107143Y-48408214D02*
X161178572Y-48372500D01*
X161178572Y-48372500D02*
X161214286Y-48336785D01*
X161214286Y-48336785D02*
X161250000Y-48265357D01*
X161250000Y-48265357D02*
X161250000Y-48193928D01*
X161250000Y-48193928D02*
X161214286Y-48122500D01*
X161214286Y-48122500D02*
X161178572Y-48086785D01*
X161178572Y-48086785D02*
X161107143Y-48051071D01*
X161107143Y-48051071D02*
X160964286Y-48015357D01*
X160964286Y-48015357D02*
X160892857Y-47979642D01*
X160892857Y-47979642D02*
X160857143Y-47943928D01*
X160857143Y-47943928D02*
X160821429Y-47872500D01*
X160821429Y-47872500D02*
X160821429Y-47801071D01*
X160821429Y-47801071D02*
X160857143Y-47729642D01*
X160857143Y-47729642D02*
X160892857Y-47693928D01*
X160892857Y-47693928D02*
X160964286Y-47658214D01*
X160964286Y-47658214D02*
X161142857Y-47658214D01*
X161142857Y-47658214D02*
X161250000Y-47693928D01*
X161821429Y-48015357D02*
X161928572Y-48051071D01*
X161928572Y-48051071D02*
X161964286Y-48086785D01*
X161964286Y-48086785D02*
X162000000Y-48158214D01*
X162000000Y-48158214D02*
X162000000Y-48265357D01*
X162000000Y-48265357D02*
X161964286Y-48336785D01*
X161964286Y-48336785D02*
X161928572Y-48372500D01*
X161928572Y-48372500D02*
X161857143Y-48408214D01*
X161857143Y-48408214D02*
X161571429Y-48408214D01*
X161571429Y-48408214D02*
X161571429Y-47658214D01*
X161571429Y-47658214D02*
X161821429Y-47658214D01*
X161821429Y-47658214D02*
X161892858Y-47693928D01*
X161892858Y-47693928D02*
X161928572Y-47729642D01*
X161928572Y-47729642D02*
X161964286Y-47801071D01*
X161964286Y-47801071D02*
X161964286Y-47872500D01*
X161964286Y-47872500D02*
X161928572Y-47943928D01*
X161928572Y-47943928D02*
X161892858Y-47979642D01*
X161892858Y-47979642D02*
X161821429Y-48015357D01*
X161821429Y-48015357D02*
X161571429Y-48015357D01*
X162321429Y-48122500D02*
X162892858Y-48122500D01*
X163678571Y-48336785D02*
X163642857Y-48372500D01*
X163642857Y-48372500D02*
X163535714Y-48408214D01*
X163535714Y-48408214D02*
X163464286Y-48408214D01*
X163464286Y-48408214D02*
X163357143Y-48372500D01*
X163357143Y-48372500D02*
X163285714Y-48301071D01*
X163285714Y-48301071D02*
X163250000Y-48229642D01*
X163250000Y-48229642D02*
X163214286Y-48086785D01*
X163214286Y-48086785D02*
X163214286Y-47979642D01*
X163214286Y-47979642D02*
X163250000Y-47836785D01*
X163250000Y-47836785D02*
X163285714Y-47765357D01*
X163285714Y-47765357D02*
X163357143Y-47693928D01*
X163357143Y-47693928D02*
X163464286Y-47658214D01*
X163464286Y-47658214D02*
X163535714Y-47658214D01*
X163535714Y-47658214D02*
X163642857Y-47693928D01*
X163642857Y-47693928D02*
X163678571Y-47729642D01*
X164535715Y-48372500D02*
X164642858Y-48408214D01*
X164642858Y-48408214D02*
X164821429Y-48408214D01*
X164821429Y-48408214D02*
X164892858Y-48372500D01*
X164892858Y-48372500D02*
X164928572Y-48336785D01*
X164928572Y-48336785D02*
X164964286Y-48265357D01*
X164964286Y-48265357D02*
X164964286Y-48193928D01*
X164964286Y-48193928D02*
X164928572Y-48122500D01*
X164928572Y-48122500D02*
X164892858Y-48086785D01*
X164892858Y-48086785D02*
X164821429Y-48051071D01*
X164821429Y-48051071D02*
X164678572Y-48015357D01*
X164678572Y-48015357D02*
X164607143Y-47979642D01*
X164607143Y-47979642D02*
X164571429Y-47943928D01*
X164571429Y-47943928D02*
X164535715Y-47872500D01*
X164535715Y-47872500D02*
X164535715Y-47801071D01*
X164535715Y-47801071D02*
X164571429Y-47729642D01*
X164571429Y-47729642D02*
X164607143Y-47693928D01*
X164607143Y-47693928D02*
X164678572Y-47658214D01*
X164678572Y-47658214D02*
X164857143Y-47658214D01*
X164857143Y-47658214D02*
X164964286Y-47693928D01*
X165285715Y-48408214D02*
X165285715Y-47658214D01*
X165642858Y-48408214D02*
X165642858Y-47658214D01*
X165642858Y-47658214D02*
X165821429Y-47658214D01*
X165821429Y-47658214D02*
X165928572Y-47693928D01*
X165928572Y-47693928D02*
X166000001Y-47765357D01*
X166000001Y-47765357D02*
X166035715Y-47836785D01*
X166035715Y-47836785D02*
X166071429Y-47979642D01*
X166071429Y-47979642D02*
X166071429Y-48086785D01*
X166071429Y-48086785D02*
X166035715Y-48229642D01*
X166035715Y-48229642D02*
X166000001Y-48301071D01*
X166000001Y-48301071D02*
X165928572Y-48372500D01*
X165928572Y-48372500D02*
X165821429Y-48408214D01*
X165821429Y-48408214D02*
X165642858Y-48408214D01*
X166392858Y-48015357D02*
X166642858Y-48015357D01*
X166750001Y-48408214D02*
X166392858Y-48408214D01*
X166392858Y-48408214D02*
X166392858Y-47658214D01*
X166392858Y-47658214D02*
X166750001Y-47658214D01*
X157071428Y-111158214D02*
X157500000Y-111158214D01*
X157285714Y-111908214D02*
X157285714Y-111158214D01*
X157750000Y-111908214D02*
X157750000Y-111158214D01*
X157750000Y-111158214D02*
X158178571Y-111908214D01*
X158178571Y-111908214D02*
X158178571Y-111158214D01*
X158571428Y-111908214D02*
X158714285Y-111908214D01*
X158714285Y-111908214D02*
X158785714Y-111872500D01*
X158785714Y-111872500D02*
X158821428Y-111836785D01*
X158821428Y-111836785D02*
X158892857Y-111729642D01*
X158892857Y-111729642D02*
X158928571Y-111586785D01*
X158928571Y-111586785D02*
X158928571Y-111301071D01*
X158928571Y-111301071D02*
X158892857Y-111229642D01*
X158892857Y-111229642D02*
X158857143Y-111193928D01*
X158857143Y-111193928D02*
X158785714Y-111158214D01*
X158785714Y-111158214D02*
X158642857Y-111158214D01*
X158642857Y-111158214D02*
X158571428Y-111193928D01*
X158571428Y-111193928D02*
X158535714Y-111229642D01*
X158535714Y-111229642D02*
X158500000Y-111301071D01*
X158500000Y-111301071D02*
X158500000Y-111479642D01*
X158500000Y-111479642D02*
X158535714Y-111551071D01*
X158535714Y-111551071D02*
X158571428Y-111586785D01*
X158571428Y-111586785D02*
X158642857Y-111622500D01*
X158642857Y-111622500D02*
X158785714Y-111622500D01*
X158785714Y-111622500D02*
X158857143Y-111586785D01*
X158857143Y-111586785D02*
X158892857Y-111551071D01*
X158892857Y-111551071D02*
X158928571Y-111479642D01*
X159250000Y-111908214D02*
X159250000Y-111158214D01*
X159678571Y-111908214D02*
X159357143Y-111479642D01*
X159678571Y-111158214D02*
X159250000Y-111586785D01*
X160571429Y-111908214D02*
X160571429Y-111158214D01*
X160571429Y-111515357D02*
X161000000Y-111515357D01*
X161000000Y-111908214D02*
X161000000Y-111158214D01*
X161357143Y-111908214D02*
X161357143Y-111158214D01*
X161357143Y-111158214D02*
X161535714Y-111158214D01*
X161535714Y-111158214D02*
X161642857Y-111193928D01*
X161642857Y-111193928D02*
X161714286Y-111265357D01*
X161714286Y-111265357D02*
X161750000Y-111336785D01*
X161750000Y-111336785D02*
X161785714Y-111479642D01*
X161785714Y-111479642D02*
X161785714Y-111586785D01*
X161785714Y-111586785D02*
X161750000Y-111729642D01*
X161750000Y-111729642D02*
X161714286Y-111801071D01*
X161714286Y-111801071D02*
X161642857Y-111872500D01*
X161642857Y-111872500D02*
X161535714Y-111908214D01*
X161535714Y-111908214D02*
X161357143Y-111908214D01*
X162107143Y-111908214D02*
X162107143Y-111158214D01*
X162107143Y-111158214D02*
X162357143Y-111693928D01*
X162357143Y-111693928D02*
X162607143Y-111158214D01*
X162607143Y-111158214D02*
X162607143Y-111908214D01*
X162964286Y-111908214D02*
X162964286Y-111158214D01*
X163857144Y-111872500D02*
X163964287Y-111908214D01*
X163964287Y-111908214D02*
X164142858Y-111908214D01*
X164142858Y-111908214D02*
X164214287Y-111872500D01*
X164214287Y-111872500D02*
X164250001Y-111836785D01*
X164250001Y-111836785D02*
X164285715Y-111765357D01*
X164285715Y-111765357D02*
X164285715Y-111693928D01*
X164285715Y-111693928D02*
X164250001Y-111622500D01*
X164250001Y-111622500D02*
X164214287Y-111586785D01*
X164214287Y-111586785D02*
X164142858Y-111551071D01*
X164142858Y-111551071D02*
X164000001Y-111515357D01*
X164000001Y-111515357D02*
X163928572Y-111479642D01*
X163928572Y-111479642D02*
X163892858Y-111443928D01*
X163892858Y-111443928D02*
X163857144Y-111372500D01*
X163857144Y-111372500D02*
X163857144Y-111301071D01*
X163857144Y-111301071D02*
X163892858Y-111229642D01*
X163892858Y-111229642D02*
X163928572Y-111193928D01*
X163928572Y-111193928D02*
X164000001Y-111158214D01*
X164000001Y-111158214D02*
X164178572Y-111158214D01*
X164178572Y-111158214D02*
X164285715Y-111193928D01*
X164607144Y-111908214D02*
X164607144Y-111158214D01*
X164964287Y-111908214D02*
X164964287Y-111158214D01*
X164964287Y-111158214D02*
X165142858Y-111158214D01*
X165142858Y-111158214D02*
X165250001Y-111193928D01*
X165250001Y-111193928D02*
X165321430Y-111265357D01*
X165321430Y-111265357D02*
X165357144Y-111336785D01*
X165357144Y-111336785D02*
X165392858Y-111479642D01*
X165392858Y-111479642D02*
X165392858Y-111586785D01*
X165392858Y-111586785D02*
X165357144Y-111729642D01*
X165357144Y-111729642D02*
X165321430Y-111801071D01*
X165321430Y-111801071D02*
X165250001Y-111872500D01*
X165250001Y-111872500D02*
X165142858Y-111908214D01*
X165142858Y-111908214D02*
X164964287Y-111908214D01*
X165714287Y-111515357D02*
X165964287Y-111515357D01*
X166071430Y-111908214D02*
X165714287Y-111908214D01*
X165714287Y-111908214D02*
X165714287Y-111158214D01*
X165714287Y-111158214D02*
X166071430Y-111158214D01*
X149857142Y-47908214D02*
X150321428Y-47908214D01*
X150321428Y-47908214D02*
X150071428Y-48193928D01*
X150071428Y-48193928D02*
X150178571Y-48193928D01*
X150178571Y-48193928D02*
X150250000Y-48229642D01*
X150250000Y-48229642D02*
X150285714Y-48265357D01*
X150285714Y-48265357D02*
X150321428Y-48336785D01*
X150321428Y-48336785D02*
X150321428Y-48515357D01*
X150321428Y-48515357D02*
X150285714Y-48586785D01*
X150285714Y-48586785D02*
X150250000Y-48622500D01*
X150250000Y-48622500D02*
X150178571Y-48658214D01*
X150178571Y-48658214D02*
X149964285Y-48658214D01*
X149964285Y-48658214D02*
X149892857Y-48622500D01*
X149892857Y-48622500D02*
X149857142Y-48586785D01*
X150750000Y-48229642D02*
X150678571Y-48193928D01*
X150678571Y-48193928D02*
X150642857Y-48158214D01*
X150642857Y-48158214D02*
X150607143Y-48086785D01*
X150607143Y-48086785D02*
X150607143Y-48051071D01*
X150607143Y-48051071D02*
X150642857Y-47979642D01*
X150642857Y-47979642D02*
X150678571Y-47943928D01*
X150678571Y-47943928D02*
X150750000Y-47908214D01*
X150750000Y-47908214D02*
X150892857Y-47908214D01*
X150892857Y-47908214D02*
X150964286Y-47943928D01*
X150964286Y-47943928D02*
X151000000Y-47979642D01*
X151000000Y-47979642D02*
X151035714Y-48051071D01*
X151035714Y-48051071D02*
X151035714Y-48086785D01*
X151035714Y-48086785D02*
X151000000Y-48158214D01*
X151000000Y-48158214D02*
X150964286Y-48193928D01*
X150964286Y-48193928D02*
X150892857Y-48229642D01*
X150892857Y-48229642D02*
X150750000Y-48229642D01*
X150750000Y-48229642D02*
X150678571Y-48265357D01*
X150678571Y-48265357D02*
X150642857Y-48301071D01*
X150642857Y-48301071D02*
X150607143Y-48372500D01*
X150607143Y-48372500D02*
X150607143Y-48515357D01*
X150607143Y-48515357D02*
X150642857Y-48586785D01*
X150642857Y-48586785D02*
X150678571Y-48622500D01*
X150678571Y-48622500D02*
X150750000Y-48658214D01*
X150750000Y-48658214D02*
X150892857Y-48658214D01*
X150892857Y-48658214D02*
X150964286Y-48622500D01*
X150964286Y-48622500D02*
X151000000Y-48586785D01*
X151000000Y-48586785D02*
X151035714Y-48515357D01*
X151035714Y-48515357D02*
X151035714Y-48372500D01*
X151035714Y-48372500D02*
X151000000Y-48301071D01*
X151000000Y-48301071D02*
X150964286Y-48265357D01*
X150964286Y-48265357D02*
X150892857Y-48229642D01*
X172750000Y-47908214D02*
X172607142Y-47908214D01*
X172607142Y-47908214D02*
X172535714Y-47943928D01*
X172535714Y-47943928D02*
X172500000Y-47979642D01*
X172500000Y-47979642D02*
X172428571Y-48086785D01*
X172428571Y-48086785D02*
X172392857Y-48229642D01*
X172392857Y-48229642D02*
X172392857Y-48515357D01*
X172392857Y-48515357D02*
X172428571Y-48586785D01*
X172428571Y-48586785D02*
X172464285Y-48622500D01*
X172464285Y-48622500D02*
X172535714Y-48658214D01*
X172535714Y-48658214D02*
X172678571Y-48658214D01*
X172678571Y-48658214D02*
X172750000Y-48622500D01*
X172750000Y-48622500D02*
X172785714Y-48586785D01*
X172785714Y-48586785D02*
X172821428Y-48515357D01*
X172821428Y-48515357D02*
X172821428Y-48336785D01*
X172821428Y-48336785D02*
X172785714Y-48265357D01*
X172785714Y-48265357D02*
X172750000Y-48229642D01*
X172750000Y-48229642D02*
X172678571Y-48193928D01*
X172678571Y-48193928D02*
X172535714Y-48193928D01*
X172535714Y-48193928D02*
X172464285Y-48229642D01*
X172464285Y-48229642D02*
X172428571Y-48265357D01*
X172428571Y-48265357D02*
X172392857Y-48336785D01*
X173071428Y-47908214D02*
X173535714Y-47908214D01*
X173535714Y-47908214D02*
X173285714Y-48193928D01*
X173285714Y-48193928D02*
X173392857Y-48193928D01*
X173392857Y-48193928D02*
X173464286Y-48229642D01*
X173464286Y-48229642D02*
X173500000Y-48265357D01*
X173500000Y-48265357D02*
X173535714Y-48336785D01*
X173535714Y-48336785D02*
X173535714Y-48515357D01*
X173535714Y-48515357D02*
X173500000Y-48586785D01*
X173500000Y-48586785D02*
X173464286Y-48622500D01*
X173464286Y-48622500D02*
X173392857Y-48658214D01*
X173392857Y-48658214D02*
X173178571Y-48658214D01*
X173178571Y-48658214D02*
X173107143Y-48622500D01*
X173107143Y-48622500D02*
X173071428Y-48586785D01*
D11*
%TO.C,U3*%
X141736619Y-66182428D02*
X141736619Y-65515762D01*
X141736619Y-65515762D02*
X142736619Y-65944333D01*
X142069952Y-64706238D02*
X142736619Y-64706238D01*
X141689000Y-64944333D02*
X142403285Y-65182428D01*
X142403285Y-65182428D02*
X142403285Y-64563381D01*
X142736619Y-63706238D02*
X142736619Y-64182428D01*
X142736619Y-64182428D02*
X141736619Y-64182428D01*
X141736619Y-63515761D02*
X142736619Y-63182428D01*
X142736619Y-63182428D02*
X141736619Y-62849095D01*
X142641380Y-61944333D02*
X142689000Y-61991952D01*
X142689000Y-61991952D02*
X142736619Y-62134809D01*
X142736619Y-62134809D02*
X142736619Y-62230047D01*
X142736619Y-62230047D02*
X142689000Y-62372904D01*
X142689000Y-62372904D02*
X142593761Y-62468142D01*
X142593761Y-62468142D02*
X142498523Y-62515761D01*
X142498523Y-62515761D02*
X142308047Y-62563380D01*
X142308047Y-62563380D02*
X142165190Y-62563380D01*
X142165190Y-62563380D02*
X141974714Y-62515761D01*
X141974714Y-62515761D02*
X141879476Y-62468142D01*
X141879476Y-62468142D02*
X141784238Y-62372904D01*
X141784238Y-62372904D02*
X141736619Y-62230047D01*
X141736619Y-62230047D02*
X141736619Y-62134809D01*
X141736619Y-62134809D02*
X141784238Y-61991952D01*
X141784238Y-61991952D02*
X141831857Y-61944333D01*
X141831857Y-61563380D02*
X141784238Y-61515761D01*
X141784238Y-61515761D02*
X141736619Y-61420523D01*
X141736619Y-61420523D02*
X141736619Y-61182428D01*
X141736619Y-61182428D02*
X141784238Y-61087190D01*
X141784238Y-61087190D02*
X141831857Y-61039571D01*
X141831857Y-61039571D02*
X141927095Y-60991952D01*
X141927095Y-60991952D02*
X142022333Y-60991952D01*
X142022333Y-60991952D02*
X142165190Y-61039571D01*
X142165190Y-61039571D02*
X142736619Y-61610999D01*
X142736619Y-61610999D02*
X142736619Y-60991952D01*
X142069952Y-60134809D02*
X142736619Y-60134809D01*
X141689000Y-60372904D02*
X142403285Y-60610999D01*
X142403285Y-60610999D02*
X142403285Y-59991952D01*
X141736619Y-59134809D02*
X141736619Y-59610999D01*
X141736619Y-59610999D02*
X142212809Y-59658618D01*
X142212809Y-59658618D02*
X142165190Y-59610999D01*
X142165190Y-59610999D02*
X142117571Y-59515761D01*
X142117571Y-59515761D02*
X142117571Y-59277666D01*
X142117571Y-59277666D02*
X142165190Y-59182428D01*
X142165190Y-59182428D02*
X142212809Y-59134809D01*
X142212809Y-59134809D02*
X142308047Y-59087190D01*
X142308047Y-59087190D02*
X142546142Y-59087190D01*
X142546142Y-59087190D02*
X142641380Y-59134809D01*
X142641380Y-59134809D02*
X142689000Y-59182428D01*
X142689000Y-59182428D02*
X142736619Y-59277666D01*
X142736619Y-59277666D02*
X142736619Y-59515761D01*
X142736619Y-59515761D02*
X142689000Y-59610999D01*
X142689000Y-59610999D02*
X142641380Y-59658618D01*
%TO.C,J2*%
X185433364Y-61951429D02*
X185433364Y-61522858D01*
X186183364Y-61737143D02*
X185433364Y-61737143D01*
X186183364Y-61272857D02*
X185433364Y-61272857D01*
X185433364Y-61272857D02*
X185969078Y-61022857D01*
X185969078Y-61022857D02*
X185433364Y-60772857D01*
X185433364Y-60772857D02*
X186183364Y-60772857D01*
X186147650Y-60451428D02*
X186183364Y-60344286D01*
X186183364Y-60344286D02*
X186183364Y-60165714D01*
X186183364Y-60165714D02*
X186147650Y-60094286D01*
X186147650Y-60094286D02*
X186111935Y-60058571D01*
X186111935Y-60058571D02*
X186040507Y-60022857D01*
X186040507Y-60022857D02*
X185969078Y-60022857D01*
X185969078Y-60022857D02*
X185897650Y-60058571D01*
X185897650Y-60058571D02*
X185861935Y-60094286D01*
X185861935Y-60094286D02*
X185826221Y-60165714D01*
X185826221Y-60165714D02*
X185790507Y-60308571D01*
X185790507Y-60308571D02*
X185754792Y-60380000D01*
X185754792Y-60380000D02*
X185719078Y-60415714D01*
X185719078Y-60415714D02*
X185647650Y-60451428D01*
X185647650Y-60451428D02*
X185576221Y-60451428D01*
X185576221Y-60451428D02*
X185504792Y-60415714D01*
X185504792Y-60415714D02*
X185469078Y-60380000D01*
X185469078Y-60380000D02*
X185433364Y-60308571D01*
X185433364Y-60308571D02*
X185433364Y-60130000D01*
X185433364Y-60130000D02*
X185469078Y-60022857D01*
X186183364Y-59665714D02*
X186183364Y-59522857D01*
X186183364Y-59522857D02*
X186147650Y-59451428D01*
X186147650Y-59451428D02*
X186111935Y-59415714D01*
X186111935Y-59415714D02*
X186004792Y-59344285D01*
X186004792Y-59344285D02*
X185861935Y-59308571D01*
X185861935Y-59308571D02*
X185576221Y-59308571D01*
X185576221Y-59308571D02*
X185504792Y-59344285D01*
X185504792Y-59344285D02*
X185469078Y-59380000D01*
X185469078Y-59380000D02*
X185433364Y-59451428D01*
X185433364Y-59451428D02*
X185433364Y-59594285D01*
X185433364Y-59594285D02*
X185469078Y-59665714D01*
X185469078Y-59665714D02*
X185504792Y-59701428D01*
X185504792Y-59701428D02*
X185576221Y-59737142D01*
X185576221Y-59737142D02*
X185754792Y-59737142D01*
X185754792Y-59737142D02*
X185826221Y-59701428D01*
X185826221Y-59701428D02*
X185861935Y-59665714D01*
X185861935Y-59665714D02*
X185897650Y-59594285D01*
X185897650Y-59594285D02*
X185897650Y-59451428D01*
X185897650Y-59451428D02*
X185861935Y-59380000D01*
X185861935Y-59380000D02*
X185826221Y-59344285D01*
X185826221Y-59344285D02*
X185754792Y-59308571D01*
X186183364Y-59058571D02*
X185683364Y-58665714D01*
X185683364Y-59058571D02*
X186183364Y-58665714D01*
X186183364Y-58451428D02*
X185683364Y-58058571D01*
X185683364Y-58451428D02*
X186183364Y-58058571D01*
X185754792Y-57665713D02*
X185719078Y-57737142D01*
X185719078Y-57737142D02*
X185683364Y-57772856D01*
X185683364Y-57772856D02*
X185611935Y-57808570D01*
X185611935Y-57808570D02*
X185576221Y-57808570D01*
X185576221Y-57808570D02*
X185504792Y-57772856D01*
X185504792Y-57772856D02*
X185469078Y-57737142D01*
X185469078Y-57737142D02*
X185433364Y-57665713D01*
X185433364Y-57665713D02*
X185433364Y-57522856D01*
X185433364Y-57522856D02*
X185469078Y-57451428D01*
X185469078Y-57451428D02*
X185504792Y-57415713D01*
X185504792Y-57415713D02*
X185576221Y-57379999D01*
X185576221Y-57379999D02*
X185611935Y-57379999D01*
X185611935Y-57379999D02*
X185683364Y-57415713D01*
X185683364Y-57415713D02*
X185719078Y-57451428D01*
X185719078Y-57451428D02*
X185754792Y-57522856D01*
X185754792Y-57522856D02*
X185754792Y-57665713D01*
X185754792Y-57665713D02*
X185790507Y-57737142D01*
X185790507Y-57737142D02*
X185826221Y-57772856D01*
X185826221Y-57772856D02*
X185897650Y-57808570D01*
X185897650Y-57808570D02*
X186040507Y-57808570D01*
X186040507Y-57808570D02*
X186111935Y-57772856D01*
X186111935Y-57772856D02*
X186147650Y-57737142D01*
X186147650Y-57737142D02*
X186183364Y-57665713D01*
X186183364Y-57665713D02*
X186183364Y-57522856D01*
X186183364Y-57522856D02*
X186147650Y-57451428D01*
X186147650Y-57451428D02*
X186111935Y-57415713D01*
X186111935Y-57415713D02*
X186040507Y-57379999D01*
X186040507Y-57379999D02*
X185897650Y-57379999D01*
X185897650Y-57379999D02*
X185826221Y-57415713D01*
X185826221Y-57415713D02*
X185790507Y-57451428D01*
X185790507Y-57451428D02*
X185754792Y-57522856D01*
X185397650Y-56522856D02*
X186361935Y-57165713D01*
X186183364Y-56237142D02*
X186183364Y-56094285D01*
X186183364Y-56094285D02*
X186147650Y-56022856D01*
X186147650Y-56022856D02*
X186111935Y-55987142D01*
X186111935Y-55987142D02*
X186004792Y-55915713D01*
X186004792Y-55915713D02*
X185861935Y-55879999D01*
X185861935Y-55879999D02*
X185576221Y-55879999D01*
X185576221Y-55879999D02*
X185504792Y-55915713D01*
X185504792Y-55915713D02*
X185469078Y-55951428D01*
X185469078Y-55951428D02*
X185433364Y-56022856D01*
X185433364Y-56022856D02*
X185433364Y-56165713D01*
X185433364Y-56165713D02*
X185469078Y-56237142D01*
X185469078Y-56237142D02*
X185504792Y-56272856D01*
X185504792Y-56272856D02*
X185576221Y-56308570D01*
X185576221Y-56308570D02*
X185754792Y-56308570D01*
X185754792Y-56308570D02*
X185826221Y-56272856D01*
X185826221Y-56272856D02*
X185861935Y-56237142D01*
X185861935Y-56237142D02*
X185897650Y-56165713D01*
X185897650Y-56165713D02*
X185897650Y-56022856D01*
X185897650Y-56022856D02*
X185861935Y-55951428D01*
X185861935Y-55951428D02*
X185826221Y-55915713D01*
X185826221Y-55915713D02*
X185754792Y-55879999D01*
X185969078Y-55594284D02*
X185969078Y-55237142D01*
X186183364Y-55665713D02*
X185433364Y-55415713D01*
X185433364Y-55415713D02*
X186183364Y-55165713D01*
X185969078Y-54379998D02*
X185969078Y-54022856D01*
X186183364Y-54451427D02*
X185433364Y-54201427D01*
X185433364Y-54201427D02*
X186183364Y-53951427D01*
X186183364Y-53701427D02*
X185433364Y-53701427D01*
X185433364Y-53701427D02*
X185433364Y-53522856D01*
X185433364Y-53522856D02*
X185469078Y-53415713D01*
X185469078Y-53415713D02*
X185540507Y-53344284D01*
X185540507Y-53344284D02*
X185611935Y-53308570D01*
X185611935Y-53308570D02*
X185754792Y-53272856D01*
X185754792Y-53272856D02*
X185861935Y-53272856D01*
X185861935Y-53272856D02*
X186004792Y-53308570D01*
X186004792Y-53308570D02*
X186076221Y-53344284D01*
X186076221Y-53344284D02*
X186147650Y-53415713D01*
X186147650Y-53415713D02*
X186183364Y-53522856D01*
X186183364Y-53522856D02*
X186183364Y-53701427D01*
X185969078Y-52987141D02*
X185969078Y-52629999D01*
X186183364Y-53058570D02*
X185433364Y-52808570D01*
X185433364Y-52808570D02*
X186183364Y-52558570D01*
X186183364Y-52308570D02*
X185433364Y-52308570D01*
X185433364Y-52308570D02*
X185433364Y-52022856D01*
X185433364Y-52022856D02*
X185469078Y-51951427D01*
X185469078Y-51951427D02*
X185504792Y-51915713D01*
X185504792Y-51915713D02*
X185576221Y-51879999D01*
X185576221Y-51879999D02*
X185683364Y-51879999D01*
X185683364Y-51879999D02*
X185754792Y-51915713D01*
X185754792Y-51915713D02*
X185790507Y-51951427D01*
X185790507Y-51951427D02*
X185826221Y-52022856D01*
X185826221Y-52022856D02*
X185826221Y-52308570D01*
X185433364Y-51665713D02*
X185433364Y-51237142D01*
X186183364Y-51451427D02*
X185433364Y-51451427D01*
X185790507Y-50987141D02*
X185790507Y-50737141D01*
X186183364Y-50629998D02*
X186183364Y-50987141D01*
X186183364Y-50987141D02*
X185433364Y-50987141D01*
X185433364Y-50987141D02*
X185433364Y-50629998D01*
X186183364Y-49879999D02*
X185826221Y-50129999D01*
X186183364Y-50308570D02*
X185433364Y-50308570D01*
X185433364Y-50308570D02*
X185433364Y-50022856D01*
X185433364Y-50022856D02*
X185469078Y-49951427D01*
X185469078Y-49951427D02*
X185504792Y-49915713D01*
X185504792Y-49915713D02*
X185576221Y-49879999D01*
X185576221Y-49879999D02*
X185683364Y-49879999D01*
X185683364Y-49879999D02*
X185754792Y-49915713D01*
X185754792Y-49915713D02*
X185790507Y-49951427D01*
X185790507Y-49951427D02*
X185826221Y-50022856D01*
X185826221Y-50022856D02*
X185826221Y-50308570D01*
X185949285Y-74096964D02*
X185520714Y-74096964D01*
X185734999Y-74096964D02*
X185734999Y-73346964D01*
X185734999Y-73346964D02*
X185663571Y-73454107D01*
X185663571Y-73454107D02*
X185592142Y-73525535D01*
X185592142Y-73525535D02*
X185520714Y-73561250D01*
X177913571Y-50418392D02*
X177949285Y-50382678D01*
X177949285Y-50382678D02*
X178020714Y-50346964D01*
X178020714Y-50346964D02*
X178199285Y-50346964D01*
X178199285Y-50346964D02*
X178270714Y-50382678D01*
X178270714Y-50382678D02*
X178306428Y-50418392D01*
X178306428Y-50418392D02*
X178342142Y-50489821D01*
X178342142Y-50489821D02*
X178342142Y-50561250D01*
X178342142Y-50561250D02*
X178306428Y-50668392D01*
X178306428Y-50668392D02*
X177877856Y-51096964D01*
X177877856Y-51096964D02*
X178342142Y-51096964D01*
X178806428Y-50346964D02*
X178877857Y-50346964D01*
X178877857Y-50346964D02*
X178949285Y-50382678D01*
X178949285Y-50382678D02*
X178985000Y-50418392D01*
X178985000Y-50418392D02*
X179020714Y-50489821D01*
X179020714Y-50489821D02*
X179056428Y-50632678D01*
X179056428Y-50632678D02*
X179056428Y-50811250D01*
X179056428Y-50811250D02*
X179020714Y-50954107D01*
X179020714Y-50954107D02*
X178985000Y-51025535D01*
X178985000Y-51025535D02*
X178949285Y-51061250D01*
X178949285Y-51061250D02*
X178877857Y-51096964D01*
X178877857Y-51096964D02*
X178806428Y-51096964D01*
X178806428Y-51096964D02*
X178735000Y-51061250D01*
X178735000Y-51061250D02*
X178699285Y-51025535D01*
X178699285Y-51025535D02*
X178663571Y-50954107D01*
X178663571Y-50954107D02*
X178627857Y-50811250D01*
X178627857Y-50811250D02*
X178627857Y-50632678D01*
X178627857Y-50632678D02*
X178663571Y-50489821D01*
X178663571Y-50489821D02*
X178699285Y-50418392D01*
X178699285Y-50418392D02*
X178735000Y-50382678D01*
X178735000Y-50382678D02*
X178806428Y-50346964D01*
%TO.C,C2*%
X158353999Y-79583964D02*
X157925428Y-79583964D01*
X158139713Y-79583964D02*
X158139713Y-78833964D01*
X158139713Y-78833964D02*
X158068285Y-78941107D01*
X158068285Y-78941107D02*
X157996856Y-79012535D01*
X157996856Y-79012535D02*
X157925428Y-79048250D01*
X158818285Y-78833964D02*
X158889714Y-78833964D01*
X158889714Y-78833964D02*
X158961142Y-78869678D01*
X158961142Y-78869678D02*
X158996857Y-78905392D01*
X158996857Y-78905392D02*
X159032571Y-78976821D01*
X159032571Y-78976821D02*
X159068285Y-79119678D01*
X159068285Y-79119678D02*
X159068285Y-79298250D01*
X159068285Y-79298250D02*
X159032571Y-79441107D01*
X159032571Y-79441107D02*
X158996857Y-79512535D01*
X158996857Y-79512535D02*
X158961142Y-79548250D01*
X158961142Y-79548250D02*
X158889714Y-79583964D01*
X158889714Y-79583964D02*
X158818285Y-79583964D01*
X158818285Y-79583964D02*
X158746857Y-79548250D01*
X158746857Y-79548250D02*
X158711142Y-79512535D01*
X158711142Y-79512535D02*
X158675428Y-79441107D01*
X158675428Y-79441107D02*
X158639714Y-79298250D01*
X158639714Y-79298250D02*
X158639714Y-79119678D01*
X158639714Y-79119678D02*
X158675428Y-78976821D01*
X158675428Y-78976821D02*
X158711142Y-78905392D01*
X158711142Y-78905392D02*
X158746857Y-78869678D01*
X158746857Y-78869678D02*
X158818285Y-78833964D01*
X159711143Y-79083964D02*
X159711143Y-79583964D01*
X159532571Y-78798250D02*
X159354000Y-79333964D01*
X159354000Y-79333964D02*
X159818285Y-79333964D01*
%TO.C,C4*%
X178216666Y-110370095D02*
X177759523Y-110370095D01*
X177988095Y-110370095D02*
X177988095Y-109570095D01*
X177988095Y-109570095D02*
X177911904Y-109684380D01*
X177911904Y-109684380D02*
X177835714Y-109760571D01*
X177835714Y-109760571D02*
X177759523Y-109798666D01*
X178711905Y-109570095D02*
X178788095Y-109570095D01*
X178788095Y-109570095D02*
X178864286Y-109608190D01*
X178864286Y-109608190D02*
X178902381Y-109646285D01*
X178902381Y-109646285D02*
X178940476Y-109722476D01*
X178940476Y-109722476D02*
X178978571Y-109874857D01*
X178978571Y-109874857D02*
X178978571Y-110065333D01*
X178978571Y-110065333D02*
X178940476Y-110217714D01*
X178940476Y-110217714D02*
X178902381Y-110293904D01*
X178902381Y-110293904D02*
X178864286Y-110332000D01*
X178864286Y-110332000D02*
X178788095Y-110370095D01*
X178788095Y-110370095D02*
X178711905Y-110370095D01*
X178711905Y-110370095D02*
X178635714Y-110332000D01*
X178635714Y-110332000D02*
X178597619Y-110293904D01*
X178597619Y-110293904D02*
X178559524Y-110217714D01*
X178559524Y-110217714D02*
X178521428Y-110065333D01*
X178521428Y-110065333D02*
X178521428Y-109874857D01*
X178521428Y-109874857D02*
X178559524Y-109722476D01*
X178559524Y-109722476D02*
X178597619Y-109646285D01*
X178597619Y-109646285D02*
X178635714Y-109608190D01*
X178635714Y-109608190D02*
X178711905Y-109570095D01*
X179664286Y-109836761D02*
X179664286Y-110370095D01*
X179473810Y-109532000D02*
X179283333Y-110103428D01*
X179283333Y-110103428D02*
X179778572Y-110103428D01*
%TO.C,C1*%
X139106999Y-79467964D02*
X138678428Y-79467964D01*
X138892713Y-79467964D02*
X138892713Y-78717964D01*
X138892713Y-78717964D02*
X138821285Y-78825107D01*
X138821285Y-78825107D02*
X138749856Y-78896535D01*
X138749856Y-78896535D02*
X138678428Y-78932250D01*
X139571285Y-78717964D02*
X139642714Y-78717964D01*
X139642714Y-78717964D02*
X139714142Y-78753678D01*
X139714142Y-78753678D02*
X139749857Y-78789392D01*
X139749857Y-78789392D02*
X139785571Y-78860821D01*
X139785571Y-78860821D02*
X139821285Y-79003678D01*
X139821285Y-79003678D02*
X139821285Y-79182250D01*
X139821285Y-79182250D02*
X139785571Y-79325107D01*
X139785571Y-79325107D02*
X139749857Y-79396535D01*
X139749857Y-79396535D02*
X139714142Y-79432250D01*
X139714142Y-79432250D02*
X139642714Y-79467964D01*
X139642714Y-79467964D02*
X139571285Y-79467964D01*
X139571285Y-79467964D02*
X139499857Y-79432250D01*
X139499857Y-79432250D02*
X139464142Y-79396535D01*
X139464142Y-79396535D02*
X139428428Y-79325107D01*
X139428428Y-79325107D02*
X139392714Y-79182250D01*
X139392714Y-79182250D02*
X139392714Y-79003678D01*
X139392714Y-79003678D02*
X139428428Y-78860821D01*
X139428428Y-78860821D02*
X139464142Y-78789392D01*
X139464142Y-78789392D02*
X139499857Y-78753678D01*
X139499857Y-78753678D02*
X139571285Y-78717964D01*
X140464143Y-78967964D02*
X140464143Y-79467964D01*
X140285571Y-78682250D02*
X140107000Y-79217964D01*
X140107000Y-79217964D02*
X140571285Y-79217964D01*
%TO.C,U4*%
X181697619Y-104308094D02*
X180697619Y-104308094D01*
X180697619Y-104308094D02*
X181411904Y-103974761D01*
X181411904Y-103974761D02*
X180697619Y-103641428D01*
X180697619Y-103641428D02*
X181697619Y-103641428D01*
X181602380Y-102593809D02*
X181650000Y-102641428D01*
X181650000Y-102641428D02*
X181697619Y-102784285D01*
X181697619Y-102784285D02*
X181697619Y-102879523D01*
X181697619Y-102879523D02*
X181650000Y-103022380D01*
X181650000Y-103022380D02*
X181554761Y-103117618D01*
X181554761Y-103117618D02*
X181459523Y-103165237D01*
X181459523Y-103165237D02*
X181269047Y-103212856D01*
X181269047Y-103212856D02*
X181126190Y-103212856D01*
X181126190Y-103212856D02*
X180935714Y-103165237D01*
X180935714Y-103165237D02*
X180840476Y-103117618D01*
X180840476Y-103117618D02*
X180745238Y-103022380D01*
X180745238Y-103022380D02*
X180697619Y-102879523D01*
X180697619Y-102879523D02*
X180697619Y-102784285D01*
X180697619Y-102784285D02*
X180745238Y-102641428D01*
X180745238Y-102641428D02*
X180792857Y-102593809D01*
X181697619Y-102165237D02*
X180697619Y-102165237D01*
X180697619Y-102165237D02*
X180697619Y-101784285D01*
X180697619Y-101784285D02*
X180745238Y-101689047D01*
X180745238Y-101689047D02*
X180792857Y-101641428D01*
X180792857Y-101641428D02*
X180888095Y-101593809D01*
X180888095Y-101593809D02*
X181030952Y-101593809D01*
X181030952Y-101593809D02*
X181126190Y-101641428D01*
X181126190Y-101641428D02*
X181173809Y-101689047D01*
X181173809Y-101689047D02*
X181221428Y-101784285D01*
X181221428Y-101784285D02*
X181221428Y-102165237D01*
X180697619Y-101260475D02*
X180697619Y-100641428D01*
X180697619Y-100641428D02*
X181078571Y-100974761D01*
X181078571Y-100974761D02*
X181078571Y-100831904D01*
X181078571Y-100831904D02*
X181126190Y-100736666D01*
X181126190Y-100736666D02*
X181173809Y-100689047D01*
X181173809Y-100689047D02*
X181269047Y-100641428D01*
X181269047Y-100641428D02*
X181507142Y-100641428D01*
X181507142Y-100641428D02*
X181602380Y-100689047D01*
X181602380Y-100689047D02*
X181650000Y-100736666D01*
X181650000Y-100736666D02*
X181697619Y-100831904D01*
X181697619Y-100831904D02*
X181697619Y-101117618D01*
X181697619Y-101117618D02*
X181650000Y-101212856D01*
X181650000Y-101212856D02*
X181602380Y-101260475D01*
X180792857Y-100260475D02*
X180745238Y-100212856D01*
X180745238Y-100212856D02*
X180697619Y-100117618D01*
X180697619Y-100117618D02*
X180697619Y-99879523D01*
X180697619Y-99879523D02*
X180745238Y-99784285D01*
X180745238Y-99784285D02*
X180792857Y-99736666D01*
X180792857Y-99736666D02*
X180888095Y-99689047D01*
X180888095Y-99689047D02*
X180983333Y-99689047D01*
X180983333Y-99689047D02*
X181126190Y-99736666D01*
X181126190Y-99736666D02*
X181697619Y-100308094D01*
X181697619Y-100308094D02*
X181697619Y-99689047D01*
X180697619Y-99069999D02*
X180697619Y-98974761D01*
X180697619Y-98974761D02*
X180745238Y-98879523D01*
X180745238Y-98879523D02*
X180792857Y-98831904D01*
X180792857Y-98831904D02*
X180888095Y-98784285D01*
X180888095Y-98784285D02*
X181078571Y-98736666D01*
X181078571Y-98736666D02*
X181316666Y-98736666D01*
X181316666Y-98736666D02*
X181507142Y-98784285D01*
X181507142Y-98784285D02*
X181602380Y-98831904D01*
X181602380Y-98831904D02*
X181650000Y-98879523D01*
X181650000Y-98879523D02*
X181697619Y-98974761D01*
X181697619Y-98974761D02*
X181697619Y-99069999D01*
X181697619Y-99069999D02*
X181650000Y-99165237D01*
X181650000Y-99165237D02*
X181602380Y-99212856D01*
X181602380Y-99212856D02*
X181507142Y-99260475D01*
X181507142Y-99260475D02*
X181316666Y-99308094D01*
X181316666Y-99308094D02*
X181078571Y-99308094D01*
X181078571Y-99308094D02*
X180888095Y-99260475D01*
X180888095Y-99260475D02*
X180792857Y-99212856D01*
X180792857Y-99212856D02*
X180745238Y-99165237D01*
X180745238Y-99165237D02*
X180697619Y-99069999D01*
X180792857Y-98355713D02*
X180745238Y-98308094D01*
X180745238Y-98308094D02*
X180697619Y-98212856D01*
X180697619Y-98212856D02*
X180697619Y-97974761D01*
X180697619Y-97974761D02*
X180745238Y-97879523D01*
X180745238Y-97879523D02*
X180792857Y-97831904D01*
X180792857Y-97831904D02*
X180888095Y-97784285D01*
X180888095Y-97784285D02*
X180983333Y-97784285D01*
X180983333Y-97784285D02*
X181126190Y-97831904D01*
X181126190Y-97831904D02*
X181697619Y-98403332D01*
X181697619Y-98403332D02*
X181697619Y-97784285D01*
%TO.C,C3*%
X163687999Y-80218964D02*
X163259428Y-80218964D01*
X163473713Y-80218964D02*
X163473713Y-79468964D01*
X163473713Y-79468964D02*
X163402285Y-79576107D01*
X163402285Y-79576107D02*
X163330856Y-79647535D01*
X163330856Y-79647535D02*
X163259428Y-79683250D01*
X164152285Y-79468964D02*
X164223714Y-79468964D01*
X164223714Y-79468964D02*
X164295142Y-79504678D01*
X164295142Y-79504678D02*
X164330857Y-79540392D01*
X164330857Y-79540392D02*
X164366571Y-79611821D01*
X164366571Y-79611821D02*
X164402285Y-79754678D01*
X164402285Y-79754678D02*
X164402285Y-79933250D01*
X164402285Y-79933250D02*
X164366571Y-80076107D01*
X164366571Y-80076107D02*
X164330857Y-80147535D01*
X164330857Y-80147535D02*
X164295142Y-80183250D01*
X164295142Y-80183250D02*
X164223714Y-80218964D01*
X164223714Y-80218964D02*
X164152285Y-80218964D01*
X164152285Y-80218964D02*
X164080857Y-80183250D01*
X164080857Y-80183250D02*
X164045142Y-80147535D01*
X164045142Y-80147535D02*
X164009428Y-80076107D01*
X164009428Y-80076107D02*
X163973714Y-79933250D01*
X163973714Y-79933250D02*
X163973714Y-79754678D01*
X163973714Y-79754678D02*
X164009428Y-79611821D01*
X164009428Y-79611821D02*
X164045142Y-79540392D01*
X164045142Y-79540392D02*
X164080857Y-79504678D01*
X164080857Y-79504678D02*
X164152285Y-79468964D01*
X165045143Y-79718964D02*
X165045143Y-80218964D01*
X164866571Y-79433250D02*
X164688000Y-79968964D01*
X164688000Y-79968964D02*
X165152285Y-79968964D01*
%TO.C,U2*%
X160983619Y-66171428D02*
X160983619Y-65504762D01*
X160983619Y-65504762D02*
X161983619Y-65933333D01*
X161316952Y-64695238D02*
X161983619Y-64695238D01*
X160936000Y-64933333D02*
X161650285Y-65171428D01*
X161650285Y-65171428D02*
X161650285Y-64552381D01*
X161983619Y-63695238D02*
X161983619Y-64171428D01*
X161983619Y-64171428D02*
X160983619Y-64171428D01*
X160983619Y-63504761D02*
X161983619Y-63171428D01*
X161983619Y-63171428D02*
X160983619Y-62838095D01*
X161888380Y-61933333D02*
X161936000Y-61980952D01*
X161936000Y-61980952D02*
X161983619Y-62123809D01*
X161983619Y-62123809D02*
X161983619Y-62219047D01*
X161983619Y-62219047D02*
X161936000Y-62361904D01*
X161936000Y-62361904D02*
X161840761Y-62457142D01*
X161840761Y-62457142D02*
X161745523Y-62504761D01*
X161745523Y-62504761D02*
X161555047Y-62552380D01*
X161555047Y-62552380D02*
X161412190Y-62552380D01*
X161412190Y-62552380D02*
X161221714Y-62504761D01*
X161221714Y-62504761D02*
X161126476Y-62457142D01*
X161126476Y-62457142D02*
X161031238Y-62361904D01*
X161031238Y-62361904D02*
X160983619Y-62219047D01*
X160983619Y-62219047D02*
X160983619Y-62123809D01*
X160983619Y-62123809D02*
X161031238Y-61980952D01*
X161031238Y-61980952D02*
X161078857Y-61933333D01*
X161078857Y-61552380D02*
X161031238Y-61504761D01*
X161031238Y-61504761D02*
X160983619Y-61409523D01*
X160983619Y-61409523D02*
X160983619Y-61171428D01*
X160983619Y-61171428D02*
X161031238Y-61076190D01*
X161031238Y-61076190D02*
X161078857Y-61028571D01*
X161078857Y-61028571D02*
X161174095Y-60980952D01*
X161174095Y-60980952D02*
X161269333Y-60980952D01*
X161269333Y-60980952D02*
X161412190Y-61028571D01*
X161412190Y-61028571D02*
X161983619Y-61599999D01*
X161983619Y-61599999D02*
X161983619Y-60980952D01*
X161316952Y-60123809D02*
X161983619Y-60123809D01*
X160936000Y-60361904D02*
X161650285Y-60599999D01*
X161650285Y-60599999D02*
X161650285Y-59980952D01*
X160983619Y-59123809D02*
X160983619Y-59599999D01*
X160983619Y-59599999D02*
X161459809Y-59647618D01*
X161459809Y-59647618D02*
X161412190Y-59599999D01*
X161412190Y-59599999D02*
X161364571Y-59504761D01*
X161364571Y-59504761D02*
X161364571Y-59266666D01*
X161364571Y-59266666D02*
X161412190Y-59171428D01*
X161412190Y-59171428D02*
X161459809Y-59123809D01*
X161459809Y-59123809D02*
X161555047Y-59076190D01*
X161555047Y-59076190D02*
X161793142Y-59076190D01*
X161793142Y-59076190D02*
X161888380Y-59123809D01*
X161888380Y-59123809D02*
X161936000Y-59171428D01*
X161936000Y-59171428D02*
X161983619Y-59266666D01*
X161983619Y-59266666D02*
X161983619Y-59504761D01*
X161983619Y-59504761D02*
X161936000Y-59599999D01*
X161936000Y-59599999D02*
X161888380Y-59647618D01*
%TO.C,U1*%
X160856619Y-100588428D02*
X160856619Y-99921762D01*
X160856619Y-99921762D02*
X161856619Y-100350333D01*
X161189952Y-99112238D02*
X161856619Y-99112238D01*
X160809000Y-99350333D02*
X161523285Y-99588428D01*
X161523285Y-99588428D02*
X161523285Y-98969381D01*
X161856619Y-98112238D02*
X161856619Y-98588428D01*
X161856619Y-98588428D02*
X160856619Y-98588428D01*
X160856619Y-97921761D02*
X161856619Y-97588428D01*
X161856619Y-97588428D02*
X160856619Y-97255095D01*
X161761380Y-96350333D02*
X161809000Y-96397952D01*
X161809000Y-96397952D02*
X161856619Y-96540809D01*
X161856619Y-96540809D02*
X161856619Y-96636047D01*
X161856619Y-96636047D02*
X161809000Y-96778904D01*
X161809000Y-96778904D02*
X161713761Y-96874142D01*
X161713761Y-96874142D02*
X161618523Y-96921761D01*
X161618523Y-96921761D02*
X161428047Y-96969380D01*
X161428047Y-96969380D02*
X161285190Y-96969380D01*
X161285190Y-96969380D02*
X161094714Y-96921761D01*
X161094714Y-96921761D02*
X160999476Y-96874142D01*
X160999476Y-96874142D02*
X160904238Y-96778904D01*
X160904238Y-96778904D02*
X160856619Y-96636047D01*
X160856619Y-96636047D02*
X160856619Y-96540809D01*
X160856619Y-96540809D02*
X160904238Y-96397952D01*
X160904238Y-96397952D02*
X160951857Y-96350333D01*
X160951857Y-95969380D02*
X160904238Y-95921761D01*
X160904238Y-95921761D02*
X160856619Y-95826523D01*
X160856619Y-95826523D02*
X160856619Y-95588428D01*
X160856619Y-95588428D02*
X160904238Y-95493190D01*
X160904238Y-95493190D02*
X160951857Y-95445571D01*
X160951857Y-95445571D02*
X161047095Y-95397952D01*
X161047095Y-95397952D02*
X161142333Y-95397952D01*
X161142333Y-95397952D02*
X161285190Y-95445571D01*
X161285190Y-95445571D02*
X161856619Y-96016999D01*
X161856619Y-96016999D02*
X161856619Y-95397952D01*
X161189952Y-94540809D02*
X161856619Y-94540809D01*
X160809000Y-94778904D02*
X161523285Y-95016999D01*
X161523285Y-95016999D02*
X161523285Y-94397952D01*
X160856619Y-93540809D02*
X160856619Y-94016999D01*
X160856619Y-94016999D02*
X161332809Y-94064618D01*
X161332809Y-94064618D02*
X161285190Y-94016999D01*
X161285190Y-94016999D02*
X161237571Y-93921761D01*
X161237571Y-93921761D02*
X161237571Y-93683666D01*
X161237571Y-93683666D02*
X161285190Y-93588428D01*
X161285190Y-93588428D02*
X161332809Y-93540809D01*
X161332809Y-93540809D02*
X161428047Y-93493190D01*
X161428047Y-93493190D02*
X161666142Y-93493190D01*
X161666142Y-93493190D02*
X161761380Y-93540809D01*
X161761380Y-93540809D02*
X161809000Y-93588428D01*
X161809000Y-93588428D02*
X161856619Y-93683666D01*
X161856619Y-93683666D02*
X161856619Y-93921761D01*
X161856619Y-93921761D02*
X161809000Y-94016999D01*
X161809000Y-94016999D02*
X161761380Y-94064618D01*
%TO.C,J1*%
X137174285Y-83596964D02*
X136745714Y-83596964D01*
X136959999Y-83596964D02*
X136959999Y-82846964D01*
X136959999Y-82846964D02*
X136888571Y-82954107D01*
X136888571Y-82954107D02*
X136817142Y-83025535D01*
X136817142Y-83025535D02*
X136745714Y-83061250D01*
X143888571Y-106168392D02*
X143924285Y-106132678D01*
X143924285Y-106132678D02*
X143995714Y-106096964D01*
X143995714Y-106096964D02*
X144174285Y-106096964D01*
X144174285Y-106096964D02*
X144245714Y-106132678D01*
X144245714Y-106132678D02*
X144281428Y-106168392D01*
X144281428Y-106168392D02*
X144317142Y-106239821D01*
X144317142Y-106239821D02*
X144317142Y-106311250D01*
X144317142Y-106311250D02*
X144281428Y-106418392D01*
X144281428Y-106418392D02*
X143852856Y-106846964D01*
X143852856Y-106846964D02*
X144317142Y-106846964D01*
X144781428Y-106096964D02*
X144852857Y-106096964D01*
X144852857Y-106096964D02*
X144924285Y-106132678D01*
X144924285Y-106132678D02*
X144960000Y-106168392D01*
X144960000Y-106168392D02*
X144995714Y-106239821D01*
X144995714Y-106239821D02*
X145031428Y-106382678D01*
X145031428Y-106382678D02*
X145031428Y-106561250D01*
X145031428Y-106561250D02*
X144995714Y-106704107D01*
X144995714Y-106704107D02*
X144960000Y-106775535D01*
X144960000Y-106775535D02*
X144924285Y-106811250D01*
X144924285Y-106811250D02*
X144852857Y-106846964D01*
X144852857Y-106846964D02*
X144781428Y-106846964D01*
X144781428Y-106846964D02*
X144710000Y-106811250D01*
X144710000Y-106811250D02*
X144674285Y-106775535D01*
X144674285Y-106775535D02*
X144638571Y-106704107D01*
X144638571Y-106704107D02*
X144602857Y-106561250D01*
X144602857Y-106561250D02*
X144602857Y-106382678D01*
X144602857Y-106382678D02*
X144638571Y-106239821D01*
X144638571Y-106239821D02*
X144674285Y-106168392D01*
X144674285Y-106168392D02*
X144710000Y-106132678D01*
X144710000Y-106132678D02*
X144781428Y-106096964D01*
X136750564Y-106934229D02*
X136750564Y-106505658D01*
X137500564Y-106719943D02*
X136750564Y-106719943D01*
X137500564Y-106255657D02*
X136750564Y-106255657D01*
X136750564Y-106255657D02*
X137286278Y-106005657D01*
X137286278Y-106005657D02*
X136750564Y-105755657D01*
X136750564Y-105755657D02*
X137500564Y-105755657D01*
X137464850Y-105434228D02*
X137500564Y-105327086D01*
X137500564Y-105327086D02*
X137500564Y-105148514D01*
X137500564Y-105148514D02*
X137464850Y-105077086D01*
X137464850Y-105077086D02*
X137429135Y-105041371D01*
X137429135Y-105041371D02*
X137357707Y-105005657D01*
X137357707Y-105005657D02*
X137286278Y-105005657D01*
X137286278Y-105005657D02*
X137214850Y-105041371D01*
X137214850Y-105041371D02*
X137179135Y-105077086D01*
X137179135Y-105077086D02*
X137143421Y-105148514D01*
X137143421Y-105148514D02*
X137107707Y-105291371D01*
X137107707Y-105291371D02*
X137071992Y-105362800D01*
X137071992Y-105362800D02*
X137036278Y-105398514D01*
X137036278Y-105398514D02*
X136964850Y-105434228D01*
X136964850Y-105434228D02*
X136893421Y-105434228D01*
X136893421Y-105434228D02*
X136821992Y-105398514D01*
X136821992Y-105398514D02*
X136786278Y-105362800D01*
X136786278Y-105362800D02*
X136750564Y-105291371D01*
X136750564Y-105291371D02*
X136750564Y-105112800D01*
X136750564Y-105112800D02*
X136786278Y-105005657D01*
X137500564Y-104648514D02*
X137500564Y-104505657D01*
X137500564Y-104505657D02*
X137464850Y-104434228D01*
X137464850Y-104434228D02*
X137429135Y-104398514D01*
X137429135Y-104398514D02*
X137321992Y-104327085D01*
X137321992Y-104327085D02*
X137179135Y-104291371D01*
X137179135Y-104291371D02*
X136893421Y-104291371D01*
X136893421Y-104291371D02*
X136821992Y-104327085D01*
X136821992Y-104327085D02*
X136786278Y-104362800D01*
X136786278Y-104362800D02*
X136750564Y-104434228D01*
X136750564Y-104434228D02*
X136750564Y-104577085D01*
X136750564Y-104577085D02*
X136786278Y-104648514D01*
X136786278Y-104648514D02*
X136821992Y-104684228D01*
X136821992Y-104684228D02*
X136893421Y-104719942D01*
X136893421Y-104719942D02*
X137071992Y-104719942D01*
X137071992Y-104719942D02*
X137143421Y-104684228D01*
X137143421Y-104684228D02*
X137179135Y-104648514D01*
X137179135Y-104648514D02*
X137214850Y-104577085D01*
X137214850Y-104577085D02*
X137214850Y-104434228D01*
X137214850Y-104434228D02*
X137179135Y-104362800D01*
X137179135Y-104362800D02*
X137143421Y-104327085D01*
X137143421Y-104327085D02*
X137071992Y-104291371D01*
X137500564Y-104041371D02*
X137000564Y-103648514D01*
X137000564Y-104041371D02*
X137500564Y-103648514D01*
X137500564Y-103434228D02*
X137000564Y-103041371D01*
X137000564Y-103434228D02*
X137500564Y-103041371D01*
X137071992Y-102648513D02*
X137036278Y-102719942D01*
X137036278Y-102719942D02*
X137000564Y-102755656D01*
X137000564Y-102755656D02*
X136929135Y-102791370D01*
X136929135Y-102791370D02*
X136893421Y-102791370D01*
X136893421Y-102791370D02*
X136821992Y-102755656D01*
X136821992Y-102755656D02*
X136786278Y-102719942D01*
X136786278Y-102719942D02*
X136750564Y-102648513D01*
X136750564Y-102648513D02*
X136750564Y-102505656D01*
X136750564Y-102505656D02*
X136786278Y-102434228D01*
X136786278Y-102434228D02*
X136821992Y-102398513D01*
X136821992Y-102398513D02*
X136893421Y-102362799D01*
X136893421Y-102362799D02*
X136929135Y-102362799D01*
X136929135Y-102362799D02*
X137000564Y-102398513D01*
X137000564Y-102398513D02*
X137036278Y-102434228D01*
X137036278Y-102434228D02*
X137071992Y-102505656D01*
X137071992Y-102505656D02*
X137071992Y-102648513D01*
X137071992Y-102648513D02*
X137107707Y-102719942D01*
X137107707Y-102719942D02*
X137143421Y-102755656D01*
X137143421Y-102755656D02*
X137214850Y-102791370D01*
X137214850Y-102791370D02*
X137357707Y-102791370D01*
X137357707Y-102791370D02*
X137429135Y-102755656D01*
X137429135Y-102755656D02*
X137464850Y-102719942D01*
X137464850Y-102719942D02*
X137500564Y-102648513D01*
X137500564Y-102648513D02*
X137500564Y-102505656D01*
X137500564Y-102505656D02*
X137464850Y-102434228D01*
X137464850Y-102434228D02*
X137429135Y-102398513D01*
X137429135Y-102398513D02*
X137357707Y-102362799D01*
X137357707Y-102362799D02*
X137214850Y-102362799D01*
X137214850Y-102362799D02*
X137143421Y-102398513D01*
X137143421Y-102398513D02*
X137107707Y-102434228D01*
X137107707Y-102434228D02*
X137071992Y-102505656D01*
X136714850Y-101505656D02*
X137679135Y-102148513D01*
X137500564Y-101219942D02*
X137500564Y-101077085D01*
X137500564Y-101077085D02*
X137464850Y-101005656D01*
X137464850Y-101005656D02*
X137429135Y-100969942D01*
X137429135Y-100969942D02*
X137321992Y-100898513D01*
X137321992Y-100898513D02*
X137179135Y-100862799D01*
X137179135Y-100862799D02*
X136893421Y-100862799D01*
X136893421Y-100862799D02*
X136821992Y-100898513D01*
X136821992Y-100898513D02*
X136786278Y-100934228D01*
X136786278Y-100934228D02*
X136750564Y-101005656D01*
X136750564Y-101005656D02*
X136750564Y-101148513D01*
X136750564Y-101148513D02*
X136786278Y-101219942D01*
X136786278Y-101219942D02*
X136821992Y-101255656D01*
X136821992Y-101255656D02*
X136893421Y-101291370D01*
X136893421Y-101291370D02*
X137071992Y-101291370D01*
X137071992Y-101291370D02*
X137143421Y-101255656D01*
X137143421Y-101255656D02*
X137179135Y-101219942D01*
X137179135Y-101219942D02*
X137214850Y-101148513D01*
X137214850Y-101148513D02*
X137214850Y-101005656D01*
X137214850Y-101005656D02*
X137179135Y-100934228D01*
X137179135Y-100934228D02*
X137143421Y-100898513D01*
X137143421Y-100898513D02*
X137071992Y-100862799D01*
X137286278Y-100577084D02*
X137286278Y-100219942D01*
X137500564Y-100648513D02*
X136750564Y-100398513D01*
X136750564Y-100398513D02*
X137500564Y-100148513D01*
X137286278Y-99362798D02*
X137286278Y-99005656D01*
X137500564Y-99434227D02*
X136750564Y-99184227D01*
X136750564Y-99184227D02*
X137500564Y-98934227D01*
X137500564Y-98684227D02*
X136750564Y-98684227D01*
X136750564Y-98684227D02*
X136750564Y-98505656D01*
X136750564Y-98505656D02*
X136786278Y-98398513D01*
X136786278Y-98398513D02*
X136857707Y-98327084D01*
X136857707Y-98327084D02*
X136929135Y-98291370D01*
X136929135Y-98291370D02*
X137071992Y-98255656D01*
X137071992Y-98255656D02*
X137179135Y-98255656D01*
X137179135Y-98255656D02*
X137321992Y-98291370D01*
X137321992Y-98291370D02*
X137393421Y-98327084D01*
X137393421Y-98327084D02*
X137464850Y-98398513D01*
X137464850Y-98398513D02*
X137500564Y-98505656D01*
X137500564Y-98505656D02*
X137500564Y-98684227D01*
X137286278Y-97969941D02*
X137286278Y-97612799D01*
X137500564Y-98041370D02*
X136750564Y-97791370D01*
X136750564Y-97791370D02*
X137500564Y-97541370D01*
X137500564Y-97291370D02*
X136750564Y-97291370D01*
X136750564Y-97291370D02*
X136750564Y-97005656D01*
X136750564Y-97005656D02*
X136786278Y-96934227D01*
X136786278Y-96934227D02*
X136821992Y-96898513D01*
X136821992Y-96898513D02*
X136893421Y-96862799D01*
X136893421Y-96862799D02*
X137000564Y-96862799D01*
X137000564Y-96862799D02*
X137071992Y-96898513D01*
X137071992Y-96898513D02*
X137107707Y-96934227D01*
X137107707Y-96934227D02*
X137143421Y-97005656D01*
X137143421Y-97005656D02*
X137143421Y-97291370D01*
X136750564Y-96648513D02*
X136750564Y-96219942D01*
X137500564Y-96434227D02*
X136750564Y-96434227D01*
X137107707Y-95969941D02*
X137107707Y-95719941D01*
X137500564Y-95612798D02*
X137500564Y-95969941D01*
X137500564Y-95969941D02*
X136750564Y-95969941D01*
X136750564Y-95969941D02*
X136750564Y-95612798D01*
X137500564Y-94862799D02*
X137143421Y-95112799D01*
X137500564Y-95291370D02*
X136750564Y-95291370D01*
X136750564Y-95291370D02*
X136750564Y-95005656D01*
X136750564Y-95005656D02*
X136786278Y-94934227D01*
X136786278Y-94934227D02*
X136821992Y-94898513D01*
X136821992Y-94898513D02*
X136893421Y-94862799D01*
X136893421Y-94862799D02*
X137000564Y-94862799D01*
X137000564Y-94862799D02*
X137071992Y-94898513D01*
X137071992Y-94898513D02*
X137107707Y-94934227D01*
X137107707Y-94934227D02*
X137143421Y-95005656D01*
X137143421Y-95005656D02*
X137143421Y-95291370D01*
D12*
%TO.C,U3*%
X136897000Y-49410000D02*
X136897000Y-75050000D01*
X136897000Y-75050000D02*
X147397000Y-75050000D01*
X139897000Y-49470000D02*
X139897000Y-74990000D01*
X139897000Y-74990000D02*
X144397000Y-74990000D01*
X141147000Y-49470000D02*
X139897000Y-49470000D01*
X144397000Y-49470000D02*
X143147000Y-49470000D01*
X144397000Y-74990000D02*
X144397000Y-49470000D01*
X147397000Y-49410000D02*
X136897000Y-49410000D01*
X147397000Y-75050000D02*
X147397000Y-49410000D01*
X141147000Y-49470000D02*
G75*
G03*
X143147000Y-49470000I1000000J0D01*
G01*
%TO.C,J2*%
X184855000Y-74990000D02*
X183525000Y-74990000D01*
X184855000Y-73660000D02*
X184855000Y-74990000D01*
X184855000Y-72390000D02*
X184855000Y-49470000D01*
X184855000Y-72390000D02*
X182255000Y-72390000D01*
X184855000Y-49470000D02*
X179655000Y-49470000D01*
X182255000Y-74990000D02*
X179655000Y-74990000D01*
X182255000Y-72390000D02*
X182255000Y-74990000D01*
X179655000Y-74990000D02*
X179655000Y-49470000D01*
%TO.C,J3*%
X148931100Y-51805000D02*
X148931100Y-110285000D01*
X148931100Y-51805000D02*
X151591100Y-51805000D01*
X148931100Y-110285000D02*
X151591100Y-110285000D01*
X150261100Y-49205000D02*
X151591100Y-49205000D01*
X151591100Y-49205000D02*
X151591100Y-50535000D01*
X151591100Y-51805000D02*
X151591100Y-110285000D01*
%TO.C,C2*%
X161494000Y-78321000D02*
X161494000Y-75581000D01*
X161494000Y-78321000D02*
X156254000Y-78321000D01*
X161494000Y-75581000D02*
X156254000Y-75581000D01*
X156254000Y-78321000D02*
X156254000Y-75581000D01*
%TO.C,C4*%
X181325000Y-108870000D02*
X181325000Y-106130000D01*
X181325000Y-108870000D02*
X176085000Y-108870000D01*
X181325000Y-106130000D02*
X176085000Y-106130000D01*
X176085000Y-108870000D02*
X176085000Y-106130000D01*
%TO.C,C1*%
X142120000Y-78205000D02*
X142120000Y-75465000D01*
X142120000Y-78205000D02*
X136880000Y-78205000D01*
X142120000Y-75465000D02*
X136880000Y-75465000D01*
X136880000Y-78205000D02*
X136880000Y-75465000D01*
%TO.C,U4*%
X178985000Y-95120000D02*
X178985000Y-105400000D01*
X178985000Y-105400000D02*
X183485000Y-105400000D01*
X180235000Y-95120000D02*
X178985000Y-95120000D01*
X183485000Y-95120000D02*
X182235000Y-95120000D01*
X183485000Y-105400000D02*
X183485000Y-95120000D01*
X180235000Y-95120000D02*
G75*
G03*
X182235000Y-95120000I1000000J0D01*
G01*
%TO.C,C3*%
X166701000Y-83528000D02*
X166701000Y-80788000D01*
X166701000Y-83528000D02*
X161461000Y-83528000D01*
X166701000Y-80788000D02*
X161461000Y-80788000D01*
X161461000Y-83528000D02*
X161461000Y-80788000D01*
%TO.C,J7*%
X179630000Y-82840000D02*
X180960000Y-82840000D01*
X179630000Y-84170000D02*
X179630000Y-82840000D01*
X179630000Y-85440000D02*
X179630000Y-93120000D01*
X179630000Y-85440000D02*
X182230000Y-85440000D01*
X179630000Y-93120000D02*
X184830000Y-93120000D01*
X182230000Y-82840000D02*
X184830000Y-82840000D01*
X182230000Y-85440000D02*
X182230000Y-82840000D01*
X184830000Y-82840000D02*
X184830000Y-93120000D01*
%TO.C,J4*%
X171748000Y-51805000D02*
X171748000Y-110285000D01*
X171748000Y-51805000D02*
X174408000Y-51805000D01*
X171748000Y-110285000D02*
X174408000Y-110285000D01*
X173078000Y-49205000D02*
X174408000Y-49205000D01*
X174408000Y-49205000D02*
X174408000Y-50535000D01*
X174408000Y-51805000D02*
X174408000Y-110285000D01*
%TO.C,U2*%
X156230200Y-49556400D02*
X156230200Y-75196400D01*
X156230200Y-75196400D02*
X166730200Y-75196400D01*
X159230200Y-49616400D02*
X159230200Y-75136400D01*
X159230200Y-75136400D02*
X163730200Y-75136400D01*
X160480200Y-49616400D02*
X159230200Y-49616400D01*
X163730200Y-49616400D02*
X162480200Y-49616400D01*
X163730200Y-75136400D02*
X163730200Y-49616400D01*
X166730200Y-49556400D02*
X156230200Y-49556400D01*
X166730200Y-75196400D02*
X166730200Y-49556400D01*
X160480200Y-49616400D02*
G75*
G03*
X162480200Y-49616400I1000000J0D01*
G01*
%TO.C,U1*%
X156271000Y-83943000D02*
X156271000Y-109583000D01*
X156271000Y-109583000D02*
X166771000Y-109583000D01*
X159271000Y-84003000D02*
X159271000Y-109523000D01*
X159271000Y-109523000D02*
X163771000Y-109523000D01*
X160521000Y-84003000D02*
X159271000Y-84003000D01*
X163771000Y-84003000D02*
X162521000Y-84003000D01*
X163771000Y-109523000D02*
X163771000Y-84003000D01*
X166771000Y-83943000D02*
X156271000Y-83943000D01*
X166771000Y-109583000D02*
X166771000Y-83943000D01*
X160521000Y-84003000D02*
G75*
G03*
X162521000Y-84003000I1000000J0D01*
G01*
%TO.C,J1*%
X138130000Y-82210000D02*
X139460000Y-82210000D01*
X138130000Y-83540000D02*
X138130000Y-82210000D01*
X138130000Y-84810000D02*
X138130000Y-107730000D01*
X138130000Y-84810000D02*
X140730000Y-84810000D01*
X138130000Y-107730000D02*
X143330000Y-107730000D01*
X140730000Y-82210000D02*
X143330000Y-82210000D01*
X140730000Y-84810000D02*
X140730000Y-82210000D01*
X143330000Y-82210000D02*
X143330000Y-107730000D01*
%TD*%
M02*
