%TF.GenerationSoftware,KiCad,Pcbnew,7.0.1*%
%TF.CreationDate,2023-06-01T10:42:50-07:00*%
%TF.ProjectId,tn_vdp_v2_board,746e5f76-6470-45f7-9632-5f626f617264,rev?*%
%TF.SameCoordinates,Original*%
%TF.FileFunction,Drillmap*%
%TF.FilePolarity,Positive*%
%FSLAX45Y45*%
G04 Gerber Fmt 4.5, Leading zero omitted, Abs format (unit mm)*
G04 Created by KiCad (PCBNEW 7.0.1) date 2023-06-01 10:42:50*
%MOMM*%
%LPD*%
G01*
G04 APERTURE LIST*
%ADD10C,0.100000*%
%ADD11C,0.200000*%
%ADD12C,0.040000*%
%ADD13C,0.080000*%
%ADD14C,0.220000*%
G04 APERTURE END LIST*
D10*
X18753200Y-11277600D02*
X13563600Y-11277600D01*
X13563600Y-4495800D02*
X18753200Y-4495800D01*
X18753200Y-4495800D02*
X18753200Y-11277600D01*
X13563600Y-11277600D02*
X13563600Y-4495800D01*
D11*
D12*
X14178170Y-6696520D02*
X14218170Y-6736520D01*
X14218170Y-6696520D02*
X14178170Y-6736520D01*
X14230790Y-6210890D02*
X14270790Y-6250890D01*
X14270790Y-6210890D02*
X14230790Y-6250890D01*
X14768260Y-9194720D02*
X14808260Y-9234720D01*
X14808260Y-9194720D02*
X14768260Y-9234720D01*
X14815570Y-9290400D02*
X14855570Y-9330400D01*
X14855570Y-9290400D02*
X14815570Y-9330400D01*
X15264290Y-8323400D02*
X15304290Y-8363400D01*
X15304290Y-8323400D02*
X15264290Y-8363400D01*
X16066470Y-5676210D02*
X16106470Y-5716210D01*
X16106470Y-5676210D02*
X16066470Y-5716210D01*
X16072300Y-8559280D02*
X16112300Y-8599280D01*
X16112300Y-8559280D02*
X16072300Y-8599280D01*
X16189080Y-8999560D02*
X16229080Y-9039560D01*
X16229080Y-8999560D02*
X16189080Y-9039560D01*
X16258030Y-5884560D02*
X16298030Y-5924560D01*
X16298030Y-5884560D02*
X16258030Y-5924560D01*
X16313280Y-5678660D02*
X16353280Y-5718660D01*
X16353280Y-5678660D02*
X16313280Y-5718660D01*
X16758030Y-7686780D02*
X16798030Y-7726780D01*
X16798030Y-7686780D02*
X16758030Y-7726780D01*
X16840620Y-7439230D02*
X16880620Y-7479230D01*
X16880620Y-7439230D02*
X16840620Y-7479230D01*
X17466290Y-8490330D02*
X17506290Y-8530330D01*
X17506290Y-8490330D02*
X17466290Y-8530330D01*
D13*
X13865000Y-7683500D02*
G75*
G03*
X13865000Y-7683500I-40000J0D01*
G01*
X13873700Y-5080000D02*
G75*
G03*
X13873700Y-5080000I-40000J0D01*
G01*
X13873700Y-5334000D02*
G75*
G03*
X13873700Y-5334000I-40000J0D01*
G01*
X13873700Y-5588000D02*
G75*
G03*
X13873700Y-5588000I-40000J0D01*
G01*
X13873700Y-5842000D02*
G75*
G03*
X13873700Y-5842000I-40000J0D01*
G01*
X13873700Y-6096000D02*
G75*
G03*
X13873700Y-6096000I-40000J0D01*
G01*
X13873700Y-6350000D02*
G75*
G03*
X13873700Y-6350000I-40000J0D01*
G01*
X13873700Y-6604000D02*
G75*
G03*
X13873700Y-6604000I-40000J0D01*
G01*
X13873700Y-6858000D02*
G75*
G03*
X13873700Y-6858000I-40000J0D01*
G01*
X13873700Y-7112000D02*
G75*
G03*
X13873700Y-7112000I-40000J0D01*
G01*
X13873700Y-7366000D02*
G75*
G03*
X13873700Y-7366000I-40000J0D01*
G01*
X14115000Y-7683500D02*
G75*
G03*
X14115000Y-7683500I-40000J0D01*
G01*
X14635700Y-5080000D02*
G75*
G03*
X14635700Y-5080000I-40000J0D01*
G01*
X14635700Y-5334000D02*
G75*
G03*
X14635700Y-5334000I-40000J0D01*
G01*
X14635700Y-5588000D02*
G75*
G03*
X14635700Y-5588000I-40000J0D01*
G01*
X14635700Y-5842000D02*
G75*
G03*
X14635700Y-5842000I-40000J0D01*
G01*
X14635700Y-6096000D02*
G75*
G03*
X14635700Y-6096000I-40000J0D01*
G01*
X14635700Y-6350000D02*
G75*
G03*
X14635700Y-6350000I-40000J0D01*
G01*
X14635700Y-6604000D02*
G75*
G03*
X14635700Y-6604000I-40000J0D01*
G01*
X14635700Y-6858000D02*
G75*
G03*
X14635700Y-6858000I-40000J0D01*
G01*
X14635700Y-7112000D02*
G75*
G03*
X14635700Y-7112000I-40000J0D01*
G01*
X14635700Y-7366000D02*
G75*
G03*
X14635700Y-7366000I-40000J0D01*
G01*
X15802400Y-7695100D02*
G75*
G03*
X15802400Y-7695100I-40000J0D01*
G01*
X15807020Y-5094640D02*
G75*
G03*
X15807020Y-5094640I-40000J0D01*
G01*
X15807020Y-5348640D02*
G75*
G03*
X15807020Y-5348640I-40000J0D01*
G01*
X15807020Y-5602640D02*
G75*
G03*
X15807020Y-5602640I-40000J0D01*
G01*
X15807020Y-5856640D02*
G75*
G03*
X15807020Y-5856640I-40000J0D01*
G01*
X15807020Y-6110640D02*
G75*
G03*
X15807020Y-6110640I-40000J0D01*
G01*
X15807020Y-6364640D02*
G75*
G03*
X15807020Y-6364640I-40000J0D01*
G01*
X15807020Y-6618640D02*
G75*
G03*
X15807020Y-6618640I-40000J0D01*
G01*
X15807020Y-6872640D02*
G75*
G03*
X15807020Y-6872640I-40000J0D01*
G01*
X15807020Y-7126640D02*
G75*
G03*
X15807020Y-7126640I-40000J0D01*
G01*
X15807020Y-7380640D02*
G75*
G03*
X15807020Y-7380640I-40000J0D01*
G01*
X15811100Y-8533300D02*
G75*
G03*
X15811100Y-8533300I-40000J0D01*
G01*
X15811100Y-8787300D02*
G75*
G03*
X15811100Y-8787300I-40000J0D01*
G01*
X15811100Y-9041300D02*
G75*
G03*
X15811100Y-9041300I-40000J0D01*
G01*
X15811100Y-9295300D02*
G75*
G03*
X15811100Y-9295300I-40000J0D01*
G01*
X15811100Y-9549300D02*
G75*
G03*
X15811100Y-9549300I-40000J0D01*
G01*
X15811100Y-9803300D02*
G75*
G03*
X15811100Y-9803300I-40000J0D01*
G01*
X15811100Y-10057300D02*
G75*
G03*
X15811100Y-10057300I-40000J0D01*
G01*
X15811100Y-10311300D02*
G75*
G03*
X15811100Y-10311300I-40000J0D01*
G01*
X15811100Y-10565300D02*
G75*
G03*
X15811100Y-10565300I-40000J0D01*
G01*
X15811100Y-10819300D02*
G75*
G03*
X15811100Y-10819300I-40000J0D01*
G01*
X16052400Y-7695100D02*
G75*
G03*
X16052400Y-7695100I-40000J0D01*
G01*
X16323100Y-8215800D02*
G75*
G03*
X16323100Y-8215800I-40000J0D01*
G01*
X16569020Y-5094640D02*
G75*
G03*
X16569020Y-5094640I-40000J0D01*
G01*
X16569020Y-5348640D02*
G75*
G03*
X16569020Y-5348640I-40000J0D01*
G01*
X16569020Y-5602640D02*
G75*
G03*
X16569020Y-5602640I-40000J0D01*
G01*
X16569020Y-5856640D02*
G75*
G03*
X16569020Y-5856640I-40000J0D01*
G01*
X16569020Y-6110640D02*
G75*
G03*
X16569020Y-6110640I-40000J0D01*
G01*
X16569020Y-6364640D02*
G75*
G03*
X16569020Y-6364640I-40000J0D01*
G01*
X16569020Y-6618640D02*
G75*
G03*
X16569020Y-6618640I-40000J0D01*
G01*
X16569020Y-6872640D02*
G75*
G03*
X16569020Y-6872640I-40000J0D01*
G01*
X16569020Y-7126640D02*
G75*
G03*
X16569020Y-7126640I-40000J0D01*
G01*
X16569020Y-7380640D02*
G75*
G03*
X16569020Y-7380640I-40000J0D01*
G01*
X16573100Y-8215800D02*
G75*
G03*
X16573100Y-8215800I-40000J0D01*
G01*
X16573100Y-8533300D02*
G75*
G03*
X16573100Y-8533300I-40000J0D01*
G01*
X16573100Y-8787300D02*
G75*
G03*
X16573100Y-8787300I-40000J0D01*
G01*
X16573100Y-9041300D02*
G75*
G03*
X16573100Y-9041300I-40000J0D01*
G01*
X16573100Y-9295300D02*
G75*
G03*
X16573100Y-9295300I-40000J0D01*
G01*
X16573100Y-9549300D02*
G75*
G03*
X16573100Y-9549300I-40000J0D01*
G01*
X16573100Y-9803300D02*
G75*
G03*
X16573100Y-9803300I-40000J0D01*
G01*
X16573100Y-10057300D02*
G75*
G03*
X16573100Y-10057300I-40000J0D01*
G01*
X16573100Y-10311300D02*
G75*
G03*
X16573100Y-10311300I-40000J0D01*
G01*
X16573100Y-10565300D02*
G75*
G03*
X16573100Y-10565300I-40000J0D01*
G01*
X16573100Y-10819300D02*
G75*
G03*
X16573100Y-10819300I-40000J0D01*
G01*
X17782500Y-9645000D02*
G75*
G03*
X17782500Y-9645000I-40000J0D01*
G01*
X17782500Y-9899000D02*
G75*
G03*
X17782500Y-9899000I-40000J0D01*
G01*
X17782500Y-10153000D02*
G75*
G03*
X17782500Y-10153000I-40000J0D01*
G01*
X17782500Y-10407000D02*
G75*
G03*
X17782500Y-10407000I-40000J0D01*
G01*
X17785500Y-10750000D02*
G75*
G03*
X17785500Y-10750000I-40000J0D01*
G01*
X18035500Y-10750000D02*
G75*
G03*
X18035500Y-10750000I-40000J0D01*
G01*
X18544500Y-9645000D02*
G75*
G03*
X18544500Y-9645000I-40000J0D01*
G01*
X18544500Y-9899000D02*
G75*
G03*
X18544500Y-9899000I-40000J0D01*
G01*
X18544500Y-10153000D02*
G75*
G03*
X18544500Y-10153000I-40000J0D01*
G01*
X18544500Y-10407000D02*
G75*
G03*
X18544500Y-10407000I-40000J0D01*
G01*
D10*
X13946000Y-8304000D02*
X13946000Y-8404000D01*
X13896000Y-8354000D02*
X13996000Y-8354000D01*
X13946000Y-8558000D02*
X13946000Y-8658000D01*
X13896000Y-8608000D02*
X13996000Y-8608000D01*
X13946000Y-8812000D02*
X13946000Y-8912000D01*
X13896000Y-8862000D02*
X13996000Y-8862000D01*
X13946000Y-9066000D02*
X13946000Y-9166000D01*
X13896000Y-9116000D02*
X13996000Y-9116000D01*
X13946000Y-9320000D02*
X13946000Y-9420000D01*
X13896000Y-9370000D02*
X13996000Y-9370000D01*
X13946000Y-9574000D02*
X13946000Y-9674000D01*
X13896000Y-9624000D02*
X13996000Y-9624000D01*
X13946000Y-9828000D02*
X13946000Y-9928000D01*
X13896000Y-9878000D02*
X13996000Y-9878000D01*
X13946000Y-10082000D02*
X13946000Y-10182000D01*
X13896000Y-10132000D02*
X13996000Y-10132000D01*
X13946000Y-10336000D02*
X13946000Y-10436000D01*
X13896000Y-10386000D02*
X13996000Y-10386000D01*
X13946000Y-10590000D02*
X13946000Y-10690000D01*
X13896000Y-10640000D02*
X13996000Y-10640000D01*
X14200000Y-8304000D02*
X14200000Y-8404000D01*
X14150000Y-8354000D02*
X14250000Y-8354000D01*
X14200000Y-8558000D02*
X14200000Y-8658000D01*
X14150000Y-8608000D02*
X14250000Y-8608000D01*
X14200000Y-8812000D02*
X14200000Y-8912000D01*
X14150000Y-8862000D02*
X14250000Y-8862000D01*
X14200000Y-9066000D02*
X14200000Y-9166000D01*
X14150000Y-9116000D02*
X14250000Y-9116000D01*
X14200000Y-9320000D02*
X14200000Y-9420000D01*
X14150000Y-9370000D02*
X14250000Y-9370000D01*
X14200000Y-9574000D02*
X14200000Y-9674000D01*
X14150000Y-9624000D02*
X14250000Y-9624000D01*
X14200000Y-9828000D02*
X14200000Y-9928000D01*
X14150000Y-9878000D02*
X14250000Y-9878000D01*
X14200000Y-10082000D02*
X14200000Y-10182000D01*
X14150000Y-10132000D02*
X14250000Y-10132000D01*
X14200000Y-10336000D02*
X14200000Y-10436000D01*
X14150000Y-10386000D02*
X14250000Y-10386000D01*
X14200000Y-10590000D02*
X14200000Y-10690000D01*
X14150000Y-10640000D02*
X14250000Y-10640000D01*
X15026110Y-5003500D02*
X15026110Y-5103500D01*
X14976110Y-5053500D02*
X15076110Y-5053500D01*
X15026110Y-5257500D02*
X15026110Y-5357500D01*
X14976110Y-5307500D02*
X15076110Y-5307500D01*
X15026110Y-5511500D02*
X15026110Y-5611500D01*
X14976110Y-5561500D02*
X15076110Y-5561500D01*
X15026110Y-5765500D02*
X15026110Y-5865500D01*
X14976110Y-5815500D02*
X15076110Y-5815500D01*
X15026110Y-6019500D02*
X15026110Y-6119500D01*
X14976110Y-6069500D02*
X15076110Y-6069500D01*
X15026110Y-6273500D02*
X15026110Y-6373500D01*
X14976110Y-6323500D02*
X15076110Y-6323500D01*
X15026110Y-6527500D02*
X15026110Y-6627500D01*
X14976110Y-6577500D02*
X15076110Y-6577500D01*
X15026110Y-6781500D02*
X15026110Y-6881500D01*
X14976110Y-6831500D02*
X15076110Y-6831500D01*
X15026110Y-7035500D02*
X15026110Y-7135500D01*
X14976110Y-7085500D02*
X15076110Y-7085500D01*
X15026110Y-7289500D02*
X15026110Y-7389500D01*
X14976110Y-7339500D02*
X15076110Y-7339500D01*
X15026110Y-7543500D02*
X15026110Y-7643500D01*
X14976110Y-7593500D02*
X15076110Y-7593500D01*
X15026110Y-7797500D02*
X15026110Y-7897500D01*
X14976110Y-7847500D02*
X15076110Y-7847500D01*
X15026110Y-8051500D02*
X15026110Y-8151500D01*
X14976110Y-8101500D02*
X15076110Y-8101500D01*
X15026110Y-8305500D02*
X15026110Y-8405500D01*
X14976110Y-8355500D02*
X15076110Y-8355500D01*
X15026110Y-8559500D02*
X15026110Y-8659500D01*
X14976110Y-8609500D02*
X15076110Y-8609500D01*
X15026110Y-8813500D02*
X15026110Y-8913500D01*
X14976110Y-8863500D02*
X15076110Y-8863500D01*
X15026110Y-9067500D02*
X15026110Y-9167500D01*
X14976110Y-9117500D02*
X15076110Y-9117500D01*
X15026110Y-9321500D02*
X15026110Y-9421500D01*
X14976110Y-9371500D02*
X15076110Y-9371500D01*
X15026110Y-9575500D02*
X15026110Y-9675500D01*
X14976110Y-9625500D02*
X15076110Y-9625500D01*
X15026110Y-9829500D02*
X15026110Y-9929500D01*
X14976110Y-9879500D02*
X15076110Y-9879500D01*
X15026110Y-10083500D02*
X15026110Y-10183500D01*
X14976110Y-10133500D02*
X15076110Y-10133500D01*
X15026110Y-10337500D02*
X15026110Y-10437500D01*
X14976110Y-10387500D02*
X15076110Y-10387500D01*
X15026110Y-10591500D02*
X15026110Y-10691500D01*
X14976110Y-10641500D02*
X15076110Y-10641500D01*
X15026110Y-10845500D02*
X15026110Y-10945500D01*
X14976110Y-10895500D02*
X15076110Y-10895500D01*
X17307800Y-5003500D02*
X17307800Y-5103500D01*
X17257800Y-5053500D02*
X17357800Y-5053500D01*
X17307800Y-5257500D02*
X17307800Y-5357500D01*
X17257800Y-5307500D02*
X17357800Y-5307500D01*
X17307800Y-5511500D02*
X17307800Y-5611500D01*
X17257800Y-5561500D02*
X17357800Y-5561500D01*
X17307800Y-5765500D02*
X17307800Y-5865500D01*
X17257800Y-5815500D02*
X17357800Y-5815500D01*
X17307800Y-6019500D02*
X17307800Y-6119500D01*
X17257800Y-6069500D02*
X17357800Y-6069500D01*
X17307800Y-6273500D02*
X17307800Y-6373500D01*
X17257800Y-6323500D02*
X17357800Y-6323500D01*
X17307800Y-6527500D02*
X17307800Y-6627500D01*
X17257800Y-6577500D02*
X17357800Y-6577500D01*
X17307800Y-6781500D02*
X17307800Y-6881500D01*
X17257800Y-6831500D02*
X17357800Y-6831500D01*
X17307800Y-7035500D02*
X17307800Y-7135500D01*
X17257800Y-7085500D02*
X17357800Y-7085500D01*
X17307800Y-7289500D02*
X17307800Y-7389500D01*
X17257800Y-7339500D02*
X17357800Y-7339500D01*
X17307800Y-7543500D02*
X17307800Y-7643500D01*
X17257800Y-7593500D02*
X17357800Y-7593500D01*
X17307800Y-7797500D02*
X17307800Y-7897500D01*
X17257800Y-7847500D02*
X17357800Y-7847500D01*
X17307800Y-8051500D02*
X17307800Y-8151500D01*
X17257800Y-8101500D02*
X17357800Y-8101500D01*
X17307800Y-8305500D02*
X17307800Y-8405500D01*
X17257800Y-8355500D02*
X17357800Y-8355500D01*
X17307800Y-8559500D02*
X17307800Y-8659500D01*
X17257800Y-8609500D02*
X17357800Y-8609500D01*
X17307800Y-8813500D02*
X17307800Y-8913500D01*
X17257800Y-8863500D02*
X17357800Y-8863500D01*
X17307800Y-9067500D02*
X17307800Y-9167500D01*
X17257800Y-9117500D02*
X17357800Y-9117500D01*
X17307800Y-9321500D02*
X17307800Y-9421500D01*
X17257800Y-9371500D02*
X17357800Y-9371500D01*
X17307800Y-9575500D02*
X17307800Y-9675500D01*
X17257800Y-9625500D02*
X17357800Y-9625500D01*
X17307800Y-9829500D02*
X17307800Y-9929500D01*
X17257800Y-9879500D02*
X17357800Y-9879500D01*
X17307800Y-10083500D02*
X17307800Y-10183500D01*
X17257800Y-10133500D02*
X17357800Y-10133500D01*
X17307800Y-10337500D02*
X17307800Y-10437500D01*
X17257800Y-10387500D02*
X17357800Y-10387500D01*
X17307800Y-10591500D02*
X17307800Y-10691500D01*
X17257800Y-10641500D02*
X17357800Y-10641500D01*
X17307800Y-10845500D02*
X17307800Y-10945500D01*
X17257800Y-10895500D02*
X17357800Y-10895500D01*
X18096000Y-8367000D02*
X18096000Y-8467000D01*
X18046000Y-8417000D02*
X18146000Y-8417000D01*
X18096000Y-8621000D02*
X18096000Y-8721000D01*
X18046000Y-8671000D02*
X18146000Y-8671000D01*
X18096000Y-8875000D02*
X18096000Y-8975000D01*
X18046000Y-8925000D02*
X18146000Y-8925000D01*
X18096000Y-9129000D02*
X18096000Y-9229000D01*
X18046000Y-9179000D02*
X18146000Y-9179000D01*
X18098500Y-5030000D02*
X18098500Y-5130000D01*
X18048500Y-5080000D02*
X18148500Y-5080000D01*
X18098500Y-5284000D02*
X18098500Y-5384000D01*
X18048500Y-5334000D02*
X18148500Y-5334000D01*
X18098500Y-5538000D02*
X18098500Y-5638000D01*
X18048500Y-5588000D02*
X18148500Y-5588000D01*
X18098500Y-5792000D02*
X18098500Y-5892000D01*
X18048500Y-5842000D02*
X18148500Y-5842000D01*
X18098500Y-6046000D02*
X18098500Y-6146000D01*
X18048500Y-6096000D02*
X18148500Y-6096000D01*
X18098500Y-6300000D02*
X18098500Y-6400000D01*
X18048500Y-6350000D02*
X18148500Y-6350000D01*
X18098500Y-6554000D02*
X18098500Y-6654000D01*
X18048500Y-6604000D02*
X18148500Y-6604000D01*
X18098500Y-6808000D02*
X18098500Y-6908000D01*
X18048500Y-6858000D02*
X18148500Y-6858000D01*
X18098500Y-7062000D02*
X18098500Y-7162000D01*
X18048500Y-7112000D02*
X18148500Y-7112000D01*
X18098500Y-7316000D02*
X18098500Y-7416000D01*
X18048500Y-7366000D02*
X18148500Y-7366000D01*
X18350000Y-8367000D02*
X18350000Y-8467000D01*
X18300000Y-8417000D02*
X18400000Y-8417000D01*
X18350000Y-8621000D02*
X18350000Y-8721000D01*
X18300000Y-8671000D02*
X18400000Y-8671000D01*
X18350000Y-8875000D02*
X18350000Y-8975000D01*
X18300000Y-8925000D02*
X18400000Y-8925000D01*
X18350000Y-9129000D02*
X18350000Y-9229000D01*
X18300000Y-9179000D02*
X18400000Y-9179000D01*
X18352500Y-5030000D02*
X18352500Y-5130000D01*
X18302500Y-5080000D02*
X18402500Y-5080000D01*
X18352500Y-5284000D02*
X18352500Y-5384000D01*
X18302500Y-5334000D02*
X18402500Y-5334000D01*
X18352500Y-5538000D02*
X18352500Y-5638000D01*
X18302500Y-5588000D02*
X18402500Y-5588000D01*
X18352500Y-5792000D02*
X18352500Y-5892000D01*
X18302500Y-5842000D02*
X18402500Y-5842000D01*
X18352500Y-6046000D02*
X18352500Y-6146000D01*
X18302500Y-6096000D02*
X18402500Y-6096000D01*
X18352500Y-6300000D02*
X18352500Y-6400000D01*
X18302500Y-6350000D02*
X18402500Y-6350000D01*
X18352500Y-6554000D02*
X18352500Y-6654000D01*
X18302500Y-6604000D02*
X18402500Y-6604000D01*
X18352500Y-6808000D02*
X18352500Y-6908000D01*
X18302500Y-6858000D02*
X18402500Y-6858000D01*
X18352500Y-7062000D02*
X18352500Y-7162000D01*
X18302500Y-7112000D02*
X18402500Y-7112000D01*
X18352500Y-7316000D02*
X18352500Y-7416000D01*
X18302500Y-7366000D02*
X18402500Y-7366000D01*
D14*
X13844582Y-4776783D02*
X13844582Y-4621218D01*
X13689017Y-4621218D01*
X13689017Y-4776783D01*
X13844582Y-4776783D01*
X13844582Y-11152183D02*
X13844582Y-10996618D01*
X13689017Y-10996618D01*
X13689017Y-11152183D01*
X13844582Y-11152183D01*
X18627783Y-4776783D02*
X18627783Y-4621218D01*
X18472218Y-4621218D01*
X18472218Y-4776783D01*
X18627783Y-4776783D01*
X18627783Y-11152183D02*
X18627783Y-10996618D01*
X18472218Y-10996618D01*
X18472218Y-11152183D01*
X18627783Y-11152183D01*
D11*
X13806219Y-11595124D02*
X13806219Y-11395124D01*
X13806219Y-11395124D02*
X13853838Y-11395124D01*
X13853838Y-11395124D02*
X13882409Y-11404648D01*
X13882409Y-11404648D02*
X13901457Y-11423695D01*
X13901457Y-11423695D02*
X13910981Y-11442743D01*
X13910981Y-11442743D02*
X13920505Y-11480838D01*
X13920505Y-11480838D02*
X13920505Y-11509409D01*
X13920505Y-11509409D02*
X13910981Y-11547505D01*
X13910981Y-11547505D02*
X13901457Y-11566552D01*
X13901457Y-11566552D02*
X13882409Y-11585600D01*
X13882409Y-11585600D02*
X13853838Y-11595124D01*
X13853838Y-11595124D02*
X13806219Y-11595124D01*
X14006219Y-11595124D02*
X14006219Y-11461790D01*
X14006219Y-11499886D02*
X14015743Y-11480838D01*
X14015743Y-11480838D02*
X14025267Y-11471314D01*
X14025267Y-11471314D02*
X14044314Y-11461790D01*
X14044314Y-11461790D02*
X14063362Y-11461790D01*
X14130028Y-11595124D02*
X14130028Y-11461790D01*
X14130028Y-11395124D02*
X14120505Y-11404648D01*
X14120505Y-11404648D02*
X14130028Y-11414171D01*
X14130028Y-11414171D02*
X14139552Y-11404648D01*
X14139552Y-11404648D02*
X14130028Y-11395124D01*
X14130028Y-11395124D02*
X14130028Y-11414171D01*
X14253838Y-11595124D02*
X14234790Y-11585600D01*
X14234790Y-11585600D02*
X14225267Y-11566552D01*
X14225267Y-11566552D02*
X14225267Y-11395124D01*
X14358600Y-11595124D02*
X14339552Y-11585600D01*
X14339552Y-11585600D02*
X14330028Y-11566552D01*
X14330028Y-11566552D02*
X14330028Y-11395124D01*
X14587171Y-11595124D02*
X14587171Y-11395124D01*
X14587171Y-11395124D02*
X14653838Y-11537981D01*
X14653838Y-11537981D02*
X14720505Y-11395124D01*
X14720505Y-11395124D02*
X14720505Y-11595124D01*
X14901457Y-11595124D02*
X14901457Y-11490362D01*
X14901457Y-11490362D02*
X14891933Y-11471314D01*
X14891933Y-11471314D02*
X14872886Y-11461790D01*
X14872886Y-11461790D02*
X14834790Y-11461790D01*
X14834790Y-11461790D02*
X14815743Y-11471314D01*
X14901457Y-11585600D02*
X14882409Y-11595124D01*
X14882409Y-11595124D02*
X14834790Y-11595124D01*
X14834790Y-11595124D02*
X14815743Y-11585600D01*
X14815743Y-11585600D02*
X14806219Y-11566552D01*
X14806219Y-11566552D02*
X14806219Y-11547505D01*
X14806219Y-11547505D02*
X14815743Y-11528457D01*
X14815743Y-11528457D02*
X14834790Y-11518933D01*
X14834790Y-11518933D02*
X14882409Y-11518933D01*
X14882409Y-11518933D02*
X14901457Y-11509409D01*
X14996695Y-11461790D02*
X14996695Y-11661790D01*
X14996695Y-11471314D02*
X15015743Y-11461790D01*
X15015743Y-11461790D02*
X15053838Y-11461790D01*
X15053838Y-11461790D02*
X15072886Y-11471314D01*
X15072886Y-11471314D02*
X15082409Y-11480838D01*
X15082409Y-11480838D02*
X15091933Y-11499886D01*
X15091933Y-11499886D02*
X15091933Y-11557028D01*
X15091933Y-11557028D02*
X15082409Y-11576076D01*
X15082409Y-11576076D02*
X15072886Y-11585600D01*
X15072886Y-11585600D02*
X15053838Y-11595124D01*
X15053838Y-11595124D02*
X15015743Y-11595124D01*
X15015743Y-11595124D02*
X14996695Y-11585600D01*
X15177648Y-11576076D02*
X15187171Y-11585600D01*
X15187171Y-11585600D02*
X15177648Y-11595124D01*
X15177648Y-11595124D02*
X15168124Y-11585600D01*
X15168124Y-11585600D02*
X15177648Y-11576076D01*
X15177648Y-11576076D02*
X15177648Y-11595124D01*
X15177648Y-11471314D02*
X15187171Y-11480838D01*
X15187171Y-11480838D02*
X15177648Y-11490362D01*
X15177648Y-11490362D02*
X15168124Y-11480838D01*
X15168124Y-11480838D02*
X15177648Y-11471314D01*
X15177648Y-11471314D02*
X15177648Y-11490362D01*
D12*
X13518600Y-11902600D02*
X13558600Y-11942600D01*
X13558600Y-11902600D02*
X13518600Y-11942600D01*
D11*
X13844314Y-11815124D02*
X13863362Y-11815124D01*
X13863362Y-11815124D02*
X13882409Y-11824648D01*
X13882409Y-11824648D02*
X13891933Y-11834171D01*
X13891933Y-11834171D02*
X13901457Y-11853219D01*
X13901457Y-11853219D02*
X13910981Y-11891314D01*
X13910981Y-11891314D02*
X13910981Y-11938933D01*
X13910981Y-11938933D02*
X13901457Y-11977028D01*
X13901457Y-11977028D02*
X13891933Y-11996076D01*
X13891933Y-11996076D02*
X13882409Y-12005600D01*
X13882409Y-12005600D02*
X13863362Y-12015124D01*
X13863362Y-12015124D02*
X13844314Y-12015124D01*
X13844314Y-12015124D02*
X13825267Y-12005600D01*
X13825267Y-12005600D02*
X13815743Y-11996076D01*
X13815743Y-11996076D02*
X13806219Y-11977028D01*
X13806219Y-11977028D02*
X13796695Y-11938933D01*
X13796695Y-11938933D02*
X13796695Y-11891314D01*
X13796695Y-11891314D02*
X13806219Y-11853219D01*
X13806219Y-11853219D02*
X13815743Y-11834171D01*
X13815743Y-11834171D02*
X13825267Y-11824648D01*
X13825267Y-11824648D02*
X13844314Y-11815124D01*
X13996695Y-11996076D02*
X14006219Y-12005600D01*
X14006219Y-12005600D02*
X13996695Y-12015124D01*
X13996695Y-12015124D02*
X13987171Y-12005600D01*
X13987171Y-12005600D02*
X13996695Y-11996076D01*
X13996695Y-11996076D02*
X13996695Y-12015124D01*
X14177648Y-11881790D02*
X14177648Y-12015124D01*
X14130028Y-11805600D02*
X14082409Y-11948457D01*
X14082409Y-11948457D02*
X14206219Y-11948457D01*
X14320505Y-11815124D02*
X14339552Y-11815124D01*
X14339552Y-11815124D02*
X14358600Y-11824648D01*
X14358600Y-11824648D02*
X14368124Y-11834171D01*
X14368124Y-11834171D02*
X14377648Y-11853219D01*
X14377648Y-11853219D02*
X14387171Y-11891314D01*
X14387171Y-11891314D02*
X14387171Y-11938933D01*
X14387171Y-11938933D02*
X14377648Y-11977028D01*
X14377648Y-11977028D02*
X14368124Y-11996076D01*
X14368124Y-11996076D02*
X14358600Y-12005600D01*
X14358600Y-12005600D02*
X14339552Y-12015124D01*
X14339552Y-12015124D02*
X14320505Y-12015124D01*
X14320505Y-12015124D02*
X14301457Y-12005600D01*
X14301457Y-12005600D02*
X14291933Y-11996076D01*
X14291933Y-11996076D02*
X14282409Y-11977028D01*
X14282409Y-11977028D02*
X14272886Y-11938933D01*
X14272886Y-11938933D02*
X14272886Y-11891314D01*
X14272886Y-11891314D02*
X14282409Y-11853219D01*
X14282409Y-11853219D02*
X14291933Y-11834171D01*
X14291933Y-11834171D02*
X14301457Y-11824648D01*
X14301457Y-11824648D02*
X14320505Y-11815124D01*
X14510981Y-11815124D02*
X14530029Y-11815124D01*
X14530029Y-11815124D02*
X14549076Y-11824648D01*
X14549076Y-11824648D02*
X14558600Y-11834171D01*
X14558600Y-11834171D02*
X14568124Y-11853219D01*
X14568124Y-11853219D02*
X14577648Y-11891314D01*
X14577648Y-11891314D02*
X14577648Y-11938933D01*
X14577648Y-11938933D02*
X14568124Y-11977028D01*
X14568124Y-11977028D02*
X14558600Y-11996076D01*
X14558600Y-11996076D02*
X14549076Y-12005600D01*
X14549076Y-12005600D02*
X14530029Y-12015124D01*
X14530029Y-12015124D02*
X14510981Y-12015124D01*
X14510981Y-12015124D02*
X14491933Y-12005600D01*
X14491933Y-12005600D02*
X14482409Y-11996076D01*
X14482409Y-11996076D02*
X14472886Y-11977028D01*
X14472886Y-11977028D02*
X14463362Y-11938933D01*
X14463362Y-11938933D02*
X14463362Y-11891314D01*
X14463362Y-11891314D02*
X14472886Y-11853219D01*
X14472886Y-11853219D02*
X14482409Y-11834171D01*
X14482409Y-11834171D02*
X14491933Y-11824648D01*
X14491933Y-11824648D02*
X14510981Y-11815124D01*
X14663362Y-12015124D02*
X14663362Y-11881790D01*
X14663362Y-11900838D02*
X14672886Y-11891314D01*
X14672886Y-11891314D02*
X14691933Y-11881790D01*
X14691933Y-11881790D02*
X14720505Y-11881790D01*
X14720505Y-11881790D02*
X14739552Y-11891314D01*
X14739552Y-11891314D02*
X14749076Y-11910362D01*
X14749076Y-11910362D02*
X14749076Y-12015124D01*
X14749076Y-11910362D02*
X14758600Y-11891314D01*
X14758600Y-11891314D02*
X14777648Y-11881790D01*
X14777648Y-11881790D02*
X14806219Y-11881790D01*
X14806219Y-11881790D02*
X14825267Y-11891314D01*
X14825267Y-11891314D02*
X14834790Y-11910362D01*
X14834790Y-11910362D02*
X14834790Y-12015124D01*
X14930029Y-12015124D02*
X14930029Y-11881790D01*
X14930029Y-11900838D02*
X14939552Y-11891314D01*
X14939552Y-11891314D02*
X14958600Y-11881790D01*
X14958600Y-11881790D02*
X14987171Y-11881790D01*
X14987171Y-11881790D02*
X15006219Y-11891314D01*
X15006219Y-11891314D02*
X15015743Y-11910362D01*
X15015743Y-11910362D02*
X15015743Y-12015124D01*
X15015743Y-11910362D02*
X15025267Y-11891314D01*
X15025267Y-11891314D02*
X15044314Y-11881790D01*
X15044314Y-11881790D02*
X15072886Y-11881790D01*
X15072886Y-11881790D02*
X15091933Y-11891314D01*
X15091933Y-11891314D02*
X15101457Y-11910362D01*
X15101457Y-11910362D02*
X15101457Y-12015124D01*
X15491933Y-11805600D02*
X15320505Y-12062743D01*
X15749076Y-11815124D02*
X15768124Y-11815124D01*
X15768124Y-11815124D02*
X15787172Y-11824648D01*
X15787172Y-11824648D02*
X15796695Y-11834171D01*
X15796695Y-11834171D02*
X15806219Y-11853219D01*
X15806219Y-11853219D02*
X15815743Y-11891314D01*
X15815743Y-11891314D02*
X15815743Y-11938933D01*
X15815743Y-11938933D02*
X15806219Y-11977028D01*
X15806219Y-11977028D02*
X15796695Y-11996076D01*
X15796695Y-11996076D02*
X15787172Y-12005600D01*
X15787172Y-12005600D02*
X15768124Y-12015124D01*
X15768124Y-12015124D02*
X15749076Y-12015124D01*
X15749076Y-12015124D02*
X15730029Y-12005600D01*
X15730029Y-12005600D02*
X15720505Y-11996076D01*
X15720505Y-11996076D02*
X15710981Y-11977028D01*
X15710981Y-11977028D02*
X15701457Y-11938933D01*
X15701457Y-11938933D02*
X15701457Y-11891314D01*
X15701457Y-11891314D02*
X15710981Y-11853219D01*
X15710981Y-11853219D02*
X15720505Y-11834171D01*
X15720505Y-11834171D02*
X15730029Y-11824648D01*
X15730029Y-11824648D02*
X15749076Y-11815124D01*
X15901457Y-11996076D02*
X15910981Y-12005600D01*
X15910981Y-12005600D02*
X15901457Y-12015124D01*
X15901457Y-12015124D02*
X15891933Y-12005600D01*
X15891933Y-12005600D02*
X15901457Y-11996076D01*
X15901457Y-11996076D02*
X15901457Y-12015124D01*
X16034791Y-11815124D02*
X16053838Y-11815124D01*
X16053838Y-11815124D02*
X16072886Y-11824648D01*
X16072886Y-11824648D02*
X16082410Y-11834171D01*
X16082410Y-11834171D02*
X16091933Y-11853219D01*
X16091933Y-11853219D02*
X16101457Y-11891314D01*
X16101457Y-11891314D02*
X16101457Y-11938933D01*
X16101457Y-11938933D02*
X16091933Y-11977028D01*
X16091933Y-11977028D02*
X16082410Y-11996076D01*
X16082410Y-11996076D02*
X16072886Y-12005600D01*
X16072886Y-12005600D02*
X16053838Y-12015124D01*
X16053838Y-12015124D02*
X16034791Y-12015124D01*
X16034791Y-12015124D02*
X16015743Y-12005600D01*
X16015743Y-12005600D02*
X16006219Y-11996076D01*
X16006219Y-11996076D02*
X15996695Y-11977028D01*
X15996695Y-11977028D02*
X15987172Y-11938933D01*
X15987172Y-11938933D02*
X15987172Y-11891314D01*
X15987172Y-11891314D02*
X15996695Y-11853219D01*
X15996695Y-11853219D02*
X16006219Y-11834171D01*
X16006219Y-11834171D02*
X16015743Y-11824648D01*
X16015743Y-11824648D02*
X16034791Y-11815124D01*
X16291933Y-12015124D02*
X16177648Y-12015124D01*
X16234791Y-12015124D02*
X16234791Y-11815124D01*
X16234791Y-11815124D02*
X16215743Y-11843695D01*
X16215743Y-11843695D02*
X16196695Y-11862743D01*
X16196695Y-11862743D02*
X16177648Y-11872267D01*
X16472886Y-11815124D02*
X16377648Y-11815124D01*
X16377648Y-11815124D02*
X16368124Y-11910362D01*
X16368124Y-11910362D02*
X16377648Y-11900838D01*
X16377648Y-11900838D02*
X16396695Y-11891314D01*
X16396695Y-11891314D02*
X16444314Y-11891314D01*
X16444314Y-11891314D02*
X16463362Y-11900838D01*
X16463362Y-11900838D02*
X16472886Y-11910362D01*
X16472886Y-11910362D02*
X16482410Y-11929409D01*
X16482410Y-11929409D02*
X16482410Y-11977028D01*
X16482410Y-11977028D02*
X16472886Y-11996076D01*
X16472886Y-11996076D02*
X16463362Y-12005600D01*
X16463362Y-12005600D02*
X16444314Y-12015124D01*
X16444314Y-12015124D02*
X16396695Y-12015124D01*
X16396695Y-12015124D02*
X16377648Y-12005600D01*
X16377648Y-12005600D02*
X16368124Y-11996076D01*
X16549076Y-11815124D02*
X16682410Y-11815124D01*
X16682410Y-11815124D02*
X16596695Y-12015124D01*
X16749076Y-11815124D02*
X16749076Y-11853219D01*
X16825267Y-11815124D02*
X16825267Y-11853219D01*
X17120505Y-12091314D02*
X17110981Y-12081790D01*
X17110981Y-12081790D02*
X17091934Y-12053219D01*
X17091934Y-12053219D02*
X17082410Y-12034171D01*
X17082410Y-12034171D02*
X17072886Y-12005600D01*
X17072886Y-12005600D02*
X17063362Y-11957981D01*
X17063362Y-11957981D02*
X17063362Y-11919886D01*
X17063362Y-11919886D02*
X17072886Y-11872267D01*
X17072886Y-11872267D02*
X17082410Y-11843695D01*
X17082410Y-11843695D02*
X17091934Y-11824648D01*
X17091934Y-11824648D02*
X17110981Y-11796076D01*
X17110981Y-11796076D02*
X17120505Y-11786552D01*
X17301457Y-12015124D02*
X17187172Y-12015124D01*
X17244315Y-12015124D02*
X17244315Y-11815124D01*
X17244315Y-11815124D02*
X17225267Y-11843695D01*
X17225267Y-11843695D02*
X17206219Y-11862743D01*
X17206219Y-11862743D02*
X17187172Y-11872267D01*
X17368124Y-11815124D02*
X17491934Y-11815124D01*
X17491934Y-11815124D02*
X17425267Y-11891314D01*
X17425267Y-11891314D02*
X17453838Y-11891314D01*
X17453838Y-11891314D02*
X17472886Y-11900838D01*
X17472886Y-11900838D02*
X17482410Y-11910362D01*
X17482410Y-11910362D02*
X17491934Y-11929409D01*
X17491934Y-11929409D02*
X17491934Y-11977028D01*
X17491934Y-11977028D02*
X17482410Y-11996076D01*
X17482410Y-11996076D02*
X17472886Y-12005600D01*
X17472886Y-12005600D02*
X17453838Y-12015124D01*
X17453838Y-12015124D02*
X17396696Y-12015124D01*
X17396696Y-12015124D02*
X17377648Y-12005600D01*
X17377648Y-12005600D02*
X17368124Y-11996076D01*
X17730029Y-12015124D02*
X17730029Y-11815124D01*
X17815743Y-12015124D02*
X17815743Y-11910362D01*
X17815743Y-11910362D02*
X17806219Y-11891314D01*
X17806219Y-11891314D02*
X17787172Y-11881790D01*
X17787172Y-11881790D02*
X17758600Y-11881790D01*
X17758600Y-11881790D02*
X17739553Y-11891314D01*
X17739553Y-11891314D02*
X17730029Y-11900838D01*
X17939553Y-12015124D02*
X17920505Y-12005600D01*
X17920505Y-12005600D02*
X17910981Y-11996076D01*
X17910981Y-11996076D02*
X17901458Y-11977028D01*
X17901458Y-11977028D02*
X17901458Y-11919886D01*
X17901458Y-11919886D02*
X17910981Y-11900838D01*
X17910981Y-11900838D02*
X17920505Y-11891314D01*
X17920505Y-11891314D02*
X17939553Y-11881790D01*
X17939553Y-11881790D02*
X17968124Y-11881790D01*
X17968124Y-11881790D02*
X17987172Y-11891314D01*
X17987172Y-11891314D02*
X17996696Y-11900838D01*
X17996696Y-11900838D02*
X18006219Y-11919886D01*
X18006219Y-11919886D02*
X18006219Y-11977028D01*
X18006219Y-11977028D02*
X17996696Y-11996076D01*
X17996696Y-11996076D02*
X17987172Y-12005600D01*
X17987172Y-12005600D02*
X17968124Y-12015124D01*
X17968124Y-12015124D02*
X17939553Y-12015124D01*
X18120505Y-12015124D02*
X18101458Y-12005600D01*
X18101458Y-12005600D02*
X18091934Y-11986552D01*
X18091934Y-11986552D02*
X18091934Y-11815124D01*
X18272886Y-12005600D02*
X18253839Y-12015124D01*
X18253839Y-12015124D02*
X18215743Y-12015124D01*
X18215743Y-12015124D02*
X18196696Y-12005600D01*
X18196696Y-12005600D02*
X18187172Y-11986552D01*
X18187172Y-11986552D02*
X18187172Y-11910362D01*
X18187172Y-11910362D02*
X18196696Y-11891314D01*
X18196696Y-11891314D02*
X18215743Y-11881790D01*
X18215743Y-11881790D02*
X18253839Y-11881790D01*
X18253839Y-11881790D02*
X18272886Y-11891314D01*
X18272886Y-11891314D02*
X18282410Y-11910362D01*
X18282410Y-11910362D02*
X18282410Y-11929409D01*
X18282410Y-11929409D02*
X18187172Y-11948457D01*
X18358600Y-12005600D02*
X18377648Y-12015124D01*
X18377648Y-12015124D02*
X18415743Y-12015124D01*
X18415743Y-12015124D02*
X18434791Y-12005600D01*
X18434791Y-12005600D02*
X18444315Y-11986552D01*
X18444315Y-11986552D02*
X18444315Y-11977028D01*
X18444315Y-11977028D02*
X18434791Y-11957981D01*
X18434791Y-11957981D02*
X18415743Y-11948457D01*
X18415743Y-11948457D02*
X18387172Y-11948457D01*
X18387172Y-11948457D02*
X18368124Y-11938933D01*
X18368124Y-11938933D02*
X18358600Y-11919886D01*
X18358600Y-11919886D02*
X18358600Y-11910362D01*
X18358600Y-11910362D02*
X18368124Y-11891314D01*
X18368124Y-11891314D02*
X18387172Y-11881790D01*
X18387172Y-11881790D02*
X18415743Y-11881790D01*
X18415743Y-11881790D02*
X18434791Y-11891314D01*
X18510981Y-12091314D02*
X18520505Y-12081790D01*
X18520505Y-12081790D02*
X18539553Y-12053219D01*
X18539553Y-12053219D02*
X18549077Y-12034171D01*
X18549077Y-12034171D02*
X18558600Y-12005600D01*
X18558600Y-12005600D02*
X18568124Y-11957981D01*
X18568124Y-11957981D02*
X18568124Y-11919886D01*
X18568124Y-11919886D02*
X18558600Y-11872267D01*
X18558600Y-11872267D02*
X18549077Y-11843695D01*
X18549077Y-11843695D02*
X18539553Y-11824648D01*
X18539553Y-11824648D02*
X18520505Y-11796076D01*
X18520505Y-11796076D02*
X18510981Y-11786552D01*
D13*
X13558600Y-12186600D02*
G75*
G03*
X13558600Y-12186600I-40000J0D01*
G01*
D11*
X13844314Y-12079124D02*
X13863362Y-12079124D01*
X13863362Y-12079124D02*
X13882409Y-12088648D01*
X13882409Y-12088648D02*
X13891933Y-12098171D01*
X13891933Y-12098171D02*
X13901457Y-12117219D01*
X13901457Y-12117219D02*
X13910981Y-12155314D01*
X13910981Y-12155314D02*
X13910981Y-12202933D01*
X13910981Y-12202933D02*
X13901457Y-12241028D01*
X13901457Y-12241028D02*
X13891933Y-12260076D01*
X13891933Y-12260076D02*
X13882409Y-12269600D01*
X13882409Y-12269600D02*
X13863362Y-12279124D01*
X13863362Y-12279124D02*
X13844314Y-12279124D01*
X13844314Y-12279124D02*
X13825267Y-12269600D01*
X13825267Y-12269600D02*
X13815743Y-12260076D01*
X13815743Y-12260076D02*
X13806219Y-12241028D01*
X13806219Y-12241028D02*
X13796695Y-12202933D01*
X13796695Y-12202933D02*
X13796695Y-12155314D01*
X13796695Y-12155314D02*
X13806219Y-12117219D01*
X13806219Y-12117219D02*
X13815743Y-12098171D01*
X13815743Y-12098171D02*
X13825267Y-12088648D01*
X13825267Y-12088648D02*
X13844314Y-12079124D01*
X13996695Y-12260076D02*
X14006219Y-12269600D01*
X14006219Y-12269600D02*
X13996695Y-12279124D01*
X13996695Y-12279124D02*
X13987171Y-12269600D01*
X13987171Y-12269600D02*
X13996695Y-12260076D01*
X13996695Y-12260076D02*
X13996695Y-12279124D01*
X14120505Y-12164838D02*
X14101457Y-12155314D01*
X14101457Y-12155314D02*
X14091933Y-12145790D01*
X14091933Y-12145790D02*
X14082409Y-12126743D01*
X14082409Y-12126743D02*
X14082409Y-12117219D01*
X14082409Y-12117219D02*
X14091933Y-12098171D01*
X14091933Y-12098171D02*
X14101457Y-12088648D01*
X14101457Y-12088648D02*
X14120505Y-12079124D01*
X14120505Y-12079124D02*
X14158600Y-12079124D01*
X14158600Y-12079124D02*
X14177648Y-12088648D01*
X14177648Y-12088648D02*
X14187171Y-12098171D01*
X14187171Y-12098171D02*
X14196695Y-12117219D01*
X14196695Y-12117219D02*
X14196695Y-12126743D01*
X14196695Y-12126743D02*
X14187171Y-12145790D01*
X14187171Y-12145790D02*
X14177648Y-12155314D01*
X14177648Y-12155314D02*
X14158600Y-12164838D01*
X14158600Y-12164838D02*
X14120505Y-12164838D01*
X14120505Y-12164838D02*
X14101457Y-12174362D01*
X14101457Y-12174362D02*
X14091933Y-12183886D01*
X14091933Y-12183886D02*
X14082409Y-12202933D01*
X14082409Y-12202933D02*
X14082409Y-12241028D01*
X14082409Y-12241028D02*
X14091933Y-12260076D01*
X14091933Y-12260076D02*
X14101457Y-12269600D01*
X14101457Y-12269600D02*
X14120505Y-12279124D01*
X14120505Y-12279124D02*
X14158600Y-12279124D01*
X14158600Y-12279124D02*
X14177648Y-12269600D01*
X14177648Y-12269600D02*
X14187171Y-12260076D01*
X14187171Y-12260076D02*
X14196695Y-12241028D01*
X14196695Y-12241028D02*
X14196695Y-12202933D01*
X14196695Y-12202933D02*
X14187171Y-12183886D01*
X14187171Y-12183886D02*
X14177648Y-12174362D01*
X14177648Y-12174362D02*
X14158600Y-12164838D01*
X14320505Y-12079124D02*
X14339552Y-12079124D01*
X14339552Y-12079124D02*
X14358600Y-12088648D01*
X14358600Y-12088648D02*
X14368124Y-12098171D01*
X14368124Y-12098171D02*
X14377648Y-12117219D01*
X14377648Y-12117219D02*
X14387171Y-12155314D01*
X14387171Y-12155314D02*
X14387171Y-12202933D01*
X14387171Y-12202933D02*
X14377648Y-12241028D01*
X14377648Y-12241028D02*
X14368124Y-12260076D01*
X14368124Y-12260076D02*
X14358600Y-12269600D01*
X14358600Y-12269600D02*
X14339552Y-12279124D01*
X14339552Y-12279124D02*
X14320505Y-12279124D01*
X14320505Y-12279124D02*
X14301457Y-12269600D01*
X14301457Y-12269600D02*
X14291933Y-12260076D01*
X14291933Y-12260076D02*
X14282409Y-12241028D01*
X14282409Y-12241028D02*
X14272886Y-12202933D01*
X14272886Y-12202933D02*
X14272886Y-12155314D01*
X14272886Y-12155314D02*
X14282409Y-12117219D01*
X14282409Y-12117219D02*
X14291933Y-12098171D01*
X14291933Y-12098171D02*
X14301457Y-12088648D01*
X14301457Y-12088648D02*
X14320505Y-12079124D01*
X14510981Y-12079124D02*
X14530029Y-12079124D01*
X14530029Y-12079124D02*
X14549076Y-12088648D01*
X14549076Y-12088648D02*
X14558600Y-12098171D01*
X14558600Y-12098171D02*
X14568124Y-12117219D01*
X14568124Y-12117219D02*
X14577648Y-12155314D01*
X14577648Y-12155314D02*
X14577648Y-12202933D01*
X14577648Y-12202933D02*
X14568124Y-12241028D01*
X14568124Y-12241028D02*
X14558600Y-12260076D01*
X14558600Y-12260076D02*
X14549076Y-12269600D01*
X14549076Y-12269600D02*
X14530029Y-12279124D01*
X14530029Y-12279124D02*
X14510981Y-12279124D01*
X14510981Y-12279124D02*
X14491933Y-12269600D01*
X14491933Y-12269600D02*
X14482409Y-12260076D01*
X14482409Y-12260076D02*
X14472886Y-12241028D01*
X14472886Y-12241028D02*
X14463362Y-12202933D01*
X14463362Y-12202933D02*
X14463362Y-12155314D01*
X14463362Y-12155314D02*
X14472886Y-12117219D01*
X14472886Y-12117219D02*
X14482409Y-12098171D01*
X14482409Y-12098171D02*
X14491933Y-12088648D01*
X14491933Y-12088648D02*
X14510981Y-12079124D01*
X14663362Y-12279124D02*
X14663362Y-12145790D01*
X14663362Y-12164838D02*
X14672886Y-12155314D01*
X14672886Y-12155314D02*
X14691933Y-12145790D01*
X14691933Y-12145790D02*
X14720505Y-12145790D01*
X14720505Y-12145790D02*
X14739552Y-12155314D01*
X14739552Y-12155314D02*
X14749076Y-12174362D01*
X14749076Y-12174362D02*
X14749076Y-12279124D01*
X14749076Y-12174362D02*
X14758600Y-12155314D01*
X14758600Y-12155314D02*
X14777648Y-12145790D01*
X14777648Y-12145790D02*
X14806219Y-12145790D01*
X14806219Y-12145790D02*
X14825267Y-12155314D01*
X14825267Y-12155314D02*
X14834790Y-12174362D01*
X14834790Y-12174362D02*
X14834790Y-12279124D01*
X14930029Y-12279124D02*
X14930029Y-12145790D01*
X14930029Y-12164838D02*
X14939552Y-12155314D01*
X14939552Y-12155314D02*
X14958600Y-12145790D01*
X14958600Y-12145790D02*
X14987171Y-12145790D01*
X14987171Y-12145790D02*
X15006219Y-12155314D01*
X15006219Y-12155314D02*
X15015743Y-12174362D01*
X15015743Y-12174362D02*
X15015743Y-12279124D01*
X15015743Y-12174362D02*
X15025267Y-12155314D01*
X15025267Y-12155314D02*
X15044314Y-12145790D01*
X15044314Y-12145790D02*
X15072886Y-12145790D01*
X15072886Y-12145790D02*
X15091933Y-12155314D01*
X15091933Y-12155314D02*
X15101457Y-12174362D01*
X15101457Y-12174362D02*
X15101457Y-12279124D01*
X15491933Y-12069600D02*
X15320505Y-12326743D01*
X15749076Y-12079124D02*
X15768124Y-12079124D01*
X15768124Y-12079124D02*
X15787172Y-12088648D01*
X15787172Y-12088648D02*
X15796695Y-12098171D01*
X15796695Y-12098171D02*
X15806219Y-12117219D01*
X15806219Y-12117219D02*
X15815743Y-12155314D01*
X15815743Y-12155314D02*
X15815743Y-12202933D01*
X15815743Y-12202933D02*
X15806219Y-12241028D01*
X15806219Y-12241028D02*
X15796695Y-12260076D01*
X15796695Y-12260076D02*
X15787172Y-12269600D01*
X15787172Y-12269600D02*
X15768124Y-12279124D01*
X15768124Y-12279124D02*
X15749076Y-12279124D01*
X15749076Y-12279124D02*
X15730029Y-12269600D01*
X15730029Y-12269600D02*
X15720505Y-12260076D01*
X15720505Y-12260076D02*
X15710981Y-12241028D01*
X15710981Y-12241028D02*
X15701457Y-12202933D01*
X15701457Y-12202933D02*
X15701457Y-12155314D01*
X15701457Y-12155314D02*
X15710981Y-12117219D01*
X15710981Y-12117219D02*
X15720505Y-12098171D01*
X15720505Y-12098171D02*
X15730029Y-12088648D01*
X15730029Y-12088648D02*
X15749076Y-12079124D01*
X15901457Y-12260076D02*
X15910981Y-12269600D01*
X15910981Y-12269600D02*
X15901457Y-12279124D01*
X15901457Y-12279124D02*
X15891933Y-12269600D01*
X15891933Y-12269600D02*
X15901457Y-12260076D01*
X15901457Y-12260076D02*
X15901457Y-12279124D01*
X16034791Y-12079124D02*
X16053838Y-12079124D01*
X16053838Y-12079124D02*
X16072886Y-12088648D01*
X16072886Y-12088648D02*
X16082410Y-12098171D01*
X16082410Y-12098171D02*
X16091933Y-12117219D01*
X16091933Y-12117219D02*
X16101457Y-12155314D01*
X16101457Y-12155314D02*
X16101457Y-12202933D01*
X16101457Y-12202933D02*
X16091933Y-12241028D01*
X16091933Y-12241028D02*
X16082410Y-12260076D01*
X16082410Y-12260076D02*
X16072886Y-12269600D01*
X16072886Y-12269600D02*
X16053838Y-12279124D01*
X16053838Y-12279124D02*
X16034791Y-12279124D01*
X16034791Y-12279124D02*
X16015743Y-12269600D01*
X16015743Y-12269600D02*
X16006219Y-12260076D01*
X16006219Y-12260076D02*
X15996695Y-12241028D01*
X15996695Y-12241028D02*
X15987172Y-12202933D01*
X15987172Y-12202933D02*
X15987172Y-12155314D01*
X15987172Y-12155314D02*
X15996695Y-12117219D01*
X15996695Y-12117219D02*
X16006219Y-12098171D01*
X16006219Y-12098171D02*
X16015743Y-12088648D01*
X16015743Y-12088648D02*
X16034791Y-12079124D01*
X16168124Y-12079124D02*
X16291933Y-12079124D01*
X16291933Y-12079124D02*
X16225267Y-12155314D01*
X16225267Y-12155314D02*
X16253838Y-12155314D01*
X16253838Y-12155314D02*
X16272886Y-12164838D01*
X16272886Y-12164838D02*
X16282410Y-12174362D01*
X16282410Y-12174362D02*
X16291933Y-12193409D01*
X16291933Y-12193409D02*
X16291933Y-12241028D01*
X16291933Y-12241028D02*
X16282410Y-12260076D01*
X16282410Y-12260076D02*
X16272886Y-12269600D01*
X16272886Y-12269600D02*
X16253838Y-12279124D01*
X16253838Y-12279124D02*
X16196695Y-12279124D01*
X16196695Y-12279124D02*
X16177648Y-12269600D01*
X16177648Y-12269600D02*
X16168124Y-12260076D01*
X16482410Y-12279124D02*
X16368124Y-12279124D01*
X16425267Y-12279124D02*
X16425267Y-12079124D01*
X16425267Y-12079124D02*
X16406219Y-12107695D01*
X16406219Y-12107695D02*
X16387172Y-12126743D01*
X16387172Y-12126743D02*
X16368124Y-12136267D01*
X16663362Y-12079124D02*
X16568124Y-12079124D01*
X16568124Y-12079124D02*
X16558600Y-12174362D01*
X16558600Y-12174362D02*
X16568124Y-12164838D01*
X16568124Y-12164838D02*
X16587172Y-12155314D01*
X16587172Y-12155314D02*
X16634791Y-12155314D01*
X16634791Y-12155314D02*
X16653838Y-12164838D01*
X16653838Y-12164838D02*
X16663362Y-12174362D01*
X16663362Y-12174362D02*
X16672886Y-12193409D01*
X16672886Y-12193409D02*
X16672886Y-12241028D01*
X16672886Y-12241028D02*
X16663362Y-12260076D01*
X16663362Y-12260076D02*
X16653838Y-12269600D01*
X16653838Y-12269600D02*
X16634791Y-12279124D01*
X16634791Y-12279124D02*
X16587172Y-12279124D01*
X16587172Y-12279124D02*
X16568124Y-12269600D01*
X16568124Y-12269600D02*
X16558600Y-12260076D01*
X16749076Y-12079124D02*
X16749076Y-12117219D01*
X16825267Y-12079124D02*
X16825267Y-12117219D01*
X17120505Y-12355314D02*
X17110981Y-12345790D01*
X17110981Y-12345790D02*
X17091934Y-12317219D01*
X17091934Y-12317219D02*
X17082410Y-12298171D01*
X17082410Y-12298171D02*
X17072886Y-12269600D01*
X17072886Y-12269600D02*
X17063362Y-12221981D01*
X17063362Y-12221981D02*
X17063362Y-12183886D01*
X17063362Y-12183886D02*
X17072886Y-12136267D01*
X17072886Y-12136267D02*
X17082410Y-12107695D01*
X17082410Y-12107695D02*
X17091934Y-12088648D01*
X17091934Y-12088648D02*
X17110981Y-12060076D01*
X17110981Y-12060076D02*
X17120505Y-12050552D01*
X17177648Y-12079124D02*
X17310981Y-12079124D01*
X17310981Y-12079124D02*
X17225267Y-12279124D01*
X17472886Y-12079124D02*
X17434791Y-12079124D01*
X17434791Y-12079124D02*
X17415743Y-12088648D01*
X17415743Y-12088648D02*
X17406219Y-12098171D01*
X17406219Y-12098171D02*
X17387172Y-12126743D01*
X17387172Y-12126743D02*
X17377648Y-12164838D01*
X17377648Y-12164838D02*
X17377648Y-12241028D01*
X17377648Y-12241028D02*
X17387172Y-12260076D01*
X17387172Y-12260076D02*
X17396696Y-12269600D01*
X17396696Y-12269600D02*
X17415743Y-12279124D01*
X17415743Y-12279124D02*
X17453838Y-12279124D01*
X17453838Y-12279124D02*
X17472886Y-12269600D01*
X17472886Y-12269600D02*
X17482410Y-12260076D01*
X17482410Y-12260076D02*
X17491934Y-12241028D01*
X17491934Y-12241028D02*
X17491934Y-12193409D01*
X17491934Y-12193409D02*
X17482410Y-12174362D01*
X17482410Y-12174362D02*
X17472886Y-12164838D01*
X17472886Y-12164838D02*
X17453838Y-12155314D01*
X17453838Y-12155314D02*
X17415743Y-12155314D01*
X17415743Y-12155314D02*
X17396696Y-12164838D01*
X17396696Y-12164838D02*
X17387172Y-12174362D01*
X17387172Y-12174362D02*
X17377648Y-12193409D01*
X17730029Y-12279124D02*
X17730029Y-12079124D01*
X17815743Y-12279124D02*
X17815743Y-12174362D01*
X17815743Y-12174362D02*
X17806219Y-12155314D01*
X17806219Y-12155314D02*
X17787172Y-12145790D01*
X17787172Y-12145790D02*
X17758600Y-12145790D01*
X17758600Y-12145790D02*
X17739553Y-12155314D01*
X17739553Y-12155314D02*
X17730029Y-12164838D01*
X17939553Y-12279124D02*
X17920505Y-12269600D01*
X17920505Y-12269600D02*
X17910981Y-12260076D01*
X17910981Y-12260076D02*
X17901458Y-12241028D01*
X17901458Y-12241028D02*
X17901458Y-12183886D01*
X17901458Y-12183886D02*
X17910981Y-12164838D01*
X17910981Y-12164838D02*
X17920505Y-12155314D01*
X17920505Y-12155314D02*
X17939553Y-12145790D01*
X17939553Y-12145790D02*
X17968124Y-12145790D01*
X17968124Y-12145790D02*
X17987172Y-12155314D01*
X17987172Y-12155314D02*
X17996696Y-12164838D01*
X17996696Y-12164838D02*
X18006219Y-12183886D01*
X18006219Y-12183886D02*
X18006219Y-12241028D01*
X18006219Y-12241028D02*
X17996696Y-12260076D01*
X17996696Y-12260076D02*
X17987172Y-12269600D01*
X17987172Y-12269600D02*
X17968124Y-12279124D01*
X17968124Y-12279124D02*
X17939553Y-12279124D01*
X18120505Y-12279124D02*
X18101458Y-12269600D01*
X18101458Y-12269600D02*
X18091934Y-12250552D01*
X18091934Y-12250552D02*
X18091934Y-12079124D01*
X18272886Y-12269600D02*
X18253839Y-12279124D01*
X18253839Y-12279124D02*
X18215743Y-12279124D01*
X18215743Y-12279124D02*
X18196696Y-12269600D01*
X18196696Y-12269600D02*
X18187172Y-12250552D01*
X18187172Y-12250552D02*
X18187172Y-12174362D01*
X18187172Y-12174362D02*
X18196696Y-12155314D01*
X18196696Y-12155314D02*
X18215743Y-12145790D01*
X18215743Y-12145790D02*
X18253839Y-12145790D01*
X18253839Y-12145790D02*
X18272886Y-12155314D01*
X18272886Y-12155314D02*
X18282410Y-12174362D01*
X18282410Y-12174362D02*
X18282410Y-12193409D01*
X18282410Y-12193409D02*
X18187172Y-12212457D01*
X18358600Y-12269600D02*
X18377648Y-12279124D01*
X18377648Y-12279124D02*
X18415743Y-12279124D01*
X18415743Y-12279124D02*
X18434791Y-12269600D01*
X18434791Y-12269600D02*
X18444315Y-12250552D01*
X18444315Y-12250552D02*
X18444315Y-12241028D01*
X18444315Y-12241028D02*
X18434791Y-12221981D01*
X18434791Y-12221981D02*
X18415743Y-12212457D01*
X18415743Y-12212457D02*
X18387172Y-12212457D01*
X18387172Y-12212457D02*
X18368124Y-12202933D01*
X18368124Y-12202933D02*
X18358600Y-12183886D01*
X18358600Y-12183886D02*
X18358600Y-12174362D01*
X18358600Y-12174362D02*
X18368124Y-12155314D01*
X18368124Y-12155314D02*
X18387172Y-12145790D01*
X18387172Y-12145790D02*
X18415743Y-12145790D01*
X18415743Y-12145790D02*
X18434791Y-12155314D01*
X18510981Y-12355314D02*
X18520505Y-12345790D01*
X18520505Y-12345790D02*
X18539553Y-12317219D01*
X18539553Y-12317219D02*
X18549077Y-12298171D01*
X18549077Y-12298171D02*
X18558600Y-12269600D01*
X18558600Y-12269600D02*
X18568124Y-12221981D01*
X18568124Y-12221981D02*
X18568124Y-12183886D01*
X18568124Y-12183886D02*
X18558600Y-12136267D01*
X18558600Y-12136267D02*
X18549077Y-12107695D01*
X18549077Y-12107695D02*
X18539553Y-12088648D01*
X18539553Y-12088648D02*
X18520505Y-12060076D01*
X18520505Y-12060076D02*
X18510981Y-12050552D01*
D10*
X13508600Y-12400600D02*
X13508600Y-12500600D01*
X13458600Y-12450600D02*
X13558600Y-12450600D01*
D11*
X13910981Y-12543124D02*
X13796695Y-12543124D01*
X13853838Y-12543124D02*
X13853838Y-12343124D01*
X13853838Y-12343124D02*
X13834790Y-12371695D01*
X13834790Y-12371695D02*
X13815743Y-12390743D01*
X13815743Y-12390743D02*
X13796695Y-12400267D01*
X13996695Y-12524076D02*
X14006219Y-12533600D01*
X14006219Y-12533600D02*
X13996695Y-12543124D01*
X13996695Y-12543124D02*
X13987171Y-12533600D01*
X13987171Y-12533600D02*
X13996695Y-12524076D01*
X13996695Y-12524076D02*
X13996695Y-12543124D01*
X14130028Y-12343124D02*
X14149076Y-12343124D01*
X14149076Y-12343124D02*
X14168124Y-12352648D01*
X14168124Y-12352648D02*
X14177648Y-12362171D01*
X14177648Y-12362171D02*
X14187171Y-12381219D01*
X14187171Y-12381219D02*
X14196695Y-12419314D01*
X14196695Y-12419314D02*
X14196695Y-12466933D01*
X14196695Y-12466933D02*
X14187171Y-12505028D01*
X14187171Y-12505028D02*
X14177648Y-12524076D01*
X14177648Y-12524076D02*
X14168124Y-12533600D01*
X14168124Y-12533600D02*
X14149076Y-12543124D01*
X14149076Y-12543124D02*
X14130028Y-12543124D01*
X14130028Y-12543124D02*
X14110981Y-12533600D01*
X14110981Y-12533600D02*
X14101457Y-12524076D01*
X14101457Y-12524076D02*
X14091933Y-12505028D01*
X14091933Y-12505028D02*
X14082409Y-12466933D01*
X14082409Y-12466933D02*
X14082409Y-12419314D01*
X14082409Y-12419314D02*
X14091933Y-12381219D01*
X14091933Y-12381219D02*
X14101457Y-12362171D01*
X14101457Y-12362171D02*
X14110981Y-12352648D01*
X14110981Y-12352648D02*
X14130028Y-12343124D01*
X14320505Y-12343124D02*
X14339552Y-12343124D01*
X14339552Y-12343124D02*
X14358600Y-12352648D01*
X14358600Y-12352648D02*
X14368124Y-12362171D01*
X14368124Y-12362171D02*
X14377648Y-12381219D01*
X14377648Y-12381219D02*
X14387171Y-12419314D01*
X14387171Y-12419314D02*
X14387171Y-12466933D01*
X14387171Y-12466933D02*
X14377648Y-12505028D01*
X14377648Y-12505028D02*
X14368124Y-12524076D01*
X14368124Y-12524076D02*
X14358600Y-12533600D01*
X14358600Y-12533600D02*
X14339552Y-12543124D01*
X14339552Y-12543124D02*
X14320505Y-12543124D01*
X14320505Y-12543124D02*
X14301457Y-12533600D01*
X14301457Y-12533600D02*
X14291933Y-12524076D01*
X14291933Y-12524076D02*
X14282409Y-12505028D01*
X14282409Y-12505028D02*
X14272886Y-12466933D01*
X14272886Y-12466933D02*
X14272886Y-12419314D01*
X14272886Y-12419314D02*
X14282409Y-12381219D01*
X14282409Y-12381219D02*
X14291933Y-12362171D01*
X14291933Y-12362171D02*
X14301457Y-12352648D01*
X14301457Y-12352648D02*
X14320505Y-12343124D01*
X14510981Y-12343124D02*
X14530029Y-12343124D01*
X14530029Y-12343124D02*
X14549076Y-12352648D01*
X14549076Y-12352648D02*
X14558600Y-12362171D01*
X14558600Y-12362171D02*
X14568124Y-12381219D01*
X14568124Y-12381219D02*
X14577648Y-12419314D01*
X14577648Y-12419314D02*
X14577648Y-12466933D01*
X14577648Y-12466933D02*
X14568124Y-12505028D01*
X14568124Y-12505028D02*
X14558600Y-12524076D01*
X14558600Y-12524076D02*
X14549076Y-12533600D01*
X14549076Y-12533600D02*
X14530029Y-12543124D01*
X14530029Y-12543124D02*
X14510981Y-12543124D01*
X14510981Y-12543124D02*
X14491933Y-12533600D01*
X14491933Y-12533600D02*
X14482409Y-12524076D01*
X14482409Y-12524076D02*
X14472886Y-12505028D01*
X14472886Y-12505028D02*
X14463362Y-12466933D01*
X14463362Y-12466933D02*
X14463362Y-12419314D01*
X14463362Y-12419314D02*
X14472886Y-12381219D01*
X14472886Y-12381219D02*
X14482409Y-12362171D01*
X14482409Y-12362171D02*
X14491933Y-12352648D01*
X14491933Y-12352648D02*
X14510981Y-12343124D01*
X14663362Y-12543124D02*
X14663362Y-12409790D01*
X14663362Y-12428838D02*
X14672886Y-12419314D01*
X14672886Y-12419314D02*
X14691933Y-12409790D01*
X14691933Y-12409790D02*
X14720505Y-12409790D01*
X14720505Y-12409790D02*
X14739552Y-12419314D01*
X14739552Y-12419314D02*
X14749076Y-12438362D01*
X14749076Y-12438362D02*
X14749076Y-12543124D01*
X14749076Y-12438362D02*
X14758600Y-12419314D01*
X14758600Y-12419314D02*
X14777648Y-12409790D01*
X14777648Y-12409790D02*
X14806219Y-12409790D01*
X14806219Y-12409790D02*
X14825267Y-12419314D01*
X14825267Y-12419314D02*
X14834790Y-12438362D01*
X14834790Y-12438362D02*
X14834790Y-12543124D01*
X14930029Y-12543124D02*
X14930029Y-12409790D01*
X14930029Y-12428838D02*
X14939552Y-12419314D01*
X14939552Y-12419314D02*
X14958600Y-12409790D01*
X14958600Y-12409790D02*
X14987171Y-12409790D01*
X14987171Y-12409790D02*
X15006219Y-12419314D01*
X15006219Y-12419314D02*
X15015743Y-12438362D01*
X15015743Y-12438362D02*
X15015743Y-12543124D01*
X15015743Y-12438362D02*
X15025267Y-12419314D01*
X15025267Y-12419314D02*
X15044314Y-12409790D01*
X15044314Y-12409790D02*
X15072886Y-12409790D01*
X15072886Y-12409790D02*
X15091933Y-12419314D01*
X15091933Y-12419314D02*
X15101457Y-12438362D01*
X15101457Y-12438362D02*
X15101457Y-12543124D01*
X15491933Y-12333600D02*
X15320505Y-12590743D01*
X15749076Y-12343124D02*
X15768124Y-12343124D01*
X15768124Y-12343124D02*
X15787172Y-12352648D01*
X15787172Y-12352648D02*
X15796695Y-12362171D01*
X15796695Y-12362171D02*
X15806219Y-12381219D01*
X15806219Y-12381219D02*
X15815743Y-12419314D01*
X15815743Y-12419314D02*
X15815743Y-12466933D01*
X15815743Y-12466933D02*
X15806219Y-12505028D01*
X15806219Y-12505028D02*
X15796695Y-12524076D01*
X15796695Y-12524076D02*
X15787172Y-12533600D01*
X15787172Y-12533600D02*
X15768124Y-12543124D01*
X15768124Y-12543124D02*
X15749076Y-12543124D01*
X15749076Y-12543124D02*
X15730029Y-12533600D01*
X15730029Y-12533600D02*
X15720505Y-12524076D01*
X15720505Y-12524076D02*
X15710981Y-12505028D01*
X15710981Y-12505028D02*
X15701457Y-12466933D01*
X15701457Y-12466933D02*
X15701457Y-12419314D01*
X15701457Y-12419314D02*
X15710981Y-12381219D01*
X15710981Y-12381219D02*
X15720505Y-12362171D01*
X15720505Y-12362171D02*
X15730029Y-12352648D01*
X15730029Y-12352648D02*
X15749076Y-12343124D01*
X15901457Y-12524076D02*
X15910981Y-12533600D01*
X15910981Y-12533600D02*
X15901457Y-12543124D01*
X15901457Y-12543124D02*
X15891933Y-12533600D01*
X15891933Y-12533600D02*
X15901457Y-12524076D01*
X15901457Y-12524076D02*
X15901457Y-12543124D01*
X16034791Y-12343124D02*
X16053838Y-12343124D01*
X16053838Y-12343124D02*
X16072886Y-12352648D01*
X16072886Y-12352648D02*
X16082410Y-12362171D01*
X16082410Y-12362171D02*
X16091933Y-12381219D01*
X16091933Y-12381219D02*
X16101457Y-12419314D01*
X16101457Y-12419314D02*
X16101457Y-12466933D01*
X16101457Y-12466933D02*
X16091933Y-12505028D01*
X16091933Y-12505028D02*
X16082410Y-12524076D01*
X16082410Y-12524076D02*
X16072886Y-12533600D01*
X16072886Y-12533600D02*
X16053838Y-12543124D01*
X16053838Y-12543124D02*
X16034791Y-12543124D01*
X16034791Y-12543124D02*
X16015743Y-12533600D01*
X16015743Y-12533600D02*
X16006219Y-12524076D01*
X16006219Y-12524076D02*
X15996695Y-12505028D01*
X15996695Y-12505028D02*
X15987172Y-12466933D01*
X15987172Y-12466933D02*
X15987172Y-12419314D01*
X15987172Y-12419314D02*
X15996695Y-12381219D01*
X15996695Y-12381219D02*
X16006219Y-12362171D01*
X16006219Y-12362171D02*
X16015743Y-12352648D01*
X16015743Y-12352648D02*
X16034791Y-12343124D01*
X16168124Y-12343124D02*
X16291933Y-12343124D01*
X16291933Y-12343124D02*
X16225267Y-12419314D01*
X16225267Y-12419314D02*
X16253838Y-12419314D01*
X16253838Y-12419314D02*
X16272886Y-12428838D01*
X16272886Y-12428838D02*
X16282410Y-12438362D01*
X16282410Y-12438362D02*
X16291933Y-12457409D01*
X16291933Y-12457409D02*
X16291933Y-12505028D01*
X16291933Y-12505028D02*
X16282410Y-12524076D01*
X16282410Y-12524076D02*
X16272886Y-12533600D01*
X16272886Y-12533600D02*
X16253838Y-12543124D01*
X16253838Y-12543124D02*
X16196695Y-12543124D01*
X16196695Y-12543124D02*
X16177648Y-12533600D01*
X16177648Y-12533600D02*
X16168124Y-12524076D01*
X16387172Y-12543124D02*
X16425267Y-12543124D01*
X16425267Y-12543124D02*
X16444314Y-12533600D01*
X16444314Y-12533600D02*
X16453838Y-12524076D01*
X16453838Y-12524076D02*
X16472886Y-12495505D01*
X16472886Y-12495505D02*
X16482410Y-12457409D01*
X16482410Y-12457409D02*
X16482410Y-12381219D01*
X16482410Y-12381219D02*
X16472886Y-12362171D01*
X16472886Y-12362171D02*
X16463362Y-12352648D01*
X16463362Y-12352648D02*
X16444314Y-12343124D01*
X16444314Y-12343124D02*
X16406219Y-12343124D01*
X16406219Y-12343124D02*
X16387172Y-12352648D01*
X16387172Y-12352648D02*
X16377648Y-12362171D01*
X16377648Y-12362171D02*
X16368124Y-12381219D01*
X16368124Y-12381219D02*
X16368124Y-12428838D01*
X16368124Y-12428838D02*
X16377648Y-12447886D01*
X16377648Y-12447886D02*
X16387172Y-12457409D01*
X16387172Y-12457409D02*
X16406219Y-12466933D01*
X16406219Y-12466933D02*
X16444314Y-12466933D01*
X16444314Y-12466933D02*
X16463362Y-12457409D01*
X16463362Y-12457409D02*
X16472886Y-12447886D01*
X16472886Y-12447886D02*
X16482410Y-12428838D01*
X16653838Y-12409790D02*
X16653838Y-12543124D01*
X16606219Y-12333600D02*
X16558600Y-12476457D01*
X16558600Y-12476457D02*
X16682410Y-12476457D01*
X16749076Y-12343124D02*
X16749076Y-12381219D01*
X16825267Y-12343124D02*
X16825267Y-12381219D01*
X17120505Y-12619314D02*
X17110981Y-12609790D01*
X17110981Y-12609790D02*
X17091934Y-12581219D01*
X17091934Y-12581219D02*
X17082410Y-12562171D01*
X17082410Y-12562171D02*
X17072886Y-12533600D01*
X17072886Y-12533600D02*
X17063362Y-12485981D01*
X17063362Y-12485981D02*
X17063362Y-12447886D01*
X17063362Y-12447886D02*
X17072886Y-12400267D01*
X17072886Y-12400267D02*
X17082410Y-12371695D01*
X17082410Y-12371695D02*
X17091934Y-12352648D01*
X17091934Y-12352648D02*
X17110981Y-12324076D01*
X17110981Y-12324076D02*
X17120505Y-12314552D01*
X17206219Y-12543124D02*
X17244315Y-12543124D01*
X17244315Y-12543124D02*
X17263362Y-12533600D01*
X17263362Y-12533600D02*
X17272886Y-12524076D01*
X17272886Y-12524076D02*
X17291934Y-12495505D01*
X17291934Y-12495505D02*
X17301457Y-12457409D01*
X17301457Y-12457409D02*
X17301457Y-12381219D01*
X17301457Y-12381219D02*
X17291934Y-12362171D01*
X17291934Y-12362171D02*
X17282410Y-12352648D01*
X17282410Y-12352648D02*
X17263362Y-12343124D01*
X17263362Y-12343124D02*
X17225267Y-12343124D01*
X17225267Y-12343124D02*
X17206219Y-12352648D01*
X17206219Y-12352648D02*
X17196696Y-12362171D01*
X17196696Y-12362171D02*
X17187172Y-12381219D01*
X17187172Y-12381219D02*
X17187172Y-12428838D01*
X17187172Y-12428838D02*
X17196696Y-12447886D01*
X17196696Y-12447886D02*
X17206219Y-12457409D01*
X17206219Y-12457409D02*
X17225267Y-12466933D01*
X17225267Y-12466933D02*
X17263362Y-12466933D01*
X17263362Y-12466933D02*
X17282410Y-12457409D01*
X17282410Y-12457409D02*
X17291934Y-12447886D01*
X17291934Y-12447886D02*
X17301457Y-12428838D01*
X17472886Y-12343124D02*
X17434791Y-12343124D01*
X17434791Y-12343124D02*
X17415743Y-12352648D01*
X17415743Y-12352648D02*
X17406219Y-12362171D01*
X17406219Y-12362171D02*
X17387172Y-12390743D01*
X17387172Y-12390743D02*
X17377648Y-12428838D01*
X17377648Y-12428838D02*
X17377648Y-12505028D01*
X17377648Y-12505028D02*
X17387172Y-12524076D01*
X17387172Y-12524076D02*
X17396696Y-12533600D01*
X17396696Y-12533600D02*
X17415743Y-12543124D01*
X17415743Y-12543124D02*
X17453838Y-12543124D01*
X17453838Y-12543124D02*
X17472886Y-12533600D01*
X17472886Y-12533600D02*
X17482410Y-12524076D01*
X17482410Y-12524076D02*
X17491934Y-12505028D01*
X17491934Y-12505028D02*
X17491934Y-12457409D01*
X17491934Y-12457409D02*
X17482410Y-12438362D01*
X17482410Y-12438362D02*
X17472886Y-12428838D01*
X17472886Y-12428838D02*
X17453838Y-12419314D01*
X17453838Y-12419314D02*
X17415743Y-12419314D01*
X17415743Y-12419314D02*
X17396696Y-12428838D01*
X17396696Y-12428838D02*
X17387172Y-12438362D01*
X17387172Y-12438362D02*
X17377648Y-12457409D01*
X17730029Y-12543124D02*
X17730029Y-12343124D01*
X17815743Y-12543124D02*
X17815743Y-12438362D01*
X17815743Y-12438362D02*
X17806219Y-12419314D01*
X17806219Y-12419314D02*
X17787172Y-12409790D01*
X17787172Y-12409790D02*
X17758600Y-12409790D01*
X17758600Y-12409790D02*
X17739553Y-12419314D01*
X17739553Y-12419314D02*
X17730029Y-12428838D01*
X17939553Y-12543124D02*
X17920505Y-12533600D01*
X17920505Y-12533600D02*
X17910981Y-12524076D01*
X17910981Y-12524076D02*
X17901458Y-12505028D01*
X17901458Y-12505028D02*
X17901458Y-12447886D01*
X17901458Y-12447886D02*
X17910981Y-12428838D01*
X17910981Y-12428838D02*
X17920505Y-12419314D01*
X17920505Y-12419314D02*
X17939553Y-12409790D01*
X17939553Y-12409790D02*
X17968124Y-12409790D01*
X17968124Y-12409790D02*
X17987172Y-12419314D01*
X17987172Y-12419314D02*
X17996696Y-12428838D01*
X17996696Y-12428838D02*
X18006219Y-12447886D01*
X18006219Y-12447886D02*
X18006219Y-12505028D01*
X18006219Y-12505028D02*
X17996696Y-12524076D01*
X17996696Y-12524076D02*
X17987172Y-12533600D01*
X17987172Y-12533600D02*
X17968124Y-12543124D01*
X17968124Y-12543124D02*
X17939553Y-12543124D01*
X18120505Y-12543124D02*
X18101458Y-12533600D01*
X18101458Y-12533600D02*
X18091934Y-12514552D01*
X18091934Y-12514552D02*
X18091934Y-12343124D01*
X18272886Y-12533600D02*
X18253839Y-12543124D01*
X18253839Y-12543124D02*
X18215743Y-12543124D01*
X18215743Y-12543124D02*
X18196696Y-12533600D01*
X18196696Y-12533600D02*
X18187172Y-12514552D01*
X18187172Y-12514552D02*
X18187172Y-12438362D01*
X18187172Y-12438362D02*
X18196696Y-12419314D01*
X18196696Y-12419314D02*
X18215743Y-12409790D01*
X18215743Y-12409790D02*
X18253839Y-12409790D01*
X18253839Y-12409790D02*
X18272886Y-12419314D01*
X18272886Y-12419314D02*
X18282410Y-12438362D01*
X18282410Y-12438362D02*
X18282410Y-12457409D01*
X18282410Y-12457409D02*
X18187172Y-12476457D01*
X18358600Y-12533600D02*
X18377648Y-12543124D01*
X18377648Y-12543124D02*
X18415743Y-12543124D01*
X18415743Y-12543124D02*
X18434791Y-12533600D01*
X18434791Y-12533600D02*
X18444315Y-12514552D01*
X18444315Y-12514552D02*
X18444315Y-12505028D01*
X18444315Y-12505028D02*
X18434791Y-12485981D01*
X18434791Y-12485981D02*
X18415743Y-12476457D01*
X18415743Y-12476457D02*
X18387172Y-12476457D01*
X18387172Y-12476457D02*
X18368124Y-12466933D01*
X18368124Y-12466933D02*
X18358600Y-12447886D01*
X18358600Y-12447886D02*
X18358600Y-12438362D01*
X18358600Y-12438362D02*
X18368124Y-12419314D01*
X18368124Y-12419314D02*
X18387172Y-12409790D01*
X18387172Y-12409790D02*
X18415743Y-12409790D01*
X18415743Y-12409790D02*
X18434791Y-12419314D01*
X18510981Y-12619314D02*
X18520505Y-12609790D01*
X18520505Y-12609790D02*
X18539553Y-12581219D01*
X18539553Y-12581219D02*
X18549077Y-12562171D01*
X18549077Y-12562171D02*
X18558600Y-12533600D01*
X18558600Y-12533600D02*
X18568124Y-12485981D01*
X18568124Y-12485981D02*
X18568124Y-12447886D01*
X18568124Y-12447886D02*
X18558600Y-12400267D01*
X18558600Y-12400267D02*
X18549077Y-12371695D01*
X18549077Y-12371695D02*
X18539553Y-12352648D01*
X18539553Y-12352648D02*
X18520505Y-12324076D01*
X18520505Y-12324076D02*
X18510981Y-12314552D01*
X13529311Y-12785311D02*
X13529311Y-12643889D01*
X13387889Y-12643889D01*
X13387889Y-12785311D01*
X13529311Y-12785311D01*
X13796695Y-12626171D02*
X13806219Y-12616648D01*
X13806219Y-12616648D02*
X13825267Y-12607124D01*
X13825267Y-12607124D02*
X13872886Y-12607124D01*
X13872886Y-12607124D02*
X13891933Y-12616648D01*
X13891933Y-12616648D02*
X13901457Y-12626171D01*
X13901457Y-12626171D02*
X13910981Y-12645219D01*
X13910981Y-12645219D02*
X13910981Y-12664267D01*
X13910981Y-12664267D02*
X13901457Y-12692838D01*
X13901457Y-12692838D02*
X13787171Y-12807124D01*
X13787171Y-12807124D02*
X13910981Y-12807124D01*
X13996695Y-12788076D02*
X14006219Y-12797600D01*
X14006219Y-12797600D02*
X13996695Y-12807124D01*
X13996695Y-12807124D02*
X13987171Y-12797600D01*
X13987171Y-12797600D02*
X13996695Y-12788076D01*
X13996695Y-12788076D02*
X13996695Y-12807124D01*
X14082409Y-12626171D02*
X14091933Y-12616648D01*
X14091933Y-12616648D02*
X14110981Y-12607124D01*
X14110981Y-12607124D02*
X14158600Y-12607124D01*
X14158600Y-12607124D02*
X14177648Y-12616648D01*
X14177648Y-12616648D02*
X14187171Y-12626171D01*
X14187171Y-12626171D02*
X14196695Y-12645219D01*
X14196695Y-12645219D02*
X14196695Y-12664267D01*
X14196695Y-12664267D02*
X14187171Y-12692838D01*
X14187171Y-12692838D02*
X14072886Y-12807124D01*
X14072886Y-12807124D02*
X14196695Y-12807124D01*
X14320505Y-12607124D02*
X14339552Y-12607124D01*
X14339552Y-12607124D02*
X14358600Y-12616648D01*
X14358600Y-12616648D02*
X14368124Y-12626171D01*
X14368124Y-12626171D02*
X14377648Y-12645219D01*
X14377648Y-12645219D02*
X14387171Y-12683314D01*
X14387171Y-12683314D02*
X14387171Y-12730933D01*
X14387171Y-12730933D02*
X14377648Y-12769028D01*
X14377648Y-12769028D02*
X14368124Y-12788076D01*
X14368124Y-12788076D02*
X14358600Y-12797600D01*
X14358600Y-12797600D02*
X14339552Y-12807124D01*
X14339552Y-12807124D02*
X14320505Y-12807124D01*
X14320505Y-12807124D02*
X14301457Y-12797600D01*
X14301457Y-12797600D02*
X14291933Y-12788076D01*
X14291933Y-12788076D02*
X14282409Y-12769028D01*
X14282409Y-12769028D02*
X14272886Y-12730933D01*
X14272886Y-12730933D02*
X14272886Y-12683314D01*
X14272886Y-12683314D02*
X14282409Y-12645219D01*
X14282409Y-12645219D02*
X14291933Y-12626171D01*
X14291933Y-12626171D02*
X14301457Y-12616648D01*
X14301457Y-12616648D02*
X14320505Y-12607124D01*
X14510981Y-12607124D02*
X14530029Y-12607124D01*
X14530029Y-12607124D02*
X14549076Y-12616648D01*
X14549076Y-12616648D02*
X14558600Y-12626171D01*
X14558600Y-12626171D02*
X14568124Y-12645219D01*
X14568124Y-12645219D02*
X14577648Y-12683314D01*
X14577648Y-12683314D02*
X14577648Y-12730933D01*
X14577648Y-12730933D02*
X14568124Y-12769028D01*
X14568124Y-12769028D02*
X14558600Y-12788076D01*
X14558600Y-12788076D02*
X14549076Y-12797600D01*
X14549076Y-12797600D02*
X14530029Y-12807124D01*
X14530029Y-12807124D02*
X14510981Y-12807124D01*
X14510981Y-12807124D02*
X14491933Y-12797600D01*
X14491933Y-12797600D02*
X14482409Y-12788076D01*
X14482409Y-12788076D02*
X14472886Y-12769028D01*
X14472886Y-12769028D02*
X14463362Y-12730933D01*
X14463362Y-12730933D02*
X14463362Y-12683314D01*
X14463362Y-12683314D02*
X14472886Y-12645219D01*
X14472886Y-12645219D02*
X14482409Y-12626171D01*
X14482409Y-12626171D02*
X14491933Y-12616648D01*
X14491933Y-12616648D02*
X14510981Y-12607124D01*
X14663362Y-12807124D02*
X14663362Y-12673790D01*
X14663362Y-12692838D02*
X14672886Y-12683314D01*
X14672886Y-12683314D02*
X14691933Y-12673790D01*
X14691933Y-12673790D02*
X14720505Y-12673790D01*
X14720505Y-12673790D02*
X14739552Y-12683314D01*
X14739552Y-12683314D02*
X14749076Y-12702362D01*
X14749076Y-12702362D02*
X14749076Y-12807124D01*
X14749076Y-12702362D02*
X14758600Y-12683314D01*
X14758600Y-12683314D02*
X14777648Y-12673790D01*
X14777648Y-12673790D02*
X14806219Y-12673790D01*
X14806219Y-12673790D02*
X14825267Y-12683314D01*
X14825267Y-12683314D02*
X14834790Y-12702362D01*
X14834790Y-12702362D02*
X14834790Y-12807124D01*
X14930029Y-12807124D02*
X14930029Y-12673790D01*
X14930029Y-12692838D02*
X14939552Y-12683314D01*
X14939552Y-12683314D02*
X14958600Y-12673790D01*
X14958600Y-12673790D02*
X14987171Y-12673790D01*
X14987171Y-12673790D02*
X15006219Y-12683314D01*
X15006219Y-12683314D02*
X15015743Y-12702362D01*
X15015743Y-12702362D02*
X15015743Y-12807124D01*
X15015743Y-12702362D02*
X15025267Y-12683314D01*
X15025267Y-12683314D02*
X15044314Y-12673790D01*
X15044314Y-12673790D02*
X15072886Y-12673790D01*
X15072886Y-12673790D02*
X15091933Y-12683314D01*
X15091933Y-12683314D02*
X15101457Y-12702362D01*
X15101457Y-12702362D02*
X15101457Y-12807124D01*
X15491933Y-12597600D02*
X15320505Y-12854743D01*
X15749076Y-12607124D02*
X15768124Y-12607124D01*
X15768124Y-12607124D02*
X15787172Y-12616648D01*
X15787172Y-12616648D02*
X15796695Y-12626171D01*
X15796695Y-12626171D02*
X15806219Y-12645219D01*
X15806219Y-12645219D02*
X15815743Y-12683314D01*
X15815743Y-12683314D02*
X15815743Y-12730933D01*
X15815743Y-12730933D02*
X15806219Y-12769028D01*
X15806219Y-12769028D02*
X15796695Y-12788076D01*
X15796695Y-12788076D02*
X15787172Y-12797600D01*
X15787172Y-12797600D02*
X15768124Y-12807124D01*
X15768124Y-12807124D02*
X15749076Y-12807124D01*
X15749076Y-12807124D02*
X15730029Y-12797600D01*
X15730029Y-12797600D02*
X15720505Y-12788076D01*
X15720505Y-12788076D02*
X15710981Y-12769028D01*
X15710981Y-12769028D02*
X15701457Y-12730933D01*
X15701457Y-12730933D02*
X15701457Y-12683314D01*
X15701457Y-12683314D02*
X15710981Y-12645219D01*
X15710981Y-12645219D02*
X15720505Y-12626171D01*
X15720505Y-12626171D02*
X15730029Y-12616648D01*
X15730029Y-12616648D02*
X15749076Y-12607124D01*
X15901457Y-12788076D02*
X15910981Y-12797600D01*
X15910981Y-12797600D02*
X15901457Y-12807124D01*
X15901457Y-12807124D02*
X15891933Y-12797600D01*
X15891933Y-12797600D02*
X15901457Y-12788076D01*
X15901457Y-12788076D02*
X15901457Y-12807124D01*
X16034791Y-12607124D02*
X16053838Y-12607124D01*
X16053838Y-12607124D02*
X16072886Y-12616648D01*
X16072886Y-12616648D02*
X16082410Y-12626171D01*
X16082410Y-12626171D02*
X16091933Y-12645219D01*
X16091933Y-12645219D02*
X16101457Y-12683314D01*
X16101457Y-12683314D02*
X16101457Y-12730933D01*
X16101457Y-12730933D02*
X16091933Y-12769028D01*
X16091933Y-12769028D02*
X16082410Y-12788076D01*
X16082410Y-12788076D02*
X16072886Y-12797600D01*
X16072886Y-12797600D02*
X16053838Y-12807124D01*
X16053838Y-12807124D02*
X16034791Y-12807124D01*
X16034791Y-12807124D02*
X16015743Y-12797600D01*
X16015743Y-12797600D02*
X16006219Y-12788076D01*
X16006219Y-12788076D02*
X15996695Y-12769028D01*
X15996695Y-12769028D02*
X15987172Y-12730933D01*
X15987172Y-12730933D02*
X15987172Y-12683314D01*
X15987172Y-12683314D02*
X15996695Y-12645219D01*
X15996695Y-12645219D02*
X16006219Y-12626171D01*
X16006219Y-12626171D02*
X16015743Y-12616648D01*
X16015743Y-12616648D02*
X16034791Y-12607124D01*
X16215743Y-12692838D02*
X16196695Y-12683314D01*
X16196695Y-12683314D02*
X16187172Y-12673790D01*
X16187172Y-12673790D02*
X16177648Y-12654743D01*
X16177648Y-12654743D02*
X16177648Y-12645219D01*
X16177648Y-12645219D02*
X16187172Y-12626171D01*
X16187172Y-12626171D02*
X16196695Y-12616648D01*
X16196695Y-12616648D02*
X16215743Y-12607124D01*
X16215743Y-12607124D02*
X16253838Y-12607124D01*
X16253838Y-12607124D02*
X16272886Y-12616648D01*
X16272886Y-12616648D02*
X16282410Y-12626171D01*
X16282410Y-12626171D02*
X16291933Y-12645219D01*
X16291933Y-12645219D02*
X16291933Y-12654743D01*
X16291933Y-12654743D02*
X16282410Y-12673790D01*
X16282410Y-12673790D02*
X16272886Y-12683314D01*
X16272886Y-12683314D02*
X16253838Y-12692838D01*
X16253838Y-12692838D02*
X16215743Y-12692838D01*
X16215743Y-12692838D02*
X16196695Y-12702362D01*
X16196695Y-12702362D02*
X16187172Y-12711886D01*
X16187172Y-12711886D02*
X16177648Y-12730933D01*
X16177648Y-12730933D02*
X16177648Y-12769028D01*
X16177648Y-12769028D02*
X16187172Y-12788076D01*
X16187172Y-12788076D02*
X16196695Y-12797600D01*
X16196695Y-12797600D02*
X16215743Y-12807124D01*
X16215743Y-12807124D02*
X16253838Y-12807124D01*
X16253838Y-12807124D02*
X16272886Y-12797600D01*
X16272886Y-12797600D02*
X16282410Y-12788076D01*
X16282410Y-12788076D02*
X16291933Y-12769028D01*
X16291933Y-12769028D02*
X16291933Y-12730933D01*
X16291933Y-12730933D02*
X16282410Y-12711886D01*
X16282410Y-12711886D02*
X16272886Y-12702362D01*
X16272886Y-12702362D02*
X16253838Y-12692838D01*
X16463362Y-12607124D02*
X16425267Y-12607124D01*
X16425267Y-12607124D02*
X16406219Y-12616648D01*
X16406219Y-12616648D02*
X16396695Y-12626171D01*
X16396695Y-12626171D02*
X16377648Y-12654743D01*
X16377648Y-12654743D02*
X16368124Y-12692838D01*
X16368124Y-12692838D02*
X16368124Y-12769028D01*
X16368124Y-12769028D02*
X16377648Y-12788076D01*
X16377648Y-12788076D02*
X16387172Y-12797600D01*
X16387172Y-12797600D02*
X16406219Y-12807124D01*
X16406219Y-12807124D02*
X16444314Y-12807124D01*
X16444314Y-12807124D02*
X16463362Y-12797600D01*
X16463362Y-12797600D02*
X16472886Y-12788076D01*
X16472886Y-12788076D02*
X16482410Y-12769028D01*
X16482410Y-12769028D02*
X16482410Y-12721409D01*
X16482410Y-12721409D02*
X16472886Y-12702362D01*
X16472886Y-12702362D02*
X16463362Y-12692838D01*
X16463362Y-12692838D02*
X16444314Y-12683314D01*
X16444314Y-12683314D02*
X16406219Y-12683314D01*
X16406219Y-12683314D02*
X16387172Y-12692838D01*
X16387172Y-12692838D02*
X16377648Y-12702362D01*
X16377648Y-12702362D02*
X16368124Y-12721409D01*
X16653838Y-12607124D02*
X16615743Y-12607124D01*
X16615743Y-12607124D02*
X16596695Y-12616648D01*
X16596695Y-12616648D02*
X16587172Y-12626171D01*
X16587172Y-12626171D02*
X16568124Y-12654743D01*
X16568124Y-12654743D02*
X16558600Y-12692838D01*
X16558600Y-12692838D02*
X16558600Y-12769028D01*
X16558600Y-12769028D02*
X16568124Y-12788076D01*
X16568124Y-12788076D02*
X16577648Y-12797600D01*
X16577648Y-12797600D02*
X16596695Y-12807124D01*
X16596695Y-12807124D02*
X16634791Y-12807124D01*
X16634791Y-12807124D02*
X16653838Y-12797600D01*
X16653838Y-12797600D02*
X16663362Y-12788076D01*
X16663362Y-12788076D02*
X16672886Y-12769028D01*
X16672886Y-12769028D02*
X16672886Y-12721409D01*
X16672886Y-12721409D02*
X16663362Y-12702362D01*
X16663362Y-12702362D02*
X16653838Y-12692838D01*
X16653838Y-12692838D02*
X16634791Y-12683314D01*
X16634791Y-12683314D02*
X16596695Y-12683314D01*
X16596695Y-12683314D02*
X16577648Y-12692838D01*
X16577648Y-12692838D02*
X16568124Y-12702362D01*
X16568124Y-12702362D02*
X16558600Y-12721409D01*
X16749076Y-12607124D02*
X16749076Y-12645219D01*
X16825267Y-12607124D02*
X16825267Y-12645219D01*
X17120505Y-12883314D02*
X17110981Y-12873790D01*
X17110981Y-12873790D02*
X17091934Y-12845219D01*
X17091934Y-12845219D02*
X17082410Y-12826171D01*
X17082410Y-12826171D02*
X17072886Y-12797600D01*
X17072886Y-12797600D02*
X17063362Y-12749981D01*
X17063362Y-12749981D02*
X17063362Y-12711886D01*
X17063362Y-12711886D02*
X17072886Y-12664267D01*
X17072886Y-12664267D02*
X17082410Y-12635695D01*
X17082410Y-12635695D02*
X17091934Y-12616648D01*
X17091934Y-12616648D02*
X17110981Y-12588076D01*
X17110981Y-12588076D02*
X17120505Y-12578552D01*
X17282410Y-12673790D02*
X17282410Y-12807124D01*
X17234791Y-12597600D02*
X17187172Y-12740457D01*
X17187172Y-12740457D02*
X17310981Y-12740457D01*
X17539553Y-12807124D02*
X17539553Y-12607124D01*
X17625267Y-12807124D02*
X17625267Y-12702362D01*
X17625267Y-12702362D02*
X17615743Y-12683314D01*
X17615743Y-12683314D02*
X17596696Y-12673790D01*
X17596696Y-12673790D02*
X17568124Y-12673790D01*
X17568124Y-12673790D02*
X17549077Y-12683314D01*
X17549077Y-12683314D02*
X17539553Y-12692838D01*
X17749077Y-12807124D02*
X17730029Y-12797600D01*
X17730029Y-12797600D02*
X17720505Y-12788076D01*
X17720505Y-12788076D02*
X17710981Y-12769028D01*
X17710981Y-12769028D02*
X17710981Y-12711886D01*
X17710981Y-12711886D02*
X17720505Y-12692838D01*
X17720505Y-12692838D02*
X17730029Y-12683314D01*
X17730029Y-12683314D02*
X17749077Y-12673790D01*
X17749077Y-12673790D02*
X17777648Y-12673790D01*
X17777648Y-12673790D02*
X17796696Y-12683314D01*
X17796696Y-12683314D02*
X17806219Y-12692838D01*
X17806219Y-12692838D02*
X17815743Y-12711886D01*
X17815743Y-12711886D02*
X17815743Y-12769028D01*
X17815743Y-12769028D02*
X17806219Y-12788076D01*
X17806219Y-12788076D02*
X17796696Y-12797600D01*
X17796696Y-12797600D02*
X17777648Y-12807124D01*
X17777648Y-12807124D02*
X17749077Y-12807124D01*
X17930029Y-12807124D02*
X17910981Y-12797600D01*
X17910981Y-12797600D02*
X17901458Y-12778552D01*
X17901458Y-12778552D02*
X17901458Y-12607124D01*
X18082410Y-12797600D02*
X18063362Y-12807124D01*
X18063362Y-12807124D02*
X18025267Y-12807124D01*
X18025267Y-12807124D02*
X18006219Y-12797600D01*
X18006219Y-12797600D02*
X17996696Y-12778552D01*
X17996696Y-12778552D02*
X17996696Y-12702362D01*
X17996696Y-12702362D02*
X18006219Y-12683314D01*
X18006219Y-12683314D02*
X18025267Y-12673790D01*
X18025267Y-12673790D02*
X18063362Y-12673790D01*
X18063362Y-12673790D02*
X18082410Y-12683314D01*
X18082410Y-12683314D02*
X18091934Y-12702362D01*
X18091934Y-12702362D02*
X18091934Y-12721409D01*
X18091934Y-12721409D02*
X17996696Y-12740457D01*
X18168124Y-12797600D02*
X18187172Y-12807124D01*
X18187172Y-12807124D02*
X18225267Y-12807124D01*
X18225267Y-12807124D02*
X18244315Y-12797600D01*
X18244315Y-12797600D02*
X18253839Y-12778552D01*
X18253839Y-12778552D02*
X18253839Y-12769028D01*
X18253839Y-12769028D02*
X18244315Y-12749981D01*
X18244315Y-12749981D02*
X18225267Y-12740457D01*
X18225267Y-12740457D02*
X18196696Y-12740457D01*
X18196696Y-12740457D02*
X18177648Y-12730933D01*
X18177648Y-12730933D02*
X18168124Y-12711886D01*
X18168124Y-12711886D02*
X18168124Y-12702362D01*
X18168124Y-12702362D02*
X18177648Y-12683314D01*
X18177648Y-12683314D02*
X18196696Y-12673790D01*
X18196696Y-12673790D02*
X18225267Y-12673790D01*
X18225267Y-12673790D02*
X18244315Y-12683314D01*
X18320505Y-12883314D02*
X18330029Y-12873790D01*
X18330029Y-12873790D02*
X18349077Y-12845219D01*
X18349077Y-12845219D02*
X18358600Y-12826171D01*
X18358600Y-12826171D02*
X18368124Y-12797600D01*
X18368124Y-12797600D02*
X18377648Y-12749981D01*
X18377648Y-12749981D02*
X18377648Y-12711886D01*
X18377648Y-12711886D02*
X18368124Y-12664267D01*
X18368124Y-12664267D02*
X18358600Y-12635695D01*
X18358600Y-12635695D02*
X18349077Y-12616648D01*
X18349077Y-12616648D02*
X18330029Y-12588076D01*
X18330029Y-12588076D02*
X18320505Y-12578552D01*
M02*
