%TF.GenerationSoftware,KiCad,Pcbnew,7.0.1*%
%TF.CreationDate,2023-06-01T10:42:52-07:00*%
%TF.ProjectId,tn_vdp_v2_board,746e5f76-6470-45f7-9632-5f626f617264,rev?*%
%TF.SameCoordinates,Original*%
%TF.FileFunction,Copper,L1,Top*%
%TF.FilePolarity,Positive*%
%FSLAX46Y46*%
G04 Gerber Fmt 4.6, Leading zero omitted, Abs format (unit mm)*
G04 Created by KiCad (PCBNEW 7.0.1) date 2023-06-01 10:42:52*
%MOMM*%
%LPD*%
G01*
G04 APERTURE LIST*
%TA.AperFunction,ComponentPad*%
%ADD10R,2.400000X1.600000*%
%TD*%
%TA.AperFunction,ComponentPad*%
%ADD11O,2.400000X1.600000*%
%TD*%
%TA.AperFunction,ComponentPad*%
%ADD12R,1.700000X1.700000*%
%TD*%
%TA.AperFunction,ComponentPad*%
%ADD13O,1.700000X1.700000*%
%TD*%
%TA.AperFunction,ComponentPad*%
%ADD14C,1.600000*%
%TD*%
%TA.AperFunction,ComponentPad*%
%ADD15C,3.500000*%
%TD*%
%TA.AperFunction,ViaPad*%
%ADD16C,0.800000*%
%TD*%
%TA.AperFunction,Conductor*%
%ADD17C,0.250000*%
%TD*%
G04 APERTURE END LIST*
D10*
%TO.P,U3,1,DIR*%
%TO.N,VCC*%
X138337000Y-50800000D03*
D11*
%TO.P,U3,2,A0*%
%TO.N,~{RESET}*%
X138337000Y-53340000D03*
%TO.P,U3,3,A1*%
%TO.N,~{INT_3V3}*%
X138337000Y-55880000D03*
%TO.P,U3,4,A2*%
%TO.N,~{CSW}*%
X138337000Y-58420000D03*
%TO.P,U3,5,A3*%
%TO.N,~{CSR}*%
X138337000Y-60960000D03*
%TO.P,U3,6,A4*%
%TO.N,MODE*%
X138337000Y-63500000D03*
%TO.P,U3,7,A5*%
%TO.N,CPUCLK_3V3*%
X138337000Y-66040000D03*
%TO.P,U3,8,A6*%
%TO.N,GROMCLK_3V3*%
X138337000Y-68580000D03*
%TO.P,U3,9,A7*%
%TO.N,MODE1*%
X138337000Y-71120000D03*
%TO.P,U3,10,GND*%
%TO.N,GND*%
X138337000Y-73660000D03*
%TO.P,U3,11,B7*%
%TO.N,MODE1_3V3*%
X145957000Y-73660000D03*
%TO.P,U3,12,B6*%
%TO.N,GROMCLK*%
X145957000Y-71120000D03*
%TO.P,U3,13,B5*%
%TO.N,CPUCLK*%
X145957000Y-68580000D03*
%TO.P,U3,14,B4*%
%TO.N,MODE_3V3*%
X145957000Y-66040000D03*
%TO.P,U3,15,B3*%
%TO.N,~{CSR_3V3}*%
X145957000Y-63500000D03*
%TO.P,U3,16,B2*%
%TO.N,~{CSW_3V3}*%
X145957000Y-60960000D03*
%TO.P,U3,17,B1*%
%TO.N,~{INT}*%
X145957000Y-58420000D03*
%TO.P,U3,18,B0*%
%TO.N,~{RESET_3V3}*%
X145957000Y-55880000D03*
%TO.P,U3,19,~{0E}*%
%TO.N,GND*%
X145957000Y-53340000D03*
%TO.P,U3,20,VCC*%
%TO.N,VCC_3V3*%
X145957000Y-50800000D03*
%TD*%
D12*
%TO.P,J2,1,Pin_1*%
%TO.N,GND*%
X183525000Y-73660000D03*
D13*
%TO.P,J2,2,Pin_2*%
%TO.N,VCC*%
X180985000Y-73660000D03*
%TO.P,J2,3,Pin_3*%
%TO.N,GND*%
X183525000Y-71120000D03*
%TO.P,J2,4,Pin_4*%
%TO.N,CPUCLK*%
X180985000Y-71120000D03*
%TO.P,J2,5,Pin_5*%
%TO.N,CD0*%
X183525000Y-68580000D03*
%TO.P,J2,6,Pin_6*%
%TO.N,GROMCLK*%
X180985000Y-68580000D03*
%TO.P,J2,7,Pin_7*%
%TO.N,CD1*%
X183525000Y-66040000D03*
%TO.P,J2,8,Pin_8*%
%TO.N,AUDIO*%
X180985000Y-66040000D03*
%TO.P,J2,9,Pin_9*%
%TO.N,CD2*%
X183525000Y-63500000D03*
%TO.P,J2,10,Pin_10*%
%TO.N,MODE1*%
X180985000Y-63500000D03*
%TO.P,J2,11,Pin_11*%
%TO.N,CD3*%
X183525000Y-60960000D03*
%TO.P,J2,12,Pin_12*%
%TO.N,~{RESET}*%
X180985000Y-60960000D03*
%TO.P,J2,13,Pin_13*%
%TO.N,CD4*%
X183525000Y-58420000D03*
%TO.P,J2,14,Pin_14*%
%TO.N,MODE*%
X180985000Y-58420000D03*
%TO.P,J2,15,Pin_15*%
%TO.N,CD5*%
X183525000Y-55880000D03*
%TO.P,J2,16,Pin_16*%
%TO.N,~{CSW}*%
X180985000Y-55880000D03*
%TO.P,J2,17,Pin_17*%
%TO.N,CD6*%
X183525000Y-53340000D03*
%TO.P,J2,18,Pin_18*%
%TO.N,~{CSR}*%
X180985000Y-53340000D03*
%TO.P,J2,19,Pin_19*%
%TO.N,CD7*%
X183525000Y-50800000D03*
%TO.P,J2,20,Pin_20*%
%TO.N,~{INT}*%
X180985000Y-50800000D03*
%TD*%
D12*
%TO.P,J3,1,Pin_1*%
%TO.N,MODE_3V3*%
X150261100Y-50535000D03*
D13*
%TO.P,J3,2,Pin_2*%
%TO.N,~{CSW_3V3}*%
X150261100Y-53075000D03*
%TO.P,J3,3,Pin_3*%
%TO.N,~{CSR_3V3}*%
X150261100Y-55615000D03*
%TO.P,J3,4,Pin_4*%
%TO.N,~{INT_3V3}*%
X150261100Y-58155000D03*
%TO.P,J3,5,Pin_5*%
%TO.N,CPUCLK_3V3*%
X150261100Y-60695000D03*
%TO.P,J3,6,Pin_6*%
%TO.N,GROMCLK_3V3*%
X150261100Y-63235000D03*
%TO.P,J3,7,Pin_7*%
%TO.N,~{RESET_3V3}*%
X150261100Y-65775000D03*
%TO.P,J3,8,Pin_8*%
%TO.N,CD0_3V3*%
X150261100Y-68315000D03*
%TO.P,J3,9,Pin_9*%
%TO.N,CD1_3V3*%
X150261100Y-70855000D03*
%TO.P,J3,10,Pin_10*%
%TO.N,CD2_3V3*%
X150261100Y-73395000D03*
%TO.P,J3,11,Pin_11*%
%TO.N,CD3_3V3*%
X150261100Y-75935000D03*
%TO.P,J3,12,Pin_12*%
%TO.N,CD4_3V3*%
X150261100Y-78475000D03*
%TO.P,J3,13,Pin_13*%
%TO.N,CD5_3V3*%
X150261100Y-81015000D03*
%TO.P,J3,14,Pin_14*%
%TO.N,CD6_3V3*%
X150261100Y-83555000D03*
%TO.P,J3,15,Pin_15*%
%TO.N,CD7_3V3*%
X150261100Y-86095000D03*
%TO.P,J3,16,Pin_16*%
%TO.N,MODE1_3V3*%
X150261100Y-88635000D03*
%TO.P,J3,17,Pin_17*%
%TO.N,unconnected-(J3-Pin_17-Pad17)*%
X150261100Y-91175000D03*
%TO.P,J3,18,Pin_18*%
%TO.N,unconnected-(J3-Pin_18-Pad18)*%
X150261100Y-93715000D03*
%TO.P,J3,19,Pin_19*%
%TO.N,unconnected-(J3-Pin_19-Pad19)*%
X150261100Y-96255000D03*
%TO.P,J3,20,Pin_20*%
%TO.N,unconnected-(J3-Pin_20-Pad20)*%
X150261100Y-98795000D03*
%TO.P,J3,21,Pin_21*%
%TO.N,unconnected-(J3-Pin_21-Pad21)*%
X150261100Y-101335000D03*
%TO.P,J3,22,Pin_22*%
%TO.N,unconnected-(J3-Pin_22-Pad22)*%
X150261100Y-103875000D03*
%TO.P,J3,23,Pin_23*%
%TO.N,unconnected-(J3-Pin_23-Pad23)*%
X150261100Y-106415000D03*
%TO.P,J3,24,Pin_24*%
%TO.N,unconnected-(J3-Pin_24-Pad24)*%
X150261100Y-108955000D03*
%TD*%
D14*
%TO.P,C2,1*%
%TO.N,VCC_3V3*%
X160124000Y-76951000D03*
%TO.P,C2,2*%
%TO.N,GND*%
X157624000Y-76951000D03*
%TD*%
D15*
%TO.P,H1,1*%
%TO.N,N/C*%
X137668000Y-46990000D03*
%TD*%
D14*
%TO.P,C4,1*%
%TO.N,VCC_3V3*%
X179955000Y-107500000D03*
%TO.P,C4,2*%
%TO.N,GND*%
X177455000Y-107500000D03*
%TD*%
%TO.P,C1,1*%
%TO.N,VCC_3V3*%
X140750000Y-76835000D03*
%TO.P,C1,2*%
%TO.N,GND*%
X138250000Y-76835000D03*
%TD*%
D10*
%TO.P,U4,1,~{CS}/SHDN*%
%TO.N,ADC_CS*%
X177425000Y-96450000D03*
D11*
%TO.P,U4,2,CH0*%
%TO.N,AUDIO*%
X177425000Y-98990000D03*
%TO.P,U4,3,CH1*%
X177425000Y-101530000D03*
%TO.P,U4,4,VSS*%
%TO.N,GND*%
X177425000Y-104070000D03*
%TO.P,U4,5,DIN*%
%TO.N,ADC_MOSI*%
X185045000Y-104070000D03*
%TO.P,U4,6,DOUT*%
%TO.N,ADC_MISO*%
X185045000Y-101530000D03*
%TO.P,U4,7,CLK*%
%TO.N,ADC_CLK*%
X185045000Y-98990000D03*
%TO.P,U4,8,VDD/VREF*%
%TO.N,VCC_3V3*%
X185045000Y-96450000D03*
%TD*%
D14*
%TO.P,C3,1*%
%TO.N,VCC_3V3*%
X165331000Y-82158000D03*
%TO.P,C3,2*%
%TO.N,GND*%
X162831000Y-82158000D03*
%TD*%
D15*
%TO.P,H3,1*%
%TO.N,N/C*%
X137668000Y-110744000D03*
%TD*%
D12*
%TO.P,J7,1,Pin_1*%
%TO.N,USR1_1V8*%
X180960000Y-84170000D03*
D13*
%TO.P,J7,2,Pin_2*%
%TO.N,GND*%
X183500000Y-84170000D03*
%TO.P,J7,3,Pin_3*%
%TO.N,USR2_1V8*%
X180960000Y-86710000D03*
%TO.P,J7,4,Pin_4*%
%TO.N,GND*%
X183500000Y-86710000D03*
%TO.P,J7,5,Pin_5*%
%TO.N,USR3_1V8*%
X180960000Y-89250000D03*
%TO.P,J7,6,Pin_6*%
%TO.N,GND*%
X183500000Y-89250000D03*
%TO.P,J7,7,Pin_7*%
%TO.N,USR4_1V8*%
X180960000Y-91790000D03*
%TO.P,J7,8,Pin_8*%
%TO.N,GND*%
X183500000Y-91790000D03*
%TD*%
D15*
%TO.P,H4,1*%
%TO.N,N/C*%
X185500000Y-110744000D03*
%TD*%
D12*
%TO.P,J4,1,Pin_1*%
%TO.N,unconnected-(J4-Pin_1-Pad1)*%
X173078000Y-50535000D03*
D13*
%TO.P,J4,2,Pin_2*%
%TO.N,USR1_1V8*%
X173078000Y-53075000D03*
%TO.P,J4,3,Pin_3*%
%TO.N,USR2_1V8*%
X173078000Y-55615000D03*
%TO.P,J4,4,Pin_4*%
%TO.N,USR3_1V8*%
X173078000Y-58155000D03*
%TO.P,J4,5,Pin_5*%
%TO.N,USR4_1V8*%
X173078000Y-60695000D03*
%TO.P,J4,6,Pin_6*%
%TO.N,unconnected-(J4-Pin_6-Pad6)*%
X173078000Y-63235000D03*
%TO.P,J4,7,Pin_7*%
%TO.N,unconnected-(J4-Pin_7-Pad7)*%
X173078000Y-65775000D03*
%TO.P,J4,8,Pin_8*%
%TO.N,unconnected-(J4-Pin_8-Pad8)*%
X173078000Y-68315000D03*
%TO.P,J4,9,Pin_9*%
%TO.N,unconnected-(J4-Pin_9-Pad9)*%
X173078000Y-70855000D03*
%TO.P,J4,10,Pin_10*%
%TO.N,unconnected-(J4-Pin_10-Pad10)*%
X173078000Y-73395000D03*
%TO.P,J4,11,Pin_11*%
%TO.N,unconnected-(J4-Pin_11-Pad11)*%
X173078000Y-75935000D03*
%TO.P,J4,12,Pin_12*%
%TO.N,unconnected-(J4-Pin_12-Pad12)*%
X173078000Y-78475000D03*
%TO.P,J4,13,Pin_13*%
%TO.N,unconnected-(J4-Pin_13-Pad13)*%
X173078000Y-81015000D03*
%TO.P,J4,14,Pin_14*%
%TO.N,unconnected-(J4-Pin_14-Pad14)*%
X173078000Y-83555000D03*
%TO.P,J4,15,Pin_15*%
%TO.N,unconnected-(J4-Pin_15-Pad15)*%
X173078000Y-86095000D03*
%TO.P,J4,16,Pin_16*%
%TO.N,unconnected-(J4-Pin_16-Pad16)*%
X173078000Y-88635000D03*
%TO.P,J4,17,Pin_17*%
%TO.N,unconnected-(J4-Pin_17-Pad17)*%
X173078000Y-91175000D03*
%TO.P,J4,18,Pin_18*%
%TO.N,VCC*%
X173078000Y-93715000D03*
%TO.P,J4,19,Pin_19*%
%TO.N,ADC_CLK*%
X173078000Y-96255000D03*
%TO.P,J4,20,Pin_20*%
%TO.N,ADC_CS*%
X173078000Y-98795000D03*
%TO.P,J4,21,Pin_21*%
%TO.N,ADC_MISO*%
X173078000Y-101335000D03*
%TO.P,J4,22,Pin_22*%
%TO.N,ADC_MOSI*%
X173078000Y-103875000D03*
%TO.P,J4,23,Pin_23*%
%TO.N,GND*%
X173078000Y-106415000D03*
%TO.P,J4,24,Pin_24*%
%TO.N,VCC_3V3*%
X173078000Y-108955000D03*
%TD*%
D10*
%TO.P,U2,1,DIR*%
%TO.N,VCC*%
X157670200Y-50946400D03*
D11*
%TO.P,U2,2,A0*%
%TO.N,CD0*%
X157670200Y-53486400D03*
%TO.P,U2,3,A1*%
%TO.N,CD1*%
X157670200Y-56026400D03*
%TO.P,U2,4,A2*%
%TO.N,CD2*%
X157670200Y-58566400D03*
%TO.P,U2,5,A3*%
%TO.N,CD3*%
X157670200Y-61106400D03*
%TO.P,U2,6,A4*%
%TO.N,CD4*%
X157670200Y-63646400D03*
%TO.P,U2,7,A5*%
%TO.N,CD5*%
X157670200Y-66186400D03*
%TO.P,U2,8,A6*%
%TO.N,CD6*%
X157670200Y-68726400D03*
%TO.P,U2,9,A7*%
%TO.N,CD7*%
X157670200Y-71266400D03*
%TO.P,U2,10,GND*%
%TO.N,GND*%
X157670200Y-73806400D03*
%TO.P,U2,11,B7*%
%TO.N,CD7_3V3*%
X165290200Y-73806400D03*
%TO.P,U2,12,B6*%
%TO.N,CD6_3V3*%
X165290200Y-71266400D03*
%TO.P,U2,13,B5*%
%TO.N,CD5_3V3*%
X165290200Y-68726400D03*
%TO.P,U2,14,B4*%
%TO.N,CD4_3V3*%
X165290200Y-66186400D03*
%TO.P,U2,15,B3*%
%TO.N,CD3_3V3*%
X165290200Y-63646400D03*
%TO.P,U2,16,B2*%
%TO.N,CD2_3V3*%
X165290200Y-61106400D03*
%TO.P,U2,17,B1*%
%TO.N,CD1_3V3*%
X165290200Y-58566400D03*
%TO.P,U2,18,B0*%
%TO.N,CD0_3V3*%
X165290200Y-56026400D03*
%TO.P,U2,19,~{0E}*%
%TO.N,~{CSW}*%
X165290200Y-53486400D03*
%TO.P,U2,20,VCC*%
%TO.N,VCC_3V3*%
X165290200Y-50946400D03*
%TD*%
D15*
%TO.P,H2,1*%
%TO.N,N/C*%
X185500000Y-46990000D03*
%TD*%
D10*
%TO.P,U1,1,DIR*%
%TO.N,GND*%
X157711000Y-85333000D03*
D11*
%TO.P,U1,2,A0*%
%TO.N,CD0*%
X157711000Y-87873000D03*
%TO.P,U1,3,A1*%
%TO.N,CD1*%
X157711000Y-90413000D03*
%TO.P,U1,4,A2*%
%TO.N,CD2*%
X157711000Y-92953000D03*
%TO.P,U1,5,A3*%
%TO.N,CD3*%
X157711000Y-95493000D03*
%TO.P,U1,6,A4*%
%TO.N,CD4*%
X157711000Y-98033000D03*
%TO.P,U1,7,A5*%
%TO.N,CD5*%
X157711000Y-100573000D03*
%TO.P,U1,8,A6*%
%TO.N,CD6*%
X157711000Y-103113000D03*
%TO.P,U1,9,A7*%
%TO.N,CD7*%
X157711000Y-105653000D03*
%TO.P,U1,10,GND*%
%TO.N,GND*%
X157711000Y-108193000D03*
%TO.P,U1,11,B7*%
%TO.N,CD7_3V3*%
X165331000Y-108193000D03*
%TO.P,U1,12,B6*%
%TO.N,CD6_3V3*%
X165331000Y-105653000D03*
%TO.P,U1,13,B5*%
%TO.N,CD5_3V3*%
X165331000Y-103113000D03*
%TO.P,U1,14,B4*%
%TO.N,CD4_3V3*%
X165331000Y-100573000D03*
%TO.P,U1,15,B3*%
%TO.N,CD3_3V3*%
X165331000Y-98033000D03*
%TO.P,U1,16,B2*%
%TO.N,CD2_3V3*%
X165331000Y-95493000D03*
%TO.P,U1,17,B1*%
%TO.N,CD1_3V3*%
X165331000Y-92953000D03*
%TO.P,U1,18,B0*%
%TO.N,CD0_3V3*%
X165331000Y-90413000D03*
%TO.P,U1,19,~{0E}*%
%TO.N,~{CSR}*%
X165331000Y-87873000D03*
%TO.P,U1,20,VCC*%
%TO.N,VCC_3V3*%
X165331000Y-85333000D03*
%TD*%
D12*
%TO.P,J1,1,Pin_1*%
%TO.N,GND*%
X139460000Y-83540000D03*
D13*
%TO.P,J1,2,Pin_2*%
%TO.N,VCC*%
X142000000Y-83540000D03*
%TO.P,J1,3,Pin_3*%
%TO.N,GND*%
X139460000Y-86080000D03*
%TO.P,J1,4,Pin_4*%
%TO.N,CPUCLK*%
X142000000Y-86080000D03*
%TO.P,J1,5,Pin_5*%
%TO.N,CD0*%
X139460000Y-88620000D03*
%TO.P,J1,6,Pin_6*%
%TO.N,GROMCLK*%
X142000000Y-88620000D03*
%TO.P,J1,7,Pin_7*%
%TO.N,CD1*%
X139460000Y-91160000D03*
%TO.P,J1,8,Pin_8*%
%TO.N,AUDIO*%
X142000000Y-91160000D03*
%TO.P,J1,9,Pin_9*%
%TO.N,CD2*%
X139460000Y-93700000D03*
%TO.P,J1,10,Pin_10*%
%TO.N,MODE1*%
X142000000Y-93700000D03*
%TO.P,J1,11,Pin_11*%
%TO.N,CD3*%
X139460000Y-96240000D03*
%TO.P,J1,12,Pin_12*%
%TO.N,~{RESET}*%
X142000000Y-96240000D03*
%TO.P,J1,13,Pin_13*%
%TO.N,CD4*%
X139460000Y-98780000D03*
%TO.P,J1,14,Pin_14*%
%TO.N,MODE*%
X142000000Y-98780000D03*
%TO.P,J1,15,Pin_15*%
%TO.N,CD5*%
X139460000Y-101320000D03*
%TO.P,J1,16,Pin_16*%
%TO.N,~{CSW}*%
X142000000Y-101320000D03*
%TO.P,J1,17,Pin_17*%
%TO.N,CD6*%
X139460000Y-103860000D03*
%TO.P,J1,18,Pin_18*%
%TO.N,~{CSR}*%
X142000000Y-103860000D03*
%TO.P,J1,19,Pin_19*%
%TO.N,CD7*%
X139460000Y-106400000D03*
%TO.P,J1,20,Pin_20*%
%TO.N,~{INT}*%
X142000000Y-106400000D03*
%TD*%
D16*
%TO.N,CPUCLK_3V3*%
X142507900Y-62308900D03*
%TO.N,GROMCLK_3V3*%
X141981700Y-67165200D03*
%TO.N,CD0_3V3*%
X167780300Y-77067800D03*
%TO.N,~{CSR}*%
X162090800Y-90195600D03*
%TO.N,CD7*%
X174862900Y-85103300D03*
%TO.N,CD5*%
X160923000Y-85792800D03*
%TO.N,CD4*%
X162780300Y-59045600D03*
%TO.N,CD3*%
X163332800Y-56986600D03*
X148355700Y-93104000D03*
%TO.N,CD2*%
X152842900Y-83434000D03*
%TO.N,CD1*%
X147882600Y-92147200D03*
X160864700Y-56962100D03*
%TO.N,CD0*%
X168606200Y-74592300D03*
%TD*%
D17*
%TO.N,VCC_3V3*%
X163765100Y-50946400D02*
X162178600Y-49359900D01*
X160124000Y-76951000D02*
X165331000Y-82158000D01*
X148922200Y-49359900D02*
X147482100Y-50800000D01*
X165290200Y-50946400D02*
X163765100Y-50946400D01*
X162178600Y-49359900D02*
X148922200Y-49359900D01*
X145957000Y-50800000D02*
X147482100Y-50800000D01*
X165331000Y-82158000D02*
X165331000Y-85333000D01*
%TO.N,GND*%
X177455000Y-106162500D02*
X174505600Y-106162500D01*
X157624000Y-76951000D02*
X157624000Y-73852600D01*
X183500000Y-84170000D02*
X183500000Y-82994900D01*
X183500000Y-82994900D02*
X183525000Y-82969900D01*
X177455000Y-107500000D02*
X177455000Y-104100000D01*
X174505600Y-106162500D02*
X174253100Y-106415000D01*
X183525000Y-82969900D02*
X183525000Y-73660000D01*
X138250000Y-76835000D02*
X138250000Y-73747000D01*
X177455000Y-104100000D02*
X177425000Y-104070000D01*
X183525000Y-73660000D02*
X183525000Y-71120000D01*
X139460000Y-86080000D02*
X139460000Y-83540000D01*
X183500000Y-84170000D02*
X183500000Y-86710000D01*
X183500000Y-89250000D02*
X183500000Y-91790000D01*
X157670200Y-73806400D02*
X157670000Y-73806400D01*
X173078000Y-106415000D02*
X174253100Y-106415000D01*
X183500000Y-86710000D02*
X183500000Y-89250000D01*
X138250000Y-73747000D02*
X138337000Y-73660000D01*
X157624000Y-73852600D02*
X157670200Y-73806400D01*
X162831000Y-82158000D02*
X157624000Y-76951000D01*
%TO.N,AUDIO*%
X143216800Y-99238500D02*
X142405300Y-100050000D01*
X182175600Y-68040500D02*
X181350200Y-67215100D01*
X138250400Y-100857000D02*
X138250400Y-106886900D01*
X182175600Y-92252600D02*
X182175600Y-68040500D01*
X142405300Y-100050000D02*
X139057400Y-100050000D01*
X174142800Y-94985000D02*
X175243100Y-93884700D01*
X171818700Y-102553600D02*
X173671200Y-102553600D01*
X171818700Y-105056000D02*
X171818700Y-102553600D01*
X166606300Y-110268400D02*
X171818700Y-105056000D01*
X171818700Y-95774200D02*
X172607900Y-94985000D01*
X180543500Y-93884700D02*
X182175600Y-92252600D01*
X174694800Y-101530000D02*
X177425000Y-101530000D01*
X180985000Y-66040000D02*
X180985000Y-67215100D01*
X139057400Y-100050000D02*
X138250400Y-100857000D01*
X171818700Y-102553600D02*
X171818700Y-95774200D01*
X173671200Y-102553600D02*
X174694800Y-101530000D01*
X172607900Y-94985000D02*
X174142800Y-94985000D01*
X138250400Y-106886900D02*
X141631900Y-110268400D01*
X142000000Y-91160000D02*
X143216800Y-92376800D01*
X175243100Y-93884700D02*
X180543500Y-93884700D01*
X143216800Y-92376800D02*
X143216800Y-99238500D01*
X141631900Y-110268400D02*
X166606300Y-110268400D01*
X181350200Y-67215100D02*
X180985000Y-67215100D01*
%TO.N,USR1_1V8*%
X173078000Y-53075000D02*
X173078000Y-54250100D01*
X180960000Y-82994900D02*
X175672300Y-77707200D01*
X180960000Y-84170000D02*
X180960000Y-82994900D01*
X175672300Y-77707200D02*
X175672300Y-56479200D01*
X175672300Y-56479200D02*
X173443200Y-54250100D01*
X173443200Y-54250100D02*
X173078000Y-54250100D01*
%TO.N,USR2_1V8*%
X175164700Y-58550000D02*
X175164700Y-80547500D01*
X180960000Y-86710000D02*
X180960000Y-85534900D01*
X173404800Y-56790100D02*
X175164700Y-58550000D01*
X180152100Y-85534900D02*
X180960000Y-85534900D01*
X175164700Y-80547500D02*
X180152100Y-85534900D01*
X173078000Y-55615000D02*
X173078000Y-56790100D01*
X173078000Y-56790100D02*
X173404800Y-56790100D01*
%TO.N,USR3_1V8*%
X173078000Y-58155000D02*
X173078000Y-59330100D01*
X173078000Y-59330100D02*
X173405000Y-59330100D01*
X180960000Y-89250000D02*
X180960000Y-88074900D01*
X174714600Y-82196700D02*
X180592800Y-88074900D01*
X174714600Y-60639700D02*
X174714600Y-82196700D01*
X180592800Y-88074900D02*
X180960000Y-88074900D01*
X173405000Y-59330100D02*
X174714600Y-60639700D01*
%TO.N,USR4_1V8*%
X174264500Y-62729400D02*
X173405200Y-61870100D01*
X180960000Y-90614900D02*
X180592800Y-90614900D01*
X180592800Y-90614900D02*
X175588000Y-85610100D01*
X175588000Y-84803000D02*
X174264500Y-83479500D01*
X173405200Y-61870100D02*
X173078000Y-61870100D01*
X174264500Y-83479500D02*
X174264500Y-62729400D01*
X180960000Y-91790000D02*
X180960000Y-90614900D01*
X173078000Y-60695000D02*
X173078000Y-61870100D01*
X175588000Y-85610100D02*
X175588000Y-84803000D01*
%TO.N,MODE1*%
X143463600Y-67518500D02*
X143463600Y-50659200D01*
X139590700Y-79042800D02*
X139590700Y-75648300D01*
X139590700Y-75648300D02*
X139862100Y-75376900D01*
X140824900Y-91717100D02*
X140824900Y-80277000D01*
X139862100Y-71120000D02*
X143463600Y-67518500D01*
X142000000Y-93700000D02*
X142000000Y-92524900D01*
X180617800Y-62324900D02*
X180985000Y-62324900D01*
X139862100Y-75376900D02*
X139862100Y-71120000D01*
X138337000Y-71120000D02*
X139862100Y-71120000D01*
X180985000Y-63500000D02*
X180985000Y-62324900D01*
X178002700Y-52655000D02*
X178002700Y-59709800D01*
X143463600Y-50659200D02*
X145675400Y-48447400D01*
X178002700Y-59709800D02*
X180617800Y-62324900D01*
X145675400Y-48447400D02*
X173795100Y-48447400D01*
X173795100Y-48447400D02*
X178002700Y-52655000D01*
X140824900Y-80277000D02*
X139590700Y-79042800D01*
X141632700Y-92524900D02*
X140824900Y-91717100D01*
X142000000Y-92524900D02*
X141632700Y-92524900D01*
%TO.N,MODE1_3V3*%
X148652000Y-93833200D02*
X149086000Y-93399200D01*
X145957000Y-73660000D02*
X147482100Y-73660000D01*
X149893900Y-89810100D02*
X150261100Y-89810100D01*
X147482100Y-74126100D02*
X147152600Y-74455600D01*
X147152600Y-74455600D02*
X147152600Y-92984800D01*
X147482100Y-73660000D02*
X147482100Y-74126100D01*
X150261100Y-88635000D02*
X150261100Y-89810100D01*
X147152600Y-92984800D02*
X148001000Y-93833200D01*
X149086000Y-90618000D02*
X149893900Y-89810100D01*
X149086000Y-93399200D02*
X149086000Y-90618000D01*
X148001000Y-93833200D02*
X148652000Y-93833200D01*
%TO.N,VCC*%
X160320400Y-52071500D02*
X171669300Y-52071500D01*
X171851600Y-51889200D02*
X173590600Y-51889200D01*
X180985000Y-73660000D02*
X180985000Y-72484900D01*
X171669300Y-52071500D02*
X171851600Y-51889200D01*
X159195300Y-50946400D02*
X160320400Y-52071500D01*
X176777500Y-55076100D02*
X176777500Y-68644700D01*
X157670200Y-50946400D02*
X159195300Y-50946400D01*
X173590600Y-51889200D02*
X176777500Y-55076100D01*
X180617700Y-72484900D02*
X180985000Y-72484900D01*
X176777500Y-68644700D02*
X180617700Y-72484900D01*
%TO.N,MODE_3V3*%
X150261100Y-51710100D02*
X150628300Y-51710100D01*
X151478700Y-58643900D02*
X150697600Y-59425000D01*
X145957000Y-66040000D02*
X147482100Y-66040000D01*
X150697600Y-59425000D02*
X149791000Y-59425000D01*
X148707700Y-64814400D02*
X147482100Y-66040000D01*
X151478700Y-52560500D02*
X151478700Y-58643900D01*
X149791000Y-59425000D02*
X148707700Y-60508300D01*
X150628300Y-51710100D02*
X151478700Y-52560500D01*
X148707700Y-60508300D02*
X148707700Y-64814400D01*
X150261100Y-50535000D02*
X150261100Y-51710100D01*
%TO.N,~{CSW_3V3}*%
X149893900Y-54250100D02*
X147482100Y-56661900D01*
X150261100Y-54250100D02*
X149893900Y-54250100D01*
X150261100Y-53075000D02*
X150261100Y-54250100D01*
X145957000Y-60960000D02*
X147482100Y-60960000D01*
X147482100Y-56661900D02*
X147482100Y-60960000D01*
%TO.N,~{CSR_3V3}*%
X147482100Y-63500000D02*
X147991900Y-62990200D01*
X145957000Y-63500000D02*
X147482100Y-63500000D01*
X147991900Y-62990200D02*
X147991900Y-58694000D01*
X149895800Y-56790100D02*
X150261100Y-56790100D01*
X150261100Y-55615000D02*
X150261100Y-56790100D01*
X147991900Y-58694000D02*
X149895800Y-56790100D01*
%TO.N,CPUCLK_3V3*%
X142507900Y-63394200D02*
X142507900Y-62308900D01*
X138337000Y-66040000D02*
X139862100Y-66040000D01*
X139862100Y-66040000D02*
X142507900Y-63394200D01*
%TO.N,GROMCLK_3V3*%
X139862100Y-68580000D02*
X141276900Y-67165200D01*
X138337000Y-68580000D02*
X139862100Y-68580000D01*
X141276900Y-67165200D02*
X141981700Y-67165200D01*
%TO.N,CD0_3V3*%
X165290200Y-56054700D02*
X165042400Y-56302500D01*
X165042400Y-56302500D02*
X163024400Y-58320500D01*
X158279400Y-62521200D02*
X156789300Y-62521200D01*
X162480100Y-58320500D02*
X158279400Y-62521200D01*
X165290200Y-56026400D02*
X165290200Y-56054700D01*
X156789300Y-62521200D02*
X151436200Y-67874300D01*
X167780300Y-59040400D02*
X167780300Y-77067800D01*
X150261100Y-68315000D02*
X151436200Y-68315000D01*
X165042400Y-56302500D02*
X167780300Y-59040400D01*
X151436200Y-67874300D02*
X151436200Y-68315000D01*
X163024400Y-58320500D02*
X162480100Y-58320500D01*
%TO.N,CD1_3V3*%
X163782900Y-92953000D02*
X165331000Y-92953000D01*
X156922900Y-64771600D02*
X151436200Y-70258300D01*
X163765100Y-59728100D02*
X158721600Y-64771600D01*
X151436200Y-70258300D02*
X151436200Y-70855000D01*
X158721600Y-64771600D02*
X156922900Y-64771600D01*
X150261100Y-70855000D02*
X151436200Y-70855000D01*
X160136600Y-82885800D02*
X160136600Y-89306700D01*
X151436200Y-70855000D02*
X151436200Y-74185400D01*
X165290200Y-58566400D02*
X163765100Y-58566400D01*
X151436200Y-74185400D02*
X160136600Y-82885800D01*
X163765100Y-58566400D02*
X163765100Y-59728100D01*
X160136600Y-89306700D02*
X163782900Y-92953000D01*
%TO.N,CD2_3V3*%
X155684400Y-68707900D02*
X157080800Y-67311500D01*
X159686400Y-91373500D02*
X163805900Y-95493000D01*
X157080800Y-67311500D02*
X158608500Y-67311500D01*
X166856100Y-95493000D02*
X166856100Y-87369600D01*
X163765100Y-62154900D02*
X163765100Y-61106400D01*
X166856100Y-87369600D02*
X166089500Y-86603000D01*
X165331000Y-95493000D02*
X163805900Y-95493000D01*
X150261100Y-73395000D02*
X150261100Y-74570100D01*
X150261100Y-74570100D02*
X150775200Y-74570100D01*
X164545800Y-86603000D02*
X163255000Y-85312200D01*
X159686400Y-83481300D02*
X159686400Y-91373500D01*
X150775200Y-74570100D02*
X159686400Y-83481300D01*
X166089500Y-86603000D02*
X164545800Y-86603000D01*
X163255000Y-85312200D02*
X163255000Y-84173200D01*
X163255000Y-84173200D02*
X155684400Y-76602600D01*
X165331000Y-95493000D02*
X166856100Y-95493000D01*
X165290200Y-61106400D02*
X163765100Y-61106400D01*
X158608500Y-67311500D02*
X163765100Y-62154900D01*
X155684400Y-76602600D02*
X155684400Y-68707900D01*
%TO.N,CD3_3V3*%
X159236200Y-83735000D02*
X159236200Y-91598300D01*
X150261100Y-75935000D02*
X151436200Y-75935000D01*
X159236200Y-91598300D02*
X165331000Y-97693100D01*
X165331000Y-97693100D02*
X165331000Y-98033000D01*
X151436200Y-75935000D02*
X159236200Y-83735000D01*
%TO.N,CD4_3V3*%
X163805900Y-96981100D02*
X158362900Y-91538100D01*
X165331000Y-100573000D02*
X163805900Y-100573000D01*
X163805900Y-100573000D02*
X163805900Y-96981100D01*
X150628400Y-79650100D02*
X150261100Y-79650100D01*
X156845000Y-91538100D02*
X155285700Y-89978800D01*
X155285700Y-89978800D02*
X155285700Y-84307400D01*
X150261100Y-78475000D02*
X150261100Y-79650100D01*
X158362900Y-91538100D02*
X156845000Y-91538100D01*
X155285700Y-84307400D02*
X150628400Y-79650100D01*
%TO.N,CD5_3V3*%
X163805900Y-103113000D02*
X162517300Y-101824400D01*
X150261100Y-81015000D02*
X150261100Y-82190100D01*
X165331000Y-103113000D02*
X163805900Y-103113000D01*
X153159800Y-84777000D02*
X150572900Y-82190100D01*
X162517300Y-98288500D02*
X158451800Y-94223000D01*
X158451800Y-94223000D02*
X156931800Y-94223000D01*
X156931800Y-94223000D02*
X153159800Y-90451000D01*
X153159800Y-90451000D02*
X153159800Y-84777000D01*
X162517300Y-101824400D02*
X162517300Y-98288500D01*
X150572900Y-82190100D02*
X150261100Y-82190100D01*
%TO.N,CD6_3V3*%
X160947900Y-99256000D02*
X158454900Y-96763000D01*
X165331000Y-105653000D02*
X163805900Y-105653000D01*
X156957300Y-96763000D02*
X152468600Y-92274300D01*
X160947900Y-101010900D02*
X160947900Y-99256000D01*
X152468600Y-85762500D02*
X150261100Y-83555000D01*
X152468600Y-92274300D02*
X152468600Y-85762500D01*
X163805900Y-105653000D02*
X163805900Y-103868900D01*
X158454900Y-96763000D02*
X156957300Y-96763000D01*
X163805900Y-103868900D02*
X160947900Y-101010900D01*
%TO.N,CD7_3V3*%
X158472400Y-99303000D02*
X163195400Y-104026000D01*
X156926900Y-99303000D02*
X158472400Y-99303000D01*
X150261100Y-87270100D02*
X150628400Y-87270100D01*
X163195400Y-106057400D02*
X165331000Y-108193000D01*
X163195400Y-104026000D02*
X163195400Y-106057400D01*
X151436200Y-93812300D02*
X156926900Y-99303000D01*
X150628400Y-87270100D02*
X151436200Y-88077900D01*
X150261100Y-86095000D02*
X150261100Y-87270100D01*
X151436200Y-88077900D02*
X151436200Y-93812300D01*
%TO.N,ADC_CLK*%
X175183300Y-95324800D02*
X179854700Y-95324800D01*
X185045000Y-98990000D02*
X183519900Y-98990000D01*
X173078000Y-96255000D02*
X174253100Y-96255000D01*
X179854700Y-95324800D02*
X183519900Y-98990000D01*
X174253100Y-96255000D02*
X175183300Y-95324800D01*
%TO.N,ADC_CS*%
X177425000Y-96450000D02*
X175899900Y-96450000D01*
X174253100Y-98096800D02*
X175899900Y-96450000D01*
X174253100Y-98795000D02*
X174253100Y-98096800D01*
X173078000Y-98795000D02*
X174253100Y-98795000D01*
%TO.N,ADC_MISO*%
X173078000Y-101335000D02*
X174253100Y-101335000D01*
X182384400Y-100394500D02*
X183519900Y-101530000D01*
X175193600Y-100394500D02*
X182384400Y-100394500D01*
X185045000Y-101530000D02*
X183519900Y-101530000D01*
X174253100Y-101335000D02*
X175193600Y-100394500D01*
%TO.N,ADC_MOSI*%
X174253100Y-103875000D02*
X175193600Y-102934500D01*
X182384400Y-102934500D02*
X183519900Y-104070000D01*
X185045000Y-104070000D02*
X183519900Y-104070000D01*
X173078000Y-103875000D02*
X174253100Y-103875000D01*
X175193600Y-102934500D02*
X182384400Y-102934500D01*
%TO.N,MODE*%
X138337000Y-63500000D02*
X136811900Y-63500000D01*
X142000000Y-98780000D02*
X140824900Y-98780000D01*
X181352200Y-57244900D02*
X182160200Y-56436900D01*
X140824900Y-98780000D02*
X140824900Y-98412700D01*
X182160200Y-56436900D02*
X182160200Y-52814300D01*
X136337500Y-63974400D02*
X136811900Y-63500000D01*
X136326800Y-50339500D02*
X136326800Y-63014900D01*
X139153300Y-97604900D02*
X136337500Y-94789100D01*
X136326800Y-63014900D02*
X136811900Y-63500000D01*
X180985000Y-58420000D02*
X180985000Y-57244900D01*
X140017100Y-97604900D02*
X139153300Y-97604900D01*
X180985000Y-57244900D02*
X181352200Y-57244900D01*
X140824900Y-98412700D02*
X140017100Y-97604900D01*
X142034300Y-47094200D02*
X139758500Y-49370000D01*
X174383600Y-47094200D02*
X142034300Y-47094200D01*
X182160200Y-52814300D02*
X181415900Y-52070000D01*
X179359400Y-52070000D02*
X174383600Y-47094200D01*
X137296300Y-49370000D02*
X136326800Y-50339500D01*
X139758500Y-49370000D02*
X137296300Y-49370000D01*
X136337500Y-94789100D02*
X136337500Y-63974400D01*
X181415900Y-52070000D02*
X179359400Y-52070000D01*
%TO.N,~{CSW}*%
X138337000Y-58420000D02*
X136811900Y-58420000D01*
X174197100Y-47544300D02*
X145104000Y-47544300D01*
X136811900Y-52816500D02*
X136811900Y-58420000D01*
X179353100Y-53423300D02*
X179353100Y-52700300D01*
X180985000Y-54704900D02*
X180634700Y-54704900D01*
X180985000Y-55880000D02*
X180985000Y-54704900D01*
X140723100Y-51925200D02*
X137703200Y-51925200D01*
X179353100Y-52700300D02*
X174197100Y-47544300D01*
X180634700Y-54704900D02*
X179353100Y-53423300D01*
X137703200Y-51925200D02*
X136811900Y-52816500D01*
X145104000Y-47544300D02*
X140723100Y-51925200D01*
%TO.N,~{CSR}*%
X162090800Y-89588100D02*
X163805900Y-87873000D01*
X165331000Y-87873000D02*
X163805900Y-87873000D01*
X162090800Y-90195600D02*
X162090800Y-89588100D01*
%TO.N,~{INT}*%
X147519600Y-71551500D02*
X147519600Y-68117400D01*
X145215600Y-67310000D02*
X144431900Y-66526300D01*
X144431900Y-66526300D02*
X144431900Y-58420000D01*
X144094500Y-73523800D02*
X145228300Y-72390000D01*
X142000000Y-105224900D02*
X142367200Y-105224900D01*
X145228300Y-72390000D02*
X146681100Y-72390000D01*
X142367200Y-105224900D02*
X144094500Y-103497600D01*
X144094500Y-103497600D02*
X144094500Y-73523800D01*
X146712200Y-67310000D02*
X145215600Y-67310000D01*
X146681100Y-72390000D02*
X147519600Y-71551500D01*
X142000000Y-106400000D02*
X142000000Y-105224900D01*
X147519600Y-68117400D02*
X146712200Y-67310000D01*
X145957000Y-58420000D02*
X144431900Y-58420000D01*
%TO.N,CD7*%
X166398800Y-109772400D02*
X163355500Y-109772400D01*
X163355500Y-109772400D02*
X159236100Y-105653000D01*
X157670200Y-71266400D02*
X159195300Y-71266400D01*
X157711000Y-105653000D02*
X159236100Y-105653000D01*
X168733600Y-84894600D02*
X168733600Y-107437600D01*
X168733600Y-80804700D02*
X159195300Y-71266400D01*
X168733600Y-84894600D02*
X174654200Y-84894600D01*
X168733600Y-107437600D02*
X166398800Y-109772400D01*
X168733600Y-84894600D02*
X168733600Y-80804700D01*
X174654200Y-84894600D02*
X174862900Y-85103300D01*
%TO.N,CD6*%
X167360700Y-81441300D02*
X158455800Y-72536400D01*
X164396800Y-109322200D02*
X166202700Y-109322200D01*
X156936500Y-72536400D02*
X156134600Y-71734500D01*
X159236100Y-103113000D02*
X159236100Y-104161500D01*
X166202700Y-109322200D02*
X167360700Y-108164200D01*
X157711000Y-103113000D02*
X159236100Y-103113000D01*
X159236100Y-104161500D02*
X164396800Y-109322200D01*
X167360700Y-108164200D02*
X167360700Y-81441300D01*
X158455800Y-72536400D02*
X156936500Y-72536400D01*
X156134600Y-70262000D02*
X157670200Y-68726400D01*
X156134600Y-71734500D02*
X156134600Y-70262000D01*
%TO.N,CD5*%
X160923000Y-85792800D02*
X160923000Y-83035400D01*
X141495500Y-107586000D02*
X144650100Y-107586000D01*
X144650100Y-107586000D02*
X149536300Y-102699800D01*
X155216000Y-67115500D02*
X156145100Y-66186400D01*
X140635100Y-103302900D02*
X140635100Y-106725600D01*
X155216000Y-77328400D02*
X155216000Y-67115500D01*
X157711000Y-100573000D02*
X156185900Y-100573000D01*
X139827300Y-102495100D02*
X140635100Y-103302900D01*
X157670200Y-66186400D02*
X156145100Y-66186400D01*
X154059100Y-102699800D02*
X156185900Y-100573000D01*
X149536300Y-102699800D02*
X154059100Y-102699800D01*
X140635100Y-106725600D02*
X141495500Y-107586000D01*
X160923000Y-83035400D02*
X155216000Y-77328400D01*
X139460000Y-101320000D02*
X139460000Y-102495100D01*
X139460000Y-102495100D02*
X139827300Y-102495100D01*
%TO.N,CD4*%
X157670200Y-63646400D02*
X159195300Y-63646400D01*
X157590600Y-98033000D02*
X152018400Y-92460800D01*
X156743400Y-63646400D02*
X157670200Y-63646400D01*
X159195300Y-62630600D02*
X162780300Y-59045600D01*
X157711000Y-98033000D02*
X157590600Y-98033000D01*
X149068800Y-84120300D02*
X149068800Y-70385300D01*
X150657700Y-84825000D02*
X149773500Y-84825000D01*
X159195300Y-63646400D02*
X159195300Y-62630600D01*
X149869100Y-69585000D02*
X150804800Y-69585000D01*
X152018400Y-92460800D02*
X152018400Y-86185700D01*
X149773500Y-84825000D02*
X149068800Y-84120300D01*
X152018400Y-86185700D02*
X150657700Y-84825000D01*
X150804800Y-69585000D02*
X156743400Y-63646400D01*
X149068800Y-70385300D02*
X149869100Y-69585000D01*
%TO.N,CD3*%
X156145100Y-61552900D02*
X156145100Y-61106400D01*
X148618600Y-68219300D02*
X149792900Y-67045000D01*
X157670200Y-61106400D02*
X156145100Y-61106400D01*
X157774200Y-61106400D02*
X161894000Y-56986600D01*
X149792900Y-67045000D02*
X150653000Y-67045000D01*
X161894000Y-56986600D02*
X163332800Y-56986600D01*
X150653000Y-67045000D02*
X156145100Y-61552900D01*
X148355700Y-93104000D02*
X148618600Y-92841100D01*
X157670200Y-61106400D02*
X157774200Y-61106400D01*
X148618600Y-92841100D02*
X148618600Y-68219300D01*
%TO.N,CD2*%
X157589700Y-92953000D02*
X154835600Y-90198900D01*
X154835600Y-85426700D02*
X152842900Y-83434000D01*
X157711000Y-92953000D02*
X157589700Y-92953000D01*
X154835600Y-90198900D02*
X154835600Y-85426700D01*
%TO.N,CD1*%
X150620100Y-64567100D02*
X149772300Y-64567100D01*
X159929000Y-56026400D02*
X160864700Y-56962100D01*
X156145100Y-59042100D02*
X150620100Y-64567100D01*
X148168400Y-91861400D02*
X147882600Y-92147200D01*
X156145100Y-56139000D02*
X156145100Y-59042100D01*
X156257700Y-56026400D02*
X156145100Y-56139000D01*
X148168400Y-66171000D02*
X148168400Y-91861400D01*
X157651200Y-56026400D02*
X156257700Y-56026400D01*
X157651200Y-56026400D02*
X157670200Y-56026400D01*
X149772300Y-64567100D02*
X148168400Y-66171000D01*
X157670200Y-56026400D02*
X159929000Y-56026400D01*
%TO.N,CD0*%
X168606200Y-57343100D02*
X168606200Y-74592300D01*
X166164300Y-54901200D02*
X168606200Y-57343100D01*
X159195300Y-53486400D02*
X160610100Y-54901200D01*
X160610100Y-54901200D02*
X166164300Y-54901200D01*
X157670200Y-53486400D02*
X159195300Y-53486400D01*
%TO.N,~{RESET}*%
X180985000Y-59784900D02*
X180617800Y-59784900D01*
X139143800Y-95064900D02*
X136787700Y-92708800D01*
X139079100Y-64770000D02*
X139862100Y-63987000D01*
X174010600Y-47994400D02*
X145488600Y-47994400D01*
X140017100Y-95064900D02*
X139143800Y-95064900D01*
X145488600Y-47994400D02*
X140143000Y-53340000D01*
X138337000Y-53340000D02*
X139862100Y-53340000D01*
X140824900Y-96240000D02*
X140824900Y-95872700D01*
X139862100Y-63987000D02*
X139862100Y-53340000D01*
X137584000Y-64770000D02*
X139079100Y-64770000D01*
X140824900Y-95872700D02*
X140017100Y-95064900D01*
X180985000Y-60960000D02*
X180985000Y-59784900D01*
X178744000Y-52727800D02*
X174010600Y-47994400D01*
X136787700Y-92708800D02*
X136787700Y-65566300D01*
X136787700Y-65566300D02*
X137584000Y-64770000D01*
X140143000Y-53340000D02*
X139862100Y-53340000D01*
X178744000Y-57911100D02*
X178744000Y-52727800D01*
X142000000Y-96240000D02*
X140824900Y-96240000D01*
X180617800Y-59784900D02*
X178744000Y-57911100D01*
%TO.N,GROMCLK*%
X142000000Y-88620000D02*
X142000000Y-87444900D01*
X142000000Y-87444900D02*
X142367200Y-87444900D01*
X145957000Y-71120000D02*
X144431900Y-71120000D01*
X143644300Y-86167800D02*
X143644300Y-71907600D01*
X142367200Y-87444900D02*
X143644300Y-86167800D01*
X143644300Y-71907600D02*
X144431900Y-71120000D01*
%TO.N,CPUCLK*%
X145861900Y-48897600D02*
X173608600Y-48897600D01*
X145957000Y-68580000D02*
X144431900Y-68580000D01*
X144311200Y-68580000D02*
X143979500Y-68248300D01*
X180985000Y-71120000D02*
X180985000Y-69944900D01*
X173608600Y-48897600D02*
X177356200Y-52645200D01*
X144311200Y-68580000D02*
X144431900Y-68580000D01*
X142000000Y-86080000D02*
X142000000Y-84904900D01*
X142000000Y-84904900D02*
X142367300Y-84904900D01*
X143175100Y-84097100D02*
X143175100Y-69716100D01*
X143979500Y-50780000D02*
X145861900Y-48897600D01*
X180619600Y-69944900D02*
X180985000Y-69944900D01*
X177356200Y-66681500D02*
X180619600Y-69944900D01*
X143175100Y-69716100D02*
X144311200Y-68580000D01*
X143979500Y-68248300D02*
X143979500Y-50780000D01*
X177356200Y-52645200D02*
X177356200Y-66681500D01*
X142367300Y-84904900D02*
X143175100Y-84097100D01*
%TD*%
M02*
