M48
; DRILL file {KiCad 7.0.1} date Thu Jun  1 10:42:50 2023
; FORMAT={-:-/ absolute / inch / decimal}
; #@! TF.CreationDate,2023-06-01T10:42:50-07:00
; #@! TF.GenerationSoftware,Kicad,Pcbnew,7.0.1
; #@! TF.FileFunction,Plated,1,2,PTH
FMAT,2
INCH
; #@! TA.AperFunction,Plated,PTH,ViaDrill
T1C0.0157
; #@! TA.AperFunction,Plated,PTH,ComponentDrill
T2C0.0315
; #@! TA.AperFunction,Plated,PTH,ComponentDrill
T3C0.0394
; #@! TA.AperFunction,Plated,PTH,ComponentDrill
T4C0.0866
%
G90
G05
T1
X5.5898Y-2.6443
X5.6105Y-2.4531
X5.8221Y-3.6278
X5.8408Y-3.6655
X6.0174Y-3.2848
X6.3333Y-2.2426
X6.3356Y-3.3777
X6.3815Y-3.551
X6.4087Y-2.3246
X6.4304Y-2.2436
X6.6055Y-3.0342
X6.638Y-2.9367
X6.8844Y-3.3505
T2
X5.4429Y-3.025
X5.4463Y-2.0
X5.4463Y-2.1
X5.4463Y-2.2
X5.4463Y-2.3
X5.4463Y-2.4
X5.4463Y-2.5
X5.4463Y-2.6
X5.4463Y-2.7
X5.4463Y-2.8
X5.4463Y-2.9
X5.5413Y-3.025
X5.7463Y-2.0
X5.7463Y-2.1
X5.7463Y-2.2
X5.7463Y-2.3
X5.7463Y-2.4
X5.7463Y-2.5
X5.7463Y-2.6
X5.7463Y-2.7
X5.7463Y-2.8
X5.7463Y-2.9
X6.2057Y-3.0296
X6.2075Y-2.0058
X6.2075Y-2.1058
X6.2075Y-2.2058
X6.2075Y-2.3058
X6.2075Y-2.4058
X6.2075Y-2.5058
X6.2075Y-2.6058
X6.2075Y-2.7058
X6.2075Y-2.8058
X6.2075Y-2.9058
X6.2091Y-3.3596
X6.2091Y-3.4596
X6.2091Y-3.5596
X6.2091Y-3.6596
X6.2091Y-3.7596
X6.2091Y-3.8596
X6.2091Y-3.9596
X6.2091Y-4.0596
X6.2091Y-4.1596
X6.2091Y-4.2596
X6.3041Y-3.0296
X6.4107Y-3.2346
X6.5075Y-2.0058
X6.5075Y-2.1058
X6.5075Y-2.2058
X6.5075Y-2.3058
X6.5075Y-2.4058
X6.5075Y-2.5058
X6.5075Y-2.6058
X6.5075Y-2.7058
X6.5075Y-2.8058
X6.5075Y-2.9058
X6.5091Y-3.2346
X6.5091Y-3.3596
X6.5091Y-3.4596
X6.5091Y-3.5596
X6.5091Y-3.6596
X6.5091Y-3.7596
X6.5091Y-3.8596
X6.5091Y-3.9596
X6.5091Y-4.0596
X6.5091Y-4.1596
X6.5091Y-4.2596
X6.9852Y-3.7972
X6.9852Y-3.8972
X6.9852Y-3.9972
X6.9852Y-4.0972
X6.9864Y-4.2323
X7.0848Y-4.2323
X7.2852Y-3.7972
X7.2852Y-3.8972
X7.2852Y-3.9972
X7.2852Y-4.0972
T3
X5.4906Y-3.289
X5.4906Y-3.389
X5.4906Y-3.489
X5.4906Y-3.589
X5.4906Y-3.689
X5.4906Y-3.789
X5.4906Y-3.889
X5.4906Y-3.989
X5.4906Y-4.089
X5.4906Y-4.189
X5.5906Y-3.289
X5.5906Y-3.389
X5.5906Y-3.489
X5.5906Y-3.589
X5.5906Y-3.689
X5.5906Y-3.789
X5.5906Y-3.889
X5.5906Y-3.989
X5.5906Y-4.089
X5.5906Y-4.189
X5.9158Y-1.9896
X5.9158Y-2.0896
X5.9158Y-2.1896
X5.9158Y-2.2896
X5.9158Y-2.3896
X5.9158Y-2.4896
X5.9158Y-2.5896
X5.9158Y-2.6896
X5.9158Y-2.7896
X5.9158Y-2.8896
X5.9158Y-2.9896
X5.9158Y-3.0896
X5.9158Y-3.1896
X5.9158Y-3.2896
X5.9158Y-3.3896
X5.9158Y-3.4896
X5.9158Y-3.5896
X5.9158Y-3.6896
X5.9158Y-3.7896
X5.9158Y-3.8896
X5.9158Y-3.9896
X5.9158Y-4.0896
X5.9158Y-4.1896
X5.9158Y-4.2896
X6.8141Y-1.9896
X6.8141Y-2.0896
X6.8141Y-2.1896
X6.8141Y-2.2896
X6.8141Y-2.3896
X6.8141Y-2.4896
X6.8141Y-2.5896
X6.8141Y-2.6896
X6.8141Y-2.7896
X6.8141Y-2.8896
X6.8141Y-2.9896
X6.8141Y-3.0896
X6.8141Y-3.1896
X6.8141Y-3.2896
X6.8141Y-3.3896
X6.8141Y-3.4896
X6.8141Y-3.5896
X6.8141Y-3.6896
X6.8141Y-3.7896
X6.8141Y-3.8896
X6.8141Y-3.9896
X6.8141Y-4.0896
X6.8141Y-4.1896
X6.8141Y-4.2896
X7.1244Y-3.3138
X7.1244Y-3.4138
X7.1244Y-3.5138
X7.1244Y-3.6138
X7.1254Y-2.0
X7.1254Y-2.1
X7.1254Y-2.2
X7.1254Y-2.3
X7.1254Y-2.4
X7.1254Y-2.5
X7.1254Y-2.6
X7.1254Y-2.7
X7.1254Y-2.8
X7.1254Y-2.9
X7.2244Y-3.3138
X7.2244Y-3.4138
X7.2244Y-3.5138
X7.2244Y-3.6138
X7.2254Y-2.0
X7.2254Y-2.1
X7.2254Y-2.2
X7.2254Y-2.3
X7.2254Y-2.4
X7.2254Y-2.5
X7.2254Y-2.6
X7.2254Y-2.7
X7.2254Y-2.8
X7.2254Y-2.9
T4
X5.42Y-1.85
X5.42Y-4.36
X7.3031Y-1.85
X7.3031Y-4.36
T0
M30
