M48
; DRILL file {KiCad 7.0.1} date Thu Jul 20 10:28:38 2023
; FORMAT={-:-/ absolute / inch / decimal}
; #@! TF.CreationDate,2023-07-20T10:28:38-07:00
; #@! TF.GenerationSoftware,Kicad,Pcbnew,7.0.1
; #@! TF.FileFunction,Plated,1,2,PTH
FMAT,2
INCH
; #@! TA.AperFunction,Plated,PTH,ViaDrill
T1C0.0157
; #@! TA.AperFunction,Plated,PTH,ComponentDrill
T2C0.0250
; #@! TA.AperFunction,Plated,PTH,ComponentDrill
T3C0.0394
; #@! TA.AperFunction,Plated,PTH,ComponentDrill
T4C0.0433
%
G90
G05
T1
X6.9589Y-3.5459
X7.0108Y-3.5801
T2
X6.3169Y-1.8162
X6.3169Y-1.8862
X6.3169Y-1.9562
X6.3169Y-2.0262
X6.3169Y-2.0962
X6.3169Y-2.1662
X6.3169Y-2.2362
X6.3169Y-2.3062
X6.3169Y-2.3762
X6.3169Y-2.4462
X6.3169Y-2.5162
X6.3169Y-2.5862
X6.3169Y-2.6562
X6.3169Y-2.7262
X6.3169Y-2.7962
X6.3169Y-2.8662
X6.3169Y-2.9362
X6.3169Y-3.0062
X6.3169Y-3.0762
X6.3169Y-3.1462
X6.3169Y-3.2162
X6.3169Y-3.2862
X6.3169Y-3.3562
X6.3169Y-3.4262
X6.3169Y-3.4962
X6.3169Y-3.5662
X6.3169Y-3.6362
X6.3169Y-3.7062
X6.3169Y-3.7762
X6.3169Y-3.8462
X6.3169Y-3.9162
X6.3169Y-3.9862
X7.0669Y-1.8162
X7.0669Y-1.8862
X7.0669Y-1.9562
X7.0669Y-2.0262
X7.0669Y-2.0962
X7.0669Y-2.1662
X7.0669Y-2.2362
X7.0669Y-2.3062
X7.0669Y-2.3762
X7.0669Y-2.4462
X7.0669Y-2.5162
X7.0669Y-2.5862
X7.0669Y-2.6562
X7.0669Y-2.7262
X7.0669Y-2.7962
X7.0669Y-2.8662
X7.0669Y-2.9362
X7.0669Y-3.0062
X7.0669Y-3.0762
X7.0669Y-3.1462
X7.0669Y-3.2162
X7.0669Y-3.2862
X7.0669Y-3.3562
X7.0669Y-3.4262
X7.0669Y-3.4962
X7.0669Y-3.5662
X7.0669Y-3.6362
X7.0669Y-3.7062
X7.0669Y-3.7762
X7.0669Y-3.8462
X7.0669Y-3.9162
X7.0669Y-3.9862
T3
X6.48Y-3.0417
X6.48Y-3.1417
X6.48Y-3.2417
X6.48Y-3.3417
X6.48Y-3.4417
X6.48Y-3.5417
X6.48Y-3.6417
X6.48Y-3.7417
X6.48Y-3.8417
X6.48Y-3.9417
X6.58Y-3.0417
X6.58Y-3.1417
X6.58Y-3.2417
X6.58Y-3.3417
X6.58Y-3.4417
X6.58Y-3.5417
X6.58Y-3.6417
X6.58Y-3.7417
X6.58Y-3.8417
X6.58Y-3.9417
X6.8012Y-1.8705
X6.8012Y-1.9705
X6.8012Y-2.0705
X6.8012Y-2.1705
X6.8012Y-2.2705
X6.8012Y-2.3705
X6.8012Y-2.4705
X6.8012Y-2.5705
X6.8012Y-2.6705
X6.8012Y-2.7705
X6.9012Y-1.8705
X6.9012Y-1.9705
X6.9012Y-2.0705
X6.9012Y-2.1705
X6.9012Y-2.2705
X6.9012Y-2.3705
X6.9012Y-2.4705
X6.9012Y-2.5705
X6.9012Y-2.6705
X6.9012Y-2.7705
T4
X6.8504Y-3.061
X6.8504Y-3.461
T0
M30
