%TF.GenerationSoftware,KiCad,Pcbnew,7.0.1*%
%TF.CreationDate,2023-07-20T10:28:40-07:00*%
%TF.ProjectId,tn_vdp_v9958_socket,746e5f76-6470-45f7-9639-3935385f736f,rev?*%
%TF.SameCoordinates,Original*%
%TF.FileFunction,Copper,L1,Top*%
%TF.FilePolarity,Positive*%
%FSLAX46Y46*%
G04 Gerber Fmt 4.6, Leading zero omitted, Abs format (unit mm)*
G04 Created by KiCad (PCBNEW 7.0.1) date 2023-07-20 10:28:40*
%MOMM*%
%LPD*%
G01*
G04 APERTURE LIST*
%TA.AperFunction,ComponentPad*%
%ADD10R,2.200000X2.200000*%
%TD*%
%TA.AperFunction,ComponentPad*%
%ADD11O,2.200000X2.200000*%
%TD*%
%TA.AperFunction,ComponentPad*%
%ADD12R,1.700000X1.700000*%
%TD*%
%TA.AperFunction,ComponentPad*%
%ADD13O,1.700000X1.700000*%
%TD*%
%TA.AperFunction,ComponentPad*%
%ADD14R,1.016000X1.016000*%
%TD*%
%TA.AperFunction,ComponentPad*%
%ADD15C,1.016000*%
%TD*%
%TA.AperFunction,ViaPad*%
%ADD16C,0.800000*%
%TD*%
%TA.AperFunction,Conductor*%
%ADD17C,0.250000*%
%TD*%
G04 APERTURE END LIST*
D10*
%TO.P,D1,1,K*%
%TO.N,VCCO*%
X174000000Y-77750000D03*
D11*
%TO.P,D1,2,A*%
%TO.N,VCC*%
X174000000Y-87910000D03*
%TD*%
D12*
%TO.P,J3,1,Pin_1*%
%TO.N,GND*%
X164592000Y-77260000D03*
D13*
%TO.P,J3,2,Pin_2*%
%TO.N,VCCO*%
X167132000Y-77260000D03*
%TO.P,J3,3,Pin_3*%
%TO.N,GND*%
X164592000Y-79800000D03*
%TO.P,J3,4,Pin_4*%
%TO.N,CPUCLK*%
X167132000Y-79800000D03*
%TO.P,J3,5,Pin_5*%
%TO.N,CD7*%
X164592000Y-82340000D03*
%TO.P,J3,6,Pin_6*%
%TO.N,WAIT*%
X167132000Y-82340000D03*
%TO.P,J3,7,Pin_7*%
%TO.N,CD6*%
X164592000Y-84880000D03*
%TO.P,J3,8,Pin_8*%
%TO.N,unconnected-(J3-Pin_8-Pad8)*%
X167132000Y-84880000D03*
%TO.P,J3,9,Pin_9*%
%TO.N,CD5*%
X164592000Y-87420000D03*
%TO.P,J3,10,Pin_10*%
%TO.N,MODE1*%
X167132000Y-87420000D03*
%TO.P,J3,11,Pin_11*%
%TO.N,CD4*%
X164592000Y-89960000D03*
%TO.P,J3,12,Pin_12*%
%TO.N,~{RESET}*%
X167132000Y-89960000D03*
%TO.P,J3,13,Pin_13*%
%TO.N,CD3*%
X164592000Y-92500000D03*
%TO.P,J3,14,Pin_14*%
%TO.N,MODE0*%
X167132000Y-92500000D03*
%TO.P,J3,15,Pin_15*%
%TO.N,CD2*%
X164592000Y-95040000D03*
%TO.P,J3,16,Pin_16*%
%TO.N,~{CSW}*%
X167132000Y-95040000D03*
%TO.P,J3,17,Pin_17*%
%TO.N,CD1*%
X164592000Y-97580000D03*
%TO.P,J3,18,Pin_18*%
%TO.N,~{CSR}*%
X167132000Y-97580000D03*
%TO.P,J3,19,Pin_19*%
%TO.N,CD0*%
X164592000Y-100120000D03*
%TO.P,J3,20,Pin_20*%
%TO.N,~{INT}*%
X167132000Y-100120000D03*
%TD*%
D14*
%TO.P,U1,1,GND*%
%TO.N,GND*%
X160450000Y-46132000D03*
D15*
%TO.P,U1,2,~{DHCLK}*%
%TO.N,unconnected-(U1-~{DHCLK}-Pad2)*%
X160450000Y-47910000D03*
%TO.P,U1,3,~{DLCKL}*%
%TO.N,unconnected-(U1-~{DLCKL}-Pad3)*%
X160450000Y-49688000D03*
%TO.P,U1,4,~{VDS/VRESET}*%
%TO.N,unconnected-(U1-~{VDS{slash}VRESET}-Pad4)*%
X160450000Y-51466000D03*
%TO.P,U1,5,HSYNC*%
%TO.N,unconnected-(U1-HSYNC-Pad5)*%
X160450000Y-53244000D03*
%TO.P,U1,6,CSYNC*%
%TO.N,unconnected-(U1-CSYNC-Pad6)*%
X160450000Y-55022000D03*
%TO.P,U1,7,BLEO*%
%TO.N,unconnected-(U1-BLEO-Pad7)*%
X160450000Y-56800000D03*
%TO.P,U1,8,CPUCLK*%
%TO.N,CPUCLK*%
X160450000Y-58578000D03*
%TO.P,U1,9,~{RESET}*%
%TO.N,~{RESET}*%
X160450000Y-60356000D03*
%TO.P,U1,10,~{YS}*%
%TO.N,unconnected-(U1-~{YS}-Pad10)*%
X160450000Y-62134000D03*
%TO.P,U1,11,CBDR*%
%TO.N,unconnected-(U1-CBDR-Pad11)*%
X160450000Y-63912000D03*
%TO.P,U1,12,C7*%
%TO.N,unconnected-(U1-C7-Pad12)*%
X160450000Y-65690000D03*
%TO.P,U1,13,C6*%
%TO.N,unconnected-(U1-C6-Pad13)*%
X160450000Y-67468000D03*
%TO.P,U1,14,C5*%
%TO.N,unconnected-(U1-C5-Pad14)*%
X160450000Y-69246000D03*
%TO.P,U1,15,C4*%
%TO.N,unconnected-(U1-C4-Pad15)*%
X160450000Y-71024000D03*
%TO.P,U1,16,C3*%
%TO.N,unconnected-(U1-C3-Pad16)*%
X160450000Y-72802000D03*
%TO.P,U1,17,C2*%
%TO.N,unconnected-(U1-C2-Pad17)*%
X160450000Y-74580000D03*
%TO.P,U1,18,C1*%
%TO.N,unconnected-(U1-C1-Pad18)*%
X160450000Y-76358000D03*
%TO.P,U1,19,C0*%
%TO.N,unconnected-(U1-C0-Pad19)*%
X160450000Y-78136000D03*
%TO.P,U1,20,GND*%
%TO.N,GND*%
X160450000Y-79914000D03*
%TO.P,U1,21,VIDEO/VDD*%
%TO.N,unconnected-(U1-VIDEO{slash}VDD-Pad21)*%
X160450000Y-81692000D03*
%TO.P,U1,22,G*%
%TO.N,unconnected-(U1-G-Pad22)*%
X160450000Y-83470000D03*
%TO.P,U1,23,R*%
%TO.N,unconnected-(U1-R-Pad23)*%
X160450000Y-85248000D03*
%TO.P,U1,24,B*%
%TO.N,unconnected-(U1-B-Pad24)*%
X160450000Y-87026000D03*
%TO.P,U1,25,~{INT}*%
%TO.N,~{INT}*%
X160450000Y-88804000D03*
%TO.P,U1,26,~{LPS/WAIT}*%
%TO.N,WAIT*%
X160450000Y-90582000D03*
%TO.P,U1,27,~{LPD/HRESET}*%
%TO.N,unconnected-(U1-~{LPD{slash}HRESET}-Pad27)*%
X160450000Y-92360000D03*
%TO.P,U1,28,MODE1*%
%TO.N,MODE1*%
X160450000Y-94138000D03*
%TO.P,U1,29,MODE0*%
%TO.N,MODE0*%
X160450000Y-95916000D03*
%TO.P,U1,30,~{CSW}*%
%TO.N,~{CSW}*%
X160450000Y-97694000D03*
%TO.P,U1,31,~{CSR}*%
%TO.N,~{CSR}*%
X160450000Y-99472000D03*
%TO.P,U1,32,CD7*%
%TO.N,CD7*%
X160450000Y-101250000D03*
%TO.P,U1,33,VBB*%
%TO.N,unconnected-(U1-VBB-Pad33)*%
X179500000Y-101250000D03*
%TO.P,U1,34,CD6*%
%TO.N,CD6*%
X179500000Y-99472000D03*
%TO.P,U1,35,CD5*%
%TO.N,CD5*%
X179500000Y-97694000D03*
%TO.P,U1,36,CD4*%
%TO.N,CD4*%
X179500000Y-95916000D03*
%TO.P,U1,37,CD3*%
%TO.N,CD3*%
X179500000Y-94138000D03*
%TO.P,U1,38,CD2*%
%TO.N,CD2*%
X179500000Y-92360000D03*
%TO.P,U1,39,CD1*%
%TO.N,CD1*%
X179500000Y-90582000D03*
%TO.P,U1,40,CD0*%
%TO.N,CD0*%
X179500000Y-88804000D03*
%TO.P,U1,41,RD0*%
%TO.N,unconnected-(U1-RD0-Pad41)*%
X179500000Y-87026000D03*
%TO.P,U1,42,RD1*%
%TO.N,unconnected-(U1-RD1-Pad42)*%
X179500000Y-85248000D03*
%TO.P,U1,43,RD2*%
%TO.N,unconnected-(U1-RD2-Pad43)*%
X179500000Y-83470000D03*
%TO.P,U1,44,RD3*%
%TO.N,unconnected-(U1-RD3-Pad44)*%
X179500000Y-81692000D03*
%TO.P,U1,45,RD4*%
%TO.N,unconnected-(U1-RD4-Pad45)*%
X179500000Y-79914000D03*
%TO.P,U1,46,RD5*%
%TO.N,unconnected-(U1-RD5-Pad46)*%
X179500000Y-78136000D03*
%TO.P,U1,47,RD6*%
%TO.N,unconnected-(U1-RD6-Pad47)*%
X179500000Y-76358000D03*
%TO.P,U1,48,RD7*%
%TO.N,unconnected-(U1-RD7-Pad48)*%
X179500000Y-74580000D03*
%TO.P,U1,49,AD0*%
%TO.N,unconnected-(U1-AD0-Pad49)*%
X179500000Y-72802000D03*
%TO.P,U1,50,AD1*%
%TO.N,unconnected-(U1-AD1-Pad50)*%
X179500000Y-71024000D03*
%TO.P,U1,51,AD2*%
%TO.N,unconnected-(U1-AD2-Pad51)*%
X179500000Y-69246000D03*
%TO.P,U1,52,AD3*%
%TO.N,unconnected-(U1-AD3-Pad52)*%
X179500000Y-67468000D03*
%TO.P,U1,53,AD4*%
%TO.N,unconnected-(U1-AD4-Pad53)*%
X179500000Y-65690000D03*
%TO.P,U1,54,AD5*%
%TO.N,unconnected-(U1-AD5-Pad54)*%
X179500000Y-63912000D03*
%TO.P,U1,55,AD6*%
%TO.N,unconnected-(U1-AD6-Pad55)*%
X179500000Y-62134000D03*
%TO.P,U1,56,AD7*%
%TO.N,unconnected-(U1-AD7-Pad56)*%
X179500000Y-60356000D03*
%TO.P,U1,57,R/~{W}*%
%TO.N,unconnected-(U1-R{slash}~{W}-Pad57)*%
X179500000Y-58578000D03*
%TO.P,U1,58,VCC*%
%TO.N,VCC*%
X179500000Y-56800000D03*
%TO.P,U1,59,~{CASX}*%
%TO.N,unconnected-(U1-~{CASX}-Pad59)*%
X179500000Y-55022000D03*
%TO.P,U1,60,~{CAS1}*%
%TO.N,unconnected-(U1-~{CAS1}-Pad60)*%
X179500000Y-53244000D03*
%TO.P,U1,61,~{CAS0}*%
%TO.N,unconnected-(U1-~{CAS0}-Pad61)*%
X179500000Y-51466000D03*
%TO.P,U1,62,~{RAS}*%
%TO.N,unconnected-(U1-~{RAS}-Pad62)*%
X179500000Y-49688000D03*
%TO.P,U1,63,XTAL1*%
%TO.N,unconnected-(U1-XTAL1-Pad63)*%
X179500000Y-47910000D03*
%TO.P,U1,64,XTAL2*%
%TO.N,unconnected-(U1-XTAL2-Pad64)*%
X179500000Y-46132000D03*
%TD*%
D12*
%TO.P,J4,1,Pin_1*%
%TO.N,GND*%
X175290000Y-70370000D03*
D13*
%TO.P,J4,2,Pin_2*%
%TO.N,VCCO*%
X172750000Y-70370000D03*
%TO.P,J4,3,Pin_3*%
%TO.N,GND*%
X175290000Y-67830000D03*
%TO.P,J4,4,Pin_4*%
%TO.N,CPUCLK*%
X172750000Y-67830000D03*
%TO.P,J4,5,Pin_5*%
%TO.N,CD7*%
X175290000Y-65290000D03*
%TO.P,J4,6,Pin_6*%
%TO.N,WAIT*%
X172750000Y-65290000D03*
%TO.P,J4,7,Pin_7*%
%TO.N,CD6*%
X175290000Y-62750000D03*
%TO.P,J4,8,Pin_8*%
%TO.N,unconnected-(J4-Pin_8-Pad8)*%
X172750000Y-62750000D03*
%TO.P,J4,9,Pin_9*%
%TO.N,CD5*%
X175290000Y-60210000D03*
%TO.P,J4,10,Pin_10*%
%TO.N,MODE1*%
X172750000Y-60210000D03*
%TO.P,J4,11,Pin_11*%
%TO.N,CD4*%
X175290000Y-57670000D03*
%TO.P,J4,12,Pin_12*%
%TO.N,~{RESET}*%
X172750000Y-57670000D03*
%TO.P,J4,13,Pin_13*%
%TO.N,CD3*%
X175290000Y-55130000D03*
%TO.P,J4,14,Pin_14*%
%TO.N,MODE0*%
X172750000Y-55130000D03*
%TO.P,J4,15,Pin_15*%
%TO.N,CD2*%
X175290000Y-52590000D03*
%TO.P,J4,16,Pin_16*%
%TO.N,~{CSW}*%
X172750000Y-52590000D03*
%TO.P,J4,17,Pin_17*%
%TO.N,CD1*%
X175290000Y-50050000D03*
%TO.P,J4,18,Pin_18*%
%TO.N,~{CSR}*%
X172750000Y-50050000D03*
%TO.P,J4,19,Pin_19*%
%TO.N,CD0*%
X175290000Y-47510000D03*
%TO.P,J4,20,Pin_20*%
%TO.N,~{INT}*%
X172750000Y-47510000D03*
%TD*%
D16*
%TO.N,CD2*%
X178073500Y-90933500D03*
%TO.N,CD3*%
X176755400Y-90065700D03*
%TD*%
D17*
%TO.N,MODE1*%
X172384700Y-61385100D02*
X172750000Y-61385100D01*
X163416800Y-70353000D02*
X172384700Y-61385100D01*
X163416800Y-85414000D02*
X163416800Y-70353000D01*
X164247700Y-86244900D02*
X163416800Y-85414000D01*
X165149100Y-86244900D02*
X164247700Y-86244900D01*
X165956900Y-87052700D02*
X165149100Y-86244900D01*
X165956900Y-87420000D02*
X165956900Y-87052700D01*
X167132000Y-87420000D02*
X165956900Y-87420000D01*
X172750000Y-60210000D02*
X172750000Y-61385100D01*
%TO.N,~{RESET}*%
X165956900Y-89594800D02*
X165956900Y-89960000D01*
X164957300Y-88595200D02*
X165956900Y-89594800D01*
X164065900Y-88595200D02*
X164957300Y-88595200D01*
X163416800Y-87946100D02*
X164065900Y-88595200D01*
X163416800Y-86050700D02*
X163416800Y-87946100D01*
X162966600Y-85600500D02*
X163416800Y-86050700D01*
X162966600Y-68261200D02*
X162966600Y-85600500D01*
X172382700Y-58845100D02*
X162966600Y-68261200D01*
X172750000Y-58845100D02*
X172382700Y-58845100D01*
X172750000Y-57670000D02*
X172750000Y-58845100D01*
X167132000Y-89960000D02*
X165956900Y-89960000D01*
%TO.N,CD0*%
X175290000Y-47510000D02*
X175290000Y-48685100D01*
X178666800Y-87970800D02*
X179500000Y-88804000D01*
X178666800Y-51696700D02*
X178666800Y-87970800D01*
X175655200Y-48685100D02*
X178666800Y-51696700D01*
X175290000Y-48685100D02*
X175655200Y-48685100D01*
X165767100Y-100485300D02*
X165767100Y-100120000D01*
X166585400Y-101303600D02*
X165767100Y-100485300D01*
X168324900Y-101303600D02*
X166585400Y-101303600D01*
X169267600Y-100360900D02*
X168324900Y-101303600D01*
X179800200Y-100360900D02*
X169267600Y-100360900D01*
X180351700Y-99809400D02*
X179800200Y-100360900D01*
X180351700Y-89655700D02*
X180351700Y-99809400D01*
X179500000Y-88804000D02*
X180351700Y-89655700D01*
X164592000Y-100120000D02*
X165767100Y-100120000D01*
%TO.N,CD1*%
X175655200Y-51225100D02*
X175290000Y-51225100D01*
X178175300Y-53745200D02*
X175655200Y-51225100D01*
X178175300Y-89257300D02*
X178175300Y-53745200D01*
X179500000Y-90582000D02*
X178175300Y-89257300D01*
X175290000Y-50050000D02*
X175290000Y-51225100D01*
%TO.N,CD2*%
X175290000Y-52590000D02*
X175290000Y-53765100D01*
X179500000Y-92360000D02*
X178073500Y-90933500D01*
X175655200Y-53765100D02*
X175290000Y-53765100D01*
X177365300Y-55475200D02*
X175655200Y-53765100D01*
X177365300Y-89650100D02*
X177365300Y-55475200D01*
X178073500Y-90358300D02*
X177365300Y-89650100D01*
X178073500Y-90933500D02*
X178073500Y-90358300D01*
%TO.N,CD3*%
X175290000Y-55130000D02*
X175290000Y-56305100D01*
X176915200Y-90065700D02*
X176755400Y-90065700D01*
X176915200Y-57563000D02*
X176915200Y-90065700D01*
X175657300Y-56305100D02*
X176915200Y-57563000D01*
X175290000Y-56305100D02*
X175657300Y-56305100D01*
X176915200Y-91553200D02*
X179500000Y-94138000D01*
X176915200Y-90065700D02*
X176915200Y-91553200D01*
%TO.N,CD5*%
X175290000Y-60210000D02*
X175290000Y-61385100D01*
X176030300Y-94224300D02*
X179500000Y-97694000D01*
X176030300Y-89765400D02*
X176030300Y-94224300D01*
X176465100Y-89330600D02*
X176030300Y-89765400D01*
X176465100Y-62195000D02*
X176465100Y-89330600D01*
X175655200Y-61385100D02*
X176465100Y-62195000D01*
X175290000Y-61385100D02*
X175655200Y-61385100D01*
%TO.N,CD6*%
X165767100Y-85245300D02*
X165767100Y-84880000D01*
X166671800Y-86150000D02*
X165767100Y-85245300D01*
X167528600Y-86150000D02*
X166671800Y-86150000D01*
X169658300Y-88279700D02*
X167528600Y-86150000D01*
X169658300Y-89630300D02*
X169658300Y-88279700D01*
X179500000Y-99472000D02*
X169658300Y-89630300D01*
X164592000Y-84880000D02*
X165767100Y-84880000D01*
X165767100Y-70591800D02*
X165767100Y-84880000D01*
X172433800Y-63925100D02*
X165767100Y-70591800D01*
X173307100Y-63925100D02*
X172433800Y-63925100D01*
X174114900Y-63117300D02*
X173307100Y-63925100D01*
X174114900Y-62750000D02*
X174114900Y-63117300D01*
X175290000Y-62750000D02*
X174114900Y-62750000D01*
%TO.N,~{INT}*%
X172384700Y-48685100D02*
X172750000Y-48685100D01*
X171385200Y-49684600D02*
X172384700Y-48685100D01*
X171385200Y-50620400D02*
X171385200Y-49684600D01*
X160760600Y-61245000D02*
X171385200Y-50620400D01*
X160088800Y-61245000D02*
X160760600Y-61245000D01*
X159565400Y-61768400D02*
X160088800Y-61245000D01*
X159565400Y-87919400D02*
X159565400Y-61768400D01*
X160450000Y-88804000D02*
X159565400Y-87919400D01*
X165767200Y-98755200D02*
X167132000Y-100120000D01*
X164076100Y-98755200D02*
X165767200Y-98755200D01*
X161603300Y-96282400D02*
X164076100Y-98755200D01*
X161603300Y-89957300D02*
X161603300Y-96282400D01*
X160450000Y-88804000D02*
X161603300Y-89957300D01*
X172750000Y-47510000D02*
X172750000Y-48685100D01*
%TO.N,~{CSR}*%
X167132000Y-97580000D02*
X165956900Y-97580000D01*
X172750000Y-50050000D02*
X172750000Y-51225100D01*
X165956900Y-97212700D02*
X165956900Y-97580000D01*
X165149100Y-96404900D02*
X165956900Y-97212700D01*
X164275800Y-96404900D02*
X165149100Y-96404900D01*
X162053400Y-94182500D02*
X164275800Y-96404900D01*
X162053400Y-86612300D02*
X162053400Y-94182500D01*
X161616300Y-86175200D02*
X162053400Y-86612300D01*
X161616300Y-61993500D02*
X161616300Y-86175200D01*
X172384700Y-51225100D02*
X161616300Y-61993500D01*
X172750000Y-51225100D02*
X172384700Y-51225100D01*
%TO.N,~{CSW}*%
X167132000Y-95040000D02*
X165956900Y-95040000D01*
X172750000Y-52590000D02*
X172750000Y-53765100D01*
X165956900Y-94672700D02*
X165956900Y-95040000D01*
X165149100Y-93864900D02*
X165956900Y-94672700D01*
X164272700Y-93864900D02*
X165149100Y-93864900D01*
X162503500Y-92095700D02*
X164272700Y-93864900D01*
X162503500Y-86425800D02*
X162503500Y-92095700D01*
X162066400Y-85988700D02*
X162503500Y-86425800D01*
X162066400Y-64083400D02*
X162066400Y-85988700D01*
X172384700Y-53765100D02*
X162066400Y-64083400D01*
X172750000Y-53765100D02*
X172384700Y-53765100D01*
%TO.N,MODE0*%
X167132000Y-92500000D02*
X165956900Y-92500000D01*
X172750000Y-55130000D02*
X172750000Y-56305100D01*
X165956900Y-92132700D02*
X165956900Y-92500000D01*
X165149100Y-91324900D02*
X165956900Y-92132700D01*
X164275800Y-91324900D02*
X165149100Y-91324900D01*
X162966600Y-90015700D02*
X164275800Y-91324900D01*
X162966600Y-86252300D02*
X162966600Y-90015700D01*
X162516500Y-85802200D02*
X162966600Y-86252300D01*
X162516500Y-66173300D02*
X162516500Y-85802200D01*
X172384700Y-56305100D02*
X162516500Y-66173300D01*
X172750000Y-56305100D02*
X172384700Y-56305100D01*
%TO.N,VCCO*%
X172750000Y-75074900D02*
X174000000Y-76324900D01*
X172750000Y-70370000D02*
X172750000Y-75074900D01*
X174000000Y-77750000D02*
X174000000Y-76324900D01*
%TO.N,WAIT*%
X167132000Y-82340000D02*
X167132000Y-81164900D01*
X172750000Y-65290000D02*
X172750000Y-66465100D01*
X172384700Y-66465100D02*
X172750000Y-66465100D01*
X169207300Y-69642500D02*
X172384700Y-66465100D01*
X169207300Y-79456900D02*
X169207300Y-69642500D01*
X167499300Y-81164900D02*
X169207300Y-79456900D01*
X167132000Y-81164900D02*
X167499300Y-81164900D01*
%TO.N,GND*%
X164592000Y-77260000D02*
X164592000Y-79800000D01*
%TD*%
M02*
