%TF.GenerationSoftware,KiCad,Pcbnew,7.0.1*%
%TF.CreationDate,2023-07-20T10:28:40-07:00*%
%TF.ProjectId,tn_vdp_v9958_socket,746e5f76-6470-45f7-9639-3935385f736f,rev?*%
%TF.SameCoordinates,Original*%
%TF.FileFunction,Copper,L2,Bot*%
%TF.FilePolarity,Positive*%
%FSLAX46Y46*%
G04 Gerber Fmt 4.6, Leading zero omitted, Abs format (unit mm)*
G04 Created by KiCad (PCBNEW 7.0.1) date 2023-07-20 10:28:40*
%MOMM*%
%LPD*%
G01*
G04 APERTURE LIST*
%TA.AperFunction,ComponentPad*%
%ADD10R,2.200000X2.200000*%
%TD*%
%TA.AperFunction,ComponentPad*%
%ADD11O,2.200000X2.200000*%
%TD*%
%TA.AperFunction,ComponentPad*%
%ADD12R,1.700000X1.700000*%
%TD*%
%TA.AperFunction,ComponentPad*%
%ADD13O,1.700000X1.700000*%
%TD*%
%TA.AperFunction,ComponentPad*%
%ADD14R,1.016000X1.016000*%
%TD*%
%TA.AperFunction,ComponentPad*%
%ADD15C,1.016000*%
%TD*%
%TA.AperFunction,ViaPad*%
%ADD16C,0.800000*%
%TD*%
%TA.AperFunction,Conductor*%
%ADD17C,0.250000*%
%TD*%
G04 APERTURE END LIST*
D10*
%TO.P,D1,1,K*%
%TO.N,VCCO*%
X174000000Y-77750000D03*
D11*
%TO.P,D1,2,A*%
%TO.N,VCC*%
X174000000Y-87910000D03*
%TD*%
D12*
%TO.P,J3,1,Pin_1*%
%TO.N,GND*%
X164592000Y-77260000D03*
D13*
%TO.P,J3,2,Pin_2*%
%TO.N,VCCO*%
X167132000Y-77260000D03*
%TO.P,J3,3,Pin_3*%
%TO.N,GND*%
X164592000Y-79800000D03*
%TO.P,J3,4,Pin_4*%
%TO.N,CPUCLK*%
X167132000Y-79800000D03*
%TO.P,J3,5,Pin_5*%
%TO.N,CD7*%
X164592000Y-82340000D03*
%TO.P,J3,6,Pin_6*%
%TO.N,WAIT*%
X167132000Y-82340000D03*
%TO.P,J3,7,Pin_7*%
%TO.N,CD6*%
X164592000Y-84880000D03*
%TO.P,J3,8,Pin_8*%
%TO.N,unconnected-(J3-Pin_8-Pad8)*%
X167132000Y-84880000D03*
%TO.P,J3,9,Pin_9*%
%TO.N,CD5*%
X164592000Y-87420000D03*
%TO.P,J3,10,Pin_10*%
%TO.N,MODE1*%
X167132000Y-87420000D03*
%TO.P,J3,11,Pin_11*%
%TO.N,CD4*%
X164592000Y-89960000D03*
%TO.P,J3,12,Pin_12*%
%TO.N,~{RESET}*%
X167132000Y-89960000D03*
%TO.P,J3,13,Pin_13*%
%TO.N,CD3*%
X164592000Y-92500000D03*
%TO.P,J3,14,Pin_14*%
%TO.N,MODE0*%
X167132000Y-92500000D03*
%TO.P,J3,15,Pin_15*%
%TO.N,CD2*%
X164592000Y-95040000D03*
%TO.P,J3,16,Pin_16*%
%TO.N,~{CSW}*%
X167132000Y-95040000D03*
%TO.P,J3,17,Pin_17*%
%TO.N,CD1*%
X164592000Y-97580000D03*
%TO.P,J3,18,Pin_18*%
%TO.N,~{CSR}*%
X167132000Y-97580000D03*
%TO.P,J3,19,Pin_19*%
%TO.N,CD0*%
X164592000Y-100120000D03*
%TO.P,J3,20,Pin_20*%
%TO.N,~{INT}*%
X167132000Y-100120000D03*
%TD*%
D14*
%TO.P,U1,1,GND*%
%TO.N,GND*%
X160450000Y-46132000D03*
D15*
%TO.P,U1,2,~{DHCLK}*%
%TO.N,unconnected-(U1-~{DHCLK}-Pad2)*%
X160450000Y-47910000D03*
%TO.P,U1,3,~{DLCKL}*%
%TO.N,unconnected-(U1-~{DLCKL}-Pad3)*%
X160450000Y-49688000D03*
%TO.P,U1,4,~{VDS/VRESET}*%
%TO.N,unconnected-(U1-~{VDS{slash}VRESET}-Pad4)*%
X160450000Y-51466000D03*
%TO.P,U1,5,HSYNC*%
%TO.N,unconnected-(U1-HSYNC-Pad5)*%
X160450000Y-53244000D03*
%TO.P,U1,6,CSYNC*%
%TO.N,unconnected-(U1-CSYNC-Pad6)*%
X160450000Y-55022000D03*
%TO.P,U1,7,BLEO*%
%TO.N,unconnected-(U1-BLEO-Pad7)*%
X160450000Y-56800000D03*
%TO.P,U1,8,CPUCLK*%
%TO.N,CPUCLK*%
X160450000Y-58578000D03*
%TO.P,U1,9,~{RESET}*%
%TO.N,~{RESET}*%
X160450000Y-60356000D03*
%TO.P,U1,10,~{YS}*%
%TO.N,unconnected-(U1-~{YS}-Pad10)*%
X160450000Y-62134000D03*
%TO.P,U1,11,CBDR*%
%TO.N,unconnected-(U1-CBDR-Pad11)*%
X160450000Y-63912000D03*
%TO.P,U1,12,C7*%
%TO.N,unconnected-(U1-C7-Pad12)*%
X160450000Y-65690000D03*
%TO.P,U1,13,C6*%
%TO.N,unconnected-(U1-C6-Pad13)*%
X160450000Y-67468000D03*
%TO.P,U1,14,C5*%
%TO.N,unconnected-(U1-C5-Pad14)*%
X160450000Y-69246000D03*
%TO.P,U1,15,C4*%
%TO.N,unconnected-(U1-C4-Pad15)*%
X160450000Y-71024000D03*
%TO.P,U1,16,C3*%
%TO.N,unconnected-(U1-C3-Pad16)*%
X160450000Y-72802000D03*
%TO.P,U1,17,C2*%
%TO.N,unconnected-(U1-C2-Pad17)*%
X160450000Y-74580000D03*
%TO.P,U1,18,C1*%
%TO.N,unconnected-(U1-C1-Pad18)*%
X160450000Y-76358000D03*
%TO.P,U1,19,C0*%
%TO.N,unconnected-(U1-C0-Pad19)*%
X160450000Y-78136000D03*
%TO.P,U1,20,GND*%
%TO.N,GND*%
X160450000Y-79914000D03*
%TO.P,U1,21,VIDEO/VDD*%
%TO.N,unconnected-(U1-VIDEO{slash}VDD-Pad21)*%
X160450000Y-81692000D03*
%TO.P,U1,22,G*%
%TO.N,unconnected-(U1-G-Pad22)*%
X160450000Y-83470000D03*
%TO.P,U1,23,R*%
%TO.N,unconnected-(U1-R-Pad23)*%
X160450000Y-85248000D03*
%TO.P,U1,24,B*%
%TO.N,unconnected-(U1-B-Pad24)*%
X160450000Y-87026000D03*
%TO.P,U1,25,~{INT}*%
%TO.N,~{INT}*%
X160450000Y-88804000D03*
%TO.P,U1,26,~{LPS/WAIT}*%
%TO.N,WAIT*%
X160450000Y-90582000D03*
%TO.P,U1,27,~{LPD/HRESET}*%
%TO.N,unconnected-(U1-~{LPD{slash}HRESET}-Pad27)*%
X160450000Y-92360000D03*
%TO.P,U1,28,MODE1*%
%TO.N,MODE1*%
X160450000Y-94138000D03*
%TO.P,U1,29,MODE0*%
%TO.N,MODE0*%
X160450000Y-95916000D03*
%TO.P,U1,30,~{CSW}*%
%TO.N,~{CSW}*%
X160450000Y-97694000D03*
%TO.P,U1,31,~{CSR}*%
%TO.N,~{CSR}*%
X160450000Y-99472000D03*
%TO.P,U1,32,CD7*%
%TO.N,CD7*%
X160450000Y-101250000D03*
%TO.P,U1,33,VBB*%
%TO.N,unconnected-(U1-VBB-Pad33)*%
X179500000Y-101250000D03*
%TO.P,U1,34,CD6*%
%TO.N,CD6*%
X179500000Y-99472000D03*
%TO.P,U1,35,CD5*%
%TO.N,CD5*%
X179500000Y-97694000D03*
%TO.P,U1,36,CD4*%
%TO.N,CD4*%
X179500000Y-95916000D03*
%TO.P,U1,37,CD3*%
%TO.N,CD3*%
X179500000Y-94138000D03*
%TO.P,U1,38,CD2*%
%TO.N,CD2*%
X179500000Y-92360000D03*
%TO.P,U1,39,CD1*%
%TO.N,CD1*%
X179500000Y-90582000D03*
%TO.P,U1,40,CD0*%
%TO.N,CD0*%
X179500000Y-88804000D03*
%TO.P,U1,41,RD0*%
%TO.N,unconnected-(U1-RD0-Pad41)*%
X179500000Y-87026000D03*
%TO.P,U1,42,RD1*%
%TO.N,unconnected-(U1-RD1-Pad42)*%
X179500000Y-85248000D03*
%TO.P,U1,43,RD2*%
%TO.N,unconnected-(U1-RD2-Pad43)*%
X179500000Y-83470000D03*
%TO.P,U1,44,RD3*%
%TO.N,unconnected-(U1-RD3-Pad44)*%
X179500000Y-81692000D03*
%TO.P,U1,45,RD4*%
%TO.N,unconnected-(U1-RD4-Pad45)*%
X179500000Y-79914000D03*
%TO.P,U1,46,RD5*%
%TO.N,unconnected-(U1-RD5-Pad46)*%
X179500000Y-78136000D03*
%TO.P,U1,47,RD6*%
%TO.N,unconnected-(U1-RD6-Pad47)*%
X179500000Y-76358000D03*
%TO.P,U1,48,RD7*%
%TO.N,unconnected-(U1-RD7-Pad48)*%
X179500000Y-74580000D03*
%TO.P,U1,49,AD0*%
%TO.N,unconnected-(U1-AD0-Pad49)*%
X179500000Y-72802000D03*
%TO.P,U1,50,AD1*%
%TO.N,unconnected-(U1-AD1-Pad50)*%
X179500000Y-71024000D03*
%TO.P,U1,51,AD2*%
%TO.N,unconnected-(U1-AD2-Pad51)*%
X179500000Y-69246000D03*
%TO.P,U1,52,AD3*%
%TO.N,unconnected-(U1-AD3-Pad52)*%
X179500000Y-67468000D03*
%TO.P,U1,53,AD4*%
%TO.N,unconnected-(U1-AD4-Pad53)*%
X179500000Y-65690000D03*
%TO.P,U1,54,AD5*%
%TO.N,unconnected-(U1-AD5-Pad54)*%
X179500000Y-63912000D03*
%TO.P,U1,55,AD6*%
%TO.N,unconnected-(U1-AD6-Pad55)*%
X179500000Y-62134000D03*
%TO.P,U1,56,AD7*%
%TO.N,unconnected-(U1-AD7-Pad56)*%
X179500000Y-60356000D03*
%TO.P,U1,57,R/~{W}*%
%TO.N,unconnected-(U1-R{slash}~{W}-Pad57)*%
X179500000Y-58578000D03*
%TO.P,U1,58,VCC*%
%TO.N,VCC*%
X179500000Y-56800000D03*
%TO.P,U1,59,~{CASX}*%
%TO.N,unconnected-(U1-~{CASX}-Pad59)*%
X179500000Y-55022000D03*
%TO.P,U1,60,~{CAS1}*%
%TO.N,unconnected-(U1-~{CAS1}-Pad60)*%
X179500000Y-53244000D03*
%TO.P,U1,61,~{CAS0}*%
%TO.N,unconnected-(U1-~{CAS0}-Pad61)*%
X179500000Y-51466000D03*
%TO.P,U1,62,~{RAS}*%
%TO.N,unconnected-(U1-~{RAS}-Pad62)*%
X179500000Y-49688000D03*
%TO.P,U1,63,XTAL1*%
%TO.N,unconnected-(U1-XTAL1-Pad63)*%
X179500000Y-47910000D03*
%TO.P,U1,64,XTAL2*%
%TO.N,unconnected-(U1-XTAL2-Pad64)*%
X179500000Y-46132000D03*
%TD*%
D12*
%TO.P,J4,1,Pin_1*%
%TO.N,GND*%
X175290000Y-70370000D03*
D13*
%TO.P,J4,2,Pin_2*%
%TO.N,VCCO*%
X172750000Y-70370000D03*
%TO.P,J4,3,Pin_3*%
%TO.N,GND*%
X175290000Y-67830000D03*
%TO.P,J4,4,Pin_4*%
%TO.N,CPUCLK*%
X172750000Y-67830000D03*
%TO.P,J4,5,Pin_5*%
%TO.N,CD7*%
X175290000Y-65290000D03*
%TO.P,J4,6,Pin_6*%
%TO.N,WAIT*%
X172750000Y-65290000D03*
%TO.P,J4,7,Pin_7*%
%TO.N,CD6*%
X175290000Y-62750000D03*
%TO.P,J4,8,Pin_8*%
%TO.N,unconnected-(J4-Pin_8-Pad8)*%
X172750000Y-62750000D03*
%TO.P,J4,9,Pin_9*%
%TO.N,CD5*%
X175290000Y-60210000D03*
%TO.P,J4,10,Pin_10*%
%TO.N,MODE1*%
X172750000Y-60210000D03*
%TO.P,J4,11,Pin_11*%
%TO.N,CD4*%
X175290000Y-57670000D03*
%TO.P,J4,12,Pin_12*%
%TO.N,~{RESET}*%
X172750000Y-57670000D03*
%TO.P,J4,13,Pin_13*%
%TO.N,CD3*%
X175290000Y-55130000D03*
%TO.P,J4,14,Pin_14*%
%TO.N,MODE0*%
X172750000Y-55130000D03*
%TO.P,J4,15,Pin_15*%
%TO.N,CD2*%
X175290000Y-52590000D03*
%TO.P,J4,16,Pin_16*%
%TO.N,~{CSW}*%
X172750000Y-52590000D03*
%TO.P,J4,17,Pin_17*%
%TO.N,CD1*%
X175290000Y-50050000D03*
%TO.P,J4,18,Pin_18*%
%TO.N,~{CSR}*%
X172750000Y-50050000D03*
%TO.P,J4,19,Pin_19*%
%TO.N,CD0*%
X175290000Y-47510000D03*
%TO.P,J4,20,Pin_20*%
%TO.N,~{INT}*%
X172750000Y-47510000D03*
%TD*%
D16*
%TO.N,CD2*%
X178073500Y-90933500D03*
%TO.N,CD3*%
X176755400Y-90065700D03*
%TD*%
D17*
%TO.N,MODE1*%
X165956900Y-87785200D02*
X165956900Y-87420000D01*
X165147000Y-88595100D02*
X165956900Y-87785200D01*
X164276100Y-88595100D02*
X165147000Y-88595100D01*
X163116000Y-89755200D02*
X164276100Y-88595100D01*
X163116000Y-91472000D02*
X163116000Y-89755200D01*
X160450000Y-94138000D02*
X163116000Y-91472000D01*
X167132000Y-87420000D02*
X165956900Y-87420000D01*
%TO.N,CPUCLK*%
X172750000Y-67830000D02*
X171574900Y-67830000D01*
X167132000Y-79800000D02*
X165956900Y-79800000D01*
X160778000Y-61245000D02*
X168674000Y-69140900D01*
X160088800Y-61245000D02*
X160778000Y-61245000D01*
X159565400Y-60721600D02*
X160088800Y-61245000D01*
X159565400Y-59462600D02*
X159565400Y-60721600D01*
X160450000Y-58578000D02*
X159565400Y-59462600D01*
X169984900Y-67830000D02*
X168674000Y-69140900D01*
X171574900Y-67830000D02*
X169984900Y-67830000D01*
X165956900Y-79434800D02*
X165956900Y-79800000D01*
X164957300Y-78435200D02*
X165956900Y-79434800D01*
X163561000Y-78435200D02*
X164957300Y-78435200D01*
X163416800Y-78291000D02*
X163561000Y-78435200D01*
X163416800Y-74398100D02*
X163416800Y-78291000D01*
X168674000Y-69140900D02*
X163416800Y-74398100D01*
%TO.N,~{RESET}*%
X168888900Y-60356000D02*
X171574900Y-57670000D01*
X160450000Y-60356000D02*
X168888900Y-60356000D01*
X172750000Y-57670000D02*
X171574900Y-57670000D01*
%TO.N,CD1*%
X165767100Y-97214700D02*
X165767100Y-97580000D01*
X166766600Y-96215200D02*
X165767100Y-97214700D01*
X173866800Y-96215200D02*
X166766600Y-96215200D01*
X179500000Y-90582000D02*
X173866800Y-96215200D01*
X164592000Y-97580000D02*
X165767100Y-97580000D01*
%TO.N,CD2*%
X175331800Y-93675200D02*
X178073500Y-90933500D01*
X166517600Y-93675200D02*
X175331800Y-93675200D01*
X165152800Y-95040000D02*
X166517600Y-93675200D01*
X164592000Y-95040000D02*
X165152800Y-95040000D01*
%TO.N,CD3*%
X165767100Y-92134700D02*
X165767100Y-92500000D01*
X166671800Y-91230000D02*
X165767100Y-92134700D01*
X175591100Y-91230000D02*
X166671800Y-91230000D01*
X176755400Y-90065700D02*
X175591100Y-91230000D01*
X164592000Y-92500000D02*
X165767100Y-92500000D01*
%TO.N,CD4*%
X164592000Y-89960000D02*
X165767100Y-89960000D01*
X172568800Y-86674000D02*
X172568800Y-88778800D01*
X177365500Y-81877300D02*
X172568800Y-86674000D01*
X177365500Y-60553400D02*
X177365500Y-81877300D01*
X175657200Y-58845100D02*
X177365500Y-60553400D01*
X175290000Y-58845100D02*
X175657200Y-58845100D01*
X173125300Y-89335300D02*
X172568800Y-88778800D01*
X177295500Y-89335300D02*
X173125300Y-89335300D01*
X177633600Y-89673400D02*
X177295500Y-89335300D01*
X179780500Y-89673400D02*
X177633600Y-89673400D01*
X180351700Y-90244600D02*
X179780500Y-89673400D01*
X180351700Y-95064300D02*
X180351700Y-90244600D01*
X179500000Y-95916000D02*
X180351700Y-95064300D01*
X165767100Y-89594700D02*
X165767100Y-89960000D01*
X166583000Y-88778800D02*
X165767100Y-89594700D01*
X172568800Y-88778800D02*
X166583000Y-88778800D01*
X175290000Y-57670000D02*
X175290000Y-58845100D01*
%TO.N,CD5*%
X175290000Y-60210000D02*
X175290000Y-61385100D01*
X165862000Y-86150000D02*
X164592000Y-87420000D01*
X168311000Y-86150000D02*
X165862000Y-86150000D01*
X176915300Y-77545700D02*
X168311000Y-86150000D01*
X176915300Y-62713300D02*
X176915300Y-77545700D01*
X175587100Y-61385100D02*
X176915300Y-62713300D01*
X175290000Y-61385100D02*
X175587100Y-61385100D01*
%TO.N,CD7*%
X164592000Y-82340000D02*
X165767100Y-82340000D01*
X165767100Y-81974700D02*
X165767100Y-82340000D01*
X166671800Y-81070000D02*
X165767100Y-81974700D01*
X167557800Y-81070000D02*
X166671800Y-81070000D01*
X176465100Y-72162700D02*
X167557800Y-81070000D01*
X176465100Y-66465100D02*
X176465100Y-72162700D01*
X175290000Y-65290000D02*
X176465100Y-66465100D01*
X164226700Y-83515100D02*
X164592000Y-83515100D01*
X162190800Y-85551000D02*
X164226700Y-83515100D01*
X162190800Y-86472500D02*
X162190800Y-85551000D01*
X160748300Y-87915000D02*
X162190800Y-86472500D01*
X160088800Y-87915000D02*
X160748300Y-87915000D01*
X159565400Y-88438400D02*
X160088800Y-87915000D01*
X159565400Y-100365400D02*
X159565400Y-88438400D01*
X160450000Y-101250000D02*
X159565400Y-100365400D01*
X164592000Y-82340000D02*
X164592000Y-83515100D01*
%TO.N,~{CSR}*%
X165862000Y-98850000D02*
X167132000Y-97580000D01*
X161072000Y-98850000D02*
X165862000Y-98850000D01*
X160450000Y-99472000D02*
X161072000Y-98850000D01*
%TO.N,~{CSW}*%
X165956900Y-95405200D02*
X165956900Y-95040000D01*
X164957300Y-96404800D02*
X165956900Y-95405200D01*
X161739200Y-96404800D02*
X164957300Y-96404800D01*
X160450000Y-97694000D02*
X161739200Y-96404800D01*
X167132000Y-95040000D02*
X165956900Y-95040000D01*
%TO.N,MODE0*%
X165524000Y-93864800D02*
X166888800Y-92500000D01*
X162501200Y-93864800D02*
X165524000Y-93864800D01*
X160450000Y-95916000D02*
X162501200Y-93864800D01*
X167071200Y-92500000D02*
X166888800Y-92500000D01*
X167071200Y-92500000D02*
X167132000Y-92500000D01*
%TO.N,VCCO*%
X168210200Y-76084900D02*
X167132000Y-76084900D01*
X172750000Y-71545100D02*
X168210200Y-76084900D01*
X172750000Y-70370000D02*
X172750000Y-71545100D01*
X167132000Y-77260000D02*
X167132000Y-76084900D01*
%TO.N,VCC*%
X178666800Y-81818100D02*
X174000000Y-86484900D01*
X178666800Y-57633200D02*
X178666800Y-81818100D01*
X179500000Y-56800000D02*
X178666800Y-57633200D01*
X174000000Y-87910000D02*
X174000000Y-86484900D01*
%TO.N,WAIT*%
X166766700Y-83515100D02*
X167132000Y-83515100D01*
X165862000Y-84419800D02*
X166766700Y-83515100D01*
X165862000Y-85289300D02*
X165862000Y-84419800D01*
X165001300Y-86150000D02*
X165862000Y-85289300D01*
X164177700Y-86150000D02*
X165001300Y-86150000D01*
X162735800Y-87591900D02*
X164177700Y-86150000D01*
X162735800Y-88296200D02*
X162735800Y-87591900D01*
X160450000Y-90582000D02*
X162735800Y-88296200D01*
X167132000Y-82340000D02*
X167132000Y-83515100D01*
%TO.N,GND*%
X163302900Y-79914000D02*
X163416900Y-79800000D01*
X160450000Y-79914000D02*
X163302900Y-79914000D01*
X164592000Y-79800000D02*
X163416900Y-79800000D01*
X164592000Y-77260000D02*
X164592000Y-76084900D01*
X175290000Y-70370000D02*
X174114900Y-70370000D01*
X174924700Y-66654900D02*
X175290000Y-66654900D01*
X173925200Y-65655400D02*
X174924700Y-66654900D01*
X173925200Y-57179800D02*
X173925200Y-65655400D01*
X173240200Y-56494800D02*
X173925200Y-57179800D01*
X171645900Y-56494800D02*
X173240200Y-56494800D01*
X161283100Y-46132000D02*
X171645900Y-56494800D01*
X160450000Y-46132000D02*
X161283100Y-46132000D01*
X175290000Y-67242400D02*
X175290000Y-66654900D01*
X175290000Y-67242400D02*
X175290000Y-67830000D01*
X175290000Y-67830000D02*
X175290000Y-69005100D01*
X175112500Y-69005100D02*
X174114900Y-70002700D01*
X175290000Y-69005100D02*
X175112500Y-69005100D01*
X173307100Y-69194900D02*
X174114900Y-70002700D01*
X171482000Y-69194900D02*
X173307100Y-69194900D01*
X164592000Y-76084900D02*
X171482000Y-69194900D01*
X174114900Y-70002700D02*
X174114900Y-70370000D01*
%TD*%
M02*
