%TF.GenerationSoftware,KiCad,Pcbnew,7.0.1*%
%TF.CreationDate,2023-07-20T10:28:40-07:00*%
%TF.ProjectId,tn_vdp_v9958_socket,746e5f76-6470-45f7-9639-3935385f736f,rev?*%
%TF.SameCoordinates,Original*%
%TF.FileFunction,Legend,Top*%
%TF.FilePolarity,Positive*%
%FSLAX46Y46*%
G04 Gerber Fmt 4.6, Leading zero omitted, Abs format (unit mm)*
G04 Created by KiCad (PCBNEW 7.0.1) date 2023-07-20 10:28:40*
%MOMM*%
%LPD*%
G01*
G04 APERTURE LIST*
%ADD10C,0.250000*%
%ADD11C,0.150000*%
%ADD12C,0.203200*%
%ADD13C,0.120000*%
%ADD14C,0.254000*%
%ADD15R,1.016000X1.016000*%
%ADD16C,1.016000*%
G04 APERTURE END LIST*
D10*
X165757619Y-70035714D02*
X165757619Y-69464286D01*
X166757619Y-69750000D02*
X165757619Y-69750000D01*
X166757619Y-69130952D02*
X165757619Y-69130952D01*
X165757619Y-69130952D02*
X166757619Y-68559524D01*
X166757619Y-68559524D02*
X165757619Y-68559524D01*
X166376666Y-68083333D02*
X166376666Y-67321429D01*
X165757619Y-66988095D02*
X166757619Y-66654762D01*
X166757619Y-66654762D02*
X165757619Y-66321429D01*
X166757619Y-65988095D02*
X165757619Y-65988095D01*
X165757619Y-65988095D02*
X165757619Y-65750000D01*
X165757619Y-65750000D02*
X165805238Y-65607143D01*
X165805238Y-65607143D02*
X165900476Y-65511905D01*
X165900476Y-65511905D02*
X165995714Y-65464286D01*
X165995714Y-65464286D02*
X166186190Y-65416667D01*
X166186190Y-65416667D02*
X166329047Y-65416667D01*
X166329047Y-65416667D02*
X166519523Y-65464286D01*
X166519523Y-65464286D02*
X166614761Y-65511905D01*
X166614761Y-65511905D02*
X166710000Y-65607143D01*
X166710000Y-65607143D02*
X166757619Y-65750000D01*
X166757619Y-65750000D02*
X166757619Y-65988095D01*
X166757619Y-64988095D02*
X165757619Y-64988095D01*
X165757619Y-64988095D02*
X165757619Y-64607143D01*
X165757619Y-64607143D02*
X165805238Y-64511905D01*
X165805238Y-64511905D02*
X165852857Y-64464286D01*
X165852857Y-64464286D02*
X165948095Y-64416667D01*
X165948095Y-64416667D02*
X166090952Y-64416667D01*
X166090952Y-64416667D02*
X166186190Y-64464286D01*
X166186190Y-64464286D02*
X166233809Y-64511905D01*
X166233809Y-64511905D02*
X166281428Y-64607143D01*
X166281428Y-64607143D02*
X166281428Y-64988095D01*
X165757619Y-63369047D02*
X165757619Y-62797619D01*
X166757619Y-63083333D02*
X165757619Y-63083333D01*
X166471904Y-62511904D02*
X166471904Y-62035714D01*
X166757619Y-62607142D02*
X165757619Y-62273809D01*
X165757619Y-62273809D02*
X166757619Y-61940476D01*
X166757619Y-61607142D02*
X165757619Y-61607142D01*
X165757619Y-61607142D02*
X166757619Y-61035714D01*
X166757619Y-61035714D02*
X165757619Y-61035714D01*
X165805238Y-60035714D02*
X165757619Y-60130952D01*
X165757619Y-60130952D02*
X165757619Y-60273809D01*
X165757619Y-60273809D02*
X165805238Y-60416666D01*
X165805238Y-60416666D02*
X165900476Y-60511904D01*
X165900476Y-60511904D02*
X165995714Y-60559523D01*
X165995714Y-60559523D02*
X166186190Y-60607142D01*
X166186190Y-60607142D02*
X166329047Y-60607142D01*
X166329047Y-60607142D02*
X166519523Y-60559523D01*
X166519523Y-60559523D02*
X166614761Y-60511904D01*
X166614761Y-60511904D02*
X166710000Y-60416666D01*
X166710000Y-60416666D02*
X166757619Y-60273809D01*
X166757619Y-60273809D02*
X166757619Y-60178571D01*
X166757619Y-60178571D02*
X166710000Y-60035714D01*
X166710000Y-60035714D02*
X166662380Y-59988095D01*
X166662380Y-59988095D02*
X166329047Y-59988095D01*
X166329047Y-59988095D02*
X166329047Y-60178571D01*
X166757619Y-58797618D02*
X165757619Y-58797618D01*
X165757619Y-58797618D02*
X166757619Y-58226190D01*
X166757619Y-58226190D02*
X165757619Y-58226190D01*
X166471904Y-57797618D02*
X166471904Y-57321428D01*
X166757619Y-57892856D02*
X165757619Y-57559523D01*
X165757619Y-57559523D02*
X166757619Y-57226190D01*
X166757619Y-56892856D02*
X165757619Y-56892856D01*
X165757619Y-56892856D02*
X166757619Y-56321428D01*
X166757619Y-56321428D02*
X165757619Y-56321428D01*
X165757619Y-55654761D02*
X165757619Y-55464285D01*
X165757619Y-55464285D02*
X165805238Y-55369047D01*
X165805238Y-55369047D02*
X165900476Y-55273809D01*
X165900476Y-55273809D02*
X166090952Y-55226190D01*
X166090952Y-55226190D02*
X166424285Y-55226190D01*
X166424285Y-55226190D02*
X166614761Y-55273809D01*
X166614761Y-55273809D02*
X166710000Y-55369047D01*
X166710000Y-55369047D02*
X166757619Y-55464285D01*
X166757619Y-55464285D02*
X166757619Y-55654761D01*
X166757619Y-55654761D02*
X166710000Y-55749999D01*
X166710000Y-55749999D02*
X166614761Y-55845237D01*
X166614761Y-55845237D02*
X166424285Y-55892856D01*
X166424285Y-55892856D02*
X166090952Y-55892856D01*
X166090952Y-55892856D02*
X165900476Y-55845237D01*
X165900476Y-55845237D02*
X165805238Y-55749999D01*
X165805238Y-55749999D02*
X165757619Y-55654761D01*
X165852857Y-54083332D02*
X165805238Y-54035713D01*
X165805238Y-54035713D02*
X165757619Y-53940475D01*
X165757619Y-53940475D02*
X165757619Y-53702380D01*
X165757619Y-53702380D02*
X165805238Y-53607142D01*
X165805238Y-53607142D02*
X165852857Y-53559523D01*
X165852857Y-53559523D02*
X165948095Y-53511904D01*
X165948095Y-53511904D02*
X166043333Y-53511904D01*
X166043333Y-53511904D02*
X166186190Y-53559523D01*
X166186190Y-53559523D02*
X166757619Y-54130951D01*
X166757619Y-54130951D02*
X166757619Y-53511904D01*
X165757619Y-52892856D02*
X165757619Y-52797618D01*
X165757619Y-52797618D02*
X165805238Y-52702380D01*
X165805238Y-52702380D02*
X165852857Y-52654761D01*
X165852857Y-52654761D02*
X165948095Y-52607142D01*
X165948095Y-52607142D02*
X166138571Y-52559523D01*
X166138571Y-52559523D02*
X166376666Y-52559523D01*
X166376666Y-52559523D02*
X166567142Y-52607142D01*
X166567142Y-52607142D02*
X166662380Y-52654761D01*
X166662380Y-52654761D02*
X166710000Y-52702380D01*
X166710000Y-52702380D02*
X166757619Y-52797618D01*
X166757619Y-52797618D02*
X166757619Y-52892856D01*
X166757619Y-52892856D02*
X166710000Y-52988094D01*
X166710000Y-52988094D02*
X166662380Y-53035713D01*
X166662380Y-53035713D02*
X166567142Y-53083332D01*
X166567142Y-53083332D02*
X166376666Y-53130951D01*
X166376666Y-53130951D02*
X166138571Y-53130951D01*
X166138571Y-53130951D02*
X165948095Y-53083332D01*
X165948095Y-53083332D02*
X165852857Y-53035713D01*
X165852857Y-53035713D02*
X165805238Y-52988094D01*
X165805238Y-52988094D02*
X165757619Y-52892856D01*
X166757619Y-52130951D02*
X165757619Y-52130951D01*
X166757619Y-51559523D02*
X166186190Y-51988094D01*
X165757619Y-51559523D02*
X166329047Y-52130951D01*
X167710952Y-71654761D02*
X168377619Y-71416666D01*
X168377619Y-71416666D02*
X167710952Y-71178571D01*
X167472857Y-70845237D02*
X167425238Y-70797618D01*
X167425238Y-70797618D02*
X167377619Y-70702380D01*
X167377619Y-70702380D02*
X167377619Y-70464285D01*
X167377619Y-70464285D02*
X167425238Y-70369047D01*
X167425238Y-70369047D02*
X167472857Y-70321428D01*
X167472857Y-70321428D02*
X167568095Y-70273809D01*
X167568095Y-70273809D02*
X167663333Y-70273809D01*
X167663333Y-70273809D02*
X167806190Y-70321428D01*
X167806190Y-70321428D02*
X168377619Y-70892856D01*
X168377619Y-70892856D02*
X168377619Y-70273809D01*
X168282380Y-69845237D02*
X168330000Y-69797618D01*
X168330000Y-69797618D02*
X168377619Y-69845237D01*
X168377619Y-69845237D02*
X168330000Y-69892856D01*
X168330000Y-69892856D02*
X168282380Y-69845237D01*
X168282380Y-69845237D02*
X168377619Y-69845237D01*
X167377619Y-69178571D02*
X167377619Y-69083333D01*
X167377619Y-69083333D02*
X167425238Y-68988095D01*
X167425238Y-68988095D02*
X167472857Y-68940476D01*
X167472857Y-68940476D02*
X167568095Y-68892857D01*
X167568095Y-68892857D02*
X167758571Y-68845238D01*
X167758571Y-68845238D02*
X167996666Y-68845238D01*
X167996666Y-68845238D02*
X168187142Y-68892857D01*
X168187142Y-68892857D02*
X168282380Y-68940476D01*
X168282380Y-68940476D02*
X168330000Y-68988095D01*
X168330000Y-68988095D02*
X168377619Y-69083333D01*
X168377619Y-69083333D02*
X168377619Y-69178571D01*
X168377619Y-69178571D02*
X168330000Y-69273809D01*
X168330000Y-69273809D02*
X168282380Y-69321428D01*
X168282380Y-69321428D02*
X168187142Y-69369047D01*
X168187142Y-69369047D02*
X167996666Y-69416666D01*
X167996666Y-69416666D02*
X167758571Y-69416666D01*
X167758571Y-69416666D02*
X167568095Y-69369047D01*
X167568095Y-69369047D02*
X167472857Y-69321428D01*
X167472857Y-69321428D02*
X167425238Y-69273809D01*
X167425238Y-69273809D02*
X167377619Y-69178571D01*
X168377619Y-67892857D02*
X168377619Y-68464285D01*
X168377619Y-68178571D02*
X167377619Y-68178571D01*
X167377619Y-68178571D02*
X167520476Y-68273809D01*
X167520476Y-68273809D02*
X167615714Y-68369047D01*
X167615714Y-68369047D02*
X167663333Y-68464285D01*
X167710952Y-67035714D02*
X168377619Y-67035714D01*
X167710952Y-67464285D02*
X168234761Y-67464285D01*
X168234761Y-67464285D02*
X168330000Y-67416666D01*
X168330000Y-67416666D02*
X168377619Y-67321428D01*
X168377619Y-67321428D02*
X168377619Y-67178571D01*
X168377619Y-67178571D02*
X168330000Y-67083333D01*
X168330000Y-67083333D02*
X168282380Y-67035714D01*
X167472857Y-65845237D02*
X167425238Y-65797618D01*
X167425238Y-65797618D02*
X167377619Y-65702380D01*
X167377619Y-65702380D02*
X167377619Y-65464285D01*
X167377619Y-65464285D02*
X167425238Y-65369047D01*
X167425238Y-65369047D02*
X167472857Y-65321428D01*
X167472857Y-65321428D02*
X167568095Y-65273809D01*
X167568095Y-65273809D02*
X167663333Y-65273809D01*
X167663333Y-65273809D02*
X167806190Y-65321428D01*
X167806190Y-65321428D02*
X168377619Y-65892856D01*
X168377619Y-65892856D02*
X168377619Y-65273809D01*
X167377619Y-64654761D02*
X167377619Y-64559523D01*
X167377619Y-64559523D02*
X167425238Y-64464285D01*
X167425238Y-64464285D02*
X167472857Y-64416666D01*
X167472857Y-64416666D02*
X167568095Y-64369047D01*
X167568095Y-64369047D02*
X167758571Y-64321428D01*
X167758571Y-64321428D02*
X167996666Y-64321428D01*
X167996666Y-64321428D02*
X168187142Y-64369047D01*
X168187142Y-64369047D02*
X168282380Y-64416666D01*
X168282380Y-64416666D02*
X168330000Y-64464285D01*
X168330000Y-64464285D02*
X168377619Y-64559523D01*
X168377619Y-64559523D02*
X168377619Y-64654761D01*
X168377619Y-64654761D02*
X168330000Y-64749999D01*
X168330000Y-64749999D02*
X168282380Y-64797618D01*
X168282380Y-64797618D02*
X168187142Y-64845237D01*
X168187142Y-64845237D02*
X167996666Y-64892856D01*
X167996666Y-64892856D02*
X167758571Y-64892856D01*
X167758571Y-64892856D02*
X167568095Y-64845237D01*
X167568095Y-64845237D02*
X167472857Y-64797618D01*
X167472857Y-64797618D02*
X167425238Y-64749999D01*
X167425238Y-64749999D02*
X167377619Y-64654761D01*
X167472857Y-63940475D02*
X167425238Y-63892856D01*
X167425238Y-63892856D02*
X167377619Y-63797618D01*
X167377619Y-63797618D02*
X167377619Y-63559523D01*
X167377619Y-63559523D02*
X167425238Y-63464285D01*
X167425238Y-63464285D02*
X167472857Y-63416666D01*
X167472857Y-63416666D02*
X167568095Y-63369047D01*
X167568095Y-63369047D02*
X167663333Y-63369047D01*
X167663333Y-63369047D02*
X167806190Y-63416666D01*
X167806190Y-63416666D02*
X168377619Y-63988094D01*
X168377619Y-63988094D02*
X168377619Y-63369047D01*
X167377619Y-63035713D02*
X167377619Y-62416666D01*
X167377619Y-62416666D02*
X167758571Y-62749999D01*
X167758571Y-62749999D02*
X167758571Y-62607142D01*
X167758571Y-62607142D02*
X167806190Y-62511904D01*
X167806190Y-62511904D02*
X167853809Y-62464285D01*
X167853809Y-62464285D02*
X167949047Y-62416666D01*
X167949047Y-62416666D02*
X168187142Y-62416666D01*
X168187142Y-62416666D02*
X168282380Y-62464285D01*
X168282380Y-62464285D02*
X168330000Y-62511904D01*
X168330000Y-62511904D02*
X168377619Y-62607142D01*
X168377619Y-62607142D02*
X168377619Y-62892856D01*
X168377619Y-62892856D02*
X168330000Y-62988094D01*
X168330000Y-62988094D02*
X168282380Y-63035713D01*
X168377619Y-60749999D02*
X168377619Y-61226189D01*
X168377619Y-61226189D02*
X167377619Y-61226189D01*
X167377619Y-60416665D02*
X168187142Y-60416665D01*
X168187142Y-60416665D02*
X168282380Y-60369046D01*
X168282380Y-60369046D02*
X168330000Y-60321427D01*
X168330000Y-60321427D02*
X168377619Y-60226189D01*
X168377619Y-60226189D02*
X168377619Y-60035713D01*
X168377619Y-60035713D02*
X168330000Y-59940475D01*
X168330000Y-59940475D02*
X168282380Y-59892856D01*
X168282380Y-59892856D02*
X168187142Y-59845237D01*
X168187142Y-59845237D02*
X167377619Y-59845237D01*
X168377619Y-59369046D02*
X167377619Y-59369046D01*
X168330000Y-58940475D02*
X168377619Y-58797618D01*
X168377619Y-58797618D02*
X168377619Y-58559523D01*
X168377619Y-58559523D02*
X168330000Y-58464285D01*
X168330000Y-58464285D02*
X168282380Y-58416666D01*
X168282380Y-58416666D02*
X168187142Y-58369047D01*
X168187142Y-58369047D02*
X168091904Y-58369047D01*
X168091904Y-58369047D02*
X167996666Y-58416666D01*
X167996666Y-58416666D02*
X167949047Y-58464285D01*
X167949047Y-58464285D02*
X167901428Y-58559523D01*
X167901428Y-58559523D02*
X167853809Y-58749999D01*
X167853809Y-58749999D02*
X167806190Y-58845237D01*
X167806190Y-58845237D02*
X167758571Y-58892856D01*
X167758571Y-58892856D02*
X167663333Y-58940475D01*
X167663333Y-58940475D02*
X167568095Y-58940475D01*
X167568095Y-58940475D02*
X167472857Y-58892856D01*
X167472857Y-58892856D02*
X167425238Y-58845237D01*
X167425238Y-58845237D02*
X167377619Y-58749999D01*
X167377619Y-58749999D02*
X167377619Y-58511904D01*
X167377619Y-58511904D02*
X167425238Y-58369047D01*
X168091904Y-57226189D02*
X168091904Y-56749999D01*
X168377619Y-57321427D02*
X167377619Y-56988094D01*
X167377619Y-56988094D02*
X168377619Y-56654761D01*
X168377619Y-56321427D02*
X167377619Y-56321427D01*
X167377619Y-56321427D02*
X168377619Y-55749999D01*
X168377619Y-55749999D02*
X167377619Y-55749999D01*
X167377619Y-55416665D02*
X167377619Y-54845237D01*
X168377619Y-55130951D02*
X167377619Y-55130951D01*
X167377619Y-54321427D02*
X167377619Y-54130951D01*
X167377619Y-54130951D02*
X167425238Y-54035713D01*
X167425238Y-54035713D02*
X167520476Y-53940475D01*
X167520476Y-53940475D02*
X167710952Y-53892856D01*
X167710952Y-53892856D02*
X168044285Y-53892856D01*
X168044285Y-53892856D02*
X168234761Y-53940475D01*
X168234761Y-53940475D02*
X168330000Y-54035713D01*
X168330000Y-54035713D02*
X168377619Y-54130951D01*
X168377619Y-54130951D02*
X168377619Y-54321427D01*
X168377619Y-54321427D02*
X168330000Y-54416665D01*
X168330000Y-54416665D02*
X168234761Y-54511903D01*
X168234761Y-54511903D02*
X168044285Y-54559522D01*
X168044285Y-54559522D02*
X167710952Y-54559522D01*
X167710952Y-54559522D02*
X167520476Y-54511903D01*
X167520476Y-54511903D02*
X167425238Y-54416665D01*
X167425238Y-54416665D02*
X167377619Y-54321427D01*
X168377619Y-53464284D02*
X167377619Y-53464284D01*
X167377619Y-53464284D02*
X168377619Y-52892856D01*
X168377619Y-52892856D02*
X167377619Y-52892856D01*
X168377619Y-52416665D02*
X167377619Y-52416665D01*
X167377619Y-51749999D02*
X167377619Y-51559523D01*
X167377619Y-51559523D02*
X167425238Y-51464285D01*
X167425238Y-51464285D02*
X167520476Y-51369047D01*
X167520476Y-51369047D02*
X167710952Y-51321428D01*
X167710952Y-51321428D02*
X168044285Y-51321428D01*
X168044285Y-51321428D02*
X168234761Y-51369047D01*
X168234761Y-51369047D02*
X168330000Y-51464285D01*
X168330000Y-51464285D02*
X168377619Y-51559523D01*
X168377619Y-51559523D02*
X168377619Y-51749999D01*
X168377619Y-51749999D02*
X168330000Y-51845237D01*
X168330000Y-51845237D02*
X168234761Y-51940475D01*
X168234761Y-51940475D02*
X168044285Y-51988094D01*
X168044285Y-51988094D02*
X167710952Y-51988094D01*
X167710952Y-51988094D02*
X167520476Y-51940475D01*
X167520476Y-51940475D02*
X167425238Y-51845237D01*
X167425238Y-51845237D02*
X167377619Y-51749999D01*
X168330000Y-50940475D02*
X168377619Y-50797618D01*
X168377619Y-50797618D02*
X168377619Y-50559523D01*
X168377619Y-50559523D02*
X168330000Y-50464285D01*
X168330000Y-50464285D02*
X168282380Y-50416666D01*
X168282380Y-50416666D02*
X168187142Y-50369047D01*
X168187142Y-50369047D02*
X168091904Y-50369047D01*
X168091904Y-50369047D02*
X167996666Y-50416666D01*
X167996666Y-50416666D02*
X167949047Y-50464285D01*
X167949047Y-50464285D02*
X167901428Y-50559523D01*
X167901428Y-50559523D02*
X167853809Y-50749999D01*
X167853809Y-50749999D02*
X167806190Y-50845237D01*
X167806190Y-50845237D02*
X167758571Y-50892856D01*
X167758571Y-50892856D02*
X167663333Y-50940475D01*
X167663333Y-50940475D02*
X167568095Y-50940475D01*
X167568095Y-50940475D02*
X167472857Y-50892856D01*
X167472857Y-50892856D02*
X167425238Y-50845237D01*
X167425238Y-50845237D02*
X167377619Y-50749999D01*
X167377619Y-50749999D02*
X167377619Y-50511904D01*
X167377619Y-50511904D02*
X167425238Y-50369047D01*
X168377619Y-49940475D02*
X167377619Y-49940475D01*
D11*
%TO.C,D1*%
X176562619Y-78011904D02*
X175562619Y-78011904D01*
X176562619Y-77440476D02*
X175991190Y-77869047D01*
X175562619Y-77440476D02*
X176134047Y-78011904D01*
X174370095Y-84464286D02*
X174370095Y-84921429D01*
X174370095Y-84692857D02*
X173570095Y-84692857D01*
X173570095Y-84692857D02*
X173684380Y-84769048D01*
X173684380Y-84769048D02*
X173760571Y-84845238D01*
X173760571Y-84845238D02*
X173798666Y-84921429D01*
X174370095Y-84121428D02*
X173570095Y-84121428D01*
X173570095Y-84121428D02*
X174370095Y-83664285D01*
X174370095Y-83664285D02*
X173570095Y-83664285D01*
X173570095Y-82902381D02*
X173570095Y-83283333D01*
X173570095Y-83283333D02*
X173951047Y-83321429D01*
X173951047Y-83321429D02*
X173912952Y-83283333D01*
X173912952Y-83283333D02*
X173874857Y-83207143D01*
X173874857Y-83207143D02*
X173874857Y-83016667D01*
X173874857Y-83016667D02*
X173912952Y-82940476D01*
X173912952Y-82940476D02*
X173951047Y-82902381D01*
X173951047Y-82902381D02*
X174027238Y-82864286D01*
X174027238Y-82864286D02*
X174217714Y-82864286D01*
X174217714Y-82864286D02*
X174293904Y-82902381D01*
X174293904Y-82902381D02*
X174332000Y-82940476D01*
X174332000Y-82940476D02*
X174370095Y-83016667D01*
X174370095Y-83016667D02*
X174370095Y-83207143D01*
X174370095Y-83207143D02*
X174332000Y-83283333D01*
X174332000Y-83283333D02*
X174293904Y-83321429D01*
X173912952Y-82407143D02*
X173874857Y-82483333D01*
X173874857Y-82483333D02*
X173836761Y-82521428D01*
X173836761Y-82521428D02*
X173760571Y-82559524D01*
X173760571Y-82559524D02*
X173722476Y-82559524D01*
X173722476Y-82559524D02*
X173646285Y-82521428D01*
X173646285Y-82521428D02*
X173608190Y-82483333D01*
X173608190Y-82483333D02*
X173570095Y-82407143D01*
X173570095Y-82407143D02*
X173570095Y-82254762D01*
X173570095Y-82254762D02*
X173608190Y-82178571D01*
X173608190Y-82178571D02*
X173646285Y-82140476D01*
X173646285Y-82140476D02*
X173722476Y-82102381D01*
X173722476Y-82102381D02*
X173760571Y-82102381D01*
X173760571Y-82102381D02*
X173836761Y-82140476D01*
X173836761Y-82140476D02*
X173874857Y-82178571D01*
X173874857Y-82178571D02*
X173912952Y-82254762D01*
X173912952Y-82254762D02*
X173912952Y-82407143D01*
X173912952Y-82407143D02*
X173951047Y-82483333D01*
X173951047Y-82483333D02*
X173989142Y-82521428D01*
X173989142Y-82521428D02*
X174065333Y-82559524D01*
X174065333Y-82559524D02*
X174217714Y-82559524D01*
X174217714Y-82559524D02*
X174293904Y-82521428D01*
X174293904Y-82521428D02*
X174332000Y-82483333D01*
X174332000Y-82483333D02*
X174370095Y-82407143D01*
X174370095Y-82407143D02*
X174370095Y-82254762D01*
X174370095Y-82254762D02*
X174332000Y-82178571D01*
X174332000Y-82178571D02*
X174293904Y-82140476D01*
X174293904Y-82140476D02*
X174217714Y-82102381D01*
X174217714Y-82102381D02*
X174065333Y-82102381D01*
X174065333Y-82102381D02*
X173989142Y-82140476D01*
X173989142Y-82140476D02*
X173951047Y-82178571D01*
X173951047Y-82178571D02*
X173912952Y-82254762D01*
X174370095Y-81340476D02*
X174370095Y-81797619D01*
X174370095Y-81569047D02*
X173570095Y-81569047D01*
X173570095Y-81569047D02*
X173684380Y-81645238D01*
X173684380Y-81645238D02*
X173760571Y-81721428D01*
X173760571Y-81721428D02*
X173798666Y-81797619D01*
X173570095Y-81073809D02*
X173570095Y-80540475D01*
X173570095Y-80540475D02*
X174370095Y-80883333D01*
%TO.C,J3*%
X164877714Y-75436619D02*
X164306286Y-75436619D01*
X164592000Y-75436619D02*
X164592000Y-74436619D01*
X164592000Y-74436619D02*
X164496762Y-74579476D01*
X164496762Y-74579476D02*
X164401524Y-74674714D01*
X164401524Y-74674714D02*
X164306286Y-74722333D01*
D12*
%TO.C,U1*%
X162954020Y-64594982D02*
X163970020Y-64417182D01*
X163970020Y-64417182D02*
X162954020Y-63985382D01*
X163970020Y-63770087D02*
X163970020Y-63595916D01*
X163970020Y-63595916D02*
X163921640Y-63502782D01*
X163921640Y-63502782D02*
X163873259Y-63453192D01*
X163873259Y-63453192D02*
X163728116Y-63347963D01*
X163728116Y-63347963D02*
X163534592Y-63280230D01*
X163534592Y-63280230D02*
X163147544Y-63231849D01*
X163147544Y-63231849D02*
X163050782Y-63263297D01*
X163050782Y-63263297D02*
X163002401Y-63300792D01*
X163002401Y-63300792D02*
X162954020Y-63381830D01*
X162954020Y-63381830D02*
X162954020Y-63556001D01*
X162954020Y-63556001D02*
X163002401Y-63649135D01*
X163002401Y-63649135D02*
X163050782Y-63698725D01*
X163050782Y-63698725D02*
X163147544Y-63754363D01*
X163147544Y-63754363D02*
X163389449Y-63784601D01*
X163389449Y-63784601D02*
X163486211Y-63753154D01*
X163486211Y-63753154D02*
X163534592Y-63715658D01*
X163534592Y-63715658D02*
X163582973Y-63634620D01*
X163582973Y-63634620D02*
X163582973Y-63460449D01*
X163582973Y-63460449D02*
X163534592Y-63367316D01*
X163534592Y-63367316D02*
X163486211Y-63317725D01*
X163486211Y-63317725D02*
X163389449Y-63262087D01*
X163970020Y-62905277D02*
X163970020Y-62731106D01*
X163970020Y-62731106D02*
X163921640Y-62637972D01*
X163921640Y-62637972D02*
X163873259Y-62588382D01*
X163873259Y-62588382D02*
X163728116Y-62483153D01*
X163728116Y-62483153D02*
X163534592Y-62415420D01*
X163534592Y-62415420D02*
X163147544Y-62367039D01*
X163147544Y-62367039D02*
X163050782Y-62398487D01*
X163050782Y-62398487D02*
X163002401Y-62435982D01*
X163002401Y-62435982D02*
X162954020Y-62517020D01*
X162954020Y-62517020D02*
X162954020Y-62691191D01*
X162954020Y-62691191D02*
X163002401Y-62784325D01*
X163002401Y-62784325D02*
X163050782Y-62833915D01*
X163050782Y-62833915D02*
X163147544Y-62889553D01*
X163147544Y-62889553D02*
X163389449Y-62919791D01*
X163389449Y-62919791D02*
X163486211Y-62888344D01*
X163486211Y-62888344D02*
X163534592Y-62850848D01*
X163534592Y-62850848D02*
X163582973Y-62769810D01*
X163582973Y-62769810D02*
X163582973Y-62595639D01*
X163582973Y-62595639D02*
X163534592Y-62502506D01*
X163534592Y-62502506D02*
X163486211Y-62452915D01*
X163486211Y-62452915D02*
X163389449Y-62397277D01*
X162954020Y-62044096D02*
X162954020Y-61478038D01*
X162954020Y-61478038D02*
X163341068Y-61831219D01*
X163341068Y-61831219D02*
X163341068Y-61700591D01*
X163341068Y-61700591D02*
X163389449Y-61619553D01*
X163389449Y-61619553D02*
X163437830Y-61582057D01*
X163437830Y-61582057D02*
X163534592Y-61550610D01*
X163534592Y-61550610D02*
X163776497Y-61580848D01*
X163776497Y-61580848D02*
X163873259Y-61636486D01*
X163873259Y-61636486D02*
X163921640Y-61686077D01*
X163921640Y-61686077D02*
X163970020Y-61779210D01*
X163970020Y-61779210D02*
X163970020Y-62040467D01*
X163970020Y-62040467D02*
X163921640Y-62121505D01*
X163921640Y-62121505D02*
X163873259Y-62159000D01*
X163389449Y-61016000D02*
X163341068Y-61097038D01*
X163341068Y-61097038D02*
X163292687Y-61134533D01*
X163292687Y-61134533D02*
X163195925Y-61165981D01*
X163195925Y-61165981D02*
X163147544Y-61159933D01*
X163147544Y-61159933D02*
X163050782Y-61104295D01*
X163050782Y-61104295D02*
X163002401Y-61054705D01*
X163002401Y-61054705D02*
X162954020Y-60961571D01*
X162954020Y-60961571D02*
X162954020Y-60787400D01*
X162954020Y-60787400D02*
X163002401Y-60706362D01*
X163002401Y-60706362D02*
X163050782Y-60668867D01*
X163050782Y-60668867D02*
X163147544Y-60637419D01*
X163147544Y-60637419D02*
X163195925Y-60643467D01*
X163195925Y-60643467D02*
X163292687Y-60699105D01*
X163292687Y-60699105D02*
X163341068Y-60748695D01*
X163341068Y-60748695D02*
X163389449Y-60841828D01*
X163389449Y-60841828D02*
X163389449Y-61016000D01*
X163389449Y-61016000D02*
X163437830Y-61109133D01*
X163437830Y-61109133D02*
X163486211Y-61158724D01*
X163486211Y-61158724D02*
X163582973Y-61214362D01*
X163582973Y-61214362D02*
X163776497Y-61238552D01*
X163776497Y-61238552D02*
X163873259Y-61207105D01*
X163873259Y-61207105D02*
X163921640Y-61169609D01*
X163921640Y-61169609D02*
X163970020Y-61088571D01*
X163970020Y-61088571D02*
X163970020Y-60914400D01*
X163970020Y-60914400D02*
X163921640Y-60821267D01*
X163921640Y-60821267D02*
X163873259Y-60771676D01*
X163873259Y-60771676D02*
X163776497Y-60716038D01*
X163776497Y-60716038D02*
X163582973Y-60691847D01*
X163582973Y-60691847D02*
X163486211Y-60723295D01*
X163486211Y-60723295D02*
X163437830Y-60760790D01*
X163437830Y-60760790D02*
X163389449Y-60841828D01*
X163582973Y-60306009D02*
X163582973Y-59609323D01*
X162954020Y-59225904D02*
X163970020Y-59048104D01*
X163970020Y-59048104D02*
X162954020Y-58616304D01*
X163970020Y-58401009D02*
X163970020Y-58226838D01*
X163970020Y-58226838D02*
X163921640Y-58133704D01*
X163921640Y-58133704D02*
X163873259Y-58084114D01*
X163873259Y-58084114D02*
X163728116Y-57978885D01*
X163728116Y-57978885D02*
X163534592Y-57911152D01*
X163534592Y-57911152D02*
X163147544Y-57862771D01*
X163147544Y-57862771D02*
X163050782Y-57894219D01*
X163050782Y-57894219D02*
X163002401Y-57931714D01*
X163002401Y-57931714D02*
X162954020Y-58012752D01*
X162954020Y-58012752D02*
X162954020Y-58186923D01*
X162954020Y-58186923D02*
X163002401Y-58280057D01*
X163002401Y-58280057D02*
X163050782Y-58329647D01*
X163050782Y-58329647D02*
X163147544Y-58385285D01*
X163147544Y-58385285D02*
X163389449Y-58415523D01*
X163389449Y-58415523D02*
X163486211Y-58384076D01*
X163486211Y-58384076D02*
X163534592Y-58346580D01*
X163534592Y-58346580D02*
X163582973Y-58265542D01*
X163582973Y-58265542D02*
X163582973Y-58091371D01*
X163582973Y-58091371D02*
X163534592Y-57998238D01*
X163534592Y-57998238D02*
X163486211Y-57948647D01*
X163486211Y-57948647D02*
X163389449Y-57893009D01*
X163970020Y-57536199D02*
X163970020Y-57362028D01*
X163970020Y-57362028D02*
X163921640Y-57268894D01*
X163921640Y-57268894D02*
X163873259Y-57219304D01*
X163873259Y-57219304D02*
X163728116Y-57114075D01*
X163728116Y-57114075D02*
X163534592Y-57046342D01*
X163534592Y-57046342D02*
X163147544Y-56997961D01*
X163147544Y-56997961D02*
X163050782Y-57029409D01*
X163050782Y-57029409D02*
X163002401Y-57066904D01*
X163002401Y-57066904D02*
X162954020Y-57147942D01*
X162954020Y-57147942D02*
X162954020Y-57322113D01*
X162954020Y-57322113D02*
X163002401Y-57415247D01*
X163002401Y-57415247D02*
X163050782Y-57464837D01*
X163050782Y-57464837D02*
X163147544Y-57520475D01*
X163147544Y-57520475D02*
X163389449Y-57550713D01*
X163389449Y-57550713D02*
X163486211Y-57519266D01*
X163486211Y-57519266D02*
X163534592Y-57481770D01*
X163534592Y-57481770D02*
X163582973Y-57400732D01*
X163582973Y-57400732D02*
X163582973Y-57226561D01*
X163582973Y-57226561D02*
X163534592Y-57133428D01*
X163534592Y-57133428D02*
X163486211Y-57083837D01*
X163486211Y-57083837D02*
X163389449Y-57028199D01*
X162954020Y-56152503D02*
X162954020Y-56587932D01*
X162954020Y-56587932D02*
X163437830Y-56691951D01*
X163437830Y-56691951D02*
X163389449Y-56642360D01*
X163389449Y-56642360D02*
X163341068Y-56549227D01*
X163341068Y-56549227D02*
X163341068Y-56331513D01*
X163341068Y-56331513D02*
X163389449Y-56250475D01*
X163389449Y-56250475D02*
X163437830Y-56212979D01*
X163437830Y-56212979D02*
X163534592Y-56181532D01*
X163534592Y-56181532D02*
X163776497Y-56211770D01*
X163776497Y-56211770D02*
X163873259Y-56267408D01*
X163873259Y-56267408D02*
X163921640Y-56316999D01*
X163921640Y-56316999D02*
X163970020Y-56410132D01*
X163970020Y-56410132D02*
X163970020Y-56627846D01*
X163970020Y-56627846D02*
X163921640Y-56708884D01*
X163921640Y-56708884D02*
X163873259Y-56746379D01*
X163389449Y-55646922D02*
X163341068Y-55727960D01*
X163341068Y-55727960D02*
X163292687Y-55765455D01*
X163292687Y-55765455D02*
X163195925Y-55796903D01*
X163195925Y-55796903D02*
X163147544Y-55790855D01*
X163147544Y-55790855D02*
X163050782Y-55735217D01*
X163050782Y-55735217D02*
X163002401Y-55685627D01*
X163002401Y-55685627D02*
X162954020Y-55592493D01*
X162954020Y-55592493D02*
X162954020Y-55418322D01*
X162954020Y-55418322D02*
X163002401Y-55337284D01*
X163002401Y-55337284D02*
X163050782Y-55299789D01*
X163050782Y-55299789D02*
X163147544Y-55268341D01*
X163147544Y-55268341D02*
X163195925Y-55274389D01*
X163195925Y-55274389D02*
X163292687Y-55330027D01*
X163292687Y-55330027D02*
X163341068Y-55379617D01*
X163341068Y-55379617D02*
X163389449Y-55472750D01*
X163389449Y-55472750D02*
X163389449Y-55646922D01*
X163389449Y-55646922D02*
X163437830Y-55740055D01*
X163437830Y-55740055D02*
X163486211Y-55789646D01*
X163486211Y-55789646D02*
X163582973Y-55845284D01*
X163582973Y-55845284D02*
X163776497Y-55869474D01*
X163776497Y-55869474D02*
X163873259Y-55838027D01*
X163873259Y-55838027D02*
X163921640Y-55800531D01*
X163921640Y-55800531D02*
X163970020Y-55719493D01*
X163970020Y-55719493D02*
X163970020Y-55545322D01*
X163970020Y-55545322D02*
X163921640Y-55452189D01*
X163921640Y-55452189D02*
X163873259Y-55402598D01*
X163873259Y-55402598D02*
X163776497Y-55346960D01*
X163776497Y-55346960D02*
X163582973Y-55322769D01*
X163582973Y-55322769D02*
X163486211Y-55354217D01*
X163486211Y-55354217D02*
X163437830Y-55391712D01*
X163437830Y-55391712D02*
X163389449Y-55472750D01*
D11*
%TO.C,J4*%
X175702714Y-73245619D02*
X175131286Y-73245619D01*
X175417000Y-73245619D02*
X175417000Y-72245619D01*
X175417000Y-72245619D02*
X175321762Y-72388476D01*
X175321762Y-72388476D02*
X175226524Y-72483714D01*
X175226524Y-72483714D02*
X175131286Y-72531333D01*
D13*
%TO.C,D1*%
X174000000Y-79090000D02*
X174000000Y-80110000D01*
X175470000Y-80110000D02*
X172530000Y-80110000D01*
X172530000Y-80110000D02*
X172530000Y-85550000D01*
X175470000Y-80890000D02*
X172530000Y-80890000D01*
X175470000Y-81010000D02*
X172530000Y-81010000D01*
X175470000Y-81130000D02*
X172530000Y-81130000D01*
X175470000Y-85550000D02*
X175470000Y-80110000D01*
X172530000Y-85550000D02*
X175470000Y-85550000D01*
X174000000Y-86570000D02*
X174000000Y-85550000D01*
%TO.C,J3*%
X163262000Y-75930000D02*
X164592000Y-75930000D01*
X163262000Y-77260000D02*
X163262000Y-75930000D01*
X163262000Y-78530000D02*
X163262000Y-101450000D01*
X163262000Y-78530000D02*
X165862000Y-78530000D01*
X163262000Y-101450000D02*
X168462000Y-101450000D01*
X165862000Y-75930000D02*
X168462000Y-75930000D01*
X165862000Y-78530000D02*
X165862000Y-75930000D01*
X168462000Y-75930000D02*
X168462000Y-101450000D01*
D14*
%TO.C,U1*%
X178475000Y-44691000D02*
X178475000Y-102691000D01*
X161475000Y-44691000D02*
X178475000Y-44691000D01*
X178475000Y-102691000D02*
X161475000Y-102691000D01*
X161475000Y-102691000D02*
X161475000Y-44691000D01*
X169975000Y-45707000D02*
G75*
G03*
X170991000Y-44691000I-2J1016002D01*
G01*
X168959000Y-44691000D02*
G75*
G03*
X169975000Y-45707000I1016002J2D01*
G01*
D13*
%TO.C,J4*%
X176620000Y-71700000D02*
X175290000Y-71700000D01*
X176620000Y-70370000D02*
X176620000Y-71700000D01*
X176620000Y-69100000D02*
X176620000Y-46180000D01*
X176620000Y-69100000D02*
X174020000Y-69100000D01*
X176620000Y-46180000D02*
X171420000Y-46180000D01*
X174020000Y-71700000D02*
X171420000Y-71700000D01*
X174020000Y-69100000D02*
X174020000Y-71700000D01*
X171420000Y-71700000D02*
X171420000Y-46180000D01*
%TD*%
D15*
%TO.C,U1*%
X160450000Y-46132000D03*
D16*
X160450000Y-47910000D03*
X160450000Y-49688000D03*
X160450000Y-51466000D03*
X160450000Y-53244000D03*
X160450000Y-55022000D03*
X160450000Y-56800000D03*
X160450000Y-58578000D03*
X160450000Y-60356000D03*
X160450000Y-62134000D03*
X160450000Y-63912000D03*
X160450000Y-65690000D03*
X160450000Y-67468000D03*
X160450000Y-69246000D03*
X160450000Y-71024000D03*
X160450000Y-72802000D03*
X160450000Y-74580000D03*
X160450000Y-76358000D03*
X160450000Y-78136000D03*
X160450000Y-79914000D03*
X160450000Y-81692000D03*
X160450000Y-83470000D03*
X160450000Y-85248000D03*
X160450000Y-87026000D03*
X160450000Y-88804000D03*
X160450000Y-90582000D03*
X160450000Y-92360000D03*
X160450000Y-94138000D03*
X160450000Y-95916000D03*
X160450000Y-97694000D03*
X160450000Y-99472000D03*
X160450000Y-101250000D03*
X179500000Y-101250000D03*
X179500000Y-99472000D03*
X179500000Y-97694000D03*
X179500000Y-95916000D03*
X179500000Y-94138000D03*
X179500000Y-92360000D03*
X179500000Y-90582000D03*
X179500000Y-88804000D03*
X179500000Y-87026000D03*
X179500000Y-85248000D03*
X179500000Y-83470000D03*
X179500000Y-81692000D03*
X179500000Y-79914000D03*
X179500000Y-78136000D03*
X179500000Y-76358000D03*
X179500000Y-74580000D03*
X179500000Y-72802000D03*
X179500000Y-71024000D03*
X179500000Y-69246000D03*
X179500000Y-67468000D03*
X179500000Y-65690000D03*
X179500000Y-63912000D03*
X179500000Y-62134000D03*
X179500000Y-60356000D03*
X179500000Y-58578000D03*
X179500000Y-56800000D03*
X179500000Y-55022000D03*
X179500000Y-53244000D03*
X179500000Y-51466000D03*
X179500000Y-49688000D03*
X179500000Y-47910000D03*
X179500000Y-46132000D03*
%TD*%
M02*
