%TF.GenerationSoftware,KiCad,Pcbnew,7.0.1*%
%TF.CreationDate,2023-07-20T10:28:40-07:00*%
%TF.ProjectId,tn_vdp_v9958_socket,746e5f76-6470-45f7-9639-3935385f736f,rev?*%
%TF.SameCoordinates,Original*%
%TF.FileFunction,Soldermask,Top*%
%TF.FilePolarity,Negative*%
%FSLAX46Y46*%
G04 Gerber Fmt 4.6, Leading zero omitted, Abs format (unit mm)*
G04 Created by KiCad (PCBNEW 7.0.1) date 2023-07-20 10:28:40*
%MOMM*%
%LPD*%
G01*
G04 APERTURE LIST*
%ADD10R,2.200000X2.200000*%
%ADD11O,2.200000X2.200000*%
%ADD12R,1.700000X1.700000*%
%ADD13O,1.700000X1.700000*%
%ADD14R,1.016000X1.016000*%
%ADD15C,1.016000*%
G04 APERTURE END LIST*
D10*
%TO.C,D1*%
X174000000Y-77750000D03*
D11*
X174000000Y-87910000D03*
%TD*%
D12*
%TO.C,J3*%
X164592000Y-77260000D03*
D13*
X167132000Y-77260000D03*
X164592000Y-79800000D03*
X167132000Y-79800000D03*
X164592000Y-82340000D03*
X167132000Y-82340000D03*
X164592000Y-84880000D03*
X167132000Y-84880000D03*
X164592000Y-87420000D03*
X167132000Y-87420000D03*
X164592000Y-89960000D03*
X167132000Y-89960000D03*
X164592000Y-92500000D03*
X167132000Y-92500000D03*
X164592000Y-95040000D03*
X167132000Y-95040000D03*
X164592000Y-97580000D03*
X167132000Y-97580000D03*
X164592000Y-100120000D03*
X167132000Y-100120000D03*
%TD*%
D14*
%TO.C,U1*%
X160450000Y-46132000D03*
D15*
X160450000Y-47910000D03*
X160450000Y-49688000D03*
X160450000Y-51466000D03*
X160450000Y-53244000D03*
X160450000Y-55022000D03*
X160450000Y-56800000D03*
X160450000Y-58578000D03*
X160450000Y-60356000D03*
X160450000Y-62134000D03*
X160450000Y-63912000D03*
X160450000Y-65690000D03*
X160450000Y-67468000D03*
X160450000Y-69246000D03*
X160450000Y-71024000D03*
X160450000Y-72802000D03*
X160450000Y-74580000D03*
X160450000Y-76358000D03*
X160450000Y-78136000D03*
X160450000Y-79914000D03*
X160450000Y-81692000D03*
X160450000Y-83470000D03*
X160450000Y-85248000D03*
X160450000Y-87026000D03*
X160450000Y-88804000D03*
X160450000Y-90582000D03*
X160450000Y-92360000D03*
X160450000Y-94138000D03*
X160450000Y-95916000D03*
X160450000Y-97694000D03*
X160450000Y-99472000D03*
X160450000Y-101250000D03*
X179500000Y-101250000D03*
X179500000Y-99472000D03*
X179500000Y-97694000D03*
X179500000Y-95916000D03*
X179500000Y-94138000D03*
X179500000Y-92360000D03*
X179500000Y-90582000D03*
X179500000Y-88804000D03*
X179500000Y-87026000D03*
X179500000Y-85248000D03*
X179500000Y-83470000D03*
X179500000Y-81692000D03*
X179500000Y-79914000D03*
X179500000Y-78136000D03*
X179500000Y-76358000D03*
X179500000Y-74580000D03*
X179500000Y-72802000D03*
X179500000Y-71024000D03*
X179500000Y-69246000D03*
X179500000Y-67468000D03*
X179500000Y-65690000D03*
X179500000Y-63912000D03*
X179500000Y-62134000D03*
X179500000Y-60356000D03*
X179500000Y-58578000D03*
X179500000Y-56800000D03*
X179500000Y-55022000D03*
X179500000Y-53244000D03*
X179500000Y-51466000D03*
X179500000Y-49688000D03*
X179500000Y-47910000D03*
X179500000Y-46132000D03*
%TD*%
D12*
%TO.C,J4*%
X175290000Y-70370000D03*
D13*
X172750000Y-70370000D03*
X175290000Y-67830000D03*
X172750000Y-67830000D03*
X175290000Y-65290000D03*
X172750000Y-65290000D03*
X175290000Y-62750000D03*
X172750000Y-62750000D03*
X175290000Y-60210000D03*
X172750000Y-60210000D03*
X175290000Y-57670000D03*
X172750000Y-57670000D03*
X175290000Y-55130000D03*
X172750000Y-55130000D03*
X175290000Y-52590000D03*
X172750000Y-52590000D03*
X175290000Y-50050000D03*
X172750000Y-50050000D03*
X175290000Y-47510000D03*
X172750000Y-47510000D03*
%TD*%
M02*
