%TF.GenerationSoftware,KiCad,Pcbnew,7.0.1*%
%TF.CreationDate,2023-07-20T10:28:38-07:00*%
%TF.ProjectId,tn_vdp_v9958_socket,746e5f76-6470-45f7-9639-3935385f736f,rev?*%
%TF.SameCoordinates,Original*%
%TF.FileFunction,Drillmap*%
%TF.FilePolarity,Positive*%
%FSLAX45Y45*%
G04 Gerber Fmt 4.5, Leading zero omitted, Abs format (unit mm)*
G04 Created by KiCad (PCBNEW 7.0.1) date 2023-07-20 10:28:38*
%MOMM*%
%LPD*%
G01*
G04 APERTURE LIST*
%ADD10C,0.100000*%
%ADD11C,0.200000*%
%ADD12C,0.040000*%
%ADD13C,0.063500*%
%ADD14C,0.110000*%
G04 APERTURE END LIST*
D10*
X17335500Y-11112500D02*
X17335500Y-11112500D01*
X15900000Y-4400000D02*
X18100000Y-4400000D01*
X18100000Y-10300000D02*
X15900000Y-10300000D01*
X18100000Y-4400000D02*
X18100000Y-10300000D01*
X15900000Y-10300000D02*
X15900000Y-4400000D01*
D11*
D12*
X17655540Y-8986570D02*
X17695540Y-9026570D01*
X17695540Y-8986570D02*
X17655540Y-9026570D01*
X17787350Y-9073350D02*
X17827350Y-9113350D01*
X17827350Y-9073350D02*
X17787350Y-9113350D01*
D13*
X16076750Y-4613200D02*
G75*
G03*
X16076750Y-4613200I-31750J0D01*
G01*
X16076750Y-4791000D02*
G75*
G03*
X16076750Y-4791000I-31750J0D01*
G01*
X16076750Y-4968800D02*
G75*
G03*
X16076750Y-4968800I-31750J0D01*
G01*
X16076750Y-5146600D02*
G75*
G03*
X16076750Y-5146600I-31750J0D01*
G01*
X16076750Y-5324400D02*
G75*
G03*
X16076750Y-5324400I-31750J0D01*
G01*
X16076750Y-5502200D02*
G75*
G03*
X16076750Y-5502200I-31750J0D01*
G01*
X16076750Y-5680000D02*
G75*
G03*
X16076750Y-5680000I-31750J0D01*
G01*
X16076750Y-5857800D02*
G75*
G03*
X16076750Y-5857800I-31750J0D01*
G01*
X16076750Y-6035600D02*
G75*
G03*
X16076750Y-6035600I-31750J0D01*
G01*
X16076750Y-6213400D02*
G75*
G03*
X16076750Y-6213400I-31750J0D01*
G01*
X16076750Y-6391200D02*
G75*
G03*
X16076750Y-6391200I-31750J0D01*
G01*
X16076750Y-6569000D02*
G75*
G03*
X16076750Y-6569000I-31750J0D01*
G01*
X16076750Y-6746800D02*
G75*
G03*
X16076750Y-6746800I-31750J0D01*
G01*
X16076750Y-6924600D02*
G75*
G03*
X16076750Y-6924600I-31750J0D01*
G01*
X16076750Y-7102400D02*
G75*
G03*
X16076750Y-7102400I-31750J0D01*
G01*
X16076750Y-7280200D02*
G75*
G03*
X16076750Y-7280200I-31750J0D01*
G01*
X16076750Y-7458000D02*
G75*
G03*
X16076750Y-7458000I-31750J0D01*
G01*
X16076750Y-7635800D02*
G75*
G03*
X16076750Y-7635800I-31750J0D01*
G01*
X16076750Y-7813600D02*
G75*
G03*
X16076750Y-7813600I-31750J0D01*
G01*
X16076750Y-7991400D02*
G75*
G03*
X16076750Y-7991400I-31750J0D01*
G01*
X16076750Y-8169200D02*
G75*
G03*
X16076750Y-8169200I-31750J0D01*
G01*
X16076750Y-8347000D02*
G75*
G03*
X16076750Y-8347000I-31750J0D01*
G01*
X16076750Y-8524800D02*
G75*
G03*
X16076750Y-8524800I-31750J0D01*
G01*
X16076750Y-8702600D02*
G75*
G03*
X16076750Y-8702600I-31750J0D01*
G01*
X16076750Y-8880400D02*
G75*
G03*
X16076750Y-8880400I-31750J0D01*
G01*
X16076750Y-9058200D02*
G75*
G03*
X16076750Y-9058200I-31750J0D01*
G01*
X16076750Y-9236000D02*
G75*
G03*
X16076750Y-9236000I-31750J0D01*
G01*
X16076750Y-9413800D02*
G75*
G03*
X16076750Y-9413800I-31750J0D01*
G01*
X16076750Y-9591600D02*
G75*
G03*
X16076750Y-9591600I-31750J0D01*
G01*
X16076750Y-9769400D02*
G75*
G03*
X16076750Y-9769400I-31750J0D01*
G01*
X16076750Y-9947200D02*
G75*
G03*
X16076750Y-9947200I-31750J0D01*
G01*
X16076750Y-10125000D02*
G75*
G03*
X16076750Y-10125000I-31750J0D01*
G01*
X17981750Y-4613200D02*
G75*
G03*
X17981750Y-4613200I-31750J0D01*
G01*
X17981750Y-4791000D02*
G75*
G03*
X17981750Y-4791000I-31750J0D01*
G01*
X17981750Y-4968800D02*
G75*
G03*
X17981750Y-4968800I-31750J0D01*
G01*
X17981750Y-5146600D02*
G75*
G03*
X17981750Y-5146600I-31750J0D01*
G01*
X17981750Y-5324400D02*
G75*
G03*
X17981750Y-5324400I-31750J0D01*
G01*
X17981750Y-5502200D02*
G75*
G03*
X17981750Y-5502200I-31750J0D01*
G01*
X17981750Y-5680000D02*
G75*
G03*
X17981750Y-5680000I-31750J0D01*
G01*
X17981750Y-5857800D02*
G75*
G03*
X17981750Y-5857800I-31750J0D01*
G01*
X17981750Y-6035600D02*
G75*
G03*
X17981750Y-6035600I-31750J0D01*
G01*
X17981750Y-6213400D02*
G75*
G03*
X17981750Y-6213400I-31750J0D01*
G01*
X17981750Y-6391200D02*
G75*
G03*
X17981750Y-6391200I-31750J0D01*
G01*
X17981750Y-6569000D02*
G75*
G03*
X17981750Y-6569000I-31750J0D01*
G01*
X17981750Y-6746800D02*
G75*
G03*
X17981750Y-6746800I-31750J0D01*
G01*
X17981750Y-6924600D02*
G75*
G03*
X17981750Y-6924600I-31750J0D01*
G01*
X17981750Y-7102400D02*
G75*
G03*
X17981750Y-7102400I-31750J0D01*
G01*
X17981750Y-7280200D02*
G75*
G03*
X17981750Y-7280200I-31750J0D01*
G01*
X17981750Y-7458000D02*
G75*
G03*
X17981750Y-7458000I-31750J0D01*
G01*
X17981750Y-7635800D02*
G75*
G03*
X17981750Y-7635800I-31750J0D01*
G01*
X17981750Y-7813600D02*
G75*
G03*
X17981750Y-7813600I-31750J0D01*
G01*
X17981750Y-7991400D02*
G75*
G03*
X17981750Y-7991400I-31750J0D01*
G01*
X17981750Y-8169200D02*
G75*
G03*
X17981750Y-8169200I-31750J0D01*
G01*
X17981750Y-8347000D02*
G75*
G03*
X17981750Y-8347000I-31750J0D01*
G01*
X17981750Y-8524800D02*
G75*
G03*
X17981750Y-8524800I-31750J0D01*
G01*
X17981750Y-8702600D02*
G75*
G03*
X17981750Y-8702600I-31750J0D01*
G01*
X17981750Y-8880400D02*
G75*
G03*
X17981750Y-8880400I-31750J0D01*
G01*
X17981750Y-9058200D02*
G75*
G03*
X17981750Y-9058200I-31750J0D01*
G01*
X17981750Y-9236000D02*
G75*
G03*
X17981750Y-9236000I-31750J0D01*
G01*
X17981750Y-9413800D02*
G75*
G03*
X17981750Y-9413800I-31750J0D01*
G01*
X17981750Y-9591600D02*
G75*
G03*
X17981750Y-9591600I-31750J0D01*
G01*
X17981750Y-9769400D02*
G75*
G03*
X17981750Y-9769400I-31750J0D01*
G01*
X17981750Y-9947200D02*
G75*
G03*
X17981750Y-9947200I-31750J0D01*
G01*
X17981750Y-10125000D02*
G75*
G03*
X17981750Y-10125000I-31750J0D01*
G01*
D10*
X16459200Y-7676000D02*
X16459200Y-7776000D01*
X16409200Y-7726000D02*
X16509200Y-7726000D01*
X16459200Y-7930000D02*
X16459200Y-8030000D01*
X16409200Y-7980000D02*
X16509200Y-7980000D01*
X16459200Y-8184000D02*
X16459200Y-8284000D01*
X16409200Y-8234000D02*
X16509200Y-8234000D01*
X16459200Y-8438000D02*
X16459200Y-8538000D01*
X16409200Y-8488000D02*
X16509200Y-8488000D01*
X16459200Y-8692000D02*
X16459200Y-8792000D01*
X16409200Y-8742000D02*
X16509200Y-8742000D01*
X16459200Y-8946000D02*
X16459200Y-9046000D01*
X16409200Y-8996000D02*
X16509200Y-8996000D01*
X16459200Y-9200000D02*
X16459200Y-9300000D01*
X16409200Y-9250000D02*
X16509200Y-9250000D01*
X16459200Y-9454000D02*
X16459200Y-9554000D01*
X16409200Y-9504000D02*
X16509200Y-9504000D01*
X16459200Y-9708000D02*
X16459200Y-9808000D01*
X16409200Y-9758000D02*
X16509200Y-9758000D01*
X16459200Y-9962000D02*
X16459200Y-10062000D01*
X16409200Y-10012000D02*
X16509200Y-10012000D01*
X16713200Y-7676000D02*
X16713200Y-7776000D01*
X16663200Y-7726000D02*
X16763200Y-7726000D01*
X16713200Y-7930000D02*
X16713200Y-8030000D01*
X16663200Y-7980000D02*
X16763200Y-7980000D01*
X16713200Y-8184000D02*
X16713200Y-8284000D01*
X16663200Y-8234000D02*
X16763200Y-8234000D01*
X16713200Y-8438000D02*
X16713200Y-8538000D01*
X16663200Y-8488000D02*
X16763200Y-8488000D01*
X16713200Y-8692000D02*
X16713200Y-8792000D01*
X16663200Y-8742000D02*
X16763200Y-8742000D01*
X16713200Y-8946000D02*
X16713200Y-9046000D01*
X16663200Y-8996000D02*
X16763200Y-8996000D01*
X16713200Y-9200000D02*
X16713200Y-9300000D01*
X16663200Y-9250000D02*
X16763200Y-9250000D01*
X16713200Y-9454000D02*
X16713200Y-9554000D01*
X16663200Y-9504000D02*
X16763200Y-9504000D01*
X16713200Y-9708000D02*
X16713200Y-9808000D01*
X16663200Y-9758000D02*
X16763200Y-9758000D01*
X16713200Y-9962000D02*
X16713200Y-10062000D01*
X16663200Y-10012000D02*
X16763200Y-10012000D01*
X17275000Y-4701000D02*
X17275000Y-4801000D01*
X17225000Y-4751000D02*
X17325000Y-4751000D01*
X17275000Y-4955000D02*
X17275000Y-5055000D01*
X17225000Y-5005000D02*
X17325000Y-5005000D01*
X17275000Y-5209000D02*
X17275000Y-5309000D01*
X17225000Y-5259000D02*
X17325000Y-5259000D01*
X17275000Y-5463000D02*
X17275000Y-5563000D01*
X17225000Y-5513000D02*
X17325000Y-5513000D01*
X17275000Y-5717000D02*
X17275000Y-5817000D01*
X17225000Y-5767000D02*
X17325000Y-5767000D01*
X17275000Y-5971000D02*
X17275000Y-6071000D01*
X17225000Y-6021000D02*
X17325000Y-6021000D01*
X17275000Y-6225000D02*
X17275000Y-6325000D01*
X17225000Y-6275000D02*
X17325000Y-6275000D01*
X17275000Y-6479000D02*
X17275000Y-6579000D01*
X17225000Y-6529000D02*
X17325000Y-6529000D01*
X17275000Y-6733000D02*
X17275000Y-6833000D01*
X17225000Y-6783000D02*
X17325000Y-6783000D01*
X17275000Y-6987000D02*
X17275000Y-7087000D01*
X17225000Y-7037000D02*
X17325000Y-7037000D01*
X17529000Y-4701000D02*
X17529000Y-4801000D01*
X17479000Y-4751000D02*
X17579000Y-4751000D01*
X17529000Y-4955000D02*
X17529000Y-5055000D01*
X17479000Y-5005000D02*
X17579000Y-5005000D01*
X17529000Y-5209000D02*
X17529000Y-5309000D01*
X17479000Y-5259000D02*
X17579000Y-5259000D01*
X17529000Y-5463000D02*
X17529000Y-5563000D01*
X17479000Y-5513000D02*
X17579000Y-5513000D01*
X17529000Y-5717000D02*
X17529000Y-5817000D01*
X17479000Y-5767000D02*
X17579000Y-5767000D01*
X17529000Y-5971000D02*
X17529000Y-6071000D01*
X17479000Y-6021000D02*
X17579000Y-6021000D01*
X17529000Y-6225000D02*
X17529000Y-6325000D01*
X17479000Y-6275000D02*
X17579000Y-6275000D01*
X17529000Y-6479000D02*
X17529000Y-6579000D01*
X17479000Y-6529000D02*
X17579000Y-6529000D01*
X17529000Y-6733000D02*
X17529000Y-6833000D01*
X17479000Y-6783000D02*
X17579000Y-6783000D01*
X17529000Y-6987000D02*
X17529000Y-7087000D01*
X17479000Y-7037000D02*
X17579000Y-7037000D01*
D14*
X17438891Y-7813891D02*
X17438891Y-7736109D01*
X17361109Y-7736109D01*
X17361109Y-7813891D01*
X17438891Y-7813891D01*
X17438891Y-8829891D02*
X17438891Y-8752109D01*
X17361109Y-8752109D01*
X17361109Y-8829891D01*
X17438891Y-8829891D01*
D11*
X16142619Y-11430024D02*
X16142619Y-11230024D01*
X16142619Y-11230024D02*
X16190238Y-11230024D01*
X16190238Y-11230024D02*
X16218809Y-11239548D01*
X16218809Y-11239548D02*
X16237857Y-11258595D01*
X16237857Y-11258595D02*
X16247381Y-11277643D01*
X16247381Y-11277643D02*
X16256905Y-11315738D01*
X16256905Y-11315738D02*
X16256905Y-11344309D01*
X16256905Y-11344309D02*
X16247381Y-11382405D01*
X16247381Y-11382405D02*
X16237857Y-11401452D01*
X16237857Y-11401452D02*
X16218809Y-11420500D01*
X16218809Y-11420500D02*
X16190238Y-11430024D01*
X16190238Y-11430024D02*
X16142619Y-11430024D01*
X16342619Y-11430024D02*
X16342619Y-11296690D01*
X16342619Y-11334786D02*
X16352143Y-11315738D01*
X16352143Y-11315738D02*
X16361667Y-11306214D01*
X16361667Y-11306214D02*
X16380714Y-11296690D01*
X16380714Y-11296690D02*
X16399762Y-11296690D01*
X16466428Y-11430024D02*
X16466428Y-11296690D01*
X16466428Y-11230024D02*
X16456905Y-11239548D01*
X16456905Y-11239548D02*
X16466428Y-11249071D01*
X16466428Y-11249071D02*
X16475952Y-11239548D01*
X16475952Y-11239548D02*
X16466428Y-11230024D01*
X16466428Y-11230024D02*
X16466428Y-11249071D01*
X16590238Y-11430024D02*
X16571190Y-11420500D01*
X16571190Y-11420500D02*
X16561667Y-11401452D01*
X16561667Y-11401452D02*
X16561667Y-11230024D01*
X16695000Y-11430024D02*
X16675952Y-11420500D01*
X16675952Y-11420500D02*
X16666428Y-11401452D01*
X16666428Y-11401452D02*
X16666428Y-11230024D01*
X16923571Y-11430024D02*
X16923571Y-11230024D01*
X16923571Y-11230024D02*
X16990238Y-11372881D01*
X16990238Y-11372881D02*
X17056905Y-11230024D01*
X17056905Y-11230024D02*
X17056905Y-11430024D01*
X17237857Y-11430024D02*
X17237857Y-11325262D01*
X17237857Y-11325262D02*
X17228333Y-11306214D01*
X17228333Y-11306214D02*
X17209286Y-11296690D01*
X17209286Y-11296690D02*
X17171190Y-11296690D01*
X17171190Y-11296690D02*
X17152143Y-11306214D01*
X17237857Y-11420500D02*
X17218810Y-11430024D01*
X17218810Y-11430024D02*
X17171190Y-11430024D01*
X17171190Y-11430024D02*
X17152143Y-11420500D01*
X17152143Y-11420500D02*
X17142619Y-11401452D01*
X17142619Y-11401452D02*
X17142619Y-11382405D01*
X17142619Y-11382405D02*
X17152143Y-11363357D01*
X17152143Y-11363357D02*
X17171190Y-11353833D01*
X17171190Y-11353833D02*
X17218810Y-11353833D01*
X17218810Y-11353833D02*
X17237857Y-11344309D01*
X17333095Y-11296690D02*
X17333095Y-11496690D01*
X17333095Y-11306214D02*
X17352143Y-11296690D01*
X17352143Y-11296690D02*
X17390238Y-11296690D01*
X17390238Y-11296690D02*
X17409286Y-11306214D01*
X17409286Y-11306214D02*
X17418810Y-11315738D01*
X17418810Y-11315738D02*
X17428333Y-11334786D01*
X17428333Y-11334786D02*
X17428333Y-11391928D01*
X17428333Y-11391928D02*
X17418810Y-11410976D01*
X17418810Y-11410976D02*
X17409286Y-11420500D01*
X17409286Y-11420500D02*
X17390238Y-11430024D01*
X17390238Y-11430024D02*
X17352143Y-11430024D01*
X17352143Y-11430024D02*
X17333095Y-11420500D01*
X17514048Y-11410976D02*
X17523571Y-11420500D01*
X17523571Y-11420500D02*
X17514048Y-11430024D01*
X17514048Y-11430024D02*
X17504524Y-11420500D01*
X17504524Y-11420500D02*
X17514048Y-11410976D01*
X17514048Y-11410976D02*
X17514048Y-11430024D01*
X17514048Y-11306214D02*
X17523571Y-11315738D01*
X17523571Y-11315738D02*
X17514048Y-11325262D01*
X17514048Y-11325262D02*
X17504524Y-11315738D01*
X17504524Y-11315738D02*
X17514048Y-11306214D01*
X17514048Y-11306214D02*
X17514048Y-11325262D01*
D12*
X15855000Y-11737500D02*
X15895000Y-11777500D01*
X15895000Y-11737500D02*
X15855000Y-11777500D01*
D11*
X16180714Y-11650024D02*
X16199762Y-11650024D01*
X16199762Y-11650024D02*
X16218809Y-11659548D01*
X16218809Y-11659548D02*
X16228333Y-11669071D01*
X16228333Y-11669071D02*
X16237857Y-11688119D01*
X16237857Y-11688119D02*
X16247381Y-11726214D01*
X16247381Y-11726214D02*
X16247381Y-11773833D01*
X16247381Y-11773833D02*
X16237857Y-11811928D01*
X16237857Y-11811928D02*
X16228333Y-11830976D01*
X16228333Y-11830976D02*
X16218809Y-11840500D01*
X16218809Y-11840500D02*
X16199762Y-11850024D01*
X16199762Y-11850024D02*
X16180714Y-11850024D01*
X16180714Y-11850024D02*
X16161667Y-11840500D01*
X16161667Y-11840500D02*
X16152143Y-11830976D01*
X16152143Y-11830976D02*
X16142619Y-11811928D01*
X16142619Y-11811928D02*
X16133095Y-11773833D01*
X16133095Y-11773833D02*
X16133095Y-11726214D01*
X16133095Y-11726214D02*
X16142619Y-11688119D01*
X16142619Y-11688119D02*
X16152143Y-11669071D01*
X16152143Y-11669071D02*
X16161667Y-11659548D01*
X16161667Y-11659548D02*
X16180714Y-11650024D01*
X16333095Y-11830976D02*
X16342619Y-11840500D01*
X16342619Y-11840500D02*
X16333095Y-11850024D01*
X16333095Y-11850024D02*
X16323571Y-11840500D01*
X16323571Y-11840500D02*
X16333095Y-11830976D01*
X16333095Y-11830976D02*
X16333095Y-11850024D01*
X16514048Y-11716690D02*
X16514048Y-11850024D01*
X16466428Y-11640500D02*
X16418809Y-11783357D01*
X16418809Y-11783357D02*
X16542619Y-11783357D01*
X16656905Y-11650024D02*
X16675952Y-11650024D01*
X16675952Y-11650024D02*
X16695000Y-11659548D01*
X16695000Y-11659548D02*
X16704524Y-11669071D01*
X16704524Y-11669071D02*
X16714048Y-11688119D01*
X16714048Y-11688119D02*
X16723571Y-11726214D01*
X16723571Y-11726214D02*
X16723571Y-11773833D01*
X16723571Y-11773833D02*
X16714048Y-11811928D01*
X16714048Y-11811928D02*
X16704524Y-11830976D01*
X16704524Y-11830976D02*
X16695000Y-11840500D01*
X16695000Y-11840500D02*
X16675952Y-11850024D01*
X16675952Y-11850024D02*
X16656905Y-11850024D01*
X16656905Y-11850024D02*
X16637857Y-11840500D01*
X16637857Y-11840500D02*
X16628333Y-11830976D01*
X16628333Y-11830976D02*
X16618809Y-11811928D01*
X16618809Y-11811928D02*
X16609286Y-11773833D01*
X16609286Y-11773833D02*
X16609286Y-11726214D01*
X16609286Y-11726214D02*
X16618809Y-11688119D01*
X16618809Y-11688119D02*
X16628333Y-11669071D01*
X16628333Y-11669071D02*
X16637857Y-11659548D01*
X16637857Y-11659548D02*
X16656905Y-11650024D01*
X16847381Y-11650024D02*
X16866429Y-11650024D01*
X16866429Y-11650024D02*
X16885476Y-11659548D01*
X16885476Y-11659548D02*
X16895000Y-11669071D01*
X16895000Y-11669071D02*
X16904524Y-11688119D01*
X16904524Y-11688119D02*
X16914048Y-11726214D01*
X16914048Y-11726214D02*
X16914048Y-11773833D01*
X16914048Y-11773833D02*
X16904524Y-11811928D01*
X16904524Y-11811928D02*
X16895000Y-11830976D01*
X16895000Y-11830976D02*
X16885476Y-11840500D01*
X16885476Y-11840500D02*
X16866429Y-11850024D01*
X16866429Y-11850024D02*
X16847381Y-11850024D01*
X16847381Y-11850024D02*
X16828333Y-11840500D01*
X16828333Y-11840500D02*
X16818810Y-11830976D01*
X16818810Y-11830976D02*
X16809286Y-11811928D01*
X16809286Y-11811928D02*
X16799762Y-11773833D01*
X16799762Y-11773833D02*
X16799762Y-11726214D01*
X16799762Y-11726214D02*
X16809286Y-11688119D01*
X16809286Y-11688119D02*
X16818810Y-11669071D01*
X16818810Y-11669071D02*
X16828333Y-11659548D01*
X16828333Y-11659548D02*
X16847381Y-11650024D01*
X16999762Y-11850024D02*
X16999762Y-11716690D01*
X16999762Y-11735738D02*
X17009286Y-11726214D01*
X17009286Y-11726214D02*
X17028333Y-11716690D01*
X17028333Y-11716690D02*
X17056905Y-11716690D01*
X17056905Y-11716690D02*
X17075952Y-11726214D01*
X17075952Y-11726214D02*
X17085476Y-11745262D01*
X17085476Y-11745262D02*
X17085476Y-11850024D01*
X17085476Y-11745262D02*
X17095000Y-11726214D01*
X17095000Y-11726214D02*
X17114048Y-11716690D01*
X17114048Y-11716690D02*
X17142619Y-11716690D01*
X17142619Y-11716690D02*
X17161667Y-11726214D01*
X17161667Y-11726214D02*
X17171191Y-11745262D01*
X17171191Y-11745262D02*
X17171191Y-11850024D01*
X17266429Y-11850024D02*
X17266429Y-11716690D01*
X17266429Y-11735738D02*
X17275952Y-11726214D01*
X17275952Y-11726214D02*
X17295000Y-11716690D01*
X17295000Y-11716690D02*
X17323572Y-11716690D01*
X17323572Y-11716690D02*
X17342619Y-11726214D01*
X17342619Y-11726214D02*
X17352143Y-11745262D01*
X17352143Y-11745262D02*
X17352143Y-11850024D01*
X17352143Y-11745262D02*
X17361667Y-11726214D01*
X17361667Y-11726214D02*
X17380714Y-11716690D01*
X17380714Y-11716690D02*
X17409286Y-11716690D01*
X17409286Y-11716690D02*
X17428333Y-11726214D01*
X17428333Y-11726214D02*
X17437857Y-11745262D01*
X17437857Y-11745262D02*
X17437857Y-11850024D01*
X17828333Y-11640500D02*
X17656905Y-11897643D01*
X18085476Y-11650024D02*
X18104524Y-11650024D01*
X18104524Y-11650024D02*
X18123572Y-11659548D01*
X18123572Y-11659548D02*
X18133095Y-11669071D01*
X18133095Y-11669071D02*
X18142619Y-11688119D01*
X18142619Y-11688119D02*
X18152143Y-11726214D01*
X18152143Y-11726214D02*
X18152143Y-11773833D01*
X18152143Y-11773833D02*
X18142619Y-11811928D01*
X18142619Y-11811928D02*
X18133095Y-11830976D01*
X18133095Y-11830976D02*
X18123572Y-11840500D01*
X18123572Y-11840500D02*
X18104524Y-11850024D01*
X18104524Y-11850024D02*
X18085476Y-11850024D01*
X18085476Y-11850024D02*
X18066429Y-11840500D01*
X18066429Y-11840500D02*
X18056905Y-11830976D01*
X18056905Y-11830976D02*
X18047381Y-11811928D01*
X18047381Y-11811928D02*
X18037857Y-11773833D01*
X18037857Y-11773833D02*
X18037857Y-11726214D01*
X18037857Y-11726214D02*
X18047381Y-11688119D01*
X18047381Y-11688119D02*
X18056905Y-11669071D01*
X18056905Y-11669071D02*
X18066429Y-11659548D01*
X18066429Y-11659548D02*
X18085476Y-11650024D01*
X18237857Y-11830976D02*
X18247381Y-11840500D01*
X18247381Y-11840500D02*
X18237857Y-11850024D01*
X18237857Y-11850024D02*
X18228334Y-11840500D01*
X18228334Y-11840500D02*
X18237857Y-11830976D01*
X18237857Y-11830976D02*
X18237857Y-11850024D01*
X18371191Y-11650024D02*
X18390238Y-11650024D01*
X18390238Y-11650024D02*
X18409286Y-11659548D01*
X18409286Y-11659548D02*
X18418810Y-11669071D01*
X18418810Y-11669071D02*
X18428334Y-11688119D01*
X18428334Y-11688119D02*
X18437857Y-11726214D01*
X18437857Y-11726214D02*
X18437857Y-11773833D01*
X18437857Y-11773833D02*
X18428334Y-11811928D01*
X18428334Y-11811928D02*
X18418810Y-11830976D01*
X18418810Y-11830976D02*
X18409286Y-11840500D01*
X18409286Y-11840500D02*
X18390238Y-11850024D01*
X18390238Y-11850024D02*
X18371191Y-11850024D01*
X18371191Y-11850024D02*
X18352143Y-11840500D01*
X18352143Y-11840500D02*
X18342619Y-11830976D01*
X18342619Y-11830976D02*
X18333095Y-11811928D01*
X18333095Y-11811928D02*
X18323572Y-11773833D01*
X18323572Y-11773833D02*
X18323572Y-11726214D01*
X18323572Y-11726214D02*
X18333095Y-11688119D01*
X18333095Y-11688119D02*
X18342619Y-11669071D01*
X18342619Y-11669071D02*
X18352143Y-11659548D01*
X18352143Y-11659548D02*
X18371191Y-11650024D01*
X18628334Y-11850024D02*
X18514048Y-11850024D01*
X18571191Y-11850024D02*
X18571191Y-11650024D01*
X18571191Y-11650024D02*
X18552143Y-11678595D01*
X18552143Y-11678595D02*
X18533095Y-11697643D01*
X18533095Y-11697643D02*
X18514048Y-11707167D01*
X18809286Y-11650024D02*
X18714048Y-11650024D01*
X18714048Y-11650024D02*
X18704524Y-11745262D01*
X18704524Y-11745262D02*
X18714048Y-11735738D01*
X18714048Y-11735738D02*
X18733095Y-11726214D01*
X18733095Y-11726214D02*
X18780715Y-11726214D01*
X18780715Y-11726214D02*
X18799762Y-11735738D01*
X18799762Y-11735738D02*
X18809286Y-11745262D01*
X18809286Y-11745262D02*
X18818810Y-11764309D01*
X18818810Y-11764309D02*
X18818810Y-11811928D01*
X18818810Y-11811928D02*
X18809286Y-11830976D01*
X18809286Y-11830976D02*
X18799762Y-11840500D01*
X18799762Y-11840500D02*
X18780715Y-11850024D01*
X18780715Y-11850024D02*
X18733095Y-11850024D01*
X18733095Y-11850024D02*
X18714048Y-11840500D01*
X18714048Y-11840500D02*
X18704524Y-11830976D01*
X18885476Y-11650024D02*
X19018810Y-11650024D01*
X19018810Y-11650024D02*
X18933095Y-11850024D01*
X19085476Y-11650024D02*
X19085476Y-11688119D01*
X19161667Y-11650024D02*
X19161667Y-11688119D01*
X19456905Y-11926214D02*
X19447381Y-11916690D01*
X19447381Y-11916690D02*
X19428334Y-11888119D01*
X19428334Y-11888119D02*
X19418810Y-11869071D01*
X19418810Y-11869071D02*
X19409286Y-11840500D01*
X19409286Y-11840500D02*
X19399762Y-11792881D01*
X19399762Y-11792881D02*
X19399762Y-11754786D01*
X19399762Y-11754786D02*
X19409286Y-11707167D01*
X19409286Y-11707167D02*
X19418810Y-11678595D01*
X19418810Y-11678595D02*
X19428334Y-11659548D01*
X19428334Y-11659548D02*
X19447381Y-11630976D01*
X19447381Y-11630976D02*
X19456905Y-11621452D01*
X19523572Y-11669071D02*
X19533096Y-11659548D01*
X19533096Y-11659548D02*
X19552143Y-11650024D01*
X19552143Y-11650024D02*
X19599762Y-11650024D01*
X19599762Y-11650024D02*
X19618810Y-11659548D01*
X19618810Y-11659548D02*
X19628334Y-11669071D01*
X19628334Y-11669071D02*
X19637857Y-11688119D01*
X19637857Y-11688119D02*
X19637857Y-11707167D01*
X19637857Y-11707167D02*
X19628334Y-11735738D01*
X19628334Y-11735738D02*
X19514048Y-11850024D01*
X19514048Y-11850024D02*
X19637857Y-11850024D01*
X19875953Y-11850024D02*
X19875953Y-11650024D01*
X19961667Y-11850024D02*
X19961667Y-11745262D01*
X19961667Y-11745262D02*
X19952143Y-11726214D01*
X19952143Y-11726214D02*
X19933096Y-11716690D01*
X19933096Y-11716690D02*
X19904524Y-11716690D01*
X19904524Y-11716690D02*
X19885477Y-11726214D01*
X19885477Y-11726214D02*
X19875953Y-11735738D01*
X20085477Y-11850024D02*
X20066429Y-11840500D01*
X20066429Y-11840500D02*
X20056905Y-11830976D01*
X20056905Y-11830976D02*
X20047381Y-11811928D01*
X20047381Y-11811928D02*
X20047381Y-11754786D01*
X20047381Y-11754786D02*
X20056905Y-11735738D01*
X20056905Y-11735738D02*
X20066429Y-11726214D01*
X20066429Y-11726214D02*
X20085477Y-11716690D01*
X20085477Y-11716690D02*
X20114048Y-11716690D01*
X20114048Y-11716690D02*
X20133096Y-11726214D01*
X20133096Y-11726214D02*
X20142619Y-11735738D01*
X20142619Y-11735738D02*
X20152143Y-11754786D01*
X20152143Y-11754786D02*
X20152143Y-11811928D01*
X20152143Y-11811928D02*
X20142619Y-11830976D01*
X20142619Y-11830976D02*
X20133096Y-11840500D01*
X20133096Y-11840500D02*
X20114048Y-11850024D01*
X20114048Y-11850024D02*
X20085477Y-11850024D01*
X20266429Y-11850024D02*
X20247381Y-11840500D01*
X20247381Y-11840500D02*
X20237858Y-11821452D01*
X20237858Y-11821452D02*
X20237858Y-11650024D01*
X20418810Y-11840500D02*
X20399762Y-11850024D01*
X20399762Y-11850024D02*
X20361667Y-11850024D01*
X20361667Y-11850024D02*
X20342619Y-11840500D01*
X20342619Y-11840500D02*
X20333096Y-11821452D01*
X20333096Y-11821452D02*
X20333096Y-11745262D01*
X20333096Y-11745262D02*
X20342619Y-11726214D01*
X20342619Y-11726214D02*
X20361667Y-11716690D01*
X20361667Y-11716690D02*
X20399762Y-11716690D01*
X20399762Y-11716690D02*
X20418810Y-11726214D01*
X20418810Y-11726214D02*
X20428334Y-11745262D01*
X20428334Y-11745262D02*
X20428334Y-11764309D01*
X20428334Y-11764309D02*
X20333096Y-11783357D01*
X20504524Y-11840500D02*
X20523572Y-11850024D01*
X20523572Y-11850024D02*
X20561667Y-11850024D01*
X20561667Y-11850024D02*
X20580715Y-11840500D01*
X20580715Y-11840500D02*
X20590239Y-11821452D01*
X20590239Y-11821452D02*
X20590239Y-11811928D01*
X20590239Y-11811928D02*
X20580715Y-11792881D01*
X20580715Y-11792881D02*
X20561667Y-11783357D01*
X20561667Y-11783357D02*
X20533096Y-11783357D01*
X20533096Y-11783357D02*
X20514048Y-11773833D01*
X20514048Y-11773833D02*
X20504524Y-11754786D01*
X20504524Y-11754786D02*
X20504524Y-11745262D01*
X20504524Y-11745262D02*
X20514048Y-11726214D01*
X20514048Y-11726214D02*
X20533096Y-11716690D01*
X20533096Y-11716690D02*
X20561667Y-11716690D01*
X20561667Y-11716690D02*
X20580715Y-11726214D01*
X20656905Y-11926214D02*
X20666429Y-11916690D01*
X20666429Y-11916690D02*
X20685477Y-11888119D01*
X20685477Y-11888119D02*
X20695000Y-11869071D01*
X20695000Y-11869071D02*
X20704524Y-11840500D01*
X20704524Y-11840500D02*
X20714048Y-11792881D01*
X20714048Y-11792881D02*
X20714048Y-11754786D01*
X20714048Y-11754786D02*
X20704524Y-11707167D01*
X20704524Y-11707167D02*
X20695000Y-11678595D01*
X20695000Y-11678595D02*
X20685477Y-11659548D01*
X20685477Y-11659548D02*
X20666429Y-11630976D01*
X20666429Y-11630976D02*
X20656905Y-11621452D01*
D13*
X15895000Y-12021500D02*
G75*
G03*
X15895000Y-12021500I-31750J0D01*
G01*
D11*
X16180714Y-11914024D02*
X16199762Y-11914024D01*
X16199762Y-11914024D02*
X16218809Y-11923548D01*
X16218809Y-11923548D02*
X16228333Y-11933071D01*
X16228333Y-11933071D02*
X16237857Y-11952119D01*
X16237857Y-11952119D02*
X16247381Y-11990214D01*
X16247381Y-11990214D02*
X16247381Y-12037833D01*
X16247381Y-12037833D02*
X16237857Y-12075928D01*
X16237857Y-12075928D02*
X16228333Y-12094976D01*
X16228333Y-12094976D02*
X16218809Y-12104500D01*
X16218809Y-12104500D02*
X16199762Y-12114024D01*
X16199762Y-12114024D02*
X16180714Y-12114024D01*
X16180714Y-12114024D02*
X16161667Y-12104500D01*
X16161667Y-12104500D02*
X16152143Y-12094976D01*
X16152143Y-12094976D02*
X16142619Y-12075928D01*
X16142619Y-12075928D02*
X16133095Y-12037833D01*
X16133095Y-12037833D02*
X16133095Y-11990214D01*
X16133095Y-11990214D02*
X16142619Y-11952119D01*
X16142619Y-11952119D02*
X16152143Y-11933071D01*
X16152143Y-11933071D02*
X16161667Y-11923548D01*
X16161667Y-11923548D02*
X16180714Y-11914024D01*
X16333095Y-12094976D02*
X16342619Y-12104500D01*
X16342619Y-12104500D02*
X16333095Y-12114024D01*
X16333095Y-12114024D02*
X16323571Y-12104500D01*
X16323571Y-12104500D02*
X16333095Y-12094976D01*
X16333095Y-12094976D02*
X16333095Y-12114024D01*
X16514048Y-11914024D02*
X16475952Y-11914024D01*
X16475952Y-11914024D02*
X16456905Y-11923548D01*
X16456905Y-11923548D02*
X16447381Y-11933071D01*
X16447381Y-11933071D02*
X16428333Y-11961643D01*
X16428333Y-11961643D02*
X16418809Y-11999738D01*
X16418809Y-11999738D02*
X16418809Y-12075928D01*
X16418809Y-12075928D02*
X16428333Y-12094976D01*
X16428333Y-12094976D02*
X16437857Y-12104500D01*
X16437857Y-12104500D02*
X16456905Y-12114024D01*
X16456905Y-12114024D02*
X16495000Y-12114024D01*
X16495000Y-12114024D02*
X16514048Y-12104500D01*
X16514048Y-12104500D02*
X16523571Y-12094976D01*
X16523571Y-12094976D02*
X16533095Y-12075928D01*
X16533095Y-12075928D02*
X16533095Y-12028309D01*
X16533095Y-12028309D02*
X16523571Y-12009262D01*
X16523571Y-12009262D02*
X16514048Y-11999738D01*
X16514048Y-11999738D02*
X16495000Y-11990214D01*
X16495000Y-11990214D02*
X16456905Y-11990214D01*
X16456905Y-11990214D02*
X16437857Y-11999738D01*
X16437857Y-11999738D02*
X16428333Y-12009262D01*
X16428333Y-12009262D02*
X16418809Y-12028309D01*
X16599762Y-11914024D02*
X16723571Y-11914024D01*
X16723571Y-11914024D02*
X16656905Y-11990214D01*
X16656905Y-11990214D02*
X16685476Y-11990214D01*
X16685476Y-11990214D02*
X16704524Y-11999738D01*
X16704524Y-11999738D02*
X16714048Y-12009262D01*
X16714048Y-12009262D02*
X16723571Y-12028309D01*
X16723571Y-12028309D02*
X16723571Y-12075928D01*
X16723571Y-12075928D02*
X16714048Y-12094976D01*
X16714048Y-12094976D02*
X16704524Y-12104500D01*
X16704524Y-12104500D02*
X16685476Y-12114024D01*
X16685476Y-12114024D02*
X16628333Y-12114024D01*
X16628333Y-12114024D02*
X16609286Y-12104500D01*
X16609286Y-12104500D02*
X16599762Y-12094976D01*
X16904524Y-11914024D02*
X16809286Y-11914024D01*
X16809286Y-11914024D02*
X16799762Y-12009262D01*
X16799762Y-12009262D02*
X16809286Y-11999738D01*
X16809286Y-11999738D02*
X16828333Y-11990214D01*
X16828333Y-11990214D02*
X16875952Y-11990214D01*
X16875952Y-11990214D02*
X16895000Y-11999738D01*
X16895000Y-11999738D02*
X16904524Y-12009262D01*
X16904524Y-12009262D02*
X16914048Y-12028309D01*
X16914048Y-12028309D02*
X16914048Y-12075928D01*
X16914048Y-12075928D02*
X16904524Y-12094976D01*
X16904524Y-12094976D02*
X16895000Y-12104500D01*
X16895000Y-12104500D02*
X16875952Y-12114024D01*
X16875952Y-12114024D02*
X16828333Y-12114024D01*
X16828333Y-12114024D02*
X16809286Y-12104500D01*
X16809286Y-12104500D02*
X16799762Y-12094976D01*
X16999762Y-12114024D02*
X16999762Y-11980690D01*
X16999762Y-11999738D02*
X17009286Y-11990214D01*
X17009286Y-11990214D02*
X17028333Y-11980690D01*
X17028333Y-11980690D02*
X17056905Y-11980690D01*
X17056905Y-11980690D02*
X17075952Y-11990214D01*
X17075952Y-11990214D02*
X17085476Y-12009262D01*
X17085476Y-12009262D02*
X17085476Y-12114024D01*
X17085476Y-12009262D02*
X17095000Y-11990214D01*
X17095000Y-11990214D02*
X17114048Y-11980690D01*
X17114048Y-11980690D02*
X17142619Y-11980690D01*
X17142619Y-11980690D02*
X17161667Y-11990214D01*
X17161667Y-11990214D02*
X17171191Y-12009262D01*
X17171191Y-12009262D02*
X17171191Y-12114024D01*
X17266429Y-12114024D02*
X17266429Y-11980690D01*
X17266429Y-11999738D02*
X17275952Y-11990214D01*
X17275952Y-11990214D02*
X17295000Y-11980690D01*
X17295000Y-11980690D02*
X17323572Y-11980690D01*
X17323572Y-11980690D02*
X17342619Y-11990214D01*
X17342619Y-11990214D02*
X17352143Y-12009262D01*
X17352143Y-12009262D02*
X17352143Y-12114024D01*
X17352143Y-12009262D02*
X17361667Y-11990214D01*
X17361667Y-11990214D02*
X17380714Y-11980690D01*
X17380714Y-11980690D02*
X17409286Y-11980690D01*
X17409286Y-11980690D02*
X17428333Y-11990214D01*
X17428333Y-11990214D02*
X17437857Y-12009262D01*
X17437857Y-12009262D02*
X17437857Y-12114024D01*
X17828333Y-11904500D02*
X17656905Y-12161643D01*
X18085476Y-11914024D02*
X18104524Y-11914024D01*
X18104524Y-11914024D02*
X18123572Y-11923548D01*
X18123572Y-11923548D02*
X18133095Y-11933071D01*
X18133095Y-11933071D02*
X18142619Y-11952119D01*
X18142619Y-11952119D02*
X18152143Y-11990214D01*
X18152143Y-11990214D02*
X18152143Y-12037833D01*
X18152143Y-12037833D02*
X18142619Y-12075928D01*
X18142619Y-12075928D02*
X18133095Y-12094976D01*
X18133095Y-12094976D02*
X18123572Y-12104500D01*
X18123572Y-12104500D02*
X18104524Y-12114024D01*
X18104524Y-12114024D02*
X18085476Y-12114024D01*
X18085476Y-12114024D02*
X18066429Y-12104500D01*
X18066429Y-12104500D02*
X18056905Y-12094976D01*
X18056905Y-12094976D02*
X18047381Y-12075928D01*
X18047381Y-12075928D02*
X18037857Y-12037833D01*
X18037857Y-12037833D02*
X18037857Y-11990214D01*
X18037857Y-11990214D02*
X18047381Y-11952119D01*
X18047381Y-11952119D02*
X18056905Y-11933071D01*
X18056905Y-11933071D02*
X18066429Y-11923548D01*
X18066429Y-11923548D02*
X18085476Y-11914024D01*
X18237857Y-12094976D02*
X18247381Y-12104500D01*
X18247381Y-12104500D02*
X18237857Y-12114024D01*
X18237857Y-12114024D02*
X18228334Y-12104500D01*
X18228334Y-12104500D02*
X18237857Y-12094976D01*
X18237857Y-12094976D02*
X18237857Y-12114024D01*
X18371191Y-11914024D02*
X18390238Y-11914024D01*
X18390238Y-11914024D02*
X18409286Y-11923548D01*
X18409286Y-11923548D02*
X18418810Y-11933071D01*
X18418810Y-11933071D02*
X18428334Y-11952119D01*
X18428334Y-11952119D02*
X18437857Y-11990214D01*
X18437857Y-11990214D02*
X18437857Y-12037833D01*
X18437857Y-12037833D02*
X18428334Y-12075928D01*
X18428334Y-12075928D02*
X18418810Y-12094976D01*
X18418810Y-12094976D02*
X18409286Y-12104500D01*
X18409286Y-12104500D02*
X18390238Y-12114024D01*
X18390238Y-12114024D02*
X18371191Y-12114024D01*
X18371191Y-12114024D02*
X18352143Y-12104500D01*
X18352143Y-12104500D02*
X18342619Y-12094976D01*
X18342619Y-12094976D02*
X18333095Y-12075928D01*
X18333095Y-12075928D02*
X18323572Y-12037833D01*
X18323572Y-12037833D02*
X18323572Y-11990214D01*
X18323572Y-11990214D02*
X18333095Y-11952119D01*
X18333095Y-11952119D02*
X18342619Y-11933071D01*
X18342619Y-11933071D02*
X18352143Y-11923548D01*
X18352143Y-11923548D02*
X18371191Y-11914024D01*
X18514048Y-11933071D02*
X18523572Y-11923548D01*
X18523572Y-11923548D02*
X18542619Y-11914024D01*
X18542619Y-11914024D02*
X18590238Y-11914024D01*
X18590238Y-11914024D02*
X18609286Y-11923548D01*
X18609286Y-11923548D02*
X18618810Y-11933071D01*
X18618810Y-11933071D02*
X18628334Y-11952119D01*
X18628334Y-11952119D02*
X18628334Y-11971167D01*
X18628334Y-11971167D02*
X18618810Y-11999738D01*
X18618810Y-11999738D02*
X18504524Y-12114024D01*
X18504524Y-12114024D02*
X18628334Y-12114024D01*
X18809286Y-11914024D02*
X18714048Y-11914024D01*
X18714048Y-11914024D02*
X18704524Y-12009262D01*
X18704524Y-12009262D02*
X18714048Y-11999738D01*
X18714048Y-11999738D02*
X18733095Y-11990214D01*
X18733095Y-11990214D02*
X18780715Y-11990214D01*
X18780715Y-11990214D02*
X18799762Y-11999738D01*
X18799762Y-11999738D02*
X18809286Y-12009262D01*
X18809286Y-12009262D02*
X18818810Y-12028309D01*
X18818810Y-12028309D02*
X18818810Y-12075928D01*
X18818810Y-12075928D02*
X18809286Y-12094976D01*
X18809286Y-12094976D02*
X18799762Y-12104500D01*
X18799762Y-12104500D02*
X18780715Y-12114024D01*
X18780715Y-12114024D02*
X18733095Y-12114024D01*
X18733095Y-12114024D02*
X18714048Y-12104500D01*
X18714048Y-12104500D02*
X18704524Y-12094976D01*
X18942619Y-11914024D02*
X18961667Y-11914024D01*
X18961667Y-11914024D02*
X18980715Y-11923548D01*
X18980715Y-11923548D02*
X18990238Y-11933071D01*
X18990238Y-11933071D02*
X18999762Y-11952119D01*
X18999762Y-11952119D02*
X19009286Y-11990214D01*
X19009286Y-11990214D02*
X19009286Y-12037833D01*
X19009286Y-12037833D02*
X18999762Y-12075928D01*
X18999762Y-12075928D02*
X18990238Y-12094976D01*
X18990238Y-12094976D02*
X18980715Y-12104500D01*
X18980715Y-12104500D02*
X18961667Y-12114024D01*
X18961667Y-12114024D02*
X18942619Y-12114024D01*
X18942619Y-12114024D02*
X18923572Y-12104500D01*
X18923572Y-12104500D02*
X18914048Y-12094976D01*
X18914048Y-12094976D02*
X18904524Y-12075928D01*
X18904524Y-12075928D02*
X18895000Y-12037833D01*
X18895000Y-12037833D02*
X18895000Y-11990214D01*
X18895000Y-11990214D02*
X18904524Y-11952119D01*
X18904524Y-11952119D02*
X18914048Y-11933071D01*
X18914048Y-11933071D02*
X18923572Y-11923548D01*
X18923572Y-11923548D02*
X18942619Y-11914024D01*
X19085476Y-11914024D02*
X19085476Y-11952119D01*
X19161667Y-11914024D02*
X19161667Y-11952119D01*
X19456905Y-12190214D02*
X19447381Y-12180690D01*
X19447381Y-12180690D02*
X19428334Y-12152119D01*
X19428334Y-12152119D02*
X19418810Y-12133071D01*
X19418810Y-12133071D02*
X19409286Y-12104500D01*
X19409286Y-12104500D02*
X19399762Y-12056881D01*
X19399762Y-12056881D02*
X19399762Y-12018786D01*
X19399762Y-12018786D02*
X19409286Y-11971167D01*
X19409286Y-11971167D02*
X19418810Y-11942595D01*
X19418810Y-11942595D02*
X19428334Y-11923548D01*
X19428334Y-11923548D02*
X19447381Y-11894976D01*
X19447381Y-11894976D02*
X19456905Y-11885452D01*
X19618810Y-11914024D02*
X19580715Y-11914024D01*
X19580715Y-11914024D02*
X19561667Y-11923548D01*
X19561667Y-11923548D02*
X19552143Y-11933071D01*
X19552143Y-11933071D02*
X19533096Y-11961643D01*
X19533096Y-11961643D02*
X19523572Y-11999738D01*
X19523572Y-11999738D02*
X19523572Y-12075928D01*
X19523572Y-12075928D02*
X19533096Y-12094976D01*
X19533096Y-12094976D02*
X19542619Y-12104500D01*
X19542619Y-12104500D02*
X19561667Y-12114024D01*
X19561667Y-12114024D02*
X19599762Y-12114024D01*
X19599762Y-12114024D02*
X19618810Y-12104500D01*
X19618810Y-12104500D02*
X19628334Y-12094976D01*
X19628334Y-12094976D02*
X19637857Y-12075928D01*
X19637857Y-12075928D02*
X19637857Y-12028309D01*
X19637857Y-12028309D02*
X19628334Y-12009262D01*
X19628334Y-12009262D02*
X19618810Y-11999738D01*
X19618810Y-11999738D02*
X19599762Y-11990214D01*
X19599762Y-11990214D02*
X19561667Y-11990214D01*
X19561667Y-11990214D02*
X19542619Y-11999738D01*
X19542619Y-11999738D02*
X19533096Y-12009262D01*
X19533096Y-12009262D02*
X19523572Y-12028309D01*
X19809286Y-11980690D02*
X19809286Y-12114024D01*
X19761667Y-11904500D02*
X19714048Y-12047357D01*
X19714048Y-12047357D02*
X19837857Y-12047357D01*
X20066429Y-12114024D02*
X20066429Y-11914024D01*
X20152143Y-12114024D02*
X20152143Y-12009262D01*
X20152143Y-12009262D02*
X20142619Y-11990214D01*
X20142619Y-11990214D02*
X20123572Y-11980690D01*
X20123572Y-11980690D02*
X20095000Y-11980690D01*
X20095000Y-11980690D02*
X20075953Y-11990214D01*
X20075953Y-11990214D02*
X20066429Y-11999738D01*
X20275953Y-12114024D02*
X20256905Y-12104500D01*
X20256905Y-12104500D02*
X20247381Y-12094976D01*
X20247381Y-12094976D02*
X20237858Y-12075928D01*
X20237858Y-12075928D02*
X20237858Y-12018786D01*
X20237858Y-12018786D02*
X20247381Y-11999738D01*
X20247381Y-11999738D02*
X20256905Y-11990214D01*
X20256905Y-11990214D02*
X20275953Y-11980690D01*
X20275953Y-11980690D02*
X20304524Y-11980690D01*
X20304524Y-11980690D02*
X20323572Y-11990214D01*
X20323572Y-11990214D02*
X20333096Y-11999738D01*
X20333096Y-11999738D02*
X20342619Y-12018786D01*
X20342619Y-12018786D02*
X20342619Y-12075928D01*
X20342619Y-12075928D02*
X20333096Y-12094976D01*
X20333096Y-12094976D02*
X20323572Y-12104500D01*
X20323572Y-12104500D02*
X20304524Y-12114024D01*
X20304524Y-12114024D02*
X20275953Y-12114024D01*
X20456905Y-12114024D02*
X20437858Y-12104500D01*
X20437858Y-12104500D02*
X20428334Y-12085452D01*
X20428334Y-12085452D02*
X20428334Y-11914024D01*
X20609286Y-12104500D02*
X20590239Y-12114024D01*
X20590239Y-12114024D02*
X20552143Y-12114024D01*
X20552143Y-12114024D02*
X20533096Y-12104500D01*
X20533096Y-12104500D02*
X20523572Y-12085452D01*
X20523572Y-12085452D02*
X20523572Y-12009262D01*
X20523572Y-12009262D02*
X20533096Y-11990214D01*
X20533096Y-11990214D02*
X20552143Y-11980690D01*
X20552143Y-11980690D02*
X20590239Y-11980690D01*
X20590239Y-11980690D02*
X20609286Y-11990214D01*
X20609286Y-11990214D02*
X20618810Y-12009262D01*
X20618810Y-12009262D02*
X20618810Y-12028309D01*
X20618810Y-12028309D02*
X20523572Y-12047357D01*
X20695000Y-12104500D02*
X20714048Y-12114024D01*
X20714048Y-12114024D02*
X20752143Y-12114024D01*
X20752143Y-12114024D02*
X20771191Y-12104500D01*
X20771191Y-12104500D02*
X20780715Y-12085452D01*
X20780715Y-12085452D02*
X20780715Y-12075928D01*
X20780715Y-12075928D02*
X20771191Y-12056881D01*
X20771191Y-12056881D02*
X20752143Y-12047357D01*
X20752143Y-12047357D02*
X20723572Y-12047357D01*
X20723572Y-12047357D02*
X20704524Y-12037833D01*
X20704524Y-12037833D02*
X20695000Y-12018786D01*
X20695000Y-12018786D02*
X20695000Y-12009262D01*
X20695000Y-12009262D02*
X20704524Y-11990214D01*
X20704524Y-11990214D02*
X20723572Y-11980690D01*
X20723572Y-11980690D02*
X20752143Y-11980690D01*
X20752143Y-11980690D02*
X20771191Y-11990214D01*
X20847381Y-12190214D02*
X20856905Y-12180690D01*
X20856905Y-12180690D02*
X20875953Y-12152119D01*
X20875953Y-12152119D02*
X20885477Y-12133071D01*
X20885477Y-12133071D02*
X20895000Y-12104500D01*
X20895000Y-12104500D02*
X20904524Y-12056881D01*
X20904524Y-12056881D02*
X20904524Y-12018786D01*
X20904524Y-12018786D02*
X20895000Y-11971167D01*
X20895000Y-11971167D02*
X20885477Y-11942595D01*
X20885477Y-11942595D02*
X20875953Y-11923548D01*
X20875953Y-11923548D02*
X20856905Y-11894976D01*
X20856905Y-11894976D02*
X20847381Y-11885452D01*
D10*
X15845000Y-12235500D02*
X15845000Y-12335500D01*
X15795000Y-12285500D02*
X15895000Y-12285500D01*
D11*
X16247381Y-12378024D02*
X16133095Y-12378024D01*
X16190238Y-12378024D02*
X16190238Y-12178024D01*
X16190238Y-12178024D02*
X16171190Y-12206595D01*
X16171190Y-12206595D02*
X16152143Y-12225643D01*
X16152143Y-12225643D02*
X16133095Y-12235167D01*
X16333095Y-12358976D02*
X16342619Y-12368500D01*
X16342619Y-12368500D02*
X16333095Y-12378024D01*
X16333095Y-12378024D02*
X16323571Y-12368500D01*
X16323571Y-12368500D02*
X16333095Y-12358976D01*
X16333095Y-12358976D02*
X16333095Y-12378024D01*
X16466428Y-12178024D02*
X16485476Y-12178024D01*
X16485476Y-12178024D02*
X16504524Y-12187548D01*
X16504524Y-12187548D02*
X16514048Y-12197071D01*
X16514048Y-12197071D02*
X16523571Y-12216119D01*
X16523571Y-12216119D02*
X16533095Y-12254214D01*
X16533095Y-12254214D02*
X16533095Y-12301833D01*
X16533095Y-12301833D02*
X16523571Y-12339928D01*
X16523571Y-12339928D02*
X16514048Y-12358976D01*
X16514048Y-12358976D02*
X16504524Y-12368500D01*
X16504524Y-12368500D02*
X16485476Y-12378024D01*
X16485476Y-12378024D02*
X16466428Y-12378024D01*
X16466428Y-12378024D02*
X16447381Y-12368500D01*
X16447381Y-12368500D02*
X16437857Y-12358976D01*
X16437857Y-12358976D02*
X16428333Y-12339928D01*
X16428333Y-12339928D02*
X16418809Y-12301833D01*
X16418809Y-12301833D02*
X16418809Y-12254214D01*
X16418809Y-12254214D02*
X16428333Y-12216119D01*
X16428333Y-12216119D02*
X16437857Y-12197071D01*
X16437857Y-12197071D02*
X16447381Y-12187548D01*
X16447381Y-12187548D02*
X16466428Y-12178024D01*
X16656905Y-12178024D02*
X16675952Y-12178024D01*
X16675952Y-12178024D02*
X16695000Y-12187548D01*
X16695000Y-12187548D02*
X16704524Y-12197071D01*
X16704524Y-12197071D02*
X16714048Y-12216119D01*
X16714048Y-12216119D02*
X16723571Y-12254214D01*
X16723571Y-12254214D02*
X16723571Y-12301833D01*
X16723571Y-12301833D02*
X16714048Y-12339928D01*
X16714048Y-12339928D02*
X16704524Y-12358976D01*
X16704524Y-12358976D02*
X16695000Y-12368500D01*
X16695000Y-12368500D02*
X16675952Y-12378024D01*
X16675952Y-12378024D02*
X16656905Y-12378024D01*
X16656905Y-12378024D02*
X16637857Y-12368500D01*
X16637857Y-12368500D02*
X16628333Y-12358976D01*
X16628333Y-12358976D02*
X16618809Y-12339928D01*
X16618809Y-12339928D02*
X16609286Y-12301833D01*
X16609286Y-12301833D02*
X16609286Y-12254214D01*
X16609286Y-12254214D02*
X16618809Y-12216119D01*
X16618809Y-12216119D02*
X16628333Y-12197071D01*
X16628333Y-12197071D02*
X16637857Y-12187548D01*
X16637857Y-12187548D02*
X16656905Y-12178024D01*
X16847381Y-12178024D02*
X16866429Y-12178024D01*
X16866429Y-12178024D02*
X16885476Y-12187548D01*
X16885476Y-12187548D02*
X16895000Y-12197071D01*
X16895000Y-12197071D02*
X16904524Y-12216119D01*
X16904524Y-12216119D02*
X16914048Y-12254214D01*
X16914048Y-12254214D02*
X16914048Y-12301833D01*
X16914048Y-12301833D02*
X16904524Y-12339928D01*
X16904524Y-12339928D02*
X16895000Y-12358976D01*
X16895000Y-12358976D02*
X16885476Y-12368500D01*
X16885476Y-12368500D02*
X16866429Y-12378024D01*
X16866429Y-12378024D02*
X16847381Y-12378024D01*
X16847381Y-12378024D02*
X16828333Y-12368500D01*
X16828333Y-12368500D02*
X16818810Y-12358976D01*
X16818810Y-12358976D02*
X16809286Y-12339928D01*
X16809286Y-12339928D02*
X16799762Y-12301833D01*
X16799762Y-12301833D02*
X16799762Y-12254214D01*
X16799762Y-12254214D02*
X16809286Y-12216119D01*
X16809286Y-12216119D02*
X16818810Y-12197071D01*
X16818810Y-12197071D02*
X16828333Y-12187548D01*
X16828333Y-12187548D02*
X16847381Y-12178024D01*
X16999762Y-12378024D02*
X16999762Y-12244690D01*
X16999762Y-12263738D02*
X17009286Y-12254214D01*
X17009286Y-12254214D02*
X17028333Y-12244690D01*
X17028333Y-12244690D02*
X17056905Y-12244690D01*
X17056905Y-12244690D02*
X17075952Y-12254214D01*
X17075952Y-12254214D02*
X17085476Y-12273262D01*
X17085476Y-12273262D02*
X17085476Y-12378024D01*
X17085476Y-12273262D02*
X17095000Y-12254214D01*
X17095000Y-12254214D02*
X17114048Y-12244690D01*
X17114048Y-12244690D02*
X17142619Y-12244690D01*
X17142619Y-12244690D02*
X17161667Y-12254214D01*
X17161667Y-12254214D02*
X17171191Y-12273262D01*
X17171191Y-12273262D02*
X17171191Y-12378024D01*
X17266429Y-12378024D02*
X17266429Y-12244690D01*
X17266429Y-12263738D02*
X17275952Y-12254214D01*
X17275952Y-12254214D02*
X17295000Y-12244690D01*
X17295000Y-12244690D02*
X17323572Y-12244690D01*
X17323572Y-12244690D02*
X17342619Y-12254214D01*
X17342619Y-12254214D02*
X17352143Y-12273262D01*
X17352143Y-12273262D02*
X17352143Y-12378024D01*
X17352143Y-12273262D02*
X17361667Y-12254214D01*
X17361667Y-12254214D02*
X17380714Y-12244690D01*
X17380714Y-12244690D02*
X17409286Y-12244690D01*
X17409286Y-12244690D02*
X17428333Y-12254214D01*
X17428333Y-12254214D02*
X17437857Y-12273262D01*
X17437857Y-12273262D02*
X17437857Y-12378024D01*
X17828333Y-12168500D02*
X17656905Y-12425643D01*
X18085476Y-12178024D02*
X18104524Y-12178024D01*
X18104524Y-12178024D02*
X18123572Y-12187548D01*
X18123572Y-12187548D02*
X18133095Y-12197071D01*
X18133095Y-12197071D02*
X18142619Y-12216119D01*
X18142619Y-12216119D02*
X18152143Y-12254214D01*
X18152143Y-12254214D02*
X18152143Y-12301833D01*
X18152143Y-12301833D02*
X18142619Y-12339928D01*
X18142619Y-12339928D02*
X18133095Y-12358976D01*
X18133095Y-12358976D02*
X18123572Y-12368500D01*
X18123572Y-12368500D02*
X18104524Y-12378024D01*
X18104524Y-12378024D02*
X18085476Y-12378024D01*
X18085476Y-12378024D02*
X18066429Y-12368500D01*
X18066429Y-12368500D02*
X18056905Y-12358976D01*
X18056905Y-12358976D02*
X18047381Y-12339928D01*
X18047381Y-12339928D02*
X18037857Y-12301833D01*
X18037857Y-12301833D02*
X18037857Y-12254214D01*
X18037857Y-12254214D02*
X18047381Y-12216119D01*
X18047381Y-12216119D02*
X18056905Y-12197071D01*
X18056905Y-12197071D02*
X18066429Y-12187548D01*
X18066429Y-12187548D02*
X18085476Y-12178024D01*
X18237857Y-12358976D02*
X18247381Y-12368500D01*
X18247381Y-12368500D02*
X18237857Y-12378024D01*
X18237857Y-12378024D02*
X18228334Y-12368500D01*
X18228334Y-12368500D02*
X18237857Y-12358976D01*
X18237857Y-12358976D02*
X18237857Y-12378024D01*
X18371191Y-12178024D02*
X18390238Y-12178024D01*
X18390238Y-12178024D02*
X18409286Y-12187548D01*
X18409286Y-12187548D02*
X18418810Y-12197071D01*
X18418810Y-12197071D02*
X18428334Y-12216119D01*
X18428334Y-12216119D02*
X18437857Y-12254214D01*
X18437857Y-12254214D02*
X18437857Y-12301833D01*
X18437857Y-12301833D02*
X18428334Y-12339928D01*
X18428334Y-12339928D02*
X18418810Y-12358976D01*
X18418810Y-12358976D02*
X18409286Y-12368500D01*
X18409286Y-12368500D02*
X18390238Y-12378024D01*
X18390238Y-12378024D02*
X18371191Y-12378024D01*
X18371191Y-12378024D02*
X18352143Y-12368500D01*
X18352143Y-12368500D02*
X18342619Y-12358976D01*
X18342619Y-12358976D02*
X18333095Y-12339928D01*
X18333095Y-12339928D02*
X18323572Y-12301833D01*
X18323572Y-12301833D02*
X18323572Y-12254214D01*
X18323572Y-12254214D02*
X18333095Y-12216119D01*
X18333095Y-12216119D02*
X18342619Y-12197071D01*
X18342619Y-12197071D02*
X18352143Y-12187548D01*
X18352143Y-12187548D02*
X18371191Y-12178024D01*
X18504524Y-12178024D02*
X18628334Y-12178024D01*
X18628334Y-12178024D02*
X18561667Y-12254214D01*
X18561667Y-12254214D02*
X18590238Y-12254214D01*
X18590238Y-12254214D02*
X18609286Y-12263738D01*
X18609286Y-12263738D02*
X18618810Y-12273262D01*
X18618810Y-12273262D02*
X18628334Y-12292309D01*
X18628334Y-12292309D02*
X18628334Y-12339928D01*
X18628334Y-12339928D02*
X18618810Y-12358976D01*
X18618810Y-12358976D02*
X18609286Y-12368500D01*
X18609286Y-12368500D02*
X18590238Y-12378024D01*
X18590238Y-12378024D02*
X18533095Y-12378024D01*
X18533095Y-12378024D02*
X18514048Y-12368500D01*
X18514048Y-12368500D02*
X18504524Y-12358976D01*
X18723572Y-12378024D02*
X18761667Y-12378024D01*
X18761667Y-12378024D02*
X18780715Y-12368500D01*
X18780715Y-12368500D02*
X18790238Y-12358976D01*
X18790238Y-12358976D02*
X18809286Y-12330405D01*
X18809286Y-12330405D02*
X18818810Y-12292309D01*
X18818810Y-12292309D02*
X18818810Y-12216119D01*
X18818810Y-12216119D02*
X18809286Y-12197071D01*
X18809286Y-12197071D02*
X18799762Y-12187548D01*
X18799762Y-12187548D02*
X18780715Y-12178024D01*
X18780715Y-12178024D02*
X18742619Y-12178024D01*
X18742619Y-12178024D02*
X18723572Y-12187548D01*
X18723572Y-12187548D02*
X18714048Y-12197071D01*
X18714048Y-12197071D02*
X18704524Y-12216119D01*
X18704524Y-12216119D02*
X18704524Y-12263738D01*
X18704524Y-12263738D02*
X18714048Y-12282786D01*
X18714048Y-12282786D02*
X18723572Y-12292309D01*
X18723572Y-12292309D02*
X18742619Y-12301833D01*
X18742619Y-12301833D02*
X18780715Y-12301833D01*
X18780715Y-12301833D02*
X18799762Y-12292309D01*
X18799762Y-12292309D02*
X18809286Y-12282786D01*
X18809286Y-12282786D02*
X18818810Y-12263738D01*
X18990238Y-12244690D02*
X18990238Y-12378024D01*
X18942619Y-12168500D02*
X18895000Y-12311357D01*
X18895000Y-12311357D02*
X19018810Y-12311357D01*
X19085476Y-12178024D02*
X19085476Y-12216119D01*
X19161667Y-12178024D02*
X19161667Y-12216119D01*
X19456905Y-12454214D02*
X19447381Y-12444690D01*
X19447381Y-12444690D02*
X19428334Y-12416119D01*
X19428334Y-12416119D02*
X19418810Y-12397071D01*
X19418810Y-12397071D02*
X19409286Y-12368500D01*
X19409286Y-12368500D02*
X19399762Y-12320881D01*
X19399762Y-12320881D02*
X19399762Y-12282786D01*
X19399762Y-12282786D02*
X19409286Y-12235167D01*
X19409286Y-12235167D02*
X19418810Y-12206595D01*
X19418810Y-12206595D02*
X19428334Y-12187548D01*
X19428334Y-12187548D02*
X19447381Y-12158976D01*
X19447381Y-12158976D02*
X19456905Y-12149452D01*
X19618810Y-12244690D02*
X19618810Y-12378024D01*
X19571191Y-12168500D02*
X19523572Y-12311357D01*
X19523572Y-12311357D02*
X19647381Y-12311357D01*
X19761667Y-12178024D02*
X19780715Y-12178024D01*
X19780715Y-12178024D02*
X19799762Y-12187548D01*
X19799762Y-12187548D02*
X19809286Y-12197071D01*
X19809286Y-12197071D02*
X19818810Y-12216119D01*
X19818810Y-12216119D02*
X19828334Y-12254214D01*
X19828334Y-12254214D02*
X19828334Y-12301833D01*
X19828334Y-12301833D02*
X19818810Y-12339928D01*
X19818810Y-12339928D02*
X19809286Y-12358976D01*
X19809286Y-12358976D02*
X19799762Y-12368500D01*
X19799762Y-12368500D02*
X19780715Y-12378024D01*
X19780715Y-12378024D02*
X19761667Y-12378024D01*
X19761667Y-12378024D02*
X19742619Y-12368500D01*
X19742619Y-12368500D02*
X19733096Y-12358976D01*
X19733096Y-12358976D02*
X19723572Y-12339928D01*
X19723572Y-12339928D02*
X19714048Y-12301833D01*
X19714048Y-12301833D02*
X19714048Y-12254214D01*
X19714048Y-12254214D02*
X19723572Y-12216119D01*
X19723572Y-12216119D02*
X19733096Y-12197071D01*
X19733096Y-12197071D02*
X19742619Y-12187548D01*
X19742619Y-12187548D02*
X19761667Y-12178024D01*
X20066429Y-12378024D02*
X20066429Y-12178024D01*
X20152143Y-12378024D02*
X20152143Y-12273262D01*
X20152143Y-12273262D02*
X20142619Y-12254214D01*
X20142619Y-12254214D02*
X20123572Y-12244690D01*
X20123572Y-12244690D02*
X20095000Y-12244690D01*
X20095000Y-12244690D02*
X20075953Y-12254214D01*
X20075953Y-12254214D02*
X20066429Y-12263738D01*
X20275953Y-12378024D02*
X20256905Y-12368500D01*
X20256905Y-12368500D02*
X20247381Y-12358976D01*
X20247381Y-12358976D02*
X20237858Y-12339928D01*
X20237858Y-12339928D02*
X20237858Y-12282786D01*
X20237858Y-12282786D02*
X20247381Y-12263738D01*
X20247381Y-12263738D02*
X20256905Y-12254214D01*
X20256905Y-12254214D02*
X20275953Y-12244690D01*
X20275953Y-12244690D02*
X20304524Y-12244690D01*
X20304524Y-12244690D02*
X20323572Y-12254214D01*
X20323572Y-12254214D02*
X20333096Y-12263738D01*
X20333096Y-12263738D02*
X20342619Y-12282786D01*
X20342619Y-12282786D02*
X20342619Y-12339928D01*
X20342619Y-12339928D02*
X20333096Y-12358976D01*
X20333096Y-12358976D02*
X20323572Y-12368500D01*
X20323572Y-12368500D02*
X20304524Y-12378024D01*
X20304524Y-12378024D02*
X20275953Y-12378024D01*
X20456905Y-12378024D02*
X20437858Y-12368500D01*
X20437858Y-12368500D02*
X20428334Y-12349452D01*
X20428334Y-12349452D02*
X20428334Y-12178024D01*
X20609286Y-12368500D02*
X20590239Y-12378024D01*
X20590239Y-12378024D02*
X20552143Y-12378024D01*
X20552143Y-12378024D02*
X20533096Y-12368500D01*
X20533096Y-12368500D02*
X20523572Y-12349452D01*
X20523572Y-12349452D02*
X20523572Y-12273262D01*
X20523572Y-12273262D02*
X20533096Y-12254214D01*
X20533096Y-12254214D02*
X20552143Y-12244690D01*
X20552143Y-12244690D02*
X20590239Y-12244690D01*
X20590239Y-12244690D02*
X20609286Y-12254214D01*
X20609286Y-12254214D02*
X20618810Y-12273262D01*
X20618810Y-12273262D02*
X20618810Y-12292309D01*
X20618810Y-12292309D02*
X20523572Y-12311357D01*
X20695000Y-12368500D02*
X20714048Y-12378024D01*
X20714048Y-12378024D02*
X20752143Y-12378024D01*
X20752143Y-12378024D02*
X20771191Y-12368500D01*
X20771191Y-12368500D02*
X20780715Y-12349452D01*
X20780715Y-12349452D02*
X20780715Y-12339928D01*
X20780715Y-12339928D02*
X20771191Y-12320881D01*
X20771191Y-12320881D02*
X20752143Y-12311357D01*
X20752143Y-12311357D02*
X20723572Y-12311357D01*
X20723572Y-12311357D02*
X20704524Y-12301833D01*
X20704524Y-12301833D02*
X20695000Y-12282786D01*
X20695000Y-12282786D02*
X20695000Y-12273262D01*
X20695000Y-12273262D02*
X20704524Y-12254214D01*
X20704524Y-12254214D02*
X20723572Y-12244690D01*
X20723572Y-12244690D02*
X20752143Y-12244690D01*
X20752143Y-12244690D02*
X20771191Y-12254214D01*
X20847381Y-12454214D02*
X20856905Y-12444690D01*
X20856905Y-12444690D02*
X20875953Y-12416119D01*
X20875953Y-12416119D02*
X20885477Y-12397071D01*
X20885477Y-12397071D02*
X20895000Y-12368500D01*
X20895000Y-12368500D02*
X20904524Y-12320881D01*
X20904524Y-12320881D02*
X20904524Y-12282786D01*
X20904524Y-12282786D02*
X20895000Y-12235167D01*
X20895000Y-12235167D02*
X20885477Y-12206595D01*
X20885477Y-12206595D02*
X20875953Y-12187548D01*
X20875953Y-12187548D02*
X20856905Y-12158976D01*
X20856905Y-12158976D02*
X20847381Y-12149452D01*
D14*
X15878891Y-12588391D02*
X15878891Y-12510609D01*
X15801109Y-12510609D01*
X15801109Y-12588391D01*
X15878891Y-12588391D01*
D11*
X16247381Y-12642024D02*
X16133095Y-12642024D01*
X16190238Y-12642024D02*
X16190238Y-12442024D01*
X16190238Y-12442024D02*
X16171190Y-12470595D01*
X16171190Y-12470595D02*
X16152143Y-12489643D01*
X16152143Y-12489643D02*
X16133095Y-12499167D01*
X16333095Y-12622976D02*
X16342619Y-12632500D01*
X16342619Y-12632500D02*
X16333095Y-12642024D01*
X16333095Y-12642024D02*
X16323571Y-12632500D01*
X16323571Y-12632500D02*
X16333095Y-12622976D01*
X16333095Y-12622976D02*
X16333095Y-12642024D01*
X16533095Y-12642024D02*
X16418809Y-12642024D01*
X16475952Y-12642024D02*
X16475952Y-12442024D01*
X16475952Y-12442024D02*
X16456905Y-12470595D01*
X16456905Y-12470595D02*
X16437857Y-12489643D01*
X16437857Y-12489643D02*
X16418809Y-12499167D01*
X16656905Y-12442024D02*
X16675952Y-12442024D01*
X16675952Y-12442024D02*
X16695000Y-12451548D01*
X16695000Y-12451548D02*
X16704524Y-12461071D01*
X16704524Y-12461071D02*
X16714048Y-12480119D01*
X16714048Y-12480119D02*
X16723571Y-12518214D01*
X16723571Y-12518214D02*
X16723571Y-12565833D01*
X16723571Y-12565833D02*
X16714048Y-12603928D01*
X16714048Y-12603928D02*
X16704524Y-12622976D01*
X16704524Y-12622976D02*
X16695000Y-12632500D01*
X16695000Y-12632500D02*
X16675952Y-12642024D01*
X16675952Y-12642024D02*
X16656905Y-12642024D01*
X16656905Y-12642024D02*
X16637857Y-12632500D01*
X16637857Y-12632500D02*
X16628333Y-12622976D01*
X16628333Y-12622976D02*
X16618809Y-12603928D01*
X16618809Y-12603928D02*
X16609286Y-12565833D01*
X16609286Y-12565833D02*
X16609286Y-12518214D01*
X16609286Y-12518214D02*
X16618809Y-12480119D01*
X16618809Y-12480119D02*
X16628333Y-12461071D01*
X16628333Y-12461071D02*
X16637857Y-12451548D01*
X16637857Y-12451548D02*
X16656905Y-12442024D01*
X16847381Y-12442024D02*
X16866429Y-12442024D01*
X16866429Y-12442024D02*
X16885476Y-12451548D01*
X16885476Y-12451548D02*
X16895000Y-12461071D01*
X16895000Y-12461071D02*
X16904524Y-12480119D01*
X16904524Y-12480119D02*
X16914048Y-12518214D01*
X16914048Y-12518214D02*
X16914048Y-12565833D01*
X16914048Y-12565833D02*
X16904524Y-12603928D01*
X16904524Y-12603928D02*
X16895000Y-12622976D01*
X16895000Y-12622976D02*
X16885476Y-12632500D01*
X16885476Y-12632500D02*
X16866429Y-12642024D01*
X16866429Y-12642024D02*
X16847381Y-12642024D01*
X16847381Y-12642024D02*
X16828333Y-12632500D01*
X16828333Y-12632500D02*
X16818810Y-12622976D01*
X16818810Y-12622976D02*
X16809286Y-12603928D01*
X16809286Y-12603928D02*
X16799762Y-12565833D01*
X16799762Y-12565833D02*
X16799762Y-12518214D01*
X16799762Y-12518214D02*
X16809286Y-12480119D01*
X16809286Y-12480119D02*
X16818810Y-12461071D01*
X16818810Y-12461071D02*
X16828333Y-12451548D01*
X16828333Y-12451548D02*
X16847381Y-12442024D01*
X16999762Y-12642024D02*
X16999762Y-12508690D01*
X16999762Y-12527738D02*
X17009286Y-12518214D01*
X17009286Y-12518214D02*
X17028333Y-12508690D01*
X17028333Y-12508690D02*
X17056905Y-12508690D01*
X17056905Y-12508690D02*
X17075952Y-12518214D01*
X17075952Y-12518214D02*
X17085476Y-12537262D01*
X17085476Y-12537262D02*
X17085476Y-12642024D01*
X17085476Y-12537262D02*
X17095000Y-12518214D01*
X17095000Y-12518214D02*
X17114048Y-12508690D01*
X17114048Y-12508690D02*
X17142619Y-12508690D01*
X17142619Y-12508690D02*
X17161667Y-12518214D01*
X17161667Y-12518214D02*
X17171191Y-12537262D01*
X17171191Y-12537262D02*
X17171191Y-12642024D01*
X17266429Y-12642024D02*
X17266429Y-12508690D01*
X17266429Y-12527738D02*
X17275952Y-12518214D01*
X17275952Y-12518214D02*
X17295000Y-12508690D01*
X17295000Y-12508690D02*
X17323572Y-12508690D01*
X17323572Y-12508690D02*
X17342619Y-12518214D01*
X17342619Y-12518214D02*
X17352143Y-12537262D01*
X17352143Y-12537262D02*
X17352143Y-12642024D01*
X17352143Y-12537262D02*
X17361667Y-12518214D01*
X17361667Y-12518214D02*
X17380714Y-12508690D01*
X17380714Y-12508690D02*
X17409286Y-12508690D01*
X17409286Y-12508690D02*
X17428333Y-12518214D01*
X17428333Y-12518214D02*
X17437857Y-12537262D01*
X17437857Y-12537262D02*
X17437857Y-12642024D01*
X17828333Y-12432500D02*
X17656905Y-12689643D01*
X18085476Y-12442024D02*
X18104524Y-12442024D01*
X18104524Y-12442024D02*
X18123572Y-12451548D01*
X18123572Y-12451548D02*
X18133095Y-12461071D01*
X18133095Y-12461071D02*
X18142619Y-12480119D01*
X18142619Y-12480119D02*
X18152143Y-12518214D01*
X18152143Y-12518214D02*
X18152143Y-12565833D01*
X18152143Y-12565833D02*
X18142619Y-12603928D01*
X18142619Y-12603928D02*
X18133095Y-12622976D01*
X18133095Y-12622976D02*
X18123572Y-12632500D01*
X18123572Y-12632500D02*
X18104524Y-12642024D01*
X18104524Y-12642024D02*
X18085476Y-12642024D01*
X18085476Y-12642024D02*
X18066429Y-12632500D01*
X18066429Y-12632500D02*
X18056905Y-12622976D01*
X18056905Y-12622976D02*
X18047381Y-12603928D01*
X18047381Y-12603928D02*
X18037857Y-12565833D01*
X18037857Y-12565833D02*
X18037857Y-12518214D01*
X18037857Y-12518214D02*
X18047381Y-12480119D01*
X18047381Y-12480119D02*
X18056905Y-12461071D01*
X18056905Y-12461071D02*
X18066429Y-12451548D01*
X18066429Y-12451548D02*
X18085476Y-12442024D01*
X18237857Y-12622976D02*
X18247381Y-12632500D01*
X18247381Y-12632500D02*
X18237857Y-12642024D01*
X18237857Y-12642024D02*
X18228334Y-12632500D01*
X18228334Y-12632500D02*
X18237857Y-12622976D01*
X18237857Y-12622976D02*
X18237857Y-12642024D01*
X18371191Y-12442024D02*
X18390238Y-12442024D01*
X18390238Y-12442024D02*
X18409286Y-12451548D01*
X18409286Y-12451548D02*
X18418810Y-12461071D01*
X18418810Y-12461071D02*
X18428334Y-12480119D01*
X18428334Y-12480119D02*
X18437857Y-12518214D01*
X18437857Y-12518214D02*
X18437857Y-12565833D01*
X18437857Y-12565833D02*
X18428334Y-12603928D01*
X18428334Y-12603928D02*
X18418810Y-12622976D01*
X18418810Y-12622976D02*
X18409286Y-12632500D01*
X18409286Y-12632500D02*
X18390238Y-12642024D01*
X18390238Y-12642024D02*
X18371191Y-12642024D01*
X18371191Y-12642024D02*
X18352143Y-12632500D01*
X18352143Y-12632500D02*
X18342619Y-12622976D01*
X18342619Y-12622976D02*
X18333095Y-12603928D01*
X18333095Y-12603928D02*
X18323572Y-12565833D01*
X18323572Y-12565833D02*
X18323572Y-12518214D01*
X18323572Y-12518214D02*
X18333095Y-12480119D01*
X18333095Y-12480119D02*
X18342619Y-12461071D01*
X18342619Y-12461071D02*
X18352143Y-12451548D01*
X18352143Y-12451548D02*
X18371191Y-12442024D01*
X18609286Y-12508690D02*
X18609286Y-12642024D01*
X18561667Y-12432500D02*
X18514048Y-12575357D01*
X18514048Y-12575357D02*
X18637857Y-12575357D01*
X18695000Y-12442024D02*
X18818810Y-12442024D01*
X18818810Y-12442024D02*
X18752143Y-12518214D01*
X18752143Y-12518214D02*
X18780715Y-12518214D01*
X18780715Y-12518214D02*
X18799762Y-12527738D01*
X18799762Y-12527738D02*
X18809286Y-12537262D01*
X18809286Y-12537262D02*
X18818810Y-12556309D01*
X18818810Y-12556309D02*
X18818810Y-12603928D01*
X18818810Y-12603928D02*
X18809286Y-12622976D01*
X18809286Y-12622976D02*
X18799762Y-12632500D01*
X18799762Y-12632500D02*
X18780715Y-12642024D01*
X18780715Y-12642024D02*
X18723572Y-12642024D01*
X18723572Y-12642024D02*
X18704524Y-12632500D01*
X18704524Y-12632500D02*
X18695000Y-12622976D01*
X18885476Y-12442024D02*
X19009286Y-12442024D01*
X19009286Y-12442024D02*
X18942619Y-12518214D01*
X18942619Y-12518214D02*
X18971191Y-12518214D01*
X18971191Y-12518214D02*
X18990238Y-12527738D01*
X18990238Y-12527738D02*
X18999762Y-12537262D01*
X18999762Y-12537262D02*
X19009286Y-12556309D01*
X19009286Y-12556309D02*
X19009286Y-12603928D01*
X19009286Y-12603928D02*
X18999762Y-12622976D01*
X18999762Y-12622976D02*
X18990238Y-12632500D01*
X18990238Y-12632500D02*
X18971191Y-12642024D01*
X18971191Y-12642024D02*
X18914048Y-12642024D01*
X18914048Y-12642024D02*
X18895000Y-12632500D01*
X18895000Y-12632500D02*
X18885476Y-12622976D01*
X19085476Y-12442024D02*
X19085476Y-12480119D01*
X19161667Y-12442024D02*
X19161667Y-12480119D01*
X19456905Y-12718214D02*
X19447381Y-12708690D01*
X19447381Y-12708690D02*
X19428334Y-12680119D01*
X19428334Y-12680119D02*
X19418810Y-12661071D01*
X19418810Y-12661071D02*
X19409286Y-12632500D01*
X19409286Y-12632500D02*
X19399762Y-12584881D01*
X19399762Y-12584881D02*
X19399762Y-12546786D01*
X19399762Y-12546786D02*
X19409286Y-12499167D01*
X19409286Y-12499167D02*
X19418810Y-12470595D01*
X19418810Y-12470595D02*
X19428334Y-12451548D01*
X19428334Y-12451548D02*
X19447381Y-12422976D01*
X19447381Y-12422976D02*
X19456905Y-12413452D01*
X19523572Y-12461071D02*
X19533096Y-12451548D01*
X19533096Y-12451548D02*
X19552143Y-12442024D01*
X19552143Y-12442024D02*
X19599762Y-12442024D01*
X19599762Y-12442024D02*
X19618810Y-12451548D01*
X19618810Y-12451548D02*
X19628334Y-12461071D01*
X19628334Y-12461071D02*
X19637857Y-12480119D01*
X19637857Y-12480119D02*
X19637857Y-12499167D01*
X19637857Y-12499167D02*
X19628334Y-12527738D01*
X19628334Y-12527738D02*
X19514048Y-12642024D01*
X19514048Y-12642024D02*
X19637857Y-12642024D01*
X19875953Y-12642024D02*
X19875953Y-12442024D01*
X19961667Y-12642024D02*
X19961667Y-12537262D01*
X19961667Y-12537262D02*
X19952143Y-12518214D01*
X19952143Y-12518214D02*
X19933096Y-12508690D01*
X19933096Y-12508690D02*
X19904524Y-12508690D01*
X19904524Y-12508690D02*
X19885477Y-12518214D01*
X19885477Y-12518214D02*
X19875953Y-12527738D01*
X20085477Y-12642024D02*
X20066429Y-12632500D01*
X20066429Y-12632500D02*
X20056905Y-12622976D01*
X20056905Y-12622976D02*
X20047381Y-12603928D01*
X20047381Y-12603928D02*
X20047381Y-12546786D01*
X20047381Y-12546786D02*
X20056905Y-12527738D01*
X20056905Y-12527738D02*
X20066429Y-12518214D01*
X20066429Y-12518214D02*
X20085477Y-12508690D01*
X20085477Y-12508690D02*
X20114048Y-12508690D01*
X20114048Y-12508690D02*
X20133096Y-12518214D01*
X20133096Y-12518214D02*
X20142619Y-12527738D01*
X20142619Y-12527738D02*
X20152143Y-12546786D01*
X20152143Y-12546786D02*
X20152143Y-12603928D01*
X20152143Y-12603928D02*
X20142619Y-12622976D01*
X20142619Y-12622976D02*
X20133096Y-12632500D01*
X20133096Y-12632500D02*
X20114048Y-12642024D01*
X20114048Y-12642024D02*
X20085477Y-12642024D01*
X20266429Y-12642024D02*
X20247381Y-12632500D01*
X20247381Y-12632500D02*
X20237858Y-12613452D01*
X20237858Y-12613452D02*
X20237858Y-12442024D01*
X20418810Y-12632500D02*
X20399762Y-12642024D01*
X20399762Y-12642024D02*
X20361667Y-12642024D01*
X20361667Y-12642024D02*
X20342619Y-12632500D01*
X20342619Y-12632500D02*
X20333096Y-12613452D01*
X20333096Y-12613452D02*
X20333096Y-12537262D01*
X20333096Y-12537262D02*
X20342619Y-12518214D01*
X20342619Y-12518214D02*
X20361667Y-12508690D01*
X20361667Y-12508690D02*
X20399762Y-12508690D01*
X20399762Y-12508690D02*
X20418810Y-12518214D01*
X20418810Y-12518214D02*
X20428334Y-12537262D01*
X20428334Y-12537262D02*
X20428334Y-12556309D01*
X20428334Y-12556309D02*
X20333096Y-12575357D01*
X20504524Y-12632500D02*
X20523572Y-12642024D01*
X20523572Y-12642024D02*
X20561667Y-12642024D01*
X20561667Y-12642024D02*
X20580715Y-12632500D01*
X20580715Y-12632500D02*
X20590239Y-12613452D01*
X20590239Y-12613452D02*
X20590239Y-12603928D01*
X20590239Y-12603928D02*
X20580715Y-12584881D01*
X20580715Y-12584881D02*
X20561667Y-12575357D01*
X20561667Y-12575357D02*
X20533096Y-12575357D01*
X20533096Y-12575357D02*
X20514048Y-12565833D01*
X20514048Y-12565833D02*
X20504524Y-12546786D01*
X20504524Y-12546786D02*
X20504524Y-12537262D01*
X20504524Y-12537262D02*
X20514048Y-12518214D01*
X20514048Y-12518214D02*
X20533096Y-12508690D01*
X20533096Y-12508690D02*
X20561667Y-12508690D01*
X20561667Y-12508690D02*
X20580715Y-12518214D01*
X20656905Y-12718214D02*
X20666429Y-12708690D01*
X20666429Y-12708690D02*
X20685477Y-12680119D01*
X20685477Y-12680119D02*
X20695000Y-12661071D01*
X20695000Y-12661071D02*
X20704524Y-12632500D01*
X20704524Y-12632500D02*
X20714048Y-12584881D01*
X20714048Y-12584881D02*
X20714048Y-12546786D01*
X20714048Y-12546786D02*
X20704524Y-12499167D01*
X20704524Y-12499167D02*
X20695000Y-12470595D01*
X20695000Y-12470595D02*
X20685477Y-12451548D01*
X20685477Y-12451548D02*
X20666429Y-12422976D01*
X20666429Y-12422976D02*
X20656905Y-12413452D01*
M02*
