M48
; DRILL file {KiCad 7.0.1} date Mon May 22 12:19:45 2023
; FORMAT={-:-/ absolute / inch / decimal}
; #@! TF.CreationDate,2023-05-22T12:19:45-07:00
; #@! TF.GenerationSoftware,Kicad,Pcbnew,7.0.1
; #@! TF.FileFunction,Plated,1,2,PTH
FMAT,2
INCH
; #@! TA.AperFunction,Plated,PTH,ViaDrill
T1C0.0157
; #@! TA.AperFunction,Plated,PTH,ComponentDrill
T2C0.0315
; #@! TA.AperFunction,Plated,PTH,ComponentDrill
T3C0.0394
; #@! TA.AperFunction,Plated,PTH,ComponentDrill
T4C0.0433
%
G90
G05
T1
X5.4193Y-2.5517
X5.5537Y-3.9475
X5.5716Y-3.3557
X5.5716Y-3.7652
X5.614Y-3.6081
X5.6148Y-2.3155
X5.6549Y-2.8633
X5.6564Y-3.5286
X5.6638Y-2.4922
X5.7005Y-3.2759
X5.7013Y-2.3088
X5.715Y-4.2357
X5.7308Y-2.4922
X5.739Y-3.3156
X5.7946Y-3.1663
X5.8411Y-4.0045
X5.8696Y-4.126
X6.1034Y-4.0708
X6.1386Y-3.2172
X6.2905Y-2.4342
X6.3271Y-2.4784
X6.3306Y-2.6119
X6.3358Y-2.8076
X6.356Y-3.7752
X6.3587Y-2.2321
X6.3627Y-2.7775
X6.399Y-2.6552
X6.4415Y-3.3256
X6.4421Y-3.6896
X6.4961Y-2.9583
X6.6376Y-3.7314
X6.639Y-3.9744
X6.647Y-4.0442
X6.6561Y-4.145
X6.6794Y-4.0735
X6.7791Y-3.5426
X6.8387Y-4.3721
X6.9499Y-4.0278
T2
X5.465Y-2.03
X5.465Y-2.13
X5.465Y-2.23
X5.465Y-2.33
X5.465Y-3.38
X5.465Y-3.48
X5.465Y-3.58
X5.465Y-3.68
X5.465Y-3.78
X5.465Y-3.88
X5.465Y-3.98
X5.465Y-4.08
X5.465Y-4.18
X5.465Y-4.28
X5.765Y-2.03
X5.765Y-2.13
X5.765Y-2.23
X5.765Y-2.33
X5.765Y-3.38
X5.765Y-3.48
X5.765Y-3.58
X5.765Y-3.68
X5.765Y-3.78
X5.765Y-3.88
X5.765Y-3.98
X5.765Y-4.08
X5.765Y-4.18
X5.765Y-4.28
X6.2323Y-3.059
X6.2323Y-3.159
X6.2323Y-3.259
X6.2323Y-3.359
X6.2323Y-3.459
X6.2323Y-3.559
X6.2323Y-3.659
X6.2323Y-3.759
X6.2323Y-3.859
X6.2323Y-3.959
X6.2357Y-1.9752
X6.2357Y-2.0752
X6.2357Y-2.1752
X6.2357Y-2.2752
X6.2357Y-2.3752
X6.2357Y-2.4752
X6.2357Y-2.5752
X6.2357Y-2.6752
X6.2357Y-2.7752
X6.2357Y-2.8752
X6.5323Y-3.059
X6.5323Y-3.159
X6.5323Y-3.259
X6.5323Y-3.359
X6.5323Y-3.459
X6.5323Y-3.559
X6.5323Y-3.659
X6.5323Y-3.759
X6.5323Y-3.859
X6.5323Y-3.959
X6.5357Y-1.9752
X6.5357Y-2.0752
X6.5357Y-2.1752
X6.5357Y-2.2752
X6.5357Y-2.3752
X6.5357Y-2.4752
X6.5357Y-2.5752
X6.5357Y-2.6752
X6.5357Y-2.7752
X6.5357Y-2.8752
T3
X5.47Y-2.52
X5.47Y-2.62
X5.47Y-2.72
X5.47Y-2.82
X5.47Y-2.92
X5.47Y-3.02
X5.47Y-3.12
X5.47Y-3.22
X5.57Y-2.52
X5.57Y-2.62
X5.57Y-2.72
X5.57Y-2.82
X5.57Y-2.92
X5.57Y-3.02
X5.57Y-3.12
X5.57Y-3.22
X5.93Y-1.975
X5.93Y-2.075
X5.93Y-2.175
X5.93Y-2.275
X5.93Y-2.375
X5.93Y-2.475
X5.93Y-2.575
X5.93Y-2.675
X5.93Y-2.775
X5.93Y-2.875
X5.93Y-2.975
X5.93Y-3.075
X5.93Y-3.175
X5.93Y-3.275
X5.93Y-3.375
X5.93Y-3.475
X5.93Y-3.575
X5.93Y-3.675
X5.93Y-3.775
X5.93Y-3.875
X5.93Y-3.975
X5.93Y-4.075
X5.93Y-4.175
X5.93Y-4.275
X6.0853Y-1.9748
X6.0853Y-2.0748
X6.0853Y-2.1748
X6.0853Y-2.2748
X6.0853Y-2.3748
X6.0853Y-2.4748
X6.0853Y-2.5748
X6.0853Y-2.6748
X6.0853Y-2.7748
X6.0853Y-2.8748
X6.0853Y-2.9748
X6.0853Y-3.0748
X6.0853Y-3.1748
X6.0853Y-3.2748
X6.0853Y-3.3748
X6.0853Y-3.4748
X6.0853Y-3.5748
X6.0853Y-3.6748
X6.0853Y-3.7748
X6.0853Y-3.8748
X6.6853Y-1.9748
X6.6853Y-2.0748
X6.6853Y-2.1748
X6.6853Y-2.2748
X6.6853Y-2.3748
X6.6853Y-2.4748
X6.6853Y-2.5748
X6.6853Y-2.6748
X6.6853Y-2.7748
X6.6853Y-2.8748
X6.6853Y-2.9748
X6.6853Y-3.0748
X6.6853Y-3.1748
X6.6853Y-3.2748
X6.6853Y-3.3748
X6.6853Y-3.4748
X6.6853Y-3.5748
X6.6853Y-3.6748
X6.6853Y-3.7748
X6.6853Y-3.8748
X6.8283Y-1.975
X6.8283Y-2.075
X6.8283Y-2.175
X6.8283Y-2.275
X6.8283Y-2.375
X6.8283Y-2.475
X6.8283Y-2.575
X6.8283Y-2.675
X6.8283Y-2.775
X6.8283Y-2.875
X6.8283Y-2.975
X6.8283Y-3.075
X6.8283Y-3.175
X6.8283Y-3.275
X6.8283Y-3.375
X6.8283Y-3.475
X6.8283Y-3.575
X6.8283Y-3.675
X6.8283Y-3.775
X6.8283Y-3.875
X6.8283Y-3.975
X6.8283Y-4.075
X6.8283Y-4.175
X6.8283Y-4.275
T4
X6.16Y-4.12
X6.56Y-4.12
T0
M30
