M48
; DRILL file {KiCad 7.0.1} date Tue May  2 10:19:53 2023
; FORMAT={-:-/ absolute / inch / decimal}
; #@! TF.CreationDate,2023-05-02T10:19:53-07:00
; #@! TF.GenerationSoftware,Kicad,Pcbnew,7.0.1
; #@! TF.FileFunction,Plated,1,2,PTH
FMAT,2
INCH
; #@! TA.AperFunction,Plated,PTH,ViaDrill
T1C0.0157
; #@! TA.AperFunction,Plated,PTH,ViaDrill
T2C0.0236
; #@! TA.AperFunction,Plated,PTH,ComponentDrill
T3C0.0315
; #@! TA.AperFunction,Plated,PTH,ComponentDrill
T4C0.0394
%
G90
G05
T1
X5.5167Y-2.6667
X5.6332Y-3.1894
X5.6347Y-4.2968
X5.6476Y-3.6833
X5.6479Y-3.149
X5.666Y-2.5635
X5.6946Y-2.8449
X5.7123Y-2.7008
X5.8712Y-3.233
X5.8909Y-3.3271
X6.005Y-2.9395
X6.0209Y-2.8538
X6.0252Y-3.6245
X6.168Y-3.2042
X6.3354Y-3.5969
X6.3372Y-3.9121
X6.3554Y-2.4242
X6.3751Y-3.3704
X6.4307Y-4.3419
X6.4314Y-3.2516
X6.6263Y-2.6885
X6.7506Y-3.4285
X6.7723Y-4.2402
X6.8689Y-3.3191
X6.9209Y-2.6908
T2
X5.6717Y-3.5535
X6.453Y-2.9929
X6.465Y-3.2937
T3
X5.465Y-2.03
X5.465Y-2.13
X5.465Y-2.23
X5.465Y-2.33
X5.465Y-3.38
X5.465Y-3.48
X5.465Y-3.58
X5.465Y-3.68
X5.465Y-3.78
X5.465Y-3.88
X5.465Y-3.98
X5.465Y-4.08
X5.465Y-4.18
X5.465Y-4.28
X5.765Y-2.03
X5.765Y-2.13
X5.765Y-2.23
X5.765Y-2.33
X5.765Y-3.38
X5.765Y-3.48
X5.765Y-3.58
X5.765Y-3.68
X5.765Y-3.78
X5.765Y-3.88
X5.765Y-3.98
X5.765Y-4.08
X5.765Y-4.18
X5.765Y-4.28
X6.2323Y-3.059
X6.2323Y-3.159
X6.2323Y-3.259
X6.2323Y-3.359
X6.2323Y-3.459
X6.2323Y-3.559
X6.2323Y-3.659
X6.2323Y-3.759
X6.2323Y-3.859
X6.2323Y-3.959
X6.2357Y-1.9752
X6.2357Y-2.0752
X6.2357Y-2.1752
X6.2357Y-2.2752
X6.2357Y-2.3752
X6.2357Y-2.4752
X6.2357Y-2.5752
X6.2357Y-2.6752
X6.2357Y-2.7752
X6.2357Y-2.8752
X6.5323Y-3.059
X6.5323Y-3.159
X6.5323Y-3.259
X6.5323Y-3.359
X6.5323Y-3.459
X6.5323Y-3.559
X6.5323Y-3.659
X6.5323Y-3.759
X6.5323Y-3.859
X6.5323Y-3.959
X6.5357Y-1.9752
X6.5357Y-2.0752
X6.5357Y-2.1752
X6.5357Y-2.2752
X6.5357Y-2.3752
X6.5357Y-2.4752
X6.5357Y-2.5752
X6.5357Y-2.6752
X6.5357Y-2.7752
X6.5357Y-2.8752
T4
X5.47Y-2.52
X5.47Y-2.62
X5.47Y-2.72
X5.47Y-2.82
X5.47Y-2.92
X5.47Y-3.02
X5.47Y-3.12
X5.47Y-3.22
X5.57Y-2.52
X5.57Y-2.62
X5.57Y-2.72
X5.57Y-2.82
X5.57Y-2.92
X5.57Y-3.02
X5.57Y-3.12
X5.57Y-3.22
X5.93Y-1.975
X5.93Y-2.075
X5.93Y-2.175
X5.93Y-2.275
X5.93Y-2.375
X5.93Y-2.475
X5.93Y-2.575
X5.93Y-2.675
X5.93Y-2.775
X5.93Y-2.875
X5.93Y-2.975
X5.93Y-3.075
X5.93Y-3.175
X5.93Y-3.275
X5.93Y-3.375
X5.93Y-3.475
X5.93Y-3.575
X5.93Y-3.675
X5.93Y-3.775
X5.93Y-3.875
X5.93Y-3.975
X5.93Y-4.075
X5.93Y-4.175
X5.93Y-4.275
X6.0853Y-1.9748
X6.0853Y-2.0748
X6.0853Y-2.1748
X6.0853Y-2.2748
X6.0853Y-2.3748
X6.0853Y-2.4748
X6.0853Y-2.5748
X6.0853Y-2.6748
X6.0853Y-2.7748
X6.0853Y-2.8748
X6.0853Y-2.9748
X6.0853Y-3.0748
X6.0853Y-3.1748
X6.0853Y-3.2748
X6.0853Y-3.3748
X6.0853Y-3.4748
X6.0853Y-3.5748
X6.0853Y-3.6748
X6.0853Y-3.7748
X6.0853Y-3.8748
X6.6853Y-1.9748
X6.6853Y-2.0748
X6.6853Y-2.1748
X6.6853Y-2.2748
X6.6853Y-2.3748
X6.6853Y-2.4748
X6.6853Y-2.5748
X6.6853Y-2.6748
X6.6853Y-2.7748
X6.6853Y-2.8748
X6.6853Y-2.9748
X6.6853Y-3.0748
X6.6853Y-3.1748
X6.6853Y-3.2748
X6.6853Y-3.3748
X6.6853Y-3.4748
X6.6853Y-3.5748
X6.6853Y-3.6748
X6.6853Y-3.7748
X6.6853Y-3.8748
X6.8283Y-1.975
X6.8283Y-2.075
X6.8283Y-2.175
X6.8283Y-2.275
X6.8283Y-2.375
X6.8283Y-2.475
X6.8283Y-2.575
X6.8283Y-2.675
X6.8283Y-2.775
X6.8283Y-2.875
X6.8283Y-2.975
X6.8283Y-3.075
X6.8283Y-3.175
X6.8283Y-3.275
X6.8283Y-3.375
X6.8283Y-3.475
X6.8283Y-3.575
X6.8283Y-3.675
X6.8283Y-3.775
X6.8283Y-3.875
X6.8283Y-3.975
X6.8283Y-4.075
X6.8283Y-4.175
X6.8283Y-4.275
T0
M30
