%TF.GenerationSoftware,KiCad,Pcbnew,7.0.1*%
%TF.CreationDate,2023-05-02T12:06:23-07:00*%
%TF.ProjectId,tn9k_f18_fat,746e396b-5f66-4313-985f-6661742e6b69,rev?*%
%TF.SameCoordinates,Original*%
%TF.FileFunction,Legend,Top*%
%TF.FilePolarity,Positive*%
%FSLAX46Y46*%
G04 Gerber Fmt 4.6, Leading zero omitted, Abs format (unit mm)*
G04 Created by KiCad (PCBNEW 7.0.1) date 2023-05-02 12:06:23*
%MOMM*%
%LPD*%
G01*
G04 APERTURE LIST*
%ADD10C,0.150000*%
%ADD11C,0.250000*%
%ADD12C,0.125000*%
%ADD13C,0.187500*%
%ADD14C,0.120000*%
G04 APERTURE END LIST*
D10*
X163387262Y-100330000D02*
G75*
G03*
X161097738Y-100330000I-1144762J0D01*
G01*
X171450000Y-48260000D02*
X171450000Y-100330000D01*
X153035000Y-48260000D02*
X171450000Y-48260000D01*
X153035000Y-100330000D02*
X171450000Y-100330000D01*
X153035000Y-48260000D02*
X153035000Y-100330000D01*
D11*
X146760380Y-68461904D02*
X146760380Y-69033332D01*
X145760380Y-68747618D02*
X146760380Y-68747618D01*
X145760380Y-69366666D02*
X146760380Y-69366666D01*
X146760380Y-69366666D02*
X145760380Y-69938094D01*
X145760380Y-69938094D02*
X146760380Y-69938094D01*
X145760380Y-70461904D02*
X145760380Y-70652380D01*
X145760380Y-70652380D02*
X145808000Y-70747618D01*
X145808000Y-70747618D02*
X145855619Y-70795237D01*
X145855619Y-70795237D02*
X145998476Y-70890475D01*
X145998476Y-70890475D02*
X146188952Y-70938094D01*
X146188952Y-70938094D02*
X146569904Y-70938094D01*
X146569904Y-70938094D02*
X146665142Y-70890475D01*
X146665142Y-70890475D02*
X146712761Y-70842856D01*
X146712761Y-70842856D02*
X146760380Y-70747618D01*
X146760380Y-70747618D02*
X146760380Y-70557142D01*
X146760380Y-70557142D02*
X146712761Y-70461904D01*
X146712761Y-70461904D02*
X146665142Y-70414285D01*
X146665142Y-70414285D02*
X146569904Y-70366666D01*
X146569904Y-70366666D02*
X146331809Y-70366666D01*
X146331809Y-70366666D02*
X146236571Y-70414285D01*
X146236571Y-70414285D02*
X146188952Y-70461904D01*
X146188952Y-70461904D02*
X146141333Y-70557142D01*
X146141333Y-70557142D02*
X146141333Y-70747618D01*
X146141333Y-70747618D02*
X146188952Y-70842856D01*
X146188952Y-70842856D02*
X146236571Y-70890475D01*
X146236571Y-70890475D02*
X146331809Y-70938094D01*
X145760380Y-71366666D02*
X146760380Y-71366666D01*
X145760380Y-71938094D02*
X146331809Y-71509523D01*
X146760380Y-71938094D02*
X146188952Y-71366666D01*
X146141333Y-72366666D02*
X146141333Y-73128571D01*
X146284190Y-73938094D02*
X146284190Y-73604761D01*
X145760380Y-73604761D02*
X146760380Y-73604761D01*
X146760380Y-73604761D02*
X146760380Y-74080951D01*
X145760380Y-74985713D02*
X145760380Y-74414285D01*
X145760380Y-74699999D02*
X146760380Y-74699999D01*
X146760380Y-74699999D02*
X146617523Y-74604761D01*
X146617523Y-74604761D02*
X146522285Y-74509523D01*
X146522285Y-74509523D02*
X146474666Y-74414285D01*
X145760380Y-75938094D02*
X145760380Y-75366666D01*
X145760380Y-75652380D02*
X146760380Y-75652380D01*
X146760380Y-75652380D02*
X146617523Y-75557142D01*
X146617523Y-75557142D02*
X146522285Y-75461904D01*
X146522285Y-75461904D02*
X146474666Y-75366666D01*
X146331809Y-76509523D02*
X146379428Y-76414285D01*
X146379428Y-76414285D02*
X146427047Y-76366666D01*
X146427047Y-76366666D02*
X146522285Y-76319047D01*
X146522285Y-76319047D02*
X146569904Y-76319047D01*
X146569904Y-76319047D02*
X146665142Y-76366666D01*
X146665142Y-76366666D02*
X146712761Y-76414285D01*
X146712761Y-76414285D02*
X146760380Y-76509523D01*
X146760380Y-76509523D02*
X146760380Y-76699999D01*
X146760380Y-76699999D02*
X146712761Y-76795237D01*
X146712761Y-76795237D02*
X146665142Y-76842856D01*
X146665142Y-76842856D02*
X146569904Y-76890475D01*
X146569904Y-76890475D02*
X146522285Y-76890475D01*
X146522285Y-76890475D02*
X146427047Y-76842856D01*
X146427047Y-76842856D02*
X146379428Y-76795237D01*
X146379428Y-76795237D02*
X146331809Y-76699999D01*
X146331809Y-76699999D02*
X146331809Y-76509523D01*
X146331809Y-76509523D02*
X146284190Y-76414285D01*
X146284190Y-76414285D02*
X146236571Y-76366666D01*
X146236571Y-76366666D02*
X146141333Y-76319047D01*
X146141333Y-76319047D02*
X145950857Y-76319047D01*
X145950857Y-76319047D02*
X145855619Y-76366666D01*
X145855619Y-76366666D02*
X145808000Y-76414285D01*
X145808000Y-76414285D02*
X145760380Y-76509523D01*
X145760380Y-76509523D02*
X145760380Y-76699999D01*
X145760380Y-76699999D02*
X145808000Y-76795237D01*
X145808000Y-76795237D02*
X145855619Y-76842856D01*
X145855619Y-76842856D02*
X145950857Y-76890475D01*
X145950857Y-76890475D02*
X146141333Y-76890475D01*
X146141333Y-76890475D02*
X146236571Y-76842856D01*
X146236571Y-76842856D02*
X146284190Y-76795237D01*
X146284190Y-76795237D02*
X146331809Y-76699999D01*
X146046095Y-77271428D02*
X146046095Y-77747618D01*
X145760380Y-77176190D02*
X146760380Y-77509523D01*
X146760380Y-77509523D02*
X145760380Y-77842856D01*
X146284190Y-79271428D02*
X146284190Y-78938095D01*
X145760380Y-78938095D02*
X146760380Y-78938095D01*
X146760380Y-78938095D02*
X146760380Y-79414285D01*
X146046095Y-79747619D02*
X146046095Y-80223809D01*
X145760380Y-79652381D02*
X146760380Y-79985714D01*
X146760380Y-79985714D02*
X145760380Y-80319047D01*
X146760380Y-80509524D02*
X146760380Y-81080952D01*
X145760380Y-80795238D02*
X146760380Y-80795238D01*
X146141333Y-81414286D02*
X146141333Y-82176191D01*
X146046095Y-82604762D02*
X146046095Y-83080952D01*
X145760380Y-82509524D02*
X146760380Y-82842857D01*
X146760380Y-82842857D02*
X145760380Y-83176190D01*
X145140380Y-70366667D02*
X145140380Y-70938095D01*
X144140380Y-70652381D02*
X145140380Y-70652381D01*
X144140380Y-71271429D02*
X145140380Y-71271429D01*
X144140380Y-71795238D02*
X144140380Y-71985714D01*
X144140380Y-71985714D02*
X144188000Y-72080952D01*
X144188000Y-72080952D02*
X144235619Y-72128571D01*
X144235619Y-72128571D02*
X144378476Y-72223809D01*
X144378476Y-72223809D02*
X144568952Y-72271428D01*
X144568952Y-72271428D02*
X144949904Y-72271428D01*
X144949904Y-72271428D02*
X145045142Y-72223809D01*
X145045142Y-72223809D02*
X145092761Y-72176190D01*
X145092761Y-72176190D02*
X145140380Y-72080952D01*
X145140380Y-72080952D02*
X145140380Y-71890476D01*
X145140380Y-71890476D02*
X145092761Y-71795238D01*
X145092761Y-71795238D02*
X145045142Y-71747619D01*
X145045142Y-71747619D02*
X144949904Y-71700000D01*
X144949904Y-71700000D02*
X144711809Y-71700000D01*
X144711809Y-71700000D02*
X144616571Y-71747619D01*
X144616571Y-71747619D02*
X144568952Y-71795238D01*
X144568952Y-71795238D02*
X144521333Y-71890476D01*
X144521333Y-71890476D02*
X144521333Y-72080952D01*
X144521333Y-72080952D02*
X144568952Y-72176190D01*
X144568952Y-72176190D02*
X144616571Y-72223809D01*
X144616571Y-72223809D02*
X144711809Y-72271428D01*
X144140380Y-72747619D02*
X144140380Y-72938095D01*
X144140380Y-72938095D02*
X144188000Y-73033333D01*
X144188000Y-73033333D02*
X144235619Y-73080952D01*
X144235619Y-73080952D02*
X144378476Y-73176190D01*
X144378476Y-73176190D02*
X144568952Y-73223809D01*
X144568952Y-73223809D02*
X144949904Y-73223809D01*
X144949904Y-73223809D02*
X145045142Y-73176190D01*
X145045142Y-73176190D02*
X145092761Y-73128571D01*
X145092761Y-73128571D02*
X145140380Y-73033333D01*
X145140380Y-73033333D02*
X145140380Y-72842857D01*
X145140380Y-72842857D02*
X145092761Y-72747619D01*
X145092761Y-72747619D02*
X145045142Y-72700000D01*
X145045142Y-72700000D02*
X144949904Y-72652381D01*
X144949904Y-72652381D02*
X144711809Y-72652381D01*
X144711809Y-72652381D02*
X144616571Y-72700000D01*
X144616571Y-72700000D02*
X144568952Y-72747619D01*
X144568952Y-72747619D02*
X144521333Y-72842857D01*
X144521333Y-72842857D02*
X144521333Y-73033333D01*
X144521333Y-73033333D02*
X144568952Y-73128571D01*
X144568952Y-73128571D02*
X144616571Y-73176190D01*
X144616571Y-73176190D02*
X144711809Y-73223809D01*
X145188000Y-74366666D02*
X143902285Y-73509524D01*
X144807047Y-75128571D02*
X144140380Y-75128571D01*
X145188000Y-74890476D02*
X144473714Y-74652381D01*
X144473714Y-74652381D02*
X144473714Y-75271428D01*
X144426095Y-75604762D02*
X144426095Y-76080952D01*
X144140380Y-75509524D02*
X145140380Y-75842857D01*
X145140380Y-75842857D02*
X144140380Y-76176190D01*
X144235619Y-77842857D02*
X144188000Y-77795238D01*
X144188000Y-77795238D02*
X144140380Y-77652381D01*
X144140380Y-77652381D02*
X144140380Y-77557143D01*
X144140380Y-77557143D02*
X144188000Y-77414286D01*
X144188000Y-77414286D02*
X144283238Y-77319048D01*
X144283238Y-77319048D02*
X144378476Y-77271429D01*
X144378476Y-77271429D02*
X144568952Y-77223810D01*
X144568952Y-77223810D02*
X144711809Y-77223810D01*
X144711809Y-77223810D02*
X144902285Y-77271429D01*
X144902285Y-77271429D02*
X144997523Y-77319048D01*
X144997523Y-77319048D02*
X145092761Y-77414286D01*
X145092761Y-77414286D02*
X145140380Y-77557143D01*
X145140380Y-77557143D02*
X145140380Y-77652381D01*
X145140380Y-77652381D02*
X145092761Y-77795238D01*
X145092761Y-77795238D02*
X145045142Y-77842857D01*
X145140380Y-78176191D02*
X144140380Y-78842857D01*
X145140380Y-78842857D02*
X144140380Y-78176191D01*
X145140380Y-79700000D02*
X145140380Y-79223810D01*
X145140380Y-79223810D02*
X144664190Y-79176191D01*
X144664190Y-79176191D02*
X144711809Y-79223810D01*
X144711809Y-79223810D02*
X144759428Y-79319048D01*
X144759428Y-79319048D02*
X144759428Y-79557143D01*
X144759428Y-79557143D02*
X144711809Y-79652381D01*
X144711809Y-79652381D02*
X144664190Y-79700000D01*
X144664190Y-79700000D02*
X144568952Y-79747619D01*
X144568952Y-79747619D02*
X144330857Y-79747619D01*
X144330857Y-79747619D02*
X144235619Y-79700000D01*
X144235619Y-79700000D02*
X144188000Y-79652381D01*
X144188000Y-79652381D02*
X144140380Y-79557143D01*
X144140380Y-79557143D02*
X144140380Y-79319048D01*
X144140380Y-79319048D02*
X144188000Y-79223810D01*
X144188000Y-79223810D02*
X144235619Y-79176191D01*
X144140380Y-80176191D02*
X145140380Y-80176191D01*
X145140380Y-80176191D02*
X144426095Y-80509524D01*
X144426095Y-80509524D02*
X145140380Y-80842857D01*
X145140380Y-80842857D02*
X144140380Y-80842857D01*
X145140380Y-81319048D02*
X144330857Y-81319048D01*
X144330857Y-81319048D02*
X144235619Y-81366667D01*
X144235619Y-81366667D02*
X144188000Y-81414286D01*
X144188000Y-81414286D02*
X144140380Y-81509524D01*
X144140380Y-81509524D02*
X144140380Y-81700000D01*
X144140380Y-81700000D02*
X144188000Y-81795238D01*
X144188000Y-81795238D02*
X144235619Y-81842857D01*
X144235619Y-81842857D02*
X144330857Y-81890476D01*
X144330857Y-81890476D02*
X145140380Y-81890476D01*
X153805904Y-103683619D02*
X154377332Y-103683619D01*
X154091618Y-104683619D02*
X154091618Y-103683619D01*
X154710666Y-104683619D02*
X154710666Y-103683619D01*
X154710666Y-103683619D02*
X155282094Y-104683619D01*
X155282094Y-104683619D02*
X155282094Y-103683619D01*
X155805904Y-104683619D02*
X155996380Y-104683619D01*
X155996380Y-104683619D02*
X156091618Y-104636000D01*
X156091618Y-104636000D02*
X156139237Y-104588380D01*
X156139237Y-104588380D02*
X156234475Y-104445523D01*
X156234475Y-104445523D02*
X156282094Y-104255047D01*
X156282094Y-104255047D02*
X156282094Y-103874095D01*
X156282094Y-103874095D02*
X156234475Y-103778857D01*
X156234475Y-103778857D02*
X156186856Y-103731238D01*
X156186856Y-103731238D02*
X156091618Y-103683619D01*
X156091618Y-103683619D02*
X155901142Y-103683619D01*
X155901142Y-103683619D02*
X155805904Y-103731238D01*
X155805904Y-103731238D02*
X155758285Y-103778857D01*
X155758285Y-103778857D02*
X155710666Y-103874095D01*
X155710666Y-103874095D02*
X155710666Y-104112190D01*
X155710666Y-104112190D02*
X155758285Y-104207428D01*
X155758285Y-104207428D02*
X155805904Y-104255047D01*
X155805904Y-104255047D02*
X155901142Y-104302666D01*
X155901142Y-104302666D02*
X156091618Y-104302666D01*
X156091618Y-104302666D02*
X156186856Y-104255047D01*
X156186856Y-104255047D02*
X156234475Y-104207428D01*
X156234475Y-104207428D02*
X156282094Y-104112190D01*
X156710666Y-104683619D02*
X156710666Y-103683619D01*
X157282094Y-104683619D02*
X156853523Y-104112190D01*
X157282094Y-103683619D02*
X156710666Y-104255047D01*
X157710666Y-104302666D02*
X158472571Y-104302666D01*
X159282094Y-104159809D02*
X158948761Y-104159809D01*
X158948761Y-104683619D02*
X158948761Y-103683619D01*
X158948761Y-103683619D02*
X159424951Y-103683619D01*
X160329713Y-104683619D02*
X159758285Y-104683619D01*
X160043999Y-104683619D02*
X160043999Y-103683619D01*
X160043999Y-103683619D02*
X159948761Y-103826476D01*
X159948761Y-103826476D02*
X159853523Y-103921714D01*
X159853523Y-103921714D02*
X159758285Y-103969333D01*
X161282094Y-104683619D02*
X160710666Y-104683619D01*
X160996380Y-104683619D02*
X160996380Y-103683619D01*
X160996380Y-103683619D02*
X160901142Y-103826476D01*
X160901142Y-103826476D02*
X160805904Y-103921714D01*
X160805904Y-103921714D02*
X160710666Y-103969333D01*
X161853523Y-104112190D02*
X161758285Y-104064571D01*
X161758285Y-104064571D02*
X161710666Y-104016952D01*
X161710666Y-104016952D02*
X161663047Y-103921714D01*
X161663047Y-103921714D02*
X161663047Y-103874095D01*
X161663047Y-103874095D02*
X161710666Y-103778857D01*
X161710666Y-103778857D02*
X161758285Y-103731238D01*
X161758285Y-103731238D02*
X161853523Y-103683619D01*
X161853523Y-103683619D02*
X162043999Y-103683619D01*
X162043999Y-103683619D02*
X162139237Y-103731238D01*
X162139237Y-103731238D02*
X162186856Y-103778857D01*
X162186856Y-103778857D02*
X162234475Y-103874095D01*
X162234475Y-103874095D02*
X162234475Y-103921714D01*
X162234475Y-103921714D02*
X162186856Y-104016952D01*
X162186856Y-104016952D02*
X162139237Y-104064571D01*
X162139237Y-104064571D02*
X162043999Y-104112190D01*
X162043999Y-104112190D02*
X161853523Y-104112190D01*
X161853523Y-104112190D02*
X161758285Y-104159809D01*
X161758285Y-104159809D02*
X161710666Y-104207428D01*
X161710666Y-104207428D02*
X161663047Y-104302666D01*
X161663047Y-104302666D02*
X161663047Y-104493142D01*
X161663047Y-104493142D02*
X161710666Y-104588380D01*
X161710666Y-104588380D02*
X161758285Y-104636000D01*
X161758285Y-104636000D02*
X161853523Y-104683619D01*
X161853523Y-104683619D02*
X162043999Y-104683619D01*
X162043999Y-104683619D02*
X162139237Y-104636000D01*
X162139237Y-104636000D02*
X162186856Y-104588380D01*
X162186856Y-104588380D02*
X162234475Y-104493142D01*
X162234475Y-104493142D02*
X162234475Y-104302666D01*
X162234475Y-104302666D02*
X162186856Y-104207428D01*
X162186856Y-104207428D02*
X162139237Y-104159809D01*
X162139237Y-104159809D02*
X162043999Y-104112190D01*
X162615428Y-104397904D02*
X163091618Y-104397904D01*
X162520190Y-104683619D02*
X162853523Y-103683619D01*
X162853523Y-103683619D02*
X163186856Y-104683619D01*
X164615428Y-104159809D02*
X164282095Y-104159809D01*
X164282095Y-104683619D02*
X164282095Y-103683619D01*
X164282095Y-103683619D02*
X164758285Y-103683619D01*
X165091619Y-104397904D02*
X165567809Y-104397904D01*
X164996381Y-104683619D02*
X165329714Y-103683619D01*
X165329714Y-103683619D02*
X165663047Y-104683619D01*
X165853524Y-103683619D02*
X166424952Y-103683619D01*
X166139238Y-104683619D02*
X166139238Y-103683619D01*
X166758286Y-104302666D02*
X167520191Y-104302666D01*
X167948762Y-104397904D02*
X168424952Y-104397904D01*
X167853524Y-104683619D02*
X168186857Y-103683619D01*
X168186857Y-103683619D02*
X168520190Y-104683619D01*
X155710667Y-105303619D02*
X156282095Y-105303619D01*
X155996381Y-106303619D02*
X155996381Y-105303619D01*
X156615429Y-106303619D02*
X156615429Y-105303619D01*
X157139238Y-106303619D02*
X157329714Y-106303619D01*
X157329714Y-106303619D02*
X157424952Y-106256000D01*
X157424952Y-106256000D02*
X157472571Y-106208380D01*
X157472571Y-106208380D02*
X157567809Y-106065523D01*
X157567809Y-106065523D02*
X157615428Y-105875047D01*
X157615428Y-105875047D02*
X157615428Y-105494095D01*
X157615428Y-105494095D02*
X157567809Y-105398857D01*
X157567809Y-105398857D02*
X157520190Y-105351238D01*
X157520190Y-105351238D02*
X157424952Y-105303619D01*
X157424952Y-105303619D02*
X157234476Y-105303619D01*
X157234476Y-105303619D02*
X157139238Y-105351238D01*
X157139238Y-105351238D02*
X157091619Y-105398857D01*
X157091619Y-105398857D02*
X157044000Y-105494095D01*
X157044000Y-105494095D02*
X157044000Y-105732190D01*
X157044000Y-105732190D02*
X157091619Y-105827428D01*
X157091619Y-105827428D02*
X157139238Y-105875047D01*
X157139238Y-105875047D02*
X157234476Y-105922666D01*
X157234476Y-105922666D02*
X157424952Y-105922666D01*
X157424952Y-105922666D02*
X157520190Y-105875047D01*
X157520190Y-105875047D02*
X157567809Y-105827428D01*
X157567809Y-105827428D02*
X157615428Y-105732190D01*
X158091619Y-106303619D02*
X158282095Y-106303619D01*
X158282095Y-106303619D02*
X158377333Y-106256000D01*
X158377333Y-106256000D02*
X158424952Y-106208380D01*
X158424952Y-106208380D02*
X158520190Y-106065523D01*
X158520190Y-106065523D02*
X158567809Y-105875047D01*
X158567809Y-105875047D02*
X158567809Y-105494095D01*
X158567809Y-105494095D02*
X158520190Y-105398857D01*
X158520190Y-105398857D02*
X158472571Y-105351238D01*
X158472571Y-105351238D02*
X158377333Y-105303619D01*
X158377333Y-105303619D02*
X158186857Y-105303619D01*
X158186857Y-105303619D02*
X158091619Y-105351238D01*
X158091619Y-105351238D02*
X158044000Y-105398857D01*
X158044000Y-105398857D02*
X157996381Y-105494095D01*
X157996381Y-105494095D02*
X157996381Y-105732190D01*
X157996381Y-105732190D02*
X158044000Y-105827428D01*
X158044000Y-105827428D02*
X158091619Y-105875047D01*
X158091619Y-105875047D02*
X158186857Y-105922666D01*
X158186857Y-105922666D02*
X158377333Y-105922666D01*
X158377333Y-105922666D02*
X158472571Y-105875047D01*
X158472571Y-105875047D02*
X158520190Y-105827428D01*
X158520190Y-105827428D02*
X158567809Y-105732190D01*
X159710666Y-105256000D02*
X158853524Y-106541714D01*
X160472571Y-105636952D02*
X160472571Y-106303619D01*
X160234476Y-105256000D02*
X159996381Y-105970285D01*
X159996381Y-105970285D02*
X160615428Y-105970285D01*
X160948762Y-106017904D02*
X161424952Y-106017904D01*
X160853524Y-106303619D02*
X161186857Y-105303619D01*
X161186857Y-105303619D02*
X161520190Y-106303619D01*
X163186857Y-106208380D02*
X163139238Y-106256000D01*
X163139238Y-106256000D02*
X162996381Y-106303619D01*
X162996381Y-106303619D02*
X162901143Y-106303619D01*
X162901143Y-106303619D02*
X162758286Y-106256000D01*
X162758286Y-106256000D02*
X162663048Y-106160761D01*
X162663048Y-106160761D02*
X162615429Y-106065523D01*
X162615429Y-106065523D02*
X162567810Y-105875047D01*
X162567810Y-105875047D02*
X162567810Y-105732190D01*
X162567810Y-105732190D02*
X162615429Y-105541714D01*
X162615429Y-105541714D02*
X162663048Y-105446476D01*
X162663048Y-105446476D02*
X162758286Y-105351238D01*
X162758286Y-105351238D02*
X162901143Y-105303619D01*
X162901143Y-105303619D02*
X162996381Y-105303619D01*
X162996381Y-105303619D02*
X163139238Y-105351238D01*
X163139238Y-105351238D02*
X163186857Y-105398857D01*
X163520191Y-105303619D02*
X164186857Y-106303619D01*
X164186857Y-105303619D02*
X163520191Y-106303619D01*
X165044000Y-105303619D02*
X164567810Y-105303619D01*
X164567810Y-105303619D02*
X164520191Y-105779809D01*
X164520191Y-105779809D02*
X164567810Y-105732190D01*
X164567810Y-105732190D02*
X164663048Y-105684571D01*
X164663048Y-105684571D02*
X164901143Y-105684571D01*
X164901143Y-105684571D02*
X164996381Y-105732190D01*
X164996381Y-105732190D02*
X165044000Y-105779809D01*
X165044000Y-105779809D02*
X165091619Y-105875047D01*
X165091619Y-105875047D02*
X165091619Y-106113142D01*
X165091619Y-106113142D02*
X165044000Y-106208380D01*
X165044000Y-106208380D02*
X164996381Y-106256000D01*
X164996381Y-106256000D02*
X164901143Y-106303619D01*
X164901143Y-106303619D02*
X164663048Y-106303619D01*
X164663048Y-106303619D02*
X164567810Y-106256000D01*
X164567810Y-106256000D02*
X164520191Y-106208380D01*
X165520191Y-106303619D02*
X165520191Y-105303619D01*
X165520191Y-105303619D02*
X165853524Y-106017904D01*
X165853524Y-106017904D02*
X166186857Y-105303619D01*
X166186857Y-105303619D02*
X166186857Y-106303619D01*
X166663048Y-105303619D02*
X166663048Y-106113142D01*
X166663048Y-106113142D02*
X166710667Y-106208380D01*
X166710667Y-106208380D02*
X166758286Y-106256000D01*
X166758286Y-106256000D02*
X166853524Y-106303619D01*
X166853524Y-106303619D02*
X167044000Y-106303619D01*
X167044000Y-106303619D02*
X167139238Y-106256000D01*
X167139238Y-106256000D02*
X167186857Y-106208380D01*
X167186857Y-106208380D02*
X167234476Y-106113142D01*
X167234476Y-106113142D02*
X167234476Y-105303619D01*
D12*
X169618809Y-105108380D02*
X169618809Y-104822666D01*
X170118809Y-104965523D02*
X169618809Y-104965523D01*
X170118809Y-104656000D02*
X169618809Y-104656000D01*
X169618809Y-104656000D02*
X169975952Y-104489333D01*
X169975952Y-104489333D02*
X169618809Y-104322667D01*
X169618809Y-104322667D02*
X170118809Y-104322667D01*
X170095000Y-104108380D02*
X170118809Y-104036952D01*
X170118809Y-104036952D02*
X170118809Y-103917904D01*
X170118809Y-103917904D02*
X170095000Y-103870285D01*
X170095000Y-103870285D02*
X170071190Y-103846476D01*
X170071190Y-103846476D02*
X170023571Y-103822666D01*
X170023571Y-103822666D02*
X169975952Y-103822666D01*
X169975952Y-103822666D02*
X169928333Y-103846476D01*
X169928333Y-103846476D02*
X169904523Y-103870285D01*
X169904523Y-103870285D02*
X169880714Y-103917904D01*
X169880714Y-103917904D02*
X169856904Y-104013142D01*
X169856904Y-104013142D02*
X169833095Y-104060761D01*
X169833095Y-104060761D02*
X169809285Y-104084571D01*
X169809285Y-104084571D02*
X169761666Y-104108380D01*
X169761666Y-104108380D02*
X169714047Y-104108380D01*
X169714047Y-104108380D02*
X169666428Y-104084571D01*
X169666428Y-104084571D02*
X169642619Y-104060761D01*
X169642619Y-104060761D02*
X169618809Y-104013142D01*
X169618809Y-104013142D02*
X169618809Y-103894095D01*
X169618809Y-103894095D02*
X169642619Y-103822666D01*
X170118809Y-103227429D02*
X169618809Y-103227429D01*
X169618809Y-103227429D02*
X169618809Y-103036953D01*
X169618809Y-103036953D02*
X169642619Y-102989334D01*
X169642619Y-102989334D02*
X169666428Y-102965524D01*
X169666428Y-102965524D02*
X169714047Y-102941715D01*
X169714047Y-102941715D02*
X169785476Y-102941715D01*
X169785476Y-102941715D02*
X169833095Y-102965524D01*
X169833095Y-102965524D02*
X169856904Y-102989334D01*
X169856904Y-102989334D02*
X169880714Y-103036953D01*
X169880714Y-103036953D02*
X169880714Y-103227429D01*
X170118809Y-102727429D02*
X169618809Y-102727429D01*
X170118809Y-102489334D02*
X169618809Y-102489334D01*
X169618809Y-102489334D02*
X170118809Y-102203620D01*
X170118809Y-102203620D02*
X169618809Y-102203620D01*
X170118809Y-101322667D02*
X170118809Y-101608381D01*
X170118809Y-101465524D02*
X169618809Y-101465524D01*
X169618809Y-101465524D02*
X169690238Y-101513143D01*
X169690238Y-101513143D02*
X169737857Y-101560762D01*
X169737857Y-101560762D02*
X169761666Y-101608381D01*
D11*
X161234419Y-65643142D02*
X161234419Y-64976476D01*
X161234419Y-64976476D02*
X162234419Y-65405047D01*
X161567752Y-64166952D02*
X162234419Y-64166952D01*
X161186800Y-64405047D02*
X161901085Y-64643142D01*
X161901085Y-64643142D02*
X161901085Y-64024095D01*
X162234419Y-63166952D02*
X162234419Y-63643142D01*
X162234419Y-63643142D02*
X161234419Y-63643142D01*
X161234419Y-62976475D02*
X162234419Y-62643142D01*
X162234419Y-62643142D02*
X161234419Y-62309809D01*
X162139180Y-61405047D02*
X162186800Y-61452666D01*
X162186800Y-61452666D02*
X162234419Y-61595523D01*
X162234419Y-61595523D02*
X162234419Y-61690761D01*
X162234419Y-61690761D02*
X162186800Y-61833618D01*
X162186800Y-61833618D02*
X162091561Y-61928856D01*
X162091561Y-61928856D02*
X161996323Y-61976475D01*
X161996323Y-61976475D02*
X161805847Y-62024094D01*
X161805847Y-62024094D02*
X161662990Y-62024094D01*
X161662990Y-62024094D02*
X161472514Y-61976475D01*
X161472514Y-61976475D02*
X161377276Y-61928856D01*
X161377276Y-61928856D02*
X161282038Y-61833618D01*
X161282038Y-61833618D02*
X161234419Y-61690761D01*
X161234419Y-61690761D02*
X161234419Y-61595523D01*
X161234419Y-61595523D02*
X161282038Y-61452666D01*
X161282038Y-61452666D02*
X161329657Y-61405047D01*
X161329657Y-61024094D02*
X161282038Y-60976475D01*
X161282038Y-60976475D02*
X161234419Y-60881237D01*
X161234419Y-60881237D02*
X161234419Y-60643142D01*
X161234419Y-60643142D02*
X161282038Y-60547904D01*
X161282038Y-60547904D02*
X161329657Y-60500285D01*
X161329657Y-60500285D02*
X161424895Y-60452666D01*
X161424895Y-60452666D02*
X161520133Y-60452666D01*
X161520133Y-60452666D02*
X161662990Y-60500285D01*
X161662990Y-60500285D02*
X162234419Y-61071713D01*
X162234419Y-61071713D02*
X162234419Y-60452666D01*
X161567752Y-59595523D02*
X162234419Y-59595523D01*
X161186800Y-59833618D02*
X161901085Y-60071713D01*
X161901085Y-60071713D02*
X161901085Y-59452666D01*
X161234419Y-58595523D02*
X161234419Y-59071713D01*
X161234419Y-59071713D02*
X161710609Y-59119332D01*
X161710609Y-59119332D02*
X161662990Y-59071713D01*
X161662990Y-59071713D02*
X161615371Y-58976475D01*
X161615371Y-58976475D02*
X161615371Y-58738380D01*
X161615371Y-58738380D02*
X161662990Y-58643142D01*
X161662990Y-58643142D02*
X161710609Y-58595523D01*
X161710609Y-58595523D02*
X161805847Y-58547904D01*
X161805847Y-58547904D02*
X162043942Y-58547904D01*
X162043942Y-58547904D02*
X162139180Y-58595523D01*
X162139180Y-58595523D02*
X162186800Y-58643142D01*
X162186800Y-58643142D02*
X162234419Y-58738380D01*
X162234419Y-58738380D02*
X162234419Y-58976475D01*
X162234419Y-58976475D02*
X162186800Y-59071713D01*
X162186800Y-59071713D02*
X162139180Y-59119332D01*
X161386819Y-93456142D02*
X161386819Y-92789476D01*
X161386819Y-92789476D02*
X162386819Y-93218047D01*
X161720152Y-91979952D02*
X162386819Y-91979952D01*
X161339200Y-92218047D02*
X162053485Y-92456142D01*
X162053485Y-92456142D02*
X162053485Y-91837095D01*
X162386819Y-90979952D02*
X162386819Y-91456142D01*
X162386819Y-91456142D02*
X161386819Y-91456142D01*
X161386819Y-90789475D02*
X162386819Y-90456142D01*
X162386819Y-90456142D02*
X161386819Y-90122809D01*
X162291580Y-89218047D02*
X162339200Y-89265666D01*
X162339200Y-89265666D02*
X162386819Y-89408523D01*
X162386819Y-89408523D02*
X162386819Y-89503761D01*
X162386819Y-89503761D02*
X162339200Y-89646618D01*
X162339200Y-89646618D02*
X162243961Y-89741856D01*
X162243961Y-89741856D02*
X162148723Y-89789475D01*
X162148723Y-89789475D02*
X161958247Y-89837094D01*
X161958247Y-89837094D02*
X161815390Y-89837094D01*
X161815390Y-89837094D02*
X161624914Y-89789475D01*
X161624914Y-89789475D02*
X161529676Y-89741856D01*
X161529676Y-89741856D02*
X161434438Y-89646618D01*
X161434438Y-89646618D02*
X161386819Y-89503761D01*
X161386819Y-89503761D02*
X161386819Y-89408523D01*
X161386819Y-89408523D02*
X161434438Y-89265666D01*
X161434438Y-89265666D02*
X161482057Y-89218047D01*
X161482057Y-88837094D02*
X161434438Y-88789475D01*
X161434438Y-88789475D02*
X161386819Y-88694237D01*
X161386819Y-88694237D02*
X161386819Y-88456142D01*
X161386819Y-88456142D02*
X161434438Y-88360904D01*
X161434438Y-88360904D02*
X161482057Y-88313285D01*
X161482057Y-88313285D02*
X161577295Y-88265666D01*
X161577295Y-88265666D02*
X161672533Y-88265666D01*
X161672533Y-88265666D02*
X161815390Y-88313285D01*
X161815390Y-88313285D02*
X162386819Y-88884713D01*
X162386819Y-88884713D02*
X162386819Y-88265666D01*
X161720152Y-87408523D02*
X162386819Y-87408523D01*
X161339200Y-87646618D02*
X162053485Y-87884713D01*
X162053485Y-87884713D02*
X162053485Y-87265666D01*
X161386819Y-86408523D02*
X161386819Y-86884713D01*
X161386819Y-86884713D02*
X161863009Y-86932332D01*
X161863009Y-86932332D02*
X161815390Y-86884713D01*
X161815390Y-86884713D02*
X161767771Y-86789475D01*
X161767771Y-86789475D02*
X161767771Y-86551380D01*
X161767771Y-86551380D02*
X161815390Y-86456142D01*
X161815390Y-86456142D02*
X161863009Y-86408523D01*
X161863009Y-86408523D02*
X161958247Y-86360904D01*
X161958247Y-86360904D02*
X162196342Y-86360904D01*
X162196342Y-86360904D02*
X162291580Y-86408523D01*
X162291580Y-86408523D02*
X162339200Y-86456142D01*
X162339200Y-86456142D02*
X162386819Y-86551380D01*
X162386819Y-86551380D02*
X162386819Y-86789475D01*
X162386819Y-86789475D02*
X162339200Y-86884713D01*
X162339200Y-86884713D02*
X162291580Y-86932332D01*
D13*
X143319428Y-63573214D02*
X142890857Y-63573214D01*
X143105142Y-63573214D02*
X143105142Y-62823214D01*
X143105142Y-62823214D02*
X143033714Y-62930357D01*
X143033714Y-62930357D02*
X142962285Y-63001785D01*
X142962285Y-63001785D02*
X142890857Y-63037500D01*
X143640857Y-63501785D02*
X143676571Y-63537500D01*
X143676571Y-63537500D02*
X143640857Y-63573214D01*
X143640857Y-63573214D02*
X143605143Y-63537500D01*
X143605143Y-63537500D02*
X143640857Y-63501785D01*
X143640857Y-63501785D02*
X143640857Y-63573214D01*
X143640857Y-63108928D02*
X143676571Y-63144642D01*
X143676571Y-63144642D02*
X143640857Y-63180357D01*
X143640857Y-63180357D02*
X143605143Y-63144642D01*
X143605143Y-63144642D02*
X143640857Y-63108928D01*
X143640857Y-63108928D02*
X143640857Y-63180357D01*
X143998000Y-63573214D02*
X143998000Y-62823214D01*
X143998000Y-62823214D02*
X144248000Y-63358928D01*
X144248000Y-63358928D02*
X144498000Y-62823214D01*
X144498000Y-62823214D02*
X144498000Y-63573214D01*
X144819429Y-63358928D02*
X145176572Y-63358928D01*
X144748000Y-63573214D02*
X144998000Y-62823214D01*
X144998000Y-62823214D02*
X145248000Y-63573214D01*
X145426571Y-62823214D02*
X145926571Y-63573214D01*
X145926571Y-62823214D02*
X145426571Y-63573214D01*
X146748001Y-63537500D02*
X146855144Y-63573214D01*
X146855144Y-63573214D02*
X147033715Y-63573214D01*
X147033715Y-63573214D02*
X147105144Y-63537500D01*
X147105144Y-63537500D02*
X147140858Y-63501785D01*
X147140858Y-63501785D02*
X147176572Y-63430357D01*
X147176572Y-63430357D02*
X147176572Y-63358928D01*
X147176572Y-63358928D02*
X147140858Y-63287500D01*
X147140858Y-63287500D02*
X147105144Y-63251785D01*
X147105144Y-63251785D02*
X147033715Y-63216071D01*
X147033715Y-63216071D02*
X146890858Y-63180357D01*
X146890858Y-63180357D02*
X146819429Y-63144642D01*
X146819429Y-63144642D02*
X146783715Y-63108928D01*
X146783715Y-63108928D02*
X146748001Y-63037500D01*
X146748001Y-63037500D02*
X146748001Y-62966071D01*
X146748001Y-62966071D02*
X146783715Y-62894642D01*
X146783715Y-62894642D02*
X146819429Y-62858928D01*
X146819429Y-62858928D02*
X146890858Y-62823214D01*
X146890858Y-62823214D02*
X147069429Y-62823214D01*
X147069429Y-62823214D02*
X147176572Y-62858928D01*
X147498001Y-63573214D02*
X147498001Y-62823214D01*
X147498001Y-62823214D02*
X147783715Y-62823214D01*
X147783715Y-62823214D02*
X147855144Y-62858928D01*
X147855144Y-62858928D02*
X147890858Y-62894642D01*
X147890858Y-62894642D02*
X147926572Y-62966071D01*
X147926572Y-62966071D02*
X147926572Y-63073214D01*
X147926572Y-63073214D02*
X147890858Y-63144642D01*
X147890858Y-63144642D02*
X147855144Y-63180357D01*
X147855144Y-63180357D02*
X147783715Y-63216071D01*
X147783715Y-63216071D02*
X147498001Y-63216071D01*
X148676572Y-63573214D02*
X148426572Y-63216071D01*
X148248001Y-63573214D02*
X148248001Y-62823214D01*
X148248001Y-62823214D02*
X148533715Y-62823214D01*
X148533715Y-62823214D02*
X148605144Y-62858928D01*
X148605144Y-62858928D02*
X148640858Y-62894642D01*
X148640858Y-62894642D02*
X148676572Y-62966071D01*
X148676572Y-62966071D02*
X148676572Y-63073214D01*
X148676572Y-63073214D02*
X148640858Y-63144642D01*
X148640858Y-63144642D02*
X148605144Y-63180357D01*
X148605144Y-63180357D02*
X148533715Y-63216071D01*
X148533715Y-63216071D02*
X148248001Y-63216071D01*
X142890857Y-64109642D02*
X142926571Y-64073928D01*
X142926571Y-64073928D02*
X142998000Y-64038214D01*
X142998000Y-64038214D02*
X143176571Y-64038214D01*
X143176571Y-64038214D02*
X143248000Y-64073928D01*
X143248000Y-64073928D02*
X143283714Y-64109642D01*
X143283714Y-64109642D02*
X143319428Y-64181071D01*
X143319428Y-64181071D02*
X143319428Y-64252500D01*
X143319428Y-64252500D02*
X143283714Y-64359642D01*
X143283714Y-64359642D02*
X142855142Y-64788214D01*
X142855142Y-64788214D02*
X143319428Y-64788214D01*
X143640857Y-64716785D02*
X143676571Y-64752500D01*
X143676571Y-64752500D02*
X143640857Y-64788214D01*
X143640857Y-64788214D02*
X143605143Y-64752500D01*
X143605143Y-64752500D02*
X143640857Y-64716785D01*
X143640857Y-64716785D02*
X143640857Y-64788214D01*
X143640857Y-64323928D02*
X143676571Y-64359642D01*
X143676571Y-64359642D02*
X143640857Y-64395357D01*
X143640857Y-64395357D02*
X143605143Y-64359642D01*
X143605143Y-64359642D02*
X143640857Y-64323928D01*
X143640857Y-64323928D02*
X143640857Y-64395357D01*
X143962286Y-64752500D02*
X144069429Y-64788214D01*
X144069429Y-64788214D02*
X144248000Y-64788214D01*
X144248000Y-64788214D02*
X144319429Y-64752500D01*
X144319429Y-64752500D02*
X144355143Y-64716785D01*
X144355143Y-64716785D02*
X144390857Y-64645357D01*
X144390857Y-64645357D02*
X144390857Y-64573928D01*
X144390857Y-64573928D02*
X144355143Y-64502500D01*
X144355143Y-64502500D02*
X144319429Y-64466785D01*
X144319429Y-64466785D02*
X144248000Y-64431071D01*
X144248000Y-64431071D02*
X144105143Y-64395357D01*
X144105143Y-64395357D02*
X144033714Y-64359642D01*
X144033714Y-64359642D02*
X143998000Y-64323928D01*
X143998000Y-64323928D02*
X143962286Y-64252500D01*
X143962286Y-64252500D02*
X143962286Y-64181071D01*
X143962286Y-64181071D02*
X143998000Y-64109642D01*
X143998000Y-64109642D02*
X144033714Y-64073928D01*
X144033714Y-64073928D02*
X144105143Y-64038214D01*
X144105143Y-64038214D02*
X144283714Y-64038214D01*
X144283714Y-64038214D02*
X144390857Y-64073928D01*
X145140857Y-64716785D02*
X145105143Y-64752500D01*
X145105143Y-64752500D02*
X144998000Y-64788214D01*
X144998000Y-64788214D02*
X144926572Y-64788214D01*
X144926572Y-64788214D02*
X144819429Y-64752500D01*
X144819429Y-64752500D02*
X144748000Y-64681071D01*
X144748000Y-64681071D02*
X144712286Y-64609642D01*
X144712286Y-64609642D02*
X144676572Y-64466785D01*
X144676572Y-64466785D02*
X144676572Y-64359642D01*
X144676572Y-64359642D02*
X144712286Y-64216785D01*
X144712286Y-64216785D02*
X144748000Y-64145357D01*
X144748000Y-64145357D02*
X144819429Y-64073928D01*
X144819429Y-64073928D02*
X144926572Y-64038214D01*
X144926572Y-64038214D02*
X144998000Y-64038214D01*
X144998000Y-64038214D02*
X145105143Y-64073928D01*
X145105143Y-64073928D02*
X145140857Y-64109642D01*
X145426572Y-64573928D02*
X145783715Y-64573928D01*
X145355143Y-64788214D02*
X145605143Y-64038214D01*
X145605143Y-64038214D02*
X145855143Y-64788214D01*
X146105143Y-64788214D02*
X146105143Y-64038214D01*
X146105143Y-64038214D02*
X146533714Y-64788214D01*
X146533714Y-64788214D02*
X146533714Y-64038214D01*
X147248000Y-64788214D02*
X146890857Y-64788214D01*
X146890857Y-64788214D02*
X146890857Y-64038214D01*
X147498000Y-64788214D02*
X147498000Y-64038214D01*
X147855143Y-64788214D02*
X147855143Y-64038214D01*
X147855143Y-64038214D02*
X148283714Y-64788214D01*
X148283714Y-64788214D02*
X148283714Y-64038214D01*
X148640857Y-64395357D02*
X148890857Y-64395357D01*
X148998000Y-64788214D02*
X148640857Y-64788214D01*
X148640857Y-64788214D02*
X148640857Y-64038214D01*
X148640857Y-64038214D02*
X148998000Y-64038214D01*
X142855142Y-65253214D02*
X143319428Y-65253214D01*
X143319428Y-65253214D02*
X143069428Y-65538928D01*
X143069428Y-65538928D02*
X143176571Y-65538928D01*
X143176571Y-65538928D02*
X143248000Y-65574642D01*
X143248000Y-65574642D02*
X143283714Y-65610357D01*
X143283714Y-65610357D02*
X143319428Y-65681785D01*
X143319428Y-65681785D02*
X143319428Y-65860357D01*
X143319428Y-65860357D02*
X143283714Y-65931785D01*
X143283714Y-65931785D02*
X143248000Y-65967500D01*
X143248000Y-65967500D02*
X143176571Y-66003214D01*
X143176571Y-66003214D02*
X142962285Y-66003214D01*
X142962285Y-66003214D02*
X142890857Y-65967500D01*
X142890857Y-65967500D02*
X142855142Y-65931785D01*
X143640857Y-65931785D02*
X143676571Y-65967500D01*
X143676571Y-65967500D02*
X143640857Y-66003214D01*
X143640857Y-66003214D02*
X143605143Y-65967500D01*
X143605143Y-65967500D02*
X143640857Y-65931785D01*
X143640857Y-65931785D02*
X143640857Y-66003214D01*
X143640857Y-65538928D02*
X143676571Y-65574642D01*
X143676571Y-65574642D02*
X143640857Y-65610357D01*
X143640857Y-65610357D02*
X143605143Y-65574642D01*
X143605143Y-65574642D02*
X143640857Y-65538928D01*
X143640857Y-65538928D02*
X143640857Y-65610357D01*
X144390857Y-65288928D02*
X144319429Y-65253214D01*
X144319429Y-65253214D02*
X144212286Y-65253214D01*
X144212286Y-65253214D02*
X144105143Y-65288928D01*
X144105143Y-65288928D02*
X144033714Y-65360357D01*
X144033714Y-65360357D02*
X143998000Y-65431785D01*
X143998000Y-65431785D02*
X143962286Y-65574642D01*
X143962286Y-65574642D02*
X143962286Y-65681785D01*
X143962286Y-65681785D02*
X143998000Y-65824642D01*
X143998000Y-65824642D02*
X144033714Y-65896071D01*
X144033714Y-65896071D02*
X144105143Y-65967500D01*
X144105143Y-65967500D02*
X144212286Y-66003214D01*
X144212286Y-66003214D02*
X144283714Y-66003214D01*
X144283714Y-66003214D02*
X144390857Y-65967500D01*
X144390857Y-65967500D02*
X144426571Y-65931785D01*
X144426571Y-65931785D02*
X144426571Y-65681785D01*
X144426571Y-65681785D02*
X144283714Y-65681785D01*
X145176571Y-66003214D02*
X144926571Y-65646071D01*
X144748000Y-66003214D02*
X144748000Y-65253214D01*
X144748000Y-65253214D02*
X145033714Y-65253214D01*
X145033714Y-65253214D02*
X145105143Y-65288928D01*
X145105143Y-65288928D02*
X145140857Y-65324642D01*
X145140857Y-65324642D02*
X145176571Y-65396071D01*
X145176571Y-65396071D02*
X145176571Y-65503214D01*
X145176571Y-65503214D02*
X145140857Y-65574642D01*
X145140857Y-65574642D02*
X145105143Y-65610357D01*
X145105143Y-65610357D02*
X145033714Y-65646071D01*
X145033714Y-65646071D02*
X144748000Y-65646071D01*
X145640857Y-65253214D02*
X145783714Y-65253214D01*
X145783714Y-65253214D02*
X145855143Y-65288928D01*
X145855143Y-65288928D02*
X145926571Y-65360357D01*
X145926571Y-65360357D02*
X145962286Y-65503214D01*
X145962286Y-65503214D02*
X145962286Y-65753214D01*
X145962286Y-65753214D02*
X145926571Y-65896071D01*
X145926571Y-65896071D02*
X145855143Y-65967500D01*
X145855143Y-65967500D02*
X145783714Y-66003214D01*
X145783714Y-66003214D02*
X145640857Y-66003214D01*
X145640857Y-66003214D02*
X145569429Y-65967500D01*
X145569429Y-65967500D02*
X145498000Y-65896071D01*
X145498000Y-65896071D02*
X145462286Y-65753214D01*
X145462286Y-65753214D02*
X145462286Y-65503214D01*
X145462286Y-65503214D02*
X145498000Y-65360357D01*
X145498000Y-65360357D02*
X145569429Y-65288928D01*
X145569429Y-65288928D02*
X145640857Y-65253214D01*
X146283714Y-66003214D02*
X146283714Y-65253214D01*
X146283714Y-65253214D02*
X146533714Y-65788928D01*
X146533714Y-65788928D02*
X146783714Y-65253214D01*
X146783714Y-65253214D02*
X146783714Y-66003214D01*
X147569428Y-65931785D02*
X147533714Y-65967500D01*
X147533714Y-65967500D02*
X147426571Y-66003214D01*
X147426571Y-66003214D02*
X147355143Y-66003214D01*
X147355143Y-66003214D02*
X147248000Y-65967500D01*
X147248000Y-65967500D02*
X147176571Y-65896071D01*
X147176571Y-65896071D02*
X147140857Y-65824642D01*
X147140857Y-65824642D02*
X147105143Y-65681785D01*
X147105143Y-65681785D02*
X147105143Y-65574642D01*
X147105143Y-65574642D02*
X147140857Y-65431785D01*
X147140857Y-65431785D02*
X147176571Y-65360357D01*
X147176571Y-65360357D02*
X147248000Y-65288928D01*
X147248000Y-65288928D02*
X147355143Y-65253214D01*
X147355143Y-65253214D02*
X147426571Y-65253214D01*
X147426571Y-65253214D02*
X147533714Y-65288928D01*
X147533714Y-65288928D02*
X147569428Y-65324642D01*
X148248000Y-66003214D02*
X147890857Y-66003214D01*
X147890857Y-66003214D02*
X147890857Y-65253214D01*
X148498000Y-66003214D02*
X148498000Y-65253214D01*
X148926571Y-66003214D02*
X148605143Y-65574642D01*
X148926571Y-65253214D02*
X148498000Y-65681785D01*
X143248000Y-66718214D02*
X143248000Y-67218214D01*
X143069428Y-66432500D02*
X142890857Y-66968214D01*
X142890857Y-66968214D02*
X143355142Y-66968214D01*
X143640857Y-67146785D02*
X143676571Y-67182500D01*
X143676571Y-67182500D02*
X143640857Y-67218214D01*
X143640857Y-67218214D02*
X143605143Y-67182500D01*
X143605143Y-67182500D02*
X143640857Y-67146785D01*
X143640857Y-67146785D02*
X143640857Y-67218214D01*
X143640857Y-66753928D02*
X143676571Y-66789642D01*
X143676571Y-66789642D02*
X143640857Y-66825357D01*
X143640857Y-66825357D02*
X143605143Y-66789642D01*
X143605143Y-66789642D02*
X143640857Y-66753928D01*
X143640857Y-66753928D02*
X143640857Y-66825357D01*
X144426571Y-67146785D02*
X144390857Y-67182500D01*
X144390857Y-67182500D02*
X144283714Y-67218214D01*
X144283714Y-67218214D02*
X144212286Y-67218214D01*
X144212286Y-67218214D02*
X144105143Y-67182500D01*
X144105143Y-67182500D02*
X144033714Y-67111071D01*
X144033714Y-67111071D02*
X143998000Y-67039642D01*
X143998000Y-67039642D02*
X143962286Y-66896785D01*
X143962286Y-66896785D02*
X143962286Y-66789642D01*
X143962286Y-66789642D02*
X143998000Y-66646785D01*
X143998000Y-66646785D02*
X144033714Y-66575357D01*
X144033714Y-66575357D02*
X144105143Y-66503928D01*
X144105143Y-66503928D02*
X144212286Y-66468214D01*
X144212286Y-66468214D02*
X144283714Y-66468214D01*
X144283714Y-66468214D02*
X144390857Y-66503928D01*
X144390857Y-66503928D02*
X144426571Y-66539642D01*
X144748000Y-67218214D02*
X144748000Y-66468214D01*
X144748000Y-66468214D02*
X145033714Y-66468214D01*
X145033714Y-66468214D02*
X145105143Y-66503928D01*
X145105143Y-66503928D02*
X145140857Y-66539642D01*
X145140857Y-66539642D02*
X145176571Y-66611071D01*
X145176571Y-66611071D02*
X145176571Y-66718214D01*
X145176571Y-66718214D02*
X145140857Y-66789642D01*
X145140857Y-66789642D02*
X145105143Y-66825357D01*
X145105143Y-66825357D02*
X145033714Y-66861071D01*
X145033714Y-66861071D02*
X144748000Y-66861071D01*
X145498000Y-66468214D02*
X145498000Y-67075357D01*
X145498000Y-67075357D02*
X145533714Y-67146785D01*
X145533714Y-67146785D02*
X145569429Y-67182500D01*
X145569429Y-67182500D02*
X145640857Y-67218214D01*
X145640857Y-67218214D02*
X145783714Y-67218214D01*
X145783714Y-67218214D02*
X145855143Y-67182500D01*
X145855143Y-67182500D02*
X145890857Y-67146785D01*
X145890857Y-67146785D02*
X145926571Y-67075357D01*
X145926571Y-67075357D02*
X145926571Y-66468214D01*
X146712285Y-67146785D02*
X146676571Y-67182500D01*
X146676571Y-67182500D02*
X146569428Y-67218214D01*
X146569428Y-67218214D02*
X146498000Y-67218214D01*
X146498000Y-67218214D02*
X146390857Y-67182500D01*
X146390857Y-67182500D02*
X146319428Y-67111071D01*
X146319428Y-67111071D02*
X146283714Y-67039642D01*
X146283714Y-67039642D02*
X146248000Y-66896785D01*
X146248000Y-66896785D02*
X146248000Y-66789642D01*
X146248000Y-66789642D02*
X146283714Y-66646785D01*
X146283714Y-66646785D02*
X146319428Y-66575357D01*
X146319428Y-66575357D02*
X146390857Y-66503928D01*
X146390857Y-66503928D02*
X146498000Y-66468214D01*
X146498000Y-66468214D02*
X146569428Y-66468214D01*
X146569428Y-66468214D02*
X146676571Y-66503928D01*
X146676571Y-66503928D02*
X146712285Y-66539642D01*
X147390857Y-67218214D02*
X147033714Y-67218214D01*
X147033714Y-67218214D02*
X147033714Y-66468214D01*
X147640857Y-67218214D02*
X147640857Y-66468214D01*
X148069428Y-67218214D02*
X147748000Y-66789642D01*
X148069428Y-66468214D02*
X147640857Y-66896785D01*
D11*
X141945819Y-100588542D02*
X141945819Y-99921876D01*
X141945819Y-99921876D02*
X142945819Y-100350447D01*
X142279152Y-99112352D02*
X142945819Y-99112352D01*
X141898200Y-99350447D02*
X142612485Y-99588542D01*
X142612485Y-99588542D02*
X142612485Y-98969495D01*
X142945819Y-98112352D02*
X142945819Y-98588542D01*
X142945819Y-98588542D02*
X141945819Y-98588542D01*
X141945819Y-97921875D02*
X142945819Y-97588542D01*
X142945819Y-97588542D02*
X141945819Y-97255209D01*
X142850580Y-96350447D02*
X142898200Y-96398066D01*
X142898200Y-96398066D02*
X142945819Y-96540923D01*
X142945819Y-96540923D02*
X142945819Y-96636161D01*
X142945819Y-96636161D02*
X142898200Y-96779018D01*
X142898200Y-96779018D02*
X142802961Y-96874256D01*
X142802961Y-96874256D02*
X142707723Y-96921875D01*
X142707723Y-96921875D02*
X142517247Y-96969494D01*
X142517247Y-96969494D02*
X142374390Y-96969494D01*
X142374390Y-96969494D02*
X142183914Y-96921875D01*
X142183914Y-96921875D02*
X142088676Y-96874256D01*
X142088676Y-96874256D02*
X141993438Y-96779018D01*
X141993438Y-96779018D02*
X141945819Y-96636161D01*
X141945819Y-96636161D02*
X141945819Y-96540923D01*
X141945819Y-96540923D02*
X141993438Y-96398066D01*
X141993438Y-96398066D02*
X142041057Y-96350447D01*
X142041057Y-95969494D02*
X141993438Y-95921875D01*
X141993438Y-95921875D02*
X141945819Y-95826637D01*
X141945819Y-95826637D02*
X141945819Y-95588542D01*
X141945819Y-95588542D02*
X141993438Y-95493304D01*
X141993438Y-95493304D02*
X142041057Y-95445685D01*
X142041057Y-95445685D02*
X142136295Y-95398066D01*
X142136295Y-95398066D02*
X142231533Y-95398066D01*
X142231533Y-95398066D02*
X142374390Y-95445685D01*
X142374390Y-95445685D02*
X142945819Y-96017113D01*
X142945819Y-96017113D02*
X142945819Y-95398066D01*
X142279152Y-94540923D02*
X142945819Y-94540923D01*
X141898200Y-94779018D02*
X142612485Y-95017113D01*
X142612485Y-95017113D02*
X142612485Y-94398066D01*
X141945819Y-93540923D02*
X141945819Y-94017113D01*
X141945819Y-94017113D02*
X142422009Y-94064732D01*
X142422009Y-94064732D02*
X142374390Y-94017113D01*
X142374390Y-94017113D02*
X142326771Y-93921875D01*
X142326771Y-93921875D02*
X142326771Y-93683780D01*
X142326771Y-93683780D02*
X142374390Y-93588542D01*
X142374390Y-93588542D02*
X142422009Y-93540923D01*
X142422009Y-93540923D02*
X142517247Y-93493304D01*
X142517247Y-93493304D02*
X142755342Y-93493304D01*
X142755342Y-93493304D02*
X142850580Y-93540923D01*
X142850580Y-93540923D02*
X142898200Y-93588542D01*
X142898200Y-93588542D02*
X142945819Y-93683780D01*
X142945819Y-93683780D02*
X142945819Y-93921875D01*
X142945819Y-93921875D02*
X142898200Y-94017113D01*
X142898200Y-94017113D02*
X142850580Y-94064732D01*
X175407619Y-61229904D02*
X176217142Y-61229904D01*
X176217142Y-61229904D02*
X176312380Y-61182285D01*
X176312380Y-61182285D02*
X176360000Y-61134666D01*
X176360000Y-61134666D02*
X176407619Y-61039428D01*
X176407619Y-61039428D02*
X176407619Y-60848952D01*
X176407619Y-60848952D02*
X176360000Y-60753714D01*
X176360000Y-60753714D02*
X176312380Y-60706095D01*
X176312380Y-60706095D02*
X176217142Y-60658476D01*
X176217142Y-60658476D02*
X175407619Y-60658476D01*
X176360000Y-60229904D02*
X176407619Y-60087047D01*
X176407619Y-60087047D02*
X176407619Y-59848952D01*
X176407619Y-59848952D02*
X176360000Y-59753714D01*
X176360000Y-59753714D02*
X176312380Y-59706095D01*
X176312380Y-59706095D02*
X176217142Y-59658476D01*
X176217142Y-59658476D02*
X176121904Y-59658476D01*
X176121904Y-59658476D02*
X176026666Y-59706095D01*
X176026666Y-59706095D02*
X175979047Y-59753714D01*
X175979047Y-59753714D02*
X175931428Y-59848952D01*
X175931428Y-59848952D02*
X175883809Y-60039428D01*
X175883809Y-60039428D02*
X175836190Y-60134666D01*
X175836190Y-60134666D02*
X175788571Y-60182285D01*
X175788571Y-60182285D02*
X175693333Y-60229904D01*
X175693333Y-60229904D02*
X175598095Y-60229904D01*
X175598095Y-60229904D02*
X175502857Y-60182285D01*
X175502857Y-60182285D02*
X175455238Y-60134666D01*
X175455238Y-60134666D02*
X175407619Y-60039428D01*
X175407619Y-60039428D02*
X175407619Y-59801333D01*
X175407619Y-59801333D02*
X175455238Y-59658476D01*
X175883809Y-58896571D02*
X175931428Y-58753714D01*
X175931428Y-58753714D02*
X175979047Y-58706095D01*
X175979047Y-58706095D02*
X176074285Y-58658476D01*
X176074285Y-58658476D02*
X176217142Y-58658476D01*
X176217142Y-58658476D02*
X176312380Y-58706095D01*
X176312380Y-58706095D02*
X176360000Y-58753714D01*
X176360000Y-58753714D02*
X176407619Y-58848952D01*
X176407619Y-58848952D02*
X176407619Y-59229904D01*
X176407619Y-59229904D02*
X175407619Y-59229904D01*
X175407619Y-59229904D02*
X175407619Y-58896571D01*
X175407619Y-58896571D02*
X175455238Y-58801333D01*
X175455238Y-58801333D02*
X175502857Y-58753714D01*
X175502857Y-58753714D02*
X175598095Y-58706095D01*
X175598095Y-58706095D02*
X175693333Y-58706095D01*
X175693333Y-58706095D02*
X175788571Y-58753714D01*
X175788571Y-58753714D02*
X175836190Y-58801333D01*
X175836190Y-58801333D02*
X175883809Y-58896571D01*
X175883809Y-58896571D02*
X175883809Y-59229904D01*
X176026666Y-58229904D02*
X176026666Y-57468000D01*
X176312380Y-56420381D02*
X176360000Y-56468000D01*
X176360000Y-56468000D02*
X176407619Y-56610857D01*
X176407619Y-56610857D02*
X176407619Y-56706095D01*
X176407619Y-56706095D02*
X176360000Y-56848952D01*
X176360000Y-56848952D02*
X176264761Y-56944190D01*
X176264761Y-56944190D02*
X176169523Y-56991809D01*
X176169523Y-56991809D02*
X175979047Y-57039428D01*
X175979047Y-57039428D02*
X175836190Y-57039428D01*
X175836190Y-57039428D02*
X175645714Y-56991809D01*
X175645714Y-56991809D02*
X175550476Y-56944190D01*
X175550476Y-56944190D02*
X175455238Y-56848952D01*
X175455238Y-56848952D02*
X175407619Y-56706095D01*
X175407619Y-56706095D02*
X175407619Y-56610857D01*
X175407619Y-56610857D02*
X175455238Y-56468000D01*
X175455238Y-56468000D02*
X175502857Y-56420381D01*
X176360000Y-55277523D02*
X176407619Y-55134666D01*
X176407619Y-55134666D02*
X176407619Y-54896571D01*
X176407619Y-54896571D02*
X176360000Y-54801333D01*
X176360000Y-54801333D02*
X176312380Y-54753714D01*
X176312380Y-54753714D02*
X176217142Y-54706095D01*
X176217142Y-54706095D02*
X176121904Y-54706095D01*
X176121904Y-54706095D02*
X176026666Y-54753714D01*
X176026666Y-54753714D02*
X175979047Y-54801333D01*
X175979047Y-54801333D02*
X175931428Y-54896571D01*
X175931428Y-54896571D02*
X175883809Y-55087047D01*
X175883809Y-55087047D02*
X175836190Y-55182285D01*
X175836190Y-55182285D02*
X175788571Y-55229904D01*
X175788571Y-55229904D02*
X175693333Y-55277523D01*
X175693333Y-55277523D02*
X175598095Y-55277523D01*
X175598095Y-55277523D02*
X175502857Y-55229904D01*
X175502857Y-55229904D02*
X175455238Y-55182285D01*
X175455238Y-55182285D02*
X175407619Y-55087047D01*
X175407619Y-55087047D02*
X175407619Y-54848952D01*
X175407619Y-54848952D02*
X175455238Y-54706095D01*
X176407619Y-54277523D02*
X175407619Y-54277523D01*
X176407619Y-53801333D02*
X175407619Y-53801333D01*
X175407619Y-53801333D02*
X175407619Y-53563238D01*
X175407619Y-53563238D02*
X175455238Y-53420381D01*
X175455238Y-53420381D02*
X175550476Y-53325143D01*
X175550476Y-53325143D02*
X175645714Y-53277524D01*
X175645714Y-53277524D02*
X175836190Y-53229905D01*
X175836190Y-53229905D02*
X175979047Y-53229905D01*
X175979047Y-53229905D02*
X176169523Y-53277524D01*
X176169523Y-53277524D02*
X176264761Y-53325143D01*
X176264761Y-53325143D02*
X176360000Y-53420381D01*
X176360000Y-53420381D02*
X176407619Y-53563238D01*
X176407619Y-53563238D02*
X176407619Y-53801333D01*
X175883809Y-52801333D02*
X175883809Y-52468000D01*
X176407619Y-52325143D02*
X176407619Y-52801333D01*
X176407619Y-52801333D02*
X175407619Y-52801333D01*
X175407619Y-52801333D02*
X175407619Y-52325143D01*
D12*
X138477619Y-83258809D02*
X138644285Y-83758809D01*
X138644285Y-83758809D02*
X138810952Y-83258809D01*
X139239523Y-83282619D02*
X139191904Y-83258809D01*
X139191904Y-83258809D02*
X139120475Y-83258809D01*
X139120475Y-83258809D02*
X139049047Y-83282619D01*
X139049047Y-83282619D02*
X139001428Y-83330238D01*
X139001428Y-83330238D02*
X138977618Y-83377857D01*
X138977618Y-83377857D02*
X138953809Y-83473095D01*
X138953809Y-83473095D02*
X138953809Y-83544523D01*
X138953809Y-83544523D02*
X138977618Y-83639761D01*
X138977618Y-83639761D02*
X139001428Y-83687380D01*
X139001428Y-83687380D02*
X139049047Y-83735000D01*
X139049047Y-83735000D02*
X139120475Y-83758809D01*
X139120475Y-83758809D02*
X139168094Y-83758809D01*
X139168094Y-83758809D02*
X139239523Y-83735000D01*
X139239523Y-83735000D02*
X139263332Y-83711190D01*
X139263332Y-83711190D02*
X139263332Y-83544523D01*
X139263332Y-83544523D02*
X139168094Y-83544523D01*
X139453809Y-83615952D02*
X139691904Y-83615952D01*
X139406190Y-83758809D02*
X139572856Y-83258809D01*
X139572856Y-83258809D02*
X139739523Y-83758809D01*
X140382379Y-83258809D02*
X140477617Y-83258809D01*
X140477617Y-83258809D02*
X140525236Y-83282619D01*
X140525236Y-83282619D02*
X140572855Y-83330238D01*
X140572855Y-83330238D02*
X140596665Y-83425476D01*
X140596665Y-83425476D02*
X140596665Y-83592142D01*
X140596665Y-83592142D02*
X140572855Y-83687380D01*
X140572855Y-83687380D02*
X140525236Y-83735000D01*
X140525236Y-83735000D02*
X140477617Y-83758809D01*
X140477617Y-83758809D02*
X140382379Y-83758809D01*
X140382379Y-83758809D02*
X140334760Y-83735000D01*
X140334760Y-83735000D02*
X140287141Y-83687380D01*
X140287141Y-83687380D02*
X140263332Y-83592142D01*
X140263332Y-83592142D02*
X140263332Y-83425476D01*
X140263332Y-83425476D02*
X140287141Y-83330238D01*
X140287141Y-83330238D02*
X140334760Y-83282619D01*
X140334760Y-83282619D02*
X140382379Y-83258809D01*
X140810951Y-83258809D02*
X140810951Y-83663571D01*
X140810951Y-83663571D02*
X140834761Y-83711190D01*
X140834761Y-83711190D02*
X140858570Y-83735000D01*
X140858570Y-83735000D02*
X140906189Y-83758809D01*
X140906189Y-83758809D02*
X141001427Y-83758809D01*
X141001427Y-83758809D02*
X141049046Y-83735000D01*
X141049046Y-83735000D02*
X141072856Y-83711190D01*
X141072856Y-83711190D02*
X141096665Y-83663571D01*
X141096665Y-83663571D02*
X141096665Y-83258809D01*
X141263333Y-83258809D02*
X141549047Y-83258809D01*
X141406190Y-83758809D02*
X141406190Y-83258809D01*
D11*
X155543238Y-108097619D02*
X156114666Y-108097619D01*
X155828952Y-109097619D02*
X155828952Y-108097619D01*
X156448000Y-109097619D02*
X156448000Y-108097619D01*
X156448000Y-108097619D02*
X157019428Y-109097619D01*
X157019428Y-109097619D02*
X157019428Y-108097619D01*
X157543238Y-109097619D02*
X157733714Y-109097619D01*
X157733714Y-109097619D02*
X157828952Y-109050000D01*
X157828952Y-109050000D02*
X157876571Y-109002380D01*
X157876571Y-109002380D02*
X157971809Y-108859523D01*
X157971809Y-108859523D02*
X158019428Y-108669047D01*
X158019428Y-108669047D02*
X158019428Y-108288095D01*
X158019428Y-108288095D02*
X157971809Y-108192857D01*
X157971809Y-108192857D02*
X157924190Y-108145238D01*
X157924190Y-108145238D02*
X157828952Y-108097619D01*
X157828952Y-108097619D02*
X157638476Y-108097619D01*
X157638476Y-108097619D02*
X157543238Y-108145238D01*
X157543238Y-108145238D02*
X157495619Y-108192857D01*
X157495619Y-108192857D02*
X157448000Y-108288095D01*
X157448000Y-108288095D02*
X157448000Y-108526190D01*
X157448000Y-108526190D02*
X157495619Y-108621428D01*
X157495619Y-108621428D02*
X157543238Y-108669047D01*
X157543238Y-108669047D02*
X157638476Y-108716666D01*
X157638476Y-108716666D02*
X157828952Y-108716666D01*
X157828952Y-108716666D02*
X157924190Y-108669047D01*
X157924190Y-108669047D02*
X157971809Y-108621428D01*
X157971809Y-108621428D02*
X158019428Y-108526190D01*
X158448000Y-109097619D02*
X158448000Y-108097619D01*
X159019428Y-109097619D02*
X158590857Y-108526190D01*
X159019428Y-108097619D02*
X158448000Y-108669047D01*
X160209905Y-109097619D02*
X160209905Y-108097619D01*
X160209905Y-108573809D02*
X160781333Y-108573809D01*
X160781333Y-109097619D02*
X160781333Y-108097619D01*
X161257524Y-109097619D02*
X161257524Y-108097619D01*
X161257524Y-108097619D02*
X161495619Y-108097619D01*
X161495619Y-108097619D02*
X161638476Y-108145238D01*
X161638476Y-108145238D02*
X161733714Y-108240476D01*
X161733714Y-108240476D02*
X161781333Y-108335714D01*
X161781333Y-108335714D02*
X161828952Y-108526190D01*
X161828952Y-108526190D02*
X161828952Y-108669047D01*
X161828952Y-108669047D02*
X161781333Y-108859523D01*
X161781333Y-108859523D02*
X161733714Y-108954761D01*
X161733714Y-108954761D02*
X161638476Y-109050000D01*
X161638476Y-109050000D02*
X161495619Y-109097619D01*
X161495619Y-109097619D02*
X161257524Y-109097619D01*
X162257524Y-109097619D02*
X162257524Y-108097619D01*
X162257524Y-108097619D02*
X162590857Y-108811904D01*
X162590857Y-108811904D02*
X162924190Y-108097619D01*
X162924190Y-108097619D02*
X162924190Y-109097619D01*
X163400381Y-109097619D02*
X163400381Y-108097619D01*
X164590857Y-109050000D02*
X164733714Y-109097619D01*
X164733714Y-109097619D02*
X164971809Y-109097619D01*
X164971809Y-109097619D02*
X165067047Y-109050000D01*
X165067047Y-109050000D02*
X165114666Y-109002380D01*
X165114666Y-109002380D02*
X165162285Y-108907142D01*
X165162285Y-108907142D02*
X165162285Y-108811904D01*
X165162285Y-108811904D02*
X165114666Y-108716666D01*
X165114666Y-108716666D02*
X165067047Y-108669047D01*
X165067047Y-108669047D02*
X164971809Y-108621428D01*
X164971809Y-108621428D02*
X164781333Y-108573809D01*
X164781333Y-108573809D02*
X164686095Y-108526190D01*
X164686095Y-108526190D02*
X164638476Y-108478571D01*
X164638476Y-108478571D02*
X164590857Y-108383333D01*
X164590857Y-108383333D02*
X164590857Y-108288095D01*
X164590857Y-108288095D02*
X164638476Y-108192857D01*
X164638476Y-108192857D02*
X164686095Y-108145238D01*
X164686095Y-108145238D02*
X164781333Y-108097619D01*
X164781333Y-108097619D02*
X165019428Y-108097619D01*
X165019428Y-108097619D02*
X165162285Y-108145238D01*
X165590857Y-109097619D02*
X165590857Y-108097619D01*
X166067047Y-109097619D02*
X166067047Y-108097619D01*
X166067047Y-108097619D02*
X166305142Y-108097619D01*
X166305142Y-108097619D02*
X166447999Y-108145238D01*
X166447999Y-108145238D02*
X166543237Y-108240476D01*
X166543237Y-108240476D02*
X166590856Y-108335714D01*
X166590856Y-108335714D02*
X166638475Y-108526190D01*
X166638475Y-108526190D02*
X166638475Y-108669047D01*
X166638475Y-108669047D02*
X166590856Y-108859523D01*
X166590856Y-108859523D02*
X166543237Y-108954761D01*
X166543237Y-108954761D02*
X166447999Y-109050000D01*
X166447999Y-109050000D02*
X166305142Y-109097619D01*
X166305142Y-109097619D02*
X166067047Y-109097619D01*
X167067047Y-108573809D02*
X167400380Y-108573809D01*
X167543237Y-109097619D02*
X167067047Y-109097619D01*
X167067047Y-109097619D02*
X167067047Y-108097619D01*
X167067047Y-108097619D02*
X167543237Y-108097619D01*
X147081857Y-49804619D02*
X147700904Y-49804619D01*
X147700904Y-49804619D02*
X147367571Y-50185571D01*
X147367571Y-50185571D02*
X147510428Y-50185571D01*
X147510428Y-50185571D02*
X147605666Y-50233190D01*
X147605666Y-50233190D02*
X147653285Y-50280809D01*
X147653285Y-50280809D02*
X147700904Y-50376047D01*
X147700904Y-50376047D02*
X147700904Y-50614142D01*
X147700904Y-50614142D02*
X147653285Y-50709380D01*
X147653285Y-50709380D02*
X147605666Y-50757000D01*
X147605666Y-50757000D02*
X147510428Y-50804619D01*
X147510428Y-50804619D02*
X147224714Y-50804619D01*
X147224714Y-50804619D02*
X147129476Y-50757000D01*
X147129476Y-50757000D02*
X147081857Y-50709380D01*
X148272333Y-50233190D02*
X148177095Y-50185571D01*
X148177095Y-50185571D02*
X148129476Y-50137952D01*
X148129476Y-50137952D02*
X148081857Y-50042714D01*
X148081857Y-50042714D02*
X148081857Y-49995095D01*
X148081857Y-49995095D02*
X148129476Y-49899857D01*
X148129476Y-49899857D02*
X148177095Y-49852238D01*
X148177095Y-49852238D02*
X148272333Y-49804619D01*
X148272333Y-49804619D02*
X148462809Y-49804619D01*
X148462809Y-49804619D02*
X148558047Y-49852238D01*
X148558047Y-49852238D02*
X148605666Y-49899857D01*
X148605666Y-49899857D02*
X148653285Y-49995095D01*
X148653285Y-49995095D02*
X148653285Y-50042714D01*
X148653285Y-50042714D02*
X148605666Y-50137952D01*
X148605666Y-50137952D02*
X148558047Y-50185571D01*
X148558047Y-50185571D02*
X148462809Y-50233190D01*
X148462809Y-50233190D02*
X148272333Y-50233190D01*
X148272333Y-50233190D02*
X148177095Y-50280809D01*
X148177095Y-50280809D02*
X148129476Y-50328428D01*
X148129476Y-50328428D02*
X148081857Y-50423666D01*
X148081857Y-50423666D02*
X148081857Y-50614142D01*
X148081857Y-50614142D02*
X148129476Y-50709380D01*
X148129476Y-50709380D02*
X148177095Y-50757000D01*
X148177095Y-50757000D02*
X148272333Y-50804619D01*
X148272333Y-50804619D02*
X148462809Y-50804619D01*
X148462809Y-50804619D02*
X148558047Y-50757000D01*
X148558047Y-50757000D02*
X148605666Y-50709380D01*
X148605666Y-50709380D02*
X148653285Y-50614142D01*
X148653285Y-50614142D02*
X148653285Y-50423666D01*
X148653285Y-50423666D02*
X148605666Y-50328428D01*
X148605666Y-50328428D02*
X148558047Y-50280809D01*
X148558047Y-50280809D02*
X148462809Y-50233190D01*
X175291666Y-49677619D02*
X175101190Y-49677619D01*
X175101190Y-49677619D02*
X175005952Y-49725238D01*
X175005952Y-49725238D02*
X174958333Y-49772857D01*
X174958333Y-49772857D02*
X174863095Y-49915714D01*
X174863095Y-49915714D02*
X174815476Y-50106190D01*
X174815476Y-50106190D02*
X174815476Y-50487142D01*
X174815476Y-50487142D02*
X174863095Y-50582380D01*
X174863095Y-50582380D02*
X174910714Y-50630000D01*
X174910714Y-50630000D02*
X175005952Y-50677619D01*
X175005952Y-50677619D02*
X175196428Y-50677619D01*
X175196428Y-50677619D02*
X175291666Y-50630000D01*
X175291666Y-50630000D02*
X175339285Y-50582380D01*
X175339285Y-50582380D02*
X175386904Y-50487142D01*
X175386904Y-50487142D02*
X175386904Y-50249047D01*
X175386904Y-50249047D02*
X175339285Y-50153809D01*
X175339285Y-50153809D02*
X175291666Y-50106190D01*
X175291666Y-50106190D02*
X175196428Y-50058571D01*
X175196428Y-50058571D02*
X175005952Y-50058571D01*
X175005952Y-50058571D02*
X174910714Y-50106190D01*
X174910714Y-50106190D02*
X174863095Y-50153809D01*
X174863095Y-50153809D02*
X174815476Y-50249047D01*
X175720238Y-49677619D02*
X176339285Y-49677619D01*
X176339285Y-49677619D02*
X176005952Y-50058571D01*
X176005952Y-50058571D02*
X176148809Y-50058571D01*
X176148809Y-50058571D02*
X176244047Y-50106190D01*
X176244047Y-50106190D02*
X176291666Y-50153809D01*
X176291666Y-50153809D02*
X176339285Y-50249047D01*
X176339285Y-50249047D02*
X176339285Y-50487142D01*
X176339285Y-50487142D02*
X176291666Y-50582380D01*
X176291666Y-50582380D02*
X176244047Y-50630000D01*
X176244047Y-50630000D02*
X176148809Y-50677619D01*
X176148809Y-50677619D02*
X175863095Y-50677619D01*
X175863095Y-50677619D02*
X175767857Y-50630000D01*
X175767857Y-50630000D02*
X175720238Y-50582380D01*
D14*
%TO.C,U3*%
X137371000Y-84462000D02*
X137371000Y-110102000D01*
X137371000Y-110102000D02*
X147871000Y-110102000D01*
X140371000Y-84522000D02*
X140371000Y-110042000D01*
X140371000Y-110042000D02*
X144871000Y-110042000D01*
X141621000Y-84522000D02*
X140371000Y-84522000D01*
X144871000Y-84522000D02*
X143621000Y-84522000D01*
X144871000Y-110042000D02*
X144871000Y-84522000D01*
X147871000Y-84462000D02*
X137371000Y-84462000D01*
X147871000Y-110102000D02*
X147871000Y-84462000D01*
X141621000Y-84522000D02*
G75*
G03*
X143621000Y-84522000I1000000J0D01*
G01*
%TO.C,J3*%
X149292000Y-51435000D02*
X149292000Y-109915000D01*
X149292000Y-51435000D02*
X151952000Y-51435000D01*
X149292000Y-109915000D02*
X151952000Y-109915000D01*
X150622000Y-48835000D02*
X151952000Y-48835000D01*
X151952000Y-48835000D02*
X151952000Y-50165000D01*
X151952000Y-51435000D02*
X151952000Y-109915000D01*
%TO.C,J5*%
X138971000Y-49212000D02*
X138971000Y-50522000D01*
X138971000Y-49212000D02*
X140354000Y-49212000D01*
X139211000Y-49452000D02*
X139211000Y-50522000D01*
X139211000Y-49452000D02*
X146032000Y-49452000D01*
X139211000Y-52602000D02*
X139211000Y-53113000D01*
X139211000Y-55092000D02*
X139211000Y-55653000D01*
X139211000Y-57632000D02*
X139211000Y-58193000D01*
X139211000Y-60172000D02*
X139211000Y-61292000D01*
X139211000Y-61292000D02*
X146032000Y-61292000D01*
X140811000Y-50927000D02*
X140811000Y-52197000D01*
X140811000Y-51047000D02*
X142017667Y-51047000D01*
X140811000Y-51167000D02*
X142017667Y-51167000D01*
X140811000Y-51287000D02*
X142017667Y-51287000D01*
X140811000Y-51407000D02*
X142017667Y-51407000D01*
X140811000Y-51527000D02*
X142017667Y-51527000D01*
X140811000Y-51647000D02*
X142017667Y-51647000D01*
X140811000Y-51767000D02*
X142017667Y-51767000D01*
X140811000Y-51887000D02*
X142017667Y-51887000D01*
X140811000Y-52007000D02*
X142017667Y-52007000D01*
X140811000Y-52127000D02*
X142017667Y-52127000D01*
X140811000Y-52197000D02*
X144431000Y-52197000D01*
X140811000Y-53467000D02*
X140811000Y-54737000D01*
X140811000Y-53587000D02*
X142017667Y-53587000D01*
X140811000Y-53707000D02*
X142017667Y-53707000D01*
X140811000Y-53827000D02*
X142017667Y-53827000D01*
X140811000Y-53947000D02*
X142017667Y-53947000D01*
X140811000Y-54067000D02*
X142017667Y-54067000D01*
X140811000Y-54187000D02*
X142017667Y-54187000D01*
X140811000Y-54307000D02*
X142017667Y-54307000D01*
X140811000Y-54427000D02*
X142017667Y-54427000D01*
X140811000Y-54547000D02*
X142017667Y-54547000D01*
X140811000Y-54667000D02*
X142017667Y-54667000D01*
X140811000Y-54737000D02*
X144431000Y-54737000D01*
X140811000Y-56007000D02*
X140811000Y-57277000D01*
X140811000Y-56127000D02*
X142017667Y-56127000D01*
X140811000Y-56247000D02*
X142017667Y-56247000D01*
X140811000Y-56367000D02*
X142017667Y-56367000D01*
X140811000Y-56487000D02*
X142017667Y-56487000D01*
X140811000Y-56607000D02*
X142017667Y-56607000D01*
X140811000Y-56727000D02*
X142017667Y-56727000D01*
X140811000Y-56847000D02*
X142017667Y-56847000D01*
X140811000Y-56967000D02*
X142017667Y-56967000D01*
X140811000Y-57087000D02*
X142017667Y-57087000D01*
X140811000Y-57207000D02*
X142017667Y-57207000D01*
X140811000Y-57277000D02*
X144431000Y-57277000D01*
X140811000Y-58547000D02*
X140811000Y-59817000D01*
X140811000Y-58667000D02*
X142017667Y-58667000D01*
X140811000Y-58787000D02*
X142017667Y-58787000D01*
X140811000Y-58907000D02*
X142017667Y-58907000D01*
X140811000Y-59027000D02*
X142017667Y-59027000D01*
X140811000Y-59147000D02*
X142017667Y-59147000D01*
X140811000Y-59267000D02*
X142017667Y-59267000D01*
X140811000Y-59387000D02*
X142017667Y-59387000D01*
X140811000Y-59507000D02*
X142017667Y-59507000D01*
X140811000Y-59627000D02*
X142017667Y-59627000D01*
X140811000Y-59747000D02*
X142017667Y-59747000D01*
X140811000Y-59817000D02*
X144431000Y-59817000D01*
X142017667Y-50927000D02*
X142017667Y-52197000D01*
X142017667Y-53467000D02*
X142017667Y-54737000D01*
X142017667Y-56007000D02*
X142017667Y-57277000D01*
X142017667Y-58547000D02*
X142017667Y-59817000D01*
X144431000Y-50927000D02*
X140811000Y-50927000D01*
X144431000Y-52197000D02*
X144431000Y-50927000D01*
X144431000Y-53467000D02*
X140811000Y-53467000D01*
X144431000Y-54737000D02*
X144431000Y-53467000D01*
X144431000Y-56007000D02*
X140811000Y-56007000D01*
X144431000Y-57277000D02*
X144431000Y-56007000D01*
X144431000Y-58547000D02*
X140811000Y-58547000D01*
X144431000Y-59817000D02*
X144431000Y-58547000D01*
X146032000Y-49452000D02*
X146032000Y-50572000D01*
X146032000Y-52552000D02*
X146032000Y-53113000D01*
X146032000Y-55092000D02*
X146032000Y-55653000D01*
X146032000Y-57632000D02*
X146032000Y-58193000D01*
X146032000Y-60172000D02*
X146032000Y-61292000D01*
%TO.C,J6*%
X142748000Y-83058000D02*
X141478000Y-83058000D01*
X142748000Y-81788000D02*
X142748000Y-83058000D01*
X140435071Y-79628000D02*
X139980929Y-79628000D01*
X140435071Y-78868000D02*
X139980929Y-78868000D01*
X140435071Y-77088000D02*
X139980929Y-77088000D01*
X140435071Y-76328000D02*
X139980929Y-76328000D01*
X140435071Y-74548000D02*
X139980929Y-74548000D01*
X140435071Y-73788000D02*
X139980929Y-73788000D01*
X140435071Y-72008000D02*
X139980929Y-72008000D01*
X140435071Y-71248000D02*
X139980929Y-71248000D01*
X140435071Y-69468000D02*
X139980929Y-69468000D01*
X140435071Y-68708000D02*
X139980929Y-68708000D01*
X140435071Y-66928000D02*
X139980929Y-66928000D01*
X140435071Y-66168000D02*
X139980929Y-66168000D01*
X140435071Y-64388000D02*
X139980929Y-64388000D01*
X140435071Y-63628000D02*
X139980929Y-63628000D01*
X140368000Y-82168000D02*
X139980929Y-82168000D01*
X140368000Y-81408000D02*
X139980929Y-81408000D01*
X137895071Y-82168000D02*
X137498000Y-82168000D01*
X137895071Y-81408000D02*
X137498000Y-81408000D01*
X137895071Y-79628000D02*
X137498000Y-79628000D01*
X137895071Y-78868000D02*
X137498000Y-78868000D01*
X137895071Y-77088000D02*
X137498000Y-77088000D01*
X137895071Y-76328000D02*
X137498000Y-76328000D01*
X137895071Y-74548000D02*
X137498000Y-74548000D01*
X137895071Y-73788000D02*
X137498000Y-73788000D01*
X137895071Y-72008000D02*
X137498000Y-72008000D01*
X137895071Y-71248000D02*
X137498000Y-71248000D01*
X137895071Y-69468000D02*
X137498000Y-69468000D01*
X137895071Y-68708000D02*
X137498000Y-68708000D01*
X137895071Y-66928000D02*
X137498000Y-66928000D01*
X137895071Y-66168000D02*
X137498000Y-66168000D01*
X137895071Y-64388000D02*
X137498000Y-64388000D01*
X137895071Y-63628000D02*
X137498000Y-63628000D01*
X137498000Y-83118000D02*
X137498000Y-62678000D01*
X137498000Y-80518000D02*
X134838000Y-80518000D01*
X137498000Y-77978000D02*
X134838000Y-77978000D01*
X137498000Y-75438000D02*
X134838000Y-75438000D01*
X137498000Y-72898000D02*
X134838000Y-72898000D01*
X137498000Y-70358000D02*
X134838000Y-70358000D01*
X137498000Y-67818000D02*
X134838000Y-67818000D01*
X137498000Y-65278000D02*
X134838000Y-65278000D01*
X137498000Y-62678000D02*
X134838000Y-62678000D01*
X134838000Y-83118000D02*
X137498000Y-83118000D01*
X134838000Y-82168000D02*
X128838000Y-82168000D01*
X134838000Y-82108000D02*
X128838000Y-82108000D01*
X134838000Y-81988000D02*
X128838000Y-81988000D01*
X134838000Y-81868000D02*
X128838000Y-81868000D01*
X134838000Y-81748000D02*
X128838000Y-81748000D01*
X134838000Y-81628000D02*
X128838000Y-81628000D01*
X134838000Y-81508000D02*
X128838000Y-81508000D01*
X134838000Y-79628000D02*
X128838000Y-79628000D01*
X134838000Y-77088000D02*
X128838000Y-77088000D01*
X134838000Y-74548000D02*
X128838000Y-74548000D01*
X134838000Y-72008000D02*
X128838000Y-72008000D01*
X134838000Y-69468000D02*
X128838000Y-69468000D01*
X134838000Y-66928000D02*
X128838000Y-66928000D01*
X134838000Y-64388000D02*
X128838000Y-64388000D01*
X134838000Y-62678000D02*
X134838000Y-83118000D01*
X128838000Y-82168000D02*
X128838000Y-81408000D01*
X128838000Y-81408000D02*
X134838000Y-81408000D01*
X128838000Y-79628000D02*
X128838000Y-78868000D01*
X128838000Y-78868000D02*
X134838000Y-78868000D01*
X128838000Y-77088000D02*
X128838000Y-76328000D01*
X128838000Y-76328000D02*
X134838000Y-76328000D01*
X128838000Y-74548000D02*
X128838000Y-73788000D01*
X128838000Y-73788000D02*
X134838000Y-73788000D01*
X128838000Y-72008000D02*
X128838000Y-71248000D01*
X128838000Y-71248000D02*
X134838000Y-71248000D01*
X128838000Y-69468000D02*
X128838000Y-68708000D01*
X128838000Y-68708000D02*
X134838000Y-68708000D01*
X128838000Y-66928000D02*
X128838000Y-66168000D01*
X128838000Y-66168000D02*
X134838000Y-66168000D01*
X128838000Y-64388000D02*
X128838000Y-63628000D01*
X128838000Y-63628000D02*
X134838000Y-63628000D01*
%TO.C,J4*%
X172108900Y-51435000D02*
X172108900Y-109915000D01*
X172108900Y-51435000D02*
X174768900Y-51435000D01*
X172108900Y-109915000D02*
X174768900Y-109915000D01*
X173438900Y-48835000D02*
X174768900Y-48835000D01*
X174768900Y-48835000D02*
X174768900Y-50165000D01*
X174768900Y-51435000D02*
X174768900Y-109915000D01*
%TO.C,U2*%
X156946700Y-48780000D02*
X156946700Y-74420000D01*
X156946700Y-74420000D02*
X167446700Y-74420000D01*
X159946700Y-48840000D02*
X159946700Y-74360000D01*
X159946700Y-74360000D02*
X164446700Y-74360000D01*
X161196700Y-48840000D02*
X159946700Y-48840000D01*
X164446700Y-48840000D02*
X163196700Y-48840000D01*
X164446700Y-74360000D02*
X164446700Y-48840000D01*
X167446700Y-48780000D02*
X156946700Y-48780000D01*
X167446700Y-74420000D02*
X167446700Y-48780000D01*
X161196700Y-48840000D02*
G75*
G03*
X163196700Y-48840000I1000000J0D01*
G01*
%TO.C,U1*%
X156860500Y-76308600D02*
X156860500Y-101948600D01*
X156860500Y-101948600D02*
X167360500Y-101948600D01*
X159860500Y-76368600D02*
X159860500Y-101888600D01*
X159860500Y-101888600D02*
X164360500Y-101888600D01*
X161110500Y-76368600D02*
X159860500Y-76368600D01*
X164360500Y-76368600D02*
X163110500Y-76368600D01*
X164360500Y-101888600D02*
X164360500Y-76368600D01*
X167360500Y-76308600D02*
X156860500Y-76308600D01*
X167360500Y-101948600D02*
X167360500Y-76308600D01*
X161110500Y-76368600D02*
G75*
G03*
X163110500Y-76368600I1000000J0D01*
G01*
%TD*%
M02*
