%TF.GenerationSoftware,KiCad,Pcbnew,7.0.1*%
%TF.CreationDate,2023-05-02T10:19:58-07:00*%
%TF.ProjectId,tn9k_f18_fat,746e396b-5f66-4313-985f-6661742e6b69,rev?*%
%TF.SameCoordinates,Original*%
%TF.FileFunction,Copper,L1,Top*%
%TF.FilePolarity,Positive*%
%FSLAX46Y46*%
G04 Gerber Fmt 4.6, Leading zero omitted, Abs format (unit mm)*
G04 Created by KiCad (PCBNEW 7.0.1) date 2023-05-02 10:19:58*
%MOMM*%
%LPD*%
G01*
G04 APERTURE LIST*
%TA.AperFunction,ComponentPad*%
%ADD10R,2.400000X1.600000*%
%TD*%
%TA.AperFunction,ComponentPad*%
%ADD11O,2.400000X1.600000*%
%TD*%
%TA.AperFunction,ComponentPad*%
%ADD12R,1.700000X1.700000*%
%TD*%
%TA.AperFunction,ComponentPad*%
%ADD13O,1.700000X1.700000*%
%TD*%
%TA.AperFunction,ComponentPad*%
%ADD14R,1.600000X1.600000*%
%TD*%
%TA.AperFunction,ComponentPad*%
%ADD15O,1.600000X1.600000*%
%TD*%
%TA.AperFunction,ViaPad*%
%ADD16C,1.000000*%
%TD*%
%TA.AperFunction,ViaPad*%
%ADD17C,0.800000*%
%TD*%
%TA.AperFunction,Conductor*%
%ADD18C,0.500000*%
%TD*%
%TA.AperFunction,Conductor*%
%ADD19C,0.250000*%
%TD*%
G04 APERTURE END LIST*
D10*
%TO.P,U3,1,DIR*%
%TO.N,VCC*%
X138811000Y-85852000D03*
D11*
%TO.P,U3,2,A0*%
%TO.N,~{RESET}*%
X138811000Y-88392000D03*
%TO.P,U3,3,A1*%
%TO.N,~{INT_3V3}*%
X138811000Y-90932000D03*
%TO.P,U3,4,A2*%
%TO.N,~{CSW}*%
X138811000Y-93472000D03*
%TO.P,U3,5,A3*%
%TO.N,~{CSR}*%
X138811000Y-96012000D03*
%TO.P,U3,6,A4*%
%TO.N,MODE*%
X138811000Y-98552000D03*
%TO.P,U3,7,A5*%
%TO.N,CPUCLK_3V3*%
X138811000Y-101092000D03*
%TO.P,U3,8,A6*%
%TO.N,GROMCLK_3V3*%
X138811000Y-103632000D03*
%TO.P,U3,9,A7*%
%TO.N,unconnected-(U3-A7-Pad9)*%
X138811000Y-106172000D03*
%TO.P,U3,10,GND*%
%TO.N,GND*%
X138811000Y-108712000D03*
%TO.P,U3,11,B7*%
%TO.N,unconnected-(U3-B7-Pad11)*%
X146431000Y-108712000D03*
%TO.P,U3,12,B6*%
%TO.N,GROMCLK*%
X146431000Y-106172000D03*
%TO.P,U3,13,B5*%
%TO.N,CPUCLK*%
X146431000Y-103632000D03*
%TO.P,U3,14,B4*%
%TO.N,MODE_3V3*%
X146431000Y-101092000D03*
%TO.P,U3,15,B3*%
%TO.N,~{CSR_3V3}*%
X146431000Y-98552000D03*
%TO.P,U3,16,B2*%
%TO.N,~{CSW_3V3}*%
X146431000Y-96012000D03*
%TO.P,U3,17,B1*%
%TO.N,~{INT}*%
X146431000Y-93472000D03*
%TO.P,U3,18,B0*%
%TO.N,~{RESET_3V3}*%
X146431000Y-90932000D03*
%TO.P,U3,19,~{0E}*%
%TO.N,GND*%
X146431000Y-88392000D03*
%TO.P,U3,20,VCC*%
%TO.N,VCC_3V3*%
X146431000Y-85852000D03*
%TD*%
D12*
%TO.P,J3,1,Pin_1*%
%TO.N,MODE_3V3*%
X150622000Y-50165000D03*
D13*
%TO.P,J3,2,Pin_2*%
%TO.N,~{CSW_3V3}*%
X150622000Y-52705000D03*
%TO.P,J3,3,Pin_3*%
%TO.N,~{CSR_3V3}*%
X150622000Y-55245000D03*
%TO.P,J3,4,Pin_4*%
%TO.N,~{INT_3V3}*%
X150622000Y-57785000D03*
%TO.P,J3,5,Pin_5*%
%TO.N,CPUCLK_3V3*%
X150622000Y-60325000D03*
%TO.P,J3,6,Pin_6*%
%TO.N,GROMCLK_3V3*%
X150622000Y-62865000D03*
%TO.P,J3,7,Pin_7*%
%TO.N,~{RESET_3V3}*%
X150622000Y-65405000D03*
%TO.P,J3,8,Pin_8*%
%TO.N,CD0_3V3*%
X150622000Y-67945000D03*
%TO.P,J3,9,Pin_9*%
%TO.N,CD1_3V3*%
X150622000Y-70485000D03*
%TO.P,J3,10,Pin_10*%
%TO.N,CD2_3V3*%
X150622000Y-73025000D03*
%TO.P,J3,11,Pin_11*%
%TO.N,CD3_3V3*%
X150622000Y-75565000D03*
%TO.P,J3,12,Pin_12*%
%TO.N,CD4_3V3*%
X150622000Y-78105000D03*
%TO.P,J3,13,Pin_13*%
%TO.N,CD5_3V3*%
X150622000Y-80645000D03*
%TO.P,J3,14,Pin_14*%
%TO.N,CD6_3V3*%
X150622000Y-83185000D03*
%TO.P,J3,15,Pin_15*%
%TO.N,CD7_3V3*%
X150622000Y-85725000D03*
%TO.P,J3,16,Pin_16*%
%TO.N,VS_3V3*%
X150622000Y-88265000D03*
%TO.P,J3,17,Pin_17*%
%TO.N,R3_3V3*%
X150622000Y-90805000D03*
%TO.P,J3,18,Pin_18*%
%TO.N,R2_3V3*%
X150622000Y-93345000D03*
%TO.P,J3,19,Pin_19*%
%TO.N,G3_3V3*%
X150622000Y-95885000D03*
%TO.P,J3,20,Pin_20*%
%TO.N,G2_3V3*%
X150622000Y-98425000D03*
%TO.P,J3,21,Pin_21*%
%TO.N,G1_3V3*%
X150622000Y-100965000D03*
%TO.P,J3,22,Pin_22*%
%TO.N,G0_3V3*%
X150622000Y-103505000D03*
%TO.P,J3,23,Pin_23*%
%TO.N,unconnected-(J3-Pin_23-Pad23)*%
X150622000Y-106045000D03*
%TO.P,J3,24,Pin_24*%
%TO.N,unconnected-(J3-Pin_24-Pad24)*%
X150622000Y-108585000D03*
%TD*%
D14*
%TO.P,J5,1,Pin_1*%
%TO.N,USR1_1V8*%
X138811000Y-51562000D03*
D15*
%TO.P,J5,2,Pin_2*%
%TO.N,USR2_1V8*%
X138811000Y-54102000D03*
%TO.P,J5,3,Pin_3*%
%TO.N,USR3_1V8*%
X138811000Y-56642000D03*
%TO.P,J5,4,Pin_4*%
%TO.N,USR4_1V8*%
X138811000Y-59182000D03*
%TO.P,J5,5,Pin_5*%
%TO.N,GND*%
X146431000Y-59182000D03*
%TO.P,J5,6,Pin_6*%
X146431000Y-56642000D03*
%TO.P,J5,7,Pin_7*%
X146431000Y-54102000D03*
%TO.P,J5,8,Pin_8*%
X146431000Y-51562000D03*
%TD*%
D12*
%TO.P,J6,1,Pin_1*%
%TO.N,R0_3V3*%
X141478000Y-81788000D03*
D13*
%TO.P,J6,2,Pin_2*%
%TO.N,R1_3V3*%
X138938000Y-81788000D03*
%TO.P,J6,3,Pin_3*%
%TO.N,R2_3V3*%
X141478000Y-79248000D03*
%TO.P,J6,4,Pin_4*%
%TO.N,R3_3V3*%
X138938000Y-79248000D03*
%TO.P,J6,5,Pin_5*%
%TO.N,G0_3V3*%
X141478000Y-76708000D03*
%TO.P,J6,6,Pin_6*%
%TO.N,G1_3V3*%
X138938000Y-76708000D03*
%TO.P,J6,7,Pin_7*%
%TO.N,G2_3V3*%
X141478000Y-74168000D03*
%TO.P,J6,8,Pin_8*%
%TO.N,G3_3V3*%
X138938000Y-74168000D03*
%TO.P,J6,9,Pin_9*%
%TO.N,B0_3V3*%
X141478000Y-71628000D03*
%TO.P,J6,10,Pin_10*%
%TO.N,B1_3V3*%
X138938000Y-71628000D03*
%TO.P,J6,11,Pin_11*%
%TO.N,B2_3V3*%
X141478000Y-69088000D03*
%TO.P,J6,12,Pin_12*%
%TO.N,B3_3V3*%
X138938000Y-69088000D03*
%TO.P,J6,13,Pin_13*%
%TO.N,HS_3V3*%
X141478000Y-66548000D03*
%TO.P,J6,14,Pin_14*%
%TO.N,VS_3V3*%
X138938000Y-66548000D03*
%TO.P,J6,15,Pin_15*%
%TO.N,GND*%
X141478000Y-64008000D03*
%TO.P,J6,16,Pin_16*%
%TO.N,VCC*%
X138938000Y-64008000D03*
%TD*%
D12*
%TO.P,J4,1,Pin_1*%
%TO.N,HS_3V3*%
X173438900Y-50165000D03*
D13*
%TO.P,J4,2,Pin_2*%
%TO.N,USR1_1V8*%
X173438900Y-52705000D03*
%TO.P,J4,3,Pin_3*%
%TO.N,USR2_1V8*%
X173438900Y-55245000D03*
%TO.P,J4,4,Pin_4*%
%TO.N,USR3_1V8*%
X173438900Y-57785000D03*
%TO.P,J4,5,Pin_5*%
%TO.N,USR4_1V8*%
X173438900Y-60325000D03*
%TO.P,J4,6,Pin_6*%
%TO.N,unconnected-(J4-Pin_6-Pad6)*%
X173438900Y-62865000D03*
%TO.P,J4,7,Pin_7*%
%TO.N,unconnected-(J4-Pin_7-Pad7)*%
X173438900Y-65405000D03*
%TO.P,J4,8,Pin_8*%
%TO.N,unconnected-(J4-Pin_8-Pad8)*%
X173438900Y-67945000D03*
%TO.P,J4,9,Pin_9*%
%TO.N,unconnected-(J4-Pin_9-Pad9)*%
X173438900Y-70485000D03*
%TO.P,J4,10,Pin_10*%
%TO.N,R1_3V3*%
X173438900Y-73025000D03*
%TO.P,J4,11,Pin_11*%
%TO.N,R0_3V3*%
X173438900Y-75565000D03*
%TO.P,J4,12,Pin_12*%
%TO.N,unconnected-(J4-Pin_12-Pad12)*%
X173438900Y-78105000D03*
%TO.P,J4,13,Pin_13*%
%TO.N,unconnected-(J4-Pin_13-Pad13)*%
X173438900Y-80645000D03*
%TO.P,J4,14,Pin_14*%
%TO.N,unconnected-(J4-Pin_14-Pad14)*%
X173438900Y-83185000D03*
%TO.P,J4,15,Pin_15*%
%TO.N,unconnected-(J4-Pin_15-Pad15)*%
X173438900Y-85725000D03*
%TO.P,J4,16,Pin_16*%
%TO.N,unconnected-(J4-Pin_16-Pad16)*%
X173438900Y-88265000D03*
%TO.P,J4,17,Pin_17*%
%TO.N,unconnected-(J4-Pin_17-Pad17)*%
X173438900Y-90805000D03*
%TO.P,J4,18,Pin_18*%
%TO.N,VCC*%
X173438900Y-93345000D03*
%TO.P,J4,19,Pin_19*%
%TO.N,B3_3V3*%
X173438900Y-95885000D03*
%TO.P,J4,20,Pin_20*%
%TO.N,B2_3V3*%
X173438900Y-98425000D03*
%TO.P,J4,21,Pin_21*%
%TO.N,B1_3V3*%
X173438900Y-100965000D03*
%TO.P,J4,22,Pin_22*%
%TO.N,B0_3V3*%
X173438900Y-103505000D03*
%TO.P,J4,23,Pin_23*%
%TO.N,GND*%
X173438900Y-106045000D03*
%TO.P,J4,24,Pin_24*%
%TO.N,VCC_3V3*%
X173438900Y-108585000D03*
%TD*%
D10*
%TO.P,U2,1,DIR*%
%TO.N,VCC*%
X158386700Y-50170000D03*
D11*
%TO.P,U2,2,A0*%
%TO.N,CD0*%
X158386700Y-52710000D03*
%TO.P,U2,3,A1*%
%TO.N,CD1*%
X158386700Y-55250000D03*
%TO.P,U2,4,A2*%
%TO.N,CD2*%
X158386700Y-57790000D03*
%TO.P,U2,5,A3*%
%TO.N,CD3*%
X158386700Y-60330000D03*
%TO.P,U2,6,A4*%
%TO.N,CD4*%
X158386700Y-62870000D03*
%TO.P,U2,7,A5*%
%TO.N,CD5*%
X158386700Y-65410000D03*
%TO.P,U2,8,A6*%
%TO.N,CD6*%
X158386700Y-67950000D03*
%TO.P,U2,9,A7*%
%TO.N,CD7*%
X158386700Y-70490000D03*
%TO.P,U2,10,GND*%
%TO.N,GND*%
X158386700Y-73030000D03*
%TO.P,U2,11,B7*%
%TO.N,CD7_3V3*%
X166006700Y-73030000D03*
%TO.P,U2,12,B6*%
%TO.N,CD6_3V3*%
X166006700Y-70490000D03*
%TO.P,U2,13,B5*%
%TO.N,CD5_3V3*%
X166006700Y-67950000D03*
%TO.P,U2,14,B4*%
%TO.N,CD4_3V3*%
X166006700Y-65410000D03*
%TO.P,U2,15,B3*%
%TO.N,CD3_3V3*%
X166006700Y-62870000D03*
%TO.P,U2,16,B2*%
%TO.N,CD2_3V3*%
X166006700Y-60330000D03*
%TO.P,U2,17,B1*%
%TO.N,CD1_3V3*%
X166006700Y-57790000D03*
%TO.P,U2,18,B0*%
%TO.N,CD0_3V3*%
X166006700Y-55250000D03*
%TO.P,U2,19,~{0E}*%
%TO.N,~{CSW}*%
X166006700Y-52710000D03*
%TO.P,U2,20,VCC*%
%TO.N,VCC_3V3*%
X166006700Y-50170000D03*
%TD*%
D10*
%TO.P,U1,1,DIR*%
%TO.N,GND*%
X158300500Y-77698600D03*
D11*
%TO.P,U1,2,A0*%
%TO.N,CD0*%
X158300500Y-80238600D03*
%TO.P,U1,3,A1*%
%TO.N,CD1*%
X158300500Y-82778600D03*
%TO.P,U1,4,A2*%
%TO.N,CD2*%
X158300500Y-85318600D03*
%TO.P,U1,5,A3*%
%TO.N,CD3*%
X158300500Y-87858600D03*
%TO.P,U1,6,A4*%
%TO.N,CD4*%
X158300500Y-90398600D03*
%TO.P,U1,7,A5*%
%TO.N,CD5*%
X158300500Y-92938600D03*
%TO.P,U1,8,A6*%
%TO.N,CD6*%
X158300500Y-95478600D03*
%TO.P,U1,9,A7*%
%TO.N,CD7*%
X158300500Y-98018600D03*
%TO.P,U1,10,GND*%
%TO.N,GND*%
X158300500Y-100558600D03*
%TO.P,U1,11,B7*%
%TO.N,CD7_3V3*%
X165920500Y-100558600D03*
%TO.P,U1,12,B6*%
%TO.N,CD6_3V3*%
X165920500Y-98018600D03*
%TO.P,U1,13,B5*%
%TO.N,CD5_3V3*%
X165920500Y-95478600D03*
%TO.P,U1,14,B4*%
%TO.N,CD4_3V3*%
X165920500Y-92938600D03*
%TO.P,U1,15,B3*%
%TO.N,CD3_3V3*%
X165920500Y-90398600D03*
%TO.P,U1,16,B2*%
%TO.N,CD2_3V3*%
X165920500Y-87858600D03*
%TO.P,U1,17,B1*%
%TO.N,CD1_3V3*%
X165920500Y-85318600D03*
%TO.P,U1,18,B0*%
%TO.N,CD0_3V3*%
X165920500Y-82778600D03*
%TO.P,U1,19,~{0E}*%
%TO.N,~{CSR}*%
X165920500Y-80238600D03*
%TO.P,U1,20,VCC*%
%TO.N,VCC_3V3*%
X165920500Y-77698600D03*
%TD*%
D12*
%TO.P,J2,1,Pin_1*%
%TO.N,unconnected-(J2-Pin_1-Pad1)*%
X154566700Y-98420000D03*
D13*
%TO.P,J2,2,Pin_2*%
%TO.N,unconnected-(J2-Pin_2-Pad2)*%
X154566700Y-95880000D03*
%TO.P,J2,3,Pin_3*%
%TO.N,CPUCLK*%
X154566700Y-93340000D03*
%TO.P,J2,4,Pin_4*%
%TO.N,GROMCLK*%
X154566700Y-90800000D03*
%TO.P,J2,5,Pin_5*%
%TO.N,COMVID*%
X154566700Y-88260000D03*
%TO.P,J2,6,Pin_6*%
%TO.N,EXTVDP*%
X154566700Y-85720000D03*
%TO.P,J2,7,Pin_7*%
%TO.N,~{RESET}*%
X154566700Y-83180000D03*
%TO.P,J2,8,Pin_8*%
%TO.N,VCC*%
X154566700Y-80640000D03*
%TO.P,J2,9,Pin_9*%
%TO.N,unconnected-(J2-Pin_9-Pad9)*%
X154566700Y-78100000D03*
%TO.P,J2,10,Pin_10*%
%TO.N,unconnected-(J2-Pin_10-Pad10)*%
X154566700Y-75560000D03*
%TO.P,J2,11,Pin_11*%
%TO.N,unconnected-(J2-Pin_11-Pad11)*%
X154566700Y-73020000D03*
%TO.P,J2,12,Pin_12*%
%TO.N,unconnected-(J2-Pin_12-Pad12)*%
X154566700Y-70480000D03*
%TO.P,J2,13,Pin_13*%
%TO.N,unconnected-(J2-Pin_13-Pad13)*%
X154566700Y-67940000D03*
%TO.P,J2,14,Pin_14*%
%TO.N,unconnected-(J2-Pin_14-Pad14)*%
X154566700Y-65400000D03*
%TO.P,J2,15,Pin_15*%
%TO.N,unconnected-(J2-Pin_15-Pad15)*%
X154566700Y-62860000D03*
%TO.P,J2,16,Pin_16*%
%TO.N,unconnected-(J2-Pin_16-Pad16)*%
X154566700Y-60320000D03*
%TO.P,J2,17,Pin_17*%
%TO.N,CD0*%
X154566700Y-57780000D03*
%TO.P,J2,18,Pin_18*%
%TO.N,CD1*%
X154566700Y-55240000D03*
%TO.P,J2,19,Pin_19*%
%TO.N,CD2*%
X154566700Y-52700000D03*
%TO.P,J2,20,Pin_20*%
%TO.N,CD3*%
X154566700Y-50160000D03*
%TD*%
D12*
%TO.P,J1,1,Pin_1*%
%TO.N,unconnected-(J1-Pin_1-Pad1)*%
X169806700Y-98420000D03*
D13*
%TO.P,J1,2,Pin_2*%
%TO.N,unconnected-(J1-Pin_2-Pad2)*%
X169806700Y-95880000D03*
%TO.P,J1,3,Pin_3*%
%TO.N,unconnected-(J1-Pin_3-Pad3)*%
X169806700Y-93340000D03*
%TO.P,J1,4,Pin_4*%
%TO.N,unconnected-(J1-Pin_4-Pad4)*%
X169806700Y-90800000D03*
%TO.P,J1,5,Pin_5*%
%TO.N,unconnected-(J1-Pin_5-Pad5)*%
X169806700Y-88260000D03*
%TO.P,J1,6,Pin_6*%
%TO.N,unconnected-(J1-Pin_6-Pad6)*%
X169806700Y-85720000D03*
%TO.P,J1,7,Pin_7*%
%TO.N,unconnected-(J1-Pin_7-Pad7)*%
X169806700Y-83180000D03*
%TO.P,J1,8,Pin_8*%
%TO.N,unconnected-(J1-Pin_8-Pad8)*%
X169806700Y-80640000D03*
%TO.P,J1,9,Pin_9*%
%TO.N,unconnected-(J1-Pin_9-Pad9)*%
X169806700Y-78100000D03*
%TO.P,J1,10,Pin_10*%
%TO.N,unconnected-(J1-Pin_10-Pad10)*%
X169806700Y-75560000D03*
%TO.P,J1,11,Pin_11*%
%TO.N,unconnected-(J1-Pin_11-Pad11)*%
X169806700Y-73020000D03*
%TO.P,J1,12,Pin_12*%
%TO.N,GND*%
X169806700Y-70480000D03*
%TO.P,J1,13,Pin_13*%
%TO.N,MODE*%
X169806700Y-67940000D03*
%TO.P,J1,14,Pin_14*%
%TO.N,~{CSW}*%
X169806700Y-65400000D03*
%TO.P,J1,15,Pin_15*%
%TO.N,~{CSR}*%
X169806700Y-62860000D03*
%TO.P,J1,16,Pin_16*%
%TO.N,~{INT}*%
X169806700Y-60320000D03*
%TO.P,J1,17,Pin_17*%
%TO.N,CD7*%
X169806700Y-57780000D03*
%TO.P,J1,18,Pin_18*%
%TO.N,CD6*%
X169806700Y-55240000D03*
%TO.P,J1,19,Pin_19*%
%TO.N,CD5*%
X169806700Y-52700000D03*
%TO.P,J1,20,Pin_20*%
%TO.N,CD4*%
X169806700Y-50160000D03*
%TD*%
D16*
%TO.N,VCC_3V3*%
X164210400Y-83660000D03*
X144060000Y-90259600D03*
D17*
%TO.N,VS_3V3*%
X143457100Y-79985400D03*
%TO.N,R2_3V3*%
X149629700Y-84507400D03*
D16*
%TO.N,VCC*%
X163905000Y-76019200D03*
D17*
%TO.N,B0_3V3*%
X140123500Y-67733900D03*
X172016200Y-107700800D03*
%TO.N,B2_3V3*%
X160964300Y-99367000D03*
X152528200Y-74664000D03*
%TO.N,~{INT_3V3}*%
X143917500Y-65111800D03*
%TO.N,GROMCLK_3V3*%
X145092700Y-68599500D03*
%TO.N,CD0_3V3*%
X161426000Y-61575100D03*
%TO.N,CD2_3V3*%
X152931900Y-72486000D03*
X156667000Y-81387200D03*
%TO.N,CD4_3V3*%
X175790100Y-68345400D03*
X174469400Y-84304000D03*
%TO.N,CD5_3V3*%
X168306800Y-68289000D03*
X171464500Y-87084800D03*
%TO.N,CD7_3V3*%
X163357600Y-82590600D03*
%TO.N,G0_3V3*%
X143083900Y-81011700D03*
%TO.N,G2_3V3*%
X149128900Y-82118100D03*
%TO.N,MODE*%
X143120400Y-109137900D03*
%TO.N,~{CSW}*%
X144642600Y-72261600D03*
%TO.N,~{INT}*%
X163340100Y-110283100D03*
X143450300Y-93555400D03*
%TO.N,CD4*%
X160920200Y-91361800D03*
%TO.N,CD2*%
X161927000Y-85607400D03*
%TO.N,~{RESET}*%
X153041000Y-92061500D03*
%TD*%
D18*
%TO.N,VCC_3V3*%
X164270400Y-77698600D02*
X164270400Y-76997600D01*
X164210400Y-93423000D02*
X164996000Y-94208600D01*
X167600100Y-104743100D02*
X171442000Y-108585000D01*
X164855100Y-75383100D02*
X164356500Y-74884500D01*
X164210400Y-83660000D02*
X164210400Y-93423000D01*
X164996000Y-94208600D02*
X166850500Y-94208600D01*
X144300400Y-90500000D02*
X144060000Y-90259600D01*
X171442000Y-108585000D02*
X172138800Y-108585000D01*
X167600100Y-94958200D02*
X167600100Y-104743100D01*
X144300400Y-106301200D02*
X144300400Y-90500000D01*
X173438900Y-108585000D02*
X172138800Y-108585000D01*
X165920500Y-77698600D02*
X164270400Y-77698600D01*
X164356500Y-51820200D02*
X166006700Y-50170000D01*
X150014000Y-109894700D02*
X147561100Y-107441800D01*
X164855100Y-76412900D02*
X164855100Y-75383100D01*
X164270400Y-76997600D02*
X164855100Y-76412900D01*
X167600100Y-104743100D02*
X162448500Y-109894700D01*
X166850500Y-94208600D02*
X167600100Y-94958200D01*
X145441000Y-107441800D02*
X144300400Y-106301200D01*
X147561100Y-107441800D02*
X145441000Y-107441800D01*
X162448500Y-109894700D02*
X150014000Y-109894700D01*
X164356500Y-74884500D02*
X164356500Y-51820200D01*
%TO.N,GND*%
X145957800Y-84157200D02*
X145957800Y-65924600D01*
X144583900Y-88392000D02*
X142463100Y-90512800D01*
X168462800Y-101068900D02*
X173438900Y-106045000D01*
X158386700Y-73030000D02*
X156736600Y-73030000D01*
X146431000Y-56642000D02*
X146431000Y-54102000D01*
X146431000Y-51562000D02*
X146431000Y-54102000D01*
X146431000Y-59182000D02*
X146431000Y-60432100D01*
X146431000Y-88392000D02*
X144780800Y-88392000D01*
X144780800Y-85334200D02*
X145957800Y-84157200D01*
X144041200Y-64008000D02*
X141478000Y-64008000D01*
X145957800Y-65924600D02*
X144041200Y-64008000D01*
X168462800Y-71823900D02*
X168462800Y-101068900D01*
X146431000Y-60432100D02*
X144041200Y-62821900D01*
X146431000Y-56642000D02*
X146431000Y-59182000D01*
X144041200Y-62821900D02*
X144041200Y-64008000D01*
X144780800Y-88392000D02*
X144780800Y-85334200D01*
X138811000Y-108712000D02*
X140461100Y-108712000D01*
X142463100Y-90512800D02*
X142463100Y-106710000D01*
X158300500Y-77698600D02*
X156650400Y-77698600D01*
X156736600Y-73030000D02*
X156650400Y-73116200D01*
X144780800Y-88392000D02*
X144583900Y-88392000D01*
X142463100Y-106710000D02*
X140461100Y-108712000D01*
X156650400Y-73116200D02*
X156650400Y-77698600D01*
X169806700Y-70480000D02*
X168462800Y-71823900D01*
D19*
%TO.N,VS_3V3*%
X137736100Y-72168700D02*
X137736100Y-68559700D01*
X137736100Y-68559700D02*
X138572700Y-67723100D01*
X141968500Y-75532800D02*
X141178700Y-75532800D01*
X138572700Y-67723100D02*
X138938000Y-67723100D01*
X138938000Y-66548000D02*
X138938000Y-67723100D01*
X140113200Y-73642300D02*
X139368900Y-72898000D01*
X140113200Y-74467300D02*
X140113200Y-73642300D01*
X138465400Y-72898000D02*
X137736100Y-72168700D01*
X141178700Y-75532800D02*
X140113200Y-74467300D01*
X143457100Y-79985400D02*
X143457100Y-77021400D01*
X143457100Y-77021400D02*
X141968500Y-75532800D01*
X139368900Y-72898000D02*
X138465400Y-72898000D01*
%TO.N,USR4_1V8*%
X174660900Y-49159000D02*
X174660900Y-58293100D01*
X138811000Y-59182000D02*
X138811000Y-58056900D01*
X138811000Y-58056900D02*
X138529700Y-58056900D01*
X174660900Y-58293100D02*
X173804100Y-59149900D01*
X138529700Y-58056900D02*
X137676300Y-57203500D01*
X137676300Y-56127500D02*
X138431800Y-55372000D01*
X173755600Y-48253700D02*
X174660900Y-49159000D01*
X139768700Y-55372000D02*
X146887000Y-48253700D01*
X137676300Y-57203500D02*
X137676300Y-56127500D01*
X138431800Y-55372000D02*
X139768700Y-55372000D01*
X146887000Y-48253700D02*
X173755600Y-48253700D01*
X173438900Y-60325000D02*
X173438900Y-59149900D01*
X173804100Y-59149900D02*
X173438900Y-59149900D01*
%TO.N,R2_3V3*%
X149629700Y-84507400D02*
X149446800Y-84690300D01*
X150254800Y-92169900D02*
X150622000Y-92169900D01*
X150622000Y-93345000D02*
X150622000Y-92169900D01*
X149446800Y-84690300D02*
X149446800Y-91361900D01*
X149446800Y-91361900D02*
X150254800Y-92169900D01*
D18*
%TO.N,VCC*%
X172314600Y-87437000D02*
X172314600Y-86732600D01*
X138938000Y-64008000D02*
X138938000Y-62707900D01*
X155395500Y-48828900D02*
X156736600Y-50170000D01*
X163551800Y-50445800D02*
X160312600Y-50445800D01*
X173438900Y-93345000D02*
X172132700Y-92038800D01*
X172314600Y-86732600D02*
X172072100Y-86490100D01*
X170408400Y-48853000D02*
X165144600Y-48853000D01*
X172132700Y-92038800D02*
X172132700Y-87618900D01*
X163654900Y-75769100D02*
X163905000Y-76019200D01*
X165144600Y-48853000D02*
X163551800Y-50445800D01*
X172132700Y-87618900D02*
X172314600Y-87437000D01*
X158386700Y-50170000D02*
X156736600Y-50170000D01*
X172072100Y-50516700D02*
X170408400Y-48853000D01*
X172072100Y-86490100D02*
X172072100Y-50516700D01*
X163654900Y-50548900D02*
X163654900Y-75769100D01*
X158386700Y-50170000D02*
X160036800Y-50170000D01*
X137160900Y-65785100D02*
X138938000Y-64008000D01*
X160312600Y-50445800D02*
X160036800Y-50170000D01*
X138938000Y-62707900D02*
X140177800Y-61468100D01*
X137160900Y-85852000D02*
X137160900Y-65785100D01*
X140177800Y-55983400D02*
X147332300Y-48828900D01*
X138811000Y-85852000D02*
X137160900Y-85852000D01*
X163551800Y-50445800D02*
X163654900Y-50548900D01*
X147332300Y-48828900D02*
X155395500Y-48828900D01*
X140177800Y-61468100D02*
X140177800Y-55983400D01*
D19*
%TO.N,B0_3V3*%
X173438900Y-103505000D02*
X173438900Y-104680100D01*
X174623700Y-106559400D02*
X173962900Y-107220200D01*
X141478000Y-71628000D02*
X141478000Y-70452900D01*
X140123500Y-69463700D02*
X141112700Y-70452900D01*
X141112700Y-70452900D02*
X141478000Y-70452900D01*
X140123500Y-67733900D02*
X140123500Y-69463700D01*
X173806100Y-104680100D02*
X174623700Y-105497700D01*
X174623700Y-105497700D02*
X174623700Y-106559400D01*
X173438900Y-104680100D02*
X173806100Y-104680100D01*
X173962900Y-107220200D02*
X172496800Y-107220200D01*
X172496800Y-107220200D02*
X172016200Y-107700800D01*
%TO.N,B2_3V3*%
X157419600Y-99367000D02*
X155747900Y-97695300D01*
X155747900Y-82617300D02*
X155040600Y-81910000D01*
X155040600Y-81910000D02*
X154162700Y-81910000D01*
X155747900Y-97695300D02*
X155747900Y-82617300D01*
X152528200Y-80275500D02*
X152528200Y-74664000D01*
X154162700Y-81910000D02*
X152528200Y-80275500D01*
X160964300Y-99367000D02*
X157419600Y-99367000D01*
%TO.N,MODE_3V3*%
X152285800Y-98459300D02*
X151050100Y-99695000D01*
X146431000Y-101092000D02*
X147956100Y-101092000D01*
X152260700Y-72039200D02*
X151800100Y-72499800D01*
X152260700Y-52611600D02*
X152260700Y-72039200D01*
X150622000Y-50165000D02*
X150622000Y-51340100D01*
X151800100Y-72499800D02*
X151800100Y-81097000D01*
X151050100Y-99695000D02*
X149353100Y-99695000D01*
X152285800Y-81582700D02*
X152285800Y-98459300D01*
X150622000Y-51340100D02*
X150989200Y-51340100D01*
X151800100Y-81097000D02*
X152285800Y-81582700D01*
X150989200Y-51340100D02*
X152260700Y-52611600D01*
X149353100Y-99695000D02*
X147956100Y-101092000D01*
%TO.N,~{CSW_3V3}*%
X150622000Y-52705000D02*
X150622000Y-53880100D01*
X150140900Y-69215000D02*
X151033500Y-69215000D01*
X151033500Y-69215000D02*
X151802200Y-68446300D01*
X148382300Y-80756800D02*
X149446800Y-79692300D01*
X148870400Y-95097700D02*
X148870400Y-83732700D01*
X149446800Y-79692300D02*
X149446800Y-69909100D01*
X146431000Y-96012000D02*
X147956100Y-96012000D01*
X150989200Y-53880100D02*
X150622000Y-53880100D01*
X147956100Y-96012000D02*
X148870400Y-95097700D01*
X148870400Y-83732700D02*
X148382300Y-83244600D01*
X149446800Y-69909100D02*
X150140900Y-69215000D01*
X148382300Y-83244600D02*
X148382300Y-80756800D01*
X151802200Y-68446300D02*
X151802200Y-54693100D01*
X151802200Y-54693100D02*
X150989200Y-53880100D01*
%TO.N,~{CSR_3V3}*%
X147465500Y-80082200D02*
X147465500Y-84237700D01*
X147328000Y-89517200D02*
X145794300Y-89517200D01*
X147465500Y-84237700D02*
X147965000Y-84737200D01*
X147965000Y-88880200D02*
X147328000Y-89517200D01*
X144905900Y-90405600D02*
X144905900Y-98552000D01*
X147965000Y-84737200D02*
X147965000Y-88880200D01*
X146431000Y-98552000D02*
X144905900Y-98552000D01*
X147690700Y-79857000D02*
X147465500Y-80082200D01*
X145794300Y-89517200D02*
X144905900Y-90405600D01*
X150622000Y-56420100D02*
X150254800Y-56420100D01*
X147690700Y-58984200D02*
X147690700Y-79857000D01*
X150254800Y-56420100D02*
X147690700Y-58984200D01*
X150622000Y-55245000D02*
X150622000Y-56420100D01*
%TO.N,~{INT_3V3}*%
X138970100Y-90932000D02*
X141790800Y-88111300D01*
X144192400Y-81736900D02*
X144192400Y-78186700D01*
X141790800Y-88111300D02*
X141790800Y-84138500D01*
X141790800Y-84138500D02*
X144192400Y-81736900D01*
X138811000Y-90932000D02*
X138970100Y-90932000D01*
X144192400Y-78186700D02*
X143917500Y-77911800D01*
X143917500Y-77911800D02*
X143917500Y-65111800D01*
%TO.N,GROMCLK_3V3*%
X141888000Y-89450700D02*
X143711900Y-87626800D01*
X141888000Y-102080100D02*
X141888000Y-89450700D01*
X145367800Y-68874600D02*
X145092700Y-68599500D01*
X138811000Y-103632000D02*
X140336100Y-103632000D01*
X145367800Y-81856200D02*
X145367800Y-68874600D01*
X143711900Y-87626800D02*
X143711900Y-83512100D01*
X140336100Y-103632000D02*
X141888000Y-102080100D01*
X143711900Y-83512100D02*
X145367800Y-81856200D01*
%TO.N,~{RESET_3V3}*%
X148576800Y-79925700D02*
X148576800Y-68258100D01*
X150622000Y-65405000D02*
X150622000Y-66580100D01*
X148576800Y-68258100D02*
X150254800Y-66580100D01*
X147915700Y-84051200D02*
X147915700Y-80586800D01*
X147915700Y-80586800D02*
X148576800Y-79925700D01*
X148415200Y-84550700D02*
X147915700Y-84051200D01*
X148415200Y-90472900D02*
X148415200Y-84550700D01*
X147956100Y-90932000D02*
X148415200Y-90472900D01*
X146431000Y-90932000D02*
X147956100Y-90932000D01*
X150254800Y-66580100D02*
X150622000Y-66580100D01*
%TO.N,CD0_3V3*%
X163079800Y-63228900D02*
X161426000Y-61575100D01*
X165920500Y-82778600D02*
X164395400Y-82778600D01*
X163079800Y-79937900D02*
X163079800Y-63228900D01*
X164395400Y-82778600D02*
X164395400Y-81253500D01*
X164395400Y-81253500D02*
X163079800Y-79937900D01*
%TO.N,CD1_3V3*%
X167531800Y-85232400D02*
X167531800Y-57790000D01*
X166006700Y-57790000D02*
X167531800Y-57790000D01*
X165920500Y-85318600D02*
X167445600Y-85318600D01*
X167445600Y-85318600D02*
X167531800Y-85232400D01*
%TO.N,CD2_3V3*%
X154039800Y-79275200D02*
X153375200Y-78610600D01*
X153375200Y-78610600D02*
X153375200Y-72929300D01*
X153375200Y-72929300D02*
X152931900Y-72486000D01*
X156667000Y-81387200D02*
X156667000Y-81067800D01*
X154874400Y-79275200D02*
X154039800Y-79275200D01*
X156667000Y-81067800D02*
X154874400Y-79275200D01*
%TO.N,CD4_3V3*%
X175790100Y-82983300D02*
X174469400Y-84304000D01*
X175790100Y-68345400D02*
X175790100Y-82983300D01*
%TO.N,CD5_3V3*%
X170366000Y-66764800D02*
X169287700Y-66764800D01*
X168306800Y-67745700D02*
X168306800Y-68289000D01*
X171464500Y-67863300D02*
X170366000Y-66764800D01*
X169287700Y-66764800D02*
X168306800Y-67745700D01*
X171464500Y-87084800D02*
X171464500Y-67863300D01*
%TO.N,CD7_3V3*%
X164395400Y-100558600D02*
X163357600Y-99520800D01*
X165920500Y-100558600D02*
X164395400Y-100558600D01*
X163357600Y-99520800D02*
X163357600Y-82590600D01*
%TO.N,R0_3V3*%
X173438900Y-75565000D02*
X173438900Y-74389900D01*
X175588200Y-64231900D02*
X175588200Y-48765100D01*
X140952100Y-88313300D02*
X140952100Y-83489000D01*
X174148300Y-47325200D02*
X140920200Y-47325200D01*
X141478000Y-81788000D02*
X141478000Y-82963100D01*
X175064200Y-73131800D02*
X175064200Y-64755900D01*
X136114100Y-52131300D02*
X136114100Y-87686900D01*
X175064200Y-64755900D02*
X175588200Y-64231900D01*
X175588200Y-48765100D02*
X174148300Y-47325200D01*
X137976000Y-89548800D02*
X139716600Y-89548800D01*
X136114100Y-87686900D02*
X137976000Y-89548800D01*
X173438900Y-74389900D02*
X173806100Y-74389900D01*
X139716600Y-89548800D02*
X140952100Y-88313300D01*
X140920200Y-47325200D02*
X136114100Y-52131300D01*
X173806100Y-74389900D02*
X175064200Y-73131800D01*
X140952100Y-83489000D02*
X141478000Y-82963100D01*
%TO.N,R1_3V3*%
X138938000Y-82963100D02*
X140371600Y-84396700D01*
X173942100Y-47803500D02*
X175138000Y-48999400D01*
X137457000Y-86977200D02*
X136585700Y-86105900D01*
X173438900Y-73025000D02*
X173438900Y-71849900D01*
X173806200Y-71849900D02*
X173438900Y-71849900D01*
X138633500Y-52687200D02*
X141035800Y-52687200D01*
X140371600Y-86761900D02*
X140156300Y-86977200D01*
X174614000Y-62743300D02*
X174614000Y-71042100D01*
X140371600Y-84396700D02*
X140371600Y-86761900D01*
X138938000Y-81788000D02*
X138938000Y-82963100D01*
X175138000Y-48999400D02*
X175138000Y-62219300D01*
X136585700Y-86105900D02*
X136585700Y-54735000D01*
X174614000Y-71042100D02*
X173806200Y-71849900D01*
X145919500Y-47803500D02*
X173942100Y-47803500D01*
X141035800Y-52687200D02*
X145919500Y-47803500D01*
X175138000Y-62219300D02*
X174614000Y-62743300D01*
X136585700Y-54735000D02*
X138633500Y-52687200D01*
X140156300Y-86977200D02*
X137457000Y-86977200D01*
%TO.N,G0_3V3*%
X141478000Y-77883100D02*
X141775100Y-77883100D01*
X142721800Y-78829800D02*
X142721800Y-80649600D01*
X142721800Y-80649600D02*
X143083900Y-81011700D01*
X141478000Y-76708000D02*
X141478000Y-77883100D01*
X141775100Y-77883100D02*
X142721800Y-78829800D01*
%TO.N,G2_3V3*%
X149266700Y-81980300D02*
X149128900Y-82118100D01*
X150989200Y-97249900D02*
X151824000Y-96415100D01*
X150622000Y-97249900D02*
X150989200Y-97249900D01*
X150622000Y-98425000D02*
X150622000Y-97249900D01*
X151824000Y-82673900D02*
X151130400Y-81980300D01*
X151824000Y-96415100D02*
X151824000Y-82673900D01*
X151130400Y-81980300D02*
X149266700Y-81980300D01*
%TO.N,MODE*%
X170739400Y-86784500D02*
X170981800Y-86542100D01*
X175073800Y-103461300D02*
X173847500Y-102235000D01*
X170981800Y-100183300D02*
X170981800Y-87627500D01*
X170981800Y-69922900D02*
X170174000Y-69115100D01*
X172715600Y-111012100D02*
X175073800Y-108653900D01*
X144994600Y-111012100D02*
X172715600Y-111012100D01*
X170739400Y-87385100D02*
X170739400Y-86784500D01*
X143120400Y-109137900D02*
X144994600Y-111012100D01*
X170174000Y-69115100D02*
X169806700Y-69115100D01*
X170981800Y-87627500D02*
X170739400Y-87385100D01*
X173033500Y-102235000D02*
X170981800Y-100183300D01*
X173847500Y-102235000D02*
X173033500Y-102235000D01*
X175073800Y-108653900D02*
X175073800Y-103461300D01*
X169806700Y-67940000D02*
X169806700Y-69115100D01*
X170981800Y-86542100D02*
X170981800Y-69922900D01*
%TO.N,~{CSW}*%
X142814300Y-87811200D02*
X142814300Y-83773000D01*
X140336100Y-90289400D02*
X142814300Y-87811200D01*
X168631600Y-63417100D02*
X169439400Y-64224900D01*
X144642600Y-81944700D02*
X144642600Y-72261600D01*
X169806700Y-65400000D02*
X169806700Y-64224900D01*
X166006700Y-52710000D02*
X167531800Y-52710000D01*
X168631600Y-53809800D02*
X168631600Y-63417100D01*
X140336100Y-93472000D02*
X140336100Y-90289400D01*
X142814300Y-83773000D02*
X144642600Y-81944700D01*
X167531800Y-52710000D02*
X168631600Y-53809800D01*
X138811000Y-93472000D02*
X140336100Y-93472000D01*
X169439400Y-64224900D02*
X169806700Y-64224900D01*
%TO.N,~{INT}*%
X143450300Y-107739200D02*
X146237200Y-110526100D01*
X163097100Y-110526100D02*
X163340100Y-110283100D01*
X143450300Y-93555400D02*
X143450300Y-107739200D01*
X146237200Y-110526100D02*
X163097100Y-110526100D01*
%TO.N,CD7*%
X156325000Y-82758800D02*
X156325000Y-97568200D01*
X159911800Y-72015100D02*
X159911800Y-80630600D01*
X158300500Y-98018600D02*
X156775400Y-98018600D01*
X158386700Y-70490000D02*
X159911800Y-72015100D01*
X159178600Y-81363800D02*
X157720000Y-81363800D01*
X156325000Y-97568200D02*
X156775400Y-98018600D01*
X159911800Y-80630600D02*
X159178600Y-81363800D01*
X157720000Y-81363800D02*
X156325000Y-82758800D01*
%TO.N,CD6*%
X158519900Y-67950000D02*
X160829200Y-70259300D01*
X160829200Y-70259300D02*
X160829200Y-82241200D01*
X156775400Y-84847000D02*
X156775400Y-95478600D01*
X157573800Y-84048600D02*
X156775400Y-84847000D01*
X159021800Y-84048600D02*
X157573800Y-84048600D01*
X160829200Y-82241200D02*
X159021800Y-84048600D01*
X158300500Y-95478600D02*
X156775400Y-95478600D01*
X158386700Y-67950000D02*
X158519900Y-67950000D01*
%TO.N,CD5*%
X158300500Y-92938600D02*
X159825600Y-92938600D01*
X160751800Y-90504900D02*
X160751800Y-83762000D01*
X159825600Y-91431100D02*
X160751800Y-90504900D01*
X160751800Y-83762000D02*
X161729500Y-82784300D01*
X161729500Y-82784300D02*
X161729500Y-67227700D01*
X161729500Y-67227700D02*
X159911800Y-65410000D01*
X159825600Y-92938600D02*
X159825600Y-91431100D01*
X158386700Y-65410000D02*
X159911800Y-65410000D01*
%TO.N,CD4*%
X162179600Y-65137800D02*
X162179600Y-84329400D01*
X162179600Y-84329400D02*
X161201900Y-85307100D01*
X159911800Y-62870000D02*
X162179600Y-65137800D01*
X161201900Y-91080100D02*
X160920200Y-91361800D01*
X158386700Y-62870000D02*
X159911800Y-62870000D01*
X161201900Y-85307100D02*
X161201900Y-91080100D01*
%TO.N,CD3*%
X161279400Y-68787100D02*
X159172300Y-66680000D01*
X154933900Y-51335100D02*
X156861600Y-53262800D01*
X159825600Y-84051600D02*
X161279400Y-82597800D01*
X158300500Y-87858600D02*
X159825600Y-87858600D01*
X159825600Y-87858600D02*
X159825600Y-84051600D01*
X157655800Y-66680000D02*
X156861600Y-65885800D01*
X158386700Y-60330000D02*
X156861600Y-60330000D01*
X159172300Y-66680000D02*
X157655800Y-66680000D01*
X154566700Y-50160000D02*
X154566700Y-51335100D01*
X156861600Y-53262800D02*
X156861600Y-60330000D01*
X161279400Y-82597800D02*
X161279400Y-68787100D01*
X156861600Y-65885800D02*
X156861600Y-60330000D01*
X154566700Y-51335100D02*
X154933900Y-51335100D01*
%TO.N,CD2*%
X158386700Y-57790000D02*
X159911800Y-57790000D01*
X159911800Y-57790000D02*
X159911800Y-61218500D01*
X159911800Y-61218500D02*
X162629700Y-63936400D01*
X162629700Y-84904700D02*
X161927000Y-85607400D01*
X162629700Y-63936400D02*
X162629700Y-84904700D01*
%TO.N,CD1*%
X160362000Y-70428800D02*
X160362000Y-80817100D01*
X158400500Y-82778600D02*
X158300500Y-82778600D01*
X159008300Y-69075100D02*
X160362000Y-70428800D01*
X154934000Y-56415100D02*
X156191900Y-57673000D01*
X156191900Y-57673000D02*
X156191900Y-67809500D01*
X154566700Y-55240000D02*
X154566700Y-56415100D01*
X156191900Y-67809500D02*
X157457500Y-69075100D01*
X157457500Y-69075100D02*
X159008300Y-69075100D01*
X154566700Y-56415100D02*
X154934000Y-56415100D01*
X160362000Y-80817100D02*
X158400500Y-82778600D01*
%TO.N,CD0*%
X154566700Y-57780000D02*
X154566700Y-58955100D01*
X155741800Y-59806600D02*
X155741800Y-79205000D01*
X154890300Y-58955100D02*
X155741800Y-59806600D01*
X158300500Y-80238600D02*
X156775400Y-80238600D01*
X155741800Y-79205000D02*
X156775400Y-80238600D01*
X154566700Y-58955100D02*
X154890300Y-58955100D01*
%TO.N,~{RESET}*%
X154566700Y-83180000D02*
X154566700Y-84355100D01*
X153041000Y-85513600D02*
X154199500Y-84355100D01*
X154199500Y-84355100D02*
X154566700Y-84355100D01*
X153041000Y-92061500D02*
X153041000Y-85513600D01*
%TO.N,GROMCLK*%
X151037900Y-102235000D02*
X150200100Y-102235000D01*
X154238600Y-91975100D02*
X152890100Y-93323600D01*
X152890100Y-93323600D02*
X152890100Y-100382800D01*
X150200100Y-102235000D02*
X147956100Y-104479000D01*
X152890100Y-100382800D02*
X151037900Y-102235000D01*
X154566700Y-90800000D02*
X154566700Y-91975100D01*
X146431000Y-106172000D02*
X147956100Y-106172000D01*
X147956100Y-104479000D02*
X147956100Y-106172000D01*
X154566700Y-91975100D02*
X154238600Y-91975100D01*
%TD*%
M02*
