%TF.GenerationSoftware,KiCad,Pcbnew,7.0.1*%
%TF.CreationDate,2023-05-22T12:19:46-07:00*%
%TF.ProjectId,tn9k_f18_fat,746e396b-5f66-4313-985f-6661742e6b69,rev?*%
%TF.SameCoordinates,Original*%
%TF.FileFunction,Drillmap*%
%TF.FilePolarity,Positive*%
%FSLAX45Y45*%
G04 Gerber Fmt 4.5, Leading zero omitted, Abs format (unit mm)*
G04 Created by KiCad (PCBNEW 7.0.1) date 2023-05-22 12:19:46*
%MOMM*%
%LPD*%
G01*
G04 APERTURE LIST*
%ADD10C,0.100000*%
%ADD11C,0.200000*%
%ADD12C,0.040000*%
%ADD13C,0.080000*%
%ADD14C,0.110000*%
G04 APERTURE END LIST*
D10*
X17780000Y-4699000D02*
X17780000Y-11176000D01*
X13462000Y-4699000D02*
X17780000Y-4699000D01*
X13462000Y-11176000D02*
X13462000Y-4699000D01*
X17780000Y-11176000D02*
X13462000Y-11176000D01*
D11*
D12*
X13745140Y-6461220D02*
X13785140Y-6501220D01*
X13785140Y-6461220D02*
X13745140Y-6501220D01*
X14086280Y-10006600D02*
X14126280Y-10046600D01*
X14126280Y-10006600D02*
X14086280Y-10046600D01*
X14131990Y-8503470D02*
X14171990Y-8543470D01*
X14171990Y-8503470D02*
X14131990Y-8543470D01*
X14131990Y-9543510D02*
X14171990Y-9583510D01*
X14171990Y-9543510D02*
X14131990Y-9583510D01*
X14239680Y-9144560D02*
X14279680Y-9184560D01*
X14279680Y-9144560D02*
X14239680Y-9184560D01*
X14241700Y-5861280D02*
X14281700Y-5901280D01*
X14281700Y-5861280D02*
X14241700Y-5901280D01*
X14343510Y-7252720D02*
X14383510Y-7292720D01*
X14383510Y-7252720D02*
X14343510Y-7292720D01*
X14347360Y-8942650D02*
X14387360Y-8982650D01*
X14387360Y-8942650D02*
X14347360Y-8982650D01*
X14366080Y-6310220D02*
X14406080Y-6350220D01*
X14406080Y-6310220D02*
X14366080Y-6350220D01*
X14459260Y-8300720D02*
X14499260Y-8340720D01*
X14499260Y-8300720D02*
X14459260Y-8340720D01*
X14461240Y-5844240D02*
X14501240Y-5884240D01*
X14501240Y-5844240D02*
X14461240Y-5884240D01*
X14496040Y-10738680D02*
X14536040Y-10778680D01*
X14536040Y-10738680D02*
X14496040Y-10778680D01*
X14536110Y-6310220D02*
X14576110Y-6350220D01*
X14576110Y-6310220D02*
X14536110Y-6350220D01*
X14557060Y-8401580D02*
X14597060Y-8441580D01*
X14597060Y-8401580D02*
X14557060Y-8441580D01*
X14698180Y-8022300D02*
X14738180Y-8062300D01*
X14738180Y-8022300D02*
X14698180Y-8062300D01*
X14816400Y-10151520D02*
X14856400Y-10191520D01*
X14856400Y-10151520D02*
X14816400Y-10191520D01*
X14888910Y-10460090D02*
X14928910Y-10500090D01*
X14928910Y-10460090D02*
X14888910Y-10500090D01*
X15482570Y-10319860D02*
X15522570Y-10359860D01*
X15522570Y-10319860D02*
X15482570Y-10359860D01*
X15572160Y-8151640D02*
X15612160Y-8191640D01*
X15612160Y-8151640D02*
X15572160Y-8191640D01*
X15957960Y-6162880D02*
X15997960Y-6202880D01*
X15997960Y-6162880D02*
X15957960Y-6202880D01*
X16050770Y-6275180D02*
X16090770Y-6315180D01*
X16090770Y-6275180D02*
X16050770Y-6315180D01*
X16059810Y-6614290D02*
X16099810Y-6654290D01*
X16099810Y-6614290D02*
X16059810Y-6654290D01*
X16072920Y-7111290D02*
X16112920Y-7151290D01*
X16112920Y-7111290D02*
X16072920Y-7151290D01*
X16124300Y-9568990D02*
X16164300Y-9608990D01*
X16164300Y-9568990D02*
X16124300Y-9608990D01*
X16131130Y-5649450D02*
X16171130Y-5689450D01*
X16171130Y-5649450D02*
X16131130Y-5689450D01*
X16141210Y-7034870D02*
X16181210Y-7074870D01*
X16181210Y-7034870D02*
X16141210Y-7074870D01*
X16233390Y-6724210D02*
X16273390Y-6764210D01*
X16273390Y-6724210D02*
X16233390Y-6764210D01*
X16341310Y-8427040D02*
X16381310Y-8467040D01*
X16381310Y-8427040D02*
X16341310Y-8467040D01*
X16342880Y-9351570D02*
X16382880Y-9391570D01*
X16382880Y-9351570D02*
X16342880Y-9391570D01*
X16480140Y-7493960D02*
X16520140Y-7533960D01*
X16520140Y-7493960D02*
X16480140Y-7533960D01*
X16839580Y-9457630D02*
X16879580Y-9497630D01*
X16879580Y-9457630D02*
X16839580Y-9497630D01*
X16843150Y-10075080D02*
X16883150Y-10115080D01*
X16883150Y-10075080D02*
X16843150Y-10115080D01*
X16863370Y-10252260D02*
X16903370Y-10292260D01*
X16903370Y-10252260D02*
X16863370Y-10292260D01*
X16886440Y-10508200D02*
X16926440Y-10548200D01*
X16926440Y-10508200D02*
X16886440Y-10548200D01*
X16945590Y-10326740D02*
X16985590Y-10366740D01*
X16985590Y-10326740D02*
X16945590Y-10366740D01*
X17198990Y-8978090D02*
X17238990Y-9018090D01*
X17238990Y-8978090D02*
X17198990Y-9018090D01*
X17350230Y-11085030D02*
X17390230Y-11125030D01*
X17390230Y-11085030D02*
X17350230Y-11125030D01*
X17632790Y-10210550D02*
X17672790Y-10250550D01*
X17672790Y-10210550D02*
X17632790Y-10250550D01*
D13*
X13921100Y-5156200D02*
G75*
G03*
X13921100Y-5156200I-40000J0D01*
G01*
X13921100Y-5410200D02*
G75*
G03*
X13921100Y-5410200I-40000J0D01*
G01*
X13921100Y-5664200D02*
G75*
G03*
X13921100Y-5664200I-40000J0D01*
G01*
X13921100Y-5918200D02*
G75*
G03*
X13921100Y-5918200I-40000J0D01*
G01*
X13921100Y-8585200D02*
G75*
G03*
X13921100Y-8585200I-40000J0D01*
G01*
X13921100Y-8839200D02*
G75*
G03*
X13921100Y-8839200I-40000J0D01*
G01*
X13921100Y-9093200D02*
G75*
G03*
X13921100Y-9093200I-40000J0D01*
G01*
X13921100Y-9347200D02*
G75*
G03*
X13921100Y-9347200I-40000J0D01*
G01*
X13921100Y-9601200D02*
G75*
G03*
X13921100Y-9601200I-40000J0D01*
G01*
X13921100Y-9855200D02*
G75*
G03*
X13921100Y-9855200I-40000J0D01*
G01*
X13921100Y-10109200D02*
G75*
G03*
X13921100Y-10109200I-40000J0D01*
G01*
X13921100Y-10363200D02*
G75*
G03*
X13921100Y-10363200I-40000J0D01*
G01*
X13921100Y-10617200D02*
G75*
G03*
X13921100Y-10617200I-40000J0D01*
G01*
X13921100Y-10871200D02*
G75*
G03*
X13921100Y-10871200I-40000J0D01*
G01*
X14683100Y-5156200D02*
G75*
G03*
X14683100Y-5156200I-40000J0D01*
G01*
X14683100Y-5410200D02*
G75*
G03*
X14683100Y-5410200I-40000J0D01*
G01*
X14683100Y-5664200D02*
G75*
G03*
X14683100Y-5664200I-40000J0D01*
G01*
X14683100Y-5918200D02*
G75*
G03*
X14683100Y-5918200I-40000J0D01*
G01*
X14683100Y-8585200D02*
G75*
G03*
X14683100Y-8585200I-40000J0D01*
G01*
X14683100Y-8839200D02*
G75*
G03*
X14683100Y-8839200I-40000J0D01*
G01*
X14683100Y-9093200D02*
G75*
G03*
X14683100Y-9093200I-40000J0D01*
G01*
X14683100Y-9347200D02*
G75*
G03*
X14683100Y-9347200I-40000J0D01*
G01*
X14683100Y-9601200D02*
G75*
G03*
X14683100Y-9601200I-40000J0D01*
G01*
X14683100Y-9855200D02*
G75*
G03*
X14683100Y-9855200I-40000J0D01*
G01*
X14683100Y-10109200D02*
G75*
G03*
X14683100Y-10109200I-40000J0D01*
G01*
X14683100Y-10363200D02*
G75*
G03*
X14683100Y-10363200I-40000J0D01*
G01*
X14683100Y-10617200D02*
G75*
G03*
X14683100Y-10617200I-40000J0D01*
G01*
X14683100Y-10871200D02*
G75*
G03*
X14683100Y-10871200I-40000J0D01*
G01*
X15870050Y-7769860D02*
G75*
G03*
X15870050Y-7769860I-40000J0D01*
G01*
X15870050Y-8023860D02*
G75*
G03*
X15870050Y-8023860I-40000J0D01*
G01*
X15870050Y-8277860D02*
G75*
G03*
X15870050Y-8277860I-40000J0D01*
G01*
X15870050Y-8531860D02*
G75*
G03*
X15870050Y-8531860I-40000J0D01*
G01*
X15870050Y-8785860D02*
G75*
G03*
X15870050Y-8785860I-40000J0D01*
G01*
X15870050Y-9039860D02*
G75*
G03*
X15870050Y-9039860I-40000J0D01*
G01*
X15870050Y-9293860D02*
G75*
G03*
X15870050Y-9293860I-40000J0D01*
G01*
X15870050Y-9547860D02*
G75*
G03*
X15870050Y-9547860I-40000J0D01*
G01*
X15870050Y-9801860D02*
G75*
G03*
X15870050Y-9801860I-40000J0D01*
G01*
X15870050Y-10055860D02*
G75*
G03*
X15870050Y-10055860I-40000J0D01*
G01*
X15878670Y-5017000D02*
G75*
G03*
X15878670Y-5017000I-40000J0D01*
G01*
X15878670Y-5271000D02*
G75*
G03*
X15878670Y-5271000I-40000J0D01*
G01*
X15878670Y-5525000D02*
G75*
G03*
X15878670Y-5525000I-40000J0D01*
G01*
X15878670Y-5779000D02*
G75*
G03*
X15878670Y-5779000I-40000J0D01*
G01*
X15878670Y-6033000D02*
G75*
G03*
X15878670Y-6033000I-40000J0D01*
G01*
X15878670Y-6287000D02*
G75*
G03*
X15878670Y-6287000I-40000J0D01*
G01*
X15878670Y-6541000D02*
G75*
G03*
X15878670Y-6541000I-40000J0D01*
G01*
X15878670Y-6795000D02*
G75*
G03*
X15878670Y-6795000I-40000J0D01*
G01*
X15878670Y-7049000D02*
G75*
G03*
X15878670Y-7049000I-40000J0D01*
G01*
X15878670Y-7303000D02*
G75*
G03*
X15878670Y-7303000I-40000J0D01*
G01*
X16632050Y-7769860D02*
G75*
G03*
X16632050Y-7769860I-40000J0D01*
G01*
X16632050Y-8023860D02*
G75*
G03*
X16632050Y-8023860I-40000J0D01*
G01*
X16632050Y-8277860D02*
G75*
G03*
X16632050Y-8277860I-40000J0D01*
G01*
X16632050Y-8531860D02*
G75*
G03*
X16632050Y-8531860I-40000J0D01*
G01*
X16632050Y-8785860D02*
G75*
G03*
X16632050Y-8785860I-40000J0D01*
G01*
X16632050Y-9039860D02*
G75*
G03*
X16632050Y-9039860I-40000J0D01*
G01*
X16632050Y-9293860D02*
G75*
G03*
X16632050Y-9293860I-40000J0D01*
G01*
X16632050Y-9547860D02*
G75*
G03*
X16632050Y-9547860I-40000J0D01*
G01*
X16632050Y-9801860D02*
G75*
G03*
X16632050Y-9801860I-40000J0D01*
G01*
X16632050Y-10055860D02*
G75*
G03*
X16632050Y-10055860I-40000J0D01*
G01*
X16640670Y-5017000D02*
G75*
G03*
X16640670Y-5017000I-40000J0D01*
G01*
X16640670Y-5271000D02*
G75*
G03*
X16640670Y-5271000I-40000J0D01*
G01*
X16640670Y-5525000D02*
G75*
G03*
X16640670Y-5525000I-40000J0D01*
G01*
X16640670Y-5779000D02*
G75*
G03*
X16640670Y-5779000I-40000J0D01*
G01*
X16640670Y-6033000D02*
G75*
G03*
X16640670Y-6033000I-40000J0D01*
G01*
X16640670Y-6287000D02*
G75*
G03*
X16640670Y-6287000I-40000J0D01*
G01*
X16640670Y-6541000D02*
G75*
G03*
X16640670Y-6541000I-40000J0D01*
G01*
X16640670Y-6795000D02*
G75*
G03*
X16640670Y-6795000I-40000J0D01*
G01*
X16640670Y-7049000D02*
G75*
G03*
X16640670Y-7049000I-40000J0D01*
G01*
X16640670Y-7303000D02*
G75*
G03*
X16640670Y-7303000I-40000J0D01*
G01*
D10*
X13893800Y-6350800D02*
X13893800Y-6450800D01*
X13843800Y-6400800D02*
X13943800Y-6400800D01*
X13893800Y-6604800D02*
X13893800Y-6704800D01*
X13843800Y-6654800D02*
X13943800Y-6654800D01*
X13893800Y-6858800D02*
X13893800Y-6958800D01*
X13843800Y-6908800D02*
X13943800Y-6908800D01*
X13893800Y-7112800D02*
X13893800Y-7212800D01*
X13843800Y-7162800D02*
X13943800Y-7162800D01*
X13893800Y-7366800D02*
X13893800Y-7466800D01*
X13843800Y-7416800D02*
X13943800Y-7416800D01*
X13893800Y-7620800D02*
X13893800Y-7720800D01*
X13843800Y-7670800D02*
X13943800Y-7670800D01*
X13893800Y-7874800D02*
X13893800Y-7974800D01*
X13843800Y-7924800D02*
X13943800Y-7924800D01*
X13893800Y-8128800D02*
X13893800Y-8228800D01*
X13843800Y-8178800D02*
X13943800Y-8178800D01*
X14147800Y-6350800D02*
X14147800Y-6450800D01*
X14097800Y-6400800D02*
X14197800Y-6400800D01*
X14147800Y-6604800D02*
X14147800Y-6704800D01*
X14097800Y-6654800D02*
X14197800Y-6654800D01*
X14147800Y-6858800D02*
X14147800Y-6958800D01*
X14097800Y-6908800D02*
X14197800Y-6908800D01*
X14147800Y-7112800D02*
X14147800Y-7212800D01*
X14097800Y-7162800D02*
X14197800Y-7162800D01*
X14147800Y-7366800D02*
X14147800Y-7466800D01*
X14097800Y-7416800D02*
X14197800Y-7416800D01*
X14147800Y-7620800D02*
X14147800Y-7720800D01*
X14097800Y-7670800D02*
X14197800Y-7670800D01*
X14147800Y-7874800D02*
X14147800Y-7974800D01*
X14097800Y-7924800D02*
X14197800Y-7924800D01*
X14147800Y-8128800D02*
X14147800Y-8228800D01*
X14097800Y-8178800D02*
X14197800Y-8178800D01*
X15062200Y-4966500D02*
X15062200Y-5066500D01*
X15012200Y-5016500D02*
X15112200Y-5016500D01*
X15062200Y-5220500D02*
X15062200Y-5320500D01*
X15012200Y-5270500D02*
X15112200Y-5270500D01*
X15062200Y-5474500D02*
X15062200Y-5574500D01*
X15012200Y-5524500D02*
X15112200Y-5524500D01*
X15062200Y-5728500D02*
X15062200Y-5828500D01*
X15012200Y-5778500D02*
X15112200Y-5778500D01*
X15062200Y-5982500D02*
X15062200Y-6082500D01*
X15012200Y-6032500D02*
X15112200Y-6032500D01*
X15062200Y-6236500D02*
X15062200Y-6336500D01*
X15012200Y-6286500D02*
X15112200Y-6286500D01*
X15062200Y-6490500D02*
X15062200Y-6590500D01*
X15012200Y-6540500D02*
X15112200Y-6540500D01*
X15062200Y-6744500D02*
X15062200Y-6844500D01*
X15012200Y-6794500D02*
X15112200Y-6794500D01*
X15062200Y-6998500D02*
X15062200Y-7098500D01*
X15012200Y-7048500D02*
X15112200Y-7048500D01*
X15062200Y-7252500D02*
X15062200Y-7352500D01*
X15012200Y-7302500D02*
X15112200Y-7302500D01*
X15062200Y-7506500D02*
X15062200Y-7606500D01*
X15012200Y-7556500D02*
X15112200Y-7556500D01*
X15062200Y-7760500D02*
X15062200Y-7860500D01*
X15012200Y-7810500D02*
X15112200Y-7810500D01*
X15062200Y-8014500D02*
X15062200Y-8114500D01*
X15012200Y-8064500D02*
X15112200Y-8064500D01*
X15062200Y-8268500D02*
X15062200Y-8368500D01*
X15012200Y-8318500D02*
X15112200Y-8318500D01*
X15062200Y-8522500D02*
X15062200Y-8622500D01*
X15012200Y-8572500D02*
X15112200Y-8572500D01*
X15062200Y-8776500D02*
X15062200Y-8876500D01*
X15012200Y-8826500D02*
X15112200Y-8826500D01*
X15062200Y-9030500D02*
X15062200Y-9130500D01*
X15012200Y-9080500D02*
X15112200Y-9080500D01*
X15062200Y-9284500D02*
X15062200Y-9384500D01*
X15012200Y-9334500D02*
X15112200Y-9334500D01*
X15062200Y-9538500D02*
X15062200Y-9638500D01*
X15012200Y-9588500D02*
X15112200Y-9588500D01*
X15062200Y-9792500D02*
X15062200Y-9892500D01*
X15012200Y-9842500D02*
X15112200Y-9842500D01*
X15062200Y-10046500D02*
X15062200Y-10146500D01*
X15012200Y-10096500D02*
X15112200Y-10096500D01*
X15062200Y-10300500D02*
X15062200Y-10400500D01*
X15012200Y-10350500D02*
X15112200Y-10350500D01*
X15062200Y-10554500D02*
X15062200Y-10654500D01*
X15012200Y-10604500D02*
X15112200Y-10604500D01*
X15062200Y-10808500D02*
X15062200Y-10908500D01*
X15012200Y-10858500D02*
X15112200Y-10858500D01*
X15456670Y-4966000D02*
X15456670Y-5066000D01*
X15406670Y-5016000D02*
X15506670Y-5016000D01*
X15456670Y-5220000D02*
X15456670Y-5320000D01*
X15406670Y-5270000D02*
X15506670Y-5270000D01*
X15456670Y-5474000D02*
X15456670Y-5574000D01*
X15406670Y-5524000D02*
X15506670Y-5524000D01*
X15456670Y-5728000D02*
X15456670Y-5828000D01*
X15406670Y-5778000D02*
X15506670Y-5778000D01*
X15456670Y-5982000D02*
X15456670Y-6082000D01*
X15406670Y-6032000D02*
X15506670Y-6032000D01*
X15456670Y-6236000D02*
X15456670Y-6336000D01*
X15406670Y-6286000D02*
X15506670Y-6286000D01*
X15456670Y-6490000D02*
X15456670Y-6590000D01*
X15406670Y-6540000D02*
X15506670Y-6540000D01*
X15456670Y-6744000D02*
X15456670Y-6844000D01*
X15406670Y-6794000D02*
X15506670Y-6794000D01*
X15456670Y-6998000D02*
X15456670Y-7098000D01*
X15406670Y-7048000D02*
X15506670Y-7048000D01*
X15456670Y-7252000D02*
X15456670Y-7352000D01*
X15406670Y-7302000D02*
X15506670Y-7302000D01*
X15456670Y-7506000D02*
X15456670Y-7606000D01*
X15406670Y-7556000D02*
X15506670Y-7556000D01*
X15456670Y-7760000D02*
X15456670Y-7860000D01*
X15406670Y-7810000D02*
X15506670Y-7810000D01*
X15456670Y-8014000D02*
X15456670Y-8114000D01*
X15406670Y-8064000D02*
X15506670Y-8064000D01*
X15456670Y-8268000D02*
X15456670Y-8368000D01*
X15406670Y-8318000D02*
X15506670Y-8318000D01*
X15456670Y-8522000D02*
X15456670Y-8622000D01*
X15406670Y-8572000D02*
X15506670Y-8572000D01*
X15456670Y-8776000D02*
X15456670Y-8876000D01*
X15406670Y-8826000D02*
X15506670Y-8826000D01*
X15456670Y-9030000D02*
X15456670Y-9130000D01*
X15406670Y-9080000D02*
X15506670Y-9080000D01*
X15456670Y-9284000D02*
X15456670Y-9384000D01*
X15406670Y-9334000D02*
X15506670Y-9334000D01*
X15456670Y-9538000D02*
X15456670Y-9638000D01*
X15406670Y-9588000D02*
X15506670Y-9588000D01*
X15456670Y-9792000D02*
X15456670Y-9892000D01*
X15406670Y-9842000D02*
X15506670Y-9842000D01*
X16980670Y-4966000D02*
X16980670Y-5066000D01*
X16930670Y-5016000D02*
X17030670Y-5016000D01*
X16980670Y-5220000D02*
X16980670Y-5320000D01*
X16930670Y-5270000D02*
X17030670Y-5270000D01*
X16980670Y-5474000D02*
X16980670Y-5574000D01*
X16930670Y-5524000D02*
X17030670Y-5524000D01*
X16980670Y-5728000D02*
X16980670Y-5828000D01*
X16930670Y-5778000D02*
X17030670Y-5778000D01*
X16980670Y-5982000D02*
X16980670Y-6082000D01*
X16930670Y-6032000D02*
X17030670Y-6032000D01*
X16980670Y-6236000D02*
X16980670Y-6336000D01*
X16930670Y-6286000D02*
X17030670Y-6286000D01*
X16980670Y-6490000D02*
X16980670Y-6590000D01*
X16930670Y-6540000D02*
X17030670Y-6540000D01*
X16980670Y-6744000D02*
X16980670Y-6844000D01*
X16930670Y-6794000D02*
X17030670Y-6794000D01*
X16980670Y-6998000D02*
X16980670Y-7098000D01*
X16930670Y-7048000D02*
X17030670Y-7048000D01*
X16980670Y-7252000D02*
X16980670Y-7352000D01*
X16930670Y-7302000D02*
X17030670Y-7302000D01*
X16980670Y-7506000D02*
X16980670Y-7606000D01*
X16930670Y-7556000D02*
X17030670Y-7556000D01*
X16980670Y-7760000D02*
X16980670Y-7860000D01*
X16930670Y-7810000D02*
X17030670Y-7810000D01*
X16980670Y-8014000D02*
X16980670Y-8114000D01*
X16930670Y-8064000D02*
X17030670Y-8064000D01*
X16980670Y-8268000D02*
X16980670Y-8368000D01*
X16930670Y-8318000D02*
X17030670Y-8318000D01*
X16980670Y-8522000D02*
X16980670Y-8622000D01*
X16930670Y-8572000D02*
X17030670Y-8572000D01*
X16980670Y-8776000D02*
X16980670Y-8876000D01*
X16930670Y-8826000D02*
X17030670Y-8826000D01*
X16980670Y-9030000D02*
X16980670Y-9130000D01*
X16930670Y-9080000D02*
X17030670Y-9080000D01*
X16980670Y-9284000D02*
X16980670Y-9384000D01*
X16930670Y-9334000D02*
X17030670Y-9334000D01*
X16980670Y-9538000D02*
X16980670Y-9638000D01*
X16930670Y-9588000D02*
X17030670Y-9588000D01*
X16980670Y-9792000D02*
X16980670Y-9892000D01*
X16930670Y-9842000D02*
X17030670Y-9842000D01*
X17343890Y-4966500D02*
X17343890Y-5066500D01*
X17293890Y-5016500D02*
X17393890Y-5016500D01*
X17343890Y-5220500D02*
X17343890Y-5320500D01*
X17293890Y-5270500D02*
X17393890Y-5270500D01*
X17343890Y-5474500D02*
X17343890Y-5574500D01*
X17293890Y-5524500D02*
X17393890Y-5524500D01*
X17343890Y-5728500D02*
X17343890Y-5828500D01*
X17293890Y-5778500D02*
X17393890Y-5778500D01*
X17343890Y-5982500D02*
X17343890Y-6082500D01*
X17293890Y-6032500D02*
X17393890Y-6032500D01*
X17343890Y-6236500D02*
X17343890Y-6336500D01*
X17293890Y-6286500D02*
X17393890Y-6286500D01*
X17343890Y-6490500D02*
X17343890Y-6590500D01*
X17293890Y-6540500D02*
X17393890Y-6540500D01*
X17343890Y-6744500D02*
X17343890Y-6844500D01*
X17293890Y-6794500D02*
X17393890Y-6794500D01*
X17343890Y-6998500D02*
X17343890Y-7098500D01*
X17293890Y-7048500D02*
X17393890Y-7048500D01*
X17343890Y-7252500D02*
X17343890Y-7352500D01*
X17293890Y-7302500D02*
X17393890Y-7302500D01*
X17343890Y-7506500D02*
X17343890Y-7606500D01*
X17293890Y-7556500D02*
X17393890Y-7556500D01*
X17343890Y-7760500D02*
X17343890Y-7860500D01*
X17293890Y-7810500D02*
X17393890Y-7810500D01*
X17343890Y-8014500D02*
X17343890Y-8114500D01*
X17293890Y-8064500D02*
X17393890Y-8064500D01*
X17343890Y-8268500D02*
X17343890Y-8368500D01*
X17293890Y-8318500D02*
X17393890Y-8318500D01*
X17343890Y-8522500D02*
X17343890Y-8622500D01*
X17293890Y-8572500D02*
X17393890Y-8572500D01*
X17343890Y-8776500D02*
X17343890Y-8876500D01*
X17293890Y-8826500D02*
X17393890Y-8826500D01*
X17343890Y-9030500D02*
X17343890Y-9130500D01*
X17293890Y-9080500D02*
X17393890Y-9080500D01*
X17343890Y-9284500D02*
X17343890Y-9384500D01*
X17293890Y-9334500D02*
X17393890Y-9334500D01*
X17343890Y-9538500D02*
X17343890Y-9638500D01*
X17293890Y-9588500D02*
X17393890Y-9588500D01*
X17343890Y-9792500D02*
X17343890Y-9892500D01*
X17293890Y-9842500D02*
X17393890Y-9842500D01*
X17343890Y-10046500D02*
X17343890Y-10146500D01*
X17293890Y-10096500D02*
X17393890Y-10096500D01*
X17343890Y-10300500D02*
X17343890Y-10400500D01*
X17293890Y-10350500D02*
X17393890Y-10350500D01*
X17343890Y-10554500D02*
X17343890Y-10654500D01*
X17293890Y-10604500D02*
X17393890Y-10604500D01*
X17343890Y-10808500D02*
X17343890Y-10908500D01*
X17293890Y-10858500D02*
X17393890Y-10858500D01*
D14*
X15685291Y-10503691D02*
X15685291Y-10425909D01*
X15607509Y-10425909D01*
X15607509Y-10503691D01*
X15685291Y-10503691D01*
X16701291Y-10503691D02*
X16701291Y-10425909D01*
X16623509Y-10425909D01*
X16623509Y-10503691D01*
X16701291Y-10503691D01*
D11*
X13704619Y-11493524D02*
X13704619Y-11293524D01*
X13704619Y-11293524D02*
X13752238Y-11293524D01*
X13752238Y-11293524D02*
X13780809Y-11303048D01*
X13780809Y-11303048D02*
X13799857Y-11322095D01*
X13799857Y-11322095D02*
X13809381Y-11341143D01*
X13809381Y-11341143D02*
X13818905Y-11379238D01*
X13818905Y-11379238D02*
X13818905Y-11407809D01*
X13818905Y-11407809D02*
X13809381Y-11445905D01*
X13809381Y-11445905D02*
X13799857Y-11464952D01*
X13799857Y-11464952D02*
X13780809Y-11484000D01*
X13780809Y-11484000D02*
X13752238Y-11493524D01*
X13752238Y-11493524D02*
X13704619Y-11493524D01*
X13904619Y-11493524D02*
X13904619Y-11360190D01*
X13904619Y-11398286D02*
X13914143Y-11379238D01*
X13914143Y-11379238D02*
X13923667Y-11369714D01*
X13923667Y-11369714D02*
X13942714Y-11360190D01*
X13942714Y-11360190D02*
X13961762Y-11360190D01*
X14028428Y-11493524D02*
X14028428Y-11360190D01*
X14028428Y-11293524D02*
X14018905Y-11303048D01*
X14018905Y-11303048D02*
X14028428Y-11312571D01*
X14028428Y-11312571D02*
X14037952Y-11303048D01*
X14037952Y-11303048D02*
X14028428Y-11293524D01*
X14028428Y-11293524D02*
X14028428Y-11312571D01*
X14152238Y-11493524D02*
X14133190Y-11484000D01*
X14133190Y-11484000D02*
X14123667Y-11464952D01*
X14123667Y-11464952D02*
X14123667Y-11293524D01*
X14257000Y-11493524D02*
X14237952Y-11484000D01*
X14237952Y-11484000D02*
X14228428Y-11464952D01*
X14228428Y-11464952D02*
X14228428Y-11293524D01*
X14485571Y-11493524D02*
X14485571Y-11293524D01*
X14485571Y-11293524D02*
X14552238Y-11436381D01*
X14552238Y-11436381D02*
X14618905Y-11293524D01*
X14618905Y-11293524D02*
X14618905Y-11493524D01*
X14799857Y-11493524D02*
X14799857Y-11388762D01*
X14799857Y-11388762D02*
X14790333Y-11369714D01*
X14790333Y-11369714D02*
X14771286Y-11360190D01*
X14771286Y-11360190D02*
X14733190Y-11360190D01*
X14733190Y-11360190D02*
X14714143Y-11369714D01*
X14799857Y-11484000D02*
X14780809Y-11493524D01*
X14780809Y-11493524D02*
X14733190Y-11493524D01*
X14733190Y-11493524D02*
X14714143Y-11484000D01*
X14714143Y-11484000D02*
X14704619Y-11464952D01*
X14704619Y-11464952D02*
X14704619Y-11445905D01*
X14704619Y-11445905D02*
X14714143Y-11426857D01*
X14714143Y-11426857D02*
X14733190Y-11417333D01*
X14733190Y-11417333D02*
X14780809Y-11417333D01*
X14780809Y-11417333D02*
X14799857Y-11407809D01*
X14895095Y-11360190D02*
X14895095Y-11560190D01*
X14895095Y-11369714D02*
X14914143Y-11360190D01*
X14914143Y-11360190D02*
X14952238Y-11360190D01*
X14952238Y-11360190D02*
X14971286Y-11369714D01*
X14971286Y-11369714D02*
X14980809Y-11379238D01*
X14980809Y-11379238D02*
X14990333Y-11398286D01*
X14990333Y-11398286D02*
X14990333Y-11455428D01*
X14990333Y-11455428D02*
X14980809Y-11474476D01*
X14980809Y-11474476D02*
X14971286Y-11484000D01*
X14971286Y-11484000D02*
X14952238Y-11493524D01*
X14952238Y-11493524D02*
X14914143Y-11493524D01*
X14914143Y-11493524D02*
X14895095Y-11484000D01*
X15076048Y-11474476D02*
X15085571Y-11484000D01*
X15085571Y-11484000D02*
X15076048Y-11493524D01*
X15076048Y-11493524D02*
X15066524Y-11484000D01*
X15066524Y-11484000D02*
X15076048Y-11474476D01*
X15076048Y-11474476D02*
X15076048Y-11493524D01*
X15076048Y-11369714D02*
X15085571Y-11379238D01*
X15085571Y-11379238D02*
X15076048Y-11388762D01*
X15076048Y-11388762D02*
X15066524Y-11379238D01*
X15066524Y-11379238D02*
X15076048Y-11369714D01*
X15076048Y-11369714D02*
X15076048Y-11388762D01*
D12*
X13417000Y-11801000D02*
X13457000Y-11841000D01*
X13457000Y-11801000D02*
X13417000Y-11841000D01*
D11*
X13742714Y-11713524D02*
X13761762Y-11713524D01*
X13761762Y-11713524D02*
X13780809Y-11723048D01*
X13780809Y-11723048D02*
X13790333Y-11732571D01*
X13790333Y-11732571D02*
X13799857Y-11751619D01*
X13799857Y-11751619D02*
X13809381Y-11789714D01*
X13809381Y-11789714D02*
X13809381Y-11837333D01*
X13809381Y-11837333D02*
X13799857Y-11875428D01*
X13799857Y-11875428D02*
X13790333Y-11894476D01*
X13790333Y-11894476D02*
X13780809Y-11904000D01*
X13780809Y-11904000D02*
X13761762Y-11913524D01*
X13761762Y-11913524D02*
X13742714Y-11913524D01*
X13742714Y-11913524D02*
X13723667Y-11904000D01*
X13723667Y-11904000D02*
X13714143Y-11894476D01*
X13714143Y-11894476D02*
X13704619Y-11875428D01*
X13704619Y-11875428D02*
X13695095Y-11837333D01*
X13695095Y-11837333D02*
X13695095Y-11789714D01*
X13695095Y-11789714D02*
X13704619Y-11751619D01*
X13704619Y-11751619D02*
X13714143Y-11732571D01*
X13714143Y-11732571D02*
X13723667Y-11723048D01*
X13723667Y-11723048D02*
X13742714Y-11713524D01*
X13895095Y-11894476D02*
X13904619Y-11904000D01*
X13904619Y-11904000D02*
X13895095Y-11913524D01*
X13895095Y-11913524D02*
X13885571Y-11904000D01*
X13885571Y-11904000D02*
X13895095Y-11894476D01*
X13895095Y-11894476D02*
X13895095Y-11913524D01*
X14076048Y-11780190D02*
X14076048Y-11913524D01*
X14028428Y-11704000D02*
X13980809Y-11846857D01*
X13980809Y-11846857D02*
X14104619Y-11846857D01*
X14218905Y-11713524D02*
X14237952Y-11713524D01*
X14237952Y-11713524D02*
X14257000Y-11723048D01*
X14257000Y-11723048D02*
X14266524Y-11732571D01*
X14266524Y-11732571D02*
X14276048Y-11751619D01*
X14276048Y-11751619D02*
X14285571Y-11789714D01*
X14285571Y-11789714D02*
X14285571Y-11837333D01*
X14285571Y-11837333D02*
X14276048Y-11875428D01*
X14276048Y-11875428D02*
X14266524Y-11894476D01*
X14266524Y-11894476D02*
X14257000Y-11904000D01*
X14257000Y-11904000D02*
X14237952Y-11913524D01*
X14237952Y-11913524D02*
X14218905Y-11913524D01*
X14218905Y-11913524D02*
X14199857Y-11904000D01*
X14199857Y-11904000D02*
X14190333Y-11894476D01*
X14190333Y-11894476D02*
X14180809Y-11875428D01*
X14180809Y-11875428D02*
X14171286Y-11837333D01*
X14171286Y-11837333D02*
X14171286Y-11789714D01*
X14171286Y-11789714D02*
X14180809Y-11751619D01*
X14180809Y-11751619D02*
X14190333Y-11732571D01*
X14190333Y-11732571D02*
X14199857Y-11723048D01*
X14199857Y-11723048D02*
X14218905Y-11713524D01*
X14409381Y-11713524D02*
X14428429Y-11713524D01*
X14428429Y-11713524D02*
X14447476Y-11723048D01*
X14447476Y-11723048D02*
X14457000Y-11732571D01*
X14457000Y-11732571D02*
X14466524Y-11751619D01*
X14466524Y-11751619D02*
X14476048Y-11789714D01*
X14476048Y-11789714D02*
X14476048Y-11837333D01*
X14476048Y-11837333D02*
X14466524Y-11875428D01*
X14466524Y-11875428D02*
X14457000Y-11894476D01*
X14457000Y-11894476D02*
X14447476Y-11904000D01*
X14447476Y-11904000D02*
X14428429Y-11913524D01*
X14428429Y-11913524D02*
X14409381Y-11913524D01*
X14409381Y-11913524D02*
X14390333Y-11904000D01*
X14390333Y-11904000D02*
X14380809Y-11894476D01*
X14380809Y-11894476D02*
X14371286Y-11875428D01*
X14371286Y-11875428D02*
X14361762Y-11837333D01*
X14361762Y-11837333D02*
X14361762Y-11789714D01*
X14361762Y-11789714D02*
X14371286Y-11751619D01*
X14371286Y-11751619D02*
X14380809Y-11732571D01*
X14380809Y-11732571D02*
X14390333Y-11723048D01*
X14390333Y-11723048D02*
X14409381Y-11713524D01*
X14561762Y-11913524D02*
X14561762Y-11780190D01*
X14561762Y-11799238D02*
X14571286Y-11789714D01*
X14571286Y-11789714D02*
X14590333Y-11780190D01*
X14590333Y-11780190D02*
X14618905Y-11780190D01*
X14618905Y-11780190D02*
X14637952Y-11789714D01*
X14637952Y-11789714D02*
X14647476Y-11808762D01*
X14647476Y-11808762D02*
X14647476Y-11913524D01*
X14647476Y-11808762D02*
X14657000Y-11789714D01*
X14657000Y-11789714D02*
X14676048Y-11780190D01*
X14676048Y-11780190D02*
X14704619Y-11780190D01*
X14704619Y-11780190D02*
X14723667Y-11789714D01*
X14723667Y-11789714D02*
X14733190Y-11808762D01*
X14733190Y-11808762D02*
X14733190Y-11913524D01*
X14828429Y-11913524D02*
X14828429Y-11780190D01*
X14828429Y-11799238D02*
X14837952Y-11789714D01*
X14837952Y-11789714D02*
X14857000Y-11780190D01*
X14857000Y-11780190D02*
X14885571Y-11780190D01*
X14885571Y-11780190D02*
X14904619Y-11789714D01*
X14904619Y-11789714D02*
X14914143Y-11808762D01*
X14914143Y-11808762D02*
X14914143Y-11913524D01*
X14914143Y-11808762D02*
X14923667Y-11789714D01*
X14923667Y-11789714D02*
X14942714Y-11780190D01*
X14942714Y-11780190D02*
X14971286Y-11780190D01*
X14971286Y-11780190D02*
X14990333Y-11789714D01*
X14990333Y-11789714D02*
X14999857Y-11808762D01*
X14999857Y-11808762D02*
X14999857Y-11913524D01*
X15390333Y-11704000D02*
X15218905Y-11961143D01*
X15647476Y-11713524D02*
X15666524Y-11713524D01*
X15666524Y-11713524D02*
X15685572Y-11723048D01*
X15685572Y-11723048D02*
X15695095Y-11732571D01*
X15695095Y-11732571D02*
X15704619Y-11751619D01*
X15704619Y-11751619D02*
X15714143Y-11789714D01*
X15714143Y-11789714D02*
X15714143Y-11837333D01*
X15714143Y-11837333D02*
X15704619Y-11875428D01*
X15704619Y-11875428D02*
X15695095Y-11894476D01*
X15695095Y-11894476D02*
X15685572Y-11904000D01*
X15685572Y-11904000D02*
X15666524Y-11913524D01*
X15666524Y-11913524D02*
X15647476Y-11913524D01*
X15647476Y-11913524D02*
X15628429Y-11904000D01*
X15628429Y-11904000D02*
X15618905Y-11894476D01*
X15618905Y-11894476D02*
X15609381Y-11875428D01*
X15609381Y-11875428D02*
X15599857Y-11837333D01*
X15599857Y-11837333D02*
X15599857Y-11789714D01*
X15599857Y-11789714D02*
X15609381Y-11751619D01*
X15609381Y-11751619D02*
X15618905Y-11732571D01*
X15618905Y-11732571D02*
X15628429Y-11723048D01*
X15628429Y-11723048D02*
X15647476Y-11713524D01*
X15799857Y-11894476D02*
X15809381Y-11904000D01*
X15809381Y-11904000D02*
X15799857Y-11913524D01*
X15799857Y-11913524D02*
X15790333Y-11904000D01*
X15790333Y-11904000D02*
X15799857Y-11894476D01*
X15799857Y-11894476D02*
X15799857Y-11913524D01*
X15933191Y-11713524D02*
X15952238Y-11713524D01*
X15952238Y-11713524D02*
X15971286Y-11723048D01*
X15971286Y-11723048D02*
X15980810Y-11732571D01*
X15980810Y-11732571D02*
X15990333Y-11751619D01*
X15990333Y-11751619D02*
X15999857Y-11789714D01*
X15999857Y-11789714D02*
X15999857Y-11837333D01*
X15999857Y-11837333D02*
X15990333Y-11875428D01*
X15990333Y-11875428D02*
X15980810Y-11894476D01*
X15980810Y-11894476D02*
X15971286Y-11904000D01*
X15971286Y-11904000D02*
X15952238Y-11913524D01*
X15952238Y-11913524D02*
X15933191Y-11913524D01*
X15933191Y-11913524D02*
X15914143Y-11904000D01*
X15914143Y-11904000D02*
X15904619Y-11894476D01*
X15904619Y-11894476D02*
X15895095Y-11875428D01*
X15895095Y-11875428D02*
X15885572Y-11837333D01*
X15885572Y-11837333D02*
X15885572Y-11789714D01*
X15885572Y-11789714D02*
X15895095Y-11751619D01*
X15895095Y-11751619D02*
X15904619Y-11732571D01*
X15904619Y-11732571D02*
X15914143Y-11723048D01*
X15914143Y-11723048D02*
X15933191Y-11713524D01*
X16190333Y-11913524D02*
X16076048Y-11913524D01*
X16133191Y-11913524D02*
X16133191Y-11713524D01*
X16133191Y-11713524D02*
X16114143Y-11742095D01*
X16114143Y-11742095D02*
X16095095Y-11761143D01*
X16095095Y-11761143D02*
X16076048Y-11770667D01*
X16371286Y-11713524D02*
X16276048Y-11713524D01*
X16276048Y-11713524D02*
X16266524Y-11808762D01*
X16266524Y-11808762D02*
X16276048Y-11799238D01*
X16276048Y-11799238D02*
X16295095Y-11789714D01*
X16295095Y-11789714D02*
X16342714Y-11789714D01*
X16342714Y-11789714D02*
X16361762Y-11799238D01*
X16361762Y-11799238D02*
X16371286Y-11808762D01*
X16371286Y-11808762D02*
X16380810Y-11827809D01*
X16380810Y-11827809D02*
X16380810Y-11875428D01*
X16380810Y-11875428D02*
X16371286Y-11894476D01*
X16371286Y-11894476D02*
X16361762Y-11904000D01*
X16361762Y-11904000D02*
X16342714Y-11913524D01*
X16342714Y-11913524D02*
X16295095Y-11913524D01*
X16295095Y-11913524D02*
X16276048Y-11904000D01*
X16276048Y-11904000D02*
X16266524Y-11894476D01*
X16447476Y-11713524D02*
X16580810Y-11713524D01*
X16580810Y-11713524D02*
X16495095Y-11913524D01*
X16647476Y-11713524D02*
X16647476Y-11751619D01*
X16723667Y-11713524D02*
X16723667Y-11751619D01*
X17018905Y-11989714D02*
X17009381Y-11980190D01*
X17009381Y-11980190D02*
X16990334Y-11951619D01*
X16990334Y-11951619D02*
X16980810Y-11932571D01*
X16980810Y-11932571D02*
X16971286Y-11904000D01*
X16971286Y-11904000D02*
X16961762Y-11856381D01*
X16961762Y-11856381D02*
X16961762Y-11818286D01*
X16961762Y-11818286D02*
X16971286Y-11770667D01*
X16971286Y-11770667D02*
X16980810Y-11742095D01*
X16980810Y-11742095D02*
X16990334Y-11723048D01*
X16990334Y-11723048D02*
X17009381Y-11694476D01*
X17009381Y-11694476D02*
X17018905Y-11684952D01*
X17076048Y-11713524D02*
X17199857Y-11713524D01*
X17199857Y-11713524D02*
X17133191Y-11789714D01*
X17133191Y-11789714D02*
X17161762Y-11789714D01*
X17161762Y-11789714D02*
X17180810Y-11799238D01*
X17180810Y-11799238D02*
X17190334Y-11808762D01*
X17190334Y-11808762D02*
X17199857Y-11827809D01*
X17199857Y-11827809D02*
X17199857Y-11875428D01*
X17199857Y-11875428D02*
X17190334Y-11894476D01*
X17190334Y-11894476D02*
X17180810Y-11904000D01*
X17180810Y-11904000D02*
X17161762Y-11913524D01*
X17161762Y-11913524D02*
X17104619Y-11913524D01*
X17104619Y-11913524D02*
X17085572Y-11904000D01*
X17085572Y-11904000D02*
X17076048Y-11894476D01*
X17314143Y-11799238D02*
X17295096Y-11789714D01*
X17295096Y-11789714D02*
X17285572Y-11780190D01*
X17285572Y-11780190D02*
X17276048Y-11761143D01*
X17276048Y-11761143D02*
X17276048Y-11751619D01*
X17276048Y-11751619D02*
X17285572Y-11732571D01*
X17285572Y-11732571D02*
X17295096Y-11723048D01*
X17295096Y-11723048D02*
X17314143Y-11713524D01*
X17314143Y-11713524D02*
X17352238Y-11713524D01*
X17352238Y-11713524D02*
X17371286Y-11723048D01*
X17371286Y-11723048D02*
X17380810Y-11732571D01*
X17380810Y-11732571D02*
X17390334Y-11751619D01*
X17390334Y-11751619D02*
X17390334Y-11761143D01*
X17390334Y-11761143D02*
X17380810Y-11780190D01*
X17380810Y-11780190D02*
X17371286Y-11789714D01*
X17371286Y-11789714D02*
X17352238Y-11799238D01*
X17352238Y-11799238D02*
X17314143Y-11799238D01*
X17314143Y-11799238D02*
X17295096Y-11808762D01*
X17295096Y-11808762D02*
X17285572Y-11818286D01*
X17285572Y-11818286D02*
X17276048Y-11837333D01*
X17276048Y-11837333D02*
X17276048Y-11875428D01*
X17276048Y-11875428D02*
X17285572Y-11894476D01*
X17285572Y-11894476D02*
X17295096Y-11904000D01*
X17295096Y-11904000D02*
X17314143Y-11913524D01*
X17314143Y-11913524D02*
X17352238Y-11913524D01*
X17352238Y-11913524D02*
X17371286Y-11904000D01*
X17371286Y-11904000D02*
X17380810Y-11894476D01*
X17380810Y-11894476D02*
X17390334Y-11875428D01*
X17390334Y-11875428D02*
X17390334Y-11837333D01*
X17390334Y-11837333D02*
X17380810Y-11818286D01*
X17380810Y-11818286D02*
X17371286Y-11808762D01*
X17371286Y-11808762D02*
X17352238Y-11799238D01*
X17628429Y-11913524D02*
X17628429Y-11713524D01*
X17714143Y-11913524D02*
X17714143Y-11808762D01*
X17714143Y-11808762D02*
X17704619Y-11789714D01*
X17704619Y-11789714D02*
X17685572Y-11780190D01*
X17685572Y-11780190D02*
X17657000Y-11780190D01*
X17657000Y-11780190D02*
X17637953Y-11789714D01*
X17637953Y-11789714D02*
X17628429Y-11799238D01*
X17837953Y-11913524D02*
X17818905Y-11904000D01*
X17818905Y-11904000D02*
X17809381Y-11894476D01*
X17809381Y-11894476D02*
X17799858Y-11875428D01*
X17799858Y-11875428D02*
X17799858Y-11818286D01*
X17799858Y-11818286D02*
X17809381Y-11799238D01*
X17809381Y-11799238D02*
X17818905Y-11789714D01*
X17818905Y-11789714D02*
X17837953Y-11780190D01*
X17837953Y-11780190D02*
X17866524Y-11780190D01*
X17866524Y-11780190D02*
X17885572Y-11789714D01*
X17885572Y-11789714D02*
X17895096Y-11799238D01*
X17895096Y-11799238D02*
X17904619Y-11818286D01*
X17904619Y-11818286D02*
X17904619Y-11875428D01*
X17904619Y-11875428D02*
X17895096Y-11894476D01*
X17895096Y-11894476D02*
X17885572Y-11904000D01*
X17885572Y-11904000D02*
X17866524Y-11913524D01*
X17866524Y-11913524D02*
X17837953Y-11913524D01*
X18018905Y-11913524D02*
X17999858Y-11904000D01*
X17999858Y-11904000D02*
X17990334Y-11884952D01*
X17990334Y-11884952D02*
X17990334Y-11713524D01*
X18171286Y-11904000D02*
X18152239Y-11913524D01*
X18152239Y-11913524D02*
X18114143Y-11913524D01*
X18114143Y-11913524D02*
X18095096Y-11904000D01*
X18095096Y-11904000D02*
X18085572Y-11884952D01*
X18085572Y-11884952D02*
X18085572Y-11808762D01*
X18085572Y-11808762D02*
X18095096Y-11789714D01*
X18095096Y-11789714D02*
X18114143Y-11780190D01*
X18114143Y-11780190D02*
X18152239Y-11780190D01*
X18152239Y-11780190D02*
X18171286Y-11789714D01*
X18171286Y-11789714D02*
X18180810Y-11808762D01*
X18180810Y-11808762D02*
X18180810Y-11827809D01*
X18180810Y-11827809D02*
X18085572Y-11846857D01*
X18257000Y-11904000D02*
X18276048Y-11913524D01*
X18276048Y-11913524D02*
X18314143Y-11913524D01*
X18314143Y-11913524D02*
X18333191Y-11904000D01*
X18333191Y-11904000D02*
X18342715Y-11884952D01*
X18342715Y-11884952D02*
X18342715Y-11875428D01*
X18342715Y-11875428D02*
X18333191Y-11856381D01*
X18333191Y-11856381D02*
X18314143Y-11846857D01*
X18314143Y-11846857D02*
X18285572Y-11846857D01*
X18285572Y-11846857D02*
X18266524Y-11837333D01*
X18266524Y-11837333D02*
X18257000Y-11818286D01*
X18257000Y-11818286D02*
X18257000Y-11808762D01*
X18257000Y-11808762D02*
X18266524Y-11789714D01*
X18266524Y-11789714D02*
X18285572Y-11780190D01*
X18285572Y-11780190D02*
X18314143Y-11780190D01*
X18314143Y-11780190D02*
X18333191Y-11789714D01*
X18409381Y-11989714D02*
X18418905Y-11980190D01*
X18418905Y-11980190D02*
X18437953Y-11951619D01*
X18437953Y-11951619D02*
X18447477Y-11932571D01*
X18447477Y-11932571D02*
X18457000Y-11904000D01*
X18457000Y-11904000D02*
X18466524Y-11856381D01*
X18466524Y-11856381D02*
X18466524Y-11818286D01*
X18466524Y-11818286D02*
X18457000Y-11770667D01*
X18457000Y-11770667D02*
X18447477Y-11742095D01*
X18447477Y-11742095D02*
X18437953Y-11723048D01*
X18437953Y-11723048D02*
X18418905Y-11694476D01*
X18418905Y-11694476D02*
X18409381Y-11684952D01*
D13*
X13457000Y-12085000D02*
G75*
G03*
X13457000Y-12085000I-40000J0D01*
G01*
D11*
X13742714Y-11977524D02*
X13761762Y-11977524D01*
X13761762Y-11977524D02*
X13780809Y-11987048D01*
X13780809Y-11987048D02*
X13790333Y-11996571D01*
X13790333Y-11996571D02*
X13799857Y-12015619D01*
X13799857Y-12015619D02*
X13809381Y-12053714D01*
X13809381Y-12053714D02*
X13809381Y-12101333D01*
X13809381Y-12101333D02*
X13799857Y-12139428D01*
X13799857Y-12139428D02*
X13790333Y-12158476D01*
X13790333Y-12158476D02*
X13780809Y-12168000D01*
X13780809Y-12168000D02*
X13761762Y-12177524D01*
X13761762Y-12177524D02*
X13742714Y-12177524D01*
X13742714Y-12177524D02*
X13723667Y-12168000D01*
X13723667Y-12168000D02*
X13714143Y-12158476D01*
X13714143Y-12158476D02*
X13704619Y-12139428D01*
X13704619Y-12139428D02*
X13695095Y-12101333D01*
X13695095Y-12101333D02*
X13695095Y-12053714D01*
X13695095Y-12053714D02*
X13704619Y-12015619D01*
X13704619Y-12015619D02*
X13714143Y-11996571D01*
X13714143Y-11996571D02*
X13723667Y-11987048D01*
X13723667Y-11987048D02*
X13742714Y-11977524D01*
X13895095Y-12158476D02*
X13904619Y-12168000D01*
X13904619Y-12168000D02*
X13895095Y-12177524D01*
X13895095Y-12177524D02*
X13885571Y-12168000D01*
X13885571Y-12168000D02*
X13895095Y-12158476D01*
X13895095Y-12158476D02*
X13895095Y-12177524D01*
X14018905Y-12063238D02*
X13999857Y-12053714D01*
X13999857Y-12053714D02*
X13990333Y-12044190D01*
X13990333Y-12044190D02*
X13980809Y-12025143D01*
X13980809Y-12025143D02*
X13980809Y-12015619D01*
X13980809Y-12015619D02*
X13990333Y-11996571D01*
X13990333Y-11996571D02*
X13999857Y-11987048D01*
X13999857Y-11987048D02*
X14018905Y-11977524D01*
X14018905Y-11977524D02*
X14057000Y-11977524D01*
X14057000Y-11977524D02*
X14076048Y-11987048D01*
X14076048Y-11987048D02*
X14085571Y-11996571D01*
X14085571Y-11996571D02*
X14095095Y-12015619D01*
X14095095Y-12015619D02*
X14095095Y-12025143D01*
X14095095Y-12025143D02*
X14085571Y-12044190D01*
X14085571Y-12044190D02*
X14076048Y-12053714D01*
X14076048Y-12053714D02*
X14057000Y-12063238D01*
X14057000Y-12063238D02*
X14018905Y-12063238D01*
X14018905Y-12063238D02*
X13999857Y-12072762D01*
X13999857Y-12072762D02*
X13990333Y-12082286D01*
X13990333Y-12082286D02*
X13980809Y-12101333D01*
X13980809Y-12101333D02*
X13980809Y-12139428D01*
X13980809Y-12139428D02*
X13990333Y-12158476D01*
X13990333Y-12158476D02*
X13999857Y-12168000D01*
X13999857Y-12168000D02*
X14018905Y-12177524D01*
X14018905Y-12177524D02*
X14057000Y-12177524D01*
X14057000Y-12177524D02*
X14076048Y-12168000D01*
X14076048Y-12168000D02*
X14085571Y-12158476D01*
X14085571Y-12158476D02*
X14095095Y-12139428D01*
X14095095Y-12139428D02*
X14095095Y-12101333D01*
X14095095Y-12101333D02*
X14085571Y-12082286D01*
X14085571Y-12082286D02*
X14076048Y-12072762D01*
X14076048Y-12072762D02*
X14057000Y-12063238D01*
X14218905Y-11977524D02*
X14237952Y-11977524D01*
X14237952Y-11977524D02*
X14257000Y-11987048D01*
X14257000Y-11987048D02*
X14266524Y-11996571D01*
X14266524Y-11996571D02*
X14276048Y-12015619D01*
X14276048Y-12015619D02*
X14285571Y-12053714D01*
X14285571Y-12053714D02*
X14285571Y-12101333D01*
X14285571Y-12101333D02*
X14276048Y-12139428D01*
X14276048Y-12139428D02*
X14266524Y-12158476D01*
X14266524Y-12158476D02*
X14257000Y-12168000D01*
X14257000Y-12168000D02*
X14237952Y-12177524D01*
X14237952Y-12177524D02*
X14218905Y-12177524D01*
X14218905Y-12177524D02*
X14199857Y-12168000D01*
X14199857Y-12168000D02*
X14190333Y-12158476D01*
X14190333Y-12158476D02*
X14180809Y-12139428D01*
X14180809Y-12139428D02*
X14171286Y-12101333D01*
X14171286Y-12101333D02*
X14171286Y-12053714D01*
X14171286Y-12053714D02*
X14180809Y-12015619D01*
X14180809Y-12015619D02*
X14190333Y-11996571D01*
X14190333Y-11996571D02*
X14199857Y-11987048D01*
X14199857Y-11987048D02*
X14218905Y-11977524D01*
X14409381Y-11977524D02*
X14428429Y-11977524D01*
X14428429Y-11977524D02*
X14447476Y-11987048D01*
X14447476Y-11987048D02*
X14457000Y-11996571D01*
X14457000Y-11996571D02*
X14466524Y-12015619D01*
X14466524Y-12015619D02*
X14476048Y-12053714D01*
X14476048Y-12053714D02*
X14476048Y-12101333D01*
X14476048Y-12101333D02*
X14466524Y-12139428D01*
X14466524Y-12139428D02*
X14457000Y-12158476D01*
X14457000Y-12158476D02*
X14447476Y-12168000D01*
X14447476Y-12168000D02*
X14428429Y-12177524D01*
X14428429Y-12177524D02*
X14409381Y-12177524D01*
X14409381Y-12177524D02*
X14390333Y-12168000D01*
X14390333Y-12168000D02*
X14380809Y-12158476D01*
X14380809Y-12158476D02*
X14371286Y-12139428D01*
X14371286Y-12139428D02*
X14361762Y-12101333D01*
X14361762Y-12101333D02*
X14361762Y-12053714D01*
X14361762Y-12053714D02*
X14371286Y-12015619D01*
X14371286Y-12015619D02*
X14380809Y-11996571D01*
X14380809Y-11996571D02*
X14390333Y-11987048D01*
X14390333Y-11987048D02*
X14409381Y-11977524D01*
X14561762Y-12177524D02*
X14561762Y-12044190D01*
X14561762Y-12063238D02*
X14571286Y-12053714D01*
X14571286Y-12053714D02*
X14590333Y-12044190D01*
X14590333Y-12044190D02*
X14618905Y-12044190D01*
X14618905Y-12044190D02*
X14637952Y-12053714D01*
X14637952Y-12053714D02*
X14647476Y-12072762D01*
X14647476Y-12072762D02*
X14647476Y-12177524D01*
X14647476Y-12072762D02*
X14657000Y-12053714D01*
X14657000Y-12053714D02*
X14676048Y-12044190D01*
X14676048Y-12044190D02*
X14704619Y-12044190D01*
X14704619Y-12044190D02*
X14723667Y-12053714D01*
X14723667Y-12053714D02*
X14733190Y-12072762D01*
X14733190Y-12072762D02*
X14733190Y-12177524D01*
X14828429Y-12177524D02*
X14828429Y-12044190D01*
X14828429Y-12063238D02*
X14837952Y-12053714D01*
X14837952Y-12053714D02*
X14857000Y-12044190D01*
X14857000Y-12044190D02*
X14885571Y-12044190D01*
X14885571Y-12044190D02*
X14904619Y-12053714D01*
X14904619Y-12053714D02*
X14914143Y-12072762D01*
X14914143Y-12072762D02*
X14914143Y-12177524D01*
X14914143Y-12072762D02*
X14923667Y-12053714D01*
X14923667Y-12053714D02*
X14942714Y-12044190D01*
X14942714Y-12044190D02*
X14971286Y-12044190D01*
X14971286Y-12044190D02*
X14990333Y-12053714D01*
X14990333Y-12053714D02*
X14999857Y-12072762D01*
X14999857Y-12072762D02*
X14999857Y-12177524D01*
X15390333Y-11968000D02*
X15218905Y-12225143D01*
X15647476Y-11977524D02*
X15666524Y-11977524D01*
X15666524Y-11977524D02*
X15685572Y-11987048D01*
X15685572Y-11987048D02*
X15695095Y-11996571D01*
X15695095Y-11996571D02*
X15704619Y-12015619D01*
X15704619Y-12015619D02*
X15714143Y-12053714D01*
X15714143Y-12053714D02*
X15714143Y-12101333D01*
X15714143Y-12101333D02*
X15704619Y-12139428D01*
X15704619Y-12139428D02*
X15695095Y-12158476D01*
X15695095Y-12158476D02*
X15685572Y-12168000D01*
X15685572Y-12168000D02*
X15666524Y-12177524D01*
X15666524Y-12177524D02*
X15647476Y-12177524D01*
X15647476Y-12177524D02*
X15628429Y-12168000D01*
X15628429Y-12168000D02*
X15618905Y-12158476D01*
X15618905Y-12158476D02*
X15609381Y-12139428D01*
X15609381Y-12139428D02*
X15599857Y-12101333D01*
X15599857Y-12101333D02*
X15599857Y-12053714D01*
X15599857Y-12053714D02*
X15609381Y-12015619D01*
X15609381Y-12015619D02*
X15618905Y-11996571D01*
X15618905Y-11996571D02*
X15628429Y-11987048D01*
X15628429Y-11987048D02*
X15647476Y-11977524D01*
X15799857Y-12158476D02*
X15809381Y-12168000D01*
X15809381Y-12168000D02*
X15799857Y-12177524D01*
X15799857Y-12177524D02*
X15790333Y-12168000D01*
X15790333Y-12168000D02*
X15799857Y-12158476D01*
X15799857Y-12158476D02*
X15799857Y-12177524D01*
X15933191Y-11977524D02*
X15952238Y-11977524D01*
X15952238Y-11977524D02*
X15971286Y-11987048D01*
X15971286Y-11987048D02*
X15980810Y-11996571D01*
X15980810Y-11996571D02*
X15990333Y-12015619D01*
X15990333Y-12015619D02*
X15999857Y-12053714D01*
X15999857Y-12053714D02*
X15999857Y-12101333D01*
X15999857Y-12101333D02*
X15990333Y-12139428D01*
X15990333Y-12139428D02*
X15980810Y-12158476D01*
X15980810Y-12158476D02*
X15971286Y-12168000D01*
X15971286Y-12168000D02*
X15952238Y-12177524D01*
X15952238Y-12177524D02*
X15933191Y-12177524D01*
X15933191Y-12177524D02*
X15914143Y-12168000D01*
X15914143Y-12168000D02*
X15904619Y-12158476D01*
X15904619Y-12158476D02*
X15895095Y-12139428D01*
X15895095Y-12139428D02*
X15885572Y-12101333D01*
X15885572Y-12101333D02*
X15885572Y-12053714D01*
X15885572Y-12053714D02*
X15895095Y-12015619D01*
X15895095Y-12015619D02*
X15904619Y-11996571D01*
X15904619Y-11996571D02*
X15914143Y-11987048D01*
X15914143Y-11987048D02*
X15933191Y-11977524D01*
X16066524Y-11977524D02*
X16190333Y-11977524D01*
X16190333Y-11977524D02*
X16123667Y-12053714D01*
X16123667Y-12053714D02*
X16152238Y-12053714D01*
X16152238Y-12053714D02*
X16171286Y-12063238D01*
X16171286Y-12063238D02*
X16180810Y-12072762D01*
X16180810Y-12072762D02*
X16190333Y-12091809D01*
X16190333Y-12091809D02*
X16190333Y-12139428D01*
X16190333Y-12139428D02*
X16180810Y-12158476D01*
X16180810Y-12158476D02*
X16171286Y-12168000D01*
X16171286Y-12168000D02*
X16152238Y-12177524D01*
X16152238Y-12177524D02*
X16095095Y-12177524D01*
X16095095Y-12177524D02*
X16076048Y-12168000D01*
X16076048Y-12168000D02*
X16066524Y-12158476D01*
X16380810Y-12177524D02*
X16266524Y-12177524D01*
X16323667Y-12177524D02*
X16323667Y-11977524D01*
X16323667Y-11977524D02*
X16304619Y-12006095D01*
X16304619Y-12006095D02*
X16285572Y-12025143D01*
X16285572Y-12025143D02*
X16266524Y-12034667D01*
X16561762Y-11977524D02*
X16466524Y-11977524D01*
X16466524Y-11977524D02*
X16457000Y-12072762D01*
X16457000Y-12072762D02*
X16466524Y-12063238D01*
X16466524Y-12063238D02*
X16485572Y-12053714D01*
X16485572Y-12053714D02*
X16533191Y-12053714D01*
X16533191Y-12053714D02*
X16552238Y-12063238D01*
X16552238Y-12063238D02*
X16561762Y-12072762D01*
X16561762Y-12072762D02*
X16571286Y-12091809D01*
X16571286Y-12091809D02*
X16571286Y-12139428D01*
X16571286Y-12139428D02*
X16561762Y-12158476D01*
X16561762Y-12158476D02*
X16552238Y-12168000D01*
X16552238Y-12168000D02*
X16533191Y-12177524D01*
X16533191Y-12177524D02*
X16485572Y-12177524D01*
X16485572Y-12177524D02*
X16466524Y-12168000D01*
X16466524Y-12168000D02*
X16457000Y-12158476D01*
X16647476Y-11977524D02*
X16647476Y-12015619D01*
X16723667Y-11977524D02*
X16723667Y-12015619D01*
X17018905Y-12253714D02*
X17009381Y-12244190D01*
X17009381Y-12244190D02*
X16990334Y-12215619D01*
X16990334Y-12215619D02*
X16980810Y-12196571D01*
X16980810Y-12196571D02*
X16971286Y-12168000D01*
X16971286Y-12168000D02*
X16961762Y-12120381D01*
X16961762Y-12120381D02*
X16961762Y-12082286D01*
X16961762Y-12082286D02*
X16971286Y-12034667D01*
X16971286Y-12034667D02*
X16980810Y-12006095D01*
X16980810Y-12006095D02*
X16990334Y-11987048D01*
X16990334Y-11987048D02*
X17009381Y-11958476D01*
X17009381Y-11958476D02*
X17018905Y-11948952D01*
X17180810Y-11977524D02*
X17142715Y-11977524D01*
X17142715Y-11977524D02*
X17123667Y-11987048D01*
X17123667Y-11987048D02*
X17114143Y-11996571D01*
X17114143Y-11996571D02*
X17095096Y-12025143D01*
X17095096Y-12025143D02*
X17085572Y-12063238D01*
X17085572Y-12063238D02*
X17085572Y-12139428D01*
X17085572Y-12139428D02*
X17095096Y-12158476D01*
X17095096Y-12158476D02*
X17104619Y-12168000D01*
X17104619Y-12168000D02*
X17123667Y-12177524D01*
X17123667Y-12177524D02*
X17161762Y-12177524D01*
X17161762Y-12177524D02*
X17180810Y-12168000D01*
X17180810Y-12168000D02*
X17190334Y-12158476D01*
X17190334Y-12158476D02*
X17199857Y-12139428D01*
X17199857Y-12139428D02*
X17199857Y-12091809D01*
X17199857Y-12091809D02*
X17190334Y-12072762D01*
X17190334Y-12072762D02*
X17180810Y-12063238D01*
X17180810Y-12063238D02*
X17161762Y-12053714D01*
X17161762Y-12053714D02*
X17123667Y-12053714D01*
X17123667Y-12053714D02*
X17104619Y-12063238D01*
X17104619Y-12063238D02*
X17095096Y-12072762D01*
X17095096Y-12072762D02*
X17085572Y-12091809D01*
X17314143Y-12063238D02*
X17295096Y-12053714D01*
X17295096Y-12053714D02*
X17285572Y-12044190D01*
X17285572Y-12044190D02*
X17276048Y-12025143D01*
X17276048Y-12025143D02*
X17276048Y-12015619D01*
X17276048Y-12015619D02*
X17285572Y-11996571D01*
X17285572Y-11996571D02*
X17295096Y-11987048D01*
X17295096Y-11987048D02*
X17314143Y-11977524D01*
X17314143Y-11977524D02*
X17352238Y-11977524D01*
X17352238Y-11977524D02*
X17371286Y-11987048D01*
X17371286Y-11987048D02*
X17380810Y-11996571D01*
X17380810Y-11996571D02*
X17390334Y-12015619D01*
X17390334Y-12015619D02*
X17390334Y-12025143D01*
X17390334Y-12025143D02*
X17380810Y-12044190D01*
X17380810Y-12044190D02*
X17371286Y-12053714D01*
X17371286Y-12053714D02*
X17352238Y-12063238D01*
X17352238Y-12063238D02*
X17314143Y-12063238D01*
X17314143Y-12063238D02*
X17295096Y-12072762D01*
X17295096Y-12072762D02*
X17285572Y-12082286D01*
X17285572Y-12082286D02*
X17276048Y-12101333D01*
X17276048Y-12101333D02*
X17276048Y-12139428D01*
X17276048Y-12139428D02*
X17285572Y-12158476D01*
X17285572Y-12158476D02*
X17295096Y-12168000D01*
X17295096Y-12168000D02*
X17314143Y-12177524D01*
X17314143Y-12177524D02*
X17352238Y-12177524D01*
X17352238Y-12177524D02*
X17371286Y-12168000D01*
X17371286Y-12168000D02*
X17380810Y-12158476D01*
X17380810Y-12158476D02*
X17390334Y-12139428D01*
X17390334Y-12139428D02*
X17390334Y-12101333D01*
X17390334Y-12101333D02*
X17380810Y-12082286D01*
X17380810Y-12082286D02*
X17371286Y-12072762D01*
X17371286Y-12072762D02*
X17352238Y-12063238D01*
X17628429Y-12177524D02*
X17628429Y-11977524D01*
X17714143Y-12177524D02*
X17714143Y-12072762D01*
X17714143Y-12072762D02*
X17704619Y-12053714D01*
X17704619Y-12053714D02*
X17685572Y-12044190D01*
X17685572Y-12044190D02*
X17657000Y-12044190D01*
X17657000Y-12044190D02*
X17637953Y-12053714D01*
X17637953Y-12053714D02*
X17628429Y-12063238D01*
X17837953Y-12177524D02*
X17818905Y-12168000D01*
X17818905Y-12168000D02*
X17809381Y-12158476D01*
X17809381Y-12158476D02*
X17799858Y-12139428D01*
X17799858Y-12139428D02*
X17799858Y-12082286D01*
X17799858Y-12082286D02*
X17809381Y-12063238D01*
X17809381Y-12063238D02*
X17818905Y-12053714D01*
X17818905Y-12053714D02*
X17837953Y-12044190D01*
X17837953Y-12044190D02*
X17866524Y-12044190D01*
X17866524Y-12044190D02*
X17885572Y-12053714D01*
X17885572Y-12053714D02*
X17895096Y-12063238D01*
X17895096Y-12063238D02*
X17904619Y-12082286D01*
X17904619Y-12082286D02*
X17904619Y-12139428D01*
X17904619Y-12139428D02*
X17895096Y-12158476D01*
X17895096Y-12158476D02*
X17885572Y-12168000D01*
X17885572Y-12168000D02*
X17866524Y-12177524D01*
X17866524Y-12177524D02*
X17837953Y-12177524D01*
X18018905Y-12177524D02*
X17999858Y-12168000D01*
X17999858Y-12168000D02*
X17990334Y-12148952D01*
X17990334Y-12148952D02*
X17990334Y-11977524D01*
X18171286Y-12168000D02*
X18152239Y-12177524D01*
X18152239Y-12177524D02*
X18114143Y-12177524D01*
X18114143Y-12177524D02*
X18095096Y-12168000D01*
X18095096Y-12168000D02*
X18085572Y-12148952D01*
X18085572Y-12148952D02*
X18085572Y-12072762D01*
X18085572Y-12072762D02*
X18095096Y-12053714D01*
X18095096Y-12053714D02*
X18114143Y-12044190D01*
X18114143Y-12044190D02*
X18152239Y-12044190D01*
X18152239Y-12044190D02*
X18171286Y-12053714D01*
X18171286Y-12053714D02*
X18180810Y-12072762D01*
X18180810Y-12072762D02*
X18180810Y-12091809D01*
X18180810Y-12091809D02*
X18085572Y-12110857D01*
X18257000Y-12168000D02*
X18276048Y-12177524D01*
X18276048Y-12177524D02*
X18314143Y-12177524D01*
X18314143Y-12177524D02*
X18333191Y-12168000D01*
X18333191Y-12168000D02*
X18342715Y-12148952D01*
X18342715Y-12148952D02*
X18342715Y-12139428D01*
X18342715Y-12139428D02*
X18333191Y-12120381D01*
X18333191Y-12120381D02*
X18314143Y-12110857D01*
X18314143Y-12110857D02*
X18285572Y-12110857D01*
X18285572Y-12110857D02*
X18266524Y-12101333D01*
X18266524Y-12101333D02*
X18257000Y-12082286D01*
X18257000Y-12082286D02*
X18257000Y-12072762D01*
X18257000Y-12072762D02*
X18266524Y-12053714D01*
X18266524Y-12053714D02*
X18285572Y-12044190D01*
X18285572Y-12044190D02*
X18314143Y-12044190D01*
X18314143Y-12044190D02*
X18333191Y-12053714D01*
X18409381Y-12253714D02*
X18418905Y-12244190D01*
X18418905Y-12244190D02*
X18437953Y-12215619D01*
X18437953Y-12215619D02*
X18447477Y-12196571D01*
X18447477Y-12196571D02*
X18457000Y-12168000D01*
X18457000Y-12168000D02*
X18466524Y-12120381D01*
X18466524Y-12120381D02*
X18466524Y-12082286D01*
X18466524Y-12082286D02*
X18457000Y-12034667D01*
X18457000Y-12034667D02*
X18447477Y-12006095D01*
X18447477Y-12006095D02*
X18437953Y-11987048D01*
X18437953Y-11987048D02*
X18418905Y-11958476D01*
X18418905Y-11958476D02*
X18409381Y-11948952D01*
D10*
X13407000Y-12299000D02*
X13407000Y-12399000D01*
X13357000Y-12349000D02*
X13457000Y-12349000D01*
D11*
X13809381Y-12441524D02*
X13695095Y-12441524D01*
X13752238Y-12441524D02*
X13752238Y-12241524D01*
X13752238Y-12241524D02*
X13733190Y-12270095D01*
X13733190Y-12270095D02*
X13714143Y-12289143D01*
X13714143Y-12289143D02*
X13695095Y-12298667D01*
X13895095Y-12422476D02*
X13904619Y-12432000D01*
X13904619Y-12432000D02*
X13895095Y-12441524D01*
X13895095Y-12441524D02*
X13885571Y-12432000D01*
X13885571Y-12432000D02*
X13895095Y-12422476D01*
X13895095Y-12422476D02*
X13895095Y-12441524D01*
X14028428Y-12241524D02*
X14047476Y-12241524D01*
X14047476Y-12241524D02*
X14066524Y-12251048D01*
X14066524Y-12251048D02*
X14076048Y-12260571D01*
X14076048Y-12260571D02*
X14085571Y-12279619D01*
X14085571Y-12279619D02*
X14095095Y-12317714D01*
X14095095Y-12317714D02*
X14095095Y-12365333D01*
X14095095Y-12365333D02*
X14085571Y-12403428D01*
X14085571Y-12403428D02*
X14076048Y-12422476D01*
X14076048Y-12422476D02*
X14066524Y-12432000D01*
X14066524Y-12432000D02*
X14047476Y-12441524D01*
X14047476Y-12441524D02*
X14028428Y-12441524D01*
X14028428Y-12441524D02*
X14009381Y-12432000D01*
X14009381Y-12432000D02*
X13999857Y-12422476D01*
X13999857Y-12422476D02*
X13990333Y-12403428D01*
X13990333Y-12403428D02*
X13980809Y-12365333D01*
X13980809Y-12365333D02*
X13980809Y-12317714D01*
X13980809Y-12317714D02*
X13990333Y-12279619D01*
X13990333Y-12279619D02*
X13999857Y-12260571D01*
X13999857Y-12260571D02*
X14009381Y-12251048D01*
X14009381Y-12251048D02*
X14028428Y-12241524D01*
X14218905Y-12241524D02*
X14237952Y-12241524D01*
X14237952Y-12241524D02*
X14257000Y-12251048D01*
X14257000Y-12251048D02*
X14266524Y-12260571D01*
X14266524Y-12260571D02*
X14276048Y-12279619D01*
X14276048Y-12279619D02*
X14285571Y-12317714D01*
X14285571Y-12317714D02*
X14285571Y-12365333D01*
X14285571Y-12365333D02*
X14276048Y-12403428D01*
X14276048Y-12403428D02*
X14266524Y-12422476D01*
X14266524Y-12422476D02*
X14257000Y-12432000D01*
X14257000Y-12432000D02*
X14237952Y-12441524D01*
X14237952Y-12441524D02*
X14218905Y-12441524D01*
X14218905Y-12441524D02*
X14199857Y-12432000D01*
X14199857Y-12432000D02*
X14190333Y-12422476D01*
X14190333Y-12422476D02*
X14180809Y-12403428D01*
X14180809Y-12403428D02*
X14171286Y-12365333D01*
X14171286Y-12365333D02*
X14171286Y-12317714D01*
X14171286Y-12317714D02*
X14180809Y-12279619D01*
X14180809Y-12279619D02*
X14190333Y-12260571D01*
X14190333Y-12260571D02*
X14199857Y-12251048D01*
X14199857Y-12251048D02*
X14218905Y-12241524D01*
X14409381Y-12241524D02*
X14428429Y-12241524D01*
X14428429Y-12241524D02*
X14447476Y-12251048D01*
X14447476Y-12251048D02*
X14457000Y-12260571D01*
X14457000Y-12260571D02*
X14466524Y-12279619D01*
X14466524Y-12279619D02*
X14476048Y-12317714D01*
X14476048Y-12317714D02*
X14476048Y-12365333D01*
X14476048Y-12365333D02*
X14466524Y-12403428D01*
X14466524Y-12403428D02*
X14457000Y-12422476D01*
X14457000Y-12422476D02*
X14447476Y-12432000D01*
X14447476Y-12432000D02*
X14428429Y-12441524D01*
X14428429Y-12441524D02*
X14409381Y-12441524D01*
X14409381Y-12441524D02*
X14390333Y-12432000D01*
X14390333Y-12432000D02*
X14380809Y-12422476D01*
X14380809Y-12422476D02*
X14371286Y-12403428D01*
X14371286Y-12403428D02*
X14361762Y-12365333D01*
X14361762Y-12365333D02*
X14361762Y-12317714D01*
X14361762Y-12317714D02*
X14371286Y-12279619D01*
X14371286Y-12279619D02*
X14380809Y-12260571D01*
X14380809Y-12260571D02*
X14390333Y-12251048D01*
X14390333Y-12251048D02*
X14409381Y-12241524D01*
X14561762Y-12441524D02*
X14561762Y-12308190D01*
X14561762Y-12327238D02*
X14571286Y-12317714D01*
X14571286Y-12317714D02*
X14590333Y-12308190D01*
X14590333Y-12308190D02*
X14618905Y-12308190D01*
X14618905Y-12308190D02*
X14637952Y-12317714D01*
X14637952Y-12317714D02*
X14647476Y-12336762D01*
X14647476Y-12336762D02*
X14647476Y-12441524D01*
X14647476Y-12336762D02*
X14657000Y-12317714D01*
X14657000Y-12317714D02*
X14676048Y-12308190D01*
X14676048Y-12308190D02*
X14704619Y-12308190D01*
X14704619Y-12308190D02*
X14723667Y-12317714D01*
X14723667Y-12317714D02*
X14733190Y-12336762D01*
X14733190Y-12336762D02*
X14733190Y-12441524D01*
X14828429Y-12441524D02*
X14828429Y-12308190D01*
X14828429Y-12327238D02*
X14837952Y-12317714D01*
X14837952Y-12317714D02*
X14857000Y-12308190D01*
X14857000Y-12308190D02*
X14885571Y-12308190D01*
X14885571Y-12308190D02*
X14904619Y-12317714D01*
X14904619Y-12317714D02*
X14914143Y-12336762D01*
X14914143Y-12336762D02*
X14914143Y-12441524D01*
X14914143Y-12336762D02*
X14923667Y-12317714D01*
X14923667Y-12317714D02*
X14942714Y-12308190D01*
X14942714Y-12308190D02*
X14971286Y-12308190D01*
X14971286Y-12308190D02*
X14990333Y-12317714D01*
X14990333Y-12317714D02*
X14999857Y-12336762D01*
X14999857Y-12336762D02*
X14999857Y-12441524D01*
X15390333Y-12232000D02*
X15218905Y-12489143D01*
X15647476Y-12241524D02*
X15666524Y-12241524D01*
X15666524Y-12241524D02*
X15685572Y-12251048D01*
X15685572Y-12251048D02*
X15695095Y-12260571D01*
X15695095Y-12260571D02*
X15704619Y-12279619D01*
X15704619Y-12279619D02*
X15714143Y-12317714D01*
X15714143Y-12317714D02*
X15714143Y-12365333D01*
X15714143Y-12365333D02*
X15704619Y-12403428D01*
X15704619Y-12403428D02*
X15695095Y-12422476D01*
X15695095Y-12422476D02*
X15685572Y-12432000D01*
X15685572Y-12432000D02*
X15666524Y-12441524D01*
X15666524Y-12441524D02*
X15647476Y-12441524D01*
X15647476Y-12441524D02*
X15628429Y-12432000D01*
X15628429Y-12432000D02*
X15618905Y-12422476D01*
X15618905Y-12422476D02*
X15609381Y-12403428D01*
X15609381Y-12403428D02*
X15599857Y-12365333D01*
X15599857Y-12365333D02*
X15599857Y-12317714D01*
X15599857Y-12317714D02*
X15609381Y-12279619D01*
X15609381Y-12279619D02*
X15618905Y-12260571D01*
X15618905Y-12260571D02*
X15628429Y-12251048D01*
X15628429Y-12251048D02*
X15647476Y-12241524D01*
X15799857Y-12422476D02*
X15809381Y-12432000D01*
X15809381Y-12432000D02*
X15799857Y-12441524D01*
X15799857Y-12441524D02*
X15790333Y-12432000D01*
X15790333Y-12432000D02*
X15799857Y-12422476D01*
X15799857Y-12422476D02*
X15799857Y-12441524D01*
X15933191Y-12241524D02*
X15952238Y-12241524D01*
X15952238Y-12241524D02*
X15971286Y-12251048D01*
X15971286Y-12251048D02*
X15980810Y-12260571D01*
X15980810Y-12260571D02*
X15990333Y-12279619D01*
X15990333Y-12279619D02*
X15999857Y-12317714D01*
X15999857Y-12317714D02*
X15999857Y-12365333D01*
X15999857Y-12365333D02*
X15990333Y-12403428D01*
X15990333Y-12403428D02*
X15980810Y-12422476D01*
X15980810Y-12422476D02*
X15971286Y-12432000D01*
X15971286Y-12432000D02*
X15952238Y-12441524D01*
X15952238Y-12441524D02*
X15933191Y-12441524D01*
X15933191Y-12441524D02*
X15914143Y-12432000D01*
X15914143Y-12432000D02*
X15904619Y-12422476D01*
X15904619Y-12422476D02*
X15895095Y-12403428D01*
X15895095Y-12403428D02*
X15885572Y-12365333D01*
X15885572Y-12365333D02*
X15885572Y-12317714D01*
X15885572Y-12317714D02*
X15895095Y-12279619D01*
X15895095Y-12279619D02*
X15904619Y-12260571D01*
X15904619Y-12260571D02*
X15914143Y-12251048D01*
X15914143Y-12251048D02*
X15933191Y-12241524D01*
X16066524Y-12241524D02*
X16190333Y-12241524D01*
X16190333Y-12241524D02*
X16123667Y-12317714D01*
X16123667Y-12317714D02*
X16152238Y-12317714D01*
X16152238Y-12317714D02*
X16171286Y-12327238D01*
X16171286Y-12327238D02*
X16180810Y-12336762D01*
X16180810Y-12336762D02*
X16190333Y-12355809D01*
X16190333Y-12355809D02*
X16190333Y-12403428D01*
X16190333Y-12403428D02*
X16180810Y-12422476D01*
X16180810Y-12422476D02*
X16171286Y-12432000D01*
X16171286Y-12432000D02*
X16152238Y-12441524D01*
X16152238Y-12441524D02*
X16095095Y-12441524D01*
X16095095Y-12441524D02*
X16076048Y-12432000D01*
X16076048Y-12432000D02*
X16066524Y-12422476D01*
X16285572Y-12441524D02*
X16323667Y-12441524D01*
X16323667Y-12441524D02*
X16342714Y-12432000D01*
X16342714Y-12432000D02*
X16352238Y-12422476D01*
X16352238Y-12422476D02*
X16371286Y-12393905D01*
X16371286Y-12393905D02*
X16380810Y-12355809D01*
X16380810Y-12355809D02*
X16380810Y-12279619D01*
X16380810Y-12279619D02*
X16371286Y-12260571D01*
X16371286Y-12260571D02*
X16361762Y-12251048D01*
X16361762Y-12251048D02*
X16342714Y-12241524D01*
X16342714Y-12241524D02*
X16304619Y-12241524D01*
X16304619Y-12241524D02*
X16285572Y-12251048D01*
X16285572Y-12251048D02*
X16276048Y-12260571D01*
X16276048Y-12260571D02*
X16266524Y-12279619D01*
X16266524Y-12279619D02*
X16266524Y-12327238D01*
X16266524Y-12327238D02*
X16276048Y-12346286D01*
X16276048Y-12346286D02*
X16285572Y-12355809D01*
X16285572Y-12355809D02*
X16304619Y-12365333D01*
X16304619Y-12365333D02*
X16342714Y-12365333D01*
X16342714Y-12365333D02*
X16361762Y-12355809D01*
X16361762Y-12355809D02*
X16371286Y-12346286D01*
X16371286Y-12346286D02*
X16380810Y-12327238D01*
X16552238Y-12308190D02*
X16552238Y-12441524D01*
X16504619Y-12232000D02*
X16457000Y-12374857D01*
X16457000Y-12374857D02*
X16580810Y-12374857D01*
X16647476Y-12241524D02*
X16647476Y-12279619D01*
X16723667Y-12241524D02*
X16723667Y-12279619D01*
X17018905Y-12517714D02*
X17009381Y-12508190D01*
X17009381Y-12508190D02*
X16990334Y-12479619D01*
X16990334Y-12479619D02*
X16980810Y-12460571D01*
X16980810Y-12460571D02*
X16971286Y-12432000D01*
X16971286Y-12432000D02*
X16961762Y-12384381D01*
X16961762Y-12384381D02*
X16961762Y-12346286D01*
X16961762Y-12346286D02*
X16971286Y-12298667D01*
X16971286Y-12298667D02*
X16980810Y-12270095D01*
X16980810Y-12270095D02*
X16990334Y-12251048D01*
X16990334Y-12251048D02*
X17009381Y-12222476D01*
X17009381Y-12222476D02*
X17018905Y-12212952D01*
X17199857Y-12441524D02*
X17085572Y-12441524D01*
X17142715Y-12441524D02*
X17142715Y-12241524D01*
X17142715Y-12241524D02*
X17123667Y-12270095D01*
X17123667Y-12270095D02*
X17104619Y-12289143D01*
X17104619Y-12289143D02*
X17085572Y-12298667D01*
X17323667Y-12241524D02*
X17342715Y-12241524D01*
X17342715Y-12241524D02*
X17361762Y-12251048D01*
X17361762Y-12251048D02*
X17371286Y-12260571D01*
X17371286Y-12260571D02*
X17380810Y-12279619D01*
X17380810Y-12279619D02*
X17390334Y-12317714D01*
X17390334Y-12317714D02*
X17390334Y-12365333D01*
X17390334Y-12365333D02*
X17380810Y-12403428D01*
X17380810Y-12403428D02*
X17371286Y-12422476D01*
X17371286Y-12422476D02*
X17361762Y-12432000D01*
X17361762Y-12432000D02*
X17342715Y-12441524D01*
X17342715Y-12441524D02*
X17323667Y-12441524D01*
X17323667Y-12441524D02*
X17304619Y-12432000D01*
X17304619Y-12432000D02*
X17295096Y-12422476D01*
X17295096Y-12422476D02*
X17285572Y-12403428D01*
X17285572Y-12403428D02*
X17276048Y-12365333D01*
X17276048Y-12365333D02*
X17276048Y-12317714D01*
X17276048Y-12317714D02*
X17285572Y-12279619D01*
X17285572Y-12279619D02*
X17295096Y-12260571D01*
X17295096Y-12260571D02*
X17304619Y-12251048D01*
X17304619Y-12251048D02*
X17323667Y-12241524D01*
X17561762Y-12308190D02*
X17561762Y-12441524D01*
X17514143Y-12232000D02*
X17466524Y-12374857D01*
X17466524Y-12374857D02*
X17590334Y-12374857D01*
X17818905Y-12441524D02*
X17818905Y-12241524D01*
X17904619Y-12441524D02*
X17904619Y-12336762D01*
X17904619Y-12336762D02*
X17895096Y-12317714D01*
X17895096Y-12317714D02*
X17876048Y-12308190D01*
X17876048Y-12308190D02*
X17847477Y-12308190D01*
X17847477Y-12308190D02*
X17828429Y-12317714D01*
X17828429Y-12317714D02*
X17818905Y-12327238D01*
X18028429Y-12441524D02*
X18009381Y-12432000D01*
X18009381Y-12432000D02*
X17999858Y-12422476D01*
X17999858Y-12422476D02*
X17990334Y-12403428D01*
X17990334Y-12403428D02*
X17990334Y-12346286D01*
X17990334Y-12346286D02*
X17999858Y-12327238D01*
X17999858Y-12327238D02*
X18009381Y-12317714D01*
X18009381Y-12317714D02*
X18028429Y-12308190D01*
X18028429Y-12308190D02*
X18057000Y-12308190D01*
X18057000Y-12308190D02*
X18076048Y-12317714D01*
X18076048Y-12317714D02*
X18085572Y-12327238D01*
X18085572Y-12327238D02*
X18095096Y-12346286D01*
X18095096Y-12346286D02*
X18095096Y-12403428D01*
X18095096Y-12403428D02*
X18085572Y-12422476D01*
X18085572Y-12422476D02*
X18076048Y-12432000D01*
X18076048Y-12432000D02*
X18057000Y-12441524D01*
X18057000Y-12441524D02*
X18028429Y-12441524D01*
X18209381Y-12441524D02*
X18190334Y-12432000D01*
X18190334Y-12432000D02*
X18180810Y-12412952D01*
X18180810Y-12412952D02*
X18180810Y-12241524D01*
X18361762Y-12432000D02*
X18342715Y-12441524D01*
X18342715Y-12441524D02*
X18304619Y-12441524D01*
X18304619Y-12441524D02*
X18285572Y-12432000D01*
X18285572Y-12432000D02*
X18276048Y-12412952D01*
X18276048Y-12412952D02*
X18276048Y-12336762D01*
X18276048Y-12336762D02*
X18285572Y-12317714D01*
X18285572Y-12317714D02*
X18304619Y-12308190D01*
X18304619Y-12308190D02*
X18342715Y-12308190D01*
X18342715Y-12308190D02*
X18361762Y-12317714D01*
X18361762Y-12317714D02*
X18371286Y-12336762D01*
X18371286Y-12336762D02*
X18371286Y-12355809D01*
X18371286Y-12355809D02*
X18276048Y-12374857D01*
X18447477Y-12432000D02*
X18466524Y-12441524D01*
X18466524Y-12441524D02*
X18504619Y-12441524D01*
X18504619Y-12441524D02*
X18523667Y-12432000D01*
X18523667Y-12432000D02*
X18533191Y-12412952D01*
X18533191Y-12412952D02*
X18533191Y-12403428D01*
X18533191Y-12403428D02*
X18523667Y-12384381D01*
X18523667Y-12384381D02*
X18504619Y-12374857D01*
X18504619Y-12374857D02*
X18476048Y-12374857D01*
X18476048Y-12374857D02*
X18457000Y-12365333D01*
X18457000Y-12365333D02*
X18447477Y-12346286D01*
X18447477Y-12346286D02*
X18447477Y-12336762D01*
X18447477Y-12336762D02*
X18457000Y-12317714D01*
X18457000Y-12317714D02*
X18476048Y-12308190D01*
X18476048Y-12308190D02*
X18504619Y-12308190D01*
X18504619Y-12308190D02*
X18523667Y-12317714D01*
X18599858Y-12517714D02*
X18609381Y-12508190D01*
X18609381Y-12508190D02*
X18628429Y-12479619D01*
X18628429Y-12479619D02*
X18637953Y-12460571D01*
X18637953Y-12460571D02*
X18647477Y-12432000D01*
X18647477Y-12432000D02*
X18657000Y-12384381D01*
X18657000Y-12384381D02*
X18657000Y-12346286D01*
X18657000Y-12346286D02*
X18647477Y-12298667D01*
X18647477Y-12298667D02*
X18637953Y-12270095D01*
X18637953Y-12270095D02*
X18628429Y-12251048D01*
X18628429Y-12251048D02*
X18609381Y-12222476D01*
X18609381Y-12222476D02*
X18599858Y-12212952D01*
D14*
X13440891Y-12651891D02*
X13440891Y-12574109D01*
X13363109Y-12574109D01*
X13363109Y-12651891D01*
X13440891Y-12651891D01*
D11*
X13809381Y-12705524D02*
X13695095Y-12705524D01*
X13752238Y-12705524D02*
X13752238Y-12505524D01*
X13752238Y-12505524D02*
X13733190Y-12534095D01*
X13733190Y-12534095D02*
X13714143Y-12553143D01*
X13714143Y-12553143D02*
X13695095Y-12562667D01*
X13895095Y-12686476D02*
X13904619Y-12696000D01*
X13904619Y-12696000D02*
X13895095Y-12705524D01*
X13895095Y-12705524D02*
X13885571Y-12696000D01*
X13885571Y-12696000D02*
X13895095Y-12686476D01*
X13895095Y-12686476D02*
X13895095Y-12705524D01*
X14095095Y-12705524D02*
X13980809Y-12705524D01*
X14037952Y-12705524D02*
X14037952Y-12505524D01*
X14037952Y-12505524D02*
X14018905Y-12534095D01*
X14018905Y-12534095D02*
X13999857Y-12553143D01*
X13999857Y-12553143D02*
X13980809Y-12562667D01*
X14218905Y-12505524D02*
X14237952Y-12505524D01*
X14237952Y-12505524D02*
X14257000Y-12515048D01*
X14257000Y-12515048D02*
X14266524Y-12524571D01*
X14266524Y-12524571D02*
X14276048Y-12543619D01*
X14276048Y-12543619D02*
X14285571Y-12581714D01*
X14285571Y-12581714D02*
X14285571Y-12629333D01*
X14285571Y-12629333D02*
X14276048Y-12667428D01*
X14276048Y-12667428D02*
X14266524Y-12686476D01*
X14266524Y-12686476D02*
X14257000Y-12696000D01*
X14257000Y-12696000D02*
X14237952Y-12705524D01*
X14237952Y-12705524D02*
X14218905Y-12705524D01*
X14218905Y-12705524D02*
X14199857Y-12696000D01*
X14199857Y-12696000D02*
X14190333Y-12686476D01*
X14190333Y-12686476D02*
X14180809Y-12667428D01*
X14180809Y-12667428D02*
X14171286Y-12629333D01*
X14171286Y-12629333D02*
X14171286Y-12581714D01*
X14171286Y-12581714D02*
X14180809Y-12543619D01*
X14180809Y-12543619D02*
X14190333Y-12524571D01*
X14190333Y-12524571D02*
X14199857Y-12515048D01*
X14199857Y-12515048D02*
X14218905Y-12505524D01*
X14409381Y-12505524D02*
X14428429Y-12505524D01*
X14428429Y-12505524D02*
X14447476Y-12515048D01*
X14447476Y-12515048D02*
X14457000Y-12524571D01*
X14457000Y-12524571D02*
X14466524Y-12543619D01*
X14466524Y-12543619D02*
X14476048Y-12581714D01*
X14476048Y-12581714D02*
X14476048Y-12629333D01*
X14476048Y-12629333D02*
X14466524Y-12667428D01*
X14466524Y-12667428D02*
X14457000Y-12686476D01*
X14457000Y-12686476D02*
X14447476Y-12696000D01*
X14447476Y-12696000D02*
X14428429Y-12705524D01*
X14428429Y-12705524D02*
X14409381Y-12705524D01*
X14409381Y-12705524D02*
X14390333Y-12696000D01*
X14390333Y-12696000D02*
X14380809Y-12686476D01*
X14380809Y-12686476D02*
X14371286Y-12667428D01*
X14371286Y-12667428D02*
X14361762Y-12629333D01*
X14361762Y-12629333D02*
X14361762Y-12581714D01*
X14361762Y-12581714D02*
X14371286Y-12543619D01*
X14371286Y-12543619D02*
X14380809Y-12524571D01*
X14380809Y-12524571D02*
X14390333Y-12515048D01*
X14390333Y-12515048D02*
X14409381Y-12505524D01*
X14561762Y-12705524D02*
X14561762Y-12572190D01*
X14561762Y-12591238D02*
X14571286Y-12581714D01*
X14571286Y-12581714D02*
X14590333Y-12572190D01*
X14590333Y-12572190D02*
X14618905Y-12572190D01*
X14618905Y-12572190D02*
X14637952Y-12581714D01*
X14637952Y-12581714D02*
X14647476Y-12600762D01*
X14647476Y-12600762D02*
X14647476Y-12705524D01*
X14647476Y-12600762D02*
X14657000Y-12581714D01*
X14657000Y-12581714D02*
X14676048Y-12572190D01*
X14676048Y-12572190D02*
X14704619Y-12572190D01*
X14704619Y-12572190D02*
X14723667Y-12581714D01*
X14723667Y-12581714D02*
X14733190Y-12600762D01*
X14733190Y-12600762D02*
X14733190Y-12705524D01*
X14828429Y-12705524D02*
X14828429Y-12572190D01*
X14828429Y-12591238D02*
X14837952Y-12581714D01*
X14837952Y-12581714D02*
X14857000Y-12572190D01*
X14857000Y-12572190D02*
X14885571Y-12572190D01*
X14885571Y-12572190D02*
X14904619Y-12581714D01*
X14904619Y-12581714D02*
X14914143Y-12600762D01*
X14914143Y-12600762D02*
X14914143Y-12705524D01*
X14914143Y-12600762D02*
X14923667Y-12581714D01*
X14923667Y-12581714D02*
X14942714Y-12572190D01*
X14942714Y-12572190D02*
X14971286Y-12572190D01*
X14971286Y-12572190D02*
X14990333Y-12581714D01*
X14990333Y-12581714D02*
X14999857Y-12600762D01*
X14999857Y-12600762D02*
X14999857Y-12705524D01*
X15390333Y-12496000D02*
X15218905Y-12753143D01*
X15647476Y-12505524D02*
X15666524Y-12505524D01*
X15666524Y-12505524D02*
X15685572Y-12515048D01*
X15685572Y-12515048D02*
X15695095Y-12524571D01*
X15695095Y-12524571D02*
X15704619Y-12543619D01*
X15704619Y-12543619D02*
X15714143Y-12581714D01*
X15714143Y-12581714D02*
X15714143Y-12629333D01*
X15714143Y-12629333D02*
X15704619Y-12667428D01*
X15704619Y-12667428D02*
X15695095Y-12686476D01*
X15695095Y-12686476D02*
X15685572Y-12696000D01*
X15685572Y-12696000D02*
X15666524Y-12705524D01*
X15666524Y-12705524D02*
X15647476Y-12705524D01*
X15647476Y-12705524D02*
X15628429Y-12696000D01*
X15628429Y-12696000D02*
X15618905Y-12686476D01*
X15618905Y-12686476D02*
X15609381Y-12667428D01*
X15609381Y-12667428D02*
X15599857Y-12629333D01*
X15599857Y-12629333D02*
X15599857Y-12581714D01*
X15599857Y-12581714D02*
X15609381Y-12543619D01*
X15609381Y-12543619D02*
X15618905Y-12524571D01*
X15618905Y-12524571D02*
X15628429Y-12515048D01*
X15628429Y-12515048D02*
X15647476Y-12505524D01*
X15799857Y-12686476D02*
X15809381Y-12696000D01*
X15809381Y-12696000D02*
X15799857Y-12705524D01*
X15799857Y-12705524D02*
X15790333Y-12696000D01*
X15790333Y-12696000D02*
X15799857Y-12686476D01*
X15799857Y-12686476D02*
X15799857Y-12705524D01*
X15933191Y-12505524D02*
X15952238Y-12505524D01*
X15952238Y-12505524D02*
X15971286Y-12515048D01*
X15971286Y-12515048D02*
X15980810Y-12524571D01*
X15980810Y-12524571D02*
X15990333Y-12543619D01*
X15990333Y-12543619D02*
X15999857Y-12581714D01*
X15999857Y-12581714D02*
X15999857Y-12629333D01*
X15999857Y-12629333D02*
X15990333Y-12667428D01*
X15990333Y-12667428D02*
X15980810Y-12686476D01*
X15980810Y-12686476D02*
X15971286Y-12696000D01*
X15971286Y-12696000D02*
X15952238Y-12705524D01*
X15952238Y-12705524D02*
X15933191Y-12705524D01*
X15933191Y-12705524D02*
X15914143Y-12696000D01*
X15914143Y-12696000D02*
X15904619Y-12686476D01*
X15904619Y-12686476D02*
X15895095Y-12667428D01*
X15895095Y-12667428D02*
X15885572Y-12629333D01*
X15885572Y-12629333D02*
X15885572Y-12581714D01*
X15885572Y-12581714D02*
X15895095Y-12543619D01*
X15895095Y-12543619D02*
X15904619Y-12524571D01*
X15904619Y-12524571D02*
X15914143Y-12515048D01*
X15914143Y-12515048D02*
X15933191Y-12505524D01*
X16171286Y-12572190D02*
X16171286Y-12705524D01*
X16123667Y-12496000D02*
X16076048Y-12638857D01*
X16076048Y-12638857D02*
X16199857Y-12638857D01*
X16257000Y-12505524D02*
X16380810Y-12505524D01*
X16380810Y-12505524D02*
X16314143Y-12581714D01*
X16314143Y-12581714D02*
X16342714Y-12581714D01*
X16342714Y-12581714D02*
X16361762Y-12591238D01*
X16361762Y-12591238D02*
X16371286Y-12600762D01*
X16371286Y-12600762D02*
X16380810Y-12619809D01*
X16380810Y-12619809D02*
X16380810Y-12667428D01*
X16380810Y-12667428D02*
X16371286Y-12686476D01*
X16371286Y-12686476D02*
X16361762Y-12696000D01*
X16361762Y-12696000D02*
X16342714Y-12705524D01*
X16342714Y-12705524D02*
X16285572Y-12705524D01*
X16285572Y-12705524D02*
X16266524Y-12696000D01*
X16266524Y-12696000D02*
X16257000Y-12686476D01*
X16447476Y-12505524D02*
X16571286Y-12505524D01*
X16571286Y-12505524D02*
X16504619Y-12581714D01*
X16504619Y-12581714D02*
X16533191Y-12581714D01*
X16533191Y-12581714D02*
X16552238Y-12591238D01*
X16552238Y-12591238D02*
X16561762Y-12600762D01*
X16561762Y-12600762D02*
X16571286Y-12619809D01*
X16571286Y-12619809D02*
X16571286Y-12667428D01*
X16571286Y-12667428D02*
X16561762Y-12686476D01*
X16561762Y-12686476D02*
X16552238Y-12696000D01*
X16552238Y-12696000D02*
X16533191Y-12705524D01*
X16533191Y-12705524D02*
X16476048Y-12705524D01*
X16476048Y-12705524D02*
X16457000Y-12696000D01*
X16457000Y-12696000D02*
X16447476Y-12686476D01*
X16647476Y-12505524D02*
X16647476Y-12543619D01*
X16723667Y-12505524D02*
X16723667Y-12543619D01*
X17018905Y-12781714D02*
X17009381Y-12772190D01*
X17009381Y-12772190D02*
X16990334Y-12743619D01*
X16990334Y-12743619D02*
X16980810Y-12724571D01*
X16980810Y-12724571D02*
X16971286Y-12696000D01*
X16971286Y-12696000D02*
X16961762Y-12648381D01*
X16961762Y-12648381D02*
X16961762Y-12610286D01*
X16961762Y-12610286D02*
X16971286Y-12562667D01*
X16971286Y-12562667D02*
X16980810Y-12534095D01*
X16980810Y-12534095D02*
X16990334Y-12515048D01*
X16990334Y-12515048D02*
X17009381Y-12486476D01*
X17009381Y-12486476D02*
X17018905Y-12476952D01*
X17085572Y-12524571D02*
X17095096Y-12515048D01*
X17095096Y-12515048D02*
X17114143Y-12505524D01*
X17114143Y-12505524D02*
X17161762Y-12505524D01*
X17161762Y-12505524D02*
X17180810Y-12515048D01*
X17180810Y-12515048D02*
X17190334Y-12524571D01*
X17190334Y-12524571D02*
X17199857Y-12543619D01*
X17199857Y-12543619D02*
X17199857Y-12562667D01*
X17199857Y-12562667D02*
X17190334Y-12591238D01*
X17190334Y-12591238D02*
X17076048Y-12705524D01*
X17076048Y-12705524D02*
X17199857Y-12705524D01*
X17437953Y-12705524D02*
X17437953Y-12505524D01*
X17523667Y-12705524D02*
X17523667Y-12600762D01*
X17523667Y-12600762D02*
X17514143Y-12581714D01*
X17514143Y-12581714D02*
X17495096Y-12572190D01*
X17495096Y-12572190D02*
X17466524Y-12572190D01*
X17466524Y-12572190D02*
X17447477Y-12581714D01*
X17447477Y-12581714D02*
X17437953Y-12591238D01*
X17647477Y-12705524D02*
X17628429Y-12696000D01*
X17628429Y-12696000D02*
X17618905Y-12686476D01*
X17618905Y-12686476D02*
X17609381Y-12667428D01*
X17609381Y-12667428D02*
X17609381Y-12610286D01*
X17609381Y-12610286D02*
X17618905Y-12591238D01*
X17618905Y-12591238D02*
X17628429Y-12581714D01*
X17628429Y-12581714D02*
X17647477Y-12572190D01*
X17647477Y-12572190D02*
X17676048Y-12572190D01*
X17676048Y-12572190D02*
X17695096Y-12581714D01*
X17695096Y-12581714D02*
X17704619Y-12591238D01*
X17704619Y-12591238D02*
X17714143Y-12610286D01*
X17714143Y-12610286D02*
X17714143Y-12667428D01*
X17714143Y-12667428D02*
X17704619Y-12686476D01*
X17704619Y-12686476D02*
X17695096Y-12696000D01*
X17695096Y-12696000D02*
X17676048Y-12705524D01*
X17676048Y-12705524D02*
X17647477Y-12705524D01*
X17828429Y-12705524D02*
X17809381Y-12696000D01*
X17809381Y-12696000D02*
X17799858Y-12676952D01*
X17799858Y-12676952D02*
X17799858Y-12505524D01*
X17980810Y-12696000D02*
X17961762Y-12705524D01*
X17961762Y-12705524D02*
X17923667Y-12705524D01*
X17923667Y-12705524D02*
X17904619Y-12696000D01*
X17904619Y-12696000D02*
X17895096Y-12676952D01*
X17895096Y-12676952D02*
X17895096Y-12600762D01*
X17895096Y-12600762D02*
X17904619Y-12581714D01*
X17904619Y-12581714D02*
X17923667Y-12572190D01*
X17923667Y-12572190D02*
X17961762Y-12572190D01*
X17961762Y-12572190D02*
X17980810Y-12581714D01*
X17980810Y-12581714D02*
X17990334Y-12600762D01*
X17990334Y-12600762D02*
X17990334Y-12619809D01*
X17990334Y-12619809D02*
X17895096Y-12638857D01*
X18066524Y-12696000D02*
X18085572Y-12705524D01*
X18085572Y-12705524D02*
X18123667Y-12705524D01*
X18123667Y-12705524D02*
X18142715Y-12696000D01*
X18142715Y-12696000D02*
X18152239Y-12676952D01*
X18152239Y-12676952D02*
X18152239Y-12667428D01*
X18152239Y-12667428D02*
X18142715Y-12648381D01*
X18142715Y-12648381D02*
X18123667Y-12638857D01*
X18123667Y-12638857D02*
X18095096Y-12638857D01*
X18095096Y-12638857D02*
X18076048Y-12629333D01*
X18076048Y-12629333D02*
X18066524Y-12610286D01*
X18066524Y-12610286D02*
X18066524Y-12600762D01*
X18066524Y-12600762D02*
X18076048Y-12581714D01*
X18076048Y-12581714D02*
X18095096Y-12572190D01*
X18095096Y-12572190D02*
X18123667Y-12572190D01*
X18123667Y-12572190D02*
X18142715Y-12581714D01*
X18218905Y-12781714D02*
X18228429Y-12772190D01*
X18228429Y-12772190D02*
X18247477Y-12743619D01*
X18247477Y-12743619D02*
X18257000Y-12724571D01*
X18257000Y-12724571D02*
X18266524Y-12696000D01*
X18266524Y-12696000D02*
X18276048Y-12648381D01*
X18276048Y-12648381D02*
X18276048Y-12610286D01*
X18276048Y-12610286D02*
X18266524Y-12562667D01*
X18266524Y-12562667D02*
X18257000Y-12534095D01*
X18257000Y-12534095D02*
X18247477Y-12515048D01*
X18247477Y-12515048D02*
X18228429Y-12486476D01*
X18228429Y-12486476D02*
X18218905Y-12476952D01*
M02*
