%TF.GenerationSoftware,KiCad,Pcbnew,7.0.1*%
%TF.CreationDate,2023-04-23T22:32:51-07:00*%
%TF.ProjectId,TN9K_VGA,544e394b-5f56-4474-912e-6b696361645f,rev?*%
%TF.SameCoordinates,Original*%
%TF.FileFunction,Drillmap*%
%TF.FilePolarity,Positive*%
%FSLAX45Y45*%
G04 Gerber Fmt 4.5, Leading zero omitted, Abs format (unit mm)*
G04 Created by KiCad (PCBNEW 7.0.1) date 2023-04-23 22:32:51*
%MOMM*%
%LPD*%
G01*
G04 APERTURE LIST*
%ADD10C,0.100000*%
%ADD11C,0.200000*%
G04 APERTURE END LIST*
D10*
X15240000Y-8890000D02*
X15240000Y-4445000D01*
X15240000Y-4445000D02*
X18542000Y-4445000D01*
X18542000Y-8890000D02*
X15240000Y-8890000D01*
X18542000Y-4445000D02*
X18542000Y-8890000D01*
D11*
X15482619Y-9207524D02*
X15482619Y-9007524D01*
X15482619Y-9007524D02*
X15530238Y-9007524D01*
X15530238Y-9007524D02*
X15558809Y-9017048D01*
X15558809Y-9017048D02*
X15577857Y-9036095D01*
X15577857Y-9036095D02*
X15587381Y-9055143D01*
X15587381Y-9055143D02*
X15596905Y-9093238D01*
X15596905Y-9093238D02*
X15596905Y-9121810D01*
X15596905Y-9121810D02*
X15587381Y-9159905D01*
X15587381Y-9159905D02*
X15577857Y-9178952D01*
X15577857Y-9178952D02*
X15558809Y-9198000D01*
X15558809Y-9198000D02*
X15530238Y-9207524D01*
X15530238Y-9207524D02*
X15482619Y-9207524D01*
X15682619Y-9207524D02*
X15682619Y-9074190D01*
X15682619Y-9112286D02*
X15692143Y-9093238D01*
X15692143Y-9093238D02*
X15701667Y-9083714D01*
X15701667Y-9083714D02*
X15720714Y-9074190D01*
X15720714Y-9074190D02*
X15739762Y-9074190D01*
X15806428Y-9207524D02*
X15806428Y-9074190D01*
X15806428Y-9007524D02*
X15796905Y-9017048D01*
X15796905Y-9017048D02*
X15806428Y-9026571D01*
X15806428Y-9026571D02*
X15815952Y-9017048D01*
X15815952Y-9017048D02*
X15806428Y-9007524D01*
X15806428Y-9007524D02*
X15806428Y-9026571D01*
X15930238Y-9207524D02*
X15911190Y-9198000D01*
X15911190Y-9198000D02*
X15901667Y-9178952D01*
X15901667Y-9178952D02*
X15901667Y-9007524D01*
X16035000Y-9207524D02*
X16015952Y-9198000D01*
X16015952Y-9198000D02*
X16006428Y-9178952D01*
X16006428Y-9178952D02*
X16006428Y-9007524D01*
X16263571Y-9207524D02*
X16263571Y-9007524D01*
X16263571Y-9007524D02*
X16330238Y-9150381D01*
X16330238Y-9150381D02*
X16396905Y-9007524D01*
X16396905Y-9007524D02*
X16396905Y-9207524D01*
X16577857Y-9207524D02*
X16577857Y-9102762D01*
X16577857Y-9102762D02*
X16568333Y-9083714D01*
X16568333Y-9083714D02*
X16549286Y-9074190D01*
X16549286Y-9074190D02*
X16511190Y-9074190D01*
X16511190Y-9074190D02*
X16492143Y-9083714D01*
X16577857Y-9198000D02*
X16558809Y-9207524D01*
X16558809Y-9207524D02*
X16511190Y-9207524D01*
X16511190Y-9207524D02*
X16492143Y-9198000D01*
X16492143Y-9198000D02*
X16482619Y-9178952D01*
X16482619Y-9178952D02*
X16482619Y-9159905D01*
X16482619Y-9159905D02*
X16492143Y-9140857D01*
X16492143Y-9140857D02*
X16511190Y-9131333D01*
X16511190Y-9131333D02*
X16558809Y-9131333D01*
X16558809Y-9131333D02*
X16577857Y-9121810D01*
X16673095Y-9074190D02*
X16673095Y-9274190D01*
X16673095Y-9083714D02*
X16692143Y-9074190D01*
X16692143Y-9074190D02*
X16730238Y-9074190D01*
X16730238Y-9074190D02*
X16749286Y-9083714D01*
X16749286Y-9083714D02*
X16758809Y-9093238D01*
X16758809Y-9093238D02*
X16768333Y-9112286D01*
X16768333Y-9112286D02*
X16768333Y-9169429D01*
X16768333Y-9169429D02*
X16758809Y-9188476D01*
X16758809Y-9188476D02*
X16749286Y-9198000D01*
X16749286Y-9198000D02*
X16730238Y-9207524D01*
X16730238Y-9207524D02*
X16692143Y-9207524D01*
X16692143Y-9207524D02*
X16673095Y-9198000D01*
X16854048Y-9188476D02*
X16863571Y-9198000D01*
X16863571Y-9198000D02*
X16854048Y-9207524D01*
X16854048Y-9207524D02*
X16844524Y-9198000D01*
X16844524Y-9198000D02*
X16854048Y-9188476D01*
X16854048Y-9188476D02*
X16854048Y-9207524D01*
X16854048Y-9083714D02*
X16863571Y-9093238D01*
X16863571Y-9093238D02*
X16854048Y-9102762D01*
X16854048Y-9102762D02*
X16844524Y-9093238D01*
X16844524Y-9093238D02*
X16854048Y-9083714D01*
X16854048Y-9083714D02*
X16854048Y-9102762D01*
M02*
