M48
; DRILL file {KiCad 7.0.1} date Mon Apr 24 00:51:28 2023
; FORMAT={-:-/ absolute / inch / decimal}
; #@! TF.CreationDate,2023-04-24T00:51:28-07:00
; #@! TF.GenerationSoftware,Kicad,Pcbnew,7.0.1
; #@! TF.FileFunction,Plated,1,2,PTH
FMAT,2
INCH
; #@! TA.AperFunction,Plated,PTH,ViaDrill
T1C0.0157
; #@! TA.AperFunction,Plated,PTH,ComponentDrill
T2C0.0315
; #@! TA.AperFunction,Plated,PTH,ComponentDrill
T3C0.0394
; #@! TA.AperFunction,Plated,PTH,ComponentDrill
T4C0.1260
%
G90
G05
T1
X7.0885Y-2.5133
T2
X6.1683Y-2.225
X6.1683Y-2.625
X6.1683Y-2.725
X6.1683Y-3.125
X6.3278Y-2.225
X6.3278Y-2.625
X6.3278Y-2.725
X6.3278Y-3.125
X6.4872Y-2.225
X6.4872Y-2.625
X6.4872Y-2.725
X6.4872Y-3.125
X6.6467Y-2.225
X6.6467Y-2.625
X6.6467Y-2.725
X6.6467Y-3.125
X6.8061Y-2.225
X6.8061Y-2.625
X6.8061Y-2.725
X6.8061Y-3.125
X6.9656Y-2.225
X6.9656Y-2.625
X6.9656Y-2.725
X6.9656Y-3.125
X7.125Y-2.225
X7.125Y-2.625
X7.125Y-2.725
X7.125Y-3.125
T3
X6.285Y-3.3
X6.285Y-3.4
X6.385Y-3.3
X6.385Y-3.4
X6.4296Y-1.967
X6.4747Y-1.8891
X6.4747Y-2.045
X6.485Y-3.3
X6.485Y-3.4
X6.5198Y-1.967
X6.5648Y-1.8891
X6.5648Y-2.045
X6.585Y-3.3
X6.585Y-3.4
X6.6099Y-1.967
X6.655Y-1.8891
X6.655Y-2.045
X6.685Y-3.3
X6.685Y-3.4
X6.7001Y-1.967
X6.7452Y-1.8891
X6.7452Y-2.045
X6.785Y-3.3
X6.785Y-3.4
X6.7902Y-1.967
X6.8353Y-1.8891
X6.8353Y-2.045
X6.885Y-3.3
X6.885Y-3.4
X6.985Y-3.3
X6.985Y-3.4
T4
X6.1524Y-1.9643
X7.1367Y-1.9643
T0
M30
