%TF.GenerationSoftware,KiCad,Pcbnew,7.0.1*%
%TF.CreationDate,2023-05-30T14:25:25-07:00*%
%TF.ProjectId,tn_vdp_v1_slim,746e5f76-6470-45f7-9631-5f736c696d2e,rev?*%
%TF.SameCoordinates,Original*%
%TF.FileFunction,Drillmap*%
%TF.FilePolarity,Positive*%
%FSLAX45Y45*%
G04 Gerber Fmt 4.5, Leading zero omitted, Abs format (unit mm)*
G04 Created by KiCad (PCBNEW 7.0.1) date 2023-05-30 14:25:25*
%MOMM*%
%LPD*%
G01*
G04 APERTURE LIST*
%ADD10C,0.100000*%
%ADD11C,0.200000*%
G04 APERTURE END LIST*
D10*
X14721840Y-4093210D02*
X14721840Y-12919710D01*
X17515840Y-12919710D02*
X17515840Y-4093210D01*
X17515840Y-4093210D02*
X14721840Y-4093210D01*
X14721840Y-12919710D02*
X17515840Y-12919710D01*
D11*
X14964459Y-13237234D02*
X14964459Y-13037234D01*
X14964459Y-13037234D02*
X15012078Y-13037234D01*
X15012078Y-13037234D02*
X15040649Y-13046758D01*
X15040649Y-13046758D02*
X15059697Y-13065805D01*
X15059697Y-13065805D02*
X15069221Y-13084853D01*
X15069221Y-13084853D02*
X15078745Y-13122948D01*
X15078745Y-13122948D02*
X15078745Y-13151519D01*
X15078745Y-13151519D02*
X15069221Y-13189615D01*
X15069221Y-13189615D02*
X15059697Y-13208662D01*
X15059697Y-13208662D02*
X15040649Y-13227710D01*
X15040649Y-13227710D02*
X15012078Y-13237234D01*
X15012078Y-13237234D02*
X14964459Y-13237234D01*
X15164459Y-13237234D02*
X15164459Y-13103900D01*
X15164459Y-13141996D02*
X15173983Y-13122948D01*
X15173983Y-13122948D02*
X15183507Y-13113424D01*
X15183507Y-13113424D02*
X15202554Y-13103900D01*
X15202554Y-13103900D02*
X15221602Y-13103900D01*
X15288268Y-13237234D02*
X15288268Y-13103900D01*
X15288268Y-13037234D02*
X15278745Y-13046758D01*
X15278745Y-13046758D02*
X15288268Y-13056281D01*
X15288268Y-13056281D02*
X15297792Y-13046758D01*
X15297792Y-13046758D02*
X15288268Y-13037234D01*
X15288268Y-13037234D02*
X15288268Y-13056281D01*
X15412078Y-13237234D02*
X15393030Y-13227710D01*
X15393030Y-13227710D02*
X15383507Y-13208662D01*
X15383507Y-13208662D02*
X15383507Y-13037234D01*
X15516840Y-13237234D02*
X15497792Y-13227710D01*
X15497792Y-13227710D02*
X15488268Y-13208662D01*
X15488268Y-13208662D02*
X15488268Y-13037234D01*
X15745411Y-13237234D02*
X15745411Y-13037234D01*
X15745411Y-13037234D02*
X15812078Y-13180091D01*
X15812078Y-13180091D02*
X15878745Y-13037234D01*
X15878745Y-13037234D02*
X15878745Y-13237234D01*
X16059697Y-13237234D02*
X16059697Y-13132472D01*
X16059697Y-13132472D02*
X16050173Y-13113424D01*
X16050173Y-13113424D02*
X16031126Y-13103900D01*
X16031126Y-13103900D02*
X15993030Y-13103900D01*
X15993030Y-13103900D02*
X15973983Y-13113424D01*
X16059697Y-13227710D02*
X16040649Y-13237234D01*
X16040649Y-13237234D02*
X15993030Y-13237234D01*
X15993030Y-13237234D02*
X15973983Y-13227710D01*
X15973983Y-13227710D02*
X15964459Y-13208662D01*
X15964459Y-13208662D02*
X15964459Y-13189615D01*
X15964459Y-13189615D02*
X15973983Y-13170567D01*
X15973983Y-13170567D02*
X15993030Y-13161043D01*
X15993030Y-13161043D02*
X16040649Y-13161043D01*
X16040649Y-13161043D02*
X16059697Y-13151519D01*
X16154935Y-13103900D02*
X16154935Y-13303900D01*
X16154935Y-13113424D02*
X16173983Y-13103900D01*
X16173983Y-13103900D02*
X16212078Y-13103900D01*
X16212078Y-13103900D02*
X16231126Y-13113424D01*
X16231126Y-13113424D02*
X16240649Y-13122948D01*
X16240649Y-13122948D02*
X16250173Y-13141996D01*
X16250173Y-13141996D02*
X16250173Y-13199138D01*
X16250173Y-13199138D02*
X16240649Y-13218186D01*
X16240649Y-13218186D02*
X16231126Y-13227710D01*
X16231126Y-13227710D02*
X16212078Y-13237234D01*
X16212078Y-13237234D02*
X16173983Y-13237234D01*
X16173983Y-13237234D02*
X16154935Y-13227710D01*
X16335888Y-13218186D02*
X16345411Y-13227710D01*
X16345411Y-13227710D02*
X16335888Y-13237234D01*
X16335888Y-13237234D02*
X16326364Y-13227710D01*
X16326364Y-13227710D02*
X16335888Y-13218186D01*
X16335888Y-13218186D02*
X16335888Y-13237234D01*
X16335888Y-13113424D02*
X16345411Y-13122948D01*
X16345411Y-13122948D02*
X16335888Y-13132472D01*
X16335888Y-13132472D02*
X16326364Y-13122948D01*
X16326364Y-13122948D02*
X16335888Y-13113424D01*
X16335888Y-13113424D02*
X16335888Y-13132472D01*
M02*
