%TF.GenerationSoftware,KiCad,Pcbnew,7.0.1*%
%TF.CreationDate,2023-05-30T14:25:23-07:00*%
%TF.ProjectId,tn_vdp_v1_slim,746e5f76-6470-45f7-9631-5f736c696d2e,rev?*%
%TF.SameCoordinates,Original*%
%TF.FileFunction,Legend,Bot*%
%TF.FilePolarity,Positive*%
%FSLAX46Y46*%
G04 Gerber Fmt 4.6, Leading zero omitted, Abs format (unit mm)*
G04 Created by KiCad (PCBNEW 7.0.1) date 2023-05-30 14:25:23*
%MOMM*%
%LPD*%
G01*
G04 APERTURE LIST*
%ADD10C,0.250000*%
%ADD11C,0.120000*%
G04 APERTURE END LIST*
D10*
X169259333Y-53363752D02*
X169259333Y-54030419D01*
X169497428Y-52982800D02*
X169735523Y-53697085D01*
X169735523Y-53697085D02*
X169116476Y-53697085D01*
X168545047Y-53030419D02*
X168449809Y-53030419D01*
X168449809Y-53030419D02*
X168354571Y-53078038D01*
X168354571Y-53078038D02*
X168306952Y-53125657D01*
X168306952Y-53125657D02*
X168259333Y-53220895D01*
X168259333Y-53220895D02*
X168211714Y-53411371D01*
X168211714Y-53411371D02*
X168211714Y-53649466D01*
X168211714Y-53649466D02*
X168259333Y-53839942D01*
X168259333Y-53839942D02*
X168306952Y-53935180D01*
X168306952Y-53935180D02*
X168354571Y-53982800D01*
X168354571Y-53982800D02*
X168449809Y-54030419D01*
X168449809Y-54030419D02*
X168545047Y-54030419D01*
X168545047Y-54030419D02*
X168640285Y-53982800D01*
X168640285Y-53982800D02*
X168687904Y-53935180D01*
X168687904Y-53935180D02*
X168735523Y-53839942D01*
X168735523Y-53839942D02*
X168783142Y-53649466D01*
X168783142Y-53649466D02*
X168783142Y-53411371D01*
X168783142Y-53411371D02*
X168735523Y-53220895D01*
X168735523Y-53220895D02*
X168687904Y-53125657D01*
X168687904Y-53125657D02*
X168640285Y-53078038D01*
X168640285Y-53078038D02*
X168545047Y-53030419D01*
X153619295Y-54030419D02*
X154190723Y-54030419D01*
X153905009Y-54030419D02*
X153905009Y-53030419D01*
X153905009Y-53030419D02*
X154000247Y-53173276D01*
X154000247Y-53173276D02*
X154095485Y-53268514D01*
X154095485Y-53268514D02*
X154190723Y-53316133D01*
X160802619Y-77565238D02*
X160802619Y-78136666D01*
X161802619Y-77850952D02*
X160802619Y-77850952D01*
X161802619Y-78470000D02*
X160802619Y-78470000D01*
X160802619Y-78470000D02*
X161516904Y-78803333D01*
X161516904Y-78803333D02*
X160802619Y-79136666D01*
X160802619Y-79136666D02*
X161802619Y-79136666D01*
X161755000Y-79565238D02*
X161802619Y-79708095D01*
X161802619Y-79708095D02*
X161802619Y-79946190D01*
X161802619Y-79946190D02*
X161755000Y-80041428D01*
X161755000Y-80041428D02*
X161707380Y-80089047D01*
X161707380Y-80089047D02*
X161612142Y-80136666D01*
X161612142Y-80136666D02*
X161516904Y-80136666D01*
X161516904Y-80136666D02*
X161421666Y-80089047D01*
X161421666Y-80089047D02*
X161374047Y-80041428D01*
X161374047Y-80041428D02*
X161326428Y-79946190D01*
X161326428Y-79946190D02*
X161278809Y-79755714D01*
X161278809Y-79755714D02*
X161231190Y-79660476D01*
X161231190Y-79660476D02*
X161183571Y-79612857D01*
X161183571Y-79612857D02*
X161088333Y-79565238D01*
X161088333Y-79565238D02*
X160993095Y-79565238D01*
X160993095Y-79565238D02*
X160897857Y-79612857D01*
X160897857Y-79612857D02*
X160850238Y-79660476D01*
X160850238Y-79660476D02*
X160802619Y-79755714D01*
X160802619Y-79755714D02*
X160802619Y-79993809D01*
X160802619Y-79993809D02*
X160850238Y-80136666D01*
X161802619Y-80612857D02*
X161802619Y-80803333D01*
X161802619Y-80803333D02*
X161755000Y-80898571D01*
X161755000Y-80898571D02*
X161707380Y-80946190D01*
X161707380Y-80946190D02*
X161564523Y-81041428D01*
X161564523Y-81041428D02*
X161374047Y-81089047D01*
X161374047Y-81089047D02*
X160993095Y-81089047D01*
X160993095Y-81089047D02*
X160897857Y-81041428D01*
X160897857Y-81041428D02*
X160850238Y-80993809D01*
X160850238Y-80993809D02*
X160802619Y-80898571D01*
X160802619Y-80898571D02*
X160802619Y-80708095D01*
X160802619Y-80708095D02*
X160850238Y-80612857D01*
X160850238Y-80612857D02*
X160897857Y-80565238D01*
X160897857Y-80565238D02*
X160993095Y-80517619D01*
X160993095Y-80517619D02*
X161231190Y-80517619D01*
X161231190Y-80517619D02*
X161326428Y-80565238D01*
X161326428Y-80565238D02*
X161374047Y-80612857D01*
X161374047Y-80612857D02*
X161421666Y-80708095D01*
X161421666Y-80708095D02*
X161421666Y-80898571D01*
X161421666Y-80898571D02*
X161374047Y-80993809D01*
X161374047Y-80993809D02*
X161326428Y-81041428D01*
X161326428Y-81041428D02*
X161231190Y-81089047D01*
X161802619Y-82041428D02*
X161802619Y-81470000D01*
X161802619Y-81755714D02*
X160802619Y-81755714D01*
X160802619Y-81755714D02*
X160945476Y-81660476D01*
X160945476Y-81660476D02*
X161040714Y-81565238D01*
X161040714Y-81565238D02*
X161088333Y-81470000D01*
X160802619Y-82374762D02*
X161802619Y-83041428D01*
X160802619Y-83041428D02*
X161802619Y-82374762D01*
X161231190Y-83565238D02*
X161183571Y-83470000D01*
X161183571Y-83470000D02*
X161135952Y-83422381D01*
X161135952Y-83422381D02*
X161040714Y-83374762D01*
X161040714Y-83374762D02*
X160993095Y-83374762D01*
X160993095Y-83374762D02*
X160897857Y-83422381D01*
X160897857Y-83422381D02*
X160850238Y-83470000D01*
X160850238Y-83470000D02*
X160802619Y-83565238D01*
X160802619Y-83565238D02*
X160802619Y-83755714D01*
X160802619Y-83755714D02*
X160850238Y-83850952D01*
X160850238Y-83850952D02*
X160897857Y-83898571D01*
X160897857Y-83898571D02*
X160993095Y-83946190D01*
X160993095Y-83946190D02*
X161040714Y-83946190D01*
X161040714Y-83946190D02*
X161135952Y-83898571D01*
X161135952Y-83898571D02*
X161183571Y-83850952D01*
X161183571Y-83850952D02*
X161231190Y-83755714D01*
X161231190Y-83755714D02*
X161231190Y-83565238D01*
X161231190Y-83565238D02*
X161278809Y-83470000D01*
X161278809Y-83470000D02*
X161326428Y-83422381D01*
X161326428Y-83422381D02*
X161421666Y-83374762D01*
X161421666Y-83374762D02*
X161612142Y-83374762D01*
X161612142Y-83374762D02*
X161707380Y-83422381D01*
X161707380Y-83422381D02*
X161755000Y-83470000D01*
X161755000Y-83470000D02*
X161802619Y-83565238D01*
X161802619Y-83565238D02*
X161802619Y-83755714D01*
X161802619Y-83755714D02*
X161755000Y-83850952D01*
X161755000Y-83850952D02*
X161707380Y-83898571D01*
X161707380Y-83898571D02*
X161612142Y-83946190D01*
X161612142Y-83946190D02*
X161421666Y-83946190D01*
X161421666Y-83946190D02*
X161326428Y-83898571D01*
X161326428Y-83898571D02*
X161278809Y-83850952D01*
X161278809Y-83850952D02*
X161231190Y-83755714D01*
X161516904Y-84327143D02*
X161516904Y-84803333D01*
X161802619Y-84231905D02*
X160802619Y-84565238D01*
X160802619Y-84565238D02*
X161802619Y-84898571D01*
X169678361Y-44806419D02*
X169106933Y-44806419D01*
X169392647Y-45806419D02*
X169392647Y-44806419D01*
X168821218Y-45520704D02*
X168345028Y-45520704D01*
X168916456Y-45806419D02*
X168583123Y-44806419D01*
X168583123Y-44806419D02*
X168249790Y-45806419D01*
X167916456Y-45806419D02*
X167916456Y-44806419D01*
X167916456Y-44806419D02*
X167345028Y-45806419D01*
X167345028Y-45806419D02*
X167345028Y-44806419D01*
X166345028Y-44854038D02*
X166440266Y-44806419D01*
X166440266Y-44806419D02*
X166583123Y-44806419D01*
X166583123Y-44806419D02*
X166725980Y-44854038D01*
X166725980Y-44854038D02*
X166821218Y-44949276D01*
X166821218Y-44949276D02*
X166868837Y-45044514D01*
X166868837Y-45044514D02*
X166916456Y-45234990D01*
X166916456Y-45234990D02*
X166916456Y-45377847D01*
X166916456Y-45377847D02*
X166868837Y-45568323D01*
X166868837Y-45568323D02*
X166821218Y-45663561D01*
X166821218Y-45663561D02*
X166725980Y-45758800D01*
X166725980Y-45758800D02*
X166583123Y-45806419D01*
X166583123Y-45806419D02*
X166487885Y-45806419D01*
X166487885Y-45806419D02*
X166345028Y-45758800D01*
X166345028Y-45758800D02*
X166297409Y-45711180D01*
X166297409Y-45711180D02*
X166297409Y-45377847D01*
X166297409Y-45377847D02*
X166487885Y-45377847D01*
X165106932Y-45806419D02*
X165106932Y-44806419D01*
X165106932Y-44806419D02*
X164535504Y-45806419D01*
X164535504Y-45806419D02*
X164535504Y-44806419D01*
X164106932Y-45520704D02*
X163630742Y-45520704D01*
X164202170Y-45806419D02*
X163868837Y-44806419D01*
X163868837Y-44806419D02*
X163535504Y-45806419D01*
X163202170Y-45806419D02*
X163202170Y-44806419D01*
X163202170Y-44806419D02*
X162630742Y-45806419D01*
X162630742Y-45806419D02*
X162630742Y-44806419D01*
X161964075Y-44806419D02*
X161773599Y-44806419D01*
X161773599Y-44806419D02*
X161678361Y-44854038D01*
X161678361Y-44854038D02*
X161583123Y-44949276D01*
X161583123Y-44949276D02*
X161535504Y-45139752D01*
X161535504Y-45139752D02*
X161535504Y-45473085D01*
X161535504Y-45473085D02*
X161583123Y-45663561D01*
X161583123Y-45663561D02*
X161678361Y-45758800D01*
X161678361Y-45758800D02*
X161773599Y-45806419D01*
X161773599Y-45806419D02*
X161964075Y-45806419D01*
X161964075Y-45806419D02*
X162059313Y-45758800D01*
X162059313Y-45758800D02*
X162154551Y-45663561D01*
X162154551Y-45663561D02*
X162202170Y-45473085D01*
X162202170Y-45473085D02*
X162202170Y-45139752D01*
X162202170Y-45139752D02*
X162154551Y-44949276D01*
X162154551Y-44949276D02*
X162059313Y-44854038D01*
X162059313Y-44854038D02*
X161964075Y-44806419D01*
X160297408Y-45806419D02*
X160106932Y-45806419D01*
X160106932Y-45806419D02*
X160011694Y-45758800D01*
X160011694Y-45758800D02*
X159964075Y-45711180D01*
X159964075Y-45711180D02*
X159868837Y-45568323D01*
X159868837Y-45568323D02*
X159821218Y-45377847D01*
X159821218Y-45377847D02*
X159821218Y-44996895D01*
X159821218Y-44996895D02*
X159868837Y-44901657D01*
X159868837Y-44901657D02*
X159916456Y-44854038D01*
X159916456Y-44854038D02*
X160011694Y-44806419D01*
X160011694Y-44806419D02*
X160202170Y-44806419D01*
X160202170Y-44806419D02*
X160297408Y-44854038D01*
X160297408Y-44854038D02*
X160345027Y-44901657D01*
X160345027Y-44901657D02*
X160392646Y-44996895D01*
X160392646Y-44996895D02*
X160392646Y-45234990D01*
X160392646Y-45234990D02*
X160345027Y-45330228D01*
X160345027Y-45330228D02*
X160297408Y-45377847D01*
X160297408Y-45377847D02*
X160202170Y-45425466D01*
X160202170Y-45425466D02*
X160011694Y-45425466D01*
X160011694Y-45425466D02*
X159916456Y-45377847D01*
X159916456Y-45377847D02*
X159868837Y-45330228D01*
X159868837Y-45330228D02*
X159821218Y-45234990D01*
X159392646Y-45806419D02*
X159392646Y-44806419D01*
X158821218Y-45806419D02*
X159249789Y-45234990D01*
X158821218Y-44806419D02*
X159392646Y-45377847D01*
X157773598Y-44806419D02*
X157202170Y-44806419D01*
X157487884Y-45806419D02*
X157487884Y-44806419D01*
X156868836Y-45806419D02*
X156868836Y-44806419D01*
X156868836Y-44806419D02*
X156297408Y-45806419D01*
X156297408Y-45806419D02*
X156297408Y-44806419D01*
X155202169Y-44806419D02*
X154868836Y-45806419D01*
X154868836Y-45806419D02*
X154535503Y-44806419D01*
X154202169Y-45806419D02*
X154202169Y-44806419D01*
X154202169Y-44806419D02*
X153964074Y-44806419D01*
X153964074Y-44806419D02*
X153821217Y-44854038D01*
X153821217Y-44854038D02*
X153725979Y-44949276D01*
X153725979Y-44949276D02*
X153678360Y-45044514D01*
X153678360Y-45044514D02*
X153630741Y-45234990D01*
X153630741Y-45234990D02*
X153630741Y-45377847D01*
X153630741Y-45377847D02*
X153678360Y-45568323D01*
X153678360Y-45568323D02*
X153725979Y-45663561D01*
X153725979Y-45663561D02*
X153821217Y-45758800D01*
X153821217Y-45758800D02*
X153964074Y-45806419D01*
X153964074Y-45806419D02*
X154202169Y-45806419D01*
X153202169Y-45806419D02*
X153202169Y-44806419D01*
X153202169Y-44806419D02*
X152821217Y-44806419D01*
X152821217Y-44806419D02*
X152725979Y-44854038D01*
X152725979Y-44854038D02*
X152678360Y-44901657D01*
X152678360Y-44901657D02*
X152630741Y-44996895D01*
X152630741Y-44996895D02*
X152630741Y-45139752D01*
X152630741Y-45139752D02*
X152678360Y-45234990D01*
X152678360Y-45234990D02*
X152725979Y-45282609D01*
X152725979Y-45282609D02*
X152821217Y-45330228D01*
X152821217Y-45330228D02*
X153202169Y-45330228D01*
X169583123Y-46521657D02*
X169535504Y-46474038D01*
X169535504Y-46474038D02*
X169440266Y-46426419D01*
X169440266Y-46426419D02*
X169202171Y-46426419D01*
X169202171Y-46426419D02*
X169106933Y-46474038D01*
X169106933Y-46474038D02*
X169059314Y-46521657D01*
X169059314Y-46521657D02*
X169011695Y-46616895D01*
X169011695Y-46616895D02*
X169011695Y-46712133D01*
X169011695Y-46712133D02*
X169059314Y-46854990D01*
X169059314Y-46854990D02*
X169630742Y-47426419D01*
X169630742Y-47426419D02*
X169011695Y-47426419D01*
X168392647Y-46426419D02*
X168297409Y-46426419D01*
X168297409Y-46426419D02*
X168202171Y-46474038D01*
X168202171Y-46474038D02*
X168154552Y-46521657D01*
X168154552Y-46521657D02*
X168106933Y-46616895D01*
X168106933Y-46616895D02*
X168059314Y-46807371D01*
X168059314Y-46807371D02*
X168059314Y-47045466D01*
X168059314Y-47045466D02*
X168106933Y-47235942D01*
X168106933Y-47235942D02*
X168154552Y-47331180D01*
X168154552Y-47331180D02*
X168202171Y-47378800D01*
X168202171Y-47378800D02*
X168297409Y-47426419D01*
X168297409Y-47426419D02*
X168392647Y-47426419D01*
X168392647Y-47426419D02*
X168487885Y-47378800D01*
X168487885Y-47378800D02*
X168535504Y-47331180D01*
X168535504Y-47331180D02*
X168583123Y-47235942D01*
X168583123Y-47235942D02*
X168630742Y-47045466D01*
X168630742Y-47045466D02*
X168630742Y-46807371D01*
X168630742Y-46807371D02*
X168583123Y-46616895D01*
X168583123Y-46616895D02*
X168535504Y-46521657D01*
X168535504Y-46521657D02*
X168487885Y-46474038D01*
X168487885Y-46474038D02*
X168392647Y-46426419D01*
X167678361Y-46521657D02*
X167630742Y-46474038D01*
X167630742Y-46474038D02*
X167535504Y-46426419D01*
X167535504Y-46426419D02*
X167297409Y-46426419D01*
X167297409Y-46426419D02*
X167202171Y-46474038D01*
X167202171Y-46474038D02*
X167154552Y-46521657D01*
X167154552Y-46521657D02*
X167106933Y-46616895D01*
X167106933Y-46616895D02*
X167106933Y-46712133D01*
X167106933Y-46712133D02*
X167154552Y-46854990D01*
X167154552Y-46854990D02*
X167725980Y-47426419D01*
X167725980Y-47426419D02*
X167106933Y-47426419D01*
X166773599Y-46426419D02*
X166154552Y-46426419D01*
X166154552Y-46426419D02*
X166487885Y-46807371D01*
X166487885Y-46807371D02*
X166345028Y-46807371D01*
X166345028Y-46807371D02*
X166249790Y-46854990D01*
X166249790Y-46854990D02*
X166202171Y-46902609D01*
X166202171Y-46902609D02*
X166154552Y-46997847D01*
X166154552Y-46997847D02*
X166154552Y-47235942D01*
X166154552Y-47235942D02*
X166202171Y-47331180D01*
X166202171Y-47331180D02*
X166249790Y-47378800D01*
X166249790Y-47378800D02*
X166345028Y-47426419D01*
X166345028Y-47426419D02*
X166630742Y-47426419D01*
X166630742Y-47426419D02*
X166725980Y-47378800D01*
X166725980Y-47378800D02*
X166773599Y-47331180D01*
X164487885Y-47426419D02*
X164964075Y-47426419D01*
X164964075Y-47426419D02*
X164964075Y-46426419D01*
X164154551Y-46426419D02*
X164154551Y-47235942D01*
X164154551Y-47235942D02*
X164106932Y-47331180D01*
X164106932Y-47331180D02*
X164059313Y-47378800D01*
X164059313Y-47378800D02*
X163964075Y-47426419D01*
X163964075Y-47426419D02*
X163773599Y-47426419D01*
X163773599Y-47426419D02*
X163678361Y-47378800D01*
X163678361Y-47378800D02*
X163630742Y-47331180D01*
X163630742Y-47331180D02*
X163583123Y-47235942D01*
X163583123Y-47235942D02*
X163583123Y-46426419D01*
X163106932Y-47426419D02*
X163106932Y-46426419D01*
X162678361Y-47378800D02*
X162535504Y-47426419D01*
X162535504Y-47426419D02*
X162297409Y-47426419D01*
X162297409Y-47426419D02*
X162202171Y-47378800D01*
X162202171Y-47378800D02*
X162154552Y-47331180D01*
X162154552Y-47331180D02*
X162106933Y-47235942D01*
X162106933Y-47235942D02*
X162106933Y-47140704D01*
X162106933Y-47140704D02*
X162154552Y-47045466D01*
X162154552Y-47045466D02*
X162202171Y-46997847D01*
X162202171Y-46997847D02*
X162297409Y-46950228D01*
X162297409Y-46950228D02*
X162487885Y-46902609D01*
X162487885Y-46902609D02*
X162583123Y-46854990D01*
X162583123Y-46854990D02*
X162630742Y-46807371D01*
X162630742Y-46807371D02*
X162678361Y-46712133D01*
X162678361Y-46712133D02*
X162678361Y-46616895D01*
X162678361Y-46616895D02*
X162630742Y-46521657D01*
X162630742Y-46521657D02*
X162583123Y-46474038D01*
X162583123Y-46474038D02*
X162487885Y-46426419D01*
X162487885Y-46426419D02*
X162249790Y-46426419D01*
X162249790Y-46426419D02*
X162106933Y-46474038D01*
X160964075Y-47140704D02*
X160487885Y-47140704D01*
X161059313Y-47426419D02*
X160725980Y-46426419D01*
X160725980Y-46426419D02*
X160392647Y-47426419D01*
X160059313Y-47426419D02*
X160059313Y-46426419D01*
X160059313Y-46426419D02*
X159487885Y-47426419D01*
X159487885Y-47426419D02*
X159487885Y-46426419D01*
X159154551Y-46426419D02*
X158583123Y-46426419D01*
X158868837Y-47426419D02*
X158868837Y-46426419D01*
X158059313Y-46426419D02*
X157868837Y-46426419D01*
X157868837Y-46426419D02*
X157773599Y-46474038D01*
X157773599Y-46474038D02*
X157678361Y-46569276D01*
X157678361Y-46569276D02*
X157630742Y-46759752D01*
X157630742Y-46759752D02*
X157630742Y-47093085D01*
X157630742Y-47093085D02*
X157678361Y-47283561D01*
X157678361Y-47283561D02*
X157773599Y-47378800D01*
X157773599Y-47378800D02*
X157868837Y-47426419D01*
X157868837Y-47426419D02*
X158059313Y-47426419D01*
X158059313Y-47426419D02*
X158154551Y-47378800D01*
X158154551Y-47378800D02*
X158249789Y-47283561D01*
X158249789Y-47283561D02*
X158297408Y-47093085D01*
X158297408Y-47093085D02*
X158297408Y-46759752D01*
X158297408Y-46759752D02*
X158249789Y-46569276D01*
X158249789Y-46569276D02*
X158154551Y-46474038D01*
X158154551Y-46474038D02*
X158059313Y-46426419D01*
X157202170Y-47426419D02*
X157202170Y-46426419D01*
X157202170Y-46426419D02*
X156630742Y-47426419D01*
X156630742Y-47426419D02*
X156630742Y-46426419D01*
X156154551Y-47426419D02*
X156154551Y-46426419D01*
X155487885Y-46426419D02*
X155297409Y-46426419D01*
X155297409Y-46426419D02*
X155202171Y-46474038D01*
X155202171Y-46474038D02*
X155106933Y-46569276D01*
X155106933Y-46569276D02*
X155059314Y-46759752D01*
X155059314Y-46759752D02*
X155059314Y-47093085D01*
X155059314Y-47093085D02*
X155106933Y-47283561D01*
X155106933Y-47283561D02*
X155202171Y-47378800D01*
X155202171Y-47378800D02*
X155297409Y-47426419D01*
X155297409Y-47426419D02*
X155487885Y-47426419D01*
X155487885Y-47426419D02*
X155583123Y-47378800D01*
X155583123Y-47378800D02*
X155678361Y-47283561D01*
X155678361Y-47283561D02*
X155725980Y-47093085D01*
X155725980Y-47093085D02*
X155725980Y-46759752D01*
X155725980Y-46759752D02*
X155678361Y-46569276D01*
X155678361Y-46569276D02*
X155583123Y-46474038D01*
X155583123Y-46474038D02*
X155487885Y-46426419D01*
X154678361Y-47378800D02*
X154535504Y-47426419D01*
X154535504Y-47426419D02*
X154297409Y-47426419D01*
X154297409Y-47426419D02*
X154202171Y-47378800D01*
X154202171Y-47378800D02*
X154154552Y-47331180D01*
X154154552Y-47331180D02*
X154106933Y-47235942D01*
X154106933Y-47235942D02*
X154106933Y-47140704D01*
X154106933Y-47140704D02*
X154154552Y-47045466D01*
X154154552Y-47045466D02*
X154202171Y-46997847D01*
X154202171Y-46997847D02*
X154297409Y-46950228D01*
X154297409Y-46950228D02*
X154487885Y-46902609D01*
X154487885Y-46902609D02*
X154583123Y-46854990D01*
X154583123Y-46854990D02*
X154630742Y-46807371D01*
X154630742Y-46807371D02*
X154678361Y-46712133D01*
X154678361Y-46712133D02*
X154678361Y-46616895D01*
X154678361Y-46616895D02*
X154630742Y-46521657D01*
X154630742Y-46521657D02*
X154583123Y-46474038D01*
X154583123Y-46474038D02*
X154487885Y-46426419D01*
X154487885Y-46426419D02*
X154249790Y-46426419D01*
X154249790Y-46426419D02*
X154106933Y-46474038D01*
X153678361Y-47426419D02*
X153678361Y-46426419D01*
D11*
%TO.C,J2*%
X170240000Y-105266800D02*
X167580000Y-105266800D01*
X170240000Y-56946800D02*
X170240000Y-105266800D01*
X170240000Y-56946800D02*
X167580000Y-56946800D01*
X170240000Y-55676800D02*
X170240000Y-54346800D01*
X170240000Y-54346800D02*
X168910000Y-54346800D01*
X167580000Y-56946800D02*
X167580000Y-105266800D01*
%TO.C,J1*%
X155000000Y-105266800D02*
X152340000Y-105266800D01*
X155000000Y-56946800D02*
X155000000Y-105266800D01*
X155000000Y-56946800D02*
X152340000Y-56946800D01*
X155000000Y-55676800D02*
X155000000Y-54346800D01*
X155000000Y-54346800D02*
X153670000Y-54346800D01*
X152340000Y-56946800D02*
X152340000Y-105266800D01*
%TD*%
M02*
