%TF.GenerationSoftware,KiCad,Pcbnew,7.0.1*%
%TF.CreationDate,2023-06-01T10:46:18-07:00*%
%TF.ProjectId,tn_vdp_v2_socket,746e5f76-6470-45f7-9632-5f736f636b65,rev?*%
%TF.SameCoordinates,Original*%
%TF.FileFunction,Legend,Top*%
%TF.FilePolarity,Positive*%
%FSLAX46Y46*%
G04 Gerber Fmt 4.6, Leading zero omitted, Abs format (unit mm)*
G04 Created by KiCad (PCBNEW 7.0.1) date 2023-06-01 10:46:18*
%MOMM*%
%LPD*%
G01*
G04 APERTURE LIST*
%ADD10C,0.150000*%
%ADD11C,0.250000*%
%ADD12C,0.120000*%
G04 APERTURE END LIST*
D10*
X160444100Y-48260000D02*
X178859100Y-48260000D01*
X160444100Y-48260000D02*
X160444100Y-100330000D01*
X160444100Y-100330000D02*
X178859100Y-100330000D01*
X170796362Y-100330000D02*
G75*
G03*
X168506838Y-100330000I-1144762J0D01*
G01*
X178859100Y-48260000D02*
X178859100Y-100330000D01*
D11*
X165757619Y-69559523D02*
X165757619Y-68988095D01*
X166757619Y-69273809D02*
X165757619Y-69273809D01*
X166757619Y-68654761D02*
X165757619Y-68654761D01*
X165757619Y-68654761D02*
X166757619Y-68083333D01*
X166757619Y-68083333D02*
X165757619Y-68083333D01*
X166376666Y-67607142D02*
X166376666Y-66845238D01*
X165757619Y-66511904D02*
X166757619Y-66178571D01*
X166757619Y-66178571D02*
X165757619Y-65845238D01*
X166757619Y-65511904D02*
X165757619Y-65511904D01*
X165757619Y-65511904D02*
X165757619Y-65273809D01*
X165757619Y-65273809D02*
X165805238Y-65130952D01*
X165805238Y-65130952D02*
X165900476Y-65035714D01*
X165900476Y-65035714D02*
X165995714Y-64988095D01*
X165995714Y-64988095D02*
X166186190Y-64940476D01*
X166186190Y-64940476D02*
X166329047Y-64940476D01*
X166329047Y-64940476D02*
X166519523Y-64988095D01*
X166519523Y-64988095D02*
X166614761Y-65035714D01*
X166614761Y-65035714D02*
X166710000Y-65130952D01*
X166710000Y-65130952D02*
X166757619Y-65273809D01*
X166757619Y-65273809D02*
X166757619Y-65511904D01*
X166757619Y-64511904D02*
X165757619Y-64511904D01*
X165757619Y-64511904D02*
X165757619Y-64130952D01*
X165757619Y-64130952D02*
X165805238Y-64035714D01*
X165805238Y-64035714D02*
X165852857Y-63988095D01*
X165852857Y-63988095D02*
X165948095Y-63940476D01*
X165948095Y-63940476D02*
X166090952Y-63940476D01*
X166090952Y-63940476D02*
X166186190Y-63988095D01*
X166186190Y-63988095D02*
X166233809Y-64035714D01*
X166233809Y-64035714D02*
X166281428Y-64130952D01*
X166281428Y-64130952D02*
X166281428Y-64511904D01*
X165757619Y-62892856D02*
X165757619Y-62321428D01*
X166757619Y-62607142D02*
X165757619Y-62607142D01*
X166471904Y-62035713D02*
X166471904Y-61559523D01*
X166757619Y-62130951D02*
X165757619Y-61797618D01*
X165757619Y-61797618D02*
X166757619Y-61464285D01*
X166757619Y-61130951D02*
X165757619Y-61130951D01*
X165757619Y-61130951D02*
X166757619Y-60559523D01*
X166757619Y-60559523D02*
X165757619Y-60559523D01*
X165805238Y-59559523D02*
X165757619Y-59654761D01*
X165757619Y-59654761D02*
X165757619Y-59797618D01*
X165757619Y-59797618D02*
X165805238Y-59940475D01*
X165805238Y-59940475D02*
X165900476Y-60035713D01*
X165900476Y-60035713D02*
X165995714Y-60083332D01*
X165995714Y-60083332D02*
X166186190Y-60130951D01*
X166186190Y-60130951D02*
X166329047Y-60130951D01*
X166329047Y-60130951D02*
X166519523Y-60083332D01*
X166519523Y-60083332D02*
X166614761Y-60035713D01*
X166614761Y-60035713D02*
X166710000Y-59940475D01*
X166710000Y-59940475D02*
X166757619Y-59797618D01*
X166757619Y-59797618D02*
X166757619Y-59702380D01*
X166757619Y-59702380D02*
X166710000Y-59559523D01*
X166710000Y-59559523D02*
X166662380Y-59511904D01*
X166662380Y-59511904D02*
X166329047Y-59511904D01*
X166329047Y-59511904D02*
X166329047Y-59702380D01*
X166757619Y-58321427D02*
X165757619Y-58321427D01*
X165757619Y-58321427D02*
X166757619Y-57749999D01*
X166757619Y-57749999D02*
X165757619Y-57749999D01*
X166471904Y-57321427D02*
X166471904Y-56845237D01*
X166757619Y-57416665D02*
X165757619Y-57083332D01*
X165757619Y-57083332D02*
X166757619Y-56749999D01*
X166757619Y-56416665D02*
X165757619Y-56416665D01*
X165757619Y-56416665D02*
X166757619Y-55845237D01*
X166757619Y-55845237D02*
X165757619Y-55845237D01*
X165757619Y-55178570D02*
X165757619Y-54988094D01*
X165757619Y-54988094D02*
X165805238Y-54892856D01*
X165805238Y-54892856D02*
X165900476Y-54797618D01*
X165900476Y-54797618D02*
X166090952Y-54749999D01*
X166090952Y-54749999D02*
X166424285Y-54749999D01*
X166424285Y-54749999D02*
X166614761Y-54797618D01*
X166614761Y-54797618D02*
X166710000Y-54892856D01*
X166710000Y-54892856D02*
X166757619Y-54988094D01*
X166757619Y-54988094D02*
X166757619Y-55178570D01*
X166757619Y-55178570D02*
X166710000Y-55273808D01*
X166710000Y-55273808D02*
X166614761Y-55369046D01*
X166614761Y-55369046D02*
X166424285Y-55416665D01*
X166424285Y-55416665D02*
X166090952Y-55416665D01*
X166090952Y-55416665D02*
X165900476Y-55369046D01*
X165900476Y-55369046D02*
X165805238Y-55273808D01*
X165805238Y-55273808D02*
X165757619Y-55178570D01*
X166757619Y-53511903D02*
X166757619Y-53321427D01*
X166757619Y-53321427D02*
X166710000Y-53226189D01*
X166710000Y-53226189D02*
X166662380Y-53178570D01*
X166662380Y-53178570D02*
X166519523Y-53083332D01*
X166519523Y-53083332D02*
X166329047Y-53035713D01*
X166329047Y-53035713D02*
X165948095Y-53035713D01*
X165948095Y-53035713D02*
X165852857Y-53083332D01*
X165852857Y-53083332D02*
X165805238Y-53130951D01*
X165805238Y-53130951D02*
X165757619Y-53226189D01*
X165757619Y-53226189D02*
X165757619Y-53416665D01*
X165757619Y-53416665D02*
X165805238Y-53511903D01*
X165805238Y-53511903D02*
X165852857Y-53559522D01*
X165852857Y-53559522D02*
X165948095Y-53607141D01*
X165948095Y-53607141D02*
X166186190Y-53607141D01*
X166186190Y-53607141D02*
X166281428Y-53559522D01*
X166281428Y-53559522D02*
X166329047Y-53511903D01*
X166329047Y-53511903D02*
X166376666Y-53416665D01*
X166376666Y-53416665D02*
X166376666Y-53226189D01*
X166376666Y-53226189D02*
X166329047Y-53130951D01*
X166329047Y-53130951D02*
X166281428Y-53083332D01*
X166281428Y-53083332D02*
X166186190Y-53035713D01*
X166757619Y-52607141D02*
X165757619Y-52607141D01*
X166757619Y-52035713D02*
X166186190Y-52464284D01*
X165757619Y-52035713D02*
X166329047Y-52607141D01*
X167710952Y-71178570D02*
X168377619Y-70940475D01*
X168377619Y-70940475D02*
X167710952Y-70702380D01*
X167472857Y-70369046D02*
X167425238Y-70321427D01*
X167425238Y-70321427D02*
X167377619Y-70226189D01*
X167377619Y-70226189D02*
X167377619Y-69988094D01*
X167377619Y-69988094D02*
X167425238Y-69892856D01*
X167425238Y-69892856D02*
X167472857Y-69845237D01*
X167472857Y-69845237D02*
X167568095Y-69797618D01*
X167568095Y-69797618D02*
X167663333Y-69797618D01*
X167663333Y-69797618D02*
X167806190Y-69845237D01*
X167806190Y-69845237D02*
X168377619Y-70416665D01*
X168377619Y-70416665D02*
X168377619Y-69797618D01*
X168282380Y-69369046D02*
X168330000Y-69321427D01*
X168330000Y-69321427D02*
X168377619Y-69369046D01*
X168377619Y-69369046D02*
X168330000Y-69416665D01*
X168330000Y-69416665D02*
X168282380Y-69369046D01*
X168282380Y-69369046D02*
X168377619Y-69369046D01*
X167377619Y-68702380D02*
X167377619Y-68607142D01*
X167377619Y-68607142D02*
X167425238Y-68511904D01*
X167425238Y-68511904D02*
X167472857Y-68464285D01*
X167472857Y-68464285D02*
X167568095Y-68416666D01*
X167568095Y-68416666D02*
X167758571Y-68369047D01*
X167758571Y-68369047D02*
X167996666Y-68369047D01*
X167996666Y-68369047D02*
X168187142Y-68416666D01*
X168187142Y-68416666D02*
X168282380Y-68464285D01*
X168282380Y-68464285D02*
X168330000Y-68511904D01*
X168330000Y-68511904D02*
X168377619Y-68607142D01*
X168377619Y-68607142D02*
X168377619Y-68702380D01*
X168377619Y-68702380D02*
X168330000Y-68797618D01*
X168330000Y-68797618D02*
X168282380Y-68845237D01*
X168282380Y-68845237D02*
X168187142Y-68892856D01*
X168187142Y-68892856D02*
X167996666Y-68940475D01*
X167996666Y-68940475D02*
X167758571Y-68940475D01*
X167758571Y-68940475D02*
X167568095Y-68892856D01*
X167568095Y-68892856D02*
X167472857Y-68845237D01*
X167472857Y-68845237D02*
X167425238Y-68797618D01*
X167425238Y-68797618D02*
X167377619Y-68702380D01*
X167710952Y-67511904D02*
X168377619Y-67511904D01*
X167710952Y-67940475D02*
X168234761Y-67940475D01*
X168234761Y-67940475D02*
X168330000Y-67892856D01*
X168330000Y-67892856D02*
X168377619Y-67797618D01*
X168377619Y-67797618D02*
X168377619Y-67654761D01*
X168377619Y-67654761D02*
X168330000Y-67559523D01*
X168330000Y-67559523D02*
X168282380Y-67511904D01*
X167472857Y-66321427D02*
X167425238Y-66273808D01*
X167425238Y-66273808D02*
X167377619Y-66178570D01*
X167377619Y-66178570D02*
X167377619Y-65940475D01*
X167377619Y-65940475D02*
X167425238Y-65845237D01*
X167425238Y-65845237D02*
X167472857Y-65797618D01*
X167472857Y-65797618D02*
X167568095Y-65749999D01*
X167568095Y-65749999D02*
X167663333Y-65749999D01*
X167663333Y-65749999D02*
X167806190Y-65797618D01*
X167806190Y-65797618D02*
X168377619Y-66369046D01*
X168377619Y-66369046D02*
X168377619Y-65749999D01*
X167377619Y-65130951D02*
X167377619Y-65035713D01*
X167377619Y-65035713D02*
X167425238Y-64940475D01*
X167425238Y-64940475D02*
X167472857Y-64892856D01*
X167472857Y-64892856D02*
X167568095Y-64845237D01*
X167568095Y-64845237D02*
X167758571Y-64797618D01*
X167758571Y-64797618D02*
X167996666Y-64797618D01*
X167996666Y-64797618D02*
X168187142Y-64845237D01*
X168187142Y-64845237D02*
X168282380Y-64892856D01*
X168282380Y-64892856D02*
X168330000Y-64940475D01*
X168330000Y-64940475D02*
X168377619Y-65035713D01*
X168377619Y-65035713D02*
X168377619Y-65130951D01*
X168377619Y-65130951D02*
X168330000Y-65226189D01*
X168330000Y-65226189D02*
X168282380Y-65273808D01*
X168282380Y-65273808D02*
X168187142Y-65321427D01*
X168187142Y-65321427D02*
X167996666Y-65369046D01*
X167996666Y-65369046D02*
X167758571Y-65369046D01*
X167758571Y-65369046D02*
X167568095Y-65321427D01*
X167568095Y-65321427D02*
X167472857Y-65273808D01*
X167472857Y-65273808D02*
X167425238Y-65226189D01*
X167425238Y-65226189D02*
X167377619Y-65130951D01*
X167472857Y-64416665D02*
X167425238Y-64369046D01*
X167425238Y-64369046D02*
X167377619Y-64273808D01*
X167377619Y-64273808D02*
X167377619Y-64035713D01*
X167377619Y-64035713D02*
X167425238Y-63940475D01*
X167425238Y-63940475D02*
X167472857Y-63892856D01*
X167472857Y-63892856D02*
X167568095Y-63845237D01*
X167568095Y-63845237D02*
X167663333Y-63845237D01*
X167663333Y-63845237D02*
X167806190Y-63892856D01*
X167806190Y-63892856D02*
X168377619Y-64464284D01*
X168377619Y-64464284D02*
X168377619Y-63845237D01*
X167377619Y-63511903D02*
X167377619Y-62892856D01*
X167377619Y-62892856D02*
X167758571Y-63226189D01*
X167758571Y-63226189D02*
X167758571Y-63083332D01*
X167758571Y-63083332D02*
X167806190Y-62988094D01*
X167806190Y-62988094D02*
X167853809Y-62940475D01*
X167853809Y-62940475D02*
X167949047Y-62892856D01*
X167949047Y-62892856D02*
X168187142Y-62892856D01*
X168187142Y-62892856D02*
X168282380Y-62940475D01*
X168282380Y-62940475D02*
X168330000Y-62988094D01*
X168330000Y-62988094D02*
X168377619Y-63083332D01*
X168377619Y-63083332D02*
X168377619Y-63369046D01*
X168377619Y-63369046D02*
X168330000Y-63464284D01*
X168330000Y-63464284D02*
X168282380Y-63511903D01*
X168377619Y-61226189D02*
X168377619Y-61702379D01*
X168377619Y-61702379D02*
X167377619Y-61702379D01*
X167377619Y-60892855D02*
X168187142Y-60892855D01*
X168187142Y-60892855D02*
X168282380Y-60845236D01*
X168282380Y-60845236D02*
X168330000Y-60797617D01*
X168330000Y-60797617D02*
X168377619Y-60702379D01*
X168377619Y-60702379D02*
X168377619Y-60511903D01*
X168377619Y-60511903D02*
X168330000Y-60416665D01*
X168330000Y-60416665D02*
X168282380Y-60369046D01*
X168282380Y-60369046D02*
X168187142Y-60321427D01*
X168187142Y-60321427D02*
X167377619Y-60321427D01*
X168377619Y-59845236D02*
X167377619Y-59845236D01*
X168330000Y-59416665D02*
X168377619Y-59273808D01*
X168377619Y-59273808D02*
X168377619Y-59035713D01*
X168377619Y-59035713D02*
X168330000Y-58940475D01*
X168330000Y-58940475D02*
X168282380Y-58892856D01*
X168282380Y-58892856D02*
X168187142Y-58845237D01*
X168187142Y-58845237D02*
X168091904Y-58845237D01*
X168091904Y-58845237D02*
X167996666Y-58892856D01*
X167996666Y-58892856D02*
X167949047Y-58940475D01*
X167949047Y-58940475D02*
X167901428Y-59035713D01*
X167901428Y-59035713D02*
X167853809Y-59226189D01*
X167853809Y-59226189D02*
X167806190Y-59321427D01*
X167806190Y-59321427D02*
X167758571Y-59369046D01*
X167758571Y-59369046D02*
X167663333Y-59416665D01*
X167663333Y-59416665D02*
X167568095Y-59416665D01*
X167568095Y-59416665D02*
X167472857Y-59369046D01*
X167472857Y-59369046D02*
X167425238Y-59321427D01*
X167425238Y-59321427D02*
X167377619Y-59226189D01*
X167377619Y-59226189D02*
X167377619Y-58988094D01*
X167377619Y-58988094D02*
X167425238Y-58845237D01*
X168091904Y-57702379D02*
X168091904Y-57226189D01*
X168377619Y-57797617D02*
X167377619Y-57464284D01*
X167377619Y-57464284D02*
X168377619Y-57130951D01*
X168377619Y-56797617D02*
X167377619Y-56797617D01*
X167377619Y-56797617D02*
X168377619Y-56226189D01*
X168377619Y-56226189D02*
X167377619Y-56226189D01*
X167377619Y-55892855D02*
X167377619Y-55321427D01*
X168377619Y-55607141D02*
X167377619Y-55607141D01*
X167377619Y-54797617D02*
X167377619Y-54607141D01*
X167377619Y-54607141D02*
X167425238Y-54511903D01*
X167425238Y-54511903D02*
X167520476Y-54416665D01*
X167520476Y-54416665D02*
X167710952Y-54369046D01*
X167710952Y-54369046D02*
X168044285Y-54369046D01*
X168044285Y-54369046D02*
X168234761Y-54416665D01*
X168234761Y-54416665D02*
X168330000Y-54511903D01*
X168330000Y-54511903D02*
X168377619Y-54607141D01*
X168377619Y-54607141D02*
X168377619Y-54797617D01*
X168377619Y-54797617D02*
X168330000Y-54892855D01*
X168330000Y-54892855D02*
X168234761Y-54988093D01*
X168234761Y-54988093D02*
X168044285Y-55035712D01*
X168044285Y-55035712D02*
X167710952Y-55035712D01*
X167710952Y-55035712D02*
X167520476Y-54988093D01*
X167520476Y-54988093D02*
X167425238Y-54892855D01*
X167425238Y-54892855D02*
X167377619Y-54797617D01*
X168377619Y-53940474D02*
X167377619Y-53940474D01*
X167377619Y-53940474D02*
X168377619Y-53369046D01*
X168377619Y-53369046D02*
X167377619Y-53369046D01*
X168377619Y-52892855D02*
X167377619Y-52892855D01*
X167377619Y-52226189D02*
X167377619Y-52035713D01*
X167377619Y-52035713D02*
X167425238Y-51940475D01*
X167425238Y-51940475D02*
X167520476Y-51845237D01*
X167520476Y-51845237D02*
X167710952Y-51797618D01*
X167710952Y-51797618D02*
X168044285Y-51797618D01*
X168044285Y-51797618D02*
X168234761Y-51845237D01*
X168234761Y-51845237D02*
X168330000Y-51940475D01*
X168330000Y-51940475D02*
X168377619Y-52035713D01*
X168377619Y-52035713D02*
X168377619Y-52226189D01*
X168377619Y-52226189D02*
X168330000Y-52321427D01*
X168330000Y-52321427D02*
X168234761Y-52416665D01*
X168234761Y-52416665D02*
X168044285Y-52464284D01*
X168044285Y-52464284D02*
X167710952Y-52464284D01*
X167710952Y-52464284D02*
X167520476Y-52416665D01*
X167520476Y-52416665D02*
X167425238Y-52321427D01*
X167425238Y-52321427D02*
X167377619Y-52226189D01*
X168330000Y-51416665D02*
X168377619Y-51273808D01*
X168377619Y-51273808D02*
X168377619Y-51035713D01*
X168377619Y-51035713D02*
X168330000Y-50940475D01*
X168330000Y-50940475D02*
X168282380Y-50892856D01*
X168282380Y-50892856D02*
X168187142Y-50845237D01*
X168187142Y-50845237D02*
X168091904Y-50845237D01*
X168091904Y-50845237D02*
X167996666Y-50892856D01*
X167996666Y-50892856D02*
X167949047Y-50940475D01*
X167949047Y-50940475D02*
X167901428Y-51035713D01*
X167901428Y-51035713D02*
X167853809Y-51226189D01*
X167853809Y-51226189D02*
X167806190Y-51321427D01*
X167806190Y-51321427D02*
X167758571Y-51369046D01*
X167758571Y-51369046D02*
X167663333Y-51416665D01*
X167663333Y-51416665D02*
X167568095Y-51416665D01*
X167568095Y-51416665D02*
X167472857Y-51369046D01*
X167472857Y-51369046D02*
X167425238Y-51321427D01*
X167425238Y-51321427D02*
X167377619Y-51226189D01*
X167377619Y-51226189D02*
X167377619Y-50988094D01*
X167377619Y-50988094D02*
X167425238Y-50845237D01*
X168377619Y-50416665D02*
X167377619Y-50416665D01*
D10*
%TO.C,D1*%
X174812619Y-77761904D02*
X173812619Y-77761904D01*
X174812619Y-77190476D02*
X174241190Y-77619047D01*
X173812619Y-77190476D02*
X174384047Y-77761904D01*
X172620095Y-84214286D02*
X172620095Y-84671429D01*
X172620095Y-84442857D02*
X171820095Y-84442857D01*
X171820095Y-84442857D02*
X171934380Y-84519048D01*
X171934380Y-84519048D02*
X172010571Y-84595238D01*
X172010571Y-84595238D02*
X172048666Y-84671429D01*
X172620095Y-83871428D02*
X171820095Y-83871428D01*
X171820095Y-83871428D02*
X172620095Y-83414285D01*
X172620095Y-83414285D02*
X171820095Y-83414285D01*
X171820095Y-82652381D02*
X171820095Y-83033333D01*
X171820095Y-83033333D02*
X172201047Y-83071429D01*
X172201047Y-83071429D02*
X172162952Y-83033333D01*
X172162952Y-83033333D02*
X172124857Y-82957143D01*
X172124857Y-82957143D02*
X172124857Y-82766667D01*
X172124857Y-82766667D02*
X172162952Y-82690476D01*
X172162952Y-82690476D02*
X172201047Y-82652381D01*
X172201047Y-82652381D02*
X172277238Y-82614286D01*
X172277238Y-82614286D02*
X172467714Y-82614286D01*
X172467714Y-82614286D02*
X172543904Y-82652381D01*
X172543904Y-82652381D02*
X172582000Y-82690476D01*
X172582000Y-82690476D02*
X172620095Y-82766667D01*
X172620095Y-82766667D02*
X172620095Y-82957143D01*
X172620095Y-82957143D02*
X172582000Y-83033333D01*
X172582000Y-83033333D02*
X172543904Y-83071429D01*
X172162952Y-82157143D02*
X172124857Y-82233333D01*
X172124857Y-82233333D02*
X172086761Y-82271428D01*
X172086761Y-82271428D02*
X172010571Y-82309524D01*
X172010571Y-82309524D02*
X171972476Y-82309524D01*
X171972476Y-82309524D02*
X171896285Y-82271428D01*
X171896285Y-82271428D02*
X171858190Y-82233333D01*
X171858190Y-82233333D02*
X171820095Y-82157143D01*
X171820095Y-82157143D02*
X171820095Y-82004762D01*
X171820095Y-82004762D02*
X171858190Y-81928571D01*
X171858190Y-81928571D02*
X171896285Y-81890476D01*
X171896285Y-81890476D02*
X171972476Y-81852381D01*
X171972476Y-81852381D02*
X172010571Y-81852381D01*
X172010571Y-81852381D02*
X172086761Y-81890476D01*
X172086761Y-81890476D02*
X172124857Y-81928571D01*
X172124857Y-81928571D02*
X172162952Y-82004762D01*
X172162952Y-82004762D02*
X172162952Y-82157143D01*
X172162952Y-82157143D02*
X172201047Y-82233333D01*
X172201047Y-82233333D02*
X172239142Y-82271428D01*
X172239142Y-82271428D02*
X172315333Y-82309524D01*
X172315333Y-82309524D02*
X172467714Y-82309524D01*
X172467714Y-82309524D02*
X172543904Y-82271428D01*
X172543904Y-82271428D02*
X172582000Y-82233333D01*
X172582000Y-82233333D02*
X172620095Y-82157143D01*
X172620095Y-82157143D02*
X172620095Y-82004762D01*
X172620095Y-82004762D02*
X172582000Y-81928571D01*
X172582000Y-81928571D02*
X172543904Y-81890476D01*
X172543904Y-81890476D02*
X172467714Y-81852381D01*
X172467714Y-81852381D02*
X172315333Y-81852381D01*
X172315333Y-81852381D02*
X172239142Y-81890476D01*
X172239142Y-81890476D02*
X172201047Y-81928571D01*
X172201047Y-81928571D02*
X172162952Y-82004762D01*
X172620095Y-81090476D02*
X172620095Y-81547619D01*
X172620095Y-81319047D02*
X171820095Y-81319047D01*
X171820095Y-81319047D02*
X171934380Y-81395238D01*
X171934380Y-81395238D02*
X172010571Y-81471428D01*
X172010571Y-81471428D02*
X172048666Y-81547619D01*
X171820095Y-80823809D02*
X171820095Y-80290475D01*
X171820095Y-80290475D02*
X172620095Y-80633333D01*
%TO.C,J3*%
X164877714Y-73741619D02*
X164306286Y-73741619D01*
X164592000Y-73741619D02*
X164592000Y-72741619D01*
X164592000Y-72741619D02*
X164496762Y-72884476D01*
X164496762Y-72884476D02*
X164401524Y-72979714D01*
X164401524Y-72979714D02*
X164306286Y-73027333D01*
%TO.C,J5*%
X173641523Y-94119047D02*
X173641523Y-93738094D01*
X173870095Y-94195237D02*
X173070095Y-93928570D01*
X173070095Y-93928570D02*
X173870095Y-93661904D01*
X173070095Y-93395237D02*
X173717714Y-93395237D01*
X173717714Y-93395237D02*
X173793904Y-93357142D01*
X173793904Y-93357142D02*
X173832000Y-93319047D01*
X173832000Y-93319047D02*
X173870095Y-93242856D01*
X173870095Y-93242856D02*
X173870095Y-93090475D01*
X173870095Y-93090475D02*
X173832000Y-93014285D01*
X173832000Y-93014285D02*
X173793904Y-92976190D01*
X173793904Y-92976190D02*
X173717714Y-92938094D01*
X173717714Y-92938094D02*
X173070095Y-92938094D01*
X173870095Y-92557142D02*
X173070095Y-92557142D01*
X173070095Y-92557142D02*
X173070095Y-92366666D01*
X173070095Y-92366666D02*
X173108190Y-92252380D01*
X173108190Y-92252380D02*
X173184380Y-92176190D01*
X173184380Y-92176190D02*
X173260571Y-92138095D01*
X173260571Y-92138095D02*
X173412952Y-92099999D01*
X173412952Y-92099999D02*
X173527238Y-92099999D01*
X173527238Y-92099999D02*
X173679619Y-92138095D01*
X173679619Y-92138095D02*
X173755809Y-92176190D01*
X173755809Y-92176190D02*
X173832000Y-92252380D01*
X173832000Y-92252380D02*
X173870095Y-92366666D01*
X173870095Y-92366666D02*
X173870095Y-92557142D01*
X173870095Y-91757142D02*
X173070095Y-91757142D01*
X173070095Y-91223809D02*
X173070095Y-91071428D01*
X173070095Y-91071428D02*
X173108190Y-90995238D01*
X173108190Y-90995238D02*
X173184380Y-90919047D01*
X173184380Y-90919047D02*
X173336761Y-90880952D01*
X173336761Y-90880952D02*
X173603428Y-90880952D01*
X173603428Y-90880952D02*
X173755809Y-90919047D01*
X173755809Y-90919047D02*
X173832000Y-90995238D01*
X173832000Y-90995238D02*
X173870095Y-91071428D01*
X173870095Y-91071428D02*
X173870095Y-91223809D01*
X173870095Y-91223809D02*
X173832000Y-91300000D01*
X173832000Y-91300000D02*
X173755809Y-91376190D01*
X173755809Y-91376190D02*
X173603428Y-91414286D01*
X173603428Y-91414286D02*
X173336761Y-91414286D01*
X173336761Y-91414286D02*
X173184380Y-91376190D01*
X173184380Y-91376190D02*
X173108190Y-91300000D01*
X173108190Y-91300000D02*
X173070095Y-91223809D01*
X171370095Y-94328571D02*
X170570095Y-94328571D01*
X170570095Y-94328571D02*
X171141523Y-94061905D01*
X171141523Y-94061905D02*
X170570095Y-93795238D01*
X170570095Y-93795238D02*
X171370095Y-93795238D01*
X170570095Y-93261904D02*
X170570095Y-93109523D01*
X170570095Y-93109523D02*
X170608190Y-93033333D01*
X170608190Y-93033333D02*
X170684380Y-92957142D01*
X170684380Y-92957142D02*
X170836761Y-92919047D01*
X170836761Y-92919047D02*
X171103428Y-92919047D01*
X171103428Y-92919047D02*
X171255809Y-92957142D01*
X171255809Y-92957142D02*
X171332000Y-93033333D01*
X171332000Y-93033333D02*
X171370095Y-93109523D01*
X171370095Y-93109523D02*
X171370095Y-93261904D01*
X171370095Y-93261904D02*
X171332000Y-93338095D01*
X171332000Y-93338095D02*
X171255809Y-93414285D01*
X171255809Y-93414285D02*
X171103428Y-93452381D01*
X171103428Y-93452381D02*
X170836761Y-93452381D01*
X170836761Y-93452381D02*
X170684380Y-93414285D01*
X170684380Y-93414285D02*
X170608190Y-93338095D01*
X170608190Y-93338095D02*
X170570095Y-93261904D01*
X171370095Y-92576190D02*
X170570095Y-92576190D01*
X170570095Y-92576190D02*
X170570095Y-92385714D01*
X170570095Y-92385714D02*
X170608190Y-92271428D01*
X170608190Y-92271428D02*
X170684380Y-92195238D01*
X170684380Y-92195238D02*
X170760571Y-92157143D01*
X170760571Y-92157143D02*
X170912952Y-92119047D01*
X170912952Y-92119047D02*
X171027238Y-92119047D01*
X171027238Y-92119047D02*
X171179619Y-92157143D01*
X171179619Y-92157143D02*
X171255809Y-92195238D01*
X171255809Y-92195238D02*
X171332000Y-92271428D01*
X171332000Y-92271428D02*
X171370095Y-92385714D01*
X171370095Y-92385714D02*
X171370095Y-92576190D01*
X170951047Y-91776190D02*
X170951047Y-91509524D01*
X171370095Y-91395238D02*
X171370095Y-91776190D01*
X171370095Y-91776190D02*
X170570095Y-91776190D01*
X170570095Y-91776190D02*
X170570095Y-91395238D01*
X171370095Y-90633333D02*
X171370095Y-91090476D01*
X171370095Y-90861904D02*
X170570095Y-90861904D01*
X170570095Y-90861904D02*
X170684380Y-90938095D01*
X170684380Y-90938095D02*
X170760571Y-91014285D01*
X170760571Y-91014285D02*
X170798666Y-91090476D01*
%TO.C,J4*%
X174910714Y-75900619D02*
X174339286Y-75900619D01*
X174625000Y-75900619D02*
X174625000Y-74900619D01*
X174625000Y-74900619D02*
X174529762Y-75043476D01*
X174529762Y-75043476D02*
X174434524Y-75138714D01*
X174434524Y-75138714D02*
X174339286Y-75186333D01*
%TO.C,J2*%
X177506285Y-100626164D02*
X177077714Y-100626164D01*
X177291999Y-100626164D02*
X177291999Y-99876164D01*
X177291999Y-99876164D02*
X177220571Y-99983307D01*
X177220571Y-99983307D02*
X177149142Y-100054735D01*
X177149142Y-100054735D02*
X177077714Y-100090450D01*
X161736114Y-100227764D02*
X161736114Y-100727764D01*
X161557542Y-99942050D02*
X161378971Y-100477764D01*
X161378971Y-100477764D02*
X161843256Y-100477764D01*
X162271828Y-99977764D02*
X162343257Y-99977764D01*
X162343257Y-99977764D02*
X162414685Y-100013478D01*
X162414685Y-100013478D02*
X162450400Y-100049192D01*
X162450400Y-100049192D02*
X162486114Y-100120621D01*
X162486114Y-100120621D02*
X162521828Y-100263478D01*
X162521828Y-100263478D02*
X162521828Y-100442050D01*
X162521828Y-100442050D02*
X162486114Y-100584907D01*
X162486114Y-100584907D02*
X162450400Y-100656335D01*
X162450400Y-100656335D02*
X162414685Y-100692050D01*
X162414685Y-100692050D02*
X162343257Y-100727764D01*
X162343257Y-100727764D02*
X162271828Y-100727764D01*
X162271828Y-100727764D02*
X162200400Y-100692050D01*
X162200400Y-100692050D02*
X162164685Y-100656335D01*
X162164685Y-100656335D02*
X162128971Y-100584907D01*
X162128971Y-100584907D02*
X162093257Y-100442050D01*
X162093257Y-100442050D02*
X162093257Y-100263478D01*
X162093257Y-100263478D02*
X162128971Y-100120621D01*
X162128971Y-100120621D02*
X162164685Y-100049192D01*
X162164685Y-100049192D02*
X162200400Y-100013478D01*
X162200400Y-100013478D02*
X162271828Y-99977764D01*
D12*
%TO.C,D1*%
X172250000Y-78840000D02*
X172250000Y-79860000D01*
X173720000Y-79860000D02*
X170780000Y-79860000D01*
X170780000Y-79860000D02*
X170780000Y-85300000D01*
X173720000Y-80640000D02*
X170780000Y-80640000D01*
X173720000Y-80760000D02*
X170780000Y-80760000D01*
X173720000Y-80880000D02*
X170780000Y-80880000D01*
X173720000Y-85300000D02*
X173720000Y-79860000D01*
X170780000Y-85300000D02*
X173720000Y-85300000D01*
X172250000Y-86320000D02*
X172250000Y-85300000D01*
%TO.C,J3*%
X163262000Y-74235000D02*
X164592000Y-74235000D01*
X163262000Y-75565000D02*
X163262000Y-74235000D01*
X163262000Y-76835000D02*
X163262000Y-99755000D01*
X163262000Y-76835000D02*
X165862000Y-76835000D01*
X163262000Y-99755000D02*
X168462000Y-99755000D01*
X165862000Y-74235000D02*
X168462000Y-74235000D01*
X165862000Y-76835000D02*
X165862000Y-74235000D01*
X168462000Y-74235000D02*
X168462000Y-99755000D01*
%TO.C,J5*%
X174855000Y-94670000D02*
X174855000Y-96000000D01*
X173525000Y-94670000D02*
X174855000Y-94670000D01*
X172255000Y-94670000D02*
X169655000Y-94670000D01*
X172255000Y-94670000D02*
X172255000Y-97330000D01*
X169655000Y-94670000D02*
X169655000Y-97330000D01*
X172255000Y-97330000D02*
X169655000Y-97330000D01*
%TO.C,J4*%
X175828000Y-74355000D02*
X174498000Y-74355000D01*
X175828000Y-73025000D02*
X175828000Y-74355000D01*
X175828000Y-71755000D02*
X175828000Y-48835000D01*
X175828000Y-71755000D02*
X173228000Y-71755000D01*
X175828000Y-48835000D02*
X170628000Y-48835000D01*
X173228000Y-74355000D02*
X170628000Y-74355000D01*
X173228000Y-71755000D02*
X173228000Y-74355000D01*
X170628000Y-74355000D02*
X170628000Y-48835000D01*
%TD*%
M02*
