%TF.GenerationSoftware,KiCad,Pcbnew,7.0.1*%
%TF.CreationDate,2023-06-01T10:46:20-07:00*%
%TF.ProjectId,tn_vdp_v2_socket,746e5f76-6470-45f7-9632-5f736f636b65,rev?*%
%TF.SameCoordinates,Original*%
%TF.FileFunction,Drillmap*%
%TF.FilePolarity,Positive*%
%FSLAX45Y45*%
G04 Gerber Fmt 4.5, Leading zero omitted, Abs format (unit mm)*
G04 Created by KiCad (PCBNEW 7.0.1) date 2023-06-01 10:46:20*
%MOMM*%
%LPD*%
G01*
G04 APERTURE LIST*
%ADD10C,0.100000*%
%ADD11C,0.200000*%
G04 APERTURE END LIST*
D10*
X15938500Y-10096500D02*
X15938500Y-4762500D01*
X17335500Y-11112500D02*
X17335500Y-11112500D01*
X17970500Y-10096500D02*
X15938500Y-10096500D01*
X17970500Y-4762500D02*
X17970500Y-10096500D01*
X17970500Y-4762500D02*
X15938500Y-4762500D01*
D11*
X16181119Y-11430024D02*
X16181119Y-11230024D01*
X16181119Y-11230024D02*
X16228738Y-11230024D01*
X16228738Y-11230024D02*
X16257309Y-11239548D01*
X16257309Y-11239548D02*
X16276357Y-11258595D01*
X16276357Y-11258595D02*
X16285881Y-11277643D01*
X16285881Y-11277643D02*
X16295405Y-11315738D01*
X16295405Y-11315738D02*
X16295405Y-11344309D01*
X16295405Y-11344309D02*
X16285881Y-11382405D01*
X16285881Y-11382405D02*
X16276357Y-11401452D01*
X16276357Y-11401452D02*
X16257309Y-11420500D01*
X16257309Y-11420500D02*
X16228738Y-11430024D01*
X16228738Y-11430024D02*
X16181119Y-11430024D01*
X16381119Y-11430024D02*
X16381119Y-11296690D01*
X16381119Y-11334786D02*
X16390643Y-11315738D01*
X16390643Y-11315738D02*
X16400167Y-11306214D01*
X16400167Y-11306214D02*
X16419214Y-11296690D01*
X16419214Y-11296690D02*
X16438262Y-11296690D01*
X16504928Y-11430024D02*
X16504928Y-11296690D01*
X16504928Y-11230024D02*
X16495405Y-11239548D01*
X16495405Y-11239548D02*
X16504928Y-11249071D01*
X16504928Y-11249071D02*
X16514452Y-11239548D01*
X16514452Y-11239548D02*
X16504928Y-11230024D01*
X16504928Y-11230024D02*
X16504928Y-11249071D01*
X16628738Y-11430024D02*
X16609690Y-11420500D01*
X16609690Y-11420500D02*
X16600167Y-11401452D01*
X16600167Y-11401452D02*
X16600167Y-11230024D01*
X16733500Y-11430024D02*
X16714452Y-11420500D01*
X16714452Y-11420500D02*
X16704928Y-11401452D01*
X16704928Y-11401452D02*
X16704928Y-11230024D01*
X16962071Y-11430024D02*
X16962071Y-11230024D01*
X16962071Y-11230024D02*
X17028738Y-11372881D01*
X17028738Y-11372881D02*
X17095405Y-11230024D01*
X17095405Y-11230024D02*
X17095405Y-11430024D01*
X17276357Y-11430024D02*
X17276357Y-11325262D01*
X17276357Y-11325262D02*
X17266833Y-11306214D01*
X17266833Y-11306214D02*
X17247786Y-11296690D01*
X17247786Y-11296690D02*
X17209690Y-11296690D01*
X17209690Y-11296690D02*
X17190643Y-11306214D01*
X17276357Y-11420500D02*
X17257310Y-11430024D01*
X17257310Y-11430024D02*
X17209690Y-11430024D01*
X17209690Y-11430024D02*
X17190643Y-11420500D01*
X17190643Y-11420500D02*
X17181119Y-11401452D01*
X17181119Y-11401452D02*
X17181119Y-11382405D01*
X17181119Y-11382405D02*
X17190643Y-11363357D01*
X17190643Y-11363357D02*
X17209690Y-11353833D01*
X17209690Y-11353833D02*
X17257310Y-11353833D01*
X17257310Y-11353833D02*
X17276357Y-11344309D01*
X17371595Y-11296690D02*
X17371595Y-11496690D01*
X17371595Y-11306214D02*
X17390643Y-11296690D01*
X17390643Y-11296690D02*
X17428738Y-11296690D01*
X17428738Y-11296690D02*
X17447786Y-11306214D01*
X17447786Y-11306214D02*
X17457310Y-11315738D01*
X17457310Y-11315738D02*
X17466833Y-11334786D01*
X17466833Y-11334786D02*
X17466833Y-11391928D01*
X17466833Y-11391928D02*
X17457310Y-11410976D01*
X17457310Y-11410976D02*
X17447786Y-11420500D01*
X17447786Y-11420500D02*
X17428738Y-11430024D01*
X17428738Y-11430024D02*
X17390643Y-11430024D01*
X17390643Y-11430024D02*
X17371595Y-11420500D01*
X17552548Y-11410976D02*
X17562071Y-11420500D01*
X17562071Y-11420500D02*
X17552548Y-11430024D01*
X17552548Y-11430024D02*
X17543024Y-11420500D01*
X17543024Y-11420500D02*
X17552548Y-11410976D01*
X17552548Y-11410976D02*
X17552548Y-11430024D01*
X17552548Y-11306214D02*
X17562071Y-11315738D01*
X17562071Y-11315738D02*
X17552548Y-11325262D01*
X17552548Y-11325262D02*
X17543024Y-11315738D01*
X17543024Y-11315738D02*
X17552548Y-11306214D01*
X17552548Y-11306214D02*
X17552548Y-11325262D01*
M02*
