%TF.GenerationSoftware,KiCad,Pcbnew,7.0.1*%
%TF.CreationDate,2023-06-01T10:46:18-07:00*%
%TF.ProjectId,tn_vdp_v2_socket,746e5f76-6470-45f7-9632-5f736f636b65,rev?*%
%TF.SameCoordinates,Original*%
%TF.FileFunction,Copper,L1,Top*%
%TF.FilePolarity,Positive*%
%FSLAX46Y46*%
G04 Gerber Fmt 4.6, Leading zero omitted, Abs format (unit mm)*
G04 Created by KiCad (PCBNEW 7.0.1) date 2023-06-01 10:46:18*
%MOMM*%
%LPD*%
G01*
G04 APERTURE LIST*
%TA.AperFunction,ComponentPad*%
%ADD10R,2.200000X2.200000*%
%TD*%
%TA.AperFunction,ComponentPad*%
%ADD11O,2.200000X2.200000*%
%TD*%
%TA.AperFunction,ComponentPad*%
%ADD12R,1.700000X1.700000*%
%TD*%
%TA.AperFunction,ComponentPad*%
%ADD13O,1.700000X1.700000*%
%TD*%
%TA.AperFunction,ViaPad*%
%ADD14C,0.800000*%
%TD*%
%TA.AperFunction,Conductor*%
%ADD15C,0.250000*%
%TD*%
G04 APERTURE END LIST*
D10*
%TO.P,D1,1,K*%
%TO.N,VCCO*%
X172250000Y-77500000D03*
D11*
%TO.P,D1,2,A*%
%TO.N,VCC*%
X172250000Y-87660000D03*
%TD*%
D12*
%TO.P,J3,1,Pin_1*%
%TO.N,GND*%
X164592000Y-75565000D03*
D13*
%TO.P,J3,2,Pin_2*%
%TO.N,VCCO*%
X167132000Y-75565000D03*
%TO.P,J3,3,Pin_3*%
%TO.N,GND*%
X164592000Y-78105000D03*
%TO.P,J3,4,Pin_4*%
%TO.N,CPUCLK*%
X167132000Y-78105000D03*
%TO.P,J3,5,Pin_5*%
%TO.N,CD0*%
X164592000Y-80645000D03*
%TO.P,J3,6,Pin_6*%
%TO.N,GROMCLK*%
X167132000Y-80645000D03*
%TO.P,J3,7,Pin_7*%
%TO.N,CD1*%
X164592000Y-83185000D03*
%TO.P,J3,8,Pin_8*%
%TO.N,AUDIO*%
X167132000Y-83185000D03*
%TO.P,J3,9,Pin_9*%
%TO.N,CD2*%
X164592000Y-85725000D03*
%TO.P,J3,10,Pin_10*%
%TO.N,MODE1*%
X167132000Y-85725000D03*
%TO.P,J3,11,Pin_11*%
%TO.N,CD3*%
X164592000Y-88265000D03*
%TO.P,J3,12,Pin_12*%
%TO.N,~{RESET}*%
X167132000Y-88265000D03*
%TO.P,J3,13,Pin_13*%
%TO.N,CD4*%
X164592000Y-90805000D03*
%TO.P,J3,14,Pin_14*%
%TO.N,MODE0*%
X167132000Y-90805000D03*
%TO.P,J3,15,Pin_15*%
%TO.N,CD5*%
X164592000Y-93345000D03*
%TO.P,J3,16,Pin_16*%
%TO.N,~{CSW}*%
X167132000Y-93345000D03*
%TO.P,J3,17,Pin_17*%
%TO.N,CD6*%
X164592000Y-95885000D03*
%TO.P,J3,18,Pin_18*%
%TO.N,~{CSR}*%
X167132000Y-95885000D03*
%TO.P,J3,19,Pin_19*%
%TO.N,CD7*%
X164592000Y-98425000D03*
%TO.P,J3,20,Pin_20*%
%TO.N,~{INT}*%
X167132000Y-98425000D03*
%TD*%
D12*
%TO.P,J5,1,Pin_1*%
%TO.N,AUDIO*%
X173525000Y-96000000D03*
D13*
%TO.P,J5,2,Pin_2*%
%TO.N,MODE1*%
X170985000Y-96000000D03*
%TD*%
D12*
%TO.P,J4,1,Pin_1*%
%TO.N,GND*%
X174498000Y-73025000D03*
D13*
%TO.P,J4,2,Pin_2*%
%TO.N,VCCO*%
X171958000Y-73025000D03*
%TO.P,J4,3,Pin_3*%
%TO.N,GND*%
X174498000Y-70485000D03*
%TO.P,J4,4,Pin_4*%
%TO.N,CPUCLK*%
X171958000Y-70485000D03*
%TO.P,J4,5,Pin_5*%
%TO.N,CD0*%
X174498000Y-67945000D03*
%TO.P,J4,6,Pin_6*%
%TO.N,GROMCLK*%
X171958000Y-67945000D03*
%TO.P,J4,7,Pin_7*%
%TO.N,CD1*%
X174498000Y-65405000D03*
%TO.P,J4,8,Pin_8*%
%TO.N,AUDIO*%
X171958000Y-65405000D03*
%TO.P,J4,9,Pin_9*%
%TO.N,CD2*%
X174498000Y-62865000D03*
%TO.P,J4,10,Pin_10*%
%TO.N,MODE1*%
X171958000Y-62865000D03*
%TO.P,J4,11,Pin_11*%
%TO.N,CD3*%
X174498000Y-60325000D03*
%TO.P,J4,12,Pin_12*%
%TO.N,~{RESET}*%
X171958000Y-60325000D03*
%TO.P,J4,13,Pin_13*%
%TO.N,CD4*%
X174498000Y-57785000D03*
%TO.P,J4,14,Pin_14*%
%TO.N,MODE0*%
X171958000Y-57785000D03*
%TO.P,J4,15,Pin_15*%
%TO.N,CD5*%
X174498000Y-55245000D03*
%TO.P,J4,16,Pin_16*%
%TO.N,~{CSW}*%
X171958000Y-55245000D03*
%TO.P,J4,17,Pin_17*%
%TO.N,CD6*%
X174498000Y-52705000D03*
%TO.P,J4,18,Pin_18*%
%TO.N,~{CSR}*%
X171958000Y-52705000D03*
%TO.P,J4,19,Pin_19*%
%TO.N,CD7*%
X174498000Y-50165000D03*
%TO.P,J4,20,Pin_20*%
%TO.N,~{INT}*%
X171958000Y-50165000D03*
%TD*%
D12*
%TO.P,J2,1,Pin_1*%
%TO.N,unconnected-(J2-Pin_1-Pad1)*%
X161975800Y-98420000D03*
D13*
%TO.P,J2,2,Pin_2*%
%TO.N,unconnected-(J2-Pin_2-Pad2)*%
X161975800Y-95880000D03*
%TO.P,J2,3,Pin_3*%
%TO.N,CPUCLK*%
X161975800Y-93340000D03*
%TO.P,J2,4,Pin_4*%
%TO.N,GROMCLK*%
X161975800Y-90800000D03*
%TO.P,J2,5,Pin_5*%
%TO.N,unconnected-(J2-Pin_5-Pad5)*%
X161975800Y-88260000D03*
%TO.P,J2,6,Pin_6*%
%TO.N,unconnected-(J2-Pin_6-Pad6)*%
X161975800Y-85720000D03*
%TO.P,J2,7,Pin_7*%
%TO.N,~{RESET}*%
X161975800Y-83180000D03*
%TO.P,J2,8,Pin_8*%
%TO.N,VCC*%
X161975800Y-80640000D03*
%TO.P,J2,9,Pin_9*%
%TO.N,unconnected-(J2-Pin_9-Pad9)*%
X161975800Y-78100000D03*
%TO.P,J2,10,Pin_10*%
%TO.N,unconnected-(J2-Pin_10-Pad10)*%
X161975800Y-75560000D03*
%TO.P,J2,11,Pin_11*%
%TO.N,unconnected-(J2-Pin_11-Pad11)*%
X161975800Y-73020000D03*
%TO.P,J2,12,Pin_12*%
%TO.N,unconnected-(J2-Pin_12-Pad12)*%
X161975800Y-70480000D03*
%TO.P,J2,13,Pin_13*%
%TO.N,unconnected-(J2-Pin_13-Pad13)*%
X161975800Y-67940000D03*
%TO.P,J2,14,Pin_14*%
%TO.N,unconnected-(J2-Pin_14-Pad14)*%
X161975800Y-65400000D03*
%TO.P,J2,15,Pin_15*%
%TO.N,unconnected-(J2-Pin_15-Pad15)*%
X161975800Y-62860000D03*
%TO.P,J2,16,Pin_16*%
%TO.N,unconnected-(J2-Pin_16-Pad16)*%
X161975800Y-60320000D03*
%TO.P,J2,17,Pin_17*%
%TO.N,CD0*%
X161975800Y-57780000D03*
%TO.P,J2,18,Pin_18*%
%TO.N,CD1*%
X161975800Y-55240000D03*
%TO.P,J2,19,Pin_19*%
%TO.N,CD2*%
X161975800Y-52700000D03*
%TO.P,J2,20,Pin_20*%
%TO.N,CD3*%
X161975800Y-50160000D03*
%TD*%
D12*
%TO.P,J1,1,Pin_1*%
%TO.N,unconnected-(J1-Pin_1-Pad1)*%
X177215800Y-98420000D03*
D13*
%TO.P,J1,2,Pin_2*%
%TO.N,unconnected-(J1-Pin_2-Pad2)*%
X177215800Y-95880000D03*
%TO.P,J1,3,Pin_3*%
%TO.N,unconnected-(J1-Pin_3-Pad3)*%
X177215800Y-93340000D03*
%TO.P,J1,4,Pin_4*%
%TO.N,unconnected-(J1-Pin_4-Pad4)*%
X177215800Y-90800000D03*
%TO.P,J1,5,Pin_5*%
%TO.N,unconnected-(J1-Pin_5-Pad5)*%
X177215800Y-88260000D03*
%TO.P,J1,6,Pin_6*%
%TO.N,unconnected-(J1-Pin_6-Pad6)*%
X177215800Y-85720000D03*
%TO.P,J1,7,Pin_7*%
%TO.N,unconnected-(J1-Pin_7-Pad7)*%
X177215800Y-83180000D03*
%TO.P,J1,8,Pin_8*%
%TO.N,unconnected-(J1-Pin_8-Pad8)*%
X177215800Y-80640000D03*
%TO.P,J1,9,Pin_9*%
%TO.N,unconnected-(J1-Pin_9-Pad9)*%
X177215800Y-78100000D03*
%TO.P,J1,10,Pin_10*%
%TO.N,unconnected-(J1-Pin_10-Pad10)*%
X177215800Y-75560000D03*
%TO.P,J1,11,Pin_11*%
%TO.N,unconnected-(J1-Pin_11-Pad11)*%
X177215800Y-73020000D03*
%TO.P,J1,12,Pin_12*%
%TO.N,GND*%
X177215800Y-70480000D03*
%TO.P,J1,13,Pin_13*%
%TO.N,MODE0*%
X177215800Y-67940000D03*
%TO.P,J1,14,Pin_14*%
%TO.N,~{CSW}*%
X177215800Y-65400000D03*
%TO.P,J1,15,Pin_15*%
%TO.N,~{CSR}*%
X177215800Y-62860000D03*
%TO.P,J1,16,Pin_16*%
%TO.N,~{INT}*%
X177215800Y-60320000D03*
%TO.P,J1,17,Pin_17*%
%TO.N,CD7*%
X177215800Y-57780000D03*
%TO.P,J1,18,Pin_18*%
%TO.N,CD6*%
X177215800Y-55240000D03*
%TO.P,J1,19,Pin_19*%
%TO.N,CD5*%
X177215800Y-52700000D03*
%TO.P,J1,20,Pin_20*%
%TO.N,CD4*%
X177215800Y-50160000D03*
%TD*%
D14*
%TO.N,~{CSR}*%
X170446400Y-66745900D03*
%TO.N,~{RESET}*%
X160024200Y-94179500D03*
%TO.N,GROMCLK*%
X169131100Y-79821000D03*
%TO.N,AUDIO*%
X170533400Y-86639900D03*
%TO.N,MODE1*%
X170680200Y-89177000D03*
%TD*%
D15*
%TO.N,GND*%
X164592000Y-78105000D02*
X164592000Y-75565000D01*
X174498000Y-70485000D02*
X174498000Y-73025000D01*
%TO.N,VCCO*%
X171958000Y-75782900D02*
X172250000Y-76074900D01*
X171958000Y-73025000D02*
X171958000Y-75782900D01*
X172250000Y-77500000D02*
X172250000Y-76074900D01*
%TO.N,MODE0*%
X177215800Y-66764900D02*
X176848500Y-66764900D01*
X172323200Y-58960100D02*
X171958000Y-58960100D01*
X171958000Y-57785000D02*
X171958000Y-58960100D01*
X176848500Y-66764900D02*
X176040700Y-65957100D01*
X176040700Y-65957100D02*
X176040700Y-65203600D01*
X176040700Y-65203600D02*
X174938700Y-64101600D01*
X174938700Y-64101600D02*
X174029800Y-64101600D01*
X173228000Y-59864900D02*
X172323200Y-58960100D01*
X177215800Y-67940000D02*
X177215800Y-66764900D01*
X173228000Y-63299800D02*
X173228000Y-59864900D01*
X174029800Y-64101600D02*
X173228000Y-63299800D01*
%TO.N,~{CSR}*%
X170446400Y-55026400D02*
X170446400Y-66745900D01*
X171958000Y-53880100D02*
X171592700Y-53880100D01*
X171592700Y-53880100D02*
X170446400Y-55026400D01*
X171958000Y-52705000D02*
X171958000Y-53880100D01*
%TO.N,~{INT}*%
X171958000Y-50165000D02*
X171958000Y-51340100D01*
X169303900Y-84349900D02*
X176040700Y-77613100D01*
X177612900Y-74290000D02*
X178896100Y-73006800D01*
X176725400Y-54061800D02*
X175744400Y-55042800D01*
X175744400Y-55042800D02*
X175744400Y-55661500D01*
X167499200Y-97249900D02*
X169303900Y-95445200D01*
X176040700Y-77613100D02*
X176040700Y-75073100D01*
X173228000Y-52244900D02*
X172323200Y-51340100D01*
X178896100Y-73006800D02*
X178896100Y-55257600D01*
X177215800Y-60320000D02*
X177215800Y-59144900D01*
X176040700Y-57583600D02*
X174931500Y-56474400D01*
X176040700Y-75073100D02*
X176823800Y-74290000D01*
X174003700Y-56474400D02*
X173228000Y-55698700D01*
X174931500Y-56474400D02*
X174003700Y-56474400D01*
X173228000Y-55698700D02*
X173228000Y-52244900D01*
X167132000Y-98425000D02*
X167132000Y-97249900D01*
X177700300Y-54061800D02*
X176725400Y-54061800D01*
X176040700Y-58337100D02*
X176040700Y-57583600D01*
X175744400Y-55661500D02*
X174931500Y-56474400D01*
X172323200Y-51340100D02*
X171958000Y-51340100D01*
X176823800Y-74290000D02*
X177612900Y-74290000D01*
X178896100Y-55257600D02*
X177700300Y-54061800D01*
X169303900Y-95445200D02*
X169303900Y-84349900D01*
X167132000Y-97249900D02*
X167499200Y-97249900D01*
X176848500Y-59144900D02*
X176040700Y-58337100D01*
X177215800Y-59144900D02*
X176848500Y-59144900D01*
%TO.N,CD6*%
X167604500Y-92075000D02*
X166701100Y-92075000D01*
X168853700Y-90825800D02*
X167604500Y-92075000D01*
X177215800Y-56415100D02*
X177581000Y-56415100D01*
X175815700Y-74589200D02*
X175365700Y-75039200D01*
X165767100Y-93009000D02*
X165767100Y-93902100D01*
X165767100Y-93902100D02*
X164959300Y-94709900D01*
X177704500Y-71750000D02*
X176821700Y-71750000D01*
X175815700Y-72756000D02*
X175815700Y-74589200D01*
X164592000Y-95885000D02*
X164592000Y-94709900D01*
X176821700Y-71750000D02*
X175815700Y-72756000D01*
X177215800Y-55240000D02*
X177215800Y-56415100D01*
X175365700Y-77425600D02*
X168853700Y-83937600D01*
X168853700Y-83937600D02*
X168853700Y-90825800D01*
X177581000Y-56415100D02*
X178416300Y-57250400D01*
X164959300Y-94709900D02*
X164592000Y-94709900D01*
X178416300Y-57250400D02*
X178416300Y-71038200D01*
X166701100Y-92075000D02*
X165767100Y-93009000D01*
X175365700Y-75039200D02*
X175365700Y-77425600D01*
X178416300Y-71038200D02*
X177704500Y-71750000D01*
%TO.N,CD5*%
X179346200Y-77633700D02*
X179346200Y-55030800D01*
X169808300Y-97469900D02*
X169808300Y-86339600D01*
X177215800Y-52700000D02*
X176935800Y-52700000D01*
X177609900Y-79370000D02*
X179346200Y-77633700D01*
X174827900Y-54069900D02*
X174498000Y-54069900D01*
X165767200Y-97899300D02*
X165767200Y-98787900D01*
X163398700Y-94538300D02*
X163398700Y-96404200D01*
X176040700Y-52857100D02*
X174827900Y-54069900D01*
X169808300Y-86339600D02*
X176777900Y-79370000D01*
X164149500Y-97155000D02*
X165022900Y-97155000D01*
X166633100Y-99653800D02*
X167624400Y-99653800D01*
X167624400Y-99653800D02*
X169808300Y-97469900D01*
X163398700Y-96404200D02*
X164149500Y-97155000D01*
X174498000Y-55245000D02*
X174498000Y-54069900D01*
X177015400Y-52700000D02*
X176935800Y-52700000D01*
X164592000Y-93345000D02*
X163398700Y-94538300D01*
X176040700Y-52700000D02*
X176040700Y-52857100D01*
X179346200Y-55030800D02*
X177015400Y-52700000D01*
X165767200Y-98787900D02*
X166633100Y-99653800D01*
X176777900Y-79370000D02*
X177609900Y-79370000D01*
X176935800Y-52700000D02*
X176040700Y-52700000D01*
X165022900Y-97155000D02*
X165767200Y-97899300D01*
%TO.N,CD4*%
X163281400Y-88684600D02*
X164226700Y-89629900D01*
X163281400Y-87842500D02*
X163281400Y-88684600D01*
X164226700Y-89629900D02*
X164592000Y-89629900D01*
X161504300Y-86990000D02*
X162428900Y-86990000D01*
X159855200Y-50599800D02*
X159855200Y-85340900D01*
X176040700Y-50160000D02*
X176040700Y-50013100D01*
X176040700Y-50013100D02*
X175011400Y-48983800D01*
X159855200Y-85340900D02*
X161504300Y-86990000D01*
X162428900Y-86990000D02*
X163281400Y-87842500D01*
X175011400Y-48983800D02*
X161471200Y-48983800D01*
X177215800Y-50160000D02*
X176040700Y-50160000D01*
X164592000Y-90805000D02*
X164592000Y-89629900D01*
X161471200Y-48983800D02*
X159855200Y-50599800D01*
%TO.N,CD3*%
X161975800Y-51335100D02*
X161608600Y-51335100D01*
X160305400Y-52638300D02*
X160305400Y-80634500D01*
X161608600Y-51335100D02*
X160305400Y-52638300D01*
X163151000Y-86014200D02*
X164226700Y-87089900D01*
X163151000Y-82596900D02*
X163151000Y-86014200D01*
X161975800Y-50160000D02*
X161975800Y-51335100D01*
X164592000Y-88265000D02*
X164592000Y-87089900D01*
X160305400Y-80634500D02*
X161580900Y-81910000D01*
X162464100Y-81910000D02*
X163151000Y-82596900D01*
X161580900Y-81910000D02*
X162464100Y-81910000D01*
X164226700Y-87089900D02*
X164592000Y-87089900D01*
%TO.N,CD2*%
X161975800Y-52700000D02*
X161975800Y-53875100D01*
X165782600Y-57314700D02*
X165782600Y-83724500D01*
X164592000Y-85725000D02*
X164592000Y-84549900D01*
X162343000Y-53875100D02*
X165782600Y-57314700D01*
X164957200Y-84549900D02*
X164592000Y-84549900D01*
X161975800Y-53875100D02*
X162343000Y-53875100D01*
X165782600Y-83724500D02*
X164957200Y-84549900D01*
%TO.N,CD1*%
X163151000Y-80105900D02*
X163151000Y-80934200D01*
X163151000Y-80934200D02*
X164226700Y-82009900D01*
X161975800Y-55240000D02*
X161975800Y-56415100D01*
X161557300Y-79370000D02*
X162415100Y-79370000D01*
X164226700Y-82009900D02*
X164592000Y-82009900D01*
X161975800Y-56415100D02*
X161661400Y-56415100D01*
X160768300Y-57308200D02*
X160768300Y-78581000D01*
X164592000Y-83185000D02*
X164592000Y-82009900D01*
X160768300Y-78581000D02*
X161557300Y-79370000D01*
X162415100Y-79370000D02*
X163151000Y-80105900D01*
X161661400Y-56415100D02*
X160768300Y-57308200D01*
%TO.N,CD0*%
X164226700Y-79469900D02*
X164592000Y-79469900D01*
X164592000Y-80645000D02*
X164592000Y-79469900D01*
X161975800Y-57780000D02*
X161975800Y-58955100D01*
X161975800Y-58955100D02*
X162343100Y-58955100D01*
X163150900Y-78394100D02*
X164226700Y-79469900D01*
X163150900Y-59762900D02*
X163150900Y-78394100D01*
X162343100Y-58955100D02*
X163150900Y-59762900D01*
%TO.N,~{RESET}*%
X166764700Y-89440100D02*
X165956900Y-90247900D01*
X167132000Y-89440100D02*
X166764700Y-89440100D01*
X164921600Y-92164800D02*
X161416100Y-92164800D01*
X161416100Y-92164800D02*
X160024200Y-93556700D01*
X160024200Y-93556700D02*
X160024200Y-94179500D01*
X165956900Y-90247900D02*
X165956900Y-91129500D01*
X167132000Y-88265000D02*
X167132000Y-89440100D01*
X165956900Y-91129500D02*
X164921600Y-92164800D01*
%TO.N,GROMCLK*%
X169131100Y-71579800D02*
X169131100Y-79821000D01*
X171958000Y-67945000D02*
X171958000Y-69120100D01*
X171958000Y-69120100D02*
X171590800Y-69120100D01*
X171590800Y-69120100D02*
X169131100Y-71579800D01*
%TO.N,AUDIO*%
X170533400Y-86639900D02*
X170533400Y-88004700D01*
X171958000Y-65405000D02*
X171958000Y-66580100D01*
X167497200Y-82009900D02*
X167132000Y-82009900D01*
X168406000Y-69823700D02*
X168406000Y-81101100D01*
X168406000Y-81101100D02*
X167497200Y-82009900D01*
X171649600Y-66580100D02*
X168406000Y-69823700D01*
X173525000Y-90996300D02*
X173525000Y-96000000D01*
X167132000Y-83185000D02*
X167132000Y-82009900D01*
X170533400Y-88004700D02*
X173525000Y-90996300D01*
X171958000Y-66580100D02*
X171649600Y-66580100D01*
%TO.N,MODE1*%
X167132000Y-85725000D02*
X167132000Y-84549900D01*
X173133200Y-64848100D02*
X173133200Y-71010700D01*
X170985000Y-96000000D02*
X170985000Y-94824900D01*
X170037500Y-81941500D02*
X167429100Y-84549900D01*
X171545800Y-71755000D02*
X170037500Y-73263300D01*
X172325200Y-64040100D02*
X173133200Y-64848100D01*
X173133200Y-71010700D02*
X172388900Y-71755000D01*
X172388900Y-71755000D02*
X171545800Y-71755000D01*
X171958000Y-62865000D02*
X171958000Y-64040100D01*
X170680200Y-94520100D02*
X170680200Y-89177000D01*
X170037500Y-73263300D02*
X170037500Y-81941500D01*
X167429100Y-84549900D02*
X167132000Y-84549900D01*
X171958000Y-64040100D02*
X172325200Y-64040100D01*
X170985000Y-94824900D02*
X170680200Y-94520100D01*
%TD*%
M02*
