M48
; DRILL file {KiCad 7.0.1} date Thu Jun  1 10:46:20 2023
; FORMAT={-:-/ absolute / inch / decimal}
; #@! TF.CreationDate,2023-06-01T10:46:20-07:00
; #@! TF.GenerationSoftware,Kicad,Pcbnew,7.0.1
; #@! TF.FileFunction,Plated,1,2,PTH
FMAT,2
INCH
; #@! TA.AperFunction,Plated,PTH,ViaDrill
T1C0.0157
; #@! TA.AperFunction,Plated,PTH,ComponentDrill
T2C0.0394
; #@! TA.AperFunction,Plated,PTH,ComponentDrill
T3C0.0433
%
G90
G05
T1
X6.3002Y-3.7079
X6.6587Y-3.1426
X6.7105Y-2.6278
X6.7139Y-3.411
X6.7197Y-3.5109
T2
X6.377Y-1.9748
X6.377Y-2.0748
X6.377Y-2.1748
X6.377Y-2.2748
X6.377Y-2.3748
X6.377Y-2.4748
X6.377Y-2.5748
X6.377Y-2.6748
X6.377Y-2.7748
X6.377Y-2.8748
X6.377Y-2.9748
X6.377Y-3.0748
X6.377Y-3.1748
X6.377Y-3.2748
X6.377Y-3.3748
X6.377Y-3.4748
X6.377Y-3.5748
X6.377Y-3.6748
X6.377Y-3.7748
X6.377Y-3.8748
X6.48Y-2.975
X6.48Y-3.075
X6.48Y-3.175
X6.48Y-3.275
X6.48Y-3.375
X6.48Y-3.475
X6.48Y-3.575
X6.48Y-3.675
X6.48Y-3.775
X6.48Y-3.875
X6.58Y-2.975
X6.58Y-3.075
X6.58Y-3.175
X6.58Y-3.275
X6.58Y-3.375
X6.58Y-3.475
X6.58Y-3.575
X6.58Y-3.675
X6.58Y-3.775
X6.58Y-3.875
X6.7317Y-3.7795
X6.77Y-1.975
X6.77Y-2.075
X6.77Y-2.175
X6.77Y-2.275
X6.77Y-2.375
X6.77Y-2.475
X6.77Y-2.575
X6.77Y-2.675
X6.77Y-2.775
X6.77Y-2.875
X6.8317Y-3.7795
X6.87Y-1.975
X6.87Y-2.075
X6.87Y-2.175
X6.87Y-2.275
X6.87Y-2.375
X6.87Y-2.475
X6.87Y-2.575
X6.87Y-2.675
X6.87Y-2.775
X6.87Y-2.875
X6.977Y-1.9748
X6.977Y-2.0748
X6.977Y-2.1748
X6.977Y-2.2748
X6.977Y-2.3748
X6.977Y-2.4748
X6.977Y-2.5748
X6.977Y-2.6748
X6.977Y-2.7748
X6.977Y-2.8748
X6.977Y-2.9748
X6.977Y-3.0748
X6.977Y-3.1748
X6.977Y-3.2748
X6.977Y-3.3748
X6.977Y-3.4748
X6.977Y-3.5748
X6.977Y-3.6748
X6.977Y-3.7748
X6.977Y-3.8748
T3
X6.7815Y-3.0512
X6.7815Y-3.4512
T0
M30
